<?xml version="1.0" encoding="UTF-8" standalone="no"?>
<!DOCTYPE svg PUBLIC "-//W3C//DTD SVG 1.1//EN" "http://www.w3.org/Graphics/SVG/1.1/DTD/svg11.dtd">
<svg width="100%" height="100%" viewBox="0 0 480 480" version="1.1" xmlns="http://www.w3.org/2000/svg" xmlns:xlink="http://www.w3.org/1999/xlink" xml:space="preserve" xmlns:serif="http://www.serif.com/" style="fill-rule:evenodd;clip-rule:evenodd;stroke-linejoin:round;stroke-miterlimit:2;">
    <g transform="matrix(1,0,0,1,-350.8,-0.05)">
        <g transform="matrix(0.999792,0,0,0.999792,350.8,0.05)">
            <rect x="0" y="240" width="240" height="240" style="fill:rgb(251,65,93);"/>
        </g>
        <g transform="matrix(0.999792,0,0,0.999792,350.8,0.05)">
            <rect x="240" y="0" width="240" height="240" style="fill:rgb(12,161,255);"/>
        </g>
        <g transform="matrix(0.999792,0,0,0.999792,350.8,0.05)">
            <rect x="0" y="0" width="240" height="40" style="fill:rgb(234,94,172);"/>
        </g>
        <g transform="matrix(0.999792,0,0,0.999792,350.8,0.05)">
            <rect x="0" y="40" width="240" height="40" style="fill:rgb(233,108,173);"/>
        </g>
        <g transform="matrix(0.999792,0,0,0.999792,350.8,0.05)">
            <rect x="0" y="80" width="240" height="40" style="fill:rgb(236,144,104);"/>
        </g>
        <g transform="matrix(0.999792,0,0,0.999792,350.8,0.05)">
            <rect x="0" y="120" width="240" height="40" style="fill:rgb(237,201,51);"/>
        </g>
        <g transform="matrix(0.999792,0,0,0.999792,350.8,0.05)">
            <rect x="0" y="160" width="240" height="40" style="fill:rgb(83,199,185);"/>
        </g>
        <g transform="matrix(0.999792,0,0,0.999792,350.8,0.05)">
            <rect x="0" y="200" width="240" height="40" style="fill:rgb(72,137,218);"/>
        </g>
        <g transform="matrix(0.999792,0,0,0.999792,350.8,0.05)">
            <path d="M240,480.1L240,240L480.1,240" style="fill:rgb(88,28,184);fill-rule:nonzero;"/>
        </g>
        <g transform="matrix(0.999792,0,0,0.999792,350.8,0.05)">
            <path d="M480.1,240L480.1,480.1L240,480.1" style="fill:rgb(0,252,156);fill-rule:nonzero;"/>
        </g>
        <g transform="matrix(0.999792,0,0,0.999792,350.8,0.05)">
            <path d="M120.2,291.2L137.4,343.6L192.5,343.8L148.1,376.3L164.9,428.8L120.2,396.5L75.6,428.8L92.4,376.3L47.9,343.8L103,343.6L120.2,291.2Z" style="fill:white;fill-rule:nonzero;"/>
        </g>
        <g id="Estrella_de_8_puntas" transform="matrix(0.999792,0,0,0.999792,350.8,0.05)">
            <path d="M417.2,122.8L392.2,136.1L400.5,163.2L373.4,154.9L360.1,180L346.8,154.9L319.6,163.2L328,136.1L302.9,122.8L328,109.5L319.6,82.3L346.8,90.7L360.1,65.6L373.4,90.7L400.5,82.3L392.2,109.5L417.2,122.8Z" style="fill:white;fill-rule:nonzero;"/>
        </g>
    </g>
</svg>
