<?xml version="1.0" encoding="utf-8"?>
<!-- Generator: Adobe Illustrator 24.0.1, SVG Export Plug-In . SVG Version: 6.00 Build 0)  -->
<svg version="1.1" id="Capa_1" xmlns="http://www.w3.org/2000/svg" xmlns:xlink="http://www.w3.org/1999/xlink" x="0px" y="0px"
	 viewBox="0 0 1181.6 480.1" style="enable-background:new 0 0 1181.6 480.1;" xml:space="preserve">
<style type="text/css">
	.st0{fill:#FB415D;}
	.st1{fill:#0CA1FF;}
	.st2{fill:#EA5EAC;}
	.st3{fill:#E96CAD;}
	.st4{fill:#EC9068;}
	.st5{fill:#EDC933;}
	.st6{fill:#53C7B9;}
	.st7{fill:#4889DA;}
	.st8{fill:#581CB8;enable-background:new    ;}
	.st9{fill:#00FC9C;enable-background:new    ;}
	.st10{fill:#FFFFFF;}
</style>
<g>
	<rect y="240" class="st0" width="240" height="240"/>
	<rect x="240" class="st1" width="240" height="240"/>
	<rect class="st2" width="240" height="40"/>
	<rect y="40" class="st3" width="240" height="40"/>
	<rect y="80" class="st4" width="240" height="40"/>
	<rect y="120" class="st5" width="240" height="40"/>
	<rect y="160" class="st6" width="240" height="40"/>
	<rect y="200" class="st7" width="240" height="40"/>
	<polyline class="st8" points="240,480.1 240,240 480.1,240 	"/>
	<polyline class="st9" points="480.1,240 480.1,480.1 240,480.1 	"/>
	<polygon class="st10" points="120.2,291.2 137.4,343.6 192.5,343.8 148.1,376.3 164.9,428.8 120.2,396.5 75.6,428.8 92.4,376.3 
		47.9,343.8 103,343.6 	"/>
	<polygon id="Estrella_de_8_puntas" class="st10" points="417.2,122.8 392.2,136.1 400.5,163.2 373.4,154.9 360.1,180 346.8,154.9 
		319.6,163.2 328,136.1 302.9,122.8 328,109.5 319.6,82.3 346.8,90.7 360.1,65.6 373.4,90.7 400.5,82.3 392.2,109.5 	"/>
</g>
<g>
	<path d="M1181.6,353.8c-0.6,2.3-1,4.7-1.7,6.9c-3.7,11.8-12,18.9-23.6,22.4c-3.7,1.1-7.6,1.6-11.5,1.6c-11.9,0-23.7,0-35.6,0
		c-3,0-3.6-0.6-3.7-3.6c0-0.6,0-1.2,0-1.7c0-39.1,0-78.3,0-117.4c0-4.7,0.6-5.3,5.3-5.3c10,0,20.1-0.1,30.1,0
		c5.1,0.1,10.3,0.3,15.2,1.8c13.5,4,22,12.7,25,26.6c0.2,1,0.4,1.9,0.6,2.9C1181.6,310,1181.6,331.9,1181.6,353.8z M1136.4,321
		c0,11.3,0,22.5,0,33.8c0,0.6,0,1.2,0,1.7c0.1,2,0.4,2.2,2.4,2c0.8-0.1,1.6-0.2,2.5-0.3c4.7-0.2,7.8-2.6,8.9-7.1
		c0.4-1.7,0.6-3.4,0.6-5.2c0-16.9,0-33.8,0-50.7c0-1.2,0-2.3-0.1-3.5c-0.4-3.4-2.9-7.9-7.8-8.5c-1.7-0.2-3.5-0.1-5.2-0.1
		c-0.8,0-1.2,0.4-1.2,1.2c0,0.7,0,1.3,0,2C1136.4,298,1136.4,309.5,1136.4,321z"/>
	<path d="M821.2,319.6c0,1,0,2,0,3c0,19.2,0.1,38.3,0.1,57.5c0,0.7,0,1.3,0,2c-0.1,2-0.8,2.7-2.7,2.8c-1.5,0.1-3,0-4.5,0
		c-6.6,0-13.1,0-19.7,0c-2.7,0-3.4-0.6-3.6-3.3c-0.1-0.7,0-1.5,0-2.2c0-39.1,0-78.1,0-117.2c0-4.7,0.6-5.3,5.3-5.3
		c7.8,0,15.6,0,23.4,0c0.3,0,0.7,0,1,0c3.2,0.1,3.9,0.6,4.7,3.6c2.9,9.9,5.7,19.9,8.5,29.9c3,10.4,6,20.9,9,31.3
		c0.1,0.3,0.4,0.6,0.6,0.9c0.1-0.3,0.2-0.6,0.2-1c0-9.2,0-18.4,0-27.6c0-10.9,0-21.9,0-32.8c0-3.4,0.8-4.2,4.2-4.2
		c7.2,0,14.4,0,21.7,0c0.5,0,1,0,1.5,0.1c2.3,0.3,3,1.1,3.1,3.4c0,0.6,0,1.2,0,1.7c0,39.2,0,78.3,0,117.5c0,1.2-0.1,2.3-0.3,3.5
		c-0.2,1.2-1,1.9-2.3,1.9c-0.8,0-1.7,0-2.5,0c-8.2,0-16.4,0-24.6,0c-4,0-4.1,0-5.2-3.8c-3.4-11.7-6.7-23.4-10-35.1
		c-2.4-8.4-4.8-16.9-7.2-25.3c-0.1-0.4-0.3-0.7-0.5-1.1C821.4,319.6,821.3,319.6,821.2,319.6z"/>
	<path d="M574.8,320.9c0-19.6,0-39.2,0-58.7c0-4.8,0.6-5.3,5.2-5.4c10.1,0,20.2-0.1,30.4,0c5,0.1,10.1,0.3,15,1.8
		c13.5,4,22,12.7,25,26.6c0.4,2.1,0.6,4.3,0.6,6.4c0,19.6,0.1,39.2,0,58.7c-0.1,9.4-3.3,17.7-10.2,24.3c-5.8,5.5-12.7,8.7-20.6,9.6
		c-2.7,0.3-5.4,0.5-8.2,0.5c-11.1,0.1-22.2,0-33.3,0c-3.2,0-3.8-0.6-3.9-3.7c-0.1-3.8,0-7.6,0-11.4
		C574.8,353.4,574.8,337.1,574.8,320.9z M605.7,320.7c0,11.4,0,22.9,0,34.3c0,0.7,0,1.3,0,2c0.1,1.5,0.4,1.7,1.9,1.6
		c1-0.1,2-0.3,3-0.3c4.9-0.3,7.8-2.6,9-7.3c0.4-1.7,0.5-3.6,0.5-5.4c0-16.6,0-33.1,0-49.7c0-1.2,0-2.5-0.1-3.7
		c-0.3-4-3.4-9.1-9.5-8.9c-0.8,0-1.7,0-2.5,0c-2.3,0-2.3,0-2.3,2.4c0,0.4,0,0.8,0,1.2C605.7,298.2,605.7,309.4,605.7,320.7z"/>
	<path d="M928.7,320.7c0-19.7,0-39.3,0-59c0-4.2,0.7-4.9,4.9-4.9c10.4,0,20.7-0.1,31.1,0c5,0.1,9.9,0.4,14.7,1.8
		c13.5,4.1,22,12.8,24.9,26.7c0.4,2.1,0.6,4.3,0.6,6.4c0,19.5,0.1,39,0,58.5c-0.1,9.2-3.1,17.4-9.8,24c-5.8,5.7-12.8,9-20.9,10
		c-2.9,0.3-5.8,0.5-8.7,0.5c-10.8,0.1-21.6,0-32.4,0c-0.7,0-1.3,0-2,0c-1.3,0-2-0.7-2.2-1.9c-0.2-1.1-0.3-2.1-0.3-3.2
		C928.7,360,928.7,340.4,928.7,320.7z M959.7,320.7c0,11.4,0,22.9,0,34.3c0,0.7,0,1.3,0,2c0.1,1.5,0.3,1.7,1.9,1.6
		c1.1-0.1,2.1-0.3,3.2-0.3c4.3-0.2,7.6-2.6,8.6-6.8c0.5-1.9,0.6-3.9,0.6-5.9c0-16.6,0-33.1,0-49.7c0-1.3,0-2.7-0.1-4
		c-0.5-4-3.5-8.9-9.5-8.6c-0.9,0-1.8,0-2.7,0c-2,0-2,0.1-2,2.1c0,0.5,0,1,0,1.5C959.7,298.2,959.7,309.4,959.7,320.7z"/>
	<path d="M734.2,321.1c0,9.8,0,19.6,0,29.4c0,2.2,0.5,4.3,1.7,6.2c2.9,4.9,10.1,4.2,12.3-0.4c0.7-1.5,1.2-3.1,1.3-4.7
		c0.2-3.8,0.1-7.6,0.1-11.4c0-1.9-0.2-2-2-2c-1.1,0-2.2,0-3.2,0c-1.6-0.1-2.3-0.7-2.6-2.2c-0.1-0.6-0.1-1.3-0.1-2
		c0-5.1,0-10.3,0-15.4c0-0.7,0-1.5,0.2-2.2c0.3-1.5,1.1-2.1,2.6-2.2c0.6-0.1,1.2,0,1.7,0c10,0,19.9,0.1,29.9,0c3,0,4.5,0.6,4.5,4.3
		c0,10.5,0.1,21.1-0.1,31.6c-0.1,5.2-0.7,10.4-2.8,15.3c-3.5,8.6-9.7,14.5-18.2,18.1c-5,2.1-10.3,3.1-15.7,3.1
		c-5.1,0.1-10.1-0.1-15-1.6c-13.4-4.1-21.9-12.7-24.5-26.6c-0.6-3.2-0.8-6.4-0.8-9.6c-0.1-17.9-0.1-35.8,0-53.8
		c0-3.7,0.2-7.5,0.9-11.1c1.9-11.1,8-19.1,18.1-24c5.6-2.8,11.6-3.9,17.8-4c5.1,0,10.1,0.1,15,1.6c13.3,4.1,21.8,12.8,24.5,26.7
		c0.9,4.5,1,9.1,0.9,13.6c-0.1,2.6-1.1,3.6-3.7,3.6c-7.9,0-15.8,0-23.6,0c-2.6,0-3.5-1-3.5-3.7c0-2.3,0.2-4.7-0.1-7
		c-0.2-1.8-0.7-3.8-1.7-5.4c-2.7-4.4-9.1-4.3-11.8,0c-1.2,1.9-1.7,3.9-1.7,6.1C734.2,301.2,734.2,311.2,734.2,321.1z"/>
	<path d="M1053.4,256.8c4,0,8,0,11.9,0c0.8,0,1.7,0.1,2.5,0.1c1.7,0.1,2.6,1,3,2.8c1.6,7.5,3.2,15,4.8,22.6
		c2.4,11.2,4.8,22.5,7.2,33.8c3.1,14.6,6.2,29.3,9.3,43.9c1.5,7.2,3.1,14.4,4.6,21.6c0.6,2.7,0.2,3.2-2.7,3.2c-8.2,0-16.4,0-24.6,0
		c-3,0-3.5-0.5-3.9-3.5c-0.6-4.4-1.4-8.8-1.9-13.3c-0.2-1.4-0.8-1.8-2.1-1.7c-5.7,0-11.4,0-17.2,0c-2.2,0-2.3,0.2-2.6,2.4
		c-0.6,4.4-1.2,8.9-1.9,13.3c-0.4,2.6-0.8,2.8-3.5,2.8c-8,0-16.1,0-24.1,0c-3,0-3.4-0.6-2.7-3.6c2.7-12.5,5.4-24.9,8.1-37.4
		c2.9-13.4,5.7-26.7,8.5-40.1c3.1-14.5,6.2-29,9.4-43.4c0.6-3,1.2-3.5,4.2-3.5C1044.3,256.7,1048.9,256.8,1053.4,256.8
		C1053.4,256.8,1053.4,256.8,1053.4,256.8z M1052.5,342.3c1.4,0,2.8,0,4.2,0c2.4,0,2.6-0.2,2.3-2.5c-0.5-3.4-1.1-6.9-1.6-10.3
		c-0.9-6-1.9-11.9-2.8-17.9c-0.6-3.5-1.1-7-1.7-10.5c-0.1-0.3-0.2-0.6-0.4-0.9c-0.2,0.3-0.5,0.6-0.5,0.9c-0.6,4-1.1,8-1.7,12
		c-0.9,6.2-1.8,12.4-2.7,18.6c-0.4,2.8-0.9,5.6-1.2,8.3c-0.2,2,0,2.2,1.9,2.2C1049.7,342.3,1051.1,342.3,1052.5,342.3z"/>
	<path d="M692.8,321c0,19.7,0,39.3,0,59c0,0.7,0,1.3,0,2c-0.1,2.1-0.8,2.9-2.9,2.9c-8.4,0-16.8,0-25.1,0c-1.9,0-2.4-0.5-2.7-2.2
		c-0.2-0.8-0.2-1.6-0.2-2.5c0-39.6,0-79.1,0-118.7c0-0.5,0-1,0-1.5c0.2-1.9,0.8-2.6,2.7-3c0.7-0.1,1.5-0.1,2.2-0.1
		c7,0,13.9,0,20.9,0c0.2,0,0.5,0,0.7,0c3.6,0.1,4.3,0.8,4.3,4.5C692.8,281.2,692.8,301.1,692.8,321z"/>
	<path d="M916.9,321.1c0,19.7,0,39.3,0,59c0,0.7,0,1.3,0,2c-0.1,1.9-0.8,2.7-2.8,2.7c-2.8,0.1-5.6,0-8.5,0c-5.4,0-10.8,0-16.2,0
		c-2.6,0-3.2-0.6-3.5-3.1c-0.1-0.7,0-1.5,0-2.2c0-39.1,0-78.3,0-117.4c0-4.6,0.6-5.2,5.1-5.2c6.9,0,13.8,0,20.7,0
		c4.6,0,5.2,0.6,5.2,5.1C916.9,281.6,916.9,301.4,916.9,321.1z"/>
	<path d="M981.4,223.1c-4.6,0-9.3,0-13.9,0c-2.7,0-3.3-0.6-2.9-3.3c0.7-6.1,1.6-12.1,2.3-18.2c0.7-6,1.4-12,2.1-18
		c0.9-7.4,1.9-14.8,2.8-22.1c0.7-6,1.4-12,2.2-18c0.7-6,1.6-12,2.3-18c0.6-4.7,1.1-9.4,1.7-14c0.5-4.4,1-8.7,1.6-13.1
		c0.3-2.6,1-3.3,3.7-3.4c2.7-0.1,5.5,0,8.2,0c4.3,0,8.6-0.1,12.9,0c3.3,0.1,6.6,0.3,9.9,0.9c6.9,1.3,12.5,4.6,16.2,10.8
		c2,3.4,3,7.2,3.3,11.1c0.6,7.2-0.1,14.2-2.5,21.1c-2.7,7.5-7.3,13.3-14.5,16.9c-0.2,0.1-0.4,0.2-0.7,0.4c-1.3,0.8-1.3,0.9-0.1,1.8
		c6.9,4.7,10.2,11.4,11,19.7c0.8,9.6-0.4,18.9-5,27.5c-6.1,11.5-15.8,17.6-28.9,17.9C989.2,223.1,985.3,223,981.4,223.1
		C981.4,223,981.4,223,981.4,223.1z M985.9,213.9C985.9,213.9,985.9,213.9,985.9,213.9c2.2,0,4.5,0,6.7,0c9-0.1,15.7-4.2,20-12
		c4.6-8.4,5.8-17.4,4-26.7c-1.6-8.6-8.2-14.1-16.8-14c-3.7,0-7.5,0-11.2,0c-1.8,0-3.6,0-5.5,0c-1,0-1.5,0.3-1.6,1.4
		c-0.4,3.9-1,7.7-1.4,11.6c-0.6,4.8-1.1,9.5-1.7,14.3c-0.8,6.2-1.6,12.3-2.3,18.4c-0.2,1.6-0.4,3.3-0.5,4.9c-0.1,2,0,2.1,2.1,2.1
		C980.4,213.9,983.1,213.9,985.9,213.9z M994,152.7C994,152.7,994,152.7,994,152.7c2.8-0.1,5.6-0.1,8.4-0.1c0.9,0,1.8-0.1,2.7-0.3
		c9.2-2.1,14.8-8,17.5-16.8c1.7-5.6,2.2-11.4,1.1-17.2c-1.6-8-6.9-13.2-15.1-13.7c-6-0.4-12.1-0.1-18.1-0.2c-1.2,0-1.8,0.3-1.9,1.6
		c-0.6,5.2-1.3,10.3-1.9,15.5c-0.9,7.6-1.9,15.2-2.8,22.9c-0.2,1.8-0.5,3.6-0.6,5.4c-0.2,2.9-0.2,3,2.7,3
		C988.5,152.8,991.2,152.7,994,152.7z"/>
	<path d="M799.9,123.9c-0.5,10.1-2.7,19.9-9.4,28.2c-3.4,4.3-7.7,7.5-12.7,9.7c-2,0.9-2.1,1.1-1.6,3.2c2.8,12.7,5.7,25.4,8.5,38
		c1.2,5.3,2.4,10.7,3.6,16c0.1,0.6,0.2,1.1,0.3,1.7c0.1,1.7-0.4,2.3-2.1,2.4c-1.7,0.1-3.3,0.1-5,0c-2.1,0-2.5-0.3-3-2.5
		c-0.8-3.2-1.4-6.5-2.1-9.7c-2.9-13.6-5.8-27.2-8.7-40.8c-0.4-1.7-0.8-3.4-1.1-5.1c-0.2-1.2-0.8-1.7-2-1.7c-4.9,0.1-9.8,0-14.7,0
		c-1.7,0-2,0.4-2.2,2c-1,8.8-2,17.6-3.1,26.4c-1.1,8.8-2.2,17.6-3.3,26.3c-0.1,1-0.1,2-0.3,3c-0.3,1.3-1,2.1-2.4,2
		c-1.8,0-3.7,0.1-5.5,0c-1.6-0.1-2.1-0.6-2-2.2c0.1-1.7,0.3-3.5,0.5-5.2c1.1-8.8,2.3-17.5,3.4-26.3c1.1-8.8,2.1-17.6,3.1-26.4
		c1.1-8.6,2.2-17.2,3.3-25.8c0.9-7.4,1.7-14.8,2.6-22.2c0.7-5.5,1.3-11,2-16.5c0.4-2.8,1.1-3.4,4.2-3.4c5.1-0.1,10.3-0.1,15.4,0
		c4.1,0,8.3,0.1,12.4,0.3c9.5,0.5,15.6,5.7,19.3,14.1C799.3,114,799.7,118.7,799.9,123.9z M760.3,154.7
		C760.3,154.7,760.3,154.7,760.3,154.7c2.7,0,5.3-0.1,8,0c3.8,0.1,7.2-1.2,10.2-3.4c4.1-2.8,6.7-6.8,8.6-11.3
		c2.7-6.4,3.1-13.2,2.5-20c-0.3-3.7-1.6-7.1-3.9-10.1c-2.5-3.3-5.7-5.3-9.9-5.4c-6.3-0.1-12.6,0-18.9-0.1c-1.4,0-1.9,0.5-2,1.9
		c-0.3,3-0.7,5.9-1,8.9c-0.8,6.2-1.6,12.3-2.3,18.5c-0.8,6.4-1.5,12.8-2.3,19.2c-0.2,1.7-0.1,1.9,1.6,1.9
		C754,154.8,757.2,154.7,760.3,154.7z"/>
	<path d="M1084.4,93.8c4.3-0.2,8.6,0.5,12.6,2.5c7.4,3.7,11.4,9.8,13,17.8c0.8,4.4,0.3,8.7-0.2,13.1c-0.6,5-1.2,10-1.8,15
		c-0.6,4.8-1.2,9.7-1.8,14.5c-0.6,4.7-1.1,9.4-1.7,14c-0.6,4.9-1.2,9.9-1.8,14.8c-0.5,3.9-0.8,7.9-1.7,11.8
		c-3,13.3-10.8,22.4-24.1,26.1c-6.6,1.8-13.3,1.7-19.8-1c-7.6-3.1-12.1-8.8-13.9-16.7c-1.1-4.5-0.9-9-0.2-13.6
		c0.6-4.6,1.1-9.2,1.7-13.8c0.6-4.8,1.2-9.7,1.8-14.5c0.6-4.6,1.1-9.2,1.7-13.8c0.6-4.7,1.2-9.4,1.8-14c0.6-4.3,1-8.7,1.7-13
		c2-12.5,8.3-21.8,20.1-27C1075.7,94.3,1079.9,93.7,1084.4,93.8z M1052.5,197.1c0.1,0,0.2,0,0.3,0c0,1.2-0.1,2.5,0,3.7
		c0.7,5.8,3.3,10.5,8.8,13c5.6,2.5,11.3,2.3,16.9-0.2c6.6-3,10.8-8.3,12.4-15.3c1.3-5.6,1.8-11.4,2.6-17.2
		c0.8-6.1,1.4-12.2,2.2-18.2c0.8-6.2,1.6-12.3,2.3-18.5c0.6-5,1.3-10,1.8-15c0.4-3.6,0.7-7.3,0.6-10.9c-0.2-5.3-2.4-9.8-6.8-12.9
		c-4.6-3.2-9.9-3.5-15-2.3c-8.7,2-13.7,7.9-16.1,16.2c-0.7,2.4-1,5-1.3,7.6c-0.6,4.6-1.2,9.2-1.7,13.8c-0.6,4.8-1.2,9.7-1.8,14.5
		c-0.6,4.6-1.2,9.2-1.7,13.8c-0.6,4.9-1.2,9.8-1.8,14.8C1053.5,188.4,1053,192.8,1052.5,197.1z"/>
	<path d="M835.7,224.5c-5,0.1-9.9-1-14.2-4c-4.6-3.2-7.6-7.6-9.3-12.9c-1.7-5.5-2-11.2-1.2-17c0.8-6.3,1.4-12.7,2.2-19
		c0.7-6.2,1.6-12.3,2.3-18.5c0.7-6.1,1.4-12.2,2.1-18.2c0.6-4.7,1.2-9.3,1.8-14c0.6-4.7,1.1-9.4,1.6-14.1c0.4-3,0.7-6.1,1.1-9.1
		c0.3-1.9,1.1-2.7,2.9-2.8c1.6-0.1,3.3-0.1,5,0.1c1.6,0.2,2.2,0.8,2.1,2.5c-0.1,1.8-0.3,3.6-0.6,5.4c-1,7.8-1.9,15.6-2.9,23.4
		c-0.9,7.4-1.9,14.8-2.8,22.1c-0.7,5.9-1.4,11.8-2.1,17.7c-0.7,6-1.6,12-2.3,18c-0.5,4.1-1,8.2-1.1,12.4c-0.1,4.1,0.8,8.1,3,11.6
		c2.8,4.5,6.8,6.8,12.1,7.2c9.5,0.6,15.9-4,20.5-11.8c2.4-4.1,3.4-8.6,4-13.2c1-7.7,2-15.4,2.9-23.1c0.7-6.1,1.4-12.2,2.1-18.2
		c0.7-6.2,1.6-12.3,2.3-18.5c0.6-4.8,1.1-9.5,1.7-14.3c0.6-4.6,1.2-9.2,1.8-13.8c0.2-1.6,0.5-3.3,0.7-4.9c0.2-1.5,1-2.3,2.4-2.3
		c1.8-0.1,3.6-0.1,5.5,0c1.3,0.1,2,0.8,1.8,2.1c-0.2,1.9-0.3,3.8-0.6,5.7c-0.8,6.1-1.6,12.1-2.3,18.2c-0.7,6.1-1.4,12.2-2.1,18.2
		c-0.6,4.7-1.2,9.3-1.8,14c-0.6,4.6-1.1,9.2-1.6,13.8c-0.6,5-1.2,10-1.9,15c-0.5,4.1-0.9,8.2-1.7,12.3c-1.4,7.5-4.6,14.2-9.8,19.8
		C853,221.2,845.2,224.7,835.7,224.5z"/>
	<path d="M633.6,223c-0.9,0-1.8,0-2.7,0c-1.7-0.1-2.2-0.5-2.4-2.2c-0.2-2-0.4-4-0.5-5.9c-0.4-5.3-0.7-10.6-1.1-15.9
		c-0.1-1.9-0.1-1.9-2-2c-10.7,0-21.4,0-32.1,0c-1.5,0-2,0.6-2.4,1.8c-2.1,6.9-4.3,13.7-6.5,20.6c-0.2,0.6-0.4,1.1-0.5,1.7
		c-0.5,1.4-1.4,1.9-2.8,1.9c-1.7,0-3.3,0-5,0c-2.1-0.1-2.5-0.6-1.8-2.6c2.4-7.2,4.8-14.3,7.2-21.5c2.6-7.6,5.2-15.2,7.8-22.8
		c6.2-18.1,12.3-36.3,18.5-54.4c2.6-7.8,5.3-15.5,7.9-23.3c1.1-3.1,1.4-3.4,4.6-3.4c1.7,0,3.3-0.1,5,0.1c1.8,0.2,2.3,0.8,2.5,2.5
		c0.4,4,0.7,8.1,1.1,12.1c0.4,4.2,0.9,8.4,1.3,12.6c0.4,4.3,0.8,8.6,1.2,12.9c0.4,4.5,0.9,9.1,1.3,13.6c0.4,4.2,0.8,8.4,1.2,12.6
		c0.4,4.4,0.9,8.9,1.3,13.3c0.4,4.1,0.8,8.2,1.1,12.4c0.4,4.5,0.9,9.1,1.3,13.6c0.4,4.1,0.8,8.2,1.1,12.4c0.2,2.3,0.4,4.6,0.5,6.9
		c0.1,2.7-0.3,3-3,3C635,223,634.3,223,633.6,223z M619.6,111.4c-0.2,0-0.3,0.1-0.5,0.1c-0.3,1.1-0.7,2.2-1,3.3
		c-7.2,21.9-14.4,43.7-21.6,65.6c-0.6,2-1.3,3.9-1.9,5.9c-0.6,1.9-0.4,2.1,1.7,2.1c0.2,0,0.3,0,0.5,0c8.9,0,17.7,0,26.6,0
		c0.4,0,0.8,0,1.2,0c1.1,0,1.4-0.6,1.3-1.6c-0.6-6.7-1.2-13.3-1.8-20c-0.6-7-1.1-14-1.6-21c-0.2-2.4-0.4-4.8-0.6-7.2
		c-0.4-4.9-0.9-9.9-1.3-14.8C620.2,119.7,619.9,115.6,619.6,111.4z"/>
	<path d="M686.7,94.8c4,0,8,0.1,11.9,0c11.5-0.3,19.6,7,22.6,17.4c1.8,6.2,1.9,12.6,0.9,19c-0.8,5.4-2.3,10.7-4.9,15.6
		c-3.5,6.4-8.2,11.6-15,14.8c-2.9,1.3-5.9,2.3-9.1,2.3c-6.6,0.1-13.3,0.2-19.9,0.3c-2.5,0-2.7-0.1-3,2.4c-0.5,4.9-1.2,9.8-1.8,14.8
		c-0.6,4.9-1.2,9.8-1.8,14.8c-0.6,4.6-1.1,9.2-1.7,13.8c-0.4,3.3-0.8,6.6-1.2,9.9c-0.1,0.6-0.2,1.1-0.4,1.7c-0.3,1.1-1,1.6-2.2,1.6
		c-1.8,0-3.7,0-5.5,0c-1.6-0.1-2.1-0.6-2-2.2c0.2-2.5,0.5-4.9,0.8-7.4c0.6-4.8,1.2-9.7,1.8-14.5c0.6-4.8,1.2-9.7,1.8-14.5
		c0.6-4.6,1.1-9.2,1.7-13.8c0.6-4.8,1.2-9.7,1.8-14.5c0.6-4.6,1.1-9.2,1.7-13.8c0.6-4.8,1.2-9.7,1.8-14.5c0.6-4.5,1.1-9,1.7-13.5
		c0.7-5.6,1.3-11.2,2-16.7c0.3-2.1,1-2.6,3.2-2.6C676.9,94.8,681.8,94.8,686.7,94.8z M688.9,104c-2.8,0-5.6,0-8.5,0
		c-2.4,0-2.6,0.1-2.9,2.4c-0.4,2.9-0.7,5.9-1.1,8.9c-0.7,6.1-1.4,12.2-2.1,18.2c-0.8,6.7-1.6,13.5-2.4,20.2
		c-0.2,1.8-0.2,1.9,1.6,1.9c5.5,0,10.9,0.1,16.4,0c5.4-0.1,10.1-2,14-6c2.2-2.4,4.2-5,5.4-8c3.5-8.3,4.7-16.9,2.3-25.7
		c-1.9-7.1-7.4-12-15.5-11.8C693.7,104.1,691.3,104,688.9,104z"/>
	<path d="M916.3,223.1c-8,0-15.9,0-23.9,0c-2.2,0-3.4,0-3-3.5c1.1-8.7,2.2-17.4,3.3-26.1c0.9-7.3,1.7-14.6,2.6-21.9
		c0.9-7.4,1.9-14.8,2.8-22.2c0.7-5.9,1.4-11.8,2.1-17.7c0.8-6.2,1.6-12.3,2.3-18.5c0.6-4.6,1.1-9.2,1.7-13.8
		c0.1-0.6,0.1-1.2,0.2-1.7c0.4-1.9,0.8-2.3,2.8-2.6c0.7-0.1,1.5-0.1,2.2-0.1c14.9,0,29.9,0,44.8,0c4.3,0,4.8,0.6,4.3,4.8
		c-0.1,0.7-0.3,1.3-0.4,2c-0.2,1.6-1.2,2.3-2.6,2.5c-0.8,0.1-1.7,0.1-2.5,0.1c-12,0-24.1,0-36.1,0c-0.7,0-1.3,0-2,0
		c-1.1-0.1-1.6,0.4-1.7,1.6c-0.4,3.9-1,7.7-1.4,11.6c-0.6,4.9-1.2,9.8-1.8,14.8c-0.6,4.5-1.1,9-1.6,13.6c-0.3,2.3-0.5,4.6-0.8,6.9
		c-0.2,1.6-0.1,1.8,1.4,1.8c2.3,0,4.6,0,7,0c5.8,0,11.6,0,17.4,0c2.7,0,3,0.3,2.9,3c-0.1,1.2-0.3,2.5-0.5,3.7
		c-0.3,1.6-0.9,2.1-2.4,2.3c-0.7,0.1-1.3,0-2,0c-7.5,0-15.1,0-22.6,0c-2.6,0-2.6,0-2.8,2.6c-0.5,4.6-1.1,9.2-1.6,13.8
		c-0.6,4.8-1.2,9.7-1.8,14.5c-0.6,5-1.2,10-1.9,15c-0.6,4.2-0.6,4.3,3.7,4.3c11.5,0,23.1,0,34.6,0c0.6,0,1.2,0,1.7,0
		c3.3,0.1,3.9,0.8,3.3,4.1c-0.1,0.6-0.1,1.2-0.2,1.7c-0.3,2.8-0.8,3.3-3.6,3.3c-7.4,0-14.8,0-22.2,0
		C917.4,223.1,916.8,223.1,916.3,223.1z"/>
</g>
</svg>
