<?xml version="1.0" encoding="UTF-8" standalone="no"?>
<!DOCTYPE svg PUBLIC "-//W3C//DTD SVG 1.1//EN" "http://www.w3.org/Graphics/SVG/1.1/DTD/svg11.dtd">
<svg width="100%" height="100%" viewBox="0 0 701 481" version="1.1" xmlns="http://www.w3.org/2000/svg" xmlns:xlink="http://www.w3.org/1999/xlink" xml:space="preserve" xmlns:serif="http://www.serif.com/" style="fill-rule:evenodd;clip-rule:evenodd;stroke-linejoin:round;stroke-miterlimit:2;">
    <g id="Mesa-de-trabajo1" serif:id="Mesa de trabajo1" transform="matrix(0.592925,0,0,1,0,0)">
        <rect x="0" y="0" width="1181.6" height="480.1" style="fill:none;"/>
        <clipPath id="_clip1">
            <rect x="0" y="0" width="1181.6" height="480.1"/>
        </clipPath>
        <g clip-path="url(#_clip1)">
            <g transform="matrix(1.68655,0,0,1,-811.233,0)">
                <path d="M1181.6,353.8C1181,356.1 1180.6,358.5 1179.9,360.7C1176.2,372.5 1167.9,379.6 1156.3,383.1C1152.6,384.2 1148.7,384.7 1144.8,384.7L1109.2,384.7C1106.2,384.7 1105.6,384.1 1105.5,381.1L1105.5,262C1105.5,257.3 1106.1,256.7 1110.8,256.7C1120.8,256.7 1130.9,256.6 1140.9,256.7C1146,256.8 1151.2,257 1156.1,258.5C1169.6,262.5 1178.1,271.2 1181.1,285.1C1181.3,286.1 1181.5,287 1181.7,288C1181.6,310 1181.6,331.9 1181.6,353.8ZM1136.4,321L1136.4,356.5C1136.5,358.5 1136.8,358.7 1138.8,358.5C1139.6,358.4 1140.4,358.3 1141.3,358.2C1146,358 1149.1,355.6 1150.2,351.1C1150.6,349.4 1150.8,347.7 1150.8,345.9L1150.8,295.2C1150.8,294 1150.8,292.9 1150.7,291.7C1150.3,288.3 1147.8,283.8 1142.9,283.2C1141.2,283 1139.4,283.1 1137.7,283.1C1136.9,283.1 1136.5,283.5 1136.5,284.3L1136.5,286.3C1136.4,298 1136.4,309.5 1136.4,321Z" style="fill-rule:nonzero;"/>
                <path d="M821.2,319.6L821.2,322.6C821.2,341.8 821.3,360.9 821.3,380.1L821.3,382.1C821.2,384.1 820.5,384.8 818.6,384.9C817.1,385 815.6,384.9 814.1,384.9L794.4,384.9C791.7,384.9 791,384.3 790.8,381.6C790.7,380.9 790.8,380.1 790.8,379.4L790.8,262.2C790.8,257.5 791.4,256.9 796.1,256.9L820.5,256.9C823.7,257 824.4,257.5 825.2,260.5C828.1,270.4 830.9,280.4 833.7,290.4C836.7,300.8 839.7,311.3 842.7,321.7C842.8,322 843.1,322.3 843.3,322.6C843.4,322.3 843.5,322 843.5,321.6L843.5,261.2C843.5,257.8 844.3,257 847.7,257L869.4,257C869.9,257 870.4,257 870.9,257.1C873.2,257.4 873.9,258.2 874,260.5L874,379.7C874,380.9 873.9,382 873.7,383.2C873.5,384.4 872.7,385.1 871.4,385.1L844.3,385.1C840.3,385.1 840.2,385.1 839.1,381.3C835.7,369.6 832.4,357.9 829.1,346.2C826.7,337.8 824.3,329.3 821.9,320.9C821.8,320.5 821.6,320.2 821.4,319.8C821.4,319.6 821.3,319.6 821.2,319.6Z" style="fill-rule:nonzero;"/>
                <path d="M574.8,369.6L574.8,262.2C574.8,257.4 575.4,256.9 580,256.8C590.1,256.8 600.2,256.7 610.4,256.8C615.4,256.9 620.5,257.1 625.4,258.6C638.9,262.6 647.4,271.3 650.4,285.2C650.8,287.3 651,289.5 651,291.6C651,311.2 651.1,330.8 651,350.3C650.9,359.7 647.7,368 640.8,374.6C635,380.1 628.1,383.3 620.2,384.2C617.5,384.5 614.8,384.7 612,384.7C600.9,384.8 589.8,384.7 578.7,384.7C575.5,384.7 574.9,384.1 574.8,381C574.7,377.2 574.8,373.4 574.8,369.6ZM605.7,285.7L605.7,357C605.8,358.5 606.1,358.7 607.6,358.6C608.6,358.5 609.6,358.3 610.6,358.3C615.5,358 618.4,355.7 619.6,351C620,349.3 620.1,347.4 620.1,345.6L620.1,295.9C620.1,294.7 620.1,293.4 620,292.2C619.7,288.2 616.6,283.1 610.5,283.3L608,283.3C605.7,283.3 605.7,283.3 605.7,285.7Z" style="fill-rule:nonzero;"/>
                <path d="M928.7,320.7L928.7,261.7C928.7,257.5 929.4,256.8 933.6,256.8C944,256.8 954.3,256.7 964.7,256.8C969.7,256.9 974.6,257.2 979.4,258.6C992.9,262.7 1001.4,271.4 1004.3,285.3C1004.7,287.4 1004.9,289.6 1004.9,291.7C1004.9,311.2 1005,330.7 1004.9,350.2C1004.8,359.4 1001.8,367.6 995.1,374.2C989.3,379.9 982.3,383.2 974.2,384.2C971.3,384.5 968.4,384.7 965.5,384.7C954.7,384.8 943.9,384.7 933.1,384.7L931.1,384.7C929.8,384.7 929.1,384 928.9,382.8C928.7,381.7 928.6,380.7 928.6,379.6C928.7,360 928.7,340.4 928.7,320.7ZM959.7,285.4L959.7,357C959.8,358.5 960,358.7 961.6,358.6C962.7,358.5 963.7,358.3 964.8,358.3C969.1,358.1 972.4,355.7 973.4,351.5C973.9,349.6 974,347.6 974,345.6L974,295.9C974,294.6 974,293.2 973.9,291.9C973.4,287.9 970.4,283 964.4,283.3L961.7,283.3C959.7,283.3 959.7,283.4 959.7,285.4Z" style="fill-rule:nonzero;"/>
                <path d="M734.2,321.1L734.2,350.5C734.2,352.7 734.7,354.8 735.9,356.7C738.8,361.6 746,360.9 748.2,356.3C748.9,354.8 749.4,353.2 749.5,351.6C749.7,347.8 749.6,344 749.6,340.2C749.6,338.3 749.4,338.2 747.6,338.2L744.4,338.2C742.8,338.1 742.1,337.5 741.8,336C741.7,335.4 741.7,334.7 741.7,334L741.7,318.6C741.7,317.9 741.7,317.1 741.9,316.4C742.2,314.9 743,314.3 744.5,314.2C745.1,314.1 745.7,314.2 746.2,314.2C756.2,314.2 766.1,314.3 776.1,314.2C779.1,314.2 780.6,314.8 780.6,318.5C780.6,329 780.7,339.6 780.5,350.1C780.4,355.3 779.8,360.5 777.7,365.4C774.2,374 768,379.9 759.5,383.5C754.5,385.6 749.2,386.6 743.8,386.6C738.7,386.7 733.7,386.5 728.8,385C715.4,380.9 706.9,372.3 704.3,358.4C703.7,355.2 703.5,352 703.5,348.8C703.4,330.9 703.4,313 703.5,295C703.5,291.3 703.7,287.5 704.4,283.9C706.3,272.8 712.4,264.8 722.5,259.9C728.1,257.1 734.1,256 740.3,255.9C745.4,255.9 750.4,256 755.3,257.5C768.6,261.6 777.1,270.3 779.8,284.2C780.7,288.7 780.8,293.3 780.7,297.8C780.6,300.4 779.6,301.4 777,301.4L753.4,301.4C750.8,301.4 749.9,300.4 749.9,297.7C749.9,295.4 750.1,293 749.8,290.7C749.6,288.9 749.1,286.9 748.1,285.3C745.4,280.9 739,281 736.3,285.3C735.1,287.2 734.6,289.2 734.6,291.4C734.2,301.2 734.2,311.2 734.2,321.1Z" style="fill-rule:nonzero;"/>
                <path d="M1053.4,256.8L1065.3,256.8C1066.1,256.8 1067,256.9 1067.8,256.9C1069.5,257 1070.4,257.9 1070.8,259.7C1072.4,267.2 1074,274.7 1075.6,282.3C1078,293.5 1080.4,304.8 1082.8,316.1C1085.9,330.7 1089,345.4 1092.1,360C1093.6,367.2 1095.2,374.4 1096.7,381.6C1097.3,384.3 1096.9,384.8 1094,384.8L1069.4,384.8C1066.4,384.8 1065.9,384.3 1065.5,381.3C1064.9,376.9 1064.1,372.5 1063.6,368C1063.4,366.6 1062.8,366.2 1061.5,366.3L1044.3,366.3C1042.1,366.3 1042,366.5 1041.7,368.7C1041.1,373.1 1040.5,377.6 1039.8,382C1039.4,384.6 1039,384.8 1036.3,384.8L1012.2,384.8C1009.2,384.8 1008.8,384.2 1009.5,381.2C1012.2,368.7 1014.9,356.3 1017.6,343.8C1020.5,330.4 1023.3,317.1 1026.1,303.7C1029.2,289.2 1032.3,274.7 1035.5,260.3C1036.1,257.3 1036.7,256.8 1039.7,256.8C1044.3,256.7 1048.9,256.8 1053.4,256.8ZM1052.5,342.3L1056.7,342.3C1059.1,342.3 1059.3,342.1 1059,339.8C1058.5,336.4 1057.9,332.9 1057.4,329.5C1056.5,323.5 1055.5,317.6 1054.6,311.6C1054,308.1 1053.5,304.6 1052.9,301.1C1052.8,300.8 1052.7,300.5 1052.5,300.2C1052.3,300.5 1052,300.8 1052,301.1C1051.4,305.1 1050.9,309.1 1050.3,313.1C1049.4,319.3 1048.5,325.5 1047.6,331.7C1047.2,334.5 1046.7,337.3 1046.4,340C1046.2,342 1046.4,342.2 1048.3,342.2C1049.7,342.3 1051.1,342.3 1052.5,342.3Z" style="fill-rule:nonzero;"/>
                <path d="M692.8,321L692.8,382C692.7,384.1 692,384.9 689.9,384.9L664.8,384.9C662.9,384.9 662.4,384.4 662.1,382.7C661.9,381.9 661.9,381.1 661.9,380.2L661.9,260C662.1,258.1 662.7,257.4 664.6,257C665.3,256.9 666.1,256.9 666.8,256.9L688.4,256.9C692,257 692.7,257.7 692.7,261.4C692.8,281.2 692.8,301.1 692.8,321Z" style="fill-rule:nonzero;"/>
                <path d="M916.9,262L916.9,382.1C916.8,384 916.1,384.8 914.1,384.8C911.3,384.9 908.5,384.8 905.6,384.8L889.4,384.8C886.8,384.8 886.2,384.2 885.9,381.7C885.8,381 885.9,380.2 885.9,379.5L885.9,262.1C885.9,257.5 886.5,256.9 891,256.9L911.7,256.9C916.3,256.9 916.9,257.5 916.9,262Z" style="fill-rule:nonzero;"/>
                <path d="M981.4,223.1L967.5,223.1C964.8,223.1 964.2,222.5 964.6,219.8C965.3,213.7 966.2,207.7 966.9,201.6C967.6,195.6 968.3,189.6 969,183.6C969.9,176.2 970.9,168.8 971.8,161.5C972.5,155.5 973.2,149.5 974,143.5C974.7,137.5 975.6,131.5 976.3,125.5C976.9,120.8 977.4,116.1 978,111.5C978.5,107.1 979,102.8 979.6,98.4C979.9,95.8 980.6,95.1 983.3,95C986,94.9 988.8,95 991.5,95C995.8,95 1000.1,94.9 1004.4,95C1007.7,95.1 1011,95.3 1014.3,95.9C1021.2,97.2 1026.8,100.5 1030.5,106.7C1032.5,110.1 1033.5,113.9 1033.8,117.8C1034.4,125 1033.7,132 1031.3,138.9C1028.6,146.4 1024,152.2 1016.8,155.8C1016.6,155.9 1016.4,156 1016.1,156.2C1014.8,157 1014.8,157.1 1016,158C1022.9,162.7 1026.2,169.4 1027,177.7C1027.8,187.3 1026.6,196.6 1022,205.2C1015.9,216.7 1006.2,222.8 993.1,223.1C989.2,223.1 985.3,223 981.4,223.1ZM977.7,213.9L992.6,213.9C1001.6,213.8 1008.3,209.7 1012.6,201.9C1017.2,193.5 1018.4,184.5 1016.6,175.2C1015,166.6 1008.4,161.1 999.8,161.2L983.1,161.2C982.1,161.2 981.6,161.5 981.5,162.6C981.1,166.5 980.5,170.3 980.1,174.2C979.5,179 979,183.7 978.4,188.5C977.6,194.7 976.8,200.8 976.1,206.9C975.9,208.5 975.7,210.2 975.6,211.8C975.5,213.8 975.6,213.9 977.7,213.9ZM994,152.7C996.8,152.6 999.6,152.6 1002.4,152.6C1003.3,152.6 1004.2,152.5 1005.1,152.3C1014.3,150.2 1019.9,144.3 1022.6,135.5C1024.3,129.9 1024.8,124.1 1023.7,118.3C1022.1,110.3 1016.8,105.1 1008.6,104.6C1002.6,104.2 996.5,104.5 990.5,104.4C989.3,104.4 988.7,104.7 988.6,106C988,111.2 987.3,116.3 986.7,121.5C985.8,129.1 984.8,136.7 983.9,144.4C983.7,146.2 983.4,148 983.3,149.8C983.1,152.7 983.1,152.8 986,152.8C988.5,152.8 991.2,152.7 994,152.7Z" style="fill-rule:nonzero;"/>
                <path d="M799.9,123.9C799.4,134 797.2,143.8 790.5,152.1C787.1,156.4 782.8,159.6 777.8,161.8C775.8,162.7 775.7,162.9 776.2,165C779,177.7 781.9,190.4 784.7,203C785.9,208.3 787.1,213.7 788.3,219C788.4,219.6 788.5,220.1 788.6,220.7C788.7,222.4 788.2,223 786.5,223.1C784.8,223.2 783.2,223.2 781.5,223.1C779.4,223.1 779,222.8 778.5,220.6C777.7,217.4 777.1,214.1 776.4,210.9C773.5,197.3 770.6,183.7 767.7,170.1C767.3,168.4 766.9,166.7 766.6,165C766.4,163.8 765.8,163.3 764.6,163.3C759.7,163.4 754.8,163.3 749.9,163.3C748.2,163.3 747.9,163.7 747.7,165.3C746.7,174.1 745.7,182.9 744.6,191.7C743.5,200.5 742.4,209.3 741.3,218C741.2,219 741.2,220 741,221C740.7,222.3 740,223.1 738.6,223C736.8,223 734.9,223.1 733.1,223C731.5,222.9 731,222.4 731.1,220.8C731.2,219.1 731.4,217.3 731.6,215.6C732.7,206.8 733.9,198.1 735,189.3C736.1,180.5 737.1,171.7 738.1,162.9C739.2,154.3 740.3,145.7 741.4,137.1C742.3,129.7 743.1,122.3 744,114.9C744.7,109.4 745.3,103.9 746,98.4C746.4,95.6 747.1,95 750.2,95C755.3,94.9 760.5,94.9 765.6,95C769.7,95 773.9,95.1 778,95.3C787.5,95.8 793.6,101 797.3,109.4C799.3,114 799.7,118.7 799.9,123.9ZM760.3,154.7C763,154.7 765.6,154.6 768.3,154.7C772.1,154.8 775.5,153.5 778.5,151.3C782.6,148.5 785.2,144.5 787.1,140C789.8,133.6 790.2,126.8 789.6,120C789.3,116.3 788,112.9 785.7,109.9C783.2,106.6 780,104.6 775.8,104.5C769.5,104.4 763.2,104.5 756.9,104.4C755.5,104.4 755,104.9 754.9,106.3C754.6,109.3 754.2,112.2 753.9,115.2C753.1,121.4 752.3,127.5 751.6,133.7C750.8,140.1 750.1,146.5 749.3,152.9C749.1,154.6 749.2,154.8 750.9,154.8C754,154.8 757.2,154.7 760.3,154.7Z" style="fill-rule:nonzero;"/>
                <path d="M1084.4,93.8C1088.7,93.6 1093,94.3 1097,96.3C1104.4,100 1108.4,106.1 1110,114.1C1110.8,118.5 1110.3,122.8 1109.8,127.2C1109.2,132.2 1108.6,137.2 1108,142.2C1107.4,147 1106.8,151.9 1106.2,156.7C1105.6,161.4 1105.1,166.1 1104.5,170.7C1103.9,175.6 1103.3,180.6 1102.7,185.5C1102.2,189.4 1101.9,193.4 1101,197.3C1098,210.6 1090.2,219.7 1076.9,223.4C1070.3,225.2 1063.6,225.1 1057.1,222.4C1049.5,219.3 1045,213.6 1043.2,205.7C1042.1,201.2 1042.3,196.7 1043,192.1C1043.6,187.5 1044.1,182.9 1044.7,178.3C1045.3,173.5 1045.9,168.6 1046.5,163.8C1047.1,159.2 1047.6,154.6 1048.2,150C1048.8,145.3 1049.4,140.6 1050,136C1050.6,131.7 1051,127.3 1051.7,123C1053.7,110.5 1060,101.2 1071.8,96C1075.7,94.3 1079.9,93.7 1084.4,93.8ZM1052.5,197.1L1052.8,197.1C1052.8,198.3 1052.7,199.6 1052.8,200.8C1053.5,206.6 1056.1,211.3 1061.6,213.8C1067.2,216.3 1072.9,216.1 1078.5,213.6C1085.1,210.6 1089.3,205.3 1090.9,198.3C1092.2,192.7 1092.7,186.9 1093.5,181.1C1094.3,175 1094.9,168.9 1095.7,162.9C1096.5,156.7 1097.3,150.6 1098,144.4C1098.6,139.4 1099.3,134.4 1099.8,129.4C1100.2,125.8 1100.5,122.1 1100.4,118.5C1100.2,113.2 1098,108.7 1093.6,105.6C1089,102.4 1083.7,102.1 1078.6,103.3C1069.9,105.3 1064.9,111.2 1062.5,119.5C1061.8,121.9 1061.5,124.5 1061.2,127.1C1060.6,131.7 1060,136.3 1059.5,140.9C1058.9,145.7 1058.3,150.6 1057.7,155.4C1057.1,160 1056.5,164.6 1056,169.2C1055.4,174.1 1054.8,179 1054.2,184C1053.5,188.4 1053,192.8 1052.5,197.1Z" style="fill-rule:nonzero;"/>
                <path d="M835.7,224.5C830.7,224.6 825.8,223.5 821.5,220.5C816.9,217.3 813.9,212.9 812.2,207.6C810.5,202.1 810.2,196.4 811,190.6C811.8,184.3 812.4,177.9 813.2,171.6C813.9,165.4 814.8,159.3 815.5,153.1C816.2,147 816.9,140.9 817.6,134.9C818.2,130.2 818.8,125.6 819.4,120.9C820,116.2 820.5,111.5 821,106.8C821.4,103.8 821.7,100.7 822.1,97.7C822.4,95.8 823.2,95 825,94.9C826.6,94.8 828.3,94.8 830,95C831.6,95.2 832.2,95.8 832.1,97.5C832,99.3 831.8,101.1 831.5,102.9C830.5,110.7 829.6,118.5 828.6,126.3C827.7,133.7 826.7,141.1 825.8,148.4C825.1,154.3 824.4,160.2 823.7,166.1C823,172.1 822.1,178.1 821.4,184.1C820.9,188.2 820.4,192.3 820.3,196.5C820.2,200.6 821.1,204.6 823.3,208.1C826.1,212.6 830.1,214.9 835.4,215.3C844.9,215.9 851.3,211.3 855.9,203.5C858.3,199.4 859.3,194.9 859.9,190.3C860.9,182.6 861.9,174.9 862.8,167.2C863.5,161.1 864.2,155 864.9,149C865.6,142.8 866.5,136.7 867.2,130.5C867.8,125.7 868.3,121 868.9,116.2C869.5,111.6 870.1,107 870.7,102.4C870.9,100.8 871.2,99.1 871.4,97.5C871.6,96 872.4,95.2 873.8,95.2C875.6,95.1 877.4,95.1 879.3,95.2C880.6,95.3 881.3,96 881.1,97.3C880.9,99.2 880.8,101.1 880.5,103C879.7,109.1 878.9,115.1 878.2,121.2C877.5,127.3 876.8,133.4 876.1,139.4C875.5,144.1 874.9,148.7 874.3,153.4C873.7,158 873.2,162.6 872.7,167.2C872.1,172.2 871.5,177.2 870.8,182.2C870.3,186.3 869.9,190.4 869.1,194.5C867.7,202 864.5,208.7 859.3,214.3C853,221.2 845.2,224.7 835.7,224.5Z" style="fill-rule:nonzero;"/>
                <path d="M635.7,223L630.9,223C629.2,222.9 628.7,222.5 628.5,220.8C628.3,218.8 628.1,216.8 628,214.9C627.6,209.6 627.3,204.3 626.9,199C626.8,197.1 626.8,197.1 624.9,197L592.8,197C591.3,197 590.8,197.6 590.4,198.8C588.3,205.7 586.1,212.5 583.9,219.4C583.7,220 583.5,220.5 583.4,221.1C582.9,222.5 582,223 580.6,223L575.6,223C573.5,222.9 573.1,222.4 573.8,220.4C576.2,213.2 578.6,206.1 581,198.9C583.6,191.3 586.2,183.7 588.8,176.1C595,158 601.1,139.8 607.3,121.7C609.9,113.9 612.6,106.2 615.2,98.4C616.3,95.3 616.6,95 619.8,95C621.5,95 623.1,94.9 624.8,95.1C626.6,95.3 627.1,95.9 627.3,97.6C627.7,101.6 628,105.7 628.4,109.7C628.8,113.9 629.3,118.1 629.7,122.3C630.1,126.6 630.5,130.9 630.9,135.2C631.3,139.7 631.8,144.3 632.2,148.8C632.6,153 633,157.2 633.4,161.4C633.8,165.8 634.3,170.3 634.7,174.7C635.1,178.8 635.5,182.9 635.8,187.1C636.2,191.6 636.7,196.2 637.1,200.7C637.5,204.8 637.9,208.9 638.2,213.1C638.4,215.4 638.6,217.7 638.7,220C638.8,222.7 638.4,223 635.7,223ZM619.6,111.4C619.4,111.4 619.3,111.5 619.1,111.5C618.8,112.6 618.4,113.7 618.1,114.8C610.9,136.7 603.7,158.5 596.5,180.4C595.9,182.4 595.2,184.3 594.6,186.3C594,188.2 594.2,188.4 596.3,188.4L624.6,188.4C625.7,188.4 626,187.8 625.9,186.8C625.3,180.1 624.7,173.5 624.1,166.8C623.5,159.8 623,152.8 622.5,145.8C622.3,143.4 622.1,141 621.9,138.6C621.5,133.7 621,128.7 620.6,123.8C620.2,119.7 619.9,115.6 619.6,111.4Z" style="fill-rule:nonzero;"/>
                <path d="M686.7,94.8C690.7,94.8 694.7,94.9 698.6,94.8C710.1,94.5 718.2,101.8 721.2,112.2C723,118.4 723.1,124.8 722.1,131.2C721.3,136.6 719.8,141.9 717.2,146.8C713.7,153.2 709,158.4 702.2,161.6C699.3,162.9 696.3,163.9 693.1,163.9C686.5,164 679.8,164.1 673.2,164.2C670.7,164.2 670.5,164.1 670.2,166.6C669.7,171.5 669,176.4 668.4,181.4C667.8,186.3 667.2,191.2 666.6,196.2C666,200.8 665.5,205.4 664.9,210C664.5,213.3 664.1,216.6 663.7,219.9C663.6,220.5 663.5,221 663.3,221.6C663,222.7 662.3,223.2 661.1,223.2L655.6,223.2C654,223.1 653.5,222.6 653.6,221C653.8,218.5 654.1,216.1 654.4,213.6C655,208.8 655.6,203.9 656.2,199.1C656.8,194.3 657.4,189.4 658,184.6C658.6,180 659.1,175.4 659.7,170.8C660.3,166 660.9,161.1 661.5,156.3C662.1,151.7 662.6,147.1 663.2,142.5C663.8,137.7 664.4,132.8 665,128C665.6,123.5 666.1,119 666.7,114.5C667.4,108.9 668,103.3 668.7,97.8C669,95.7 669.7,95.2 671.9,95.2C676.9,94.8 681.8,94.8 686.7,94.8ZM688.9,104L680.4,104C678,104 677.8,104.1 677.5,106.4C677.1,109.3 676.8,112.3 676.4,115.3C675.7,121.4 675,127.5 674.3,133.5C673.5,140.2 672.7,147 671.9,153.7C671.7,155.5 671.7,155.6 673.5,155.6C679,155.6 684.4,155.7 689.9,155.6C695.3,155.5 700,153.6 703.9,149.6C706.1,147.2 708.1,144.6 709.3,141.6C712.8,133.3 714,124.7 711.6,115.9C709.7,108.8 704.2,103.9 696.1,104.1C693.7,104.1 691.3,104 688.9,104Z" style="fill-rule:nonzero;"/>
                <path d="M916.3,223.1L892.4,223.1C890.2,223.1 889,223.1 889.4,219.6C890.5,210.9 891.6,202.2 892.7,193.5C893.6,186.2 894.4,178.9 895.3,171.6C896.2,164.2 897.2,156.8 898.1,149.4C898.8,143.5 899.5,137.6 900.2,131.7C901,125.5 901.8,119.4 902.5,113.2C903.1,108.6 903.6,104 904.2,99.4C904.3,98.8 904.3,98.2 904.4,97.7C904.8,95.8 905.2,95.4 907.2,95.1C907.9,95 908.7,95 909.4,95L954.2,95C958.5,95 959,95.6 958.5,99.8C958.4,100.5 958.2,101.1 958.1,101.8C957.9,103.4 956.9,104.1 955.5,104.3C954.7,104.4 953.8,104.4 953,104.4L914.9,104.4C913.8,104.3 913.3,104.8 913.2,106C912.8,109.9 912.2,113.7 911.8,117.6C911.2,122.5 910.6,127.4 910,132.4C909.4,136.9 908.9,141.4 908.4,146C908.1,148.3 907.9,150.6 907.6,152.9C907.4,154.5 907.5,154.7 909,154.7L933.4,154.7C936.1,154.7 936.4,155 936.3,157.7C936.2,158.9 936,160.2 935.8,161.4C935.5,163 934.9,163.5 933.4,163.7C932.7,163.8 932.1,163.7 931.4,163.7L908.8,163.7C906.2,163.7 906.2,163.7 906,166.3C905.5,170.9 904.9,175.5 904.4,180.1C903.8,184.9 903.2,189.8 902.6,194.6C902,199.6 901.4,204.6 900.7,209.6C900.1,213.8 900.1,213.9 904.4,213.9L940.7,213.9C944,214 944.6,214.7 944,218C943.9,218.6 943.9,219.2 943.8,219.7C943.5,222.5 943,223 940.2,223L918,223C917.4,223.1 916.8,223.1 916.3,223.1Z" style="fill-rule:nonzero;"/>
            </g>
        </g>
    </g>
</svg>
