<?xml version="1.0" encoding="utf-8"?>
<!-- Generator: Adobe Illustrator 21.1.0, SVG Export Plug-In . SVG Version: 6.00 Build 0)  -->
<svg version="1.1" id="Layer_1"
	xmlns="http://www.w3.org/2000/svg" x="0px" y="0px" viewBox="0 0 50 50"
	style="enable-background:new 0 0 50 50;" xml:space="preserve">
<style type="text/css">
	.st0{opacity:0;}
	.st1{fill:#F70000;}
</style>
<g>
	<path id="path0_fill" d="M12.4,28.4c-0.3,0.8-0.5,1.1-0.9,1.8c-0.6,0.9-1.5,2.1-2.5,2.1c-0.9,0-1.2-0.6-2.5-0.6
		c-1.3,0-1.6,0.6-2.5,0.6c-1.1,0-1.9-1.1-2.5-2c-1.7-2.6-1.9-5.6-0.8-7.3c0.7-1.2,1.9-1.8,3-1.8c1.1,0,1.8,0.6,2.8,0.6
		c0.9,0,1.5-0.6,2.8-0.6c1,0,2,0.5,2.8,1.5C9.6,24,10,27.4,12.4,28.4z"/>
	<path id="path1_fill" d="M8.2,20.1c0.5-0.6,0.8-1.5,0.7-2.3c-0.8,0.1-1.7,0.5-2.2,1.2c-0.5,0.6-0.9,1.4-0.7,2.3
		C6.9,21.3,7.7,20.8,8.2,20.1z"/>
	<path id="path2_fill" d="M16.8,24.2c0,0.5-0.4,1-1,1c-0.6,0-1-0.4-1-1c0-0.6,0.4-1,1-1C16.4,23.3,16.7,23.7,16.8,24.2z M14.8,32.1
		V26h1.9v6.1H14.8z M19.9,25.2h-2.3v-1.6h6.5v1.6h-2.3v6.8h-1.9L19.9,25.2z M30.2,30.1c0,0.8,0,1.5,0,2h-1.7l-0.1-0.9h0
		c-0.2,0.4-0.8,1-1.9,1c-1.2,0-2.2-0.8-2.2-2.7V26h1.9v3.3c0,0.9,0.3,1.4,1,1.4c0.5,0,0.8-0.4,1-0.7c0-0.1,0.1-0.3,0.1-0.4V26h1.9
		L30.2,30.1L30.2,30.1L30.2,30.1L30.2,30.1z M31.7,27.9c0-0.8,0-1.4,0-2h1.7l0.1,0.8h0c0.3-0.4,0.9-1,1.9-1c1.3,0,2.2,0.8,2.2,2.6
		v3.6h-1.9v-3.4c0-0.8-0.3-1.3-1-1.3c-0.5,0-0.8,0.4-1,0.7c0,0.1-0.1,0.3-0.1,0.5v3.5h-1.9L31.7,27.9L31.7,27.9z M40.6,29.6
		c0.1,0.8,0.8,1.2,1.7,1.2c0.7,0,1.2-0.1,1.7-0.3l0.3,1.3c-0.6,0.3-1.4,0.4-2.2,0.4c-2.1,0-3.3-1.2-3.3-3.1c0-1.6,1-3.3,3.1-3.3
		c2,0,2.7,1.5,2.7,3.1c0,0.3,0,0.6-0.1,0.8C44.5,29.6,40.6,29.6,40.6,29.6z M42.8,28.3c0-0.5-0.2-1.2-1.1-1.2
		c-0.8,0-1.1,0.7-1.2,1.2H42.8z M45.7,30.4c0.4,0.2,1.1,0.5,1.6,0.5c0.6,0,0.8-0.2,0.8-0.5c0-0.3-0.2-0.5-0.9-0.7
		c-1.3-0.4-1.8-1.1-1.7-1.8c0-1.2,1-2,2.5-2c0.7,0,1.4,0.2,1.7,0.4l-0.3,1.3c-0.3-0.2-0.8-0.4-1.3-0.4c-0.5,0-0.7,0.2-0.7,0.5
		c0,0.3,0.2,0.4,1,0.7c1.2,0.4,1.7,1,1.7,1.9c0,1.1-0.9,2-2.7,2c-0.8,0-1.5-0.2-2-0.4L45.7,30.4z"/>
</g>
<g class="st0">
	<path class="st1" d="M25,0C11.2,0,0,11.2,0,25s11.2,25,25,25s25-11.2,25-25S38.8,0,25,0L25,0z"/>
</g>
</svg>
