<svg width="87" height="88" viewBox="0 0 87 88" fill="none" xmlns="http://www.w3.org/2000/svg">
<path d="M43.2367 -1.88993e-06C19.3893 -2.93234e-06 6.01849e-05 19.4521 5.91322e-05 43.5356C5.80825e-05 67.5479 19.3186 87.0713 43.2367 87.0713C67.1549 87.0713 86.4734 67.6192 86.4734 43.5356C86.4734 19.4521 67.0841 -8.47532e-07 43.2367 -1.88993e-06ZM54.7004 43.3219L47.1995 43.3219C47.1995 55.3636 47.1995 70.1843 47.1995 70.1843L36.0896 70.1843C36.0896 70.1843 36.0896 55.5062 36.0896 43.3219L30.7823 43.3219L30.7823 33.8452L36.0896 33.8452L36.0896 27.7174C36.0896 23.2998 38.1417 16.4595 47.2703 16.4595L55.4789 16.4595L55.4789 25.6511C55.4789 25.6511 50.4546 25.6511 49.5347 25.6511C48.544 25.6511 47.1995 26.1499 47.1995 28.2162L47.1995 33.774L55.6204 33.774L54.7004 43.3219Z" fill="#A990D3"/>
</svg>
