<?xml version="1.0" encoding="utf-8"?>
<!-- Generator: Adobe Illustrator 21.1.0, SVG Export Plug-In . SVG Version: 6.00 Build 0)  -->
<svg version="1.1" id="Layer_1" xmlns="http://www.w3.org/2000/svg" x="0px" y="0px"
	viewBox="0 0 50 49.2" style="enable-background:new 0 0 50 49.2;" xml:space="preserve">
<style type="text/css">
	.st0{fill:#3C5A94;}
</style>
<path class="st0" d="M48.6,0H1.4C0.7,0,0,0.7,0,1.4v46.3c0,0.8,0.7,1.4,1.4,1.4h47c0.8,0,1.4-0.7,1.4-1.4H50V1.4
	C50,0.7,49.3,0,48.6,0z M42.1,14.1h-3.4c-2.5,0-2.7,1-2.7,2.7v3.4h6.1L41.4,27H36v19.5h-8V26.9h-4v-6.8h4v-4c0-5.5,2.3-8.8,8.8-8.8
	h5.4V14.1z"/>
</svg>
