<?xml version="1.0" encoding="utf-8"?>
<!-- Generator: Adobe Illustrator 21.1.0, SVG Export Plug-In . SVG Version: 6.00 Build 0)  -->
<svg version="1.1" id="Layer_1"
	xmlns="http://www.w3.org/2000/svg" x="0px" y="0px" viewBox="0 0 50 50"
	style="enable-background:new 0 0 50 50;" xml:space="preserve">
<style type="text/css">
	path.facebook{fill: #4C76BE;}
</style>
<path id="path0_fill" class="facebook" d="M32.8,8.4c1.5-0.1,3.1,0,4.7,0h0.6V0.4c-0.8-0.1-1.7-0.2-2.6-0.2C33.9,0.1,32.3,0,30.7,0
	C28.3,0.1,26,0.7,24,2.1c-2.3,1.7-3.6,4-4,6.7c-0.2,1.1-0.3,2.3-0.3,3.5c0,1.8,0,3.6,0,5.4v0.7h-7.7v9h7.7V50H29V27.4h7.6
	c0.4-3,0.8-6,1.2-9c-0.6,0-1.2,0-1.7,0c-2.2,0-7.2,0-7.2,0s0-4.5,0.1-6.4C29.1,9.3,30.6,8.5,32.8,8.4z"/>
<g class="st1">
	<path class="st2" fill="none" d="M25,0C11.2,0,0,11.2,0,25s11.2,25,25,25s25-11.2,25-25S38.8,0,25,0L25,0z"/>
</g>
</svg>
