<?xml version="1.0" encoding="utf-8"?>
<!-- Generator: Adobe Illustrator 22.0.1, SVG Export Plug-In . SVG Version: 6.00 Build 0)  -->
<svg version="1.1" id="Layer_1"
	xmlns="http://www.w3.org/2000/svg" x="0px" y="0px" viewBox="0 0 49.8 31.6"
	style="enable-background:new 0 0 49.8 31.6;" xml:space="preserve">
<style type="text/css">
	.st0{fill:#FC5345;}
</style>
<g>
	<path id="path0_fill" class="st0" d="M15.6,12.6c0,0.1,0,0.2,0,0.3c0,1.9,0,6.1,0,6.1h8.5c0,0.6-0.7,3.2-3.1,4.8
		c-1.4,0.9-2.9,1.4-4.6,1.5c-1.2,0.1-2.3,0-3.4-0.4c-3.5-1.1-6.2-4.3-6.5-8.2c-0.1-1,0-1.9,0.2-2.9c1-4.6,5.4-8,10.4-7.3
		c2.2,0.3,3.5,1.3,4.7,2.2c1.5-1.5,3-3,4.6-4.6C26,3.8,25.1,2.9,23.6,2c-2.3-1.3-4.8-2-7.5-2c-0.5,0-1,0-1.5,0
		c-0.9,0-1.8,0.2-2.6,0.4C8.6,1.3,5.7,3.1,3.5,5.8c-2.1,2.6-3.3,5.7-3.5,9c-0.1,1.4,0,2.9,0.3,4.3c0.9,3.9,2.9,7.1,6.2,9.5
		c2.5,1.8,5.3,2.8,8.4,3c1.7,0.1,3.5-0.1,5.2-0.5c3.2-0.8,5.8-2.5,7.8-5.1c2.9-3.8,3.6-8.7,2.7-13.3C30.5,12.6,15.6,12.6,15.6,12.6z
		"/>
	<path id="path1_fill" class="st0" d="M49.6,12.8h-5.4V7.4V7.2H44h-4h-0.2v0.2v5.4h-5.4h-0.2V13v4v0.2h0.2h5.4v5.4v0.2H40h4h0.2
		v-0.2v-5.4h5.4h0.2V17v-4v-0.2H49.6z"/>
</g>
</svg>
