<?xml version="1.0" encoding="utf-8"?>
<!-- Generator: Adobe Illustrator 21.1.0, SVG Export Plug-In . SVG Version: 6.00 Build 0)  -->
<svg version="1.1" id="Layer_1" xmlns="http://www.w3.org/2000/svg" xmlns:xlink="http://www.w3.org/1999/xlink" x="0px" y="0px"
	 viewBox="0 0 50 50" style="enable-background:new 0 0 50 50;" xml:space="preserve">
<style type="text/css">
	.st0{clip-path:url(#SVGID_2_);fill:#FBBC05;}
	.st1{clip-path:url(#SVGID_4_);fill:#EA4335;}
	.st2{clip-path:url(#SVGID_6_);fill:#34A853;}
	.st3{clip-path:url(#SVGID_8_);fill:#4285F4;}
</style>
<g>
	<defs>
		<path id="SVGID_1_" d="M49.4,20.5H25.6v9.7h13.7c-1.3,6.1-6.6,9.7-13.7,9.7c-8.4,0-15.1-6.6-15.1-14.8s6.7-14.8,15.1-14.8
			c3.6,0,6.9,1.3,9.4,3.3l7.4-7.3C37.9,2.4,32.1,0,25.6,0C11.4,0,0,11.1,0,25s11.4,25,25.6,25C38.4,50,50,40.9,50,25
			C50,23.5,49.8,21.9,49.4,20.5z"/>
	</defs>
	<clipPath id="SVGID_2_">
		<use xlink:href="#SVGID_1_"  style="overflow:visible;"/>
	</clipPath>
	<path class="st0" d="M-2.3,39.8V10.2L17.4,25L-2.3,39.8z"/>
</g>
<g>
	<defs>
		<path id="SVGID_3_" d="M49.4,20.5H25.6v9.7h13.7c-1.3,6.1-6.6,9.7-13.7,9.7c-8.4,0-15.1-6.6-15.1-14.8s6.7-14.8,15.1-14.8
			c3.6,0,6.9,1.3,9.4,3.3l7.4-7.3C37.9,2.4,32.1,0,25.6,0C11.4,0,0,11.1,0,25s11.4,25,25.6,25C38.4,50,50,40.9,50,25
			C50,23.5,49.8,21.9,49.4,20.5z"/>
	</defs>
	<clipPath id="SVGID_4_">
		<use xlink:href="#SVGID_3_"  style="overflow:visible;"/>
	</clipPath>
	<path class="st1" d="M-2.3,10.2L17.4,25l8.1-6.9l27.9-4.4V-2.3H-2.3V10.2z"/>
</g>
<g>
	<defs>
		<path id="SVGID_5_" d="M49.4,20.5H25.6v9.7h13.7c-1.3,6.1-6.6,9.7-13.7,9.7c-8.4,0-15.1-6.6-15.1-14.8s6.7-14.8,15.1-14.8
			c3.6,0,6.9,1.3,9.4,3.3l7.4-7.3C37.9,2.4,32.1,0,25.6,0C11.4,0,0,11.1,0,25s11.4,25,25.6,25C38.4,50,50,40.9,50,25
			C50,23.5,49.8,21.9,49.4,20.5z"/>
	</defs>
	<clipPath id="SVGID_6_">
		<use xlink:href="#SVGID_5_"  style="overflow:visible;"/>
	</clipPath>
	<path class="st2" d="M-2.3,39.8l34.9-26.1l9.2,1.1l11.7-17v54.5H-2.3V39.8z"/>
</g>
<g>
	<defs>
		<path id="SVGID_7_" d="M49.4,20.5H25.6v9.7h13.7c-1.3,6.1-6.6,9.7-13.7,9.7c-8.4,0-15.1-6.6-15.1-14.8s6.7-14.8,15.1-14.8
			c3.6,0,6.9,1.3,9.4,3.3l7.4-7.3C37.9,2.4,32.1,0,25.6,0C11.4,0,0,11.1,0,25s11.4,25,25.6,25C38.4,50,50,40.9,50,25
			C50,23.5,49.8,21.9,49.4,20.5z"/>
	</defs>
	<clipPath id="SVGID_8_">
		<use xlink:href="#SVGID_7_"  style="overflow:visible;"/>
	</clipPath>
	<path class="st3" d="M53.5,52.3L17.4,25l-4.7-3.4l40.7-11.4V52.3z"/>
</g>
</svg>
