<?xml version="1.0" encoding="utf-8"?>
<!-- Generator: Adobe Illustrator 21.1.0, SVG Export Plug-In . SVG Version: 6.00 Build 0)  -->
<svg version="1.1" id="Layer_1"
	xmlns="http://www.w3.org/2000/svg" x="0px" y="0px" viewBox="0 0 50 50"
	style="enable-background:new 0 0 50 50;" xml:space="preserve">
<style type="text/css">
	.st0{fill:#35A85B;}
	.st1{fill:#FADB2A;}
	.st2{fill:#5881CA;}
	.st3{fill:#FFFFFF;}
	.st4{fill:#C1C0BE;}
	.st5{fill:#F2F2F2;}
	.st6{fill:#DE3738;}
	.st7{fill:#7D2426;}
	.st8{opacity:0;}
	.st9{fill:#F70000;}
</style>
<g>
	<path id="path0_fill" class="st0" d="M0,45.5V9.9c0-2.1,1.7-3.7,3.8-3.7H40L0,45.5z"/>
	<path id="path1_fill" class="st1" d="M0,46.3v-0.7L40,6.2h0.8c2.1,0,3.8,1.7,3.8,3.7v0.7L4.6,50H3.8C1.7,50,0,48.3,0,46.3z"/>
	<path id="path2_fill" class="st2" d="M4.6,50l17.7-17.4L40,50H4.6z"/>
	<path id="path3_fill" class="st3" d="M40,50L22,32.3l4.6-4.5l18,17.7v0.7c0,2.1-1.7,3.7-3.8,3.7L40,50L40,50z"/>
	<path id="path4_fill" class="st4" d="M44.6,45.5L26.9,28.1l17.7-17.4V45.5z"/>
	<path id="path5_fill" class="st5" d="M8,11c2.3-1,5.1-0.6,6.9,1.1c-0.6,0.6-1.2,1.1-1.8,1.7C11.3,12,7.8,12.8,7,15.2
		c-1.1,2.3,0.7,5.4,3.4,5.4c1.7,0.2,3.5-0.9,3.8-2.6c-1.2,0-2.4,0-3.6,0c0-0.7,0-1.5,0-2.2c2,0.1,4.1-0.1,6.1,0.1
		c0.2,1.5,0,3-0.7,4.3c-1.3,2.3-4.2,3.3-6.7,2.7c-3.1-0.6-5.4-3.7-5-6.8C4.4,13.9,5.9,11.9,8,11z"/>
	<path id="path6_fill" class="st6" d="M36.5,7.8c-1.7,0.4-3.2,1.9-3.3,3.6c-0.2,1.6,0.8,3.3,2.3,4c1.6,0.8,3.7,0.6,5.1-0.6
		c1.3-1.1,1.7-3,1.1-4.5C40.8,8.3,38.5,7.3,36.5,7.8z M36.8,0h1.4c3.6,0.2,7.1,1.9,9.3,4.8c1.4,1.8,2.2,4,2.4,6.3v0.8
		c-0.1,4.4-3,8-5.4,11.4c-2.8,3.9-5.4,8.1-6.1,12.9c-0.2,0.8,0,1.9-0.9,2.3c-0.2-0.2-0.5-0.3-0.7-0.6c-0.3-2.7-1-5.3-2.1-7.7
		c-1.3-2.8-3.1-5.4-5-7.9c-1.1-1.5-2.2-3.1-3.1-4.7c-1.4-2.5-1.9-5.4-1.3-8.2c0.5-2.2,1.6-4.2,3.3-5.8C30.8,1.5,33.7,0.2,36.8,0z"/>
	<path id="path7_fill" class="st7" d="M36.5,7.8c2-0.5,4.3,0.6,5.1,2.5c0.7,1.5,0.2,3.4-1.1,4.5c-1.3,1.2-3.4,1.5-5.1,0.6
		c-1.5-0.7-2.4-2.4-2.3-4C33.4,9.6,34.8,8.1,36.5,7.8z"/>
</g>
<g class="st8">
	<path class="st9" d="M25,0C11.2,0,0,11.2,0,25s11.2,25,25,25s25-11.2,25-25S38.8,0,25,0L25,0z"/>
</g>
</svg>
