<svg version="1.1"
	 id="svg2"
	 xmlns="http://www.w3.org/2000/svg" x="0px" y="0px" viewBox="0 0 50 50"
	 style="enable-background:new 0 0 50 50;" xml:space="preserve">
<style type="text/css">
	.st0{fill:#89C623;}
	.st1{opacity:0;}
	.st2{fill:#F70000;}
</style>
<g id="layer1" transform="translate(-559.74952,-709.62564)">
	<g id="text2996" transform="matrix(0.93208065,0,0,0.9103974,44.122131,58.811339)">
		<path id="path3003" d="M558.9,745.5v-6.3c0-0.8,0.1-1.4,0.4-1.7c0.3-0.4,0.7-0.6,1.2-0.6c0.3,0,0.6,0.1,0.8,0.3
			c0.3,0.2,0.5,0.4,0.7,0.8c0.3-0.4,0.7-0.6,1.1-0.8c0.4-0.2,0.9-0.3,1.4-0.3c0.7,0,1.3,0.1,1.8,0.4c0.5,0.2,1,0.6,1.3,1.1
			c0.5-0.5,1-0.9,1.5-1.1c0.5-0.2,1.1-0.3,1.7-0.3c1.1,0,2,0.4,2.6,1.1c0.6,0.7,0.9,1.7,0.9,3.1v4.5c0,0.8-0.1,1.4-0.4,1.7
			s-0.7,0.6-1.2,0.6s-0.9-0.2-1.2-0.6s-0.4-1-0.4-1.7V742c0-0.8-0.1-1.4-0.3-1.8c-0.2-0.4-0.6-0.6-1.1-0.6c-0.5,0-0.9,0.2-1.2,0.6
			c-0.3,0.4-0.4,1-0.4,1.8v3.6c0,0.8-0.1,1.4-0.4,1.7c-0.3,0.4-0.7,0.6-1.2,0.6s-0.9-0.2-1.2-0.6c-0.3-0.4-0.4-1-0.4-1.7V742
			c0-0.8-0.1-1.4-0.3-1.8s-0.6-0.6-1.1-0.6c-0.5,0-0.9,0.2-1.2,0.6c-0.3,0.4-0.4,1-0.4,1.8v3.6c0,0.8-0.1,1.4-0.4,1.7
			c-0.3,0.4-0.7,0.6-1.2,0.6s-0.9-0.2-1.2-0.6C559,746.9,558.9,746.3,558.9,745.5L558.9,745.5z"/>
		<path id="path3005" d="M583.3,746.4c-0.3,0.5-0.8,0.9-1.2,1.1c-0.5,0.2-1,0.4-1.6,0.4c-1.3,0-2.4-0.5-3.2-1.6
			c-0.9-1-1.3-2.4-1.3-3.9c0-1.6,0.5-2.9,1.4-4c1-1.1,2.1-1.6,3.5-1.6c0.5,0,1,0.1,1.4,0.3c0.4,0.2,0.8,0.5,1.1,0.9
			c0.2-0.3,0.4-0.6,0.6-0.7c0.3-0.2,0.5-0.3,0.8-0.3c0.5,0,0.9,0.2,1.2,0.6c0.3,0.4,0.4,0.9,0.4,1.7v6.3c0,1.2-0.1,2.1-0.2,2.7
			s-0.3,1.2-0.6,1.6c-0.5,0.8-1.1,1.4-1.9,1.8c-0.8,0.4-1.8,0.6-2.9,0.6c-1.4,0-2.5-0.2-3.3-0.7c-0.9-0.4-1.3-1-1.3-1.7
			c0-0.4,0.1-0.7,0.4-1s0.6-0.4,1-0.4c0.2,0,0.6,0.1,1.4,0.4c0.7,0.3,1.4,0.4,2,0.4c0.8,0,1.4-0.2,1.8-0.7c0.4-0.5,0.6-1.1,0.6-2
			c0,0,0-0.1,0-0.2C583.3,746.5,583.3,746.4,583.3,746.4L583.3,746.4z M579.1,742.4c0,0.8,0.2,1.4,0.6,1.9c0.4,0.5,0.9,0.7,1.5,0.7
			s1.1-0.2,1.5-0.7c0.4-0.5,0.6-1.1,0.6-1.9c0-0.8-0.2-1.4-0.6-1.9c-0.4-0.5-0.9-0.7-1.5-0.7s-1.1,0.2-1.5,0.7
			C579.3,741,579.1,741.6,579.1,742.4z"/>
		<path id="path3007" d="M588.3,743.4v-4.2c0-0.8,0.1-1.4,0.4-1.7c0.3-0.4,0.7-0.6,1.2-0.6c0.5,0,0.9,0.2,1.2,0.6
			c0.3,0.4,0.4,0.9,0.4,1.7v3.6c0,0.8,0.1,1.4,0.4,1.8c0.3,0.3,0.7,0.5,1.2,0.5c0.6,0,1-0.2,1.2-0.5c0.3-0.3,0.4-0.9,0.4-1.8v-3.6
			c0-0.8,0.1-1.4,0.4-1.7c0.3-0.4,0.7-0.6,1.2-0.6c0.5,0,0.9,0.2,1.2,0.6c0.3,0.4,0.4,0.9,0.4,1.7v4.2c0,1.5-0.4,2.6-1.2,3.4
			c-0.8,0.8-2,1.2-3.5,1.2c-1.5,0-2.7-0.4-3.5-1.2C588.8,746,588.3,744.9,588.3,743.4L588.3,743.4z"/>
		<path id="path3009" d="M600,745.5v-6.3c0-0.8,0.1-1.4,0.4-1.7c0.3-0.4,0.7-0.6,1.2-0.6c0.3,0,0.6,0.1,0.9,0.2s0.5,0.4,0.7,0.8
			c0.3-0.4,0.7-0.6,1-0.8c0.4-0.2,0.7-0.3,1.1-0.3c0.4,0,0.8,0.2,1.1,0.5c0.3,0.3,0.5,0.7,0.5,1.1c0,0.6-0.6,1.2-1.7,1.6
			c-0.4,0.1-0.7,0.3-0.9,0.4c-0.4,0.2-0.7,0.4-0.8,0.6c-0.1,0.2-0.2,0.6-0.2,1.3v3.3c0,0.8-0.1,1.4-0.4,1.7
			c-0.3,0.4-0.7,0.6-1.2,0.6c-0.5,0-0.9-0.2-1.2-0.6C600.2,746.9,600,746.3,600,745.5L600,745.5z"/>
		<g id="g3797">
			<path id="path3001" d="M556.6,745.5c0,0.8-0.1,1.4-0.4,1.7s-0.6,0.6-1.2,0.6c-0.5,0-0.9-0.2-1.2-0.6c-0.3-0.4-0.4-1-0.4-1.7v-6.3
				c0-0.8,0.1-1.4,0.4-1.7s0.7-0.6,1.2-0.6c0.5,0,0.9,0.2,1.2,0.6s0.4,0.9,0.4,1.7V745.5z"/>
			<path id="path3001-4" class="st0" d="M553.2,734.2c0-0.5,0.2-0.9,0.5-1.3c0.4-0.4,0.8-0.5,1.3-0.5c0.5,0,0.9,0.2,1.3,0.5
				c0.4,0.4,0.5,0.8,0.5,1.3c0,0.5-0.2,0.9-0.5,1.3s-0.8,0.5-1.3,0.5c-0.5,0-0.9-0.2-1.3-0.5C553.4,735.2,553.2,734.7,553.2,734.2z"
				/>
		</g>
	</g>
</g>
<g class="st1">
	<path class="st2" d="M25,0C11.2,0,0,11.2,0,25s11.2,25,25,25s25-11.2,25-25S38.8,0,25,0L25,0z"/>
</g>
</svg>
