<?xml version="1.0" encoding="UTF-8" standalone="no"?>
<!DOCTYPE svg PUBLIC "-//W3C//DTD SVG 1.1//EN" "http://www.w3.org/Graphics/SVG/1.1/DTD/svg11.dtd">
<svg width="100%" height="100%" viewBox="0 0 50 50" version="1.1" xmlns="http://www.w3.org/2000/svg" xmlns:xlink="http://www.w3.org/1999/xlink" xml:space="preserve" xmlns:serif="http://www.serif.com/" style="fill-rule:evenodd;clip-rule:evenodd;stroke-linejoin:round;stroke-miterlimit:2;">
    <g transform="matrix(0.994747,0,0,0.995972,0.162665,0.0635107)">
        <g>
            <path d="M25,12.2C17.9,12.2 12.2,17.9 12.2,25C12.2,32.1 17.9,37.8 25,37.8C32.1,37.8 37.8,32.1 37.8,25C37.8,17.9 32.1,12.2 25,12.2ZM24.9,33.3C20.4,33.3 16.7,29.6 16.7,25C16.7,20.4 20.4,16.7 25,16.7C29.6,16.7 33.3,20.4 33.3,25C33.3,29.6 29.6,33.3 24.9,33.3Z" style="fill-rule:nonzero;"/>
            <path d="M49.6,12.5C49.3,9.2 48,6.3 45.6,4C43,1.5 39.9,0.5 36.4,0.3C30.5,0 16.6,-0.2 11.7,0.6C6.1,1.5 2.4,4.7 0.8,10.3C-0.4,14.6 -0.2,34.2 0.5,38.4C1.4,44.2 4.8,47.8 10.5,49.3C14.4,50.3 33.8,50.2 38.2,49.5C44,48.6 47.7,45.2 49.2,39.5C50.4,35.1 50,16.5 49.6,12.5ZM45,37.5C44.3,41.9 41.4,44.6 37,45.1C33,45.5 15,45.8 11.2,44.7C7.6,43.7 5.6,41.2 5,37.6C4.5,34.2 4.3,17 5,12.4C5.7,8.1 8.6,5.4 12.9,4.9C17.4,4.4 33.3,4.3 37.6,5C42,5.7 44.7,8.6 45.1,13C45.5,17.1 45.7,33.1 45,37.5Z" style="fill-rule:nonzero;"/>
            <path d="M38.3,8.7C36.6,8.7 35.3,10 35.3,11.7C35.3,13.4 36.6,14.7 38.3,14.7C40,14.7 41.3,13.4 41.3,11.7C41.3,10 40,8.7 38.3,8.7Z" style="fill-rule:nonzero;"/>
        </g>
    </g>
</svg>
