<?xml version="1.0" encoding="utf-8"?>
<!-- Generator: Adobe Illustrator 21.1.0, SVG Export Plug-In . SVG Version: 6.00 Build 0)  -->
<svg version="1.1" id="Layer_1"
	xmlns="http://www.w3.org/2000/svg" x="0px" y="0px" viewBox="0 0 50 50"
	style="enable-background:new 0 0 50 50;" xml:space="preserve">
<style type="text/css">
	.st0{fill:url(#SVGID_1_);}
	.st1{fill:url(#path1_fill_1_);}
	.st2{opacity:0;}
	.st3{fill:#F70000;}
</style>
<g>

		<linearGradient id="SVGID_1_" gradientUnits="userSpaceOnUse" x1="1.2829" y1="26" x2="48.0775" y2="26" gradientTransform="matrix(1 0 0 -1 0 51)">
		<stop  offset="0" style="stop-color:#22C9FD"/>
		<stop  offset="0.1149" style="stop-color:#4996FE"/>
		<stop  offset="0.2217" style="stop-color:#6B6BFF"/>
		<stop  offset="0.4182" style="stop-color:#9B5DE0"/>
		<stop  offset="0.6248" style="stop-color:#C950C3"/>
		<stop  offset="0.7291" style="stop-color:#DA4BB8"/>
		<stop  offset="0.7465" style="stop-color:#DE4DAE"/>
		<stop  offset="0.8241" style="stop-color:#EC5485"/>
		<stop  offset="0.8949" style="stop-color:#F65968"/>
		<stop  offset="0.9559" style="stop-color:#FD5C56"/>
		<stop  offset="1" style="stop-color:#FF5D50"/>
	</linearGradient>
	<path class="st0" d="M25,0C11.2,0,0,11.2,0,25s11.2,25,25,25s25-11.2,25-25S38.8,0,25,0z M25,47.8c-12.6,0-22.9-10.3-22.9-22.9
		S12.4,2,25,2s22.9,10.3,22.9,22.9S37.6,47.8,25,47.8z"/>

		<linearGradient id="path1_fill_1_" gradientUnits="userSpaceOnUse" x1="1.3304" y1="26.6456" x2="48.613" y2="26.6456" gradientTransform="matrix(1 0 0 -1 0 51)">
		<stop  offset="0" style="stop-color:#22C9FD"/>
		<stop  offset="0.1149" style="stop-color:#4996FE"/>
		<stop  offset="0.2217" style="stop-color:#6B6BFF"/>
		<stop  offset="0.4182" style="stop-color:#9B5DE0"/>
		<stop  offset="0.6248" style="stop-color:#C950C3"/>
		<stop  offset="0.7291" style="stop-color:#DA4BB8"/>
		<stop  offset="0.7465" style="stop-color:#DE4DAE"/>
		<stop  offset="0.8241" style="stop-color:#EC5485"/>
		<stop  offset="0.8949" style="stop-color:#F65968"/>
		<stop  offset="0.9559" style="stop-color:#FD5C56"/>
		<stop  offset="1" style="stop-color:#FF5D50"/>
	</linearGradient>
	<path id="path1_fill" class="st1" d="M36.4,9.8c0-0.9-0.5-1.4-1.3-1.3c0,0-13.5,2.7-15.1,3c-1,0.2-1.4,0.9-1.3,1.9
		c0,0.1,0,17.5,0,17.5c0,1.8-1.5,1.3-3.5,1.8c-3.4,0.8-3.5,2.3-3.7,2.8c-0.3,1.9,0.1,3.9,2.6,4.6c1,0.3,1.7,0.1,2.7-0.1
		c1.7-0.3,2.5-1.1,3.3-2.7c0.3-0.7,0.4-1.9,0.4-2.7c0-5,0-9.7,0-14.7c0-0.8,0.2-1.1,1-1.3c4-0.8,8-1.6,12-2.4c0.9-0.2,1,0.3,1,1.2
		c0,3.7,0,9.8,0,10.4c0,2.1-3.9,0.8-6.5,3.1c-0.9,0.9-1,2.5-0.8,3.4c0.4,1.4,1.3,2.2,2.6,2.5c0.9,0.2,3.7,0.5,5.3-1.5
		c1.1-1.4,1-2.2,1-3.5L36.4,9.8z"/>
</g>
<g class="st2">
	<path class="st3" d="M25,0C11.2,0,0,11.2,0,25s11.2,25,25,25s25-11.2,25-25S38.8,0,25,0L25,0z"/>
</g>
</svg>
