<?xml version="1.0" encoding="utf-8"?>
<!-- Generator: Adobe Illustrator 21.1.0, SVG Export Plug-In . SVG Version: 6.00 Build 0)  -->
<svg version="1.1" id="Layer_1" xmlns="http://www.w3.org/2000/svg" x="0px" y="0px"
	viewBox="0 0 50 50" style="enable-background:new 0 0 50 50;" xml:space="preserve">
<style type="text/css">
	.st0{fill:#1D87BD;}
</style>
<path class="st0" d="M10,40V19.1h6.4V40H10 M16.6,13.2c0,1.8-1.3,3.3-3.4,3.3c-2,0-3.3-1.4-3.3-3.3c0-1.8,1.4-3.3,3.4-3.3
	S16.6,11.4,16.6,13.2 M33.4,40V28.4c0-2.7-0.9-4.5-3.2-4.5c-1.8,0-2.8,1.3-3.3,2.4c-0.2,0.5-0.2,1.1-0.2,1.6v12h-6.4V25.8
	c0-2.6-0.1-4.8-0.1-6.7h5.6l0.3,3H26c0.9-1.4,3-3.4,6.4-3.4c4.2,0,7.4,2.9,7.4,9V40H33.4 M50,4.4C50,2,48,0,45.6,0H4.4
	C2,0,0,2,0,4.4v41.2C0,48,2,50,4.4,50h41.2c2.4,0,4.4-2,4.4-4.4V4.4"/>
</svg>
