<?xml version="1.0" encoding="utf-8"?>
<!-- Generator: Adobe Illustrator 22.0.1, SVG Export Plug-In . SVG Version: 6.00 Build 0)  -->
<svg version="1.1" id="Layer_1" xmlns="http://www.w3.org/2000/svg" xmlns:xlink="http://www.w3.org/1999/xlink" x="0px" y="0px"
	 viewBox="0 0 50 50" style="enable-background:new 0 0 50 50;" xml:space="preserve">
<style type="text/css">
	.st0{fill:#333333;}
	.st1{opacity:0;}
	.st2{clip-path:url(#SVGID_2_);fill:#333333;}
	.st3{clip-path:url(#SVGID_4_);fill:#333333;}
	.st4{clip-path:url(#SVGID_6_);fill:#333333;}
	.st5{clip-path:url(#SVGID_8_);fill:#333333;}
</style>
<path id="path0_fill" class="st0" d="M-410.1-52.3c-13.7,0-24.8,10.4-24.8,23.1c0,7.3,3.6,13.8,9.3,18v8.8l8.5-4.7
	c2.3,0.6,4.6,1,7.1,1c13.7,0,24.8-10.4,24.8-23.1S-396.4-52.3-410.1-52.3z M-407.7-21.1l-6.3-6.8l-12.3,6.8l13.6-14.5l6.5,6.8
	l12.2-6.8L-407.7-21.1z"/>
<g>
	<g>
		<path class="st0" d="M-149,12.2c-7.1,0-12.8,5.7-12.8,12.8s5.7,12.8,12.8,12.8s12.8-5.7,12.8-12.8S-141.9,12.2-149,12.2z
			 M-149.1,33.3c-4.5,0-8.2-3.7-8.2-8.3s3.7-8.3,8.3-8.3c4.6,0,8.3,3.7,8.3,8.3S-144.4,33.3-149.1,33.3z"/>
		<path class="st0" d="M-124.4,12.5c-0.3-3.3-1.6-6.2-4-8.5c-2.6-2.5-5.7-3.5-9.2-3.7c-5.9-0.3-19.8-0.5-24.7,0.3
			c-5.6,0.9-9.3,4.1-10.9,9.7c-1.2,4.3-1,23.9-0.3,28.1c0.9,5.8,4.3,9.4,10,10.9c3.9,1,23.3,0.9,27.7,0.2c5.8-0.9,9.5-4.3,11-10
			C-123.6,35.1-124,16.5-124.4,12.5z M-129,37.5c-0.7,4.4-3.6,7.1-8,7.6c-4,0.4-22,0.7-25.8-0.4c-3.6-1-5.6-3.5-6.2-7.1
			c-0.5-3.4-0.7-20.6,0-25.2c0.7-4.3,3.6-7,7.9-7.5c4.5-0.5,20.4-0.6,24.7,0.1c4.4,0.7,7.1,3.6,7.5,8
			C-128.5,17.1-128.3,33.1-129,37.5z"/>
		<path class="st0" d="M-135.7,8.7c-1.7,0-3,1.3-3,3s1.3,3,3,3s3-1.3,3-3S-134,8.7-135.7,8.7z"/>
	</g>
	<g class="st1">
		<path class="st0" d="M-149,0c-13.8,0-25,11.2-25,25s11.2,25,25,25s25-11.2,25-25S-135.2,0-149,0L-149,0z"/>
	</g>
</g>
<g>
	<g>
		<path id="path0_fill_1_" class="st0" d="M-71.2,21.8c0,0.1,0,0.2,0,0.3c0,1.9,0,6.1,0,6.1h8.5c0,0.6-0.7,3.2-3.1,4.8
			c-1.4,0.9-2.9,1.4-4.6,1.5c-1.2,0.1-2.3,0-3.4-0.4c-3.5-1.1-6.2-4.3-6.5-8.2c-0.1-1,0-1.9,0.2-2.9c1-4.6,5.4-8,10.4-7.3
			c2.2,0.3,3.5,1.3,4.7,2.2c1.5-1.5,3-3,4.6-4.6c-0.4-0.3-1.3-1.2-2.8-2.1c-2.3-1.3-4.8-2-7.5-2c-0.5,0-1,0-1.5,0
			c-0.9,0-1.8,0.2-2.6,0.4c-3.4,0.9-6.3,2.7-8.5,5.4c-2.1,2.6-3.3,5.7-3.5,9c-0.1,1.4,0,2.9,0.3,4.3c0.9,3.9,2.9,7.1,6.2,9.5
			c2.5,1.8,5.3,2.8,8.4,3c1.7,0.1,3.5-0.1,5.2-0.5c3.2-0.8,5.8-2.5,7.8-5.1c2.9-3.8,3.6-8.7,2.7-13.3
			C-56.3,21.8-71.2,21.8-71.2,21.8z"/>
		<path id="path1_fill" class="st0" d="M-37.2,22h-5.4v-5.4v-0.2h-0.2h-4H-47v0.2V22h-5.4h-0.2v0.2v4v0.2h0.2h5.4v5.4V32h0.2h4h0.2
			v-0.2v-5.4h5.4h0.2v-0.2v-4V22H-37.2z"/>
	</g>
	<g class="st1">
		<path class="st0" d="M-62,0c-13.8,0-25,11.2-25,25s11.2,25,25,25s25-11.2,25-25S-48.2,0-62,0L-62,0z"/>
	</g>
</g>
<path class="st0" d="M135.6,0.4H88.4c-0.7,0-1.4,0.7-1.4,1.4v46.3c0,0.8,0.7,1.4,1.4,1.4h47c0.8,0,1.4-0.7,1.4-1.4h0.2V1.8
	C137,1.1,136.3,0.4,135.6,0.4z M129.1,14.5h-3.4c-2.5,0-2.7,1-2.7,2.7v3.4h6.1l-0.7,6.8H123v19.5h-8V27.3h-4v-6.8h4v-4
	c0-5.5,2.3-8.8,8.8-8.8h5.4v6.8H129.1z"/>
<g>
	<g>
		<g>
			<defs>
				<path id="SVGID_1_" d="M-298.7,20.5h-23.8v9.7h13.7c-1.3,6.1-6.6,9.7-13.7,9.7c-8.4,0-15.1-6.6-15.1-14.8s6.7-14.8,15.1-14.8
					c3.6,0,6.9,1.3,9.4,3.3l7.4-7.3C-310.2,2.4-316,0-322.5,0c-14.2,0-25.6,11.1-25.6,25s11.4,25,25.6,25c12.8,0,24.4-9.1,24.4-25
					C-298.1,23.5-298.3,21.9-298.7,20.5z"/>
			</defs>
			<use xlink:href="#SVGID_1_"  style="overflow:visible;fill:#333333;"/>
			<clipPath id="SVGID_2_">
				<use xlink:href="#SVGID_1_"  style="overflow:visible;"/>
			</clipPath>
			<path class="st2" d="M-350.4,39.8V10.2l19.7,14.8L-350.4,39.8z"/>
		</g>
	</g>
	<g>
		<g>
			<defs>
				<path id="SVGID_3_" d="M-298.7,20.5h-23.8v9.7h13.7c-1.3,6.1-6.6,9.7-13.7,9.7c-8.4,0-15.1-6.6-15.1-14.8s6.7-14.8,15.1-14.8
					c3.6,0,6.9,1.3,9.4,3.3l7.4-7.3C-310.2,2.4-316,0-322.5,0c-14.2,0-25.6,11.1-25.6,25s11.4,25,25.6,25c12.8,0,24.4-9.1,24.4-25
					C-298.1,23.5-298.3,21.9-298.7,20.5z"/>
			</defs>
			<use xlink:href="#SVGID_3_"  style="overflow:visible;fill:#333333;"/>
			<clipPath id="SVGID_4_">
				<use xlink:href="#SVGID_3_"  style="overflow:visible;"/>
			</clipPath>
			<path class="st3" d="M-350.4,10.2l19.7,14.8l8.1-6.9l27.9-4.4v-16h-55.7V10.2z"/>
		</g>
	</g>
	<g>
		<g>
			<defs>
				<path id="SVGID_5_" d="M-298.7,20.5h-23.8v9.7h13.7c-1.3,6.1-6.6,9.7-13.7,9.7c-8.4,0-15.1-6.6-15.1-14.8s6.7-14.8,15.1-14.8
					c3.6,0,6.9,1.3,9.4,3.3l7.4-7.3C-310.2,2.4-316,0-322.5,0c-14.2,0-25.6,11.1-25.6,25s11.4,25,25.6,25c12.8,0,24.4-9.1,24.4-25
					C-298.1,23.5-298.3,21.9-298.7,20.5z"/>
			</defs>
			<use xlink:href="#SVGID_5_"  style="overflow:visible;fill:#333333;"/>
			<clipPath id="SVGID_6_">
				<use xlink:href="#SVGID_5_"  style="overflow:visible;"/>
			</clipPath>
			<path class="st4" d="M-350.4,39.8l34.9-26.1l9.2,1.1l11.7-17v54.5h-55.8V39.8z"/>
		</g>
	</g>
	<g>
		<g>
			<defs>
				<path id="SVGID_7_" d="M-298.7,20.5h-23.8v9.7h13.7c-1.3,6.1-6.6,9.7-13.7,9.7c-8.4,0-15.1-6.6-15.1-14.8s6.7-14.8,15.1-14.8
					c3.6,0,6.9,1.3,9.4,3.3l7.4-7.3C-310.2,2.4-316,0-322.5,0c-14.2,0-25.6,11.1-25.6,25s11.4,25,25.6,25c12.8,0,24.4-9.1,24.4-25
					C-298.1,23.5-298.3,21.9-298.7,20.5z"/>
			</defs>
			<use xlink:href="#SVGID_7_"  style="overflow:visible;fill:#333333;"/>
			<clipPath id="SVGID_8_">
				<use xlink:href="#SVGID_7_"  style="overflow:visible;"/>
			</clipPath>
			<path class="st5" d="M-294.6,52.3L-330.7,25l-4.7-3.4l40.7-11.4v42.1H-294.6z"/>
		</g>
	</g>
</g>
<g>
	<g>
		<path id="path0_fill_2_" class="st0" d="M-255.3,44.3c2.5-0.6,4.8-1.2,7-1.8c0.6-0.2,1.1-0.1,1.7,0.2c4.3,2.5,8.9,3.4,13.8,2.6
			c11.4-1.8,19.1-12.3,17.4-23.6c-1.8-11.6-12.8-19.4-24.3-17.3c-14,2.6-21.5,18.1-14.5,30.4c0.8,1.4,1,2.5,0.5,3.9
			C-254.4,40.5-254.8,42.3-255.3,44.3z M-261.1,50c0.3-1.1,0.5-2,0.8-3c0.8-3,1.7-6,2.5-9c0.1-0.4,0.1-1-0.1-1.4
			c-7.8-14.6,0.1-32.2,16.2-35.9c14.6-3.4,27.8,6.4,30.2,19.5c2.5,13.7-6.5,26.7-20.2,29.1c-5.4,0.9-10.6,0.1-15.5-2.3
			c-0.4-0.2-1.1-0.3-1.5-0.2C-255.4,48.5-259.8,49.7-261.1,50z"/>
		<path id="path1_fill_1_" class="st0" d="M-229.5,36.7c-4.9-0.2-12.6-4-17.9-13.2c-1.9-3.3-1.6-7,1.2-9.5c0.9-0.9,2.1-0.7,3.2-0.5
			c0.3,0,0.6,0.5,0.7,0.8c0.7,1.6,1.4,3.2,2,4.8c0.3,0.9-0.3,1.7-1.5,3.1c-0.4,0.5-0.5,0.9-0.2,1.4c2,3.4,4.9,5.9,8.6,7.4
			c0.6,0.2,1,0.1,1.3-0.4c2-2.4,2.2-3.1,3.2-2.6c5,2.4,5.4,2.5,5.5,3.1C-223.3,35.3-227.2,36.9-229.5,36.7z"/>
	</g>
	<g class="st1">
		<path class="st0" d="M-236.1,0c-13.8,0-25,11.2-25,25s11.2,25,25,25s25-11.2,25-25S-222.3,0-236.1,0L-236.1,0z"/>
	</g>
</g>
<g>
	<path id="path0_fill_3_" class="st0" d="M15.2,36.5c-5.3-0.2-8.7-4-9.6-7.1c1.5,0.3,3,0.2,4.4-0.1c0,0,0.1,0,0.1-0.1
		C7.2,28.5,5,27,3.4,24.5C2.5,22.8,2,21,2,19c1.4,0.8,3,1.2,4.6,1.2C4.4,18.6,3,16.6,2.4,14S2.2,8.9,3.5,6.6
		C9,13.1,16,16.7,24.6,17.3c-0.1-0.4-0.1-0.8-0.2-1.1c-0.3-2.4,0.2-4.7,1.5-6.7c1.6-2.6,4-4.2,7-4.6c3.5-0.6,6.5,0.4,9,2.9
		C42.1,8,42.2,8,42.4,8c2.1-0.5,4.1-1.2,6-2.3c0,0,0.1,0,0.1-0.1c0,0,0,0,0.1,0c-0.8,2.4-2.3,4.2-4.4,5.6c2-0.2,3.9-0.7,5.7-1.5l0,0
		c-0.4,0.5-0.8,1-1.2,1.5c-1.1,1.3-2.3,2.5-3.7,3.5c-0.1,0.1-0.2,0.2-0.2,0.3c0.1,1.5,0,3-0.2,4.6c-0.4,3.2-1.3,6.2-2.6,9.1
		c-1.4,3-3.2,5.7-5.6,8.1c-3.9,4-8.6,6.7-14.1,7.9c-1.9,0.4-3.8,0.6-5.7,0.7C10.8,45.5,5.3,44,0.2,40.9c-0.1,0-0.1-0.1-0.2-0.2
		c3.6,0.4,7-0.1,10.3-1.4C12,38.6,13.6,37.7,15.2,36.5z"/>
	<g>
		<path class="st0" d="M25,0C11.2,0,0,11.2,0,25s11.2,25,25,25s25-11.2,25-25S38.8,0,25,0L25,0z"/>
	</g>
</g>
</svg>
