<?xml version="1.0" encoding="utf-8"?>
<!-- Generator: Adobe Illustrator 21.1.0, SVG Export Plug-In . SVG Version: 6.00 Build 0)  -->
<svg version="1.1" id="Layer_1"
	xmlns="http://www.w3.org/2000/svg" x="0px" y="0px" viewBox="0 0 50 50"
	style="enable-background:new 0 0 50 50;" xml:space="preserve">
<style type="text/css">
	.st0{fill:#FF3635;}
	.st1{opacity:0;}
	.st2{fill:#F70000;}
</style>
<path id="path0_fill" class="st0" d="M21.8,32.6c0,0.1-0.1,0.3-0.1,0.4c-1.8,7.2-2,8.8-3.9,12.1c-0.9,1.6-1.9,3.1-3,4.5
	c-0.1,0.2-0.2,0.4-0.5,0.3c-0.3-0.1-0.3-0.3-0.3-0.5c-0.3-2.2-0.5-4.4-0.4-6.6C13.6,40,14,39,17.7,23.4c0.1-0.2,0-0.4-0.1-0.7
	c-0.9-2.4-1.1-4.8-0.3-7.3c1.7-5.3,7.7-5.7,8.8-1.3c0.7,2.7-1.1,6.3-2.4,11.5c-1.1,4.3,4,7.4,8.4,4.2c4-2.9,5.6-9.9,5.3-14.9
	C36.7,5.2,25.9,3.1,19,6.2c-7.9,3.6-9.7,13.4-6.1,17.9c0.5,0.6,0.8,0.9,0.7,1.5c-0.2,0.9-0.4,1.8-0.7,2.7c-0.2,0.7-0.7,0.9-1.4,0.6
	c-1.3-0.5-2.4-1.4-3.3-2.5C5.2,22.7,4.3,15.3,8.3,9C12.8,2.1,21-0.7,28.5,0.1c9,1,14.6,7.1,15.7,14.1c0.5,3.2,0.1,11-4.3,16.5
	c-5.1,6.3-13.4,6.8-17.2,2.9C22.4,33.3,22.1,33,21.8,32.6z"/>
<g class="st1">
	<path class="st2" d="M25,0C11.2,0,0,11.2,0,25s11.2,25,25,25s25-11.2,25-25S38.8,0,25,0L25,0z"/>
</g>
</svg>
