<?xml version="1.0" encoding="utf-8"?>
<!-- Generator: Adobe Illustrator 22.0.1, SVG Export Plug-In . SVG Version: 6.00 Build 0)  -->
<svg version="1.1" id="Layer_1" xmlns="http://www.w3.org/2000/svg" x="0px" y="0px"
	viewBox="0 0 72 72" style="enable-background:new 0 0 72 72;" xml:space="preserve">
<style type="text/css">
	.st0{fill:#FF4500;}
</style>
<g>
	<path class="st0" d="M31.5,39.8c0-2.1-1.6-3.8-3.7-3.8c-2.1,0-3.8,1.7-3.8,3.8c0,2,1.7,3.7,3.8,3.7C29.8,43.5,31.5,41.9,31.5,39.8z
		"/>
	<path class="st0" d="M44.2,36c-2,0-3.7,1.7-3.7,3.8c0,2,1.6,3.7,3.7,3.7c2.1,0,3.8-1.7,3.7-3.7C47.9,37.7,46.2,36,44.2,36z"/>
	<path class="st0" d="M43.5,48.3c-1.6,1.6-5,2.2-7.5,2.2c-2.4,0-5.9-0.6-7.5-2.2c-0.4-0.4-1-0.4-1.4,0c-0.4,0.4-0.4,1,0,1.4
		c2.6,2.6,7.5,2.8,8.9,2.8c1.4,0,6.3-0.2,8.9-2.8c0.4-0.4,0.4-1,0-1.4C44.5,47.9,43.9,47.9,43.5,48.3z"/>
	<path class="st0" d="M36,0C16.1,0,0,16.1,0,36c0,19.9,16.1,36,36,36c19.9,0,36-16.1,36-36C72,16.1,55.9,0,36,0z M57,40.7
		c0.1,0.5,0.1,1.1,0.1,1.6c0,8.1-9.4,14.6-21,14.6c-11.6,0-21-6.5-21-14.6c0-0.5,0-1.1,0.1-1.6c-1.8-0.8-3.1-2.7-3.1-4.8
		c0-2.9,2.4-5.3,5.3-5.3c1.4,0,2.7,0.6,3.6,1.5c3.7-2.6,8.7-4.3,14.3-4.4c0-0.1,0-0.1,0-0.2l2.6-12.3c0-0.3,0.2-0.5,0.4-0.6
		c0.2-0.1,0.5-0.2,0.7-0.1l8.7,1.9c0.6-1.2,1.8-2.1,3.3-2.1c2,0,3.7,1.6,3.7,3.7c0,2-1.6,3.7-3.7,3.7c-2,0-3.6-1.6-3.7-3.6l-7.8-1.7
		l-2.4,11.3c5.5,0.2,10.4,1.9,14,4.5c0.9-0.9,2.2-1.5,3.6-1.5c2.9,0,5.3,2.4,5.3,5.3C60,38.1,58.7,40,57,40.7z"/>
</g>
</svg>
