<?xml version="1.0" encoding="utf-8"?>
<!-- Generator: Adobe Illustrator 21.1.0, SVG Export Plug-In . SVG Version: 6.00 Build 0)  -->
<svg version="1.1" id="Layer_1"
	xmlns="http://www.w3.org/2000/svg" x="0px" y="0px" viewBox="0 0 50 50"
	style="enable-background:new 0 0 50 50;" xml:space="preserve">
<style type="text/css">
	.st0{fill:#1ED760;}
	.st1{opacity:0;}
	.st2{fill:#F70000;}
</style>
<g>
	<path id="path0_fill" class="st0" d="M25,0C11.2,0,0,11.2,0,25c0,13.8,11.2,25,25,25c13.8,0,25-11.2,25-25C50,11.2,38.8,0,25,0
		L25,0z M36.5,36.1c-0.4,0.7-1.4,1-2.1,0.5c-5.9-3.6-13.3-4.4-22-2.4c-0.8,0.2-1.7-0.3-1.9-1.2c-0.2-0.8,0.3-1.7,1.2-1.9
		c9.5-2.2,17.7-1.2,24.3,2.8C36.7,34.4,36.9,35.3,36.5,36.1L36.5,36.1L36.5,36.1z M39.5,29.3c-0.6,0.9-1.8,1.2-2.7,0.6
		c-6.7-4.1-17-5.3-24.9-2.9c-1,0.3-2.1-0.3-2.4-1.3c-0.3-1,0.3-2.1,1.3-2.4c9.1-2.8,20.4-1.4,28.1,3.3
		C39.8,27.1,40.1,28.3,39.5,29.3L39.5,29.3z M39.8,22.2c-8.1-4.8-21.4-5.2-29-2.9c-1.2,0.4-2.5-0.3-2.9-1.6
		c-0.4-1.2,0.3-2.5,1.6-2.9c8.8-2.7,23.5-2.2,32.8,3.3c1.1,0.7,1.5,2.1,0.8,3.2C42.3,22.5,40.9,22.8,39.8,22.2L39.8,22.2z"/>
</g>
<g class="st1">
	<path class="st2" d="M25,0C11.2,0,0,11.2,0,25s11.2,25,25,25s25-11.2,25-25S38.8,0,25,0L25,0z"/>
</g>
</svg>
