<?xml version="1.0" encoding="utf-8"?>
<!-- Generator: Adobe Illustrator 22.0.1, SVG Export Plug-In . SVG Version: 6.00 Build 0)  -->
<svg version="1.1" id="Capa_1" xmlns="http://www.w3.org/2000/svg" x="0px" y="0px"
	viewBox="0 0 50 50" style="enable-background:new 0 0 50 50;" xml:space="preserve">
<style type="text/css">
	.st0{fill:#0AECE6;}
	.st1{opacity:0.8;fill:#F20950;}
	.st2{opacity:0.8;fill:#0AECE6;}
</style>
<path class="st0" d="M8.7,43.5c0.3,0,0.3,0.2,0.4,0.4C8.9,43.9,8.6,43.8,8.7,43.5z"/>
<path class="st0" d="M15.7,38.9c-0.2,0-0.2-0.1-0.3-0.2C15.6,38.7,15.7,38.8,15.7,38.9z"/>
<path class="st0" d="M8.5,43.3c0.3-0.1,0.3,0.1,0.2,0.3C8.5,43.6,8.4,43.5,8.5,43.3z"/>
<path class="st1" d="M46.5,20.8c-0.1-1.9,0.1-3.9,0-5.8c-0.1-1.6-1.8-1.3-3-1.6c-0.8-0.2-1.6-0.5-2.4-0.8c-0.8-0.3-1.4-1-1.9-1.6
	c-1.4-1.4-2.5-2.9-3.1-4.8c-0.4-1-0.2-3.1-1.5-3.5c-0.7-0.3-1.8,0-2.5,0c-1.1,0-2.1,0-3.2,0c-0.5,0-1.2-0.1-1.6,0.3
	c-0.5,0.5-0.3,1.5-0.3,2.1c0,2.1,0,4.3,0,6.4c0,4.1,0,8.3,0,12.4c0,2.1,0,4.3,0,6.4c0,1.9,0.2,3.9-0.2,5.7c-0.6,2.9-3.2,5.2-6.2,5.3
	c-0.9,0-1.9,0-2.8-0.3c-0.7-0.2-1.3-1-1.8-1.6c-1.2-1.3-2-2.7-2.1-4.5c-0.2-3.6,2.8-6.6,6.3-6.7c0.4,0,0.8,0,1.2,0
	c0.2,0,0.7,0.1,0.9,0c0.5-0.3,0.3-1.3,0.3-1.8c0-1.7,0.3-3.7,0-5.4c-0.2-1.1-1.4-1-2.3-1.1c-1.5,0-2.9,0.2-4.4,0.6
	c-2.7,0.8-5.2,2.3-7,4.5c-2.1,2.5-3.4,5.8-3.5,9c-0.2,3.6,1.2,6.9,3.3,9.8c0.4,0.6,0.9,1,1.5,1.4c0.4,0.3,0.5,0.5,1,0.8
	c0.6,0.5,1.1,1.1,1.8,1.6c0.8,0.6,1.8,0.9,2.7,1.3c3.7,1.3,7.4,0.9,10.9-0.7c5.6-2.6,8.8-7.8,8.8-14c0-4.2,0-8.4,0-12.6
	c0-0.5-0.3-2.2,0.2-2.3c0.5-0.2,1.9,0.9,2.3,1.1c1.7,0.9,3.6,1.4,5.5,1.7C44.5,22,46.6,22.5,46.5,20.8z"/>
<path class="st2" d="M44.6,18.8c-0.1-1.9,0.1-3.9,0-5.8c-0.1-1.6-1.8-1.3-3-1.6c-0.8-0.2-1.6-0.5-2.4-0.8c-0.8-0.3-1.4-1-1.9-1.6
	c-1.4-1.4-2.5-2.9-3.1-4.8c-0.4-1-0.2-3.1-1.5-3.5c-0.7-0.3-1.8,0-2.5,0c-1.1,0-2.1,0-3.2,0c-0.5,0-1.2-0.1-1.6,0.3
	C24.8,1.4,25,2.4,25,3c0,2.1,0,4.3,0,6.4c0,4.1,0,8.3,0,12.4c0,2.1,0,4.3,0,6.4c0,1.9,0.2,3.9-0.2,5.7c-0.6,2.9-3.2,5.2-6.2,5.3
	c-0.9,0-1.9,0-2.8-0.3c-0.7-0.2-1.3-1-1.8-1.6c-1.2-1.3-2-2.7-2.1-4.5c-0.2-3.6,2.8-6.6,6.3-6.7c0.4,0,0.8,0,1.2,0
	c0.2,0,0.7,0.1,0.9,0c0.5-0.3,0.3-1.3,0.3-1.8c0-1.7,0.3-3.7,0-5.4c-0.2-1.1-1.4-1-2.3-1.1c-1.5,0-2.9,0.2-4.4,0.6
	c-2.7,0.8-5.2,2.3-7,4.5c-2.1,2.5-3.4,5.8-3.5,9c-0.2,3.6,1.2,6.9,3.3,9.8c0.4,0.6,0.9,1,1.5,1.4c0.4,0.3,0.5,0.5,1,0.8
	c0.6,0.5,1.1,1.1,1.8,1.6c0.8,0.6,1.8,0.9,2.7,1.3c3.7,1.3,7.4,0.9,10.9-0.7c5.6-2.6,8.8-7.8,8.8-14c0-4.2,0-8.4,0-12.6
	c0-0.5-0.3-2.2,0.2-2.3c0.5-0.2,1.9,0.9,2.3,1.1c1.7,0.9,3.6,1.4,5.5,1.7C42.5,20.1,44.7,20.5,44.6,18.8z"/>
<path d="M41,12.5c-0.8-0.3-1.4-1-1.9-1.6c-0.3-0.3-0.5-0.6-0.8-0.8c-0.4-0.3-0.8-0.7-1.2-1.1c-1.4-1.4-2.5-2.9-3.1-4.8
	c-0.2-0.5-0.2-1.1-0.3-1.7c-0.6,0-1.2,0.1-1.7,0.1c-1.1,0-2.1,0-3.2,0c-0.5,0-1.2-0.1-1.6,0.3c-0.5,0.5-0.3,1.5-0.3,2.1
	c0,2.1,0,4.3,0,6.4c0,4.1,0,8.3,0,12.4c0,2.1,0,4.3,0,6.4c0,1.9,0.2,3.9-0.2,5.7c-0.6,2.9-3.2,5.2-6.2,5.3c-0.9,0-1.9,0-2.8-0.3
	c-0.7-0.2-1.3-1-1.8-1.6c-0.2-0.2-0.3-0.4-0.5-0.5c-0.5-0.3-1-1-1.5-1.4c-1.2-1.3-2-2.7-2.1-4.5c-0.2-3.6,2.8-6.6,6.3-6.7
	c0.4,0,0.8,0,1.2,0c0.2,0,0.7,0.1,0.9,0c0.5-0.3,0.3-1.3,0.3-1.8c0-1.4,0.2-3,0-4.5c-0.1,0-0.3,0-0.4,0c-1.5,0-2.9,0.2-4.4,0.6
	c-2.7,0.8-5.2,2.3-7,4.5c-2.1,2.5-3.4,5.8-3.5,9c-0.2,3.5,1.1,6.7,3,9.5c0.2,0.2,0.4,0.4,0.7,0.6c0.6,0.5,1.1,1.1,1.8,1.6
	c0.8,0.6,1.8,0.9,2.7,1.3c3.7,1.3,7.4,0.9,10.9-0.7c5.6-2.6,8.8-7.8,8.8-14c0-4.2,0-8.4,0-12.6c0-0.5-0.3-2.2,0.2-2.3
	c0.5-0.2,1.9,0.9,2.3,1.1c1.7,0.9,3.6,1.4,5.5,1.7c1.1,0.1,3.2,0.6,3.1-1.1c-0.1-1.8,0-3.5,0-5.3c-0.4,0-0.8-0.1-1.1-0.2
	C42.6,13.1,41.8,12.8,41,12.5z"/>
</svg>
