<svg width="85" height="86" viewBox="0 0 85 86" fill="none" xmlns="http://www.w3.org/2000/svg">
<path d="M42.754 -1.84663e-06C19.4019 -2.86738e-06 0.508002 19.0246 0.508001 42.5381C0.508 66.0516 19.4019 85.0762 42.754 85.0762C66.1061 85.0762 85 65.9803 85 42.5381C85 19.0958 66.1061 -8.2588e-07 42.754 -1.84663e-06ZM64.1247 38.6192C59.6666 38.6192 55.2792 37.1229 51.8825 34.7002L51.8825 51.5872C51.8825 60.0663 45.0184 66.9066 36.5975 66.9066C28.1767 66.9066 21.3833 59.9951 21.3833 51.516C21.3833 43.0369 28.2474 36.1966 36.6683 36.1966C37.3759 36.1966 38.0128 36.2678 38.6497 36.3391L38.6497 44.6044C34.8992 43.4644 30.8657 45.602 29.7335 49.4496C28.6012 53.2973 30.7949 57.3587 34.6162 58.4275C38.4374 59.5676 42.4709 57.3587 43.5324 53.5111C43.7447 52.941 43.8862 52.2285 43.8862 51.516L43.8862 18.1695L52.3779 18.1695C52.3779 24.7248 57.6852 30.0688 64.1954 30.0688L64.1247 38.6192Z" fill="#A990D3"/>
</svg>
