<svg width="87" height="87" viewBox="0 0 87 87" fill="none" xmlns="http://www.w3.org/2000/svg">
<path d="M43.8341 -1.88684e-06C19.9867 -2.92924e-06 0.668182 19.4521 0.66818 43.4644C0.668179 67.4767 19.9867 86.9288 43.8341 86.9288C67.6815 86.9288 87 67.4767 87 43.4644C87 19.4521 67.6815 -8.44439e-07 43.8341 -1.88684e-06ZM65.5586 34.629C65.5586 35.1278 65.5586 35.484 65.5586 36.0541C65.5586 50.5184 54.6609 67.3342 34.4933 67.3342C28.3368 67.3342 22.5342 65.5528 17.793 62.4177C18.6422 62.5602 19.5621 62.5602 20.4113 62.5602C25.5063 62.5602 30.2474 60.7789 33.9272 57.7862C29.186 57.6437 25.1524 54.5799 23.7372 50.1622C24.4448 50.3047 25.1524 50.3047 25.8601 50.3047C26.9215 50.3047 27.7707 50.1622 28.6906 49.9484C23.8079 48.8796 19.9159 44.4619 19.9159 39.1892L19.9159 39.0467C21.3312 39.9017 23.1003 40.258 24.7986 40.4717C21.8266 38.5479 19.9159 35.199 19.9159 31.2801C19.9159 29.3563 20.4113 27.3612 21.3312 25.7936C26.78 32.4914 34.6348 36.7666 43.7633 37.2654C43.6218 36.4103 43.4095 35.6978 43.4095 34.7715C43.4095 28.7862 48.2922 23.7985 54.3071 23.7985C57.4915 23.7985 60.2513 25.2236 62.2327 27.3612C64.7094 26.8624 66.9738 25.9361 69.0968 24.7248C68.2476 27.2187 66.62 29.4988 64.3556 30.7101C66.62 30.3538 68.7429 29.855 70.6536 28.9288C69.5921 31.0663 67.6815 32.9902 65.5586 34.629Z" fill="#A990D3"/>
</svg>
