<?xml version="1.0" encoding="utf-8"?>
<!-- Generator: Adobe Illustrator 22.0.1, SVG Export Plug-In . SVG Version: 6.00 Build 0)  -->
<svg version="1.1" id="Capa_1" xmlns="http://www.w3.org/2000/svg" x="0px" y="0px"
	viewBox="0 0 867.4 867.4" style="enable-background:new 0 0 867.4 867.4;" xml:space="preserve">
<style type="text/css">
	.st0{fill:#4EBBFF;}
</style>
<path id="svg_2" class="st0" d="M406.2,0.9c-88.4,5.5-173.9,38.6-243,94C97.3,147.7,47.9,218.6,21.8,297.8
	c-31.8,96.3-28.7,201,8.6,296c6.4,16.3,21.7,47.2,31,62.6C99,718.5,149,768.5,211.1,806.1c15.4,9.3,46.4,24.6,62.6,31
	c103.4,40.5,216.6,40.5,320,0c16.2-6.4,47.2-21.7,62.6-31c62.1-37.6,112.1-87.6,149.7-149.7c9.3-15.4,24.6-46.4,31-62.6
	c37.7-96.2,40.4-200.9,7.7-299c-12-35.7-32.1-75.7-54.5-108.1C736.9,109.9,658.2,51,569.7,21.9C517.4,4.6,461.4-2.6,406.2,0.9z
	 M633.7,250.3c13.9,2.8,29.9,10.8,40.3,20.1c12.6,11.3,21,27.8,23.8,46.5c1.8,12.6,0.7,38.6-2.5,55.1
	c-12.3,64.1-39.7,124.3-82.1,180.3c-30,39.7-90.6,104.8-125.9,135.4c-16.3,14.1-39.3,31.4-46.8,35.2c-26.4,13.3-48.3,11.5-71.5-6
	c-16.8-12.7-31.1-30.8-39.3-49.8c-5.8-13.6-19.8-56-44.5-135.8c-23.3-75-39.5-125-43.4-134.2c-1.9-4.2-3-5.4-6.2-6.7
	c-11.7-4.7-28.7,0.5-49.6,15c-4.2,2.9-7.8,5.3-7.8,5.1c-0.1-0.1-5-6.9-10.9-15.1c-10.6-14.7-10.7-14.9-8.8-17
	c1-1.1,6.7-7.7,12.7-14.6c21.2-24.5,36.4-38.8,66.5-62.9c56.4-45.2,94.4-57.4,119.8-38.6c13.5,9.8,25.1,32.5,32.2,62.6
	c1.1,4.8,5.4,28.6,9.5,53c9.4,55.5,10.6,61.5,16.1,82.4c15,56.3,23.7,81.6,30.8,89.3c2.7,3,6.9,5.2,9.8,5.2c9.9-0.1,26-16.4,43.5-44
	c15.6-24.5,37.3-65.5,41.1-77.5c7.3-22.7,4.2-42.2-8.9-56c-13.1-13.9-29.6-15-52.9-3.7c-5.2,2.5-9.9,4.8-10.4,5
	c-2.1,1,3.2-20,8.1-32.1c4.4-10.9,12.2-24.9,18.8-33.7c13.5-18.1,36.1-36.7,57.9-47.7C583.3,249.9,608.9,245.2,633.7,250.3z"/>
</svg>
