<svg xmlns="http://www.w3.org/2000/svg" viewBox="0 0 86.93 86.93"><defs><style>.cls-1{fill:#a990d3;}</style></defs><title>whatsapp</title><g id="Capa_2" data-name="Capa 2"><g id="Capa_1-2" data-name="Capa 1"><path class="cls-1" d="M43.47,0A43.47,43.47,0,1,0,86.93,43.47,43.47,43.47,0,0,0,43.47,0Zm.92,68.77h0A25.94,25.94,0,0,1,32,65.61L18.16,69.22l3.69-13.47a26,26,0,1,1,22.54,13Z"/><path class="cls-1" d="M43.4,21.13A21.62,21.62,0,0,0,25.07,54.25l.51.82L23.4,63l8.18-2.14.79.47a21.59,21.59,0,0,0,11,3h0a21.63,21.63,0,0,0,0-43.25ZM56.11,52c-.54,1.52-3.14,2.9-4.38,3.09a9,9,0,0,1-4.1-.26,37.73,37.73,0,0,1-3.7-1.37c-6.52-2.81-10.78-9.37-11.11-9.81S30.17,40.17,30.17,37a7.3,7.3,0,0,1,2.27-5.42,2.39,2.39,0,0,1,1.74-.81c.43,0,.86,0,1.24,0s.94-.15,1.46,1.11,1.85,4.5,2,4.83a1.2,1.2,0,0,1,0,1.14,17.47,17.47,0,0,1-1.62,2.22c-.29.36-.67.68-.29,1.33a19.9,19.9,0,0,0,3.62,4.5,17.62,17.62,0,0,0,5.23,3.22c.65.33,1,.27,1.41-.16s1.62-1.9,2.05-2.55.87-.54,1.46-.32,3.8,1.79,4.45,2.11,1.08.49,1.24.76A5.47,5.47,0,0,1,56.11,52Z"/></g></g></svg>