<?xml version="1.0" encoding="utf-8"?>
<!-- Generator: Adobe Illustrator 21.1.0, SVG Export Plug-In . SVG Version: 6.00 Build 0)  -->
<svg version="1.1" id="Layer_1"
	xmlns="http://www.w3.org/2000/svg" x="0px" y="0px" viewBox="0 0 50 50"
	style="enable-background:new 0 0 50 50;" xml:space="preserve">
<style type="text/css">
	.st0{fill:#189D0E;}
	.st1{opacity:0;}
	.st2{fill:#F70000;}
</style>
<g>
	<path id="path0_fill" class="st0" d="M5.8,44.3c2.5-0.6,4.8-1.2,7-1.8c0.6-0.2,1.1-0.1,1.7,0.2c4.3,2.5,8.9,3.4,13.8,2.6
		C39.7,43.5,47.4,33,45.7,21.7C43.9,10.1,32.9,2.3,21.4,4.4C7.4,7-0.1,22.5,6.9,34.8c0.8,1.4,1,2.5,0.5,3.9
		C6.7,40.5,6.3,42.3,5.8,44.3z M0,50c0.3-1.1,0.5-2,0.8-3c0.8-3,1.7-6,2.5-9c0.1-0.4,0.1-1-0.1-1.4C-4.6,22,3.3,4.4,19.4,0.7
		C34-2.7,47.2,7.1,49.6,20.2c2.5,13.7-6.5,26.7-20.2,29.1C24,50.2,18.8,49.4,13.9,47c-0.4-0.2-1.1-0.3-1.5-0.2
		C5.7,48.5,1.3,49.7,0,50z"/>
	<path id="path1_fill" class="st0" d="M31.6,36.7c-4.9-0.2-12.6-4-17.9-13.2c-1.9-3.3-1.6-7,1.2-9.5c0.9-0.9,2.1-0.7,3.2-0.5
		c0.3,0,0.6,0.5,0.7,0.8c0.7,1.6,1.4,3.2,2,4.8c0.3,0.9-0.3,1.7-1.5,3.1c-0.4,0.5-0.5,0.9-0.2,1.4c2,3.4,4.9,5.9,8.6,7.4
		c0.6,0.2,1,0.1,1.3-0.4c2-2.4,2.2-3.1,3.2-2.6c5,2.4,5.4,2.5,5.5,3.1C37.8,35.3,33.9,36.9,31.6,36.7z"/>
</g>
<g class="st1">
	<path class="st2" d="M25,0C11.2,0,0,11.2,0,25s11.2,25,25,25s25-11.2,25-25S38.8,0,25,0L25,0z"/>
</g>
</svg>
