<?xml version="1.0" encoding="utf-8"?>
<!-- Generator: Adobe Illustrator 22.0.1, SVG Export Plug-In . SVG Version: 6.00 Build 0)  -->
<svg version="1.1" id="Layer_1" xmlns="http://www.w3.org/2000/svg" x="0px" y="0px"
	viewBox="0 0 50 50" style="enable-background:new 0 0 50 50;" xml:space="preserve">
<g>
	<path d="M0.6,8.2H2c0.6,0,1.1,0.3,1.3,0.8l14.5,34.6l7.6-15.9l7.1,15.9L46.6,9.1c0.2-0.5,0.7-0.9,1.3-0.9h1.5
		c0.3,0,0.6-0.2,0.6-0.6V6.4H39.4v1.3c0,0.3,0.2,0.6,0.6,0.6h2.5c0.8,0,1.3,0.8,1,1.5l-9.9,25.6L27.8,22l6.1-13
		c0.2-0.5,0.7-0.8,1.3-0.8h1.6c0.3,0,0.6-0.2,0.6-0.6V6.4h-9.9v1.3c0,0.3,0.2,0.6,0.6,0.6h1.5c0.8,0,1.3,0.8,1,1.6l-3.9,9l-3.9-9
		c-0.3-0.7,0.2-1.5,1-1.5c0.3,0,0.6-0.2,0.6-0.6V6.4h-9.4v1.3c0,0.3,0.2,0.6,0.6,0.6h1c0.6,0,1.1,0.3,1.3,0.8l6.5,15.3L19,35.5
		L8.8,9.7C8.6,9,9.1,8.2,9.9,8.2H12c0.3,0,0.5-0.2,0.6-0.5l0-1.3H0v1.3C0,7.9,0.2,8.2,0.6,8.2z"/>
</g>
</svg>
