<?xml version="1.0" encoding="utf-8"?>
<!-- Generator: Adobe Illustrator 22.0.1, SVG Export Plug-In . SVG Version: 6.00 Build 0)  -->
<svg version="1.1" id="Layer_1" xmlns="http://www.w3.org/2000/svg" x="0px" y="0px"
	viewBox="0 0 50 50" style="enable-background:new 0 0 50 50;" xml:space="preserve">
<style type="text/css">
	.st0{fill:#FF0000;}
</style>
<path class="st0" d="M49,13c-0.6-2.2-2.3-3.8-4.4-4.4c-3.9-1-19.5-1-19.5-1s-15.6,0-19.5,1C3.3,9.1,1.6,10.8,1,13c-1,3.9-1,12-1,12
	s0,8.1,1,12c0.6,2.2,2.3,3.8,4.4,4.4c3.9,1,19.5,1,19.5,1s15.6,0,19.5-1c2.2-0.6,3.8-2.3,4.4-4.4c1-3.9,1-12,1-12S50,16.9,49,13z
	 M20,32.5v-15L33,25L20,32.5z"/>
</svg>
