<?xml version="1.0" encoding="utf-8"?>
<!-- Generator: Adobe Illustrator 24.3.0, SVG Export Plug-In . SVG Version: 6.00 Build 0)  -->
<svg version="1.1" id="Capa_1" xmlns="http://www.w3.org/2000/svg" xmlns:xlink="http://www.w3.org/1999/xlink" x="0px" y="0px"
	 viewBox="0 0 77.5 24" style="enable-background:new 0 0 77.5 24;" xml:space="preserve">
<style type="text/css">
	.st0{fill-rule:evenodd;clip-rule:evenodd;}
</style>
<path class="st0" d="M8.8,19c-0.4,1.2-1.5,2-2.8,2c-1.4,0-2.7-1-2.9-2.4l-2.3-0.5c-0.5-0.1-0.8-0.5-0.8-1V7c0-0.5,0.2-1,0.6-1.4
	S1.5,5,2,5h4c0-0.6,0.4-1,1-1h9c0.6,0,1,0.4,1,1h4c1.7,0,3,1.3,3,3v10c0,0.6-0.4,1-1,1h-3.2c-0.4,1.2-1.5,2-2.8,2s-2.4-0.8-2.8-2
	C14.2,19,8.8,19,8.8,19z M6,17c0.6,0,1,0.4,1,1s-0.4,1-1,1s-1-0.4-1-1S5.4,17,6,17z M17,17c0.6,0,1,0.4,1,1s-0.4,1-1,1s-1-0.4-1-1
	S16.4,17,17,17z M22,14c-1.6-1.5-3.1-2-6-2V7h4.5C21.3,7,22,7.7,22,8.5V14z M15,7h-5v5h5V7z M9,7H4v5h5V7z"/>
<g>
	<path d="M26.2,9.9V7h-0.4c0-0.1,0-0.2,0-0.3s0-0.2,0-0.3s0-0.2,0-0.3c0-0.1,0-0.2,0-0.3h2.6c0,0.1,0,0.2,0,0.3c0,0.1,0,0.2,0,0.3
		s0,0.2,0,0.3c0,0.1,0,0.2,0,0.3H28v2.8h0.9V8.9c0.1,0,0.3,0,0.4,0c0.1,0,0.3,0,0.4,0c0.1,0,0.3,0,0.4,0c0.1,0,0.3,0,0.4,0v2.3h-4.6
		c0-0.1,0-0.2,0-0.3c0-0.1,0-0.2,0-0.3s0-0.2,0-0.3c0-0.1,0-0.2,0-0.3H26.2z"/>
	<path d="M33.2,11c0,0-0.1,0.1-0.2,0.1c-0.1,0-0.1,0.1-0.2,0.1c-0.1,0-0.2,0.1-0.3,0.1c-0.1,0-0.2,0-0.4,0c-0.2,0-0.4,0-0.5-0.1
		s-0.3-0.1-0.4-0.2c-0.1-0.1-0.2-0.2-0.3-0.4c-0.1-0.2-0.1-0.4-0.1-0.6c0-0.3,0.1-0.5,0.2-0.7s0.3-0.3,0.4-0.4
		c0.2-0.1,0.4-0.2,0.7-0.2c0.3-0.1,0.5-0.1,0.9-0.1l0.2,0V8.5c0-0.1,0-0.2-0.1-0.3c-0.1-0.1-0.2-0.1-0.3-0.1c-0.2,0-0.4,0-0.7,0.1
		c-0.2,0.1-0.5,0.2-0.9,0.3V7.4c0.2-0.1,0.5-0.2,0.8-0.3C32.2,7,32.6,7,33,7c0.2,0,0.3,0,0.6,0c0.2,0,0.4,0.1,0.6,0.2
		c0.2,0.1,0.4,0.3,0.5,0.5c0.1,0.2,0.2,0.5,0.2,0.8V10h0.4c0,0.1,0,0.2,0,0.3c0,0.1,0,0.2,0,0.3s0,0.2,0,0.3c0,0.1,0,0.2,0,0.3h-1.9
		L33.2,11z M33.1,9.5l-0.2,0c-0.2,0-0.3,0.1-0.4,0.2c-0.1,0.1-0.1,0.2-0.1,0.3c0,0.1,0,0.2,0.1,0.2c0.1,0.1,0.1,0.1,0.2,0.1
		c0.3,0,0.4-0.1,0.4-0.4V9.5z"/>
	<path d="M37.4,10V8.4h-0.4c0-0.1,0-0.2,0-0.3c0-0.1,0-0.2,0-0.3c0-0.1,0-0.2,0-0.3c0-0.1,0-0.2,0-0.3H39l0,0.4
		c0.1-0.1,0.2-0.2,0.4-0.3C39.5,7,39.7,7,39.8,7c0.1,0,0.2,0,0.3,0c0.1,0,0.2,0.1,0.3,0.1l-0.2,1.4c-0.1,0-0.1-0.1-0.2-0.1
		c-0.1,0-0.2,0-0.3,0c-0.2,0-0.3,0.1-0.4,0.2c-0.1,0.1-0.2,0.3-0.2,0.5V10h0.4c0,0.1,0,0.2,0,0.3c0,0.1,0,0.2,0,0.3s0,0.2,0,0.3
		s0,0.2,0,0.3h-2.6c0-0.2,0-0.4,0-0.6c0-0.1,0-0.2,0-0.4s0-0.2,0-0.4H37.4z"/>
	<path d="M41.2,8.4h-0.4c0-0.1,0-0.2,0-0.3c0-0.1,0-0.2,0-0.3c0-0.1,0-0.2,0-0.3c0-0.1,0-0.2,0-0.3h2.1v2.6c0,0.1,0,0.2,0,0.2
		c0,0.1,0.1,0.1,0.2,0.1c0,0,0.1,0,0.1,0c0,0,0.1,0,0.1-0.1c0,0,0.1-0.1,0.1-0.2c0-0.1,0-0.2,0-0.3V7.1h1.8V10h0.4
		c0,0.1,0,0.2,0,0.3c0,0.1,0,0.2,0,0.3s0,0.2,0,0.3s0,0.2,0,0.3h-1.9l0-0.3c0,0-0.1,0.1-0.2,0.1c-0.1,0-0.2,0.1-0.2,0.1
		c-0.1,0-0.2,0.1-0.3,0.1c-0.1,0-0.3,0-0.4,0c-0.2,0-0.4,0-0.5-0.1c-0.2,0-0.3-0.1-0.4-0.2c-0.1-0.1-0.2-0.2-0.3-0.4
		c-0.1-0.2-0.1-0.4-0.1-0.6V8.4z"/>
	<path d="M46.5,8.4H46c0-0.1,0-0.2,0-0.3c0-0.1,0-0.2,0-0.3c0-0.1,0-0.2,0-0.3c0-0.1,0-0.2,0-0.3h0.5V6.2l1.8-0.5v1.4h0.8
		c0,0.1,0,0.2,0,0.3c0,0.1,0,0.2,0,0.3c0,0.1,0,0.2,0,0.3c0,0.1,0,0.2,0,0.3h-0.8v1.3c0,0.1,0,0.2,0.1,0.3c0.1,0,0.1,0.1,0.2,0.1
		c0.1,0,0.2,0,0.3,0c0.1,0,0.2-0.1,0.2-0.1v1.3c-0.2,0.1-0.4,0.1-0.6,0.1s-0.4,0-0.6,0c-0.5,0-0.9-0.1-1.1-0.4
		c-0.2-0.2-0.3-0.6-0.3-1V8.4z"/>
	<path d="M51.8,11c0,0-0.1,0.1-0.2,0.1c-0.1,0-0.1,0.1-0.2,0.1c-0.1,0-0.2,0.1-0.3,0.1c-0.1,0-0.2,0-0.4,0c-0.2,0-0.4,0-0.5-0.1
		c-0.2,0-0.3-0.1-0.4-0.2c-0.1-0.1-0.2-0.2-0.3-0.4c-0.1-0.2-0.1-0.4-0.1-0.6c0-0.3,0.1-0.5,0.2-0.7S49.8,9,50,8.9s0.4-0.2,0.7-0.2
		c0.3-0.1,0.5-0.1,0.9-0.1l0.2,0V8.5c0-0.1,0-0.2-0.1-0.3c-0.1-0.1-0.2-0.1-0.3-0.1c-0.2,0-0.4,0-0.7,0.1c-0.2,0.1-0.5,0.2-0.9,0.3
		V7.4c0.2-0.1,0.5-0.2,0.8-0.3C50.8,7,51.2,7,51.6,7c0.2,0,0.3,0,0.6,0c0.2,0,0.4,0.1,0.6,0.2c0.2,0.1,0.4,0.3,0.5,0.5
		c0.1,0.2,0.2,0.5,0.2,0.8V10h0.4c0,0.1,0,0.2,0,0.3c0,0.1,0,0.2,0,0.3s0,0.2,0,0.3c0,0.1,0,0.2,0,0.3h-1.9L51.8,11z M51.7,9.5
		l-0.2,0c-0.2,0-0.3,0.1-0.4,0.2C51.1,9.7,51,9.8,51,9.9c0,0.1,0,0.2,0.1,0.2c0.1,0.1,0.1,0.1,0.2,0.1c0.3,0,0.4-0.1,0.4-0.4V9.5z"
		/>
	<path d="M58.3,11c-0.1,0.1-0.2,0.2-0.4,0.3c-0.2,0.1-0.4,0.1-0.6,0.1c-0.3,0-0.6-0.1-0.8-0.2c-0.2-0.1-0.4-0.3-0.5-0.5
		c-0.1-0.2-0.2-0.4-0.3-0.7c-0.1-0.3-0.1-0.6-0.1-0.9c0-0.4,0-0.7,0.1-1c0.1-0.3,0.2-0.5,0.4-0.7c0.2-0.2,0.3-0.3,0.5-0.4
		C56.9,7,57.1,7,57.4,7c0.2,0,0.4,0,0.5,0.1c0.1,0.1,0.2,0.1,0.3,0.2V6.7h-0.4c0-0.1,0-0.2,0-0.3c0-0.1,0-0.2,0-0.3
		c0-0.1,0-0.2,0-0.3c0-0.1,0-0.2,0-0.3h2.1V10h0.4c0,0.1,0,0.2,0,0.3c0,0.1,0,0.2,0,0.3s0,0.2,0,0.3c0,0.1,0,0.2,0,0.3h-1.9L58.3,11
		z M57.8,10.1c0.1,0,0.2-0.1,0.3-0.2c0.1-0.1,0.1-0.4,0.1-0.7c0-0.3,0-0.6-0.1-0.7c-0.1-0.1-0.2-0.2-0.3-0.2c-0.1,0-0.2,0.1-0.3,0.2
		c-0.1,0.1-0.1,0.4-0.1,0.7c0,0.3,0,0.6,0.1,0.7C57.6,10,57.7,10.1,57.8,10.1z"/>
	<path d="M64.3,11.2c-0.3,0.1-0.5,0.1-0.8,0.2c-0.3,0-0.5,0.1-0.8,0.1c-0.4,0-0.8-0.1-1.1-0.2s-0.5-0.3-0.7-0.5
		c-0.2-0.2-0.3-0.4-0.4-0.7c-0.1-0.3-0.1-0.6-0.1-0.9c0-0.3,0-0.6,0.1-0.8c0.1-0.3,0.2-0.5,0.4-0.7c0.2-0.2,0.4-0.4,0.7-0.5
		C61.8,7,62.1,7,62.5,7c0.4,0,0.7,0.1,1,0.2c0.3,0.1,0.5,0.3,0.6,0.5c0.2,0.2,0.3,0.4,0.3,0.7c0.1,0.2,0.1,0.5,0.1,0.7v0.6h-2.4
		c0,0.2,0.1,0.3,0.3,0.4c0.1,0.1,0.4,0.1,0.6,0.1c0.3,0,0.5,0,0.7-0.1c0.2,0,0.4-0.1,0.5-0.1V11.2z M62.9,8.7c0-0.4-0.1-0.6-0.4-0.6
		c-0.3,0-0.4,0.2-0.4,0.6H62.9z"/>
	<path d="M26.2,16.9v-3.3h-0.4c0-0.1,0-0.2,0-0.3c0-0.1,0-0.2,0-0.3c0-0.1,0-0.2,0-0.3c0-0.1,0-0.2,0-0.3H28v4.6h0.4
		c0,0.1,0,0.2,0,0.3c0,0.1,0,0.2,0,0.3c0,0.1,0,0.2,0,0.3c0,0.1,0,0.2,0,0.3h-2.5c0-0.1,0-0.2,0-0.3s0-0.2,0-0.3c0-0.1,0-0.2,0-0.3
		s0-0.2,0-0.3H26.2z"/>
	<path d="M31.1,17.9c0,0-0.1,0.1-0.2,0.1c-0.1,0-0.1,0.1-0.2,0.1c-0.1,0-0.2,0.1-0.3,0.1c-0.1,0-0.2,0-0.4,0c-0.2,0-0.4,0-0.5-0.1
		c-0.2,0-0.3-0.1-0.4-0.2c-0.1-0.1-0.2-0.2-0.3-0.4s-0.1-0.4-0.1-0.6c0-0.3,0.1-0.5,0.2-0.7s0.3-0.3,0.4-0.4s0.4-0.2,0.7-0.2
		c0.3-0.1,0.5-0.1,0.9-0.1l0.2,0v-0.1c0-0.1,0-0.2-0.1-0.3c-0.1-0.1-0.2-0.1-0.3-0.1c-0.2,0-0.4,0-0.7,0.1c-0.2,0.1-0.5,0.2-0.9,0.3
		v-1.2c0.2-0.1,0.5-0.2,0.8-0.3c0.3-0.1,0.6-0.1,1-0.1c0.2,0,0.3,0,0.6,0c0.2,0,0.4,0.1,0.6,0.2c0.2,0.1,0.4,0.3,0.5,0.5
		c0.1,0.2,0.2,0.5,0.2,0.8v1.5H33c0,0.1,0,0.2,0,0.3c0,0.1,0,0.2,0,0.3c0,0.1,0,0.2,0,0.3c0,0.1,0,0.2,0,0.3h-1.9L31.1,17.9z
		 M31,16.4l-0.2,0c-0.2,0-0.3,0.1-0.4,0.2c-0.1,0.1-0.1,0.2-0.1,0.3c0,0.1,0,0.2,0.1,0.2c0.1,0.1,0.1,0.1,0.2,0.1
		c0.3,0,0.4-0.1,0.4-0.4V16.4z"/>
	<path d="M35.3,16.8V14h-0.4c0-0.1,0-0.2,0-0.3s0-0.2,0-0.3s0-0.2,0-0.3c0-0.1,0-0.2,0-0.3h4.9v1.7c-0.1,0-0.3,0-0.4,0
		c-0.1,0-0.3,0-0.4,0c-0.1,0-0.3,0-0.4,0c-0.1,0-0.3,0-0.4,0V14h-1v0.6H39c0,0.1,0,0.2,0,0.4s0,0.2,0,0.4c0,0.1,0,0.2,0,0.4
		c0,0.1,0,0.2,0,0.4h-1.8v0.7h1v-0.4c0.2,0,0.5,0,0.8,0c0.2,0,0.3,0,0.5,0c0.2,0,0.3,0,0.5,0v1.8h-4.9c0-0.1,0-0.2,0-0.3
		c0-0.1,0-0.2,0-0.3c0-0.1,0-0.2,0-0.3c0-0.1,0-0.2,0-0.3H35.3z"/>
	<path d="M40.2,16.8c0.1,0,0.2,0,0.3,0c0.1,0,0.2,0,0.3,0s0.2,0,0.3,0c0.1,0,0.2,0,0.3,0v0.1c0,0.1,0.1,0.2,0.2,0.3
		c0.1,0.1,0.3,0.1,0.5,0.1c0.2,0,0.3,0,0.3-0.1c0.1,0,0.1-0.1,0.1-0.1c0-0.1-0.1-0.2-0.3-0.2l-0.8-0.2c-0.2,0-0.3-0.1-0.5-0.1
		c-0.2-0.1-0.3-0.1-0.4-0.2c-0.1-0.1-0.2-0.2-0.3-0.4c-0.1-0.2-0.1-0.3-0.1-0.6c0-0.3,0.1-0.5,0.2-0.6s0.2-0.3,0.4-0.4
		s0.3-0.2,0.5-0.2c0.2,0,0.4-0.1,0.5-0.1c0.2,0,0.5,0,0.6,0.1c0.2,0,0.3,0.1,0.4,0.2l0-0.1c0.1,0,0.2,0,0.3,0c0.1,0,0.2,0,0.3,0
		c0.1,0,0.2,0,0.3,0c0.1,0,0.2,0,0.3,0v1.3c-0.1,0-0.2,0-0.3,0c-0.1,0-0.2,0-0.3,0s-0.2,0-0.3,0c-0.1,0-0.2,0-0.3,0v-0.1
		c0-0.1,0-0.1-0.1-0.2c-0.1-0.1-0.2-0.1-0.4-0.1c-0.1,0-0.2,0-0.3,0.1c-0.1,0-0.1,0.1-0.1,0.2c0,0.1,0,0.1,0.1,0.1
		c0.1,0,0.1,0.1,0.2,0.1l0.7,0.1c0.2,0,0.4,0.1,0.5,0.2c0.2,0.1,0.3,0.2,0.4,0.3c0.1,0.1,0.2,0.2,0.3,0.4c0.1,0.2,0.1,0.4,0.1,0.6
		c0,0.3,0,0.5-0.1,0.6c-0.1,0.2-0.2,0.3-0.4,0.4c-0.2,0.1-0.3,0.2-0.5,0.2c-0.2,0-0.4,0.1-0.6,0.1c-0.3,0-0.5,0-0.6-0.1
		c-0.2,0-0.3-0.1-0.4-0.2l0,0.1c-0.1,0-0.2,0-0.3,0s-0.2,0-0.3,0c-0.1,0-0.2,0-0.3,0s-0.2,0-0.3,0V16.8z"/>
	<path d="M44.7,18.3v-3h-0.4c0-0.2,0-0.4,0-0.6c0-0.2,0-0.5,0-0.7h1.9l0,0.3c0.1-0.1,0.2-0.2,0.4-0.3c0.2-0.1,0.4-0.1,0.7-0.1
		c0.3,0,0.6,0.1,0.8,0.2c0.2,0.1,0.4,0.3,0.5,0.4c0.1,0.2,0.2,0.4,0.3,0.6c0.1,0.2,0.1,0.5,0.1,0.8c0,0.4,0,0.7-0.1,1
		c-0.1,0.3-0.2,0.5-0.3,0.7c-0.1,0.2-0.3,0.3-0.5,0.4S47.6,18,47.3,18c-0.2,0-0.4,0-0.5-0.1s-0.3-0.1-0.3-0.2v0.6h0.4
		c0,0.1,0,0.2,0,0.3s0,0.2,0,0.3c0,0.1,0,0.2,0,0.3c0,0.1,0,0.2,0,0.3h-2.5c0-0.1,0-0.2,0-0.3c0-0.1,0-0.2,0-0.3c0-0.1,0-0.2,0-0.3
		s0-0.2,0-0.3H44.7z M46.8,16.7c0.1,0,0.2-0.1,0.3-0.2c0.1-0.1,0.1-0.3,0.1-0.6c0-0.3,0-0.5-0.1-0.6c-0.1-0.1-0.2-0.2-0.3-0.2
		c-0.1,0-0.2,0.1-0.3,0.2c-0.1,0.1-0.1,0.3-0.1,0.6c0,0.3,0,0.5,0.1,0.6C46.6,16.7,46.7,16.7,46.8,16.7z"/>
	<path d="M53.2,18.1c-0.3,0.1-0.5,0.1-0.8,0.2c-0.3,0-0.5,0.1-0.8,0.1c-0.4,0-0.8-0.1-1.1-0.2c-0.3-0.1-0.5-0.3-0.7-0.5
		c-0.2-0.2-0.3-0.4-0.4-0.7c-0.1-0.3-0.1-0.6-0.1-0.9c0-0.3,0-0.6,0.1-0.8c0.1-0.3,0.2-0.5,0.4-0.7c0.2-0.2,0.4-0.4,0.7-0.5
		s0.6-0.2,1-0.2c0.4,0,0.7,0.1,1,0.2c0.3,0.1,0.5,0.3,0.6,0.5c0.2,0.2,0.3,0.4,0.3,0.7c0.1,0.2,0.1,0.5,0.1,0.7v0.6H51
		c0,0.2,0.1,0.3,0.3,0.4C51.5,17,51.7,17,52,17c0.3,0,0.5,0,0.7-0.1c0.2,0,0.4-0.1,0.5-0.1V18.1z M51.8,15.6c0-0.4-0.1-0.6-0.4-0.6
		S51,15.2,51,15.6H51.8z"/>
	<path d="M54,16.9v-1.6h-0.4c0-0.1,0-0.2,0-0.3c0-0.1,0-0.2,0-0.3c0-0.1,0-0.2,0-0.3s0-0.2,0-0.3h1.9l0,0.4c0.1-0.1,0.2-0.2,0.4-0.3
		c0.1-0.1,0.3-0.1,0.4-0.1c0.1,0,0.2,0,0.3,0c0.1,0,0.2,0.1,0.3,0.1l-0.2,1.4c-0.1,0-0.1-0.1-0.2-0.1c-0.1,0-0.2,0-0.3,0
		c-0.2,0-0.3,0.1-0.4,0.2c-0.1,0.1-0.2,0.3-0.2,0.5v0.9h0.4c0,0.1,0,0.2,0,0.3s0,0.2,0,0.3c0,0.1,0,0.2,0,0.3s0,0.2,0,0.3h-2.6
		c0-0.2,0-0.4,0-0.6c0-0.1,0-0.2,0-0.4c0-0.1,0-0.2,0-0.4H54z"/>
	<path d="M59.4,17.9c0,0-0.1,0.1-0.2,0.1c-0.1,0-0.1,0.1-0.2,0.1c-0.1,0-0.2,0.1-0.3,0.1c-0.1,0-0.2,0-0.4,0c-0.2,0-0.4,0-0.5-0.1
		c-0.2,0-0.3-0.1-0.4-0.2c-0.1-0.1-0.2-0.2-0.3-0.4s-0.1-0.4-0.1-0.6c0-0.3,0.1-0.5,0.2-0.7s0.3-0.3,0.4-0.4
		c0.2-0.1,0.4-0.2,0.7-0.2c0.3-0.1,0.5-0.1,0.9-0.1l0.2,0v-0.1c0-0.1,0-0.2-0.1-0.3c-0.1-0.1-0.2-0.1-0.3-0.1c-0.2,0-0.4,0-0.7,0.1
		c-0.2,0.1-0.5,0.2-0.9,0.3v-1.2c0.2-0.1,0.5-0.2,0.8-0.3c0.3-0.1,0.6-0.1,1-0.1c0.2,0,0.3,0,0.6,0c0.2,0,0.4,0.1,0.6,0.2
		c0.2,0.1,0.4,0.3,0.5,0.5s0.2,0.5,0.2,0.8v1.5h0.4c0,0.1,0,0.2,0,0.3c0,0.1,0,0.2,0,0.3c0,0.1,0,0.2,0,0.3c0,0.1,0,0.2,0,0.3h-1.9
		L59.4,17.9z M59.3,16.4l-0.2,0c-0.2,0-0.3,0.1-0.4,0.2c-0.1,0.1-0.1,0.2-0.1,0.3c0,0.1,0,0.2,0.1,0.2c0.1,0.1,0.1,0.1,0.2,0.1
		c0.3,0,0.4-0.1,0.4-0.4V16.4z"/>
	<path d="M62.1,16.9v-1.6h-0.4c0-0.1,0-0.2,0-0.3c0-0.1,0-0.2,0-0.3c0-0.1,0-0.2,0-0.3s0-0.2,0-0.3h1.9l0,0.3c0,0,0.1-0.1,0.2-0.1
		c0.1,0,0.2-0.1,0.2-0.1c0.1,0,0.2-0.1,0.3-0.1c0.1,0,0.3,0,0.4,0c0.2,0,0.4,0,0.5,0.1c0.2,0.1,0.3,0.1,0.4,0.3
		c0.1,0.1,0.2,0.3,0.3,0.4c0.1,0.2,0.1,0.4,0.1,0.6v1.7h0.4c0,0.1,0,0.2,0,0.3s0,0.2,0,0.3c0,0.1,0,0.2,0,0.3s0,0.2,0,0.3h-2.1v-2.6
		c0-0.1,0-0.2-0.1-0.2c0-0.1-0.1-0.1-0.2-0.1c0,0-0.1,0-0.1,0c0,0-0.1,0-0.1,0.1c0,0-0.1,0.1-0.1,0.2c0,0.1,0,0.2,0,0.3v2.3h-2.1
		c0-0.1,0-0.2,0-0.3s0-0.2,0-0.3c0-0.1,0-0.2,0-0.3s0-0.2,0-0.3H62.1z"/>
	<path d="M66.8,16.9l2.1-1.8h-0.7v0.3c-0.1,0-0.2,0-0.3,0c-0.1,0-0.2,0-0.3,0c-0.1,0-0.2,0-0.3,0c-0.1,0-0.2,0-0.3,0V14h3.8v1.3
		l-2,1.8h0.7v-0.3c0.2,0,0.4,0,0.6,0c0.1,0,0.3,0,0.4,0c0.1,0,0.3,0,0.4,0v1.4h-3.9V16.9z"/>
	<path d="M73.5,17.9c0,0-0.1,0.1-0.2,0.1c-0.1,0-0.1,0.1-0.2,0.1c-0.1,0-0.2,0.1-0.3,0.1c-0.1,0-0.2,0-0.4,0c-0.2,0-0.4,0-0.5-0.1
		c-0.2,0-0.3-0.1-0.4-0.2c-0.1-0.1-0.2-0.2-0.3-0.4C71.1,17.4,71,17.2,71,17c0-0.3,0.1-0.5,0.2-0.7c0.1-0.2,0.3-0.3,0.4-0.4
		s0.4-0.2,0.7-0.2c0.3-0.1,0.5-0.1,0.9-0.1l0.2,0v-0.1c0-0.1,0-0.2-0.1-0.3c-0.1-0.1-0.2-0.1-0.3-0.1c-0.2,0-0.4,0-0.7,0.1
		c-0.2,0.1-0.5,0.2-0.9,0.3v-1.2c0.2-0.1,0.5-0.2,0.8-0.3c0.3-0.1,0.6-0.1,1-0.1c0.2,0,0.3,0,0.6,0c0.2,0,0.4,0.1,0.6,0.2
		c0.2,0.1,0.4,0.3,0.5,0.5c0.1,0.2,0.2,0.5,0.2,0.8v1.5h0.4c0,0.1,0,0.2,0,0.3c0,0.1,0,0.2,0,0.3c0,0.1,0,0.2,0,0.3
		c0,0.1,0,0.2,0,0.3h-1.9L73.5,17.9z M73.4,16.4l-0.2,0c-0.2,0-0.3,0.1-0.4,0.2c-0.1,0.1-0.1,0.2-0.1,0.3c0,0.1,0,0.2,0.1,0.2
		c0.1,0.1,0.1,0.1,0.2,0.1c0.3,0,0.4-0.1,0.4-0.4V16.4z"/>
</g>
</svg>
