<svg xmlns="http://www.w3.org/2000/svg" viewBox="0 0 108.48 125.78"><defs><style>.cls-1{fill:#7aad6a;}</style></defs><title>Recurso 1</title><g id="Capa_2" data-name="Capa 2"><g id="Capa_1-2" data-name="Capa 1"><path class="cls-1" d="M107.5,1.54a1.66,1.66,0,0,0-3.2-.47C102.07,6.9,77.73,15.28,49.67,17.35,33.6,18.53,17.52,30.57,10.57,46.63,4,61.87,6.43,77.83,17.51,91.56h0l.28.34A219.88,219.88,0,0,0,.36,121.08a3.22,3.22,0,0,0,1.41,4.35,3.19,3.19,0,0,0,1.69.35A3.23,3.23,0,0,0,6.1,124,215.06,215.06,0,0,1,22.41,96.65c5.71,5,15.42,11.35,33.84,10l.18,0c41-3,56.28-34.45,51.07-105.09M81.3,88c-.07,1.37-.16,2.78-.28,4.21H40.59c-.13-1.43-.22-2.84-.29-4.21s-.09-2.76-.09-4.2,0-2.83.09-4.2.16-2.77.29-4.2h9.24V42.59H40.59c-.13-1.44-.22-2.84-.29-4.21s-.09-2.77-.09-4.2,0-2.83.09-4.2.16-2.77.29-4.2H72.52V75.36H81c.12,1.43.21,2.83.28,4.2s.09,2.77.09,4.2,0,2.84-.09,4.2"/></g></g></svg>