<?xml version="1.0" encoding="utf-8"?>
<!-- Generator: Adobe Illustrator 24.3.0, SVG Export Plug-In . SVG Version: 6.00 Build 0)  -->
<svg version="1.1" id="Capa_1" xmlns="http://www.w3.org/2000/svg" xmlns:xlink="http://www.w3.org/1999/xlink" x="0px" y="0px"
	 viewBox="0 0 80.2 24" style="enable-background:new 0 0 80.2 24;" xml:space="preserve">
<style type="text/css">
	.st0{fill-rule:evenodd;clip-rule:evenodd;}
</style>
<path class="st0" d="M20,23h2v1H2v-1h2V0h16V23z M19,1H5v22h14L9,21V3C9,3,19,1,19,1z M12,12h-2v1h2V12z"/>
<g>
	<path d="M25,8.8V5.2h-1c0-0.2,0-0.3,0-0.5c0-0.2,0-0.3,0-0.5s0-0.3,0-0.5c0-0.2,0-0.3,0-0.5h3.6v5.5h0.9c0,0.2,0,0.3,0,0.5
		c0,0.2,0,0.3,0,0.5c0,0.2,0,0.3,0,0.5c0,0.2,0,0.3,0,0.5H24c0-0.2,0-0.3,0-0.5c0-0.2,0-0.3,0-0.5c0-0.2,0-0.3,0-0.5
		c0-0.2,0-0.3,0-0.5H25z"/>
	<path d="M31.6,8.8V5h-0.5c0-0.2,0-0.3,0-0.5c0-0.2,0-0.3,0-0.5c0-0.2,0-0.3,0-0.5c0-0.2,0-0.3,0-0.5h3.3l1.3,4.2L37,3.1h3.3
		c0,0.2,0,0.3,0,0.5c0,0.2,0,0.3,0,0.5c0,0.2,0,0.3,0,0.5c0,0.2,0,0.3,0,0.5h-0.5v3.8h0.5c0,0.2,0,0.3,0,0.5c0,0.2,0,0.3,0,0.5
		c0,0.2,0,0.3,0,0.5c0,0.2,0,0.3,0,0.5h-2.8v-4l-1,3.9h-1.6l-1-3.9v4h-2.7c0-0.2,0-0.3,0-0.5c0-0.2,0-0.3,0-0.5c0-0.2,0-0.3,0-0.5
		c0-0.2,0-0.3,0-0.5H31.6z"/>
	<path d="M41.3,8.9V6.8h-0.5c0-0.1,0-0.3,0-0.4s0-0.3,0-0.4s0-0.3,0-0.4s0-0.3,0-0.4h2.8v3.9h0.5c0,0.1,0,0.3,0,0.4
		c0,0.1,0,0.3,0,0.4s0,0.3,0,0.4c0,0.1,0,0.3,0,0.4h-3.3c0-0.1,0-0.3,0-0.4s0-0.3,0-0.4s0-0.3,0-0.4s0-0.3,0-0.4H41.3z M41,3.6
		c0-0.3,0.1-0.6,0.3-0.7c0.2-0.2,0.6-0.2,1-0.2c0.5,0,0.8,0.1,1,0.2c0.2,0.2,0.3,0.4,0.3,0.7c0,0.3-0.1,0.5-0.3,0.7
		c-0.2,0.2-0.6,0.2-1,0.2C41.4,4.6,41,4.3,41,3.6z"/>
	<path d="M45.1,8.9V4.6h-0.5c0-0.1,0-0.3,0-0.4c0-0.1,0-0.3,0-0.4s0-0.3,0-0.4c0-0.1,0-0.3,0-0.4h2.8v6.1h0.5c0,0.1,0,0.3,0,0.4
		s0,0.3,0,0.4s0,0.3,0,0.4s0,0.3,0,0.4h-3.3c0-0.1,0-0.3,0-0.4c0-0.1,0-0.3,0-0.4s0-0.3,0-0.4c0-0.1,0-0.3,0-0.4H45.1z"/>
	<path d="M48.9,8.9V4.6h-0.5c0-0.1,0-0.3,0-0.4c0-0.1,0-0.3,0-0.4s0-0.3,0-0.4c0-0.1,0-0.3,0-0.4h2.8v6.1h0.5c0,0.1,0,0.3,0,0.4
		c0,0.1,0,0.3,0,0.4s0,0.3,0,0.4c0,0.1,0,0.3,0,0.4h-3.3c0-0.1,0-0.3,0-0.4s0-0.3,0-0.4s0-0.3,0-0.4s0-0.3,0-0.4H48.9z"/>
	<path d="M51.9,7.9c0-0.4,0.1-0.8,0.2-1.2c0.1-0.4,0.3-0.7,0.6-0.9c0.2-0.3,0.6-0.5,0.9-0.6c0.4-0.1,0.8-0.2,1.3-0.2
		c0.5,0,0.9,0.1,1.3,0.2c0.4,0.1,0.7,0.4,0.9,0.6c0.2,0.3,0.4,0.6,0.6,0.9c0.1,0.4,0.2,0.8,0.2,1.2c0,0.4-0.1,0.8-0.2,1.2
		c-0.1,0.4-0.3,0.7-0.6,0.9c-0.2,0.3-0.6,0.5-0.9,0.6c-0.4,0.2-0.8,0.2-1.3,0.2c-0.5,0-0.9-0.1-1.3-0.2c-0.4-0.2-0.7-0.4-0.9-0.6
		C52.3,9.7,52.2,9.4,52,9C51.9,8.7,51.9,8.3,51.9,7.9z M54.9,3.5h2.3l-1.5,1.1h-1.7L54.9,3.5z M54.8,9.2c0.2,0,0.3-0.1,0.4-0.3
		c0.1-0.2,0.2-0.5,0.2-1c0-0.5-0.1-0.8-0.2-1S55,6.6,54.8,6.6c-0.2,0-0.3,0.1-0.4,0.3s-0.2,0.5-0.2,1c0,0.5,0.1,0.8,0.2,1
		C54.5,9.1,54.7,9.2,54.8,9.2z"/>
	<path d="M58.5,8.9V6.8h-0.5c0-0.1,0-0.3,0-0.4c0-0.1,0-0.3,0-0.4s0-0.3,0-0.4c0-0.1,0-0.3,0-0.4h2.5l0,0.4c0.1-0.1,0.1-0.1,0.2-0.2
		c0.1-0.1,0.2-0.1,0.3-0.2C61.3,5,61.4,5,61.6,5c0.2,0,0.3-0.1,0.5-0.1c0.3,0,0.5,0,0.7,0.1c0.2,0.1,0.4,0.2,0.6,0.3
		c0.2,0.2,0.3,0.3,0.4,0.6C64,6.1,64,6.4,64,6.7v2.3h0.5c0,0.1,0,0.3,0,0.4s0,0.3,0,0.4s0,0.3,0,0.4s0,0.3,0,0.4h-2.8V7.2
		c0-0.1,0-0.2-0.1-0.3c0-0.1-0.1-0.1-0.2-0.1c0,0-0.1,0-0.1,0c-0.1,0-0.1,0-0.1,0.1C61,7,61,7,60.9,7.1c0,0.1,0,0.2,0,0.4v3.2h-2.8
		c0-0.1,0-0.3,0-0.4c0-0.1,0-0.3,0-0.4s0-0.3,0-0.4c0-0.1,0-0.3,0-0.4H58.5z"/>
	<path d="M26.5,20c-0.1,0.1-0.3,0.2-0.5,0.4c-0.2,0.1-0.5,0.2-0.8,0.2c-0.4,0-0.8-0.1-1.1-0.2c-0.3-0.2-0.5-0.4-0.7-0.7
		c-0.2-0.3-0.3-0.6-0.4-1c-0.1-0.4-0.1-0.8-0.1-1.2c0-0.5,0.1-0.9,0.2-1.3c0.1-0.4,0.3-0.7,0.5-0.9c0.2-0.2,0.4-0.4,0.7-0.5
		c0.3-0.1,0.6-0.2,0.9-0.2c0.3,0,0.5,0,0.7,0.1c0.2,0.1,0.3,0.2,0.4,0.2v-0.7h-0.5c0-0.1,0-0.3,0-0.4s0-0.3,0-0.4c0-0.1,0-0.3,0-0.4
		s0-0.3,0-0.4h2.8v6.1h0.5c0,0.1,0,0.3,0,0.4s0,0.3,0,0.4s0,0.3,0,0.4s0,0.3,0,0.4h-2.6L26.5,20z M25.8,18.8c0.2,0,0.3-0.1,0.4-0.3
		c0.1-0.2,0.1-0.5,0.1-0.9c0-0.4,0-0.8-0.1-0.9c-0.1-0.2-0.2-0.3-0.4-0.3c-0.2,0-0.3,0.1-0.4,0.3c-0.1,0.2-0.1,0.5-0.1,0.9
		c0,0.4,0,0.7,0.1,0.9C25.5,18.7,25.6,18.8,25.8,18.8z"/>
	<path d="M34.6,20.3c-0.4,0.1-0.7,0.2-1.1,0.2c-0.3,0-0.7,0.1-1.1,0.1c-0.6,0-1-0.1-1.4-0.2c-0.4-0.2-0.7-0.4-1-0.6
		c-0.3-0.3-0.4-0.6-0.6-0.9c-0.1-0.4-0.2-0.7-0.2-1.2c0-0.4,0.1-0.7,0.2-1.1c0.1-0.4,0.3-0.7,0.5-0.9c0.2-0.3,0.5-0.5,0.9-0.7
		c0.4-0.2,0.8-0.2,1.3-0.2c0.5,0,1,0.1,1.3,0.2c0.4,0.2,0.6,0.4,0.8,0.6c0.2,0.3,0.4,0.6,0.4,0.9c0.1,0.3,0.1,0.6,0.1,1v0.8h-3.2
		c0.1,0.2,0.2,0.4,0.4,0.5c0.2,0.1,0.5,0.2,0.9,0.2c0.4,0,0.7,0,1-0.1c0.3-0.1,0.5-0.1,0.7-0.1V20.3z M32.7,16.9
		c0-0.6-0.2-0.9-0.6-0.9c-0.4,0-0.6,0.3-0.6,0.9H32.7z"/>
	<path d="M37.8,18.6v-3.8h-0.5c0-0.2,0-0.3,0-0.5c0-0.2,0-0.3,0-0.5c0-0.2,0-0.3,0-0.5c0-0.2,0-0.3,0-0.5h4c0.4,0,0.8,0.1,1.1,0.2
		c0.3,0.1,0.6,0.3,0.8,0.5c0.2,0.2,0.4,0.5,0.5,0.8c0.1,0.3,0.2,0.6,0.2,0.9c0,0.3,0,0.6-0.1,0.9c-0.1,0.3-0.2,0.6-0.4,0.8
		c-0.2,0.2-0.5,0.4-0.8,0.6c-0.3,0.1-0.7,0.2-1.2,0.2h-1.2v0.8h1c0,0.2,0,0.3,0,0.5c0,0.2,0,0.3,0,0.5c0,0.2,0,0.3,0,0.5
		c0,0.2,0,0.3,0,0.5h-3.8c0-0.2,0-0.3,0-0.5c0-0.2,0-0.3,0-0.5c0-0.2,0-0.3,0-0.5c0-0.2,0-0.3,0-0.5H37.8z M41,15.9
		c0.2,0,0.3-0.1,0.4-0.2c0.1-0.1,0.1-0.3,0.1-0.4c0-0.2,0-0.3-0.1-0.4c-0.1-0.1-0.2-0.2-0.4-0.2h-0.8v1.2H41z"/>
	<path d="M44.8,16.5h-0.5c0-0.1,0-0.3,0-0.4c0-0.1,0-0.3,0-0.4s0-0.3,0-0.4c0-0.1,0-0.3,0-0.4h2.8v3.4c0,0.1,0,0.2,0.1,0.3
		c0,0.1,0.1,0.1,0.2,0.1c0,0,0.1,0,0.1,0c0.1,0,0.1,0,0.1-0.1c0-0.1,0.1-0.1,0.1-0.2c0-0.1,0-0.2,0-0.4v-3.2h2.4v3.9h0.5
		c0,0.1,0,0.3,0,0.4c0,0.1,0,0.3,0,0.4s0,0.3,0,0.4c0,0.1,0,0.3,0,0.4h-2.5l0-0.4c-0.1,0.1-0.1,0.1-0.2,0.2
		c-0.1,0.1-0.2,0.1-0.3,0.2c-0.1,0.1-0.3,0.1-0.4,0.1c-0.2,0-0.3,0.1-0.5,0.1c-0.3,0-0.5,0-0.7-0.1c-0.2-0.1-0.4-0.2-0.6-0.3
		s-0.3-0.3-0.4-0.6c-0.1-0.2-0.1-0.5-0.1-0.8V16.5z"/>
	<path d="M56.2,20.3c-0.4,0.1-0.7,0.2-1.1,0.2c-0.3,0-0.7,0.1-1.1,0.1c-0.6,0-1-0.1-1.4-0.2c-0.4-0.2-0.7-0.4-1-0.6
		c-0.3-0.3-0.4-0.6-0.6-0.9c-0.1-0.4-0.2-0.7-0.2-1.2c0-0.4,0.1-0.7,0.2-1.1c0.1-0.4,0.3-0.7,0.5-0.9c0.2-0.3,0.5-0.5,0.9-0.7
		c0.4-0.2,0.8-0.2,1.3-0.2c0.5,0,1,0.1,1.3,0.2c0.4,0.2,0.6,0.4,0.8,0.6c0.2,0.3,0.4,0.6,0.4,0.9c0.1,0.3,0.1,0.6,0.1,1v0.8h-3.2
		c0.1,0.2,0.2,0.4,0.4,0.5c0.2,0.1,0.5,0.2,0.9,0.2c0.4,0,0.7,0,1-0.1c0.3-0.1,0.5-0.1,0.7-0.1V20.3z M54.3,16.9
		c0-0.6-0.2-0.9-0.6-0.9s-0.6,0.3-0.6,0.9H54.3z"/>
	<path d="M57.2,18.7v-2.2h-0.5c0-0.1,0-0.3,0-0.4c0-0.1,0-0.3,0-0.4s0-0.3,0-0.4c0-0.1,0-0.3,0-0.4h2.6l0,0.5
		c0.1-0.2,0.3-0.3,0.5-0.4c0.2-0.1,0.4-0.1,0.6-0.1c0.2,0,0.3,0,0.5,0c0.1,0,0.3,0.1,0.5,0.2l-0.2,1.9c-0.1,0-0.2-0.1-0.3-0.1
		c-0.1,0-0.3-0.1-0.4-0.1c-0.2,0-0.4,0.1-0.6,0.2s-0.2,0.4-0.2,0.6v1.2h0.6c0,0.1,0,0.3,0,0.4c0,0.1,0,0.3,0,0.4s0,0.3,0,0.4
		c0,0.1,0,0.3,0,0.4h-3.4c0-0.3,0-0.5,0-0.8c0-0.2,0-0.3,0-0.5c0-0.2,0-0.3,0-0.5H57.2z"/>
	<path d="M62.4,16.5h-0.6c0-0.1,0-0.3,0-0.4c0-0.1,0-0.3,0-0.4s0-0.3,0-0.4c0-0.1,0-0.3,0-0.4h0.6v-1.1l2.4-0.7v1.8h1.1
		c0,0.1,0,0.3,0,0.4c0,0.1,0,0.3,0,0.4s0,0.3,0,0.4c0,0.1,0,0.3,0,0.4h-1.1v1.7c0,0.2,0,0.3,0.1,0.4c0.1,0.1,0.2,0.1,0.3,0.1
		c0.2,0,0.3,0,0.4-0.1c0.1,0,0.2-0.1,0.3-0.1v1.7c-0.2,0.1-0.5,0.1-0.8,0.2c-0.3,0-0.6,0.1-0.8,0.1c-0.7,0-1.2-0.2-1.5-0.5
		c-0.3-0.3-0.5-0.8-0.5-1.4V16.5z"/>
	<path d="M69.6,20c-0.1,0.1-0.1,0.1-0.2,0.2c-0.1,0.1-0.2,0.1-0.3,0.2c-0.1,0.1-0.3,0.1-0.4,0.1c-0.2,0-0.3,0.1-0.5,0.1
		c-0.2,0-0.5,0-0.7-0.1c-0.2-0.1-0.4-0.2-0.6-0.3c-0.2-0.1-0.3-0.3-0.4-0.6c-0.1-0.2-0.1-0.5-0.1-0.8c0-0.4,0.1-0.7,0.2-0.9
		c0.1-0.2,0.3-0.4,0.6-0.6c0.3-0.1,0.6-0.3,0.9-0.3c0.4-0.1,0.7-0.1,1.2-0.2l0.2,0v-0.1c0-0.2,0-0.3-0.1-0.4s-0.2-0.1-0.5-0.1
		c-0.3,0-0.6,0-0.9,0.1c-0.3,0.1-0.7,0.2-1.1,0.4v-1.6c0.3-0.1,0.7-0.3,1.1-0.4c0.4-0.1,0.9-0.2,1.4-0.2c0.2,0,0.5,0,0.8,0.1
		c0.3,0,0.6,0.1,0.8,0.3c0.3,0.1,0.5,0.3,0.6,0.6c0.2,0.3,0.3,0.6,0.3,1.1v2h0.5c0,0.1,0,0.3,0,0.4s0,0.3,0,0.4s0,0.3,0,0.4
		s0,0.3,0,0.4h-2.6L69.6,20z M69.5,18l-0.2,0c-0.3,0-0.4,0.1-0.5,0.2c-0.1,0.1-0.1,0.2-0.1,0.4c0,0.1,0,0.2,0.1,0.3
		C68.7,19,68.8,19,69,19c0.3,0,0.5-0.2,0.5-0.5V18z"/>
	<path d="M72.7,18.5c0.1,0,0.3,0,0.4,0c0.1,0,0.3,0,0.4,0c0.1,0,0.3,0,0.4,0c0.1,0,0.3,0,0.4,0v0.1c0,0.2,0.1,0.3,0.2,0.4
		c0.1,0.1,0.4,0.1,0.6,0.1c0.2,0,0.4,0,0.5-0.1c0.1-0.1,0.1-0.1,0.1-0.2c0-0.2-0.1-0.3-0.3-0.3l-1.1-0.2c-0.2,0-0.4-0.1-0.6-0.2
		c-0.2-0.1-0.4-0.2-0.5-0.3c-0.2-0.1-0.3-0.3-0.4-0.5c-0.1-0.2-0.1-0.5-0.1-0.8c0-0.3,0.1-0.6,0.2-0.9c0.1-0.2,0.3-0.4,0.5-0.6
		s0.4-0.3,0.7-0.3c0.3-0.1,0.5-0.1,0.7-0.1c0.3,0,0.6,0,0.8,0.1c0.2,0.1,0.4,0.1,0.5,0.2l0-0.2c0.1,0,0.3,0,0.4,0c0.1,0,0.3,0,0.4,0
		s0.3,0,0.4,0c0.1,0,0.3,0,0.4,0v1.8c-0.1,0-0.3,0-0.4,0c-0.1,0-0.3,0-0.4,0c-0.2,0-0.3,0-0.5,0c-0.1,0-0.3,0-0.4,0v-0.1
		c0-0.1,0-0.2-0.2-0.3c-0.1-0.1-0.3-0.1-0.5-0.1c-0.2,0-0.3,0-0.4,0.1c-0.1,0.1-0.1,0.1-0.1,0.2c0,0.1,0,0.1,0.1,0.2
		c0.1,0,0.2,0.1,0.3,0.1l1,0.2c0.3,0.1,0.5,0.1,0.7,0.2c0.2,0.1,0.4,0.2,0.6,0.3c0.2,0.1,0.3,0.3,0.4,0.5c0.1,0.2,0.1,0.5,0.1,0.8
		c0,0.3-0.1,0.6-0.2,0.9c-0.1,0.2-0.3,0.4-0.5,0.6c-0.2,0.1-0.5,0.2-0.7,0.3c-0.3,0.1-0.5,0.1-0.8,0.1c-0.4,0-0.6,0-0.9-0.1
		c-0.2-0.1-0.4-0.1-0.6-0.2l0,0.2c-0.1,0-0.3,0-0.4,0c-0.1,0-0.3,0-0.4,0c-0.2,0-0.3,0-0.4,0c-0.1,0-0.3,0-0.4,0V18.5z"/>
</g>
</svg>
