<svg id="Capa_1" data-name="Capa 1" xmlns="http://www.w3.org/2000/svg" viewBox="0 0 411.8 693.28"><defs><style>.cls-1{fill:#098975;}</style></defs><path class="cls-1" d="M346.74,619.59c-15.18-19.15-12.74-44.38-6.2-66.52A286.9,286.9,0,0,1,350.61,524c4.12-9.91,10.23-18.8,14.41-28.7,13.34-31.6,16.84-68.88,2-100.55-1.14-2.44-5.27-.8-4.43,1.78,6.49,19.9,5,41.83-5.4,60.19-5.49,9.71-12.68,18.28-17.89,28.2a193.89,193.89,0,0,0-10.95,25.55c-6.43,18.27-12.25,37.95-14.13,57.28-.81,8.33-.89,17.58,2.1,25.54l.09.23Q309,586.41,301.88,579c12.48-11.44,6.34-34.9,6.87-49.71.73-20.33,7.44-39.75,13.86-58.84,13.28-39.47,19.46-80.7,11.81-122.16-.5-2.73-4.68-2.12-4.74.56-.9,39-19.44,73.83-32.85,109.55-6.27,16.7-11.49,33.88-13.34,51.68-1.23,11.92-.72,23.85-.34,35.8.13,4.25-.12,8.44.21,12.49a416.13,416.13,0,0,1-26.18-34.69c4.63-6.4,11.27-11.08,14.91-18.23,3.15-6.18,4.17-13.1,4.78-19.93,1.7-18.88,1.24-38.11,3.09-57h0a.73.73,0,0,0,0-.32c.26-2.62.56-5.24.93-7.84,2.87-20.6,17.39-39,25.38-57.93A64.25,64.25,0,0,0,308,315.18a2.41,2.41,0,0,0-4.67,1.18c3.62,23.19-6.67,45-20.64,62.94-12,15.41-22.54,30.65-29.25,49.17a151,151,0,0,0-8.91,55.74,163.55,163.55,0,0,0,2.1,23Q241,498,235.92,488.59q-4.39-8.18-8.41-16.56c7.51-13.62,9.16-28.82,12.1-43.86,3.7-19,11.83-36.52,19.29-54.22,13.14-31.2,24.34-64,18.39-98.23-.49-2.87-4.48-2-4.74.55-3.55,34.88-22.26,64.39-39.6,93.91-11.54,19.66-20.62,45.31-19.79,69.49C208,427.21,198.93,401.36,199,400.88c3.53-15.65,2.23-31.61,10.77-45.87s20.26-25.87,28.19-40.53c7.07-13.07,12.87-27.58,15.1-42.33,2.28-15.1-1.17-29.89-4.8-44.5-.56-2.26-4.12-2.45-4.66-.05-11.1,50-47.8,89.92-58.31,140l-.12-.32c-3.65-9.34-7.43-18.69-11.21-28,.05-.08.1-.16.14-.24,4.59-5.78,6.47-12.08,8.17-19.33A173.47,173.47,0,0,1,191,291.91c8-19.09,20.91-34.48,32.22-51.57a119.48,119.48,0,0,0,20.27-69.66c-.26-9.69-3.26-19.47-2.72-29.08,0-3.12-4.64-3.15-4.82-.07.14,34.49-18,64.23-36.45,92-9.53,14.36-19.3,28.64-27.1,44.05-4.71,9.29-9.4,19-11.2,29.32q-4.17-10.83-8-21.77c21.83-27.46,28-64.85,42-96.38,14.2-31.81,29.76-64.64,25.67-100.43-.34-3-4.78-3.26-4.82-.07-.25,17.76-12.26,36.53-21.45,51.2-8.84,14.12-20,26-30.1,39.17-9,11.65-14,25.07-17.08,39.34-2.11,9.82-4.57,20.63-5.55,31.21-1.63-6.08-3.12-12.19-4.43-18.35-.23-7.38-1.66-14.64-2-22-.38-7.95,0-16,0-23.93-.18-18.66-1.24-37.3-2.67-55.9-2.83-36.68-6.94-73.24-8.33-110a2.43,2.43,0,0,0-4.49-1.24C109,33.45,105.28,51.32,102.78,70a301.68,301.68,0,0,0-1.86,62.5c2.54,34.31,8.66,73.91,31.83,100.93a2.93,2.93,0,0,0,.36.35q2.31,10.5,5.23,20.85c-7.07-7.81-15.19-14.34-23.94-20.54-16.63-11.8-29.68-21.45-35.53-42-4.63-16.3-5-33.49-8.8-50A192.29,192.29,0,0,0,52.29,95.3a2.42,2.42,0,0,0-4.5,1.15C48.17,116,53.27,134.77,56,154c2.92,20.42,3.11,39,13.49,57.49,15.86,28.26,43.28,60.8,76.09,68.76a2.55,2.55,0,0,0,.86.05c4.94,14.33,10.43,28.5,16,42.61-40.32-46.65-94-80.2-135-126.39-2-2.21-4.74.58-3.8,2.89,7.46,18.22,19.87,34.53,28.88,52.07,9.71,18.89,19.6,35.67,34.89,50.65,27.59,27,60.39,52.77,94.18,71.56a2.49,2.49,0,0,0,1,.32c4.68,12.33,9.28,24.75,14,37.13C173.19,391.38,143,380,118.28,362a336.12,336.12,0,0,1-77.37-79.29,2.44,2.44,0,0,0-4.51,1.15c-.93,9.23,2.5,17.34,6.19,25.61,4.85,10.89,10.28,21.61,17.07,31.43,11.56,16.74,27.05,30,43.89,41.22,35.79,23.85,77.47,39.33,109.16,69.11q1.81,4.2,3.68,8.38c.13.43.26.87.4,1.3a2.5,2.5,0,0,0,.67,1.05c1.8,4,3.63,7.94,5.52,11.86-10.56-9-20.87-18.49-33.81-24-17.92-7.63-37.63-10.92-56-17.45C92.43,417.81,60.11,386.61,27,359.83c-2-1.65-5.14.34-3.8,2.88C43.24,401.05,79,429.2,118.42,445.86c21.13,8.94,43.39,15.15,64.19,24.9,20.22,9.47,37.91,23.45,57.22,34.53Q245,514,250.62,522.52a53,53,0,0,0,7.31,13.63c-9.77-6.72-20.09-12.65-30.5-18.48-17.64-9.89-35-20.4-54-27.51-19.32-7.24-38.73-12.51-58.75-17.3-22.24-5.31-42-19.14-61.77-30.2-2.26-1.27-4.17,1.17-3.31,3.27,16.93,41.26,60.15,64.68,100.53,78,21.31,7,43.67,9.36,65.22,15.53s41.18,18.86,63.35,22.81c.58.11,6.22,5.29,8.61,8l.07.09a2.3,2.3,0,0,0,.45.48q10.33,11.61,21.5,22.47c-18.23-5.24-36.32-8.76-55.2-12.12-21.1-3.76-41.21-11.15-61.2-18.66-19.27-7.24-38.65-13.13-58.31-19.1-22.88-6.94-40.69-21.55-58.42-37-2.31-2-5.71,1.28-3.41,3.4,8.73,8.05,14,18.83,23.09,26.82A244.81,244.81,0,0,0,121.08,556c19.33,13,40.28,20.29,62.85,25.46,49.56,11.37,99.28,22.15,148.94,33.07q5.1,4.29,10.34,8.42c-16.19-2.38-31.51,4.56-49.07,4.87-24.24.42-48.55-3-72-9-46.58-11.85-89.85-34-129.79-60.38-2-1.33-4.47,1.27-3.3,3.27,25.73,44.35,76.39,70,124.25,83.41,25.65,7.18,51.91,9,78.43,7.45,12.56-.72,25.08-2.05,37.58-3.5,14.82-1.72,31-5.9,45.82-3.22l1.31.85q8.64,5.58,17.54,10.7v-5.69A425.75,425.75,0,0,1,346.74,619.59ZM127.87,129c1.38,18,2.43,36.06,2.66,54.13,0,3.42,0,6.84-.05,10.27-11.18-19.18-11.14-44.14-11.64-65.72a293.07,293.07,0,0,1,4-57.38C124.5,89.82,126.36,109.37,127.87,129Zm-7.82-99.63c.6,11.85,1.43,23.69,2.38,35.52a294.58,294.58,0,0,0-5,66.1c.71,21.61,1,46.27,13,65.07,0,4.27-.06,8.53.14,12.78.14,3,.45,5.93.8,8.88-6.48-14.18-12.55-28.62-16-43.85-3.59-15.73-4.94-32-5.48-48.13C108.78,93.33,111.86,60.68,120.05,29.32Zm-14.54,99.93a300.79,300.79,0,0,1,1.28-52.66c1.82-16.23,4.47-32.3,11.65-46.77-8.32,32.26-11.33,65.91-9.88,99.16.71,16.28,2.21,32.85,6.25,48.68,4,15.48,10.42,30.15,17.1,44.63q.17,1.36.3,2.73C112.68,198.52,107.51,161,105.51,129.25ZM139.08,262.9a101.08,101.08,0,0,1-20-18.72C126.39,249.74,133.39,255.66,139.08,262.9ZM66.86,150.14c1.17,6.11,2,12.32,2.8,18.51-8.35-17.4-8.95-37.52-14.41-56A181.68,181.68,0,0,1,66.86,150.14Zm-6.41,1.07c-1.92-12.58-4.72-25-6.41-37.53,5.7,19.69,6.1,41.16,16.21,59.24,1.27,9.05,2.84,18,6,26.66,7,19.06,22.94,29.83,38.42,41.29a103.27,103.27,0,0,0,27.24,25.65c.47,1.49,1,3,1.44,4.46-13.59-5.07-23.87-17-33.76-27.18C99.29,233.22,87,222.33,79.25,209.69c-7.34-12-10.18-27.15-14.13-40.51q-2.22-7.53-4.26-15.09C60.73,153.13,60.6,152.17,60.45,151.21Zm44.42,98.1C92.28,236.59,80.34,222,72.06,206.12c-7.14-13.72-8.44-27.9-10.05-42.51,1.23,4.3,2.5,8.59,3.78,12.87,4,13.24,6.87,27.11,15.25,38.39,9.46,12.73,21.62,24.13,32.82,35.31,8.94,8.93,17.88,18.35,30.07,22.55.25.76.48,1.53.74,2.29C129.1,270.65,116.15,260.7,104.87,249.31Zm48.55-36c4.55-17.66,13.57-30.24,25.2-44,.29-.34.56-.68.84-1-7.58,24.68-16.57,49.2-31.56,70.35C149.31,229.89,151.41,221.17,153.42,213.35Zm-6,28.47c16.8-22.71,26.32-49.57,34.43-76.39a235.5,235.5,0,0,0,23.64-35.05c3.73-6.78,7.8-14.12,10.81-21.75-.05.63-.13,1.24-.19,1.86-5.33,26.7-24.23,49.45-34.94,74.16-11.05,25.51-19.84,52.2-34.92,75.7A110,110,0,0,1,147.43,241.82Zm-.91,23.52a2.71,2.71,0,0,0,0-.57c-.06-.65-.1-1.31-.14-2,16.36-24.81,25.37-53.33,37.33-80.34,9-20.25,23.32-39,30.64-60-4.56,23.22-15.12,45.29-24.75,67.07-7.17,16.21-12.17,34.08-18.48,51.22a37.83,37.83,0,0,0-8.57,10.43c-4.19,6.93-8.41,13.21-14.66,18.45C147.43,268.2,147,266.77,146.52,265.34Zm1.84,5.77s0,0,.06,0a55,55,0,0,0,11.91-13.32c3.12-4.91,5.65-10,9.67-14-4.89,12.86-10.64,25.22-18.76,36C150.25,276.88,149.3,274,148.36,271.11Zm68.8-30.44c-6.33,9.23-13,18.07-19,27.41,3-17.59,17.65-29.48,28.42-43.41A133.25,133.25,0,0,1,217.16,240.67Zm20-48.36a112.58,112.58,0,0,1-7.26,25.08c-11.23,18-31.62,31.23-33.59,53.64a133.49,133.49,0,0,0-7.69,14.2,156.41,156.41,0,0,0-8.25,22.19c-2.54,8.84-3.36,18.79-8.52,26.56-.92-2.28-1.82-4.57-2.74-6.86a236,236,0,0,1,36.21-85.48c11-16,25.63-31.56,31.91-49.83C237.23,192,237.21,192.14,237.19,192.31Zm1.09-27.86c.06.57.12,1.13.16,1.69,0,.22,0,.43,0,.64a.73.73,0,0,0-.06.39c.05.33.07.66.11,1a114.18,114.18,0,0,1,0,12c-3.79,6.88-7.67,14.15-13.17,19.66A148.7,148.7,0,0,0,238.28,164.45Zm-73,152.65c-.59-16.91,8.84-33.41,17-47.66,8.9-15.48,19.33-30,28.94-45,4.36-6.84,8.55-13.86,12.33-21.06,6.22-5.06,10.45-12.13,14.39-19.21-5,25.34-27.69,46-40.74,67.44a237.67,237.67,0,0,0-29,73.18c-1-2.48-2-4.94-3-7.42A2.29,2.29,0,0,0,165.25,317.1Zm-27.67-13.65a202.57,202.57,0,0,1-63.32-55.57C95.61,266.2,117.55,283.9,137.58,303.45Zm-68-59.63a204.13,204.13,0,0,0,71.74,63.3,324.51,324.51,0,0,1,24.49,27.23C115.48,306.43,75.91,264,41.64,218.29,50.63,227.11,60,235.55,69.56,243.82ZM55.9,247.48c-6.19-12.08-14-23.48-20.67-35.41,36.27,49.39,78.31,95.78,132.83,125.16l.3.39c1.4,3.49,2.77,7,4.16,10.47-40.78-19.53-79.26-45.33-106.36-81.74C62.59,260.29,59.25,254,55.9,247.48Zm34.95,51.26a140.32,140.32,0,0,1-17.66-21.25c26.87,31.65,62.54,54.75,100.11,72.57,1,2.64,2.11,5.28,3.15,7.92q1.8,4.62,3.58,9.27C148,348.85,117.13,324.48,90.85,298.74Zm155-60.42.09.41a.93.93,0,0,0-.16-.18C245.81,238.47,245.84,238.4,245.86,238.32Zm-8.92,24.26c-1.77,19.19-13.62,35.36-23,51.88-9.76,17.27-17.41,35.54-24,54.23C198.1,330.44,221.45,298.07,236.94,262.58ZM188.82,376.63v0c8.1-24.26,18-47.58,31.17-69.57,9-15.06,18.31-30.46,18.61-48.38,2.25-5.41,4.31-10.9,6.08-16.49.31,12.93.73,26.9-2.83,39.26-4.19,14.58-14.64,27.49-23,39.89-12.89,19.15-25,39.67-27.13,63C190.77,381.76,189.8,379.19,188.82,376.63Zm6.62,17.42q-1.24-3.27-2.48-6.52c1.56-29.38,19.17-53.28,34.87-76.91,6.84-10.3,14-20.91,16.46-33.24s2-25.52,1.78-38.07c2.72,12.83,4.12,25.56,1,38.81a142.79,142.79,0,0,1-20,45.21c-8,12.15-19,22.64-25,36.08C197.19,370.39,197.26,382.38,195.44,394.05Zm-153.69-101c-.09-.46-.21-.92-.28-1.38a342.6,342.6,0,0,0,67.41,69.23,345,345,0,0,0,43.69,28.49c11.75,6.48,23.66,12.66,34.48,20.45-28-11.8-55.65-24.81-79.87-43.29C80.93,346.53,60.66,319.85,41.75,293.06Zm22.3,45.6a164.77,164.77,0,0,1-11.91-20.25c-3.39-6.74-7.38-14.06-9.51-21.62,18.42,25.92,38.24,51.53,63.66,70.92,25.82,19.71,55.57,33.2,85.41,45.65a104.42,104.42,0,0,1,7.87,6.9,2.46,2.46,0,0,0,.75.5q3.13,8.07,6.42,16.09c-23.92-18.74-49.56-34.1-76.6-48A230.58,230.58,0,0,1,64.05,338.66Zm56.31,48.26c-17.28-10.24-34.19-21.87-47.55-37a222.68,222.68,0,0,0,50.78,37.23c29.52,15.76,57.91,31.46,84.22,52.37.2.5.4,1,.61,1.49C182,418.86,149.89,404.42,120.36,386.92Zm125.11-28.28c12-20.24,23-41.2,28.66-63.93,0,1.91,0,3.82-.13,5.72-6.73,21-13.94,41.62-27.7,59.21-1.9,2.43-3.84,4.84-5.76,7.26Q243,362.78,245.47,358.64Zm-23,48c2.62-10.78,7.21-20.54,12.47-30,1.17-1.62,2.38-3.22,3.61-4.81-1.47,14.34-10,28.15-17.43,40.83Q221.74,409.56,222.46,406.64Zm-2.15,10.23c8.31-14.39,19-30.43,19.84-47.12,4.16-5.3,8.47-10.52,12.38-16,10-13.93,15.79-30.59,21-47q-.59,6-1.69,11.9c-4,8.33-5.6,18.36-9.36,26.54C256.6,358,249,370,242.31,382.38a286.76,286.76,0,0,0-16.82,37c-2.75,7.52-5.7,15.48-7,23.56A114.6,114.6,0,0,1,220.31,416.87Zm-1.05,33.4c.19-11,4.44-22,8.22-32.11a291.48,291.48,0,0,1,17.69-38c5.72-10.43,12-20.59,17.18-31.3,1.67-3.44,3.23-6.92,4.64-10.47-4.3,14.17-10.06,28-15.84,41.57l-.12.3c-18.86,18.52-18.62,47.94-31.76,70.08Zm.38,2.2c13.28-21.1,13.36-49.52,29.75-68.38-5.46,12.84-10.76,25.81-13.75,39.47-.68,3.12-1.26,6.26-1.83,9.4a82.09,82.09,0,0,1-3.33,8c-2.61,5.48-5.17,11.54-9.95,15.45C220.2,455.1,219.9,453.8,219.64,452.47ZM221,457.9c4.74-3.67,7.23-9,9.86-14.36.62-1.25,1.21-2.5,1.78-3.76-1.67,9.2-3.61,18.28-7.69,26.8Q222.88,462.26,221,457.9ZM100.67,422.58a153.68,153.68,0,0,1-19.53-7.95c-12.79-6.46-23.35-16-32.93-26.44C57,396.82,66.65,404.24,78.54,408A253.71,253.71,0,0,0,100.67,422.58ZM74.43,404.93c-14.67-6.07-25.89-17.89-36.5-29.79C49.84,385.15,61.88,395.46,74.43,404.93ZM45.8,387.7c9.32,10.39,19.53,20,31.83,26.72,9.48,5.22,19.72,8.6,30,12,4.24,2.23,8.55,4.31,13,6.16,15.49,6.5,31.69,10.77,47.78,15.43l-25.92-5.68c-17.12-3.75-34.13-7.62-49.95-15.32A186.11,186.11,0,0,1,45.8,387.7Zm62.06,47.85c-1.43-.72-2.85-1.47-4.27-2.22,11.35,4.21,23.15,7,35,9.66q21.9,4.83,43.79,9.59c16.77,6.78,29.05,18.36,43.26,29.73-19-11.18-36.23-23-58.07-28.73C147.39,448.28,127.48,442.55,107.86,435.55Zm81.22,33c-19-9.55-39.5-15.6-59.24-23.25-3-1.16-6-2.4-8.91-3.68,14.11,4.68,28.4,8.79,42.86,12.46a157.59,157.59,0,0,1,34.79,13.22c10.64,5.57,20.18,12.68,30.54,18.67,1.88,3.61,3.81,7.21,5.8,10.76C219.65,487.32,205.11,476.64,189.08,468.56Zm83.59,7.05c-.55,9.6-.52,20.11-5.4,28.71a35.26,35.26,0,0,1-4.59,6.18c5-18.22,7.31-37,10.86-55.57C273.29,461.86,273.07,468.78,272.67,475.61ZM250,499.16a166.65,166.65,0,0,1-.56-27.84,146,146,0,0,1,16.45-59.41c9.06-17.2,23.36-30.67,32.52-47.77a93.41,93.41,0,0,0,6.8-16.06c-1.8,8.36-5.2,16.59-9.45,25.13-.13.27-.28.54-.41.81-15.82,18.83-26.75,41-33.86,64.55a283.73,283.73,0,0,0-9,41.9C251.61,486.62,250.51,492.89,250,499.16Zm1.19,8c-.44-10.77,1.92-22.06,3.57-32.36A274.56,274.56,0,0,1,262.91,439c6.35-21,15.76-41,29-58.34-3.22,6-6.58,12.17-9.42,18.46-3.51,3.21-5.22,7.87-7,12.74A313.36,313.36,0,0,0,265.09,449c-5.1,22.79-8.35,45.95-11,69.13A82,82,0,0,1,251.22,507.17Zm13.13-47.65c1.9-9.49,4.07-18.93,6.66-28.26,2-7.19,4.28-19.72,9.54-27.51a69.34,69.34,0,0,0-4.43,15.87c-1.22,8.66-1.81,17.48-2.22,26.32-4.86,22.21-7,45-13.38,66.89-1.69,1.76-3.41,3.51-5,5.34C257.79,498.52,260.47,478.92,264.35,459.52ZM131,481.43c10.6,2.61,20.92,6.24,31.21,9.82,5.21,1.82,10.26,3.82,15.23,6a207.07,207.07,0,0,1-54.57-17.63C125.61,480.17,128.32,480.76,131,481.43ZM104,474.89a131.58,131.58,0,0,0,13.28,3.49,209.23,209.23,0,0,0,65.4,21.14c12.14,5.55,23.8,11.91,35.65,18.55,15.9,8.9,32,17.61,46.26,28.86-16.74-4.69-31.54-13.8-46.66-22.32a221.58,221.58,0,0,0-54.55-21.91c-20.26-5.16-39.1-9.62-57.53-20-13.9-7.8-26.92-17-39.6-26.69C78.38,463.3,90.82,470.56,104,474.89Zm56.44,47.19c-35.65-10.14-74.58-28.73-96.39-60,17.64,18.24,35.88,33.32,60.47,42.19s50.56,13.44,73.44,26.13C185.38,527.82,172.76,525.6,160.4,522.08Zm61,14.19c-6.24-1.93-12.56-3.45-18.91-4.84-21.32-12.95-45.75-18.09-69.29-25.68-13.09-4.23-25.95-9.35-37.45-17C82.19,479.65,71,467.56,59.87,455.66c-.91-1.54-1.79-3.11-2.61-4.71,14.06,11,28.39,21.65,43.77,30.7,17.59,10.35,35.3,16.2,55.1,20.79a230.57,230.57,0,0,1,62.37,24.18c15.71,8.91,31.15,18.25,48.81,22.53q3.29,2.7,6.43,5.63c.29.26,1.7,1.54,2.11,2C256.94,552.44,240,542,221.43,536.27Zm66.16-1.22a176.77,176.77,0,0,1,2-33.94c3.05-17.91,9.29-35.11,16-51.93,8.1-20.32,17.06-40.57,22.84-61.6,1.83,15.92-8.27,31.17-14.5,45.59a274.2,274.2,0,0,0-21.4,84.63c-1.41,16.07-.79,32.22-2,48.28C286,557.59,287.81,544.18,287.59,535.05Zm11,40.41q-3.46-3.69-6.82-7.46c1.55-17.76.72-35.63,2.49-53.4a271.67,271.67,0,0,1,10.41-52.05c5.13-16.89,12.64-32.45,19.74-48.53,4.3-9.72,7-19.71,4.9-29.81,1.21-4.7,2.26-9.43,3.09-14.22a222.25,222.25,0,0,1-3,54.72c-12,22.29-20.3,47.23-27.13,71.5-3.22,11.43-5.53,23.14-5.6,35.05-.09,14.49,2.67,28.8,2.74,43.29C299.13,574.86,298.86,575.17,298.56,575.46Zm-.36-38.93c-.5-13.6,1.79-26.88,5.46-39.94,6.38-22.65,14.09-45.95,24.85-67A304.28,304.28,0,0,1,318,469.14c-5.15,15.31-10.39,30.69-12.77,46.73-1.41,9.41-1.38,18.67-1,28.15.31,8.89,1.87,20.89-3.35,28.72C300.58,560.62,298.65,548.64,298.2,536.53Zm25,9.19c4.74-19.52,10.39-39.06,19.57-57,4.51-8.82,10.39-16.78,15.58-25.11-2.59,12.34-9.46,23.31-14.88,34.61a309.12,309.12,0,0,0-12.66,29.83c-7.09,19.83-11.25,40.46-10.14,61.47A41.28,41.28,0,0,1,318.62,576C318.62,565.71,320.79,555.62,323.2,545.72Zm-41.58,44.92c12.06,2.53,23.81,6.3,35.52,10.08.86.79,1.75,1.56,2.61,2.35-13.46-4.88-27.09-9.23-40.9-12.94C279.77,590.3,280.7,590.45,281.62,590.64ZM98.13,532.2a56.61,56.61,0,0,1-5.45-5.73q2.53,1.95,5.13,3.81a.63.63,0,0,0,.21.41c4.92,4.68,9.93,9.25,15,13.76C107.88,540.57,102.89,536.49,98.13,532.2Zm93.54,46.1c-22.61-5-44.3-11.15-64-23.7-1.08-.69-2.14-1.43-3.22-2.14q-10-8.51-19.65-17.45,3.7,2.38,7.58,4.48a169.75,169.75,0,0,0,26.38,14c16.78,7,33.94,13.13,51.23,18.75,24.83,8.08,49.91,15.39,75.09,22.32Zm104.61,23.23c-34.35-9.11-68.63-18.64-102.46-29.51-17.31-5.57-34.49-11.58-51.33-18.48a176.3,176.3,0,0,1-16.9-8c19.45,7.49,40.16,12,59.74,19.31,20.5,7.67,41,15.74,62.51,20.09,4.67.94,9.37,1.68,14.07,2.4a.91.91,0,0,0,.28.13,503.3,503.3,0,0,1,60.37,18.17c.86.77,1.7,1.56,2.57,2.32Q310.7,604.75,296.28,601.53Zm26.12-7.94c-2.08-24.36,3.19-48.22,11.94-70.9A377.41,377.41,0,0,1,350.15,488c4.58-9,8.92-17.75,10.3-27.87a78.31,78.31,0,0,0,7.61-16.75c3.46,17-5.57,32.19-13.4,47a326.51,326.51,0,0,0-19.11,43.48c-8.42,23.8-14.34,47.77-3.64,71.12A36.81,36.81,0,0,1,322.4,593.59Zm21.5-77.21c6.32-14.93,15-28.68,21.37-43.54,4.5-10.51,6.64-21.3,3.59-32.36a79.49,79.49,0,0,0,2.26-13.89,119.5,119.5,0,0,1-.94,33.44,149.55,149.55,0,0,1-7.72,28.65c-4,10.6-10.22,19.85-14.88,30.11-11.7,25.74-23.15,59.88-13.34,87.74C319.52,577.24,331.9,544.72,343.9,516.38ZM215,621.94a293.51,293.51,0,0,0,66.67,10.57c10.86.41,21.77.41,32.38-2.17,14.39-3.5,26.65-5.88,40.44,1.24-42.86,10.4-88.65,3.45-131.12-5.7-43.44-9.35-83.78-26.81-118.88-54C138.91,593.31,175.75,611.14,215,621.94ZM224.22,643c-31.34-7.32-64.62-20.49-91.61-40.63,23.81,13.56,49.8,22.46,76.25,29.65,23.47,6.38,48.15,14.07,72.8,16.15C262.39,648.66,243.16,647.42,224.22,643Zm120.66-.55c-13.19,1.65-26.4,3.21-39.64,4.36-1.74.15-3.48.29-5.23.42a.72.72,0,0,0-.35-.09c-30.38,1.34-61.37-8.61-90.41-16.51-29.91-8.14-59.25-18.47-85.46-35.3A145.93,145.93,0,0,1,100.88,571c35.91,28.47,77.29,46.67,122.06,56.33,43.12,9.3,89.65,16.31,133.09,5.42,3.61,2.63,7.25,5.22,10.94,7.73C359.6,640.39,352.29,641.52,344.88,642.45Z"/></svg>