<svg id="Capa_1" data-name="Capa 1" xmlns="http://www.w3.org/2000/svg" viewBox="0 0 675.04 834.03"><defs><style>.cls-1{fill:#098975;}</style></defs><path class="cls-1" d="M226.5,706.82a8.3,8.3,0,0,1-.58-2.28c-22.41,43.15-58.68,82.91-106.55,93.35-.23.05-.45.13-.68.18-3.13.66-3.16,5-.79,5.77a2.58,2.58,0,0,0,1.4.08c.38-.08.74-.21,1.11-.29a126,126,0,0,0,24.75-8.33c37.21-16.78,66.15-50.36,85.38-86.88l-.27.11A3,3,0,0,1,226.5,706.82Z"/><path class="cls-1" d="M214.52,530.87a2.59,2.59,0,0,1,1.19.48c-5.48-27.14-11.3-54.19-14.31-81.63C204.39,477,209.38,503.91,214.52,530.87Z"/><path class="cls-1" d="M407.85,497.21c.19.18.35.39.53.58a478.35,478.35,0,0,0,29.48-54.71l-.95-.11A484.92,484.92,0,0,1,407.85,497.21Z"/><path class="cls-1" d="M198.81,475.23c-.78-4.89-1-10.39-1.51-15.29-.49.26-1,.52-1.46.76,3.57,24.08,9.76,48.11,14.89,71.83l.07,0c-.39-1.83-.67-3.67-1.09-5.49C205.85,509.82,201.6,492.62,198.81,475.23Z"/><path class="cls-1" d="M199.75,432.59c.11,2.3.43,4.58.59,6.87.19,2.1.44,4.2.65,6.29-.64-6.49-1.18-13-1.44-19.55-1.58-38.67,13-70.48,31.76-101.23l-.25-.36c-.86-1.1.6-2.56,1.68-2q4.33-7,8.91-14c-.11-.53-.3-1-.4-1.58-.19-1,1.21-1.16,1.59-.38,0,0,0,.05,0,.07,3.87-5.9,7.8-11.81,11.73-17.77,15.59-23.65,22-54.73,30.3-82.32-.78-.42-1.53-.87-2.32-1.27-1.26-.63-.72-2.93.74-2.49.85.25,1.65.65,2.47,1,.88-2.86,1.77-5.73,2.71-8.5,18.49-54,72.75-84,108.25-127.82-.14-.54-.33-1.07-.44-1.61s.83-1,1.16-.45c.14.23.26.49.4.72a169.79,169.79,0,0,0,11.75-16.86,168.46,168.46,0,0,1,2-17.13c-26.9,61.22-91.48,91.42-123.72,149.93C267.81,218.67,266.08,261,242.58,296.6c-20.06,30.44-38.89,59-46.42,95.19a167.15,167.15,0,0,0-3.07,40l2-1.34C196.87,429.34,199.63,430.29,199.75,432.59Z"/><path class="cls-1" d="M427.24,48.29c.51-1.25,1-2.5,1.57-3.71A.65.65,0,0,1,430,45c-.5,2.25-1.11,4.48-1.74,6.71.85,2.78,1.57,5.11,2,6.33,2.48,7,5.06,13.9,7.6,20.84.49-.74.88-1.56,1.39-2.27.3-.43,1,0,.77.48-.55,1.16-1,2.27-1.56,3.41q5,13.69,10,27.41a.53.53,0,0,1,.31.86c.45,1.25.92,2.51,1.38,3.76q3.79,10.58,7.4,21.24c.67-.65,1.28-1.41,2-2,1.26-1.15,2.79,1,1.54,2.19-.9.82-1.73,1.69-2.6,2.55a490.09,490.09,0,0,1,14.86,52.94l.38-.1c.89-.19,1.11,1.15.35,1.47-.14.05-.28.13-.42.18a287.25,287.25,0,0,1,5.77,40.41c.41,17-.06,33.55-1.23,49.83a1.31,1.31,0,0,1,.47-.12c.35-5,.74-10,.94-15a2.28,2.28,0,0,1,2-2.35c1.13-.57,2.32-1.1,3.47-1.66.32-10.37.43-20.78.19-31.25-4.68-71.31-37.6-137-59.49-204.15a97,97,0,0,1-1.18,13.73C425.52,42.87,426.42,45.66,427.24,48.29Z"/><path class="cls-1" d="M397.5,526.52q10.35-14,19.42-28.62Q407.62,512.5,397.5,526.52Z"/><path class="cls-1" d="M438.4,439.73c.3.09.57.2.86.28a456,456,0,0,0,19.25-50.74l-.82.08A461.25,461.25,0,0,1,438.4,439.73Z"/><path class="cls-1" d="M390.67,535.67l-1.73,2.22.86-1C390.1,536.45,390.37,536.05,390.67,535.67Z"/><path class="cls-1" d="M347.65,577.25a545.28,545.28,0,0,0,59-76.75l-.79-.25q-32.73,51.82-78.78,98.37c-26.17,26.57-54.66,51.08-79.6,78.86q-4.74,10.42-9.64,20.79c31.65-42.88,73.37-78,111.31-116.22C347.35,581.52,346.19,578.85,347.65,577.25Z"/><path class="cls-1" d="M195,454.55l.75-.37c-.13-1.06-.17-2.11-.28-3.17a10.88,10.88,0,0,0-1.13-2.15C194.52,450.76,194.74,452.65,195,454.55Z"/><path class="cls-1" d="M458.45,387.06h.13a.87.87,0,0,1,.5.29A471.63,471.63,0,0,0,478.43,285l-.49.45A468.76,468.76,0,0,1,458.45,387.06Z"/><path class="cls-1" d="M226.92,624.47a2.71,2.71,0,0,1-.65.28l-.47.09c2.87,22.25,4.57,44.81,2.83,65.52,1.44-3.69,3.08-7.28,4.39-10.34,0-.33,0-.67,0-1-1.07-27.74-3.73-55.45-6.59-83-1.53-14.63-3.88-29.14-6.57-43.59a3,3,0,0,1-.57.69l-.49.33c4.18,22.57,8,45.21,10.13,68.13A2.69,2.69,0,0,1,226.92,624.47Z"/><path class="cls-1" d="M407.81,69.44c-1,5.58-1.94,11.17-2.91,16.75a62.84,62.84,0,0,1,.06,18.62c-.09.56-1,.56-1,0,0-3.79,0-7.61-.3-11.4-.94,5.45-1.92,10.89-2.87,16.33,1,4.45,1.14,8.88-.49,13a.42.42,0,0,1-.79-.13c-.05-1.09-.32-2.1-.44-3.17-.54,3.07-1.08,6.14-1.64,9.2.13.29.33.54.44.84a.81.81,0,0,1-.83,1.13q-2.68,14.58-5.77,29.08a40.31,40.31,0,0,1,.68,6.05.23.23,0,0,1-.44.11c-.36-.88-.68-1.75-1-2.63-1.52,7.06-3,14.13-4.77,21.14-.12.46-.24.92-.35,1.37a31.23,31.23,0,0,1,.78,6.84.14.14,0,0,1-.27,0,42.47,42.47,0,0,0-1.16-4.34q-2.55,10.17-5.2,20.31a38.4,38.4,0,0,1,1,9.2.28.28,0,0,1-.55,0,57.74,57.74,0,0,0-1.3-5.8q-4.14,15.64-8.52,31.23c.41,1,.84,2,1.21,3.06.25.69-.79,1.3-1.17.63-.23-.43-.49-.84-.73-1.26q-2.83,10.11-5.73,20.22a44.83,44.83,0,0,1,.24,6c0,.88-1.32.73-1.45,0-.06-.36-.16-.72-.22-1.08q-3.4,11.66-6.86,23.31c.1.39.25.76.33,1.15a.77.77,0,0,1-1,1c-6.74,22.53-13.67,45-20.63,67.46a128.1,128.1,0,0,1-.31,16.16c0,.32-.51.28-.55,0-.4-3.2-.79-6.36-1.19-9.53q-5,16.17-10,32.32c-4.52,14.61-9.15,29.18-13.72,43.76a184.35,184.35,0,0,1-12.13,44c-.14.35-.74.18-.65-.2q2-7.45,3.7-14.85-7.43,23.47-14.86,46.95c-.26,2.66-.52,5.3-.79,8-.06.63-1,.46-.95-.15,0-.94.09-1.88.14-2.82q-7.22,22.62-14.48,45.21-1.79,8.67-3.58,17.43a.07.07,0,0,1-.14,0q.85-5.73,1.82-11.48c-2.43,7.56-4.83,15.14-7.27,22.71-1.14,3.52-2.32,7-3.45,10.54-.16,1.18-.26,2.4-.42,3.57a.61.61,0,0,1-.91.47q-7.65,23.63-15.44,47.2-1.53,9.9-3.33,19.85a.6.6,0,0,1-1.18-.18c.32-3,.64-5.92,1-8.88-.25.77-.49,1.54-.74,2.3-.39,1.15-1,2.53-1.59,4-1.31,3.06-3,6.65-4.39,10.34-2,5.09-3.39,10.22-2.71,14.18a8.3,8.3,0,0,0,.58,2.28,3,3,0,0,0,3.77,1.71l.27-.11,2-.88c.12,0,.19-.15.29-.2a2.85,2.85,0,0,0,.75-.51l0-.08a3.06,3.06,0,0,0,.56-.74c1.22-2.57,2.41-5.16,3.62-7.74q4.88-10.37,9.64-20.79,3-6.63,6-13.28a.52.52,0,0,1-.11-.6,69.75,69.75,0,0,1,3.25-6.38c.95-2.16,1.88-4.34,2.83-6.5,0,0-.05,0,0-.07A65.26,65.26,0,0,1,266,635.44q17.09-40,32.56-80.73c-1.35.79-2.69,1.59-4.06,2.36a.09.09,0,0,1-.11-.15c1.62-1.47,3.31-3,5-4.51q4.25-11.19,8.39-22.44c-.81.74-1.69,1.35-2.44,2.17a.71.71,0,0,1-1.09-.91,33.26,33.26,0,0,1,4.94-5.12q8.91-24.28,17.34-48.73c-.32-.11-.56-.47-.27-.79s.54-.51.8-.77q5.17-15,10.19-30.14c-.13.09-.27.16-.39.26-.49.38-1.19-.35-.74-.8s1.23-1.1,1.85-1.65q4.8-14.48,9.46-29c-1,1.16-2,2.33-3,3.49a.27.27,0,0,1-.42-.35c1.55-2.14,3-4.27,4.5-6.4q18.52-57.84,35.23-116a.2.2,0,0,1-.09-.33l.32-.43c.16-.54.31-1.08.47-1.61C400.88,235.9,417.68,177.52,421,118.15c.37-6.59.6-13.19.88-19.79-.47.11-1.08-.22-.92-.77.4-1.36.77-2.82,1.14-4.32.08-2,.19-4,.26-6a61.2,61.2,0,0,1,.94-27.18c.12-3.85.25-7.71.37-11.56.08-2.16.49-5.08.92-8.27a97,97,0,0,0,1.18-13.73c-.05-4.36-.76-8.25-2.92-10.62-1-1.1-2.77-1.82-4.1-.7-3.61,3.07-5.75,9.47-7.12,17a168.46,168.46,0,0,0-2,17.13C409,57.37,408.63,64.86,407.81,69.44Zm-4.64,127.12C368.45,353.7,315.36,513,248.7,660.69c4.86-17.66,8.83-35.69,11-42.35q24.48-75.36,48.21-151c34.63-110,74.38-222.06,95.19-335.56,4.29-23.36,8-46.89,12.1-70.28,1-5.71,1.88-11.43,2.8-17.14C416.1,96.17,414.41,145.72,403.17,196.56Z"/><path class="cls-1" d="M239.58,409.06c13.4,69.29,20,135.33,14.31,206a.66.66,0,0,0,.45.69.61.61,0,0,0,.91-.47c.16-1.17.26-2.39.42-3.57,9-66,6.32-139.67-14.27-203.05C241.07,407.62,239.38,408,239.58,409.06Z"/><path class="cls-1" d="M217.65,391.7a.76.76,0,0,0-1.51.15c2.25,46.28,14.71,91.61,22.11,137.23,8,49.13,2.44,96-2.9,144.64-.32,3-.64,5.9-1,8.88a.6.6,0,0,0,1.18.18q1.81-9.94,3.33-19.85c6.21-40.47,8.43-80.52,3.76-121.64C237,491.14,224.47,441.76,217.65,391.7Z"/><path class="cls-1" d="M275.13,389.64c13.61,45.67,9.86,90.91,7.64,137.66,0,.94-.1,1.88-.14,2.82,0,.61.89.78.95.15.27-2.67.53-5.31.79-8,3.61-36.61,6.26-72.44-.62-109-7.33-39-23.46-71.4-40.88-106.54,0,0,0,0,0-.07-.38-.78-1.78-.62-1.59.38.1.53.29,1.05.4,1.58C247.6,337,266.74,361.5,275.13,389.64Z"/><path class="cls-1" d="M271,265.68a1,1,0,0,0-1.81.67c12,35.1,26.76,68.1,34.4,104.68,7.44,35.7,3.64,69.81-4.4,104.32q-1.74,7.41-3.7,14.85c-.09.38.51.55.65.2a184.35,184.35,0,0,0,12.13-44C317.51,385.2,298.53,319.49,271,265.68Z"/><path class="cls-1" d="M286.76,235.71c-1.55-1-3.45,1.15-1.88,2.26,19.34,13.59,25.45,36.75,32.55,58,8.16,24.47,11.45,49.05,14.63,74.25.4,3.17.79,6.33,1.19,9.53,0,.29.53.33.55,0a128.1,128.1,0,0,0,.31-16.16c-.83-23.27-7.24-46.71-14-68.65C313.64,273.68,306.64,248.38,286.76,235.71Z"/><path class="cls-1" d="M354.74,296.19a.77.77,0,0,0,1-1c-.08-.39-.23-.76-.33-1.15-5.16-20.21-18.72-39.71-30.89-56.13-9.82-13.25-22.7-28.23-38.7-34.09-.82-.3-1.62-.7-2.47-1-1.46-.44-2,1.86-.74,2.49.79.4,1.54.85,2.32,1.27,34.76,18.56,52.79,55,69.41,89.09A.82.82,0,0,0,354.74,296.19Z"/><path class="cls-1" d="M298.34,186.23c-2.31-.18-2.91,3.4-.57,3.58,33.7,2.66,55.93,28.3,71.63,55.84.24.42.5.83.73,1.26.38.67,1.42.06,1.17-.63-.37-1-.8-2-1.21-3.06C358.37,213.8,330.57,188.71,298.34,186.23Z"/><path class="cls-1" d="M319,160c-.25-.08-.43.28-.18.38,25.54,9.46,52.17,24.21,59.8,51.62a57.74,57.74,0,0,1,1.3,5.8.28.28,0,0,0,.55,0,38.4,38.4,0,0,0-1-9.2C373.78,182.66,341.9,167.48,319,160Z"/><path class="cls-1" d="M319.05,151.06a.53.53,0,0,0,.12,1.05c26.21-.89,57.26,9.22,65.52,36.12a42.47,42.47,0,0,1,1.16,4.34.14.14,0,0,0,.27,0,31.23,31.23,0,0,0-.78-6.84C379.77,159.84,342.41,146.83,319.05,151.06Z"/><path class="cls-1" d="M351.72,115.65a.51.51,0,0,0-.3,1c10,4.81,17.94,9.75,25.06,18.52,6.83,8.4,10.11,18.24,14,28.06.36.88.68,1.75,1,2.63a.23.23,0,0,0,.44-.11,40.31,40.31,0,0,0-.68-6.05C387.84,140.26,371.15,118.23,351.72,115.65Z"/><path class="cls-1" d="M385.8,82.93a.48.48,0,0,0-.78.56c7.4,11.13,12.69,22.77,14,35.92.12,1.07.39,2.08.44,3.17a.42.42,0,0,0,.79.13c1.63-4.11,1.51-8.54.49-13C398.51,99.73,391.26,89.67,385.8,82.93Z"/><path class="cls-1" d="M403.65,93.39c.27,3.79.28,7.61.3,11.4,0,.58.92.58,1,0a62.84,62.84,0,0,0-.06-18.62,53.77,53.77,0,0,0-7-20c-.14-.23-.26-.49-.4-.72-.33-.51-1.3-.19-1.16.45s.3,1.07.44,1.61c1.39,5.29,3.79,10.33,5.26,15.62A50.74,50.74,0,0,1,403.65,93.39Z"/><path class="cls-1" d="M275.43,447.32c9,44.11-1.83,87.71-9,131.12q-1,5.74-1.82,11.48a.07.07,0,0,0,.14,0q1.79-8.76,3.58-17.43c9.45-46.07,17.69-90.35,8.09-137.74-7.05-34.82-18.21-85.34-43.31-112-.09-.1-.22-.07-.33-.14-1.08-.57-2.54.89-1.68,2l.25.36C255.88,356.78,267.54,408.66,275.43,447.32Z"/><path class="cls-1" d="M245.29,513.29a.48.48,0,0,0,1-.1c.12-22.06-8.61-43.4-9.6-65.74-1.11-24.86,1.78-49.72,2.33-74.56,0-.7-1.18-.73-1.23,0-2,22.1-3.32,44.29-3.26,66.48C234.57,465.3,242.45,488,245.29,513.29Z"/><path class="cls-1" d="M215,381c.08-.41-.54-.5-.62-.1-13.78,61.74,11.12,120.38,16.45,181.19a.23.23,0,0,0,.45-.05C227.27,500.34,204.86,444,215,381Z"/><path class="cls-1" d="M295.71,414.91c-5.1-41.19-17.55-80.83-29.84-120.33-.14-.47-.8-.2-.69.25,9.89,40.14,23.19,79.32,30.43,120.09A.05.05,0,0,0,295.71,414.91Z"/><path class="cls-1" d="M303.69,290.17a321.27,321.27,0,0,1,17.91,92.35c0,.11.18.09.19,0a230.75,230.75,0,0,0-17.36-92.6A.4.4,0,0,0,303.69,290.17Z"/><path class="cls-1" d="M344.49,315.49c-11-29.49-20.93-65.68-46.7-86.11a.58.58,0,0,0-.74.88c23.87,23.9,34.9,54.57,47.05,85.37A.21.21,0,0,0,344.49,315.49Z"/><path class="cls-1" d="M305.33,203.8c-.13,0-.19.17-.07.21,29.05,10.14,51.41,36.71,57,66.76.06.36.16.72.22,1.08.13.77,1.43.92,1.45,0a44.83,44.83,0,0,0-.24-6C360.71,237.44,331.83,209.61,305.33,203.8Z"/><path class="cls-1" d="M367.25,213.14c.46.63,1.33,0,1-.7-11.07-20.52-40.58-37.35-63.88-36.42-.38,0-.4.66,0,.68C327.45,177.63,353.79,194.79,367.25,213.14Z"/><path class="cls-1" d="M377.75,151.12a205.59,205.59,0,0,0-25.19-9.42c-4.86-1.44-14.7-5.57-19.46-1.91a.6.6,0,0,0,.4,1.08c15.34-1,29.35,7.85,43.88,11.51C378.12,152.57,378.43,151.42,377.75,151.12Z"/><path class="cls-1" d="M368.68,111.43c-.44-.11-.62.56-.22.73,10.86,4.79,19.81,9.12,27.84,18.12a.92.92,0,0,0,.73.3.81.81,0,0,0,.83-1.13c-.11-.3-.31-.55-.44-.84C392.62,117.94,379.14,113.94,368.68,111.43Z"/><path class="cls-1" d="M260,650.85c16.52-39.68,57.52-47.86,86.4-74.72,1-.93-.51-2.31-1.54-1.68-26.44,16.12-62.33,32.91-78.87,61a65.26,65.26,0,0,0-6.64,15.21s0,0,0,.07A.32.32,0,0,0,260,650.85Z"/><path class="cls-1" d="M389.23,522.14a.84.84,0,0,0,.48-1.58c-32.08-13.78-66.3,10.74-90.25,31.85-1.73,1.53-3.42,3-5,4.51a.09.09,0,0,0,.11.15c1.37-.77,2.71-1.57,4.06-2.36C328.47,537.11,351.41,515.37,389.23,522.14Z"/><path class="cls-1" d="M344.36,450.76c-.81.39-.62,1.83.39,1.64,14.63-2.7,28.78-7.36,43.52-9.78,16.52-2.72,32.36-1.43,48.64.35l.95.11c.47-1,.95-2.05,1.4-3.07-.29-.08-.56-.19-.86-.28C409.14,431.67,370.67,438.12,344.36,450.76Z"/><path class="cls-1" d="M409.39,287.24c13.46-15,29.48-24.83,46.22-35.48a1,1,0,0,0-1-1.81c-34,13.95-62.36,48.85-79,80.66-.26.5.52,1,.85.53C387.1,316.05,397.05,301,409.39,287.24Z"/><path class="cls-1" d="M401.72,232.41a.4.4,0,0,0,.72.33c18.45-32.56,28.66-69.45,56.05-96.32.87-.86,1.7-1.73,2.6-2.55,1.25-1.15-.28-3.34-1.54-2.19-.69.63-1.3,1.39-2,2C431.45,158.93,413.3,198.8,401.72,232.41Z"/><path class="cls-1" d="M418.39,152.28a.2.2,0,0,0,.38.12c4.88-10.91,6.12-22.62,7.65-34.38,1.79-13.65,6.39-25.4,12.07-37.57.53-1.14,1-2.25,1.56-3.41.22-.45-.47-.91-.77-.48-.51.71-.9,1.53-1.39,2.27C424.6,99.26,421.61,128.88,418.39,152.28Z"/><path class="cls-1" d="M423.45,87.65c.88-6.93.38-13.92,1.26-20.87a104.41,104.41,0,0,1,3.58-15.12c.63-2.23,1.24-4.46,1.74-6.71a.65.65,0,0,0-1.22-.37c-.56,1.21-1.06,2.46-1.57,3.71a86.38,86.38,0,0,0-3.91,11.84,61.2,61.2,0,0,0-.94,27.18c0,.1,0,.21.05.31C422.56,88.14,423.37,88.25,423.45,87.65Z"/><path class="cls-1" d="M424.46,170.92c5.56-15,12.19-27,25.39-36.79.1-.07,0-.22-.11-.15-21.28,14.88-30.37,41.24-40.17,64.34-.09.19.16.33.31.19C417.65,191.22,420.84,180.73,424.46,170.92Z"/><path class="cls-1" d="M447.92,108c-15.8,14.93-25.84,36.88-31.69,57.49-.15.55.78.83,1,.29,7-20.92,18.35-39.5,31.6-57.05h0a.53.53,0,0,0-.31-.86A.56.56,0,0,0,447.92,108Z"/><path class="cls-1" d="M422.34,98c2.62-7.18,5.8-14.39,8.08-21.66a.67.67,0,0,0-1.12-.71c-4.09,4.53-5.63,11.44-7.17,17.64-.37,1.5-.74,3-1.14,4.32-.16.55.45.88.92.77A.58.58,0,0,0,422.34,98Z"/><path class="cls-1" d="M421.2,250.66c14.66-15,33.63-21.19,52.15-29.7a1,1,0,0,0-.72-1.94C429.81,229.72,408.9,261,384,294.44l-.32.43a.2.2,0,0,0,.09.33c.1.05.2.08.29,0C398,281.74,407.62,264.55,421.2,250.66Z"/><path class="cls-1" d="M406.18,247a.53.53,0,0,0,1,.44c14.28-26.26,39.56-45,66.51-56.57.14,0,.28-.13.42-.18.76-.32.54-1.66-.35-1.47l-.38.1C446.29,195.34,417.16,222.13,406.18,247Z"/><path class="cls-1" d="M429,206.12c4.46-13.36,17.23-21.78,28.05-29.8.49-.37.06-1.27-.5-1-12.25,6.43-24.93,16.29-29.14,30.05C427.08,206.46,428.63,207.2,429,206.12Z"/><path class="cls-1" d="M477.94,285.4l.49-.45c.1-1.3.15-2.62.24-3.92a1.31,1.31,0,0,0-.47.12c-.08,0-.16,0-.24.05-26.26,19.8-52.32,40.37-77,62.15-22.75,20.11-35.7,43.86-52.45,67.9-1.48,2.13-3,4.26-4.5,6.4a.27.27,0,0,0,.42.35c1.05-1.16,2-2.33,3-3.49C370,389,386.16,361.64,412.69,338.63,433.94,320.21,457.61,304.86,477.94,285.4Z"/><path class="cls-1" d="M393.4,335c-.46.59.41,1.32.88.74,20.73-25.33,44.08-41.45,74.32-53.45.94-.37.63-2-.42-1.77C437.13,286.66,412.16,310.88,393.4,335Z"/><path class="cls-1" d="M458.45,387.06c-21-2.57-42.35,3.24-61.93,10.51-16.63,6.17-42.76,17-49.64,34.47-.38.95.94,1.9,1.58,1,22.37-32.17,73.32-40.09,109.23-43.68l.82-.08c.2-.64.38-1.28.57-1.91a.87.87,0,0,0-.5-.29Z"/><path class="cls-1" d="M440.42,373a1,1,0,0,0-.19-1.93c-21.31.68-42.81,7.71-61,18.7-.55.34-.05,1.3.53,1C399.21,381.18,419.35,377.09,440.42,373Z"/><path class="cls-1" d="M450.44,348.2A.65.65,0,0,0,450,347c-15,3.86-29.82,10.29-43.52,17.48-.46.24-.21,1,.29.77C421,358.78,436.36,354.94,450.44,348.2Z"/><path class="cls-1" d="M421.53,426.75a.71.71,0,0,0-.32-1.37C395.42,430,359,424.55,338,443.49c-.62.55-1.26,1.05-1.85,1.65s.25,1.18.74.8c.12-.1.26-.17.39-.26C361.54,427.66,394,434.92,421.53,426.75Z"/><path class="cls-1" d="M375.84,471.5c16.05-3.27,32.56-3.37,48.41-7.64,1.28-.36.63-2.08-.49-2.1-37.15-.43-75.14,7.88-102,34.75-.06.06,0,.16.09.11C337.87,483.45,355.59,475.63,375.84,471.5Z"/><path class="cls-1" d="M366,509.47a1.11,1.11,0,0,0-.5-2.14c-11.15,1.17-22.27,4.14-33,7.38-8.12,2.45-16.7,5.81-23.28,11.4a33.26,33.26,0,0,0-4.94,5.12.71.71,0,0,0,1.09.91c.75-.82,1.63-1.43,2.44-2.17C323,516,347.48,515.94,366,509.47Z"/><path class="cls-1" d="M377.15,500.4c-19.5-3.64-44.08-1.67-61,9.43a1,1,0,0,0,1,1.81c10.27-3.71,20.19-6.8,31.11-8.06,9.58-1.1,19.24-.53,28.85-.91C378.42,502.62,378.39,500.63,377.15,500.4Z"/><path class="cls-1" d="M327.15,477.26c6.51-6.95,18.34-10,27.06-13,7.89-2.7,16.37-6,24.66-7.25a.57.57,0,0,0-.12-1.14c-9.13.69-18.36,4.38-26.87,7.48-8,2.92-18.47,6.17-24.75,12.46-.26.26-.55.49-.8.77s-.05.68.27.79A.49.49,0,0,0,327.15,477.26Z"/><path class="cls-1" d="M356,489.79c-1.08-.07-1.37,1.5-.27,1.67,8,1.27,16.09,2,24.21,2.59,9.32.68,17.29,3.44,25.91,6.2l.79.25c.58-.9,1.15-1.81,1.72-2.71-.18-.19-.34-.4-.53-.58C395.77,485.67,370.78,490.7,356,489.79Z"/><path class="cls-1" d="M360.3,561.79c1.12-.27.56-1.83-.43-1.83-29.54.06-54,22.69-76.81,38.65a.44.44,0,0,0,.51.71C308.49,583.64,331.29,568.67,360.3,561.79Z"/><path class="cls-1" d="M292.45,579.74c21.15-20.85,49.9-23.25,76.72-31.73,1.17-.36.63-2-.46-2-26.65.39-59.7,12.51-77.81,32.38C290,579.43,291.54,580.64,292.45,579.74Z"/><path class="cls-1" d="M361.88,536.16c.72-.12.85-1.34,0-1.37-15.66-.54-30.82,7.6-43.47,16.07-.47.32,0,1,.51.72A117.75,117.75,0,0,1,361.88,536.16Z"/><path class="cls-1" d="M254.48,664.11c8.86-17,23.75-26.92,38.83-37.72a.88.88,0,0,0-.82-1.53c-14.72,5.24-28,18.42-35.89,32.36a69.75,69.75,0,0,0-3.25,6.38.52.52,0,0,0,.11.6A.6.6,0,0,0,254.48,664.11Z"/><path class="cls-1" d="M201,445.75c-.21-2.09-.46-4.19-.65-6.29.39,5.31.75,10.62,1.38,15.91a2.22,2.22,0,0,1-.63,2.41h0a2.76,2.76,0,0,1-.57.49c-1.06.57-2.15,1.12-3.22,1.67.51,4.9.73,10.4,1.51,15.29,2.79,17.39,7,34.59,10.9,51.77.42,1.82.7,3.66,1.09,5.49l1.7-1.19a2.68,2.68,0,0,1,2-.43c-5.14-27-10.13-53.91-13.12-81.15C201.26,448.4,201.13,447.07,201,445.75Z"/><path class="cls-1" d="M64.19,637.61c2.61-3.85,5.18-7.74,7.74-11.61C83.2,609,93.76,591.5,104,573.88a477.83,477.83,0,0,0,25.37-49.11c2.9-6.65,4.75-13.58,6.75-20.54,5-17.46,12.93-29.36,24.06-39.58l-3.37-.85a3,3,0,0,1-2.47-2.6c-.46-3.66,6.48-7.3,8.76-8.95,1.82-1.32,3.69-2.57,5.53-3.87-11.38,7-22.06,15.11-27.31,25.79C130.65,496,125.88,519.75,115,541.61,98,575.77,77.62,617.75,51,647c1.25-.74,2.61-1.57,4.2-2.72C58.22,642.05,61.19,639.81,64.19,637.61Z"/><path class="cls-1" d="M212.47,539.56a1,1,0,0,1-.16.64c.05.33.12.65.19,1A9.7,9.7,0,0,0,212.47,539.56Z"/><path class="cls-1" d="M165.49,460.09a165.72,165.72,0,0,1,13.74-9.89c8.32-5.41,12.66-4.88,15.09-1.34a10.88,10.88,0,0,1,1.13,2.15q-.69-6.47-1.13-12.95c-8,5.24-15.93,10.52-23.69,16.05-2.48,1.76-4.95,3.54-7.36,5.39C164,459.71,164.75,459.89,165.49,460.09Z"/><path class="cls-1" d="M226.27,624.75a3.82,3.82,0,0,0,2.62-3.22c-2.16-22.92-5.95-45.56-10.13-68.13-1.2.84-2.43,1.64-3.63,2.47.81,5,1.57,10.06,2.25,15.1a18.86,18.86,0,0,1,3.71,1.19.84.84,0,0,1-.26,1.58c-1,.19-2,.24-3,.34,2,15.07,3.5,30.21,4.93,45.37-48.57,9.87-98.7,13.78-147,25.12-6.85,4-13.68,8-20.6,11.83C110,639,169.67,636.48,225.8,624.84Z"/><path class="cls-1" d="M476.3,346.82q1.14-5.88,2.12-11.79C473.86,340.05,473.13,344,476.3,346.82Z"/><path class="cls-1" d="M535.63,244.21c5.93-2.77,11.88-5.49,17.82-8.22-.27-.89-.55-1.78-.92-2.71-.28-.7.69-1.14,1.13-.59a20.43,20.43,0,0,1,1.64,2.44c5.1-2.34,10.19-4.75,15.31-7.06,3.58-1.61,8-5,11.92-7.69,3.29-3.72,6.52-7.49,9.75-11.27-17.35,11.79-36.89,21.33-56.81,30.21C537,240.44,537.57,243.05,535.63,244.21Z"/><path class="cls-1" d="M479.61,266c-.2,5.07-.59,10-.94,15-.09,1.3-.14,2.62-.24,3.92a471.63,471.63,0,0,1-19.35,102.41c-.19.63-.37,1.27-.57,1.91A456,456,0,0,1,439.26,440c-.45,1-.93,2.05-1.4,3.07a478.35,478.35,0,0,1-29.48,54.71c-.57.9-1.14,1.81-1.72,2.71a545.28,545.28,0,0,1-59,76.75c-1.46,1.6-.3,4.27,1.51,4.8a2.27,2.27,0,0,0,1.77-.16c65.73-34.09,119.18-82.18,163.31-141.41,46.59-62.53,59.91-139.31,82-212.41-1.26,2.08-2.6,4.17-4.07,6.3a.62.62,0,0,1,0,.95c-.5.46-1.06.88-1.58,1.32-1.56,2.17-3.18,4.33-4.86,6.5q-3.36,11.93-6.59,23.88a20.27,20.27,0,0,1,2.39-.68.46.46,0,0,1,.3.84,31.12,31.12,0,0,1-3.28,2c-2.56,9.34-5.12,18.69-7.76,28a.54.54,0,0,1-.2.89l-.06,0c-4.06,14.33-8.33,28.59-13,42.7,1.06,0,2.12,0,3.17,0,.62.05.6,1.09,0,1.09-1.18,0-2.38.12-3.58.2-5.33,15.91-11.22,31.63-18.1,47-.63,1.42-1.41,2.79-2.08,4.2,1-.11,2-.28,3.07-.36.82-.06,1.21,1.26.34,1.47-1.51.35-3,.77-4.52,1.14-15.23,31.23-38.08,59.81-62.19,85.55a1.05,1.05,0,0,1-.41,1.48,13.79,13.79,0,0,1-1.63.7c-5.41,5.73-10.85,11.37-16.28,16.82C428.54,526.85,397.63,549,365,567.79q-12.81,12.88.05-1c6.58-7.38,12.83-15,19.07-22.71,1.65-2,3.21-4.12,4.82-6.19l1.73-2.22c2.32-3,4.59-6.08,6.83-9.15q10.15-14,19.42-28.62c1-1.61,2.09-3.21,3.11-4.83,1.44-2.3,2.8-4.65,4.2-7l-.19,0c-1.08.19-1.48-1.28-.71-1.87a20.22,20.22,0,0,1,3-1.71q9.4-16.08,17.16-32.84c-.47.08-.94.2-1.42.27a1.06,1.06,0,0,1-.47-2c1.08-.44,2.19-.85,3.28-1.28a435.58,435.58,0,0,0,28.3-85l-.23.2c-1.93,1.68-5.09-.49-4.6-2.85,3.68-17.74,4.87-23.55,11.26-31.35,1.75-11.47,3.09-23,4.09-34.64a2.43,2.43,0,0,1-2.09,1.05,2.67,2.67,0,0,1-.49,0l-.18,0c-1.68-.27-3.13-1.92-2.58-3.62q.78-11.18,1.19-22.35a2.93,2.93,0,0,1,1.87-2.29c11.21-5.9,22.47-11.7,33.73-17.52-10.24,4.48-20.33,9-30.08,13.71-1.15.56-2.34,1.09-3.47,1.66A2.28,2.28,0,0,0,479.61,266Z"/><path class="cls-1" d="M42.25,656.4a3,3,0,0,0,2.25,3.28l.2.08,2.46.52a2.5,2.5,0,0,0,2.36-.61c1.9-1.07,3.77-2.2,5.67-3.27,6.92-3.86,13.75-7.86,20.6-11.83,4.4-2.54,8.84-5,13.21-7.58a.49.49,0,0,1,.23-.47q2.73-1.62,5.75-3c7.3-4.35,14.5-8.86,21.73-13.31a66.69,66.69,0,0,0-14.83,7,.34.34,0,0,1-.4-.56A60.85,60.85,0,0,1,126,614.5q31.52-19.62,62.32-40.36a31.62,31.62,0,0,1-3.71-.74.1.1,0,0,1,0-.19,55.26,55.26,0,0,1,7.2-1.44c7.81-5.27,15.62-10.53,23.38-15.9,1.2-.83,2.43-1.63,3.63-2.47l.49-.33a3,3,0,0,0,.57-.69,2.6,2.6,0,0,0,.65-2q-1.44-8.54-3.34-17a3.43,3.43,0,0,0-1.42-2,2.59,2.59,0,0,0-1.19-.48,2.68,2.68,0,0,0-2,.43l-1.7,1.19-.07,0c-16,11.2-32,22.28-48,33.42-.54.82-1,1.68-1.59,2.49-.41.6-1.26.14-1.29-.47-16.39,11.45-32.73,23-48.8,34.87q-10.42,7.71-20.77,15.49c-1.3,1.7-2.62,3.35-3.89,5.08-.7,1-2-.2-1.37-1.14l0,0Q74.66,630,64.19,637.61c-3,2.2-6,4.44-9,6.62-1.59,1.15-3,2-4.2,2.72-4.28,2.51-6.71,3.34-8,6.79A15,15,0,0,0,42.25,656.4Zm83.37-57c8-5.92,82.67-51.74,86.69-59.19a1,1,0,0,0,.16-.64,9.7,9.7,0,0,1,0,1.62c1,20.6-60.67,50.28-74.4,59.1-21.71,13.93-43.82,27.19-66.18,40,4-3.34,7.33-6.31,9.11-7.62C96,621.67,110.7,610.41,125.62,599.39Z"/><path class="cls-1" d="M556.73,248.5c-3,10.21-13.87,19.84-20.46,26.56a.5.5,0,0,1-.78-.64c5.22-6.91,11.71-13,15.6-19.91q-6.95,7.33-13.9,14.64c-3.6,3.78-7.29,7.48-10.93,11.22-4.07,9-10.18,17.38-17.15,22.23a.42.42,0,0,1-.56-.6c3-4.17,6.28-8.53,9.37-13.06q-12.5,12.65-25.17,25.09l-.2.2a114,114,0,0,1-8.78,13.65c-.8,1.05-2.29-.24-1.55-1.29,1.26-1.82,2.42-3.7,3.53-5.6-2.46,2.5-4.47,4.67-6.11,6.67-6.39,7.8-7.58,13.61-11.26,31.35-.49,2.36,2.67,4.53,4.6,2.85l.23-.2c4.06-3.52,8-7.06,11.91-10.59a22,22,0,0,1-4.72.69.18.18,0,0,1-.13-.33,69.74,69.74,0,0,1,11.84-6.58c10.14-9.21,19.9-18.66,29.38-28.37-2.59,1.51-5.15,3.1-7.64,4.9-.54.38-1.09-.43-.59-.83a106,106,0,0,1,12.57-8.6c8.13-8.51,16-17.33,23.68-26.58-.29.1-.55.25-.85.34a.21.21,0,0,1-.22-.33,21.4,21.4,0,0,1,5.37-5.05c.15-.19.3-.35.45-.54,2.23-2.8,5.77-6.76,9.91-11.38l-.2.15c-3.15,2.5-6.25,5.07-9.55,7.38a.72.72,0,0,1-.83-1.17c5.29-4.16,10.86-11.4,17.48-14.11,4.79-5.46,9.89-11.45,14.61-17.52,1.68-2.17,3.3-4.33,4.86-6.5-4.8,4-10.23,7.41-14.56,11.94s-7.46,10-11.79,14.45a.51.51,0,0,1-.85-.54c5.13-12.81,16.34-21.7,28-28.22a.63.63,0,0,1,.79.1c1.47-2.13,2.81-4.22,4.07-6.3,5.08-8.36,8.17-16.13,7.15-22a3,3,0,0,0-3.22-2.61l-2.22.29a2,2,0,0,0-.26.08,2.63,2.63,0,0,0-.87.29,3.61,3.61,0,0,0-.3.25,2.84,2.84,0,0,0-.52.41c-1.22,1.45-2.49,2.85-3.72,4.29-3.23,3.78-6.46,7.55-9.75,11.27C574.1,229.89,565.45,239.23,556.73,248.5Zm-7,27.52c-21.2,27.08-44.67,49.86-70.5,72.67a11.72,11.72,0,0,1-2.94-1.87c-3.17-2.84-2.44-6.77,2.12-11.79a63.06,63.06,0,0,1,9.47-8.19q9.41-9,18.65-18.15c14.71-14.44,29-29.31,43.21-44.24,12.09-12.69,24.12-25.51,35.78-38.63-2.95,5.09-5.57,10-7.11,12.15C569.28,251,559.53,263.53,549.74,276Z"/><path class="cls-1" d="M481.45,265.78a2.93,2.93,0,0,0-1.87,2.29q-.4,11.19-1.19,22.35c-.55,1.7.9,3.35,2.58,3.62l.18,0a2.67,2.67,0,0,0,.49,0,2.43,2.43,0,0,0,2.09-1.05,1.54,1.54,0,0,0,.17-.31c7.27-8.08,14.19-16.22,20.91-24.79,8.29-10.58,19.46-17,30.82-23.71h0c1.94-1.16,1.34-3.77-.16-4.89a2.33,2.33,0,0,0-2.57-.27c-5.91,3-11.81,6.15-17.72,9.21C503.92,254.08,492.66,259.88,481.45,265.78Zm3.25,17c.17-3.06.39-6.11.52-9.17.26-5.89,10.84-8.9,15-11.09l2.42-1.25C496.4,268.15,490.68,275.58,484.7,282.77Z"/><path class="cls-1" d="M154.38,461.2a3,3,0,0,0,2.47,2.6l3.37.85c6.28,1.58,11.81,2.77,18.81,1.79a55.34,55.34,0,0,0,16.81-5.74c.49-.24,1-.5,1.46-.76,1.07-.55,2.16-1.1,3.22-1.67a2.76,2.76,0,0,0,.57-.49h0a2.22,2.22,0,0,0,.63-2.41c-.63-5.29-1-10.6-1.38-15.91-.16-2.29-.48-4.57-.59-6.87s-2.88-3.25-4.63-2.11l-2,1.34q-12.33,8.08-24.42,16.56c-1.84,1.3-3.71,2.55-5.53,3.87C160.86,453.9,153.92,457.54,154.38,461.2Zm39.94-23.14q.44,6.49,1.13,12.95c.11,1.06.15,2.11.28,3.17l-.75.37a59.44,59.44,0,0,1-18.88,6.37,26.82,26.82,0,0,1-10.61-.83c-.74-.2-1.47-.38-2.22-.59,2.41-1.85,4.88-3.63,7.36-5.39C178.39,448.58,186.35,443.3,194.32,438.06Z"/><path class="cls-1" d="M530.35,259.2c-.74,10.79-6.2,20.63-12.43,29.74-3.09,4.53-6.37,8.89-9.37,13.06a.42.42,0,0,0,.56.6c7-4.85,13.08-13.2,17.15-22.23,3.17-7.06,5.13-14.53,5-21.13A.48.48,0,0,0,530.35,259.2Z"/><path class="cls-1" d="M551.09,254.51c-3.89,6.88-10.38,13-15.6,19.91a.5.5,0,0,0,.78.64c6.59-6.72,17.42-16.35,20.46-26.56a16.27,16.27,0,0,0-1.43-13.37,20.43,20.43,0,0,0-1.64-2.44c-.44-.55-1.41-.11-1.13.59.37.93.65,1.82.92,2.71C555.57,243.17,554.15,249.09,551.09,254.51Z"/><path class="cls-1" d="M203.5,616.42c-24.26-2.13-53-8.09-77.55-1.92a60.85,60.85,0,0,0-24.47,12.07.34.34,0,0,0,.4.56,66.69,66.69,0,0,1,14.83-7c28.46-9.41,56.3,3.05,86.74-1.46C204.68,618.51,204.86,616.54,203.5,616.42Z"/><path class="cls-1" d="M217.84,574.08c1-.1,2-.15,3-.34a.84.84,0,0,0,.26-1.58,18.86,18.86,0,0,0-3.71-1.19c-4.39-1-9.12-.66-13.58-.44a115.26,115.26,0,0,0-12.05,1.24,55.26,55.26,0,0,0-7.2,1.44.1.1,0,0,0,0,.19,31.62,31.62,0,0,0,3.71.74,64.23,64.23,0,0,0,12.17.1C206.15,573.91,212.13,574.64,217.84,574.08Z"/><path class="cls-1" d="M566.35,273.45c-3.94,2.16-8.62,4.16-12.54,6.88a21.4,21.4,0,0,0-5.37,5.05.21.21,0,0,0,.22.33c.3-.09.56-.24.85-.34,5.14-1.67,9.63-5.6,14-8.6,4.64-3.14,10.11-4.92,15-7.6a31.12,31.12,0,0,0,3.28-2,.46.46,0,0,0-.3-.84,20.27,20.27,0,0,0-2.39.68C574.62,268.41,570.33,271.27,566.35,273.45Z"/><path class="cls-1" d="M591.38,234.27c-11.7,6.52-22.91,15.41-28,28.22a.51.51,0,0,0,.85.54c4.33-4.49,7.48-9.93,11.79-14.45s9.76-7.9,14.56-11.94c.52-.44,1.08-.86,1.58-1.32a.64.64,0,0,0-.74-1Z"/><path class="cls-1" d="M510.39,336.75c14.48-9.54,28.43-17.27,46.22-17.38.12,0,.1-.18,0-.18a71.25,71.25,0,0,0-36.87,9.65c-6.2,3.51-12.16,7.41-18.22,11.15a93.68,93.68,0,0,1-9.4,4.86,69.74,69.74,0,0,0-11.84,6.58.18.18,0,0,0,.13.33,22,22,0,0,0,4.72-.69C494.18,348.85,503.16,341.51,510.39,336.75Z"/><path class="cls-1" d="M570.27,297a116.24,116.24,0,0,0-44.44,15,106,106,0,0,0-12.57,8.6c-.5.4,0,1.21.59.83,2.49-1.8,5-3.39,7.64-4.9,15.24-8.84,32-13.25,49-18.4l.06,0a.54.54,0,0,0,.2-.89A.51.51,0,0,0,570.27,297Z"/><path class="cls-1" d="M573.9,259.8a14.2,14.2,0,0,0-2.83.86c-6.62,2.71-12.19,9.95-17.48,14.11a.72.72,0,0,0,.83,1.17c3.3-2.31,6.4-4.88,9.55-7.38l.2-.15c3.31-2.59,7-4.75,10.19-7.4C574.83,260.62,574.61,259.67,573.9,259.8Z"/><path class="cls-1" d="M475.84,365.07c-.9.68.1,2.09,1,1.42,10.89-8,26.8-11.16,39.55-14.78s27.07-8.68,40.61-9.6c1.2-.08,2.4-.18,3.58-.2.63,0,.65-1,0-1.09-1-.06-2.11,0-3.17,0-13,0-26.67,4.49-38.9,7.93C504.79,352.57,487.49,356.29,475.84,365.07Z"/><path class="cls-1" d="M218,606.19c-20.78-8.53-45-5.34-66.88-5.37a.43.43,0,0,0,0,.86c22.35,1.44,44.19,3.23,66.38,6.3A1,1,0,0,0,218,606.19Z"/><path class="cls-1" d="M217.47,595.86a1,1,0,0,0,.58-1.92c-14.08-7.55-33.54-8.67-48.87-5-1.12.26-.66,2.11.46,1.95C186.53,588.48,201.07,594.14,217.47,595.86Z"/><path class="cls-1" d="M89.81,637.61c17.22-8.84,35-8.05,53.69-8.23,1.08,0,.91-1.48.05-1.72-15.07-4.49-34-1.13-48.57,5.81q-3,1.42-5.75,3A.49.49,0,0,0,89,637C89,637.39,89.38,637.84,89.81,637.61Z"/><path class="cls-1" d="M162.89,498.05c.52-1-1-1.88-1.63-1-13,17.2-21.87,36.87-31.38,56.18-12.39,25.13-29.53,45.89-44.84,69l0,0c-.63.94.67,2.09,1.37,1.14,1.27-1.73,2.59-3.38,3.89-5.08,11.29-14.77,23.24-28.74,32.87-44.81C137.68,549.26,149.44,523,162.89,498.05Z"/><path class="cls-1" d="M183.13,480.16c-6.15,13.8-11,28-18.59,41.12-.56,1,1.09,2,1.7,1.07a153,153,0,0,0,18.29-41.78C184.76,479.76,183.46,479.41,183.13,480.16Z"/><path class="cls-1" d="M506.59,285c.3-.66-.66-1.31-1.11-.69-8.25,11.27-12.72,24.68-19.73,36.7-1.11,1.9-2.27,3.78-3.53,5.6-.74,1.05.75,2.34,1.55,1.29a114,114,0,0,0,8.78-13.65C497.84,304.8,502.22,294.79,506.59,285Z"/><path class="cls-1" d="M467.51,388.89a.85.85,0,0,0,1.14,1.24c16.92-11,41.09-17.37,60.91-11.19,1.28.4,2.18-1.48.88-1.92C511.91,370.7,480.65,372,467.51,388.89Z"/><path class="cls-1" d="M458.58,419.92c-1.07.95.2,2.79,1.31,1.84,10.43-8.82,26-12.43,38.87-16.22q18.36-5.43,37-10c1.51-.37,3-.79,4.52-1.14.87-.21.48-1.53-.34-1.47-1,.08-2,.25-3.07.36-13.36,1.33-26.61,4.87-39.43,8.6C484.32,405.74,469,410.72,458.58,419.92Z"/><path class="cls-1" d="M503.53,439.63a1.15,1.15,0,0,0,.36-2.18c-8.59-4.23-19.21-2-28.19-.27a181.38,181.38,0,0,0-30.79,9.47c-1.09.43-2.2.84-3.28,1.28a1.06,1.06,0,0,0,.47,2c.48-.07.95-.19,1.42-.27,10-1.63,19.59-4.7,29.43-7C483.25,440.26,493.12,440.43,503.53,439.63Z"/><path class="cls-1" d="M446.27,479.15c-6.89-.08-13.87.18-19.91,3.39a20.22,20.22,0,0,0-3,1.71c-.77.59-.37,2.06.71,1.87l.19,0a118.37,118.37,0,0,1,26.72-2c6.33.29,14.43,1.66,20.54-.76a13.79,13.79,0,0,0,1.63-.7,1.05,1.05,0,0,0,.41-1.48,1.57,1.57,0,0,0-1-.88C464.73,478.16,454.47,479.25,446.27,479.15Z"/><path class="cls-1" d="M434.18,472.36c-1,.59-.09,1.92.88,1.65,13.15-3.58,25.53-9.57,38.8-13,.83-.22.49-1.62-.35-1.46C460.09,462,446,465.31,434.18,472.36Z"/><path class="cls-1" d="M412.13,512.46c-.77,1,.21,2.89,1.59,2.24,5.94-2.79,11.24-6.75,17.21-9.54,6.52-3,13.46-5.24,20.17-7.8,1-.4.7-2.15-.46-2C437.83,497.55,420.28,501.25,412.13,512.46Z"/><path class="cls-1" d="M403.47,529a1.09,1.09,0,0,0,1.21,1.71c4.44-1.21,8.26-3.91,12.23-6.18,4.28-2.46,8.44-5.16,12.71-7.63,1-.58.09-2.32-1-1.81C420.46,519.09,409.59,521.84,403.47,529Z"/><path class="cls-1" d="M197.29,480.61c.19-.76-1-.91-1.18-.19-8.88,30.71-21.65,58.88-36.24,87.22a.63.63,0,0,0,0,.33c0,.61.88,1.07,1.29.47.56-.81,1.05-1.67,1.59-2.49C179.91,540,189.56,510.59,197.29,480.61Z"/><path class="cls-1" d="M149.44,529.7c-10.65,23.68-18.52,45.37-35.2,65.85-.64.8.41,2,1.24,1.35,19.9-16,28.9-42.91,35.88-66.62C151.69,529.16,149.9,528.69,149.44,529.7Z"/><path class="cls-1" d="M200,508.93c-5.4,13.5-13.06,25.65-19.06,38.79a.87.87,0,0,0,1.46.92c9.29-10.86,14.86-25.53,19.27-38.95C202.06,508.59,200.47,507.8,200,508.93Z"/><path class="cls-1" d="M118.69,798.07c.23-.05.45-.13.68-.18a736,736,0,0,1-105,1.13v5.85a740.71,740.71,0,0,0,103.53-1C115.53,803.08,115.56,798.73,118.69,798.07Z"/><path class="cls-1" d="M44.5,659.68a3,3,0,0,1-2.25-3.28,15,15,0,0,1,.73-2.66c-9.45,5.54-19,10.53-28.61,15.12v6.54C24.5,670.66,34.55,665.45,44.5,659.68Z"/></svg>