<?xml version="1.0" encoding="UTF-8" standalone="no"?>
<!DOCTYPE svg PUBLIC "-//W3C//DTD SVG 1.1//EN" "http://www.w3.org/Graphics/SVG/1.1/DTD/svg11.dtd">
<svg width="100%" height="100%" viewBox="0 0 1444 574" version="1.1" xmlns="http://www.w3.org/2000/svg"
    xmlns:xlink="http://www.w3.org/1999/xlink" xml:space="preserve" xmlns:serif="http://www.serif.com/"
    style="fill-rule:evenodd;clip-rule:evenodd;stroke-linejoin:round;stroke-miterlimit:2;">


    <style>
        path {
            fill: rgb(61, 137, 91);
            fill-rule: nonzero;
        }

        @media (prefers-color-scheme: dark) {
            path {
                fill: #fff;
            }
        }
    </style>
    <g transform="matrix(1,0,0,1,-4558,-253)">
        <g transform="matrix(1,0,0,1,4320,0)">
            <g transform="matrix(1,0,0,1,409.752,340.356)">
                <path
                    d="M0,177.379L-45.156,177.379L-45.156,126.638L0,126.638C9.31,126.638 16.293,129.125 20.948,134.086C25.603,139.054 27.931,144.953 27.931,151.775C27.777,167.484 16.886,177.794 0,177.379M-45.156,4.642L-7.135,4.642C0.999,4.642 6.786,6.989 10.233,11.683C13.672,16.378 15.396,21.233 15.396,26.233C15.303,39.022 6.737,48.203 -7.135,47.826L-45.156,47.826L-45.156,4.642ZM132.592,126.004C126.587,103.28 111.455,88.299 92.033,77.102C111.506,62.187 120.396,39.595 120.309,14.061C120.279,-24.967 94.894,-56.058 57.269,-68.68C43.051,-73.779 26.516,-76.329 7.67,-76.329L-170.042,-76.329C-170.695,-68.957 -171.163,-61.615 -171.47,-54.286L-171.47,-15.232C-171.163,-7.905 -170.695,-0.566 -170.042,6.801L-148.798,6.801L-148.798,178.459L-170.042,178.459C-170.706,185.951 -171.166,193.412 -171.47,200.861L-171.47,238.822C-171.269,243.778 -171.012,248.737 -170.654,253.708C-75.089,239.07 20.824,227.334 116.948,218.51C135.683,192.6 140.26,156.13 132.592,126.004" />
            </g>
            <g transform="matrix(1,0,0,1,727.357,286.212)">
                <path
                    d="M0,234.233C-46.018,233.116 -57.622,192.738 -58.011,146.52C-57.696,100.563 -45.891,59.324 0,58.344C44.49,59.587 56.928,101.296 57.083,146.521C56.924,191.864 44.49,232.99 0,234.233M165.911,82.013C145.516,7.734 78.951,-33.01 0,-31.224C-79.708,-33.055 -146.174,7.235 -166.839,82.012C-178.874,124.498 -178.937,168.4 -166.838,210.796C-160.756,232.632 -150.748,251.526 -137.643,267.288C-42.927,259.85 51.964,255.227 146.897,253.424C155.093,240.778 161.543,226.544 165.911,210.796C178.008,168.4 177.947,124.497 165.911,82.013" />
            </g>
            <g transform="matrix(1,0,0,1,1027.48,464.577)">
                <path
                    d="M0,-119.578L43.743,-119.578C51.188,-119.578 57.311,-117.092 62.124,-112.132C66.93,-107.167 69.337,-100.652 69.337,-92.587C69.537,-76.243 59.024,-65.465 42.812,-65.598L0,-65.598L0,-119.578ZM-104.722,-117.419L-104.722,54.238L-126.132,54.238C-126.74,61.061 -127.195,67.859 -127.506,74.644C-77.562,73.964 -27.609,74.067 22.332,74.945C22.022,68.06 21.561,61.162 20.944,54.238L0,54.238L0,15.373L22.815,15.373L50.825,75.525C98.214,76.64 145.59,78.453 192.937,80.971C192.653,72.084 192.146,63.183 191.355,54.238L161.649,54.238L131.02,-2.38C154.016,-18.254 167.95,-44.547 173.252,-70.834C184.014,-121.38 156.647,-173.704 108.047,-191.963C93.661,-197.684 77.489,-200.549 59.549,-200.549L-125.967,-200.549C-128.432,-172.702 -128.432,-145.258 -125.967,-117.419L-104.722,-117.419Z" />
            </g>
            <g transform="matrix(1,0,0,1,1258.51,474.815)">
                <path
                    d="M0,-127.657L0,44L-21.256,44C-22.072,53.229 -22.593,62.411 -22.868,71.579C29.919,74.556 82.666,78.407 135.353,83.13C135.284,70.121 134.692,57.106 133.534,44L112.278,44L112.278,-127.657L133.534,-127.657C135.995,-155.497 135.995,-182.94 133.534,-210.787L-21.256,-210.787C-23.721,-182.94 -23.722,-155.496 -21.256,-127.657L0,-127.657Z" />
            </g>
            <g transform="matrix(1,0,0,1,1625.42,335.281)">
                <path
                    d="M0,170.94C-30.03,178.298 -75.612,176.769 -96.18,156.162C-109.947,143.656 -116.823,121.913 -116.823,90.947C-116.823,35.9 -100.248,8.374 -67.091,8.373C-42.523,8.444 -33.392,25.242 -33.312,49.19L-33.312,86.77C-3.499,88.989 26.364,89.209 56.296,87.586L56.296,-72.872C32.182,-74.335 8.067,-74.052 -16.037,-71.935L-16.037,-63.201C-21.955,-66.937 -30.049,-70.907 -40.322,-75.11C-67.705,-85.763 -117.333,-82.655 -145.168,-68.806C-208.354,-40.074 -235.021,29.527 -234.603,97.921C-234.603,152.622 -220.375,195.442 -191.919,226.376C-110.237,234.381 -28.72,244.495 52.552,256.703C52.728,256.626 52.906,256.552 53.081,256.473C54.21,255.937 55.27,255.433 56.296,254.943L56.296,146.415C39.946,157.594 20.479,166.478 0,170.94" />
            </g>
            <g transform="matrix(0,1,1,0,978.543,-90.0417)">
                <path
                    d="M703.174,-740.261L813.484,-740.261C738.888,-262.158 738.559,224.991 812.484,703.174L702.173,703.174C629.951,224.865 630.295,-262.03 703.174,-740.261" />
            </g>
            <g transform="matrix(1,0,0,1,537.148,786.669)">
                <path
                    d="M0,-13.746C3.163,-13.746 5.656,-14.516 7.48,-16.058C9.305,-17.597 10.218,-20.192 10.218,-23.843C10.218,-27.166 9.324,-29.6 7.542,-31.141C5.757,-32.68 3.364,-33.452 0.365,-33.452L-8.271,-33.452L-8.271,-13.746L0,-13.746ZM-32.356,19.827L-32.356,-33.573L-39.777,-33.573C-40.263,-34.951 -40.628,-36.411 -40.872,-37.952C-41.115,-39.492 -41.236,-40.952 -41.236,-42.332C-41.236,-43.709 -41.115,-45.19 -40.872,-46.771C-40.628,-48.352 -40.263,-49.831 -39.777,-51.211L4.865,-51.211C9.811,-51.211 14.15,-50.521 17.881,-49.143C21.61,-47.764 24.754,-45.859 27.308,-43.426C29.863,-40.994 31.788,-38.114 33.086,-34.79C34.382,-31.464 35.033,-27.856 35.033,-23.964C35.033,-20.72 34.546,-17.435 33.573,-14.111C32.6,-10.785 30.937,-7.785 28.585,-5.109C26.232,-2.433 23.131,-0.263 19.28,1.399C15.427,3.062 10.623,3.892 4.865,3.892L-8.271,3.892L-8.271,19.827L1.459,19.827C1.946,21.207 2.311,22.667 2.554,24.206C2.797,25.748 2.919,27.207 2.919,28.585C2.919,29.965 2.797,31.443 2.554,33.025C2.311,34.607 1.946,36.087 1.459,37.465L-39.777,37.465C-40.263,36.087 -40.628,34.607 -40.872,33.025C-41.115,31.443 -41.236,29.965 -41.236,28.585C-41.236,27.207 -41.115,25.748 -40.872,24.206C-40.628,22.667 -40.263,21.207 -39.777,19.827L-32.356,19.827Z" />
            </g>
            <g transform="matrix(1,0,0,1,632.138,787.154)">
                <path
                    d="M0,-14.718C6.891,-14.718 10.339,-17.839 10.339,-24.084C10.339,-30.328 6.891,-33.451 0,-33.451L-11.191,-33.451L-11.191,-14.718L0,-14.718ZM-35.276,19.342L-35.276,-34.059L-42.696,-34.059C-43.183,-35.437 -43.548,-36.897 -43.791,-38.438C-44.035,-39.978 -44.156,-41.438 -44.156,-42.818C-44.156,-44.195 -44.035,-45.676 -43.791,-47.257C-43.548,-48.838 -43.183,-50.317 -42.696,-51.697L4.622,-51.697C9.324,-51.697 13.582,-50.967 17.395,-49.508C21.205,-48.048 24.408,-46.06 27.004,-43.547C29.598,-41.032 31.605,-38.092 33.025,-34.728C34.443,-31.362 35.154,-27.814 35.154,-24.084C35.154,-22.543 34.951,-20.719 34.546,-18.611C34.139,-16.501 33.451,-14.332 32.478,-12.103C31.505,-9.871 30.167,-7.702 28.464,-5.595C26.761,-3.486 24.611,-1.66 22.017,-0.121L32.356,19.342L40.993,19.342C41.479,20.721 41.844,22.181 42.087,23.72C42.331,25.262 42.453,26.721 42.453,28.099C42.453,29.479 42.331,30.958 42.087,32.54C41.844,34.121 41.479,35.601 40.993,36.979L14.232,36.979L-1.582,3.528L-11.191,3.528L-11.191,19.342L-3.042,19.342C-2.555,20.721 -2.19,22.181 -1.946,23.72C-1.704,25.262 -1.582,26.721 -1.582,28.099C-1.582,29.479 -1.704,30.958 -1.946,32.54C-2.19,34.121 -2.555,35.601 -3.042,36.979L-42.696,36.979C-43.183,35.601 -43.548,34.121 -43.791,32.54C-44.035,30.958 -44.156,29.479 -44.156,28.099C-44.156,26.721 -44.035,25.262 -43.791,23.72C-43.548,22.181 -43.183,20.721 -42.696,19.342L-35.276,19.342Z" />
            </g>
            <g transform="matrix(1,0,0,1,699.709,753.096)">
                <path
                    d="M0,53.4L0,0L-7.42,0C-7.907,-1.378 -8.271,-2.838 -8.515,-4.379C-8.758,-5.919 -8.88,-7.379 -8.88,-8.759C-8.88,-10.136 -8.758,-11.618 -8.515,-13.199C-8.271,-14.78 -7.907,-16.258 -7.42,-17.638L65.564,-17.638L65.564,5.23C64.105,5.96 62.421,6.507 60.517,6.872C58.61,7.237 56.846,7.42 55.225,7.42C53.602,7.42 51.819,7.237 49.873,6.872C47.927,6.507 46.224,5.96 44.764,5.23L44.764,0.851L24.571,0.851L24.571,16.665L55.711,16.665C56.198,18.124 56.563,19.705 56.806,21.408C57.049,23.112 57.171,24.693 57.171,26.152C57.171,27.612 57.049,29.193 56.806,30.896C56.563,32.599 56.198,34.18 55.711,35.64L24.571,35.64L24.571,52.548L45.494,52.548L45.494,45.858C46.954,45.129 48.656,44.581 50.603,44.216C52.549,43.851 54.332,43.669 55.955,43.669C57.576,43.669 59.34,43.851 61.246,44.216C63.151,44.581 64.834,45.129 66.294,45.858L66.294,71.038L-7.42,71.038C-7.907,69.66 -8.271,68.2 -8.515,66.659C-8.758,65.119 -8.88,63.66 -8.88,62.28C-8.88,60.902 -8.758,59.421 -8.515,57.84C-8.271,56.258 -7.907,54.78 -7.42,53.4L0,53.4Z" />
            </g>
            <g transform="matrix(1,0,0,1,787.156,767.207)">
                <path
                    d="M0,25.057C1.378,24.409 2.938,23.923 4.683,23.598C6.426,23.275 8.108,23.111 9.731,23.111C11.352,23.111 13.077,23.275 14.901,23.598C16.725,23.923 18.326,24.409 19.706,25.057L19.706,29.315C19.706,30.287 20.09,31.404 20.862,32.66C21.631,33.918 22.787,35.074 24.329,36.126C25.868,37.182 27.795,38.073 30.106,38.803C32.417,39.533 35.113,39.897 38.195,39.897C42.654,39.897 45.817,39.229 47.683,37.891C49.548,36.552 50.481,34.748 50.481,32.477C50.481,30.531 49.73,28.87 48.231,27.49C46.729,26.112 44.196,24.896 40.628,23.841L23.355,18.732C20.354,17.84 17.536,16.745 14.901,15.448C12.265,14.151 9.954,12.488 7.967,10.46C5.979,8.434 4.419,6.02 3.284,3.222C2.147,0.425 1.581,-2.921 1.581,-6.812C1.581,-11.596 2.513,-15.693 4.379,-19.098C6.244,-22.505 8.595,-25.302 11.434,-27.492C14.272,-29.681 17.434,-31.302 20.922,-32.357C24.408,-33.411 27.774,-33.938 31.019,-33.938C36.857,-33.938 41.398,-33.106 44.642,-31.445C47.885,-29.782 50.156,-27.936 51.454,-25.91L51.454,-30.776C52.833,-31.424 54.414,-31.911 56.199,-32.236C57.981,-32.558 59.644,-32.722 61.185,-32.722C62.725,-32.722 64.348,-32.558 66.051,-32.236C67.754,-31.911 69.293,-31.424 70.673,-30.776L70.673,-2.921C69.293,-2.27 67.754,-1.784 66.051,-1.461C64.348,-1.135 62.685,-0.974 61.064,-0.974C59.441,-0.974 57.677,-1.135 55.772,-1.461C53.866,-1.784 52.224,-2.27 50.846,-2.921L50.846,-4.258C50.846,-7.177 49.649,-9.712 47.257,-11.861C44.865,-14.008 40.993,-15.085 35.641,-15.085C33.452,-15.085 31.606,-14.78 30.106,-14.172C28.605,-13.564 27.449,-12.813 26.639,-11.922C25.667,-10.785 25.18,-9.489 25.18,-8.029C25.18,-6.812 25.564,-5.676 26.335,-4.623C27.105,-3.568 28.991,-2.595 31.992,-1.704L45.007,1.946C48.9,3.082 52.628,4.338 56.199,5.716C59.766,7.096 62.928,8.878 65.686,11.069C68.442,13.258 70.653,15.976 72.316,19.218C73.977,22.462 74.809,26.517 74.809,31.382C74.809,36.329 73.794,40.547 71.768,44.033C69.741,47.521 67.165,50.379 64.043,52.609C60.921,54.84 57.433,56.461 53.583,57.474C49.73,58.488 45.98,58.995 42.332,58.995C39.735,58.995 37.202,58.752 34.729,58.265C32.253,57.779 29.985,57.11 27.917,56.258C25.849,55.407 24.064,54.414 22.564,53.278C21.063,52.143 19.949,50.967 19.219,49.75L19.219,55.71C17.839,56.361 16.258,56.847 14.475,57.17C12.691,57.494 11.028,57.657 9.488,57.657C7.947,57.657 6.325,57.494 4.623,57.17C2.919,56.847 1.378,56.361 0,55.71L0,25.057Z" />
            </g>
            <g transform="matrix(1,0,0,1,888.665,753.096)">
                <path
                    d="M0,53.4L0,0L-7.421,0C-7.907,-1.378 -8.271,-2.838 -8.516,-4.379C-8.759,-5.919 -8.88,-7.379 -8.88,-8.759C-8.88,-10.136 -8.759,-11.618 -8.516,-13.199C-8.271,-14.78 -7.907,-16.258 -7.421,-17.638L31.991,-17.638C32.479,-16.258 32.843,-14.78 33.086,-13.199C33.33,-11.618 33.45,-10.136 33.45,-8.759C33.45,-7.379 33.33,-5.919 33.086,-4.379C32.843,-2.838 32.479,-1.378 31.991,0L24.571,0L24.571,53.4L31.991,53.4C32.479,54.78 32.843,56.24 33.086,57.779C33.33,59.321 33.45,60.78 33.45,62.158C33.45,63.538 33.33,65.016 33.086,66.598C32.843,68.179 32.479,69.66 31.991,71.038L-7.421,71.038C-7.907,69.66 -8.271,68.179 -8.516,66.598C-8.759,65.016 -8.88,63.538 -8.88,62.158C-8.88,60.78 -8.759,59.321 -8.516,57.779C-8.271,56.24 -7.907,54.78 -7.421,53.4L0,53.4Z" />
            </g>
            <g transform="matrix(1,0,0,1,984.821,754.435)">
                <path
                    d="M0,50.722C2.838,50.722 5.067,50.418 6.691,49.81C8.313,49.201 9.771,48.29 11.069,47.074C13.178,45.047 14.901,42.207 16.239,38.559C17.578,34.909 18.247,30.368 18.247,24.935C18.247,20.151 17.699,16.076 16.604,12.709C15.51,9.346 13.947,6.649 11.921,4.62C10.298,2.999 8.455,1.823 6.387,1.093C4.318,0.364 1.783,-0.002 -1.216,-0.002L-10.461,-0.002L-10.461,50.722L0,50.722ZM-35.032,52.061L-35.032,-1.34L-42.452,-1.34C-42.939,-2.717 -43.304,-4.177 -43.547,-5.718C-43.79,-7.258 -43.912,-8.718 -43.912,-10.098C-43.912,-11.475 -43.79,-12.957 -43.547,-14.538C-43.304,-16.119 -42.939,-17.597 -42.452,-18.977L2.068,-18.977C8.799,-18.977 14.779,-17.841 20.011,-15.572C25.241,-13.3 29.66,-10.199 33.27,-6.266C36.877,-2.332 39.613,2.269 41.479,7.54C43.345,12.813 44.277,18.448 44.277,24.449C44.277,27.368 44.014,30.491 43.487,33.815C42.959,37.141 42.067,40.486 40.812,43.85C39.553,47.216 37.911,50.46 35.885,53.581C33.856,56.703 31.323,59.462 28.282,61.853C25.241,64.245 21.652,66.152 17.517,67.57C13.381,68.99 8.595,69.699 3.163,69.699L-42.452,69.699C-42.939,68.321 -43.304,66.84 -43.547,65.259C-43.79,63.677 -43.912,62.199 -43.912,60.819C-43.912,59.441 -43.79,57.982 -43.547,56.44C-43.304,54.901 -42.939,53.441 -42.452,52.061L-35.032,52.061Z" />
            </g>
            <g transform="matrix(1,0,0,1,1054.5,753.096)">
                <path
                    d="M0,53.4L0,0L-7.42,0C-7.906,-1.378 -8.271,-2.838 -8.515,-4.379C-8.758,-5.919 -8.879,-7.379 -8.879,-8.759C-8.879,-10.136 -8.758,-11.618 -8.515,-13.199C-8.271,-14.78 -7.906,-16.258 -7.42,-17.638L65.565,-17.638L65.565,5.23C64.105,5.96 62.421,6.507 60.517,6.872C58.61,7.237 56.847,7.42 55.226,7.42C53.603,7.42 51.819,7.237 49.873,6.872C47.927,6.507 46.224,5.96 44.765,5.23L44.765,0.851L24.572,0.851L24.572,16.665L55.712,16.665C56.198,18.124 56.563,19.705 56.807,21.408C57.05,23.112 57.172,24.693 57.172,26.152C57.172,27.612 57.05,29.193 56.807,30.896C56.563,32.599 56.198,34.18 55.712,35.64L24.572,35.64L24.572,52.548L45.494,52.548L45.494,45.858C46.954,45.129 48.657,44.581 50.604,44.216C52.55,43.851 54.332,43.669 55.955,43.669C57.576,43.669 59.34,43.851 61.247,44.216C63.151,44.581 64.835,45.129 66.295,45.858L66.295,71.038L-7.42,71.038C-7.906,69.66 -8.271,68.2 -8.515,66.659C-8.758,65.119 -8.879,63.66 -8.879,62.28C-8.879,60.902 -8.758,59.421 -8.515,57.84C-8.271,56.258 -7.906,54.78 -7.42,53.4L0,53.4Z" />
            </g>
            <g transform="matrix(1,0,0,1,1149.49,753.096)">
                <path
                    d="M0,53.4L0,0L-7.42,0C-7.907,-1.378 -8.271,-2.838 -8.515,-4.379C-8.759,-5.919 -8.88,-7.379 -8.88,-8.759C-8.88,-10.136 -8.759,-11.618 -8.515,-13.199C-8.271,-14.78 -7.907,-16.258 -7.42,-17.638L23.355,-17.638L49.994,31.017L49.994,0L42.574,0C42.088,-1.378 41.723,-2.838 41.479,-4.379C41.236,-5.919 41.114,-7.379 41.114,-8.759C41.114,-10.136 41.236,-11.618 41.479,-13.199C41.723,-14.78 42.088,-16.258 42.574,-17.638L80.161,-17.638C80.647,-16.258 81.013,-14.78 81.256,-13.199C81.499,-11.618 81.621,-10.136 81.621,-8.759C81.621,-7.379 81.499,-5.919 81.256,-4.379C81.013,-2.838 80.647,-1.378 80.161,0L72.619,0L72.619,71.038L50.481,71.038L22.625,20.435L22.625,53.4L30.167,53.4C30.653,54.78 31.019,56.24 31.262,57.779C31.505,59.321 31.626,60.78 31.626,62.158C31.626,63.538 31.505,65.016 31.262,66.598C31.019,68.179 30.653,69.66 30.167,71.038L-7.42,71.038C-7.907,69.66 -8.271,68.179 -8.515,66.598C-8.759,65.016 -8.88,63.538 -8.88,62.158C-8.88,60.78 -8.759,59.321 -8.515,57.779C-8.271,56.24 -7.907,54.78 -7.42,53.4L0,53.4Z" />
            </g>
            <g transform="matrix(1,0,0,1,1277.46,753.096)">
                <path
                    d="M0,53.4L0,0.486L-10.339,0.486L-10.339,13.258C-11.719,13.909 -13.279,14.395 -15.022,14.718C-16.767,15.043 -18.409,15.205 -19.949,15.205C-21.49,15.205 -23.153,15.043 -24.936,14.718C-26.721,14.395 -28.302,13.909 -29.68,13.258L-29.68,-17.638L54.009,-17.638L54.009,13.258C52.629,13.909 51.069,14.395 49.326,14.718C47.581,15.043 45.939,15.205 44.399,15.205C42.858,15.205 41.195,15.043 39.412,14.718C37.628,14.395 36.046,13.909 34.668,13.258L34.668,0.486L24.328,0.486L24.328,53.4L32.113,53.4C32.601,54.78 32.965,56.24 33.209,57.779C33.452,59.321 33.573,60.78 33.573,62.158C33.573,63.538 33.452,65.016 33.209,66.598C32.965,68.179 32.601,69.66 32.113,71.038L-7.784,71.038C-8.271,69.66 -8.637,68.179 -8.879,66.598C-9.122,65.016 -9.244,63.538 -9.244,62.158C-9.244,60.78 -9.122,59.321 -8.879,57.779C-8.637,56.24 -8.271,54.78 -7.784,53.4L0,53.4Z" />
            </g>
            <g transform="matrix(1,0,0,1,1357.79,753.096)">
                <path
                    d="M0,53.4L0,0L-7.42,0C-7.906,-1.378 -8.271,-2.838 -8.514,-4.379C-8.758,-5.919 -8.879,-7.379 -8.879,-8.759C-8.879,-10.136 -8.758,-11.618 -8.514,-13.199C-8.271,-14.78 -7.906,-16.258 -7.42,-17.638L65.565,-17.638L65.565,5.23C64.105,5.96 62.421,6.507 60.517,6.872C58.61,7.237 56.847,7.42 55.226,7.42C53.603,7.42 51.819,7.237 49.873,6.872C47.927,6.507 46.224,5.96 44.765,5.23L44.765,0.851L24.572,0.851L24.572,16.665L55.712,16.665C56.198,18.124 56.563,19.705 56.807,21.408C57.051,23.112 57.172,24.693 57.172,26.152C57.172,27.612 57.051,29.193 56.807,30.896C56.563,32.599 56.198,34.18 55.712,35.64L24.572,35.64L24.572,52.548L45.494,52.548L45.494,45.858C46.954,45.129 48.657,44.581 50.604,44.216C52.55,43.851 54.332,43.669 55.955,43.669C57.577,43.669 59.341,43.851 61.247,44.216C63.151,44.581 64.835,45.129 66.295,45.858L66.295,71.038L-7.42,71.038C-7.906,69.66 -8.271,68.2 -8.514,66.659C-8.758,65.119 -8.879,63.66 -8.879,62.28C-8.879,60.902 -8.758,59.421 -8.514,57.84C-8.271,56.258 -7.906,54.78 -7.42,53.4L0,53.4Z" />
            </g>
        </g>
    </g>
</svg>