<?xml version="1.0" encoding="utf-8"?>
<!-- Generator: Adobe Illustrator 22.0.1, SVG Export Plug-In . SVG Version: 6.00 Build 0)  -->
<svg version="1.1" id="Layer_1"
	xmlns="http://www.w3.org/2000/svg" x="0px" y="0px" viewBox="0 0 50 50"
	style="enable-background:new 0 0 50 50;" xml:space="preserve">
<path d="M23.6,46.6c-0.8,0.8-0.8,2,0,2.8C24,49.8,24.5,50,25,50s1-0.2,1.4-0.6l23-23c0.8-0.8,0.8-2,0-2.8l-23-23
	c-0.8-0.8-2-0.8-2.8,0s-0.8,2,0,2.8L45.2,25L23.6,46.6z"/>
<path d="M0.6,46.6c-0.8,0.8-0.8,2,0,2.8C1,49.8,1.5,50,2,50s1-0.2,1.4-0.6l23-23c0.8-0.8,0.8-2,0-2.8l-23-23c-0.8-0.8-2-0.8-2.8,0
	s-0.8,2,0,2.8L22.2,25L0.6,46.6z"/>
</svg>
