<?xml version="1.0" encoding="utf-8"?>
<!-- Generator: Adobe Illustrator 22.0.1, SVG Export Plug-In . SVG Version: 6.00 Build 0)  -->
<svg version="1.1" id="Capa_1" xmlns="http://www.w3.org/2000/svg" x="0px" y="0px"
	viewBox="0 0 50 50" style="enable-background:new 0 0 50 50;" xml:space="preserve">
<style type="text/css">
	.st0{opacity:0.7;}
</style>
<g>
	<path d="M15.2,14c3.9,0,7-3.1,7-7s-3.1-7-7-7s-7,3.1-7,7S11.3,14,15.2,14z M15.2,4c1.7,0,3,1.3,3,3s-1.3,3-3,3s-3-1.3-3-3
		S13.5,4,15.2,4z"/>
	<path d="M30.6,14l-10.5,1h-9.9c-0.1,0-0.3,0-0.4,0c0,0-0.1,0-0.1,0c-0.1,0-0.2,0-0.3,0.1c0,0-0.1,0.1-0.1,0.1
		c-0.1,0-0.1,0.1-0.2,0.1c0,0-0.1,0.1-0.1,0.1c-0.1,0-0.1,0.1-0.2,0.1l-8.2,8.5c-0.8,0.8-0.7,2.1,0.1,2.8C1,27.3,1.5,27.5,2,27.5
		c0.5,0,1-0.2,1.4-0.6l5-5.2l0.7,10.4V48c0,1.1,0.9,2,2,2s2-0.9,2-2V34h4v14c0,1.1,0.9,2,2,2s2-0.9,2-2V32.1l0.9-13.2L31,18
		c1.1-0.1,1.9-1.1,1.8-2.2S31.7,13.9,30.6,14z M18,19l-0.7,11h-4.3l-0.7-11H18z"/>
</g>
<g class="st0">
	<path d="M34.8,14c3.9,0,7-3.1,7-7s-3.1-7-7-7s-7,3.1-7,7S31,14,34.8,14z M34.8,4c1.7,0,3,1.3,3,3s-1.3,3-3,3s-3-1.3-3-3
		S33.2,4,34.8,4z"/>
	<path d="M49.4,24.1l-8.2-8.5c-0.1-0.1-0.1-0.1-0.2-0.1c0,0-0.1-0.1-0.1-0.1c-0.1-0.1-0.2-0.1-0.2-0.1c0,0-0.1,0-0.1-0.1
		c-0.1,0-0.2-0.1-0.3-0.1c0,0-0.1,0-0.1,0c-0.1,0-0.3,0-0.4,0h-9.9l-10.5-1c-1.1-0.1-2.1,0.7-2.2,1.8c-0.1,1.1,0.7,2.1,1.8,2.2
		l8.9,0.8l0.9,13.2V48c0,1.1,0.9,2,2,2s2-0.9,2-2V34h4v14c0,1.1,0.9,2,2,2s2-0.9,2-2V32.1l0.7-10.4l5,5.2c0.4,0.4,0.9,0.6,1.4,0.6
		c0.5,0,1-0.2,1.4-0.6C50.2,26.2,50.2,24.9,49.4,24.1z M37.7,19L37,30h-4.3L32,19H37.7z"/>
</g>
</svg>
