<?xml version="1.0" encoding="utf-8"?>
<!-- Generator: Adobe Illustrator 22.0.1, SVG Export Plug-In . SVG Version: 6.00 Build 0)  -->
<svg version="1.1" id="Layer_1"
	xmlns="http://www.w3.org/2000/svg" x="0px" y="0px" viewBox="0 0 50 50"
	style="enable-background:new 0 0 50 50;" xml:space="preserve">
<style type="text/css">
	.st0{fill:#333333;}
</style>
<path class="st0" d="M49.8,31.8c-0.6-1.2-1.3-2.4-2.1-3.4c0.2-0.2,0.5-0.4,0.6-0.6c0.3-0.5,0.4-1,0.3-1.6c-0.1-0.3-0.2-0.6-0.4-0.9
	l0.9-2.2c0.2-0.5,0-1.1-0.5-1.3c-0.5-0.2-1.1,0-1.3,0.5l-0.4,1l-0.3-1.1c-0.1-0.5-0.7-0.9-1.2-0.8c-0.5,0.1-0.9,0.7-0.8,1.2l0.5,2.4
	c-0.1,0.1-0.3,0.3-0.4,0.4c0,0,0,0.1-0.1,0.1c-0.9-0.7-1.9-1.2-3-1.7c1.7-1.7,2.7-4,2.7-6.5c0-5.1-4.1-9.2-9.2-9.2s-9.2,4.1-9.2,9.2
	c0,2.6,1.1,4.9,2.7,6.5c-1.4,0.6-2.7,1.4-3.8,2.4c-1.2-1-2.5-1.8-3.9-2.4c1.7-1.7,2.7-4,2.7-6.5c0-5.1-4.1-9.2-9.2-9.2
	c-5.1,0-9.2,4.1-9.2,9.2c0,2.6,1.1,4.9,2.8,6.5c-0.6,0.3-1.2,0.6-1.8,0.9c-0.1-0.6-0.4-1.1-0.8-1.5L6,21c0.1-0.5-0.3-1.1-0.8-1.1
	c-0.5-0.1-1.1,0.3-1.1,0.8l-0.2,1.1l-0.5-1c-0.2-0.5-0.8-0.7-1.3-0.5c-0.5,0.2-0.7,0.8-0.5,1.3l1.1,2.2c-0.1,0.2-0.2,0.3-0.3,0.5
	C2,25.4,2.5,26.6,3.6,27C2.2,28.4,1,30,0.2,31.8c-0.3,0.6-0.2,1.3,0.1,1.9c3,5,8.6,8.2,14.4,8.2c3.8,0,7.3-1.2,10.3-3.5
	c2.9,2.3,6.5,3.5,10.3,3.5c5.9,0,11.4-3.1,14.4-8.2C50.1,33.1,50.1,32.4,49.8,31.8z M30.1,17.4c0-2.9,2.3-5.2,5.2-5.2
	s5.2,2.3,5.2,5.2s-2.3,5.2-5.2,5.2S30.1,20.2,30.1,17.4z M9.5,17.3c0-2.9,2.3-5.2,5.2-5.2c2.9,0,5.2,2.3,5.2,5.2
	c0,2.9-2.3,5.2-5.2,5.2C11.9,22.5,9.5,20.2,9.5,17.3z M4.3,32.5c2.1-3.7,6.1-6,10.4-6c2.8,0,5.4,1,7.6,2.7c-0.6,0.8-1.1,1.7-1.5,2.6
	c-0.3,0.6-0.2,1.3,0.1,1.9c0.4,0.6,0.8,1.2,1.3,1.8c-2.2,1.5-4.7,2.4-7.4,2.4C10.5,37.8,6.7,35.9,4.3,32.5z M35.3,37.8
	c-3.3,0-6.5-1.3-8.9-3.6c-0.6-0.5-1.1-1.1-1.5-1.7c0.4-0.8,1-1.5,1.6-2.1c2.3-2.5,5.4-3.9,8.8-3.9c4.3,0,8.3,2.3,10.4,6
	C43.3,35.9,39.5,37.8,35.3,37.8z"/>
</svg>
