<?xml version="1.0" encoding="utf-8"?>
<!-- Generator: Adobe Illustrator 22.0.1, SVG Export Plug-In . SVG Version: 6.00 Build 0)  -->
<svg version="1.1" id="Layer_1"
	xmlns="http://www.w3.org/2000/svg" x="0px" y="0px" viewBox="0 0 50 50"
	style="enable-background:new 0 0 50 50;" xml:space="preserve">
<style type="text/css">
	.st0{fill:none;stroke:#000000;stroke-width:4;stroke-miterlimit:10;}
</style>
<path class="st0" d="M40.5,17.5C40.5,8.9,33.6,2,25,2S9.5,8.9,9.5,17.5c0,5.4,2.8,10.2,7,13V34c0,2.2,1.8,4,4,4h9c2.2,0,4-1.8,4-4
	v-3.5C37.7,27.7,40.5,22.9,40.5,17.5z"/>
<g>
	<path class="st0" d="M29.5,38h-9c-1.4,0-2.5,1.1-2.5,2.5s1.1,2.5,2.5,2.5h9c1.4,0,2.5-1.1,2.5-2.5S30.9,38,29.5,38z"/>
	<path class="st0" d="M21.5,44.5c0,1.9,1.6,3.5,3.5,3.5s3.5-1.6,3.5-3.5V43h-7V44.5z"/>
</g>
</svg>
