<?xml version="1.0" encoding="utf-8"?>
<!-- Generator: Adobe Illustrator 21.1.0, SVG Export Plug-In . SVG Version: 6.00 Build 0)  -->
<svg version="1.1" id="Layer_1"
	xmlns="http://www.w3.org/2000/svg" x="0px" y="0px" viewBox="0 0 50 50"
	style="enable-background:new 0 0 50 50;" xml:space="preserve">
<path d="M25,25.4c1.1,0,2-0.9,2-2V2c0-1.1-0.9-2-2-2s-2,0.9-2,2v21.4C23,24.5,23.9,25.4,25,25.4z"/>
<path d="M38.9,4.3C38,3.7,36.7,4,36.1,4.9c-0.6,0.9-0.3,2.2,0.6,2.8C42.4,11.4,46,18.1,46,25c0,11.6-9.4,21-21,21
	C13.4,46,4,36.6,4,25c0-6.9,3.6-13.6,9.3-17.3c0.9-0.6,1.2-1.8,0.6-2.8C13.3,4,12,3.7,11.1,4.3C4.3,8.8,0,16.7,0,25
	c0,13.8,11.2,25,25,25s25-11.2,25-25C50,16.7,45.7,8.8,38.9,4.3z"/>
</svg>
