<?xml version="1.0" encoding="utf-8"?>
<!-- Generator: Adobe Illustrator 21.1.0, SVG Export Plug-In . SVG Version: 6.00 Build 0)  -->
<svg version="1.1" id="Layer_1"
	xmlns="http://www.w3.org/2000/svg" x="0px" y="0px" viewBox="0 0 50 50"
	style="enable-background:new 0 0 50 50;" xml:space="preserve">
<path d="M21.4,39.3c0.2,0.2,0.5,0.3,0.7,0.3c0,0,0,0,0,0c0.3,0,0.5-0.1,0.7-0.3l8.9-9.4c0.4-0.4,0.4-1,0-1.4s-1-0.4-1.4,0l-8.1,8.6
	l-2.4-2.7c-0.4-0.4-1-0.5-1.4-0.1c-0.4,0.4-0.5,1-0.1,1.4L21.4,39.3z"/>
<path d="M44,4h-3.5V3c0-1.7-1.3-3-3-3s-3,1.3-3,3v1h-19V3c0-1.7-1.3-3-3-3s-3,1.3-3,3v1H6c-3.3,0-6,2.7-6,6v10.5V44c0,3.3,2.7,6,6,6
	h38c3.3,0,6-2.7,6-6V20.5V10C50,6.7,47.3,4,44,4z M46,44c0,1.1-0.9,2-2,2H6c-1.1,0-2-0.9-2-2V22.5h42V44z M46,18.5H4V10
	c0-1.1,0.9-2,2-2h3.7c0.4,1.2,1.5,2,2.8,2s2.4-0.8,2.8-2h19.3c0.4,1.2,1.5,2,2.8,2s2.4-0.8,2.8-2H44c1.1,0,2,0.9,2,2V18.5z"/>
</svg>
