<?xml version="1.0" encoding="utf-8"?>
<!-- Generator: Adobe Illustrator 21.1.0, SVG Export Plug-In . SVG Version: 6.00 Build 0)  -->
<svg version="1.1" id="Layer_1"
	xmlns="http://www.w3.org/2000/svg" x="0px" y="0px" viewBox="0 0 50 50"
	style="enable-background:new 0 0 50 50;" xml:space="preserve">
<path d="M49.8,45.2l-23-42.2c-0.4-0.6-1-1-1.8-1s-1.4,0.4-1.8,1l-23,42.2c-0.3,0.6-0.3,1.4,0,2c0.4,0.6,1,1,1.7,1h46
	c0.7,0,1.4-0.4,1.7-1S50.1,45.8,49.8,45.2z M5.4,44.1L25,8.1l19.6,36H5.4z"/>
<path d="M25,34c-2.6,0-4.7,2.1-4.7,4.7s2.1,4.7,4.7,4.7c2.6,0,4.7-2.1,4.7-4.7S27.6,34,25,34z M25,39.4c-0.4,0-0.7-0.3-0.7-0.7
	c0-0.4,0.3-0.7,0.7-0.7s0.7,0.3,0.7,0.7C25.7,39.1,25.4,39.4,25,39.4z"/>
<path d="M19.9,19.4c-0.4,0.5-0.5,1.2-0.3,1.8l3.5,10.8c0.3,0.8,1,1.4,1.9,1.4c0,0,0,0,0,0c0.9,0,1.6-0.6,1.9-1.4l3.5-10.8
	c0.2-0.6,0.1-1.3-0.3-1.8c-0.4-0.5-1-0.8-1.6-0.8h-7C20.9,18.6,20.3,18.9,19.9,19.4z M25.7,22.6L25,24.9l-0.7-2.3H25.7z"/>
</svg>
