<?xml version="1.0" encoding="utf-8"?>
<!-- Generator: Adobe Illustrator 22.0.1, SVG Export Plug-In . SVG Version: 6.00 Build 0)  -->
<svg version="1.1" id="Layer_1"
	xmlns="http://www.w3.org/2000/svg" x="0px" y="0px" viewBox="0 0 50 50"
	style="enable-background:new 0 0 50 50;" xml:space="preserve">
<g>
	<path d="M21.8,46c-7.1,0-13.5-3.5-17.4-9.3c3.4-6.4,10.1-10.4,17.4-10.4c3.5,0,6.9,1,9.8,2.7l6.9,0c-2.5-2.4-5.5-4.3-8.8-5.5
		C32.9,21.1,35,17.3,35,13C34.9,5.9,29,0,21.8,0C14.6,0,8.7,5.9,8.7,13.1c0,4.3,2.1,8.1,5.3,10.5C8,25.7,3,30.1,0.3,36
		c-0.1,0.1-0.1,0.2-0.1,0.4c0,0.1,0,0.1,0,0.2c0,0.1,0,0.1,0,0.2c0,0.1,0,0.1,0,0.2s0,0.1,0,0.2c0,0.1,0,0.1,0,0.2
		c0,0.1,0,0.1,0,0.2c0,0.1,0.1,0.2,0.2,0.4c4.5,7.3,12.7,12,21.4,12c8.7,0,16.9-4.7,21.4-12.1c0,0,0,0,0-0.1
		c0.1-0.1,0.2-0.2,0.2-0.3s0-0.1,0.1-0.2c0-0.1,0-0.1,0-0.2c0-0.1,0-0.1,0-0.1l-4.4,0C35.2,42.6,28.8,46,21.8,46z M12.7,13.1
		c0-5,4.1-9.1,9.1-9.1s9.1,4.1,9.1,9.1s-4.1,9.2-9.1,9.2S12.7,18.2,12.7,13.1z"/>
	<path d="M47.8,31l-16.6,0c-1.1,0-2,0.9-2,2c0,0.6,0.2,1.1,0.6,1.4c0.4,0.4,0.9,0.6,1.4,0.6l16.6,0c1.1,0,2-0.9,2-2
		C49.8,31.9,48.9,31,47.8,31z"/>
</g>
</svg>
