<?xml version="1.0" encoding="utf-8"?>
<!-- Generator: Adobe Illustrator 21.1.0, SVG Export Plug-In . SVG Version: 6.00 Build 0)  -->
<svg version="1.1" id="Layer_1"
	xmlns="http://www.w3.org/2000/svg" x="0px" y="0px" viewBox="0 0 50 50"
	style="enable-background:new 0 0 50 50;" xml:space="preserve">
<path d="M25,0C11.2,0,0,11.2,0,25c0,0.7,0,1.3,0.1,2c0,0.1,0,0.2,0,0.3c0.1,0.7,0.1,1.3,0.3,2c0,0,0,0,0,0.1c0.4,2.1,1,4.1,1.8,6
	c0.3,0.6,0.6,1.2,0.9,1.8c0,0,0,0.1,0.1,0.1c0.3,0.6,0.7,1.1,1,1.7c0,0,0,0,0,0.1c0.3,0.5,0.7,1,1.1,1.5c0.1,0.1,0.1,0.1,0.2,0.2
	C10.2,46.4,17.2,50,25,50s14.8-3.6,19.4-9.3c0.1-0.1,0.2-0.2,0.2-0.2c0.4-0.5,0.7-1,1.1-1.5c0,0,0,0,0-0.1c0.4-0.6,0.7-1.1,1-1.7
	c0,0,0-0.1,0.1-0.1c0.3-0.6,0.6-1.2,0.9-1.8c0.9-1.9,1.5-3.9,1.8-6c0,0,0,0,0-0.1c0.1-0.7,0.2-1.3,0.3-2c0-0.1,0-0.2,0-0.3
	c0.1-0.6,0.1-1.3,0.1-2C50,11.2,38.8,0,25,0z M25,46c-6,0-11.5-2.6-15.3-6.7C13.4,34.7,19,32,25,32s11.6,2.7,15.3,7.3
	C36.5,43.4,31,46,25,46z M15.9,18.9c0-5,4.1-9.1,9.1-9.1s9.1,4.1,9.1,9.1S30,28,25,28S15.9,23.9,15.9,18.9z M45.9,26.9
	c0,0.1,0,0.3,0,0.4c-0.1,1.3-0.4,2.6-0.8,3.8v0.1c-0.2,0.6-0.4,1.3-0.7,1.9c-0.4,1-1,2-1.5,2.9c-2.7-3.1-6.1-5.4-9.9-6.7
	c3.2-2.4,5.2-6.2,5.2-10.5c0-7.2-5.9-13.1-13.1-13.1C17.9,5.7,12,11.6,12,18.8c0,4.3,2.1,8.1,5.2,10.5c-3.8,1.3-7.2,3.6-9.9,6.7
	c-0.6-0.9-1.1-1.9-1.5-2.9c-0.3-0.6-0.5-1.2-0.7-1.9v-0.1c-0.4-1.2-0.6-2.5-0.8-3.8c0-0.1,0-0.3,0-0.4C4,26.3,4,25.7,4,25
	C4,13.4,13.4,4,25,4s21,9.4,21,21C46,25.7,46,26.3,45.9,26.9z"/>
</svg>
