<?xml version="1.0" encoding="utf-8"?>
<!-- Generator: Adobe Illustrator 22.0.1, SVG Export Plug-In . SVG Version: 6.00 Build 0)  -->
<svg version="1.1" id="Layer_1"
	xmlns="http://www.w3.org/2000/svg" x="0px" y="0px" viewBox="0 0 50 50"
	style="enable-background:new 0 0 50 50;" xml:space="preserve">
<path d="M47,35c-3.1-5.6-8.1-9.8-14-11.7C36,20.9,38,17.2,38,13c0-7.2-5.8-13-13-13c-7.2,0-13,5.8-13,13c0,4.2,2,7.9,5.1,10.3
	c-5.9,2-11,6.1-14,11.7c-0.3,0.6-0.3,1.3,0,1.9c4.4,8,12.8,13,22,13s17.6-5,22-13C47.3,36.4,47.3,35.6,47,35z M16,13c0-5,4-9,9-9
	c5,0,9,4,9,9s-4,9-9,9C20,22,16,18,16,13z M25,46c-7.3,0-14.1-3.8-17.9-10c3.8-6.2,10.6-10,17.9-10s14.1,3.8,17.9,10
	C39.1,42.2,32.3,46,25,46z"/>
</svg>
