<?xml version="1.0" encoding="utf-8"?>
<!-- Generator: Adobe Illustrator 22.0.1, SVG Export Plug-In . SVG Version: 6.00 Build 0)  -->
<svg version="1.1" id="Layer_1"
	xmlns="http://www.w3.org/2000/svg" x="0px" y="0px" viewBox="0 0 50 50"
	style="enable-background:new 0 0 50 50;" xml:space="preserve">
<g>
	<path d="M36.7,44.1c-0.7-0.7-1.2-1.7-1.2-2.8v-0.3C31.8,44.1,27,46,21.8,46c-7.1,0-13.5-3.5-17.4-9.3c3.4-6.4,10.1-10.4,17.4-10.4
		c3.5,0,6.9,1,9.8,2.7l3.9,0v-2.5c-1.8-1.3-3.7-2.3-5.8-3C32.9,21.1,35,17.3,35,13C34.9,5.9,29,0,21.8,0C14.6,0,8.7,5.9,8.7,13.1
		c0,4.3,2.1,8.1,5.3,10.5C8,25.7,3,30.1,0.3,36c-0.1,0.1-0.1,0.2-0.1,0.4c0,0.1,0,0.1,0,0.2c0,0.1,0,0.1,0,0.2c0,0.1,0,0.1,0,0.2
		s0,0.1,0,0.2c0,0.1,0,0.1,0,0.2c0,0.1,0,0.1,0,0.2c0,0.1,0.1,0.2,0.2,0.4c4.5,7.3,12.7,12,21.4,12c5.7,0,11.1-2,15.5-5.4
		C37.1,44.4,36.9,44.2,36.7,44.1z M12.7,13.1c0-5,4.1-9.1,9.1-9.1s9.1,4.1,9.1,9.1s-4.1,9.2-9.1,9.2S12.7,18.2,12.7,13.1z"/>
	<g>
		<path d="M38.1,42.6c-0.4-0.4-0.6-0.9-0.6-1.4l0-16.6c0-1.1,0.9-2,2-2c1.1,0,2,0.9,2,2l0,16.6c0,1.1-0.9,2-2,2
			C39,43.2,38.5,43,38.1,42.6z"/>
		<path d="M29.8,34.4c-0.4-0.4-0.6-0.9-0.6-1.4c0-1.1,0.9-2,2-2l16.6,0c1.1,0,2,0.9,2,2c0,1.1-0.9,2-2,2l-16.6,0
			C30.7,35,30.2,34.7,29.8,34.4z"/>
	</g>
</g>
</svg>
