<?xml version="1.0" encoding="utf-8"?>
<!-- Generator: Adobe Illustrator 22.0.1, SVG Export Plug-In . SVG Version: 6.00 Build 0)  -->
<svg version="1.1" id="Capa_1" xmlns="http://www.w3.org/2000/svg" x="0px" y="0px"
	viewBox="0 0 50 50" style="enable-background:new 0 0 50 50;" xml:space="preserve">
<g>
	<path d="M49.4,4c-0.5-0.6-1.4-0.8-2.1-0.5l-46,16.2C0.5,20,0,20.7,0,21.6c0,0.8,0.5,1.6,1.3,1.9L15.6,29v5.5c0,0.8,0.5,1.5,1.2,1.8
		s1.5,0.2,2.1-0.3l3.6-3.2l8.9,10.9c0.4,0.5,1,0.7,1.5,0.7c0.1,0,0.2,0,0.3,0c0.7-0.1,1.3-0.6,1.6-1.2l15-37.1
		C50.1,5.4,50,4.6,49.4,4z M32.4,38.6l-8.1-9.9C24,28.3,23.5,28,22.9,28c-0.1,0-0.1,0-0.2,0c-0.5,0-0.9,0.2-1.3,0.5l-1.9,1.6v-2.5
		c0-0.8-0.5-1.6-1.3-1.9l-10.5-4L44.4,8.8L32.4,38.6z"/>
	<path d="M4.6,38.9l5.9-4.3c0.9-0.7,1.1-1.9,0.4-2.8c-0.7-0.9-1.9-1.1-2.8-0.4l-5.9,4.3c-0.9,0.7-1.1,1.9-0.4,2.8
		c0.4,0.5,1,0.8,1.6,0.8C3.8,39.2,4.2,39.1,4.6,38.9z"/>
	<path d="M12.5,39.2c-0.7-0.9-1.9-1.1-2.8-0.4L3.8,43c-0.9,0.7-1.1,1.9-0.4,2.8c0.4,0.5,1,0.8,1.6,0.8c0.4,0,0.8-0.1,1.2-0.4
		l5.9-4.3C13,41.3,13.2,40.1,12.5,39.2z"/>
	<path d="M19,38.2l-5.9,4.3c-0.9,0.7-1.1,1.9-0.4,2.8c0.4,0.5,1,0.8,1.6,0.8c0.4,0,0.8-0.1,1.2-0.4l5.9-4.3c0.9-0.7,1.1-1.9,0.4-2.8
		C21.2,37.7,19.9,37.5,19,38.2z"/>
</g>
</svg>
