<?xml version="1.0" encoding="utf-8"?>
<!-- Generator: Adobe Illustrator 21.1.0, SVG Export Plug-In . SVG Version: 6.00 Build 0)  -->
<svg version="1.1" id="Layer_1"
	xmlns="http://www.w3.org/2000/svg" x="0px" y="0px" viewBox="0 0 50 50"
	style="enable-background:new 0 0 50 50;" xml:space="preserve">
<path d="M2,0C0.9,0,0,0.9,0,2v46c0,1.1,0.9,2,2,2s2-0.9,2-2V2C4,0.9,3.1,0,2,0z"/>
<path d="M44.5,13.5l5.3-10.6c0.4-0.7,0.3-1.6-0.2-2.2c-0.5-0.6-1.3-0.9-2.1-0.7c-0.1,0.1-11,3-19.7,3C19.3,3,9.2,0.1,9.1,0.1
	C8.5-0.1,7.8,0,7.3,0.4C6.8,0.8,6.5,1.4,6.5,2v23c0,0.9,0.6,1.7,1.5,1.9C8.4,27.1,19,30,28.2,30s19.9-2.9,20.3-3.1
	c0.6-0.2,1.1-0.6,1.3-1.1c0.3-0.5,0.3-1.2,0-1.7L44.5,13.5z M28.2,26c-6.7,0-14.5-1.8-17.7-2.5V4.6C14.2,5.5,21.3,7,27.8,7
	c5.8,0,12.3-1.2,16.5-2.1l-3.9,7.7c-0.3,0.6-0.3,1.2,0,1.8l4.7,9.3C41.5,24.5,34.3,26,28.2,26z"/>
</svg>
