<?xml version="1.0" encoding="utf-8"?>
<!-- Generator: Adobe Illustrator 22.0.1, SVG Export Plug-In . SVG Version: 6.00 Build 0)  -->
<svg version="1.1" id="Capa_1" xmlns="http://www.w3.org/2000/svg" x="0px" y="0px"
	viewBox="0 0 50 50" style="enable-background:new 0 0 50 50;" xml:space="preserve">
<path d="M46.1,3.9C43.6,1.4,40.2,0,36.6,0c-3.6,0-7,1.4-9.5,3.9L3.9,27.1C1.4,29.6,0,33,0,36.6c0,3.6,1.4,7,3.9,9.5
	C6.5,48.7,10,50,13.4,50s6.9-1.3,9.5-3.9l23.2-23.2C51.3,17.7,51.3,9.2,46.1,3.9z M29.8,16.5c0.1,0,0.2,0,0.3-0.1l3.5,3.5
	c0,0.1-0.1,0.2-0.1,0.3c0,0.6,0.4,1,1,1c0.1,0,0.2,0,0.3-0.1l3.7,3.7l-3.9,3.9c0,0,0,0-0.1,0c-0.6,0-1,0.4-1,1c0,0,0,0,0,0.1
	l-3.7,3.7c0,0,0,0-0.1,0c-0.6,0-1,0.4-1,1c0,0,0,0,0,0.1l-3.9,3.9l-3.7-3.7c0-0.1,0.1-0.2,0.1-0.3c0-0.6-0.4-1-1-1
	c-0.1,0-0.2,0-0.3,0.1L16.4,30c0-0.1,0.1-0.2,0.1-0.3c0-0.6-0.4-1-1-1c-0.1,0-0.2,0-0.3,0.1l-3.7-3.7l3.9-3.9c0,0,0,0,0.1,0
	c0.6,0,1-0.4,1-1c0,0,0,0,0-0.1l3.7-3.7c0,0,0,0,0.1,0c0.6,0,1-0.4,1-1c0,0,0,0,0-0.1l3.9-3.9l3.7,3.7c0,0.1-0.1,0.2-0.1,0.3
	C28.8,16.1,29.2,16.5,29.8,16.5z M20.1,43.3c-3.7,3.7-9.7,3.7-13.3,0C5,41.5,4,39.1,4,36.6c0-2.5,1-4.9,2.7-6.7l3.4-3.4l13.3,13.3
	L20.1,43.3z M43.3,20.1l-3.4,3.4L26.5,10.1l3.4-3.4C31.7,5,34.1,4,36.6,4c2.5,0,4.9,1,6.7,2.7C46.9,10.4,46.9,16.4,43.3,20.1z"/>
<circle cx="25" cy="25" r="1"/>
<circle cx="25" cy="34.5" r="1"/>
<circle cx="25" cy="15.5" r="1"/>
<circle cx="25" cy="20.3" r="1"/>
<circle cx="25" cy="29.8" r="1"/>
<circle cx="34.5" cy="25" r="1"/>
<circle cx="29.8" cy="25" r="1"/>
<circle cx="29.8" cy="20.3" r="1"/>
<circle cx="29.8" cy="29.8" r="1"/>
<circle cx="15.5" cy="25" r="1"/>
<circle cx="20.3" cy="25" r="1"/>
<circle cx="20.3" cy="20.3" r="1"/>
<circle cx="20.3" cy="29.8" r="1"/>
</svg>
