<?xml version="1.0" encoding="utf-8"?>
<!-- Generator: Adobe Illustrator 22.0.1, SVG Export Plug-In . SVG Version: 6.00 Build 0)  -->
<svg version="1.1" id="Layer_1" xmlns="http://www.w3.org/2000/svg" x="0px" y="0px"
	viewBox="0 0 50 50" style="enable-background:new 0 0 50 50;" xml:space="preserve">
<g>
	<path d="M25,0C10.7,0,0,5.2,0,12v26c0,6.8,10.7,12,25,12c14.3,0,25-5.2,25-12V12C50,5.2,39.3,0,25,0z M25,4c12,0,21,4.2,21,8
		s-9,8-21,8c-12,0-21-4.2-21-8S13,4,25,4z M25,46c-12,0-21-4.2-21-8V18.7C8.4,21.9,16,24,25,24c9,0,16.6-2.1,21-5.3V38
		C46,41.8,37,46,25,46z"/>
	<path d="M41.1,25.6c-4.1,2-10,3.1-16.1,3.1s-12-1.1-16.1-3.1c-1-0.5-2.2-0.1-2.7,0.9c-0.5,1-0.1,2.2,0.9,2.7
		c4.7,2.2,11.2,3.5,17.9,3.5c6.7,0,13.2-1.3,17.9-3.5c1-0.5,1.4-1.7,0.9-2.7C43.3,25.5,42.1,25.1,41.1,25.6z"/>
	<path d="M41.1,34.3c-4.1,2-10,3.1-16.1,3.1s-12-1.1-16.1-3.1c-1-0.5-2.2-0.1-2.7,0.9c-0.5,1-0.1,2.2,0.9,2.7
		c4.7,2.2,11.2,3.5,17.9,3.5s13.2-1.3,17.9-3.5c1-0.5,1.4-1.7,0.9-2.7C43.3,34.2,42.1,33.8,41.1,34.3z"/>
</g>
</svg>
