<?xml version="1.0" encoding="utf-8"?>
<!-- Generator: Adobe Illustrator 22.0.1, SVG Export Plug-In . SVG Version: 6.00 Build 0)  -->
<svg version="1.1" id="Layer_1" xmlns="http://www.w3.org/2000/svg" x="0px" y="0px"
	viewBox="0 0 50 50" style="enable-background:new 0 0 50 50;" xml:space="preserve">
<g>
	<path d="M43,4h-9.5V2c0-1.1-0.9-2-2-2h-13c-1.1,0-2,0.9-2,2v2H7C5.9,4,5,4.9,5,6v7c0,1.1,0.9,2,2,2h1v33c0,1.1,0.9,2,2,2h30
		c1.1,0,2-0.9,2-2V15h1c1.1,0,2-0.9,2-2V6C45,4.9,44.1,4,43,4z M9,8h9.5h13H41v3h-1H10H9V8z M38,46H12V15h26V46z"/>
	<path d="M25,42c1.1,0,2-0.9,2-2V22c0-1.1-0.9-2-2-2s-2,0.9-2,2v18C23,41.1,23.9,42,25,42z"/>
	<path d="M17,42c1.1,0,2-0.9,2-2V22c0-1.1-0.9-2-2-2s-2,0.9-2,2v18C15,41.1,15.9,42,17,42z"/>
	<path d="M33,42c1.1,0,2-0.9,2-2V22c0-1.1-0.9-2-2-2s-2,0.9-2,2v18C31,41.1,31.9,42,33,42z"/>
</g>
</svg>
