<?xml version="1.0" encoding="utf-8"?>
<!-- Generator: Adobe Illustrator 22.0.1, SVG Export Plug-In . SVG Version: 6.00 Build 0)  -->
<svg version="1.1" id="Layer_1" xmlns="http://www.w3.org/2000/svg" x="0px" y="0px"
	viewBox="0 0 50 50" style="enable-background:new 0 0 50 50;" xml:space="preserve">
<style type="text/css">
	.st0{fill:none;stroke:#000000;stroke-width:4;stroke-linecap:round;stroke-linejoin:round;stroke-miterlimit:10;}
</style>
<path class="st0" d="M42,48H8c-3.3,0-6-2.7-6-6v0c0-3.3,2.7-6,6-6h34c3.3,0,6,2.7,6,6v0C48,45.3,45.3,48,42,48z"/>
<g>
	<line class="st0" x1="30.7" y1="24" x2="19.3" y2="24"/>
	<path class="st0" d="M19.3,24H14c-3.3,0-6,2.7-6,6s2.7,6,6,6h22c3.3,0,6-2.7,6-6s-2.7-6-6-6h-5.3"/>
	<path class="st0" d="M30.7,24c2-1.6,3.3-4.2,3.3-7c0,0,0,0,0,0c-0.2,0-0.3,0-0.5,0c-5.8,0-10.5-3.7-11.4-8.5C18.6,9.7,16,13,16,17
		c0,2.8,1.3,5.4,3.3,7"/>
</g>
</svg>
