<?xml version="1.0" encoding="utf-8"?>
<!-- Generator: Adobe Illustrator 22.0.1, SVG Export Plug-In . SVG Version: 6.00 Build 0)  -->
<svg version="1.1" id="Layer_1"
	xmlns="http://www.w3.org/2000/svg" x="0px" y="0px" viewBox="0 0 50 50"
	style="enable-background:new 0 0 50 50;" xml:space="preserve">
<g>
	<path d="M44,4h-2V2c0-1.1-0.9-2-2-2s-2,0.9-2,2v2H12V2c0-1.1-0.9-2-2-2S8,0.9,8,2v2H6c-3.3,0-6,2.7-6,6v4v8v22c0,3.3,2.7,6,6,6h38
		c3.3,0,6-2.7,6-6V22v-8v-4C50,6.7,47.3,4,44,4z M4,10c0-1.1,0.9-2,2-2h38c1.1,0,2,0.9,2,2v4c0,1.1-0.9,2-2,2H6c-1.1,0-2-0.9-2-2V10
		z M46,44c0,1.1-0.9,2-2,2H6c-1.1,0-2-0.9-2-2V22c0-1.1,0.9-2,2-2h38c1.1,0,2,0.9,2,2V44z"/>
	<path d="M40,29h-6c-0.6,0-1,0.4-1,1v6c0,0.6,0.4,1,1,1h6c0.6,0,1-0.4,1-1v-6C41,29.4,40.6,29,40,29z"/>
	<path d="M28,29h-6c-0.6,0-1,0.4-1,1v6c0,0.6,0.4,1,1,1h6c0.6,0,1-0.4,1-1v-6C29,29.4,28.6,29,28,29z"/>
	<path d="M16,29h-6c-0.6,0-1,0.4-1,1v6c0,0.6,0.4,1,1,1h6c0.6,0,1-0.4,1-1v-6C17,29.4,16.6,29,16,29z"/>
</g>
</svg>
