<?xml version="1.0" encoding="UTF-8" standalone="no"?>
<!DOCTYPE svg PUBLIC "-//W3C//DTD SVG 1.1//EN" "http://www.w3.org/Graphics/SVG/1.1/DTD/svg11.dtd">
<svg width="100%" height="100%" viewBox="0 0 50 50" version="1.1" xmlns="http://www.w3.org/2000/svg" xmlns:xlink="http://www.w3.org/1999/xlink" xml:space="preserve" xmlns:serif="http://www.serif.com/" style="fill-rule:evenodd;clip-rule:evenodd;stroke-linejoin:round;stroke-miterlimit:2;">
    <g transform="matrix(1,0,0,1,-70,-280)">
        <g id="camara" transform="matrix(0.925926,0,0,0.925926,2.40741,281.852)">
            <rect x="73" y="-2" width="54" height="54" style="fill:none;"/>
            <g transform="matrix(1.08,0,0,0.940087,74.004,5.21311)">
                <path d="M49.047,6.1C49.047,2.293 46.361,-0.793 43.047,-0.793C34.348,-0.793 13.793,-0.793 5.094,-0.793C1.78,-0.793 -0.906,2.293 -0.906,6.1L-0.906,42.862C-0.906,46.669 1.78,49.755 5.094,49.755C13.793,49.755 34.348,49.755 43.047,49.755C46.361,49.755 49.047,46.669 49.047,42.862L49.047,6.1ZM45.047,6.1L45.047,42.862C45.047,44.131 44.152,45.16 43.047,45.16C43.047,45.16 5.094,45.16 5.094,45.16C3.989,45.16 3.094,44.131 3.094,42.862L3.094,6.1C3.094,4.831 3.989,3.802 5.094,3.802C5.094,3.802 43.047,3.802 43.047,3.802C44.152,3.802 45.047,4.831 45.047,6.1Z"/>
            </g>
            <g transform="matrix(1.22194,0,0,0.896794,78.1435,-1.17648)">
                <path d="M9.932,3.913L9.932,-0.904L1.094,-0.904C0.118,-0.904 -0.674,0.174 -0.674,1.504C-0.674,2.835 0.118,3.913 1.094,3.913L9.932,3.913Z"/>
            </g>
            <g transform="matrix(1.08,0,0,1.08,73,1.22736)">
                <path d="M25,15C19.481,15 15,19.481 15,25C15,30.519 19.481,35 25,35C30.519,35 35,30.519 35,25C35,19.481 30.519,15 25,15ZM25,19C28.311,19 31,21.689 31,25C31,28.311 28.311,31 25,31C21.689,31 19,28.311 19,25C19,21.689 21.689,19 25,19Z"/>
            </g>
        </g>
    </g>
</svg>
