<?xml version="1.0" encoding="utf-8"?>
<!-- Generator: Adobe Illustrator 22.0.1, SVG Export Plug-In . SVG Version: 6.00 Build 0)  -->
<svg version="1.1" id="Layer_1" xmlns="http://www.w3.org/2000/svg" x="0px" y="0px"
	viewBox="0 0 50 50" style="enable-background:new 0 0 50 50;" xml:space="preserve">
<path d="M29,42c-1.1,0-2,0.9-2,2c0,1.1-0.9,2-2,2c-1.1,0-2-0.9-2-2c0-1.1-0.9-2-2-2s-2,0.9-2,2c0,3.3,2.7,6,6,6s6-2.7,6-6
	C31,42.9,30.1,42,29,42z"/>
<path d="M8.9,46.8c-0.4,0-0.9-0.2-1.2-0.5c-0.7-0.7-0.7-1.7,0-2.4l32.1-32.1c0.7-0.7,1.7-0.7,2.4,0c0.7,0.7,0.7,1.7,0,2.4L10.1,46.3
	C9.8,46.6,9.4,46.8,8.9,46.8z"/>
<g>
	<path d="M42.5,35.6C39,33.1,37,29.3,37,25c0-0.7,0.1-1.4,0.2-2.2c0,0,0-0.1,0-0.1l0-0.1c0-0.1,0.1-0.3,0.1-0.5
		c0.1-0.6,0.1-1.2,0.1-1.7L33,24.8c0,0.1,0,0.1,0,0.2c0,4.3,1.6,8.3,4.4,11.3c-5.7,1.5-11.5,2-17.3,1.4l-3.6,3.6
		c2.8,0.5,5.6,0.7,8.5,0.7c5.7,0,11.5-1,17.1-2.9c0.7-0.2,1.2-0.9,1.3-1.6S43.2,36,42.5,35.6z"/>
	<path d="M7.9,39.1c0.8,0.3,1.6,0.5,2.4,0.8l3.3-3.3c-0.3-0.1-0.7-0.1-1-0.2c2.8-3.1,4.4-7,4.4-11.3c0-0.9-0.1-1.7-0.2-2.6
		c0-0.2-0.1-0.4-0.1-0.6l0-0.1c0-0.1,0-0.2,0-0.3c-0.1-0.3-0.1-0.7-0.1-1.1c0-4.6,3.8-8.4,8.4-8.4c3.6,0,6.6,2.2,7.8,5.4l3-3
		c-1.3-2.3-3.3-4.1-5.7-5.2C30.7,8.2,31,7.1,31,6c0-3.3-2.7-6-6-6s-6,2.7-6,6c0,1.1,0.3,2.2,0.9,3.1c-4.3,2-7.3,6.3-7.3,11.3
		c0,0.5,0,1.1,0.1,1.7c0,0.2,0.1,0.4,0.1,0.5l0,0.1c0,0,0,0.1,0,0.1c0.1,0.8,0.2,1.5,0.2,2.2c0,4.3-2,8.1-5.5,10.6
		c-0.6,0.4-0.9,1.2-0.8,1.9C6.7,38.2,7.2,38.8,7.9,39.1z M25,4c1.1,0,2,0.9,2,2s-0.9,2-2,2c-1.1,0-2-0.9-2-2S23.9,4,25,4z"/>
</g>
</svg>
