<?xml version="1.0" encoding="UTF-8" standalone="no"?>
<!DOCTYPE svg PUBLIC "-//W3C//DTD SVG 1.1//EN" "http://www.w3.org/Graphics/SVG/1.1/DTD/svg11.dtd">
<svg width="100%" height="100%" viewBox="0 0 50 51" version="1.1" xmlns="http://www.w3.org/2000/svg" xmlns:xlink="http://www.w3.org/1999/xlink" xml:space="preserve" xmlns:serif="http://www.serif.com/" style="fill-rule:evenodd;clip-rule:evenodd;stroke-linejoin:round;stroke-miterlimit:2;">
    <g transform="matrix(1,0,0,1,-420,-70)">
        <g id="candadote" transform="matrix(0.925926,0,0,0.925926,352.407,71.8769)">
            <rect x="73" y="-2" width="54" height="54" style="fill:none;"/>
            <g transform="matrix(1.08,0,0,1.08,-380.6,-77.6271)">
                <path d="M444.974,110.025C442.786,110.011 441,108.216 441,106.025C441,104.552 441.807,103.259 443,102.565L443,98.025C443,96.925 443.9,96.025 445,96.025C446.1,96.025 447,96.925 447,98.025L447,102.565C448.193,103.259 449,104.552 449,106.025C449,108.216 447.214,110.011 445.026,110.025L445,110.025L444.974,110.025Z" style="fill-rule:nonzero;"/>
            </g>
            <g transform="matrix(1.08,0,0,1.08,-380.6,-77.6271)">
                <path d="M433,86.109C430.171,86.589 428,89.066 428,92.025C428,92.025 428,114.025 428,114.025C428,117.325 430.7,120.025 434,120.025C434,120.025 456,120.025 456,120.025C459.3,120.025 462,117.325 462,114.025C462,114.025 462,92.025 462,92.025C462,89.066 459.829,86.589 457,86.109L457,82.025C457,75.425 451.6,70.025 445,70.025C438.4,70.025 433,75.425 433,82.025L433,86.109ZM456,90.025C457.1,90.025 458,90.925 458,92.025L458,114.025C458,115.125 457.1,116.025 456,116.025L434,116.025C432.9,116.025 432,115.125 432,114.025L432,92.025C432,90.925 432.9,90.025 434,90.025L456,90.025ZM445.039,76.025C448.321,76.046 451,78.738 451,82.025C451,82.025 451,86.025 451,86.025L453,86.025L453,82.025C453,77.625 449.4,74.025 445,74.025C440.6,74.025 437,77.625 437,82.025C437,82.025 437,86.025 437,86.025L439,86.025L439,82.025C439,78.725 441.7,76.025 445,76.025L445.039,76.025ZM445,80.025C444.991,80.025 444.983,80.025 444.974,80.025L444.949,80.026C444.906,80.027 444.863,80.029 444.821,80.033L444.796,80.035C444.757,80.04 444.717,80.045 444.678,80.051L444.652,80.056C444.552,80.073 444.455,80.099 444.36,80.131L444.337,80.139L444.323,80.144C444.251,80.17 444.181,80.2 444.113,80.234C444.033,80.274 443.955,80.319 443.882,80.369L443.864,80.381L443.856,80.387C443.799,80.427 443.744,80.47 443.691,80.516C443.642,80.559 443.594,80.604 443.549,80.652L443.537,80.664L443.521,80.682C443.516,80.688 443.51,80.694 443.505,80.7L443.496,80.711C443.301,80.933 443.155,81.198 443.073,81.489C443.057,81.546 443.044,81.604 443.033,81.663C443.029,81.685 443.025,81.708 443.022,81.73L443.019,81.752C443.008,81.829 443.002,81.907 443,81.986L443,81.999L443,82.025L443,86.025L447,86.025L447,82.025C446.999,81.799 446.962,81.575 446.886,81.362C446.689,80.804 446.241,80.351 445.686,80.147C445.482,80.072 445.268,80.033 445.051,80.026L445.026,80.025L445,80.025Z"/>
            </g>
        </g>
    </g>
</svg>
