<?xml version="1.0" encoding="UTF-8" standalone="no"?>
<!DOCTYPE svg PUBLIC "-//W3C//DTD SVG 1.1//EN" "http://www.w3.org/Graphics/SVG/1.1/DTD/svg11.dtd">
<svg width="100%" height="100%" viewBox="0 0 51 51" version="1.1" xmlns="http://www.w3.org/2000/svg" xmlns:xlink="http://www.w3.org/1999/xlink" xml:space="preserve" xmlns:serif="http://www.serif.com/" style="fill-rule:evenodd;clip-rule:evenodd;stroke-linejoin:round;stroke-miterlimit:2;">
    <g transform="matrix(1,0,0,1,-489,-70)">
        <g id="candadote-abierto" transform="matrix(0.925926,0,0,0.925926,422.384,71.8769)">
            <rect x="73" y="-2" width="54" height="54" style="fill:none;"/>
            <g transform="matrix(1.08,0,0,1.08,-456.175,-77.6271)">
                <path d="M510.451,110.025C508.263,110.011 506.477,108.216 506.477,106.025C506.477,104.552 507.283,103.259 508.477,102.565L508.477,98.025C508.477,96.925 509.377,96.025 510.477,96.025C511.577,96.025 512.477,96.925 512.477,98.025L512.477,102.565C513.67,103.259 514.477,104.552 514.477,106.025C514.477,108.216 512.691,110.011 510.502,110.025L510.477,110.025L510.451,110.025Z" style="fill-rule:nonzero;"/>
            </g>
            <g transform="matrix(1.08,0,0,1.08,-456.175,-77.6271)">
                <path d="M512.477,86.025L499.477,86.025C496.177,86.025 493.477,88.725 493.477,92.025L493.477,114.025C493.477,117.325 496.177,120.025 499.477,120.025C499.477,120.025 521.477,120.025 521.477,120.025C524.777,120.025 527.477,117.325 527.477,114.025L527.477,93.085C528.377,94.277 529.811,95.025 531.477,95.025C534.31,95.025 536.477,92.858 536.477,90.025L536.477,82.025C536.477,75.425 531.077,70.025 524.477,70.025C517.877,70.025 512.477,75.425 512.477,82.025L512.477,86.025ZM497.477,92.025C497.477,90.925 498.377,90.025 499.477,90.025L521.477,90.025C522.577,90.025 523.477,90.925 523.477,92.025C523.477,92.025 523.477,114.025 523.477,114.025C523.477,115.125 522.577,116.025 521.477,116.025L499.477,116.025C498.377,116.025 497.477,115.125 497.477,114.025C497.477,114.025 497.477,92.025 497.477,92.025ZM518.477,86.025L516.477,86.025C516.477,86.025 516.477,82.025 516.477,82.025C516.477,77.625 520.077,74.025 524.477,74.025C528.877,74.025 532.477,77.625 532.477,82.025L532.477,90.025C532.477,90.592 532.043,91.025 531.477,91.025C530.91,91.025 530.477,90.592 530.477,90.025L530.477,82.025C530.477,78.725 527.777,76.025 524.477,76.025C521.177,76.025 518.477,78.725 518.477,82.025L518.477,86.025ZM526.477,88.719L526.477,82.025C526.477,80.925 525.577,80.025 524.477,80.025C523.377,80.025 522.477,80.925 522.477,82.025L522.477,86.109C524.14,86.391 525.576,87.364 526.477,88.719Z"/>
            </g>
        </g>
    </g>
</svg>
