<?xml version="1.0" encoding="utf-8"?>
<!-- Generator: Adobe Illustrator 22.0.1, SVG Export Plug-In . SVG Version: 6.00 Build 0)  -->
<svg version="1.1" id="Layer_1" xmlns="http://www.w3.org/2000/svg" x="0px" y="0px"
	viewBox="0 0 50 50" style="enable-background:new 0 0 50 50;" xml:space="preserve">
<g>
	<path d="M22.5,32.6V28c0-1.1-0.9-2-2-2s-2,0.9-2,2v4.6c-1.2,0.7-2,2-2,3.4c0,2.2,1.8,4,4,4s4-1.8,4-4
		C24.5,34.5,23.7,33.3,22.5,32.6z"/>
	<path d="M34.5,0c-6.6,0-12,5.4-12,12v4h-13c-3.3,0-6,2.7-6,6v22c0,3.3,2.7,6,6,6h22c3.3,0,6-2.7,6-6V23c0.9,1.2,2.4,2,4,2
		c2.8,0,5-2.2,5-5v-2v-2v-4C46.5,5.4,41.1,0,34.5,0z M33.5,44c0,1.1-0.9,2-2,2h-22c-1.1,0-2-0.9-2-2V22c0-1.1,0.9-2,2-2h13h8h1
		c1.1,0,2,0.9,2,2V44z M32.5,16.1V12c0-1.1,0.9-2,2-2s2,0.9,2,2v4v2v0.7C35.6,17.3,34.2,16.4,32.5,16.1z M42.5,18v2c0,0.6-0.4,1-1,1
		s-1-0.4-1-1v-2v-2v-4c0-3.3-2.7-6-6-6s-6,2.7-6,6v4h-2v-4c0-4.4,3.6-8,8-8s8,3.6,8,8v4V18z"/>
</g>
</svg>
