<?xml version="1.0" encoding="UTF-8" standalone="no"?>
<!DOCTYPE svg PUBLIC "-//W3C//DTD SVG 1.1//EN" "http://www.w3.org/Graphics/SVG/1.1/DTD/svg11.dtd">
<svg width="100%" height="100%" viewBox="0 0 50 50" version="1.1" xmlns="http://www.w3.org/2000/svg" xmlns:xlink="http://www.w3.org/1999/xlink" xml:space="preserve" xmlns:serif="http://www.serif.com/" style="fill-rule:evenodd;clip-rule:evenodd;stroke-linejoin:round;stroke-miterlimit:2;">
    <g transform="matrix(1,0,0,1,-420,0)">
        <g id="candado-clave" transform="matrix(0.925926,0,0,0.925926,352.407,1.85185)">
            <rect x="73" y="-2" width="54" height="54" style="fill:none;"/>
            <clipPath id="_clip1">
                <rect x="73" y="-2" width="54" height="54"/>
            </clipPath>
            <g clip-path="url(#_clip1)">
                <g transform="matrix(1.08,0,0,0.54,74.004,24.2013)">
                    <path d="M43.08,11.479L43.08,5.433C43.08,2.25 42.447,-0.802 41.322,-3.053C40.197,-5.303 38.671,-6.567 37.08,-6.567C30.533,-6.567 17.607,-6.567 11.061,-6.567C9.47,-6.567 7.944,-5.303 6.819,-3.053C5.693,-0.802 5.061,2.25 5.061,5.433C5.061,14.786 5.061,30.176 5.061,39.529C5.061,42.712 5.693,45.764 6.819,48.015C7.944,50.265 9.47,51.529 11.061,51.529C17.607,51.529 30.533,51.529 37.08,51.529C40.393,51.529 43.08,46.157 43.08,39.529L43.08,31.479C43.08,29.271 42.183,27.479 41.08,27.479C39.976,27.479 39.08,29.271 39.08,31.479L39.08,39.529C39.08,41.738 38.184,43.529 37.08,43.529C30.533,43.529 17.607,43.529 11.061,43.529C10.531,43.529 10.022,43.108 9.647,42.358C9.272,41.608 9.061,40.59 9.061,39.529L9.061,5.433C9.061,4.372 9.272,3.354 9.647,2.604C10.022,1.854 10.531,1.433 11.061,1.433C17.607,1.433 30.533,1.433 37.08,1.433C37.61,1.433 38.119,1.854 38.494,2.604C38.869,3.354 39.08,4.372 39.08,5.433L39.08,11.479C39.08,13.687 39.976,15.479 41.08,15.479C42.183,15.479 43.08,13.687 43.08,11.479Z"/>
                </g>
                <g transform="matrix(-246.903,0,0,24.4065,11547,-803.211)">
                    <path d="M46.371,34.266L46.371,34.487C46.371,34.597 46.362,34.686 46.351,34.686C46.351,34.686 46.273,34.686 46.273,34.686C46.262,34.686 46.253,34.597 46.253,34.487C46.253,34.487 46.253,34.266 46.253,34.266C46.253,34.156 46.262,34.067 46.273,34.067L46.351,34.067C46.362,34.067 46.371,34.156 46.371,34.266ZM46.354,34.266C46.354,34.254 46.353,34.244 46.351,34.244L46.273,34.244C46.272,34.244 46.271,34.254 46.271,34.266L46.271,34.487C46.271,34.499 46.272,34.509 46.273,34.509L46.351,34.509C46.353,34.509 46.354,34.499 46.354,34.487L46.354,34.266Z"/>
                </g>
                <g transform="matrix(1.11087,0,0,1.59701,72.8469,-26.9623)">
                    <path d="M24.443,15.638C19.074,15.638 14.721,18.666 14.721,22.401L14.721,31.193C14.721,31.94 15.591,32.546 16.665,32.546L32.221,32.546C33.295,32.546 34.165,31.94 34.165,31.193L34.165,22.401C34.165,18.666 29.812,15.638 24.443,15.638C24.443,15.638 23.369,15.638 24.443,15.638ZM24.443,18.343C27.665,18.343 30.276,20.16 30.276,22.401L30.276,29.841C30.276,29.841 18.61,29.841 18.61,29.841C18.61,29.841 18.61,22.401 18.61,22.401C18.61,20.16 21.221,18.343 24.443,18.343Z"/>
                </g>
                <g transform="matrix(1.08,0,0,1.08,68.7028,0.148596)">
                    <circle cx="34.989" cy="33.011" r="1.989"/>
                </g>
                <g transform="matrix(1.08,0,0,1.08,68.7028,0.148596)">
                    <path d="M34.989,29.021C32.788,29.021 31,30.809 31,33.011C31,35.212 32.788,37 34.989,37C37.191,37 38.979,35.212 38.979,33.011C38.979,30.809 37.191,29.021 34.989,29.021ZM34.989,33.021C34.984,33.021 34.979,33.016 34.979,33.011C34.979,33.005 34.984,33 34.989,33C34.995,33 35,33.005 35,33.011C35,33.016 34.995,33.021 34.989,33.021Z" style="fill:none;"/>
                </g>
                <g transform="matrix(1.08,0,0,1.08,74.6188,0.148596)">
                    <circle cx="34.989" cy="33.011" r="1.989"/>
                </g>
                <g transform="matrix(1.08,0,0,1.08,74.6188,0.148596)">
                    <path d="M34.989,29.021C32.788,29.021 31,30.809 31,33.011C31,35.212 32.788,37 34.989,37C37.191,37 38.979,35.212 38.979,33.011C38.979,30.809 37.191,29.021 34.989,29.021ZM34.989,33.021C34.984,33.021 34.979,33.016 34.979,33.011C34.979,33.005 34.984,33 34.989,33C34.995,33 35,33.005 35,33.011C35,33.016 34.995,33.021 34.989,33.021Z" style="fill:none;"/>
                </g>
                <g transform="matrix(1.08,0,0,1.08,80.5813,0.148596)">
                    <circle cx="34.989" cy="33.011" r="1.989"/>
                </g>
                <g transform="matrix(1.08,0,0,1.08,80.5813,0.148596)">
                    <path d="M34.989,29.021C32.788,29.021 31,30.809 31,33.011C31,35.212 32.788,37 34.989,37C37.191,37 38.979,35.212 38.979,33.011C38.979,30.809 37.191,29.021 34.989,29.021ZM34.989,33.021C34.984,33.021 34.979,33.016 34.979,33.011C34.979,33.005 34.984,33 34.989,33C34.995,33 35,33.005 35,33.011C35,33.016 34.995,33.021 34.989,33.021Z" style="fill:none;"/>
                </g>
            </g>
        </g>
    </g>
</svg>
