<?xml version="1.0" encoding="utf-8"?>
<!-- Generator: Adobe Illustrator 22.0.1, SVG Export Plug-In . SVG Version: 6.00 Build 0)  -->
<svg version="1.1" id="Layer_1" xmlns="http://www.w3.org/2000/svg" x="0px" y="0px"
	viewBox="0 0 50 50" style="enable-background:new 0 0 50 50;" xml:space="preserve">
<g>
	<path d="M37,16.1V12c0-6.6-5.4-12-12-12c-6.6,0-12,5.4-12,12v4.1C10.2,16.6,8,19,8,22v22c0,3.3,2.7,6,6,6h22c3.3,0,6-2.7,6-6V22
		C42,19,39.8,16.6,37,16.1z M17,12c0-4.4,3.6-8,8-8s8,3.6,8,8v4h-2v-4c0-3.3-2.7-6-6-6s-6,2.7-6,6v4h-2V12z M27,16h-4v-4
		c0-1.1,0.9-2,2-2c1.1,0,2,0.9,2,2V16z M38,44c0,1.1-0.9,2-2,2H14c-1.1,0-2-0.9-2-2V22c0-1.1,0.9-2,2-2h5h4h4h4h5c1.1,0,2,0.9,2,2
		V44z"/>
	<path d="M27,32.6V28c0-1.1-0.9-2-2-2s-2,0.9-2,2v4.6c-1.2,0.7-2,2-2,3.4c0,2.2,1.8,4,4,4s4-1.8,4-4C29,34.5,28.2,33.2,27,32.6z"/>
</g>
</svg>
