<?xml version="1.0" encoding="UTF-8" standalone="no"?>
<!DOCTYPE svg PUBLIC "-//W3C//DTD SVG 1.1//EN" "http://www.w3.org/Graphics/SVG/1.1/DTD/svg11.dtd">
<svg width="100%" height="100%" viewBox="0 0 51 51" version="1.1" xmlns="http://www.w3.org/2000/svg" xmlns:xlink="http://www.w3.org/1999/xlink" xml:space="preserve" xmlns:serif="http://www.serif.com/" style="fill-rule:evenodd;clip-rule:evenodd;stroke-linejoin:round;stroke-miterlimit:2;">
    <g transform="matrix(1,0,0,1,-629,0)">
        <g id="candado-abriendo" transform="matrix(0.925926,0,0,0.925926,562.384,1.87692)">
            <rect x="73" y="-2" width="54" height="54" style="fill:none;"/>
            <clipPath id="_clip1">
                <rect x="73" y="-2" width="54" height="54"/>
            </clipPath>
            <g clip-path="url(#_clip1)">
                <g transform="matrix(1.08,0,0,1.08,-607.375,-2.02708)">
                    <path d="M648.955,19.179L648.955,10.008C648.955,6.685 651.653,3.986 654.977,3.986C658.3,3.986 660.999,6.685 660.999,10.008C660.999,10.008 660.999,12.025 660.999,12.025L664.999,12.025L664.999,10.008C664.999,4.477 660.508,-0.014 654.977,-0.014C649.445,-0.014 644.955,4.477 644.955,10.008L644.955,21.538C641.319,24.468 638.991,28.959 638.991,33.989C638.991,42.812 646.154,49.975 654.977,49.975C663.799,49.975 670.962,42.812 670.962,33.989C670.962,28.577 668.268,23.789 664.148,20.898C661.55,19.075 658.387,18.004 654.977,18.004C652.847,18.004 650.814,18.421 648.955,19.179ZM648.104,24.172L648.104,24.172C645.014,26.341 642.991,29.931 642.991,33.989C642.991,40.605 648.362,45.975 654.977,45.975C661.592,45.975 666.962,40.605 666.962,33.989C666.962,29.931 664.94,26.341 661.85,24.172C659.903,22.805 657.533,22.004 654.977,22.004C652.421,22.004 650.05,22.805 648.104,24.172L648.104,24.172Z"/>
                </g>
                <g transform="matrix(1.08,0,0,1.08,-607.375,-2.02708)">
                    <path d="M652.977,35.488L652.977,40.025L656.977,40.025L656.977,35.488C658.168,34.797 658.97,33.507 658.97,32.032C658.97,29.828 657.18,28.039 654.977,28.039C652.773,28.039 650.983,29.828 650.983,32.032C650.983,33.507 651.785,34.797 652.977,35.488ZM654.977,32.039C654.973,32.039 654.97,32.036 654.97,32.032C654.97,32.028 654.973,32.025 654.977,32.025C654.98,32.025 654.983,32.028 654.983,32.032C654.983,32.036 654.98,32.039 654.977,32.039Z"/>
                </g>
                <g transform="matrix(-0.497847,0.549539,-3.00216,-2.71976,702.68,-131.016)">
                    <path d="M663.255,84.785L672.697,84.785C674.305,84.785 675.61,84.546 675.61,84.252C675.61,83.957 674.305,83.718 672.697,83.718L663.255,83.718C661.647,83.718 660.342,83.957 660.342,84.252C660.342,84.546 661.647,84.785 663.255,84.785Z"/>
                </g>
                <g transform="matrix(0.639842,0.374762,-2.04734,3.49549,-135.28,-522.08)">
                    <path d="M663.255,84.785L672.697,84.785C674.305,84.785 675.61,84.546 675.61,84.252C675.61,83.957 674.305,83.718 672.697,83.718L663.255,83.718C661.647,83.718 660.342,83.957 660.342,84.252C660.342,84.546 661.647,84.785 663.255,84.785Z"/>
                </g>
                <g transform="matrix(0.733111,-0.110041,0.601312,4.00605,-419.134,-249.565)">
                    <path d="M663.255,84.785L672.697,84.785C674.305,84.785 675.611,84.546 675.611,84.252C675.611,83.957 674.305,83.718 672.697,83.718L663.255,83.718C661.647,83.718 660.341,83.957 660.341,84.252C660.341,84.546 661.647,84.785 663.255,84.785Z"/>
                </g>
            </g>
        </g>
    </g>
</svg>
