<?xml version="1.0" encoding="utf-8"?>
<!-- Generator: Adobe Illustrator 22.0.1, SVG Export Plug-In . SVG Version: 6.00 Build 0)  -->
<svg version="1.1" id="Layer_1"
	xmlns="http://www.w3.org/2000/svg" x="0px" y="0px" viewBox="0 0 50 50"
	style="enable-background:new 0 0 50 50;" xml:space="preserve">
<g>
	<path d="M27.5,33.1c0.8,0.8,2,0.8,2.8,0c0.8-0.8,0.8-2,0-2.8c-0.9-0.9-2-1.6-3.3-1.9v-1c0-1.1-0.9-2-2-2s-2,0.9-2,2v1
		c-1.2,0.3-2.3,1-3.2,1.9c-1.4,1.4-2.2,3.3-2.2,5.2s0.8,3.8,2.2,5.2c0.9,0.9,2,1.6,3.2,1.9v1c0,1.1,0.9,2,2,2s2-0.9,2-2v-1
		c1.2-0.3,2.3-1,3.3-1.9c0.8-0.8,0.8-2,0-2.8s-2-0.8-2.8,0c-1.3,1.3-3.5,1.3-4.8,0c-0.6-0.6-1-1.5-1-2.4c0-0.9,0.4-1.8,1-2.4
		C23.9,31.8,26.2,31.8,27.5,33.1z"/>
	<path d="M43.1,11.5c-0.1-1-1-1.8-2-1.8h-7.7V8.4C33.4,3.8,29.7,0,25,0c-4.7,0-8.4,3.8-8.4,8.4v1.2H8.9c-1,0-1.9,0.8-2,1.8L4.5,38.8
		c0,0.6,0.1,1.1,0.5,1.5S5.9,41,6.5,41h5.1c2.2,5.3,7.4,9,13.4,9s11.2-3.7,13.4-9h5.1c0.6,0,1.1-0.2,1.5-0.6c0.4-0.4,0.6-1,0.5-1.5
		L43.1,11.5z M20.6,8.4C20.6,6,22.6,4,25,4s4.4,2,4.4,4.4v1.2h-8.9V8.4z M25,46c-4.8,0-8.8-3.2-10.1-7.6c0,0,0,0,0,0
		c-0.1-0.4-0.2-0.9-0.3-1.3c0-0.1,0-0.2,0-0.2c-0.1-0.5-0.1-0.9-0.1-1.4C14.5,29.7,19.2,25,25,25c5.8,0,10.5,4.7,10.5,10.5
		c0,0.5,0,0.9-0.1,1.4c0,0.1,0,0.2,0,0.2c-0.1,0.4-0.2,0.9-0.3,1.3c0,0,0,0,0,0C33.8,42.8,29.8,46,25,46z M39.4,37
		c0.1-0.5,0.1-1,0.1-1.5C39.5,27.5,33,21,25,21s-14.5,6.5-14.5,14.5c0,0.5,0,1,0.1,1.5H8.7l2.1-23.3h5.8h16.9h5.8L41.3,37H39.4z"/>
</g>
</svg>
