<?xml version="1.0" encoding="utf-8"?>
<!-- Generator: Adobe Illustrator 22.0.1, SVG Export Plug-In . SVG Version: 6.00 Build 0)  -->
<svg version="1.1" id="Layer_1"
	xmlns="http://www.w3.org/2000/svg" x="0px" y="0px" viewBox="0 0 50 50"
	style="enable-background:new 0 0 50 50;" xml:space="preserve">
<g>
	<path d="M47.6,11.5c-0.1-1-1-1.8-2-1.8h-7.7V8.4c0-4.6-3.8-8.4-8.4-8.4s-8.4,3.8-8.4,8.5v1.2h-7.7c-1,0-1.9,0.8-2,1.8l-0.9,10
		C4.5,23.3,0,28.9,0,35.5C0,43.5,6.5,50,14.5,50c6,0,11.2-3.7,13.4-9H48c0.6,0,1.1-0.2,1.5-0.6c0.4-0.4,0.6-1,0.5-1.5L47.6,11.5z
		 M25.1,8.5c0-2.5,2-4.5,4.4-4.5c2.4,0,4.4,2,4.4,4.4v1.3h-8.8V8.5z M14.5,46C8.7,46,4,41.3,4,35.5c0-5.2,3.8-9.5,8.7-10.3
		c0,0,0,0,0,0c0.3-0.1,0.6-0.1,0.9-0.1c0.3,0,0.6,0,0.9,0C20.3,25,25,29.7,25,35.5c0,0.5,0,0.9-0.1,1.4c0,0.1,0,0.2,0,0.2
		c-0.1,0.4-0.2,0.9-0.3,1.3c0,0,0,0,0,0C23.3,42.8,19.3,46,14.5,46z M28.9,37c0.1-0.5,0.1-1,0.1-1.5c0-0.5,0-1-0.1-1.5
		c0-0.2-0.1-0.4-0.1-0.5c0-0.3-0.1-0.6-0.1-0.9c0-0.2-0.1-0.4-0.2-0.6c-0.1-0.3-0.1-0.5-0.2-0.8c-0.1-0.2-0.2-0.4-0.2-0.6
		c-0.1-0.2-0.2-0.5-0.3-0.7c-0.1-0.2-0.2-0.4-0.3-0.6c-0.1-0.2-0.2-0.4-0.3-0.6c-0.1-0.2-0.2-0.4-0.4-0.6c-0.1-0.2-0.2-0.4-0.4-0.6
		c-0.1-0.2-0.3-0.4-0.4-0.6c-0.1-0.2-0.3-0.4-0.4-0.5c-0.2-0.2-0.3-0.4-0.5-0.5c-0.2-0.2-0.3-0.3-0.5-0.5c-0.2-0.2-0.4-0.3-0.5-0.5
		c-0.2-0.1-0.3-0.3-0.5-0.4c-0.2-0.2-0.4-0.3-0.6-0.4c-0.2-0.1-0.3-0.3-0.5-0.4c-0.2-0.1-0.4-0.3-0.6-0.4c-0.2-0.1-0.4-0.2-0.6-0.3
		c-0.2-0.1-0.4-0.2-0.7-0.3c-0.2-0.1-0.4-0.2-0.6-0.3c-0.2-0.1-0.5-0.2-0.7-0.3c-0.2-0.1-0.4-0.2-0.6-0.2c-0.2-0.1-0.5-0.1-0.7-0.2
		c-0.2-0.1-0.4-0.1-0.7-0.2c-0.2-0.1-0.5-0.1-0.7-0.1c-0.2,0-0.5-0.1-0.7-0.1c-0.2,0-0.5,0-0.8,0c-0.2,0-0.5,0-0.7,0l0.6-7.3h28.5
		l2,23.3H28.9z"/>
	<path d="M14.2,32.1c0.1,0,0.2,0,0.3,0c0.1,0,0.3,0,0.4,0c0.8,0.1,1.5,0.4,2.1,1c0.8,0.8,2,0.8,2.8,0c0.8-0.8,0.8-2,0-2.8
		c-1-1-2.1-1.6-3.3-1.9v-1c0-1.1-0.9-2-2-2s-2,0.9-2,2v1c-1.1,0.3-2.2,0.9-3.2,1.8c-3,2.8-3,7.5,0,10.6c0.9,0.9,2,1.6,3.2,1.9v1.1
		c0,1.1,0.9,2,2,2s2-0.9,2-2v-1.1c1.2-0.3,2.3-0.9,3.3-1.9c0.8-0.8,0.8-2,0.1-2.8c-0.8-0.8-2-0.8-2.8-0.1c-1.4,1.4-3.6,1.4-4.9,0.1
		c-1.4-1.4-1.4-3.6-0.1-4.9C12.7,32.5,13.4,32.2,14.2,32.1z"/>
</g>
</svg>
