<?xml version="1.0" encoding="utf-8"?>
<!-- Generator: Adobe Illustrator 22.0.1, SVG Export Plug-In . SVG Version: 6.00 Build 0)  -->
<svg version="1.1" id="Capa_1" xmlns="http://www.w3.org/2000/svg" x="0px" y="0px"
	viewBox="0 0 50 50" style="enable-background:new 0 0 50 50;" xml:space="preserve">
<style type="text/css">
	.st0{fill:none;stroke:#000000;stroke-width:4;stroke-linecap:round;stroke-linejoin:round;stroke-miterlimit:10;}
</style>
<g>
	<path class="st0" d="M2,6h34V2L2,6z"/>
</g>
<g>
	<path class="st0" d="M2,48h46V20V6H2V48"/>
</g>
<g>
	<g>
		<line class="st0" x1="34.1" y1="20.4" x2="34.1" y2="22.5"/>
		<line class="st0" x1="34.1" y1="41" x2="34.1" y2="22.5"/>
		<line class="st0" x1="30" y1="13.6" x2="30" y2="16.3"/>
		<path class="st0" d="M32.1,22.5c1.2,0,2.1-0.9,2.1-2.1"/>
		<line class="st0" x1="38.2" y1="13.6" x2="38.2" y2="16.3"/>
		<path class="st0" d="M36.2,22.5c-1.2,0-2.1-0.9-2.1-2.1"/>
		<line class="st0" x1="34.1" y1="20.4" x2="34.1" y2="13"/>
		<line class="st0" x1="32.1" y1="22.5" x2="34.1" y2="22.5"/>
		<line class="st0" x1="34.1" y1="22.5" x2="36.2" y2="22.5"/>
		<path class="st0" d="M32.1,22.5c-1.2,0-2.1-0.9-2.1-2.1v-4.1"/>
		<path class="st0" d="M38.2,16.3v4.1c0,1.2-0.9,2.1-2.1,2.1"/>
	</g>
	<g>
		<line class="st0" x1="25" y1="13" x2="25" y2="41"/>
	</g>
	<g>
		<path class="st0" d="M15.9,13c2.3,0,4.1,2.2,4.1,4.9c0,2.7-1.8,4.9-4.1,4.9"/>
		<path class="st0" d="M15.9,13c-2.3,0-4.1,2.2-4.1,4.9c0,2.7,1.8,4.9,4.1,4.9"/>
		<line class="st0" x1="15.9" y1="22.9" x2="15.9" y2="41"/>
	</g>
</g>
</svg>
