<?xml version="1.0" encoding="utf-8"?>
<!-- Generator: Adobe Illustrator 22.0.1, SVG Export Plug-In . SVG Version: 6.00 Build 0)  -->
<svg version="1.1" id="Layer_1"
	xmlns="http://www.w3.org/2000/svg" x="0px" y="0px" viewBox="0 0 50 50"
	style="enable-background:new 0 0 50 50;" xml:space="preserve">
<path d="M48.2,20.8l-19-19C28.1,0.6,26.6,0,25,0c-1.6,0-3.1,0.6-4.2,1.8l-19,19C0.6,21.9,0,23.4,0,25s0.6,3.1,1.8,4.2
	C2.9,30.4,4.4,31,6,31c0.3,0,0.7,0,1-0.1V48c0,1.1,0.9,2,2,2h32c1.1,0,2-0.9,2-2V30.9c0.3,0.1,0.7,0.1,1,0.1c1.6,0,3.1-0.6,4.2-1.8
	c1.1-1.1,1.8-2.6,1.8-4.2S49.4,21.9,48.2,20.8z M11,46V28.5l14-14l14,14V46H11z M45.4,26.4C45,26.8,44.5,27,44,27
	c-0.4,0-0.7-0.1-1-0.3l0,0c-0.1-0.1-0.3-0.2-0.4-0.3L25,8.8L7.4,26.4c-0.1,0.1-0.2,0.2-0.4,0.3C6.7,26.9,6.4,27,6,27
	c-0.5,0-1-0.2-1.4-0.6c-0.8-0.8-0.8-2,0-2.8l19-19C24,4.2,24.5,4,25,4s1,0.2,1.4,0.6l19,19C46.2,24.4,46.2,25.6,45.4,26.4z"/>
</svg>
