<?xml version="1.0" encoding="utf-8"?>
<!-- Generator: Adobe Illustrator 22.0.1, SVG Export Plug-In . SVG Version: 6.00 Build 0)  -->
<svg version="1.1" id="Layer_1"
	xmlns="http://www.w3.org/2000/svg" x="0px" y="0px" viewBox="0 0 50 50"
	style="enable-background:new 0 0 50 50;" xml:space="preserve">
<g>
	<path d="M47.7,44.8c-0.6-0.8-1-1.5-1.2-2.4c4-5.4,4.6-12.8,1.3-18.6c-2.8-5-8.2-8.3-13.9-8.6C33,7.1,26.3,0.6,18.2,0
		C10.3-0.5,2.9,4.7,0.7,12.2c-1.5,5.1-0.4,10.7,2.7,14.9c-0.3,0.9-0.7,1.7-1.2,2.5c-0.8,1-2.1,1.6-1.6,3.1c0.4,1.3,1.9,1.6,3.1,1.8
		c2.8,0.5,5.7,0,8.1-1.5c1.4,0.5,2.8,0.8,4.3,0.8c0,0.1,0,0.2,0,0.3c1.1,9.3,9.6,16,19,14.8c1.2-0.2,2.3-0.4,3.2-0.7
		c2.8,1.7,6.4,2.1,9.6,1.1c1.3-0.5,2.2-1.9,1.3-3.2C48.7,45.7,48.2,45.2,47.7,44.8z M12.3,29.1c-1.1-0.5-1.9,0.3-2.8,0.8
		c-1,0.6-2.1,0.9-3.2,0.9c0.5-0.9,0.9-2,1.2-3C7.7,26.6,7.6,26,6.8,25c-1.2-1.6-2.1-3.4-2.5-5.4c-0.7-3.5,0-7.2,2.1-10.1
		c4-5.7,12.1-7.2,17.9-3.3c3.1,2.1,5.2,5.5,5.6,9.3c-2.2,0.4-4.4,1.3-6.2,2.5c-4.1,2.6-6.9,7.2-7.5,12c-0.2,0-0.5,0-0.7-0.1
		C14.2,29.7,13.2,29.5,12.3,29.1z M42.9,40.6c-1.2,1.4,0.1,4,0.8,5.3c-0.9-0.1-1.8-0.3-2.6-0.6c-0.7-0.3-1.3-0.9-2-1.1
		c-0.7-0.2-1.3,0-2,0.3c-0.8,0.3-1.7,0.5-2.6,0.6C27.5,46,21,40.9,20.1,33.7c-1-6.9,4.5-13.6,11.3-14.4c0.3,0,0.6,0,0.9-0.1
		c4.8-0.2,9.5,2.2,11.9,6.3C47,30.3,46.4,36.4,42.9,40.6z"/>
	<path d="M27,32.8c-2.6,0-2.6,4,0,4C29.6,36.8,29.6,32.8,27,32.8z"/>
	<path d="M33,32.8c-2.6,0-2.6,4,0,4C35.6,36.8,35.6,32.8,33,32.8z"/>
	<path d="M39,32.8c-2.6,0-2.6,4,0,4C41.6,36.8,41.6,32.8,39,32.8z"/>
</g>
</svg>
