<?xml version="1.0" encoding="utf-8"?>
<!-- Generator: Adobe Illustrator 21.1.0, SVG Export Plug-In . SVG Version: 6.00 Build 0)  -->
<svg version="1.1" id="Layer_1"
	xmlns="http://www.w3.org/2000/svg" x="0px" y="0px" viewBox="0 0 50 50"
	style="enable-background:new 0 0 50 50;" xml:space="preserve">
<path d="M49.4,6.7c-0.4-0.4-1-0.6-1.5-0.6V3c0-1.1-0.9-2-2-2H2C0.9,1,0,1.9,0,3V47c0,1.1,0.9,2,2,2h43.9c1.1,0,2-0.9,2-2v-36
	l1.5-1.4C50.2,8.7,50.2,7.5,49.4,6.7z M43.9,45H4V5h39.9v4.2L21.4,30.9l-9.2-9.8c-0.8-0.8-2-0.8-2.8-0.1c-0.8,0.8-0.8,2-0.1,2.8
	l10.6,11.3c0.4,0.4,0.9,0.6,1.4,0.6c0,0,0,0,0.1,0c0.5,0,1-0.2,1.4-0.6l21.2-20.4V45z"/>
</svg>
