<?xml version="1.0" encoding="utf-8"?>
<!-- Generator: Adobe Illustrator 22.0.1, SVG Export Plug-In . SVG Version: 6.00 Build 0)  -->
<svg version="1.1" id="Capa_1" xmlns="http://www.w3.org/2000/svg" xmlns:xlink="http://www.w3.org/1999/xlink" x="0px" y="0px"
	 viewBox="0 0 50 50" style="enable-background:new 0 0 50 50;" xml:space="preserve">
<style type="text/css">
	.st0{display:none;fill:none;stroke:#000000;stroke-width:4;stroke-linecap:round;stroke-linejoin:round;stroke-miterlimit:10;}
	
		.st1{display:none;opacity:0.5;fill:none;stroke:#000000;stroke-width:4;stroke-linecap:round;stroke-linejoin:round;stroke-miterlimit:10;}
	.st2{display:none;}
	
		.st3{display:inline;opacity:0.5;fill:none;stroke:#000000;stroke-width:4;stroke-linecap:round;stroke-linejoin:round;stroke-miterlimit:10;}
	.st4{fill:#FFFFFF;stroke:#C50053;stroke-width:4;stroke-linecap:round;stroke-linejoin:round;stroke-miterlimit:10;}
	.st5{fill:none;stroke:#C50053;stroke-width:2;stroke-linecap:round;stroke-linejoin:round;stroke-miterlimit:10;}
	.st6{fill:#FFFFFF;stroke:#C50053;stroke-width:2;stroke-linecap:round;stroke-linejoin:round;stroke-miterlimit:10;}
	.st7{display:none;fill:none;stroke:#C50053;stroke-width:2;stroke-linecap:round;stroke-linejoin:round;stroke-miterlimit:10;}
	.st8{display:none;fill:#FFFFFF;stroke:#C50053;stroke-width:2;stroke-linecap:round;stroke-linejoin:round;stroke-miterlimit:10;}
</style>
<image style="display:none;overflow:visible;" width="400" height="420" xlink:href="E4CF5CDE.jpg"  transform="matrix(0.1375 0 0 0.1375 -4 -2.2)">
</image>
<path class="st0" d="M67,34L67,34c-2.2,0-4-1.8-4-4V10c0-2.2,1.8-4,4-4h0c2.2,0,4,1.8,4,4v20C71,32.2,69.2,34,67,34z"/>
<path class="st1" d="M96.5,22c-3,0-5.5,1.7-6.7,4.2C89.2,26.1,88.6,26,88,26c-3.9,0-7,3.1-7,7v9.5c0,3.9,3.1,7,7,7
	c1.4,0,2.7-0.4,3.8-1.1c1.3,1,2.9,1.6,4.7,1.6c4.1,0,7.5-3.4,7.5-7.5v-13C104,25.4,100.6,22,96.5,22z"/>
<g class="st2">
	<path class="st3" d="M60,65.5L60,65.5c-3.9,0-7-3.1-7-7V49c0-3.9,3.1-7,7-7h0c3.9,0,7,3.1,7,7v9.5C67,62.4,63.9,65.5,60,65.5z"/>
	<path class="st3" d="M68.5,66L68.5,66c-4.1,0-7.5-3.4-7.5-7.5v-13c0-4.1,3.4-7.5,7.5-7.5h0c4.1,0,7.5,3.4,7.5,7.5v13
		C76,62.6,72.6,66,68.5,66z"/>
</g>
<path class="st4" d="M35.7,34l-1.1-1.3v-2.4v-0.8c0-0.3,0-3.2,0.1-3.8l1.5-16.2c0.2-2-1.3-3.7-3.3-3.9c-1.2-0.1-2.2,0.4-3,1.2
	L30,5.9c0.2-2-1.3-3.7-3.3-3.9c-2-0.2-3.7,1.3-3.9,3.3l-1.3,15c-0.9-0.3-1.9-0.3-2.9,0.1c-1.8,0.9-2.6,3-1.7,4.8l0.6,1.2
	c-0.5,0-1.1,0.1-1.6,0.3c-1.7,0.8-2.4,2.7-1.8,4.4c-0.1,0.5-0.2,1-0.2,1.6v8.6c0,3.5,2.8,6.3,6.3,6.3c1.3,0,2.5-0.4,3.5-1
	c1.2,0.9,2.6,1.5,4.2,1.5c3.7,0,6.8-3,6.8-6.8v-1.7c0.2-0.1,0.5-0.3,0.7-0.4C36.8,37.8,37,35.5,35.7,34z"/>
<g>
	<path class="st5" d="M27.8,22.7c-2.7,0-5,1.6-6.1,3.8c-0.5-0.1-1-0.2-1.6-0.2c-3.5,0-6.3,2.8-6.3,6.3v8.6c0,3.5,2.8,6.3,6.3,6.3
		c1.3,0,2.5-0.4,3.5-1c1.2,0.9,2.6,1.5,4.2,1.5c3.7,0,6.8-3,6.8-6.8V29.5C34.6,25.8,31.6,22.7,27.8,22.7z"/>
	<g>
		<path class="st6" d="M24.1,31L24.1,31c-2-0.2-3.5-1.9-3.3-3.9l1.9-21.8c0.2-2,1.9-3.5,3.9-3.3l0,0c2,0.2,3.5,1.9,3.3,3.9L28,27.7
			C27.9,29.7,26.1,31.2,24.1,31z"/>
		<path class="st6" d="M30.5,32L30.5,32c-2-0.2-3.5-1.9-3.3-3.9l1.7-19.3c0.2-2,1.9-3.5,3.9-3.3l0,0c2,0.2,3.5,1.9,3.3,3.9
			l-1.7,19.3C34.2,30.8,32.5,32.2,30.5,32z"/>
		<path class="st7" d="M31.2,38.8l-6.8-11.8c-0.6-1-0.6-2.3-0.2-3.3c-1.1,0.7-1.9,1.6-2.5,2.8c-0.5-0.1-1-0.2-1.6-0.2
			c-3.5,0-6.3,2.8-6.3,6.3v8.6c0,3.5,2.8,6.3,6.3,6.3c1.3,0,2.5-0.4,3.5-1c1.2,0.9,2.6,1.5,4.2,1.5c3.7,0,6.8-3,6.8-6.8v-0.6
			C33.3,40.7,31.9,40.1,31.2,38.8z"/>
		<path class="st6" d="M21.5,38.3L21.5,38.3c-1.8,0.9-4,0.1-4.8-1.7l-2.5-5.1c-0.9-1.8-0.1-4,1.7-4.8l0,0c1.8-0.9,4-0.1,4.8,1.7
			l2.5,5.1C24,35.3,23.3,37.4,21.5,38.3z"/>
		<path class="st6" d="M25.4,34.5L25.4,34.5c-1.8,0.9-4,0.1-4.8-1.7l-3.7-7.7c-0.9-1.8-0.1-4,1.7-4.8l0,0c1.8-0.9,4-0.1,4.8,1.7
			l3.7,7.7C28,31.5,27.2,33.7,25.4,34.5z"/>
		<path class="st8" d="M30.6,23.5c0-0.1-0.1-0.1-0.1-0.2c-1-1.6-3.1-2.1-4.8-1.2c-0.7,0.4-1.2,1-1.5,1.6c-0.5,1-0.4,2.2,0.2,3.3
			l6.8,11.8c0.7,1.2,2.1,1.9,3.4,1.8V30.3L30.6,23.5z"/>
	</g>
	<path class="st6" d="M35.7,34l-6.1-7.2c-0.4-0.4-0.8-0.7-1.3-0.9L27.2,25c-1.6-1.1-3.9-0.7-5,0.9c-1.1,1.6-0.7,3.9,0.9,5l1.5,1
		l5.6,6.6c1.3,1.5,3.6,1.7,5.1,0.4S37,35.5,35.7,34z"/>
</g>
<g>
	<path class="st6" d="M73.3,42.1L73.3,42.1c-1.5,1.3-3.8,1.1-5.1-0.4l-6.1-7.2c-1.3-1.5-1.1-3.8,0.4-5.1l0,0
		c1.5-1.3,3.8-1.1,5.1,0.4l6.1,7.2C75,38.5,74.8,40.8,73.3,42.1z"/>
	<path class="st6" d="M67.9,34.3L67.9,34.3c-1.1,1.6-3.4,2.1-5,0.9L61.1,34c-1.6-1.1-2.1-3.4-0.9-5l0,0c1.1-1.6,3.4-2.1,5-0.9
		l1.8,1.2C68.6,30.4,69,32.6,67.9,34.3z"/>
</g>
</svg>
