<?xml version="1.0" encoding="utf-8"?>
<!-- Generator: Adobe Illustrator 22.0.1, SVG Export Plug-In . SVG Version: 6.00 Build 0)  -->
<svg version="1.1" id="Capa_1" xmlns="http://www.w3.org/2000/svg" x="0px" y="0px"
	viewBox="0 0 50 50" style="enable-background:new 0 0 50 50;" xml:space="preserve">
<path d="M37.2,32.7l-0.6-0.7v-2.5c0-0.5,0-3.2,0.1-3.6l1.5-16.2c0.1-1.5-0.3-2.9-1.3-4.1c-1-1.2-2.3-1.9-3.8-2c-0.5,0-0.9,0-1.4,0.1
	c-0.7-2-2.5-3.4-4.8-3.6c-3.1-0.3-5.8,2-6.1,5.1L19.6,18c-0.7,0.1-1.3,0.2-1.9,0.5c-2.5,1.2-3.7,3.9-3,6.5c-2.2,1.2-3.3,3.7-2.7,6.1
	c-0.1,0.5-0.1,1-0.1,1.5v8.6c0,4.6,3.7,8.3,8.3,8.3c1.2,0,2.3-0.2,3.3-0.7c1.3,0.7,2.8,1.1,4.3,1.1c4.8,0,8.8-3.9,8.8-8.8v-0.7
	c1.1-1,1.8-2.3,1.9-3.8C38.7,35.3,38.2,33.8,37.2,32.7z M30,8.5c0.1-0.4,0.3-0.8,0.6-1.1c0.6-0.6,1.3-0.9,2.1-0.8
	c0.7,0.1,1.3,0.4,1.8,0.9s0.7,1.2,0.6,1.9l-1.8,20.2l-2.9-3.5c-0.4-0.5-0.9-0.9-1.5-1.2l-0.3-0.2l1.4-15.8C30,8.8,30,8.7,30,8.5z
	 M23.8,5.4c0.1-1.4,1.4-2.5,2.8-2.4c1.4,0.1,2.5,1.4,2.4,2.8l0,0.5c0,0.1-0.1,0.1-0.1,0.2c-0.1,0.1-0.1,0.2-0.2,0.2
	c-0.1,0.1-0.1,0.3-0.2,0.4c0,0.1-0.1,0.2-0.1,0.2c-0.1,0.1-0.1,0.3-0.2,0.5c0,0.1-0.1,0.1-0.1,0.2C28,8.3,28,8.5,28,8.8l-1.3,14.9
	c-0.1,0-0.2,0-0.3-0.1c-0.1,0-0.2-0.1-0.3-0.1c-0.2,0-0.4-0.1-0.6-0.1c-0.1,0-0.2,0-0.2,0c0,0,0,0-0.1,0l-0.8-1.8
	c-0.1-0.2-0.3-0.5-0.4-0.7c0-0.1-0.1-0.1-0.2-0.2c-0.1-0.1-0.2-0.3-0.4-0.4c-0.1-0.1-0.1-0.1-0.2-0.2c-0.2-0.1-0.3-0.3-0.5-0.4
	c-0.1,0-0.1-0.1-0.2-0.1c0,0,0,0,0,0L23.8,5.4z M17.7,22.8c0.2-0.7,0.7-1.2,1.3-1.5c0.4-0.2,0.7-0.3,1.1-0.3c0.3,0,0.6,0.1,0.9,0.2
	c0.6,0.2,1.1,0.7,1.4,1.3l0.6,1.3c-0.2,0.1-0.3,0.2-0.5,0.3c0,0,0,0-0.1,0c-0.2,0.1-0.4,0.3-0.6,0.5c0,0-0.1,0.1-0.1,0.1
	c-0.2,0.2-0.4,0.4-0.5,0.6c-0.7,1-1,2.2-0.7,3.5c0.2,1.2,0.9,2.3,1.9,3l1.4,0.9l0.8,1c-0.4,0.1-0.7,0.2-1.1,0.1
	c-0.9-0.1-1.7-0.6-2.1-1.5l-3.7-7.7C17.5,24.1,17.5,23.4,17.7,22.8z M15,29.1c0.2-0.7,0.7-1.2,1.3-1.5c0.2-0.1,0.4-0.1,0.5-0.2
	l0.5,0.9l2.4,4.9c0,0,0,0,0,0c0.1,0.3,0.3,0.5,0.4,0.7c0,0,0.1,0.1,0.1,0.1c0.2,0.2,0.4,0.4,0.6,0.6c0,0,0.1,0.1,0.1,0.1
	c0.2,0.2,0.4,0.3,0.6,0.4c0,0,0.1,0.1,0.1,0.1c0.2,0.1,0.5,0.2,0.8,0.3c0,0,0,0,0.1,0c-0.2,0.7-0.7,1.4-1.4,1.7
	c-0.6,0.3-1.3,0.3-2,0.1c-0.7-0.2-1.2-0.7-1.5-1.3l-2.5-5.1C14.8,30.4,14.8,29.7,15,29.1z M32.6,41.2c0,2.6-2.1,4.8-4.8,4.8
	c-1.1,0-2.1-0.4-3-1c-0.4-0.3-0.8-0.4-1.2-0.4c-0.4,0-0.8,0.1-1.1,0.3c-0.7,0.5-1.5,0.7-2.4,0.7c-2.4,0-4.3-1.9-4.3-4.3v-4
	c0.5,1,1.4,1.8,2.5,2.2c0.5,0.2,1,0.3,1.5,0.3c0.7,0,1.4-0.2,2-0.5c1.4-0.7,2.3-1.9,2.5-3.4c0.5-0.1,1-0.2,1.4-0.4
	c0.1,0,0.1-0.1,0.2-0.1l3.4,4c0.8,1,2,1.5,3.2,1.6V41.2z M34.6,38.3c-0.5,0.5-1.2,0.7-1.9,0.6c-0.7-0.1-1.3-0.4-1.8-0.9l-5.6-6.6
	l-1.7-1.2c-0.1-0.1-0.3-0.2-0.4-0.3c0,0,0,0,0-0.1c-0.1-0.1-0.2-0.2-0.3-0.3c0,0,0,0,0,0c-0.4-0.6-0.5-1.2-0.4-1.9c0,0,0,0,0,0
	c0-0.1,0.1-0.3,0.1-0.4c0,0,0-0.1,0-0.1c0.1-0.2,0.2-0.3,0.3-0.5c0.1-0.1,0.2-0.3,0.3-0.4c0.4-0.4,0.9-0.6,1.4-0.7
	c0.2,0,0.3,0,0.5,0c0,0,0.1,0,0.1,0c0.1,0,0.2,0,0.3,0c0,0,0.1,0,0.1,0c0.1,0,0.2,0.1,0.3,0.1c0,0,0.1,0,0.1,0.1
	c0.1,0.1,0.3,0.1,0.4,0.2l1.2,0.8l0,0l0.5,0.3l0,0c0.2,0.1,0.4,0.3,0.5,0.5l6.1,7.2l0,0c0.4,0.5,0.7,1.2,0.6,1.9
	S35.2,37.8,34.6,38.3z"/>
</svg>
