<?xml version="1.0" encoding="utf-8"?>
<!-- Generator: Adobe Illustrator 22.0.1, SVG Export Plug-In . SVG Version: 6.00 Build 0)  -->
<svg version="1.1" id="Layer_1"
	xmlns="http://www.w3.org/2000/svg" x="0px" y="0px" viewBox="0 0 46 46"
	style="enable-background:new 0 0 46 46;" xml:space="preserve">
<g>
	<path d="M23,0C10.3,0,0,10.3,0,23s10.3,23,23,23s23-10.3,23-23S35.7,0,23,0z M23,42C12.5,42,4,33.5,4,23S12.5,4,23,4s19,8.5,19,19
		S33.5,42,23,42z"/>
	<path d="M22.6,11c-0.1,0-0.3,0.1-0.4,0.1c-0.1,0-0.2,0.1-0.4,0.2c-0.1,0.1-0.2,0.1-0.3,0.2C21.2,12,21,12.5,21,13
		c0,0.1,0,0.3,0,0.4c0,0.1,0.1,0.3,0.1,0.4c0,0.1,0.1,0.2,0.2,0.3c0.1,0.1,0.1,0.2,0.3,0.3c0.1,0.1,0.2,0.2,0.3,0.3
		c0.1,0.1,0.2,0.1,0.4,0.2c0.1,0.1,0.2,0.1,0.4,0.1c0.1,0,0.3,0,0.4,0c0.5,0,1-0.2,1.4-0.6c0.1-0.1,0.2-0.2,0.3-0.3
		c0.1-0.1,0.1-0.2,0.2-0.3c0-0.1,0.1-0.3,0.1-0.4c0-0.1,0-0.3,0-0.4c0-0.5-0.2-1-0.6-1.4C23.9,11.1,23.3,10.9,22.6,11z"/>
	<path d="M23,17c-1.1,0-2,0.9-2,2v14c0,1.1,0.9,2,2,2s2-0.9,2-2V19C25,17.9,24.1,17,23,17z"/>
</g>
</svg>
