<?xml version="1.0" encoding="utf-8"?>
<!-- Generator: Adobe Illustrator 21.1.0, SVG Export Plug-In . SVG Version: 6.00 Build 0)  -->
<svg version="1.1" id="Layer_1"
	xmlns="http://www.w3.org/2000/svg" x="0px" y="0px" viewBox="0 0 50 50"
	style="enable-background:new 0 0 50 50;" xml:space="preserve">
<path d="M25,0C11.2,0,0,11.2,0,25s11.2,25,25,25s25-11.2,25-25S38.8,0,25,0z M25,46C13.4,46,4,36.6,4,25C4,13.4,13.4,4,25,4
	c11.6,0,21,9.4,21,21C46,36.6,36.6,46,25,46z"/>
<path d="M35,23h-8v-8c0-1.1-0.9-2-2-2s-2,0.9-2,2v8h-8c-1.1,0-2,0.9-2,2s0.9,2,2,2h8v8c0,1.1,0.9,2,2,2s2-0.9,2-2v-8h8
	c1.1,0,2-0.9,2-2S36.1,23,35,23z"/>
</svg>
