<?xml version="1.0" encoding="utf-8"?>
<!-- Generator: Adobe Illustrator 22.0.1, SVG Export Plug-In . SVG Version: 6.00 Build 0)  -->
<svg version="1.1" id="Layer_1"
	xmlns="http://www.w3.org/2000/svg" x="0px" y="0px" viewBox="0 0 50 50"
	style="enable-background:new 0 0 50 50;" xml:space="preserve">
<path d="M25,0C11.2,0,0,11.2,0,25s11.2,25,25,25s25-11.2,25-25S38.8,0,25,0z M25,46C13.4,46,4,36.6,4,25S13.4,4,25,4s21,9.4,21,21
	S36.6,46,25,46z"/>
<path d="M33.6,17.1L22.1,28.6l-5.7-5.7c-0.8-0.8-2-0.8-2.8,0s-0.8,2,0,2.8l7.1,7.1c0.4,0.4,0.9,0.6,1.4,0.6l0,0c0.5,0,1-0.2,1.4-0.6
	l12.9-13c0.8-0.8,0.8-2.1,0-2.8S34.4,16.3,33.6,17.1z"/>
</svg>
