<?xml version="1.0" encoding="utf-8"?>
<!-- Generator: Adobe Illustrator 22.0.1, SVG Export Plug-In . SVG Version: 6.00 Build 0)  -->
<svg version="1.1" id="Layer_1"
	xmlns="http://www.w3.org/2000/svg" x="0px" y="0px" viewBox="0 0 46 46"
	style="enable-background:new 0 0 46 46;" xml:space="preserve">
<g>
	<path d="M23,0C10.3,0,0,10.3,0,23s10.3,23,23,23s23-10.3,23-23S35.7,0,23,0z M23,42C12.5,42,4,33.5,4,23S12.5,4,23,4s19,8.5,19,19
		S33.5,42,23,42z"/>
	<path d="M24.7,31.9c-0.1-0.1-0.1-0.2-0.3-0.3c-0.1-0.1-0.2-0.2-0.3-0.3c-0.1-0.1-0.2-0.1-0.4-0.2C23.6,31,23.5,31,23.3,31
		c-0.1,0-0.3,0-0.4,0c-0.5,0-1,0.2-1.4,0.6c-0.1,0.1-0.2,0.2-0.3,0.3c-0.1,0.1-0.1,0.2-0.2,0.3c0,0.1-0.1,0.3-0.1,0.4
		c0,0.1,0,0.3,0,0.4c0,0.5,0.2,1,0.6,1.4c0.6,0.5,1.2,0.7,1.9,0.6c0.1,0,0.3-0.1,0.4-0.1c0.1,0,0.2-0.1,0.4-0.2
		c0.1-0.1,0.2-0.1,0.3-0.2c0.3-0.5,0.5-1,0.5-1.5c0-0.1,0-0.3,0-0.4c0-0.1-0.1-0.3-0.1-0.4C24.9,32.1,24.8,32,24.7,31.9z"/>
	<path d="M23,11c-1.1,0-2,0.9-2,2v14c0,1.1,0.9,2,2,2s2-0.9,2-2V13C25,11.9,24.1,11,23,11z"/>
</g>
</svg>
