<?xml version="1.0" encoding="UTF-8" standalone="no"?>
<!DOCTYPE svg PUBLIC "-//W3C//DTD SVG 1.1//EN" "http://www.w3.org/Graphics/SVG/1.1/DTD/svg11.dtd">
<svg width="100%" height="100%" viewBox="0 0 50 50" version="1.1" xmlns="http://www.w3.org/2000/svg" xmlns:xlink="http://www.w3.org/1999/xlink" xml:space="preserve" xmlns:serif="http://www.serif.com/" style="fill-rule:evenodd;clip-rule:evenodd;stroke-linejoin:round;stroke-miterlimit:2;">
    <g transform="matrix(1,0,0,1,-140,-210)">
        <g id="circulo-triangulo" transform="matrix(0.925926,0,0,0.925926,72.4074,211.852)">
            <rect x="73" y="-2" width="54" height="54" style="fill:none;"/>
            <g transform="matrix(1.08,0,0,1.08,73,-2)">
                <path d="M25,0C11.2,0 0,11.2 0,25C0,38.8 11.2,50 25,50C38.8,50 50,38.8 50,25C50,11.2 38.8,0 25,0ZM25,46C13.4,46 4,36.6 4,25C4,13.4 13.4,4 25,4C36.6,4 46,13.4 46,25C46,36.6 36.6,46 25,46Z" style="fill-rule:nonzero;"/>
            </g>
            <g transform="matrix(1.21687,-5.9952e-17,5.9952e-17,1.21687,70.646,-2.61824)">
                <path d="M25.66,12.711C25.343,12.162 24.757,11.824 24.123,11.824C23.488,11.824 22.902,12.162 22.585,12.711L13.938,27.688C13.621,28.238 13.621,28.914 13.938,29.463C14.255,30.013 14.841,30.351 15.476,30.351L32.769,30.351C33.404,30.351 33.99,30.013 34.307,29.463C34.624,28.914 34.624,28.238 34.307,27.688L25.66,12.711ZM24.123,17.149L29.695,26.801C29.695,26.801 18.55,26.801 18.55,26.801L24.123,17.149Z"/>
            </g>
            <g transform="matrix(1.21687,-5.9952e-17,5.9952e-17,1.21687,70.646,-2.61824)">
                <path d="M25.66,12.711C25.343,12.162 24.757,11.824 24.123,11.824C23.488,11.824 22.902,12.162 22.585,12.711L13.938,27.688C13.621,28.238 13.621,28.914 13.938,29.463C14.255,30.013 14.841,30.351 15.476,30.351L32.769,30.351C33.404,30.351 33.99,30.013 34.307,29.463C34.624,28.914 34.624,28.238 34.307,27.688L25.66,12.711ZM24.123,17.149L29.695,26.801C29.695,26.801 18.55,26.801 18.55,26.801L24.123,17.149Z"/>
            </g>
        </g>
    </g>
</svg>
