<?xml version="1.0" encoding="UTF-8" standalone="no"?>
<!DOCTYPE svg PUBLIC "-//W3C//DTD SVG 1.1//EN" "http://www.w3.org/Graphics/SVG/1.1/DTD/svg11.dtd">
<svg width="100%" height="100%" viewBox="0 0 50 50" version="1.1" xmlns="http://www.w3.org/2000/svg" xmlns:xlink="http://www.w3.org/1999/xlink" xml:space="preserve" xmlns:serif="http://www.serif.com/" style="fill-rule:evenodd;clip-rule:evenodd;stroke-linejoin:round;stroke-miterlimit:2;">
    <g transform="matrix(1,0,0,1,-350,-210)">
        <g id="circulo-play" transform="matrix(0.925926,0,0,0.925926,282.407,211.852)">
            <rect x="73" y="-2" width="54" height="54" style="fill:none;"/>
            <g transform="matrix(1.08,0,0,1.08,73,-2)">
                <path d="M25,0C11.2,0 0,11.2 0,25C0,38.8 11.2,50 25,50C38.8,50 50,38.8 50,25C50,11.2 38.8,0 25,0ZM25,46C13.4,46 4,36.6 4,25C4,13.4 13.4,4 25,4C36.6,4 46,13.4 46,25C46,36.6 36.6,46 25,46Z" style="fill-rule:nonzero;"/>
            </g>
            <g transform="matrix(0.957136,0.552603,-0.552603,0.957136,97.7292,-14.8524)">
                <path d="M10.037,22.604C9.339,22.604 8.693,22.977 8.344,23.582C7.995,24.186 7.995,24.931 8.344,25.536L18.116,42.461C18.465,43.066 19.111,43.439 19.809,43.439C20.507,43.439 21.152,43.066 21.501,42.461L31.273,25.536C31.622,24.931 31.622,24.186 31.273,23.582C30.924,22.977 30.279,22.604 29.581,22.604L10.037,22.604ZM13.422,26.513L26.196,26.513C26.196,26.513 19.809,37.575 19.809,37.575L13.422,26.513Z"/>
            </g>
        </g>
    </g>
</svg>
