<?xml version="1.0" encoding="utf-8"?>
<!-- Generator: Adobe Illustrator 22.0.1, SVG Export Plug-In . SVG Version: 6.00 Build 0)  -->
<svg version="1.1" id="Layer_1" xmlns="http://www.w3.org/2000/svg" x="0px" y="0px"
	viewBox="0 0 50 50" style="enable-background:new 0 0 50 50;" xml:space="preserve">
<path d="M30.5,50h-1c-4.8,0-9.3-2.2-12.4-5.9L5.3,32.2c-2.3-2.3-2.3-6.1,0-8.5C6.4,22.6,7.9,22,9.5,22c1.5,0,2.9,0.5,4,1.5V6
	c0-3.3,2.7-6,6-6s6,2.7,6,6v7.1c0.3-0.1,0.7-0.1,1-0.1c1.9,0,3.7,0.9,4.8,2.4c0.7-0.3,1.4-0.4,2.2-0.4c1.9,0,3.7,0.9,4.8,2.4
	c0.7-0.3,1.4-0.4,2.2-0.4c3.3,0,6,2.7,6,6v11C46.5,42.8,39.3,50,30.5,50z M9.5,26c-0.5,0-1,0.2-1.4,0.6c-0.8,0.8-0.8,2,0,2.8
	L20,41.3c0.1,0.1,0.1,0.1,0.1,0.2c2.3,2.9,5.7,4.5,9.3,4.5h1c6.6,0,12-5.4,12-12V23c0-1.1-0.9-2-2-2c-0.6,0-1.1,0.3-1.5,0.7
	c-0.5,0.6-1.3,0.9-2.1,0.6c-0.8-0.2-1.3-0.9-1.4-1.6c-0.1-1-1-1.7-2-1.7c-0.6,0-1.1,0.3-1.5,0.7c-0.5,0.6-1.3,0.9-2.1,0.6
	c-0.8-0.2-1.3-0.9-1.4-1.6c-0.1-1-1-1.7-2-1.7c-0.8,0-1.3,0.4-1.5,0.7c-0.5,0.6-1.4,0.9-2.2,0.6c-0.8-0.3-1.3-1-1.3-1.9V6
	c0-1.1-0.9-2-2-2s-2,0.9-2,2v22.3c0,0.8-0.5,1.5-1.2,1.8c-0.7,0.3-1.6,0.1-2.2-0.4l-3.2-3.2C10.5,26.2,10,26,9.5,26z"/>
</svg>
