<?xml version="1.0" encoding="utf-8"?>
<!-- Generator: Adobe Illustrator 21.1.0, SVG Export Plug-In . SVG Version: 6.00 Build 0)  -->
<svg version="1.1" id="Layer_1"
	xmlns="http://www.w3.org/2000/svg" x="0px" y="0px" viewBox="0 0 50 50"
	style="enable-background:new 0 0 50 50;" xml:space="preserve">
<path d="M40.2,35c-1.9,0-3.6,0.7-4.9,1.8L17.2,26.4c0.1-0.4,0.1-0.9,0.1-1.4s0-0.9-0.1-1.4l18.2-10.5c1.3,1.1,3,1.8,4.9,1.8
	c4.1,0,7.5-3.4,7.5-7.5S44.3,0,40.2,0s-7.5,3.4-7.5,7.5c0,0.5,0,0.9,0.1,1.4L14.7,19.3c-1.3-1.1-3-1.8-4.9-1.8
	c-4.1,0-7.5,3.4-7.5,7.5s3.4,7.5,7.5,7.5c1.9,0,3.6-0.7,4.9-1.8l18.2,10.5c-0.1,0.4-0.1,0.9-0.1,1.4c0,4.1,3.4,7.5,7.5,7.5
	s7.5-3.4,7.5-7.5S44.3,35,40.2,35z"/>
</svg>
