<?xml version="1.0" encoding="utf-8"?>
<!-- Generator: Adobe Illustrator 22.0.1, SVG Export Plug-In . SVG Version: 6.00 Build 0)  -->
<svg version="1.1" id="Layer_1"
	xmlns="http://www.w3.org/2000/svg" x="0px" y="0px" viewBox="0 0 50 50"
	style="enable-background:new 0 0 50 50;" xml:space="preserve">
<g>
	<path d="M35.5,0C27.5,0,21,6.5,21,14.5S27.5,29,35.5,29S50,22.5,50,14.5S43.5,0,35.5,0z M35.5,25C29.7,25,25,20.3,25,14.5
		S29.7,4,35.5,4S46,8.7,46,14.5S41.3,25,35.5,25z"/>
	<path d="M35.2,11.1c0.1,0,0.2,0,0.3,0c0.1,0,0.3,0,0.4,0c0.8,0.1,1.5,0.4,2.1,1c0.8,0.8,2,0.8,2.8,0s0.8-2,0-2.8
		c-1-1-2.1-1.6-3.3-1.9v-1c0-1.1-0.9-2-2-2s-2,0.9-2,2v1c-1.1,0.3-2.2,0.9-3.2,1.8c-1.5,1.4-2.3,3.3-2.2,5.3c0,1.9,0.8,3.8,2.2,5.3
		c0.9,0.9,2,1.6,3.2,1.9v1.1c0,1.1,0.9,2,2,2s2-0.9,2-2v-1.1c1.2-0.3,2.3-0.9,3.3-1.9c0.8-0.8,0.8-2,0.1-2.8c-0.8-0.8-2-0.8-2.8-0.1
		c-1.4,1.4-3.6,1.4-4.9,0.1c-0.7-0.7-1.1-1.6-1.1-2.5c0-0.9,0.3-1.7,1-2.3C33.7,11.5,34.4,11.2,35.2,11.1z"/>
	<path d="M7.4,23.2c0.1,0,0.3,0.1,0.5,0.1s0.3,0,0.5-0.1c2,0.2,3.4,1.8,3.4,3.9c0,1.1,0.9,2,2,2s2-0.9,2-2c0-3.7-2.5-6.8-5.9-7.6V18
		c0-1.1-0.9-2-2-2s-2,0.9-2,2v1.5C2.5,20.3,0,23.4,0,27.1C0,31.5,3.5,35,7.9,35c2.2,0,3.9,1.8,3.9,3.9c0,2-1.5,3.6-3.4,3.9
		c-0.1,0-0.3-0.1-0.5-0.1c-0.2,0-0.3,0-0.4,0.1C5.5,42.5,4,40.9,4,38.9c0-1.1-0.9-2-2-2s-2,0.9-2,2c0,3.7,2.5,6.7,5.9,7.6V48
		c0,1.1,0.9,2,2,2s2-0.9,2-2v-1.5c3.4-0.9,5.9-3.9,5.9-7.6c0-4.4-3.5-7.9-7.9-7.9C5.7,31,4,29.3,4,27.1C4,25.1,5.5,23.5,7.4,23.2z"
		/>
	<path d="M36.9,31.6c-0.8-0.8-2-0.8-2.8,0l-4,4c-0.8,0.8-0.8,2,0,2.8c0.4,0.4,0.9,0.6,1.4,0.6s1-0.2,1.4-0.6l0.6-0.6v0.6
		c0,1.4-1.2,2.6-2.6,2.6H18.5c-1.1,0-2,0.9-2,2s0.9,2,2,2h12.4c3.6,0,6.6-3,6.6-6.6v-0.6l0.6,0.6c0.4,0.4,0.9,0.6,1.4,0.6
		s1-0.2,1.4-0.6c0.8-0.8,0.8-2,0-2.8L36.9,31.6z"/>
</g>
</svg>
