<?xml version="1.0" encoding="utf-8"?>
<!-- Generator: Adobe Illustrator 22.0.1, SVG Export Plug-In . SVG Version: 6.00 Build 0)  -->
<svg version="1.1" id="Capa_1" xmlns="http://www.w3.org/2000/svg" x="0px" y="0px"
	viewBox="0 0 50 50" style="enable-background:new 0 0 50 50;" xml:space="preserve">
<g>
	<path d="M19,4c-1.1,0-2,0.9-2,2v8.2L3.4,0.6c-0.8-0.8-2-0.8-2.8,0c-0.8,0.8-0.8,2,0,2.8L14.2,17H6c-1.1,0-2,0.9-2,2s0.9,2,2,2h13
		c0.1,0,0.3,0,0.4,0c0.1,0,0.1,0,0.2-0.1c0.1,0,0.1,0,0.2-0.1c0.1,0,0.1-0.1,0.2-0.1c0.1,0,0.1-0.1,0.2-0.1c0.2-0.1,0.4-0.3,0.6-0.6
		c0,0,0.1-0.1,0.1-0.2c0-0.1,0.1-0.1,0.1-0.2c0-0.1,0-0.1,0.1-0.2c0-0.1,0-0.1,0.1-0.2c0-0.1,0-0.3,0-0.4V6C21,4.9,20.1,4,19,4z"/>
	<path d="M29.1,19.6c0,0.1,0,0.1,0.1,0.2c0,0.1,0.1,0.1,0.1,0.2c0,0.1,0.1,0.1,0.1,0.2c0.1,0.2,0.3,0.4,0.6,0.6c0,0,0.1,0.1,0.1,0.1
		c0.1,0,0.1,0.1,0.2,0.1c0.1,0,0.1,0,0.2,0.1c0.1,0,0.1,0,0.2,0.1c0.1,0,0.3,0,0.4,0h13c1.1,0,2-0.9,2-2s-0.9-2-2-2h-8.2L49.4,3.4
		c0.8-0.8,0.8-2,0-2.8c-0.8-0.8-2-0.8-2.8,0L33,14.2V6c0-1.1-0.9-2-2-2s-2,0.9-2,2v13c0,0.1,0,0.3,0,0.4
		C29.1,19.5,29.1,19.5,29.1,19.6z"/>
	<path d="M20.9,30.4c0-0.1,0-0.1-0.1-0.2c0-0.1-0.1-0.1-0.1-0.2c0,0,0-0.1-0.1-0.1c-0.1-0.2-0.3-0.4-0.6-0.6c-0.1,0-0.1-0.1-0.2-0.1
		c-0.1,0-0.1-0.1-0.2-0.1c-0.1,0-0.1,0-0.2-0.1c-0.1,0-0.1,0-0.2,0c-0.1,0-0.3,0-0.4,0H6c-1.1,0-2,0.9-2,2s0.9,2,2,2h8.2L0.6,46.6
		c-0.8,0.8-0.8,2,0,2.8C1,49.8,1.5,50,2,50s1-0.2,1.4-0.6L17,35.8V44c0,1.1,0.9,2,2,2s2-0.9,2-2V31c0-0.1,0-0.3,0-0.4
		C20.9,30.5,20.9,30.5,20.9,30.4z"/>
	<path d="M35.8,33H44c1.1,0,2-0.9,2-2s-0.9-2-2-2H31c-0.1,0-0.3,0-0.4,0c-0.1,0-0.1,0-0.2,0.1c-0.1,0-0.1,0-0.2,0.1
		c-0.1,0-0.1,0.1-0.2,0.1c0,0-0.1,0-0.1,0.1c-0.2,0.1-0.4,0.3-0.6,0.6c0,0-0.1,0.1-0.1,0.1c0,0.1-0.1,0.1-0.1,0.2
		c0,0.1,0,0.1-0.1,0.2c0,0.1,0,0.1-0.1,0.2c0,0.1,0,0.3,0,0.4v13c0,1.1,0.9,2,2,2s2-0.9,2-2v-8.2l13.6,13.6C47,49.8,47.5,50,48,50
		s1-0.2,1.4-0.6c0.8-0.8,0.8-2,0-2.8L35.8,33z"/>
</g>
</svg>
