<?xml version="1.0" encoding="UTF-8" standalone="no"?>
<!DOCTYPE svg PUBLIC "-//W3C//DTD SVG 1.1//EN" "http://www.w3.org/Graphics/SVG/1.1/DTD/svg11.dtd">
<svg width="100%" height="100%" viewBox="0 0 50 50" version="1.1" xmlns="http://www.w3.org/2000/svg" xmlns:xlink="http://www.w3.org/1999/xlink" xml:space="preserve" xmlns:serif="http://www.serif.com/" style="fill-rule:evenodd;clip-rule:evenodd;stroke-linejoin:round;stroke-miterlimit:2;">
    <g transform="matrix(1,0,0,1,-350,0)">
        <g id="contador" transform="matrix(0.925926,0,0,0.925926,282.407,1.85185)">
            <rect x="73" y="-2" width="54" height="54" style="fill:none;"/>
            <g transform="matrix(4.31967e-17,0.705455,-0.708869,4.34057e-17,117.218,21.8378)">
                <g opacity="0.5">
                    <g transform="matrix(6.12324e-17,-0.995184,1.00484,6.12323e-17,-9.47736,52.0346)">
                        <path d="M12.993,18L21.007,18L22.983,19.977L20.986,21.973L12.993,21.973L11.005,19.985L12.993,18Z"/>
                    </g>
                    <g transform="matrix(6.12324e-17,-0.995184,1.00484,6.12323e-17,3.29899,52.0346)">
                        <path d="M12.993,18L21.007,18L22.983,19.977L20.986,21.973L12.993,21.973L11.005,19.985L12.993,18Z"/>
                    </g>
                    <g transform="matrix(6.12324e-17,-0.995184,1.00484,6.12323e-17,-22.2536,52.0346)">
                        <path d="M12.993,18L21.007,18L22.983,19.977L20.986,21.973L12.993,21.973L11.005,19.985L12.993,18Z"/>
                    </g>
                    <g transform="matrix(1,1.2326e-32,0,1,-12.7762,8.74139)">
                        <path d="M12.993,18L21.007,18L22.983,19.977L20.986,21.973L12.993,21.973L11.005,19.985L12.993,18Z"/>
                    </g>
                    <g transform="matrix(1,1.2326e-32,0,1,-7.10543e-15,8.74139)">
                        <path d="M12.993,18L21.007,18L22.983,19.977L20.986,21.973L12.993,21.973L11.005,19.985L12.993,18Z"/>
                    </g>
                    <g transform="matrix(1,1.2326e-32,0,1,-7.10543e-15,21.4561)">
                        <path d="M12.993,18L21.007,18L22.983,19.977L20.986,21.973L12.993,21.973L11.005,19.985L12.993,18Z"/>
                    </g>
                    <g transform="matrix(1,1.2326e-32,0,1,-12.7762,21.4561)">
                        <path d="M12.993,18L21.007,18L22.983,19.977L20.986,21.973L12.993,21.973L11.005,19.985L12.993,18Z"/>
                    </g>
                    <g transform="matrix(6.12324e-17,-0.995184,1.00484,6.12323e-17,-22.2536,30.5785)">
                        <path d="M12.993,18L21.007,18L22.983,19.977L20.986,21.973L12.993,21.973L11.005,19.985L12.993,18Z"/>
                    </g>
                    <g transform="matrix(6.12324e-17,-0.995184,1.00484,6.12323e-17,-9.47736,30.5785)">
                        <path d="M12.993,18L21.007,18L22.983,19.977L20.986,21.973L12.993,21.973L11.005,19.985L12.993,18Z"/>
                    </g>
                    <g transform="matrix(6.12324e-17,-0.995184,1.00484,6.12323e-17,3.29899,30.5785)">
                        <path d="M12.993,18L21.007,18L22.983,19.977L20.986,21.973L12.993,21.973L11.005,19.985L12.993,18Z"/>
                    </g>
                    <g transform="matrix(1,1.2326e-32,0,1,-12.7762,-12.7147)">
                        <path d="M12.993,18L21.007,18L22.983,19.977L20.986,21.973L12.993,21.973L11.005,19.985L12.993,18Z"/>
                    </g>
                    <g transform="matrix(1,1.2326e-32,0,1,-12.7762,-7.10543e-14)">
                        <path d="M12.993,18L21.007,18L22.983,19.977L20.986,21.973L12.993,21.973L11.005,19.985L12.993,18Z"/>
                    </g>
                    <path d="M12.993,18L21.007,18L22.983,19.977L20.986,21.973L12.993,21.973L11.005,19.985L12.993,18Z"/>
                    <g transform="matrix(1,0,0,1,0,-12.8509)">
                        <path d="M12.993,18L21.007,18L22.983,19.977L20.986,21.973L12.993,21.973L11.005,19.985L12.993,18Z"/>
                    </g>
                </g>
            </g>
            <g transform="matrix(-0.0738238,0.667984,-1.16629,0.147058,119.648,-19.0027)">
                <path d="M30.708,0.464L39.324,3.002C40.77,3.428 42.847,3.001 43.959,2.049C45.072,1.096 44.802,-0.022 43.357,-0.448L34.74,-2.986C33.295,-3.412 31.218,-2.984 30.105,-2.032C28.992,-1.08 29.262,0.038 30.708,0.464Z"/>
            </g>
            <g transform="matrix(1.51859,0,0,1.51859,73.5195,-8.0004)">
                <path d="M32.372,17.819C32.372,13.302 28.711,9.641 24.194,9.641L10.681,9.641C6.164,9.641 2.503,13.302 2.503,17.819C2.503,17.819 2.503,31.332 2.503,31.332C2.503,35.849 6.164,39.51 10.681,39.51C10.681,39.51 24.194,39.51 24.194,39.51C28.711,39.51 32.372,35.849 32.372,31.332C32.372,31.332 32.372,17.819 32.372,17.819ZM29.528,17.819L29.528,31.332C29.528,34.277 27.139,36.666 24.194,36.666L10.681,36.666C7.736,36.666 5.347,34.277 5.347,31.332L5.347,17.819C5.347,14.874 7.736,12.485 10.681,12.485C10.681,12.485 24.194,12.485 24.194,12.485C27.139,12.485 29.528,14.874 29.528,17.819Z"/>
            </g>
            <g transform="matrix(1.59851,0,0,1.59851,72.1261,-11.0443)">
                <path d="M24.194,5.659C24.194,5.659 24.194,5.659 24.194,5.659C23.744,5.659 22.842,6.265 22.842,7.01C22.842,7.756 23.448,8.362 24.194,8.362C24.194,8.362 24.194,8.362 24.194,8.362C27.354,8.362 30.152,9.912 31.87,12.293C32.306,12.898 33.151,13.035 33.756,12.598C34.361,12.162 34.498,11.317 34.061,10.712C31.853,7.651 28.256,5.659 24.194,5.659Z"/>
            </g>
        </g>
    </g>
</svg>
