<?xml version="1.0" encoding="utf-8"?>
<!-- Generator: Adobe Illustrator 21.1.0, SVG Export Plug-In . SVG Version: 6.00 Build 0)  -->
<svg version="1.1" id="Layer_1"
	xmlns="http://www.w3.org/2000/svg" x="0px" y="0px" viewBox="0 0 50 50"
	style="enable-background:new 0 0 50 50;" xml:space="preserve">
<path d="M47.3,9.7c-2.6-4.1-6.9-7.2-12.5-7.2c-3.7,0-7.2,1.3-9.9,3.7c-2.7-2.2-6.1-3.5-9.7-3.5C9.7,2.8,5.3,5.9,2.7,10
	c-2.6,4.1-3.5,9.4-1.9,14.2c0.6,2.3,2.1,4.8,4.4,7.4c2.3,2.6,5.7,5.7,10.1,9.1c2.9,2.2,5.9,4.6,9.1,6.5c0.6,0.4,1.4,0.4,2,0
	c3.2-2,6.2-4.4,9-6.7c4.2-3.5,7.5-6.6,9.8-9.3c2.2-2.6,3.8-5.1,4.3-7.4C50.7,19,49.8,13.7,47.3,9.7z M42.7,18.7
	c0,0.7-0.1,1.5-0.3,2.2V21l-0.1,0.4c0,0,0,0,0,0.1c-0.1,0.5-0.5,0.8-1,0.8c-0.1,0-0.1,0-0.2,0c-0.6-0.1-0.9-0.7-0.8-1.3v-0.1
	l0.1-0.5v-0.1c0.2-0.6,0.3-1.3,0.3-2c0-2.3-1.1-4.3-2.7-5.3c-0.7-0.4-1.5-0.7-2.3-0.7c-0.6,0-1.1-0.5-1.1-1.1c0-0.6,0.5-1.1,1.1-1.1
	c1,0,2,0.3,2.9,0.7c2.3,1.4,4,4.2,4.1,7.6C42.7,18.5,42.7,18.6,42.7,18.7z"/>
</svg>
