<?xml version="1.0" encoding="utf-8"?>
<!-- Generator: Adobe Illustrator 21.1.0, SVG Export Plug-In . SVG Version: 6.00 Build 0)  -->
<svg version="1.1" id="Layer_1"
	xmlns="http://www.w3.org/2000/svg" x="0px" y="0px" viewBox="0 0 50 50"
	style="enable-background:new 0 0 50 50;" xml:space="preserve">
<path d="M47.3,9.7c-2.6-4.1-6.9-7.2-12.5-7.2h0c-3.7,0-7.2,1.3-9.9,3.7c-2.7-2.2-6.1-3.5-9.7-3.5h0h0C9.7,2.8,5.3,5.9,2.7,10
	c-2.6,4.1-3.5,9.4-1.9,14.2c0.5,2.3,2.1,4.8,4.4,7.4c2.3,2.6,5.7,5.7,10.1,9.1l0,0c2.9,2.2,5.9,4.6,9.1,6.5c0.6,0.4,1.4,0.4,2,0
	c3.2-2,6.2-4.4,9-6.7c4.2-3.5,7.5-6.6,9.8-9.3c2.3-2.6,3.8-5.1,4.3-7.4C50.7,19,49.8,13.7,47.3,9.7z M45.5,22.7c0,0.1,0,0.1,0,0.2
	c-0.2,1.3-1.2,3.1-3.4,5.7c-2.1,2.5-5.2,5.4-9.3,8.8l0,0c-2.4,2.1-4.8,4-7.4,5.7c-2.6-1.6-5.1-3.6-7.6-5.6c-4.2-3.4-7.4-6.2-9.6-8.7
	c-2.2-2.5-3.2-4.3-3.5-5.7c0-0.1,0-0.1-0.1-0.2c-1.2-3.6-0.5-7.7,1.5-10.9c2-3.2,5.2-5.4,9.1-5.4c3.2,0,6.2,1.3,8.3,3.6
	c0.4,0.4,0.9,0.7,1.5,0.7c0.6,0,1.1-0.3,1.5-0.7c2.1-2.4,5.2-3.8,8.4-3.8c3.9,0,7.1,2.1,9.1,5.3C45.9,15,46.6,19.1,45.5,22.7z"/>
<path d="M38.4,10.9c-0.9-0.5-1.9-0.7-2.9-0.7c0,0,0,0,0,0c-0.6,0-1.1,0.5-1.1,1.1c0,0.6,0.5,1.1,1.1,1.1c0,0,0,0,0,0
	c0.8,0,1.6,0.2,2.3,0.7c1.6,1,2.6,3,2.7,5.3c0,0,0,0,0,0c0,0,0,0,0,0c0,0,0,0,0,0c0,0.7-0.1,1.3-0.3,2l0,0l0,0.1L40.2,21l0,0.1
	c0,0,0,0,0,0c-0.1,0.6,0.3,1.1,0.8,1.3c0.1,0,0.1,0,0.2,0c0.5,0,0.9-0.3,1-0.8c0,0,0,0,0-0.1l0,0l0.1-0.4c0,0,0,0,0,0
	c0,0,0-0.1,0-0.1c0.2-0.7,0.3-1.4,0.3-2.2c0-0.1,0-0.2,0-0.3c0,0,0,0,0,0c0,0,0,0,0,0C42.6,15,40.9,12.2,38.4,10.9z"/>
</svg>
