<?xml version="1.0" encoding="UTF-8" standalone="no"?>
<!DOCTYPE svg PUBLIC "-//W3C//DTD SVG 1.1//EN" "http://www.w3.org/Graphics/SVG/1.1/DTD/svg11.dtd">
<svg width="100%" height="100%" viewBox="0 0 50 50" version="1.1" xmlns="http://www.w3.org/2000/svg" xmlns:xlink="http://www.w3.org/1999/xlink" xml:space="preserve" xmlns:serif="http://www.serif.com/" style="fill-rule:evenodd;clip-rule:evenodd;stroke-linejoin:round;stroke-miterlimit:2;">
    <g transform="matrix(1,0,0,1,-210,-70)">
        <g id="cuadrado-pausa" transform="matrix(0.925926,0,0,0.925926,142.407,71.8519)">
            <rect x="73" y="-2" width="54" height="54" style="fill:none;"/>
            <g transform="matrix(1.08,0,0,1.08,74.004,-1.43945)">
                <path d="M49.047,5.504C49.047,2.191 46.361,-0.496 43.047,-0.496L5.094,-0.496C1.78,-0.496 -0.906,2.191 -0.906,5.504L-0.906,43.458C-0.906,46.771 1.78,49.458 5.094,49.458L43.047,49.458C46.361,49.458 49.047,46.771 49.047,43.458L49.047,5.504ZM45.047,5.504L45.047,43.458C45.047,44.562 44.152,45.458 43.047,45.458C43.047,45.458 5.094,45.458 5.094,45.458C3.989,45.458 3.094,44.562 3.094,43.458C3.094,43.458 3.094,5.504 3.094,5.504C3.094,4.4 3.989,3.504 5.094,3.504C5.094,3.504 43.047,3.504 43.047,3.504C44.152,3.504 45.047,4.4 45.047,5.504Z"/>
            </g>
            <g transform="matrix(1.11087,0,0,1.11087,72.8469,-2.51426)">
                <path d="M14.721,16.99L14.721,32.546C14.721,33.619 15.592,34.49 16.665,34.49C17.739,34.49 18.61,33.619 18.61,32.546L18.61,16.99C18.61,15.917 17.739,15.046 16.665,15.046C15.592,15.046 14.721,15.917 14.721,16.99Z"/>
            </g>
            <g transform="matrix(1.11087,0,0,1.11087,72.8469,-2.51426)">
                <path d="M34.165,32.546L34.165,16.99C34.165,15.917 33.294,15.046 32.221,15.046C31.148,15.046 30.276,15.917 30.276,16.99L30.276,32.546C30.276,33.619 31.148,34.49 32.221,34.49C33.294,34.49 34.165,33.619 34.165,32.546Z"/>
            </g>
        </g>
    </g>
</svg>
