<?xml version="1.0" encoding="UTF-8" standalone="no"?>
<!DOCTYPE svg PUBLIC "-//W3C//DTD SVG 1.1//EN" "http://www.w3.org/Graphics/SVG/1.1/DTD/svg11.dtd">
<svg width="100%" height="100%" viewBox="0 0 50 50" version="1.1" xmlns="http://www.w3.org/2000/svg" xmlns:xlink="http://www.w3.org/1999/xlink" xml:space="preserve" xmlns:serif="http://www.serif.com/" style="fill-rule:evenodd;clip-rule:evenodd;stroke-linejoin:round;stroke-miterlimit:2;">
    <g transform="matrix(1,0,0,1,-350,-70)">
        <g id="cuadrado-play" transform="matrix(0.925926,0,0,0.925926,282.407,71.8519)">
            <rect x="73" y="-2" width="54" height="54" style="fill:none;"/>
            <g transform="matrix(1.08,0,0,1.08,74.004,-1.43945)">
                <path d="M49.047,5.504C49.047,2.191 46.361,-0.496 43.047,-0.496L5.094,-0.496C1.78,-0.496 -0.906,2.191 -0.906,5.504L-0.906,43.458C-0.906,46.771 1.78,49.458 5.094,49.458L43.047,49.458C46.361,49.458 49.047,46.771 49.047,43.458L49.047,5.504ZM45.047,5.504L45.047,43.458C45.047,44.562 44.152,45.458 43.047,45.458C43.047,45.458 5.094,45.458 5.094,45.458C3.989,45.458 3.094,44.562 3.094,43.458C3.094,43.458 3.094,5.504 3.094,5.504C3.094,4.4 3.989,3.504 5.094,3.504C5.094,3.504 43.047,3.504 43.047,3.504C44.152,3.504 45.047,4.4 45.047,5.504Z"/>
            </g>
            <g transform="matrix(0.942815,0.544334,-0.544334,0.942815,86.6499,-13.2318)">
                <path d="M16.366,18.205C15.657,18.205 15.002,18.584 14.648,19.197C14.293,19.811 14.293,20.568 14.648,21.182L24.098,37.55C24.452,38.164 25.107,38.542 25.816,38.542C26.525,38.542 27.18,38.164 27.535,37.55L36.985,21.182C37.339,20.568 37.339,19.811 36.985,19.197C36.631,18.584 35.976,18.205 35.267,18.205L16.366,18.205ZM19.802,22.174L31.83,22.174C31.83,22.174 25.816,32.59 25.816,32.59C25.816,32.59 19.802,22.174 19.802,22.174Z"/>
            </g>
        </g>
    </g>
</svg>
