<?xml version="1.0" encoding="utf-8"?>
<!-- Generator: Adobe Illustrator 21.1.0, SVG Export Plug-In . SVG Version: 6.00 Build 0)  -->
<svg version="1.1" id="Layer_1"
	xmlns="http://www.w3.org/2000/svg" x="0px" y="0px" viewBox="0 0 50 50"
	style="enable-background:new 0 0 50 50;" xml:space="preserve">
<path d="M44.9,10.1C44.9,10.1,44.9,10.1,44.9,10.1c-0.4-2.6-2.4-4.6-5-5c0,0,0,0,0,0C39.5,2.2,37,0,34,0H6C2.7,0,0,2.7,0,6v28
	c0,3,2.2,5.5,5.2,5.9c0,0-0.1,0-0.1,0c0.4,2.6,2.4,4.6,5,5c0,0,0,0,0,0C10.5,47.8,13,50,16,50h28c3.3,0,6-2.7,6-6V16
	C50,13,47.8,10.5,44.9,10.1z M6,36c-1.1,0-2-0.9-2-2V6c0-1.1,0.9-2,2-2h28c1.1,0,2,0.9,2,2v28c0,1.1-0.9,2-2,2H6z M11,41
	c-0.7,0-1.4-0.4-1.7-1H34c3.3,0,6-2.7,6-6V9.3c0.6,0.3,1,1,1,1.7v28c0,1.1-0.9,2-2,2H11z M46,44c0,1.1-0.9,2-2,2H16
	c-0.7,0-1.4-0.4-1.7-1l0,0H39c3.3,0,6-2.7,6-6V14.3c0.6,0.3,1,1,1,1.7V44z"/>
</svg>
