<?xml version="1.0" encoding="utf-8"?>
<!-- Generator: Adobe Illustrator 21.1.0, SVG Export Plug-In . SVG Version: 6.00 Build 0)  -->
<svg version="1.1" id="Layer_1"
	xmlns="http://www.w3.org/2000/svg" x="0px" y="0px" viewBox="0 0 50 50"
	style="enable-background:new 0 0 50 50;" xml:space="preserve">
<g>
	<path d="M11.6,16.8l12.1,9.8c0.4,0.3,0.8,0.4,1.3,0.4c0.6,0,1.2-0.3,1.6-0.7c0.7-0.9,0.6-2.1-0.3-2.8l-12.1-9.8
		c-0.9-0.7-2.1-0.6-2.8,0.3C10.7,14.8,10.8,16.1,11.6,16.8z"/>
	<path d="M25,0c-1.1,0-2,0.9-2,2v7.1c0,1.1,0.9,2,2,2s2-0.9,2-2v-5c10.6,1,19,10,19,20.9c0,11.6-9.4,21-21,21C13.4,46,4,36.6,4,25
		c0-4.7,1.5-9.2,4.5-12.9C9.2,11.3,9,10,8.1,9.3C7.3,8.6,6,8.8,5.3,9.7C1.8,14,0,19.4,0,25c0,13.8,11.2,25,25,25s25-11.2,25-25
		S38.8,0,25,0z"/>
</g>
</svg>
