<?xml version="1.0" encoding="utf-8"?>
<!-- Generator: Adobe Illustrator 22.0.1, SVG Export Plug-In . SVG Version: 6.00 Build 0)  -->
<svg version="1.1" id="Layer_1"
	xmlns="http://www.w3.org/2000/svg" x="0px" y="0px" viewBox="0 0 50 50"
	style="enable-background:new 0 0 50 50;" xml:space="preserve">
<g>
	<path d="M48,23c-1.1,0-2,0.9-2,2v21H4V25c0-1.1-0.9-2-2-2s-2,0.9-2,2v23c0,1.1,0.9,2,2,2h46c1.1,0,2-0.9,2-2V25
		C50,23.9,49.1,23,48,23z"/>
	<path d="M23.6,39.5c0.4,0.4,0.9,0.6,1.4,0.6s1-0.2,1.4-0.6L37,28.9c0.8-0.8,0.8-2,0-2.8s-2-0.8-2.8,0L27,33.3V2c0-1.1-0.9-2-2-2
		s-2,0.9-2,2v31.3l-7.2-7.2c-0.8-0.8-2-0.8-2.8,0c-0.8,0.8-0.8,2,0,2.8L23.6,39.5z"/>
</g>
</svg>
