<?xml version="1.0" encoding="utf-8"?>
<!-- Generator: Adobe Illustrator 22.0.1, SVG Export Plug-In . SVG Version: 6.00 Build 0)  -->
<svg version="1.1" id="Layer_1"
	xmlns="http://www.w3.org/2000/svg" x="0px" y="0px" viewBox="0 0 50 50"
	style="enable-background:new 0 0 50 50;" xml:space="preserve">
<path d="M25,0c1.1,0,2,0.9,2,2s-0.9,2-2,2C13.4,4,4,13.4,4,25s9.4,21,21,21s21-9.4,21-21c0-0.6,0-1.2-0.1-1.8c0-0.1,0-0.2,0-0.4
	c-0.3-2.9-1.2-5.6-2.6-8.1c0,1.1-0.9,2-2,2c-1.1,0-2-0.9-2-2v-6c0-0.1,0-0.2,0-0.3c0,0,0,0,0-0.1s0.1-0.3,0.1-0.4
	c0.1-0.1,0.1-0.2,0.2-0.3c0,0,0,0,0-0.1c0.1-0.1,0.1-0.2,0.2-0.3l0.1-0.1c0.2,0,0.2,0,0.3-0.1c0.1,0,0.1,0,0.2-0.1
	c0.1,0,0.1-0.1,0.2-0.1c0.1,0,0.1,0,0.2-0.1c0.1,0,0.1,0,0.2,0s0.2,0,0.3,0h0.1h6c1.1,0,2,0.9,2,2s-0.9,2-2,2h-1.8
	c1.1,1.6,2,3.4,2.7,5.3c0.1,0.2,0.2,0.4,0.2,0.7c0.1,0.4,0.3,0.8,0.4,1.2c0.1,0.3,0.2,0.7,0.3,1c0.1,0.3,0.2,0.7,0.2,1
	c0.1,0.3,0.1,0.7,0.2,1c0.1,0.4,0.1,0.8,0.2,1.2c0,0.3,0.1,0.6,0.1,0.9c0.1,0.6,0.1,1.3,0.1,2c0,13.8-11.2,25-25,25S0,38.8,0,25
	S11.2,0,25,0z"/>
</svg>
