<?xml version="1.0" encoding="utf-8"?>
<!-- Generator: Adobe Illustrator 22.0.1, SVG Export Plug-In . SVG Version: 6.00 Build 0)  -->
<svg version="1.1" id="Layer_1"
	xmlns="http://www.w3.org/2000/svg" x="0px" y="0px" viewBox="0 0 50 50"
	style="enable-background:new 0 0 50 50;" xml:space="preserve">
<path d="M49.7,10l-4-7c-0.4-0.6-1-1-1.7-1H27c0-1.1-0.9-2-2-2s-2,0.9-2,2v2v5H6c-0.7,0-1.4,0.4-1.7,1l-4,7c-0.4,0.6-0.4,1.4,0,2l4,7
	c0.4,0.6,1,1,1.7,1h17v21c0,1.1,0.9,2,2,2s2-0.9,2-2V25v-5h17c0.7,0,1.4-0.4,1.7-1l4-7C50.1,11.4,50.1,10.6,49.7,10z M7.2,23l-2.9-5
	l2.9-5H23v5v5H7.2z M42.8,16H27v-5V6h15.8l2.9,5L42.8,16z"/>
</svg>
