<?xml version="1.0" encoding="utf-8"?>
<!-- Generator: Adobe Illustrator 22.0.1, SVG Export Plug-In . SVG Version: 6.00 Build 0)  -->
<svg version="1.1" id="Capa_1" xmlns="http://www.w3.org/2000/svg" x="0px" y="0px"
	viewBox="0 0 50 50" style="enable-background:new 0 0 50 50;" xml:space="preserve">
<style type="text/css">
	.st0{display:none;}
	.st1{display:inline;fill:none;stroke:#000000;stroke-width:8;stroke-opacity:0.3;}
	.st2{display:inline;fill:none;stroke:#000000;stroke-width:8;stroke-opacity:0.5;}
	.st3{display:inline;opacity:0.2;fill:none;stroke:#000000;stroke-width:8;enable-background:new    ;}
</style>
<g class="st0">
	<rect x="4" y="4" class="st1" width="192" height="192"/>
	<rect x="12" y="12" class="st2" width="176" height="176"/>
	<rect x="20" y="20" class="st3" width="160" height="160"/>
</g>
<path d="M49.8,23.8c0-0.2-0.1-0.4-0.1-0.5c0-0.1-0.1-0.3-0.2-0.6s-0.2-0.5-0.3-0.6c-0.1-0.1-0.2-0.3-0.3-0.5
	c-0.2-0.3-0.5-0.6-0.7-0.9l-5-5C42.1,14.6,40.6,14,39,14s-3.1,0.6-4.2,1.8c-0.9,0.9-1.5,2-1.7,3.2c-0.7,0-1.4,0.1-2.1,0.2v-2.3
	c1.2-0.2,2.4-0.8,3.2-1.7c1.1-1.1,1.8-2.6,1.8-4.2s-0.6-3.1-1.8-4.2l-5-5C29,1.5,28.7,1.2,28.3,1c-0.2-0.1-0.4-0.2-0.5-0.3
	c-0.1-0.1-0.3-0.2-0.5-0.3c-0.3-0.1-0.5-0.2-0.6-0.2c-0.1,0-0.3-0.1-0.5-0.1C25.8,0,25.4,0,25,0s-0.8,0-1.2,0.1
	c-0.2,0-0.4,0.1-0.5,0.1c-0.1,0-0.3,0.1-0.6,0.2c-0.3,0.1-0.4,0.2-0.6,0.3C22,0.8,21.9,0.9,21.7,1c-0.3,0.2-0.6,0.5-0.9,0.7l-5,5
	C14.6,7.9,14,9.4,14,11s0.6,3.1,1.8,4.2c0.9,0.9,2,1.5,3.2,1.7v2.3c-0.7-0.1-1.4-0.2-2.1-0.2c-0.2-1.2-0.8-2.4-1.7-3.2
	C14.1,14.6,12.6,14,11,14s-3.1,0.6-4.2,1.8l-5,5C1.5,21,1.2,21.3,1,21.7c-0.1,0.2-0.2,0.4-0.3,0.5c-0.1,0.1-0.2,0.3-0.3,0.6
	c-0.1,0.2-0.2,0.5-0.2,0.6c0,0.1-0.1,0.3-0.1,0.5c-0.2,0.8-0.2,1.6,0,2.3c0,0.2,0.1,0.4,0.1,0.5c0,0.1,0.1,0.3,0.2,0.6
	c0.1,0.3,0.2,0.5,0.3,0.6C0.8,28,0.9,28.1,1,28.3c0.2,0.3,0.5,0.6,0.7,0.9l5,5C7.9,35.4,9.4,36,11,36s3.1-0.6,4.2-1.8
	c0.9-0.9,1.5-2,1.7-3.2c1.2,0.1,2.1,1.1,2.1,2.3V44c0,3.3,2.7,6,6,6s6-2.7,6-6V33.3c0-1.2,0.9-2.2,2.1-2.3c0.2,1.2,0.8,2.3,1.7,3.2
	c1.1,1.1,2.6,1.8,4.2,1.8s3.1-0.6,4.2-1.8l5-5c0.3-0.3,0.5-0.6,0.7-0.9c0.1-0.2,0.2-0.4,0.3-0.5c0.1-0.1,0.2-0.3,0.3-0.6
	s0.2-0.5,0.2-0.6c0-0.1,0.1-0.3,0.1-0.5C50,25.3,50,24.5,49.8,23.8z M21.4,12.4C21,12.8,20.5,13,20,13s-1-0.2-1.4-0.6
	c-0.8-0.8-0.8-2,0-2.8l5-5c0.1-0.1,0.2-0.2,0.3-0.3c0.1,0,0.1-0.1,0.2-0.1c0.1,0,0.1-0.1,0.2-0.1c0.1,0,0.1,0,0.2-0.1
	c0.1,0,0.1,0,0.2,0c0,0,0.2,0,0.3,0s0.3,0,0.4,0c0.1,0,0.1,0,0.2,0c0.1,0,0.1,0,0.2,0.1c0.1,0,0.1,0.1,0.2,0.1s0.1,0.1,0.2,0.1
	c0.1,0.1,0.2,0.2,0.3,0.3l5,5c0.8,0.8,0.8,2,0,2.8C31,12.8,30.5,13,30,13s-1-0.2-1.4-0.6L27,10.8v9.7c-0.7,0.3-1.4,0.7-2,1.2
	c-0.6-0.5-1.3-0.9-2-1.2v-9.7L21.4,12.4z M16.7,27h-5.9l1.6,1.6c0.8,0.8,0.8,2,0,2.8C12,31.8,11.5,32,11,32s-1-0.2-1.4-0.6l-5-5
	c-0.1-0.1-0.2-0.2-0.3-0.3c0,0-0.1-0.1-0.1-0.2c0-0.1-0.1-0.1-0.1-0.2c0-0.1,0-0.1-0.1-0.2c0-0.1,0-0.1-0.1-0.2
	C4,25.1,4,24.9,4,24.6c0-0.1,0-0.1,0.1-0.2c0-0.1,0-0.1,0.1-0.2c0-0.1,0.1-0.1,0.1-0.2s0.1-0.1,0.1-0.2c0.1-0.1,0.2-0.2,0.3-0.3l5-5
	C10,18.2,10.5,18,11,18s1,0.2,1.4,0.6c0.8,0.8,0.8,2,0,2.8L10.8,23h5.9C22.4,23,27,27.6,27,33.3V44c0,1.1-0.9,2-2,2s-2-0.9-2-2V33.3
	C23,29.8,20.2,27,16.7,27z M46.1,25.5c0,0.1,0,0.1-0.1,0.2c0,0.1,0,0.1-0.1,0.2c0,0.1-0.1,0.1-0.1,0.2c0,0.1-0.1,0.1-0.1,0.2
	c-0.1,0.1-0.2,0.2-0.3,0.3l-5,5C40,31.8,39.5,32,39,32s-1-0.2-1.4-0.6c-0.8-0.8-0.8-2,0-2.8l1.6-1.6h-5.9c-1.2,0-2.4,0.4-3.3,1
	c-0.5-1.2-1.2-2.4-2-3.5c1.6-1,3.4-1.5,5.3-1.5h5.9l-1.6-1.6c-0.8-0.8-0.8-2,0-2.8C38,18.2,38.5,18,39,18s1,0.2,1.4,0.6l5,5
	c0.1,0.1,0.2,0.2,0.3,0.3c0,0,0.1,0.1,0.1,0.2c0,0.1,0.1,0.1,0.1,0.2c0,0.1,0,0.1,0.1,0.2c0,0.1,0,0.1,0.1,0.2
	C46.2,25,46.2,25.2,46.1,25.5z"/>
</svg>
