<?xml version="1.0" encoding="utf-8"?>
<!-- Generator: Adobe Illustrator 22.0.1, SVG Export Plug-In . SVG Version: 6.00 Build 0)  -->
<svg version="1.1" id="Layer_1" xmlns="http://www.w3.org/2000/svg" x="0px" y="0px"
	viewBox="0 0 50 50" style="enable-background:new 0 0 50 50;" xml:space="preserve">
<g>
	<path d="M31,19h6c1.1,0,2-0.9,2-2s-0.9-2-2-2h-6c-1.1,0-2,0.9-2,2S29.9,19,31,19z"/>
	<path d="M13,19h1c1.1,0,2-0.9,2-2s-0.9-2-2-2h-1c-1.1,0-2,0.9-2,2S11.9,19,13,19z"/>
	<path d="M13,30h24c1.1,0,2-0.9,2-2s-0.9-2-2-2H13c-1.1,0-2,0.9-2,2S11.9,30,13,30z"/>
	<path d="M13,39h24c1.1,0,2-0.9,2-2s-0.9-2-2-2H13c-1.1,0-2,0.9-2,2S11.9,39,13,39z"/>
	<path d="M44,0H6C4.9,0,4,0.9,4,2v46c0,1.1,0.9,2,2,2h38c1.1,0,2-0.9,2-2V2C46,0.9,45.1,0,44,0z M42,46H8V4h34V46z"/>
</g>
</svg>
