<?xml version="1.0" encoding="utf-8"?>
<!-- Generator: Adobe Illustrator 22.0.1, SVG Export Plug-In . SVG Version: 6.00 Build 0)  -->
<svg version="1.1" id="Layer_1" xmlns="http://www.w3.org/2000/svg" xmlns:xlink="http://www.w3.org/1999/xlink" x="0px" y="0px"
	 viewBox="0 0 50 50" style="enable-background:new 0 0 50 50;" xml:space="preserve">
<style type="text/css">
	.st0{fill:none;stroke:#000000;stroke-width:4;stroke-linecap:round;stroke-linejoin:round;stroke-miterlimit:10;}
</style>
<image style="display:none;overflow:visible;" width="118" height="131" xlink:href="FED1F787.jpg"  transform="matrix(0.3893 0 0 0.3898 6.0969 -0.3125)">
</image>
<g>
	<path class="st0" d="M2,27c7.6-2.3,12.9-0.7,16.1,4.7"/>
	<path class="st0" d="M17.9,41.6c-4.1,1-5.3,10.5-15.9,4.4"/>
	<path class="st0" d="M14.9,44.3c16.6,7.1,30.2-4,33.1-4c0-9.8-6.5-16-6.6-18.8"/>
	<path class="st0" d="M36.4,25.5c0.1,4,0,8.2,1.4,10.7c-5.4-6.8-12.4-8.3-21.4-3.5"/>
</g>
<g>
	<circle class="st0" cx="28.3" cy="12.5" r="3"/>
	<circle class="st0" cx="28.3" cy="12.5" r="10.5"/>
</g>
</svg>
