<?xml version="1.0" encoding="utf-8"?>
<!-- Generator: Adobe Illustrator 22.0.1, SVG Export Plug-In . SVG Version: 6.00 Build 0)  -->
<svg version="1.1" id="Layer_1"
	xmlns="http://www.w3.org/2000/svg" x="0px" y="0px" viewBox="0 0 50 50"
	style="enable-background:new 0 0 50 50;" xml:space="preserve">
<g>
	<path d="M48,8H2c-1.1,0-2,0.9-2,2v30c0,1.1,0.9,2,2,2h46c1.1,0,2-0.9,2-2V10C50,8.9,49.1,8,48,8z M46,38H4V12h42V38z"/>
	<path d="M10.4,33.4c0.4,0.4,0.9,0.6,1.4,0.6s1-0.2,1.4-0.6l5.6-5.6l4.8,4.8c0.4,0.4,0.9,0.6,1.4,0.6s1-0.2,1.4-0.6l4.8-4.8l5.6,5.6
		c0.4,0.4,0.9,0.6,1.4,0.6s1-0.2,1.4-0.6c0.8-0.8,0.8-2,0-2.8L34,25l5.6-5.6c0.8-0.8,0.8-2,0-2.8c-0.8-0.8-2-0.8-2.8,0l-7,7L25,28.4
		l-4.8-4.8l-7-7c-0.8-0.8-2-0.8-2.8,0c-0.8,0.8-0.8,2,0,2.8L16,25l-5.6,5.6C9.6,31.4,9.6,32.6,10.4,33.4z"/>
</g>
</svg>
