<?xml version="1.0" encoding="utf-8"?>
<!-- Generator: Adobe Illustrator 22.0.1, SVG Export Plug-In . SVG Version: 6.00 Build 0)  -->
<svg version="1.1" id="Layer_1"
	xmlns="http://www.w3.org/2000/svg" x="0px" y="0px" viewBox="0 0 50 50"
	style="enable-background:new 0 0 50 50;" xml:space="preserve">
<g>
	<path d="M49.8,1.1C49.4,0.4,48.7,0,48,0H2C1.3,0,0.6,0.4,0.2,1.1c-0.3,0.7-0.3,1.5,0.1,2.1l9,12.6c0.1-0.1,0.2-0.3,0.3-0.4
		c1-1,2.3-1.3,3.5-1.1L5.9,4h38.2L30,23.8c-0.2,0.3-0.4,0.7-0.4,1.2v12.2L20.4,44V31.7l-2.1-2.1l-1.9,1.9V48c0,0.8,0.4,1.4,1.1,1.8
		c0.3,0.1,0.6,0.2,0.9,0.2c0.4,0,0.8-0.1,1.2-0.4l13.2-9.8c0.5-0.4,0.8-1,0.8-1.6V25.6l16-22.5C50.1,2.6,50.1,1.7,49.8,1.1z"/>
	<path d="M22.8,31.3c0.4,0.4,0.9,0.6,1.4,0.6s1-0.2,1.4-0.6c0.8-0.8,0.8-2,0-2.8L21.2,24l4.4-4.4c0.8-0.8,0.8-2,0-2.8
		c-0.8-0.8-2-0.8-2.8,0l-4.4,4.4l-4.4-4.4c-0.8-0.8-2-0.8-2.8,0c-0.8,0.8-0.8,2,0,2.8l4.4,4.4l-4.4,4.4c-0.8,0.8-0.8,2,0,2.8
		c0.4,0.4,0.9,0.6,1.4,0.6s1-0.2,1.4-0.6l4.4-4.4L22.8,31.3z"/>
</g>
</svg>
