<?xml version="1.0" encoding="utf-8"?>
<!-- Generator: Adobe Illustrator 22.0.1, SVG Export Plug-In . SVG Version: 6.00 Build 0)  -->
<svg version="1.1" id="Layer_1"
	xmlns="http://www.w3.org/2000/svg" x="0px" y="0px" viewBox="0 0 50 50"
	style="enable-background:new 0 0 50 50;" xml:space="preserve">
<path d="M18.4,50c-0.3,0-0.6-0.1-0.9-0.2c-0.7-0.3-1.1-1-1.1-1.8V25.6L0.4,3.2c-0.4-0.6-0.5-1.4-0.1-2.1C0.6,0.4,1.3,0,2,0h46
	c0.7,0,1.4,0.4,1.8,1.1c0.3,0.7,0.3,1.5-0.2,2.1l-16,22.5v12.6c0,0.6-0.3,1.2-0.8,1.6l-13.2,9.8C19.2,49.9,18.8,50,18.4,50z M5.9,4
	L20,23.8c0.2,0.3,0.4,0.7,0.4,1.2v19l9.2-6.8V25c0-0.4,0.1-0.8,0.4-1.2L44.1,4H5.9z"/>
</svg>
