<?xml version="1.0" encoding="utf-8"?>
<!-- Generator: Adobe Illustrator 22.0.1, SVG Export Plug-In . SVG Version: 6.00 Build 0)  -->
<svg version="1.1" id="Layer_1"
	xmlns="http://www.w3.org/2000/svg" x="0px" y="0px" viewBox="0 0 50 50"
	style="enable-background:new 0 0 50 50;" xml:space="preserve">
<g>
	<path d="M22.8,31.3c0.4,0.4,0.9,0.6,1.4,0.6c0.5,0,1-0.2,1.4-0.6c0.8-0.8,0.8-2,0-2.8L21.2,24l4.5-4.5c0.8-0.8,0.8-2.1,0-2.8
		c-0.8-0.8-2.1-0.8-2.8,0l-4.4,4.5l-4.4-4.5c-0.8-0.8-2-0.8-2.8,0c-0.8,0.8-0.8,2,0,2.8l4.5,4.5l-4.5,4.5c-0.8,0.8-0.8,2.1,0,2.8
		c0.4,0.4,0.9,0.6,1.4,0.6c0.5,0,1-0.2,1.4-0.6l4.4-4.5L22.8,31.3z"/>
	<path d="M50,6c0-2.3-2.5-3.8-8.4-4.8C37.2,0.4,31.3,0,25,0S12.8,0.4,8.4,1.2C2.5,2.2,0,3.7,0,6c0,1.1,0.5,2,1.7,2.7l7,8.1
		c0.2-0.6,0.5-1.1,1-1.6c0.6-0.6,1.3-0.9,2-1.1l-2.9-3.3C13.2,11.6,18.9,12,25,12c6.1,0,11.8-0.4,16.2-1.1L30.1,23.7
		c-0.3,0.4-0.5,0.8-0.5,1.3v12.2L20.4,44V31.7l-2-2.1l-2,2V48c0,0.8,0.4,1.4,1.1,1.8c0.3,0.1,0.6,0.2,0.9,0.2c0.4,0,0.8-0.1,1.2-0.4
		l13.2-9.8c0.5-0.4,0.8-1,0.8-1.6V25.7l14.7-17C49.5,8,50,7.1,50,6z M5.3,6C8.2,5.1,14.9,4,25,4s16.8,1.1,19.7,2
		C41.8,6.9,35.1,8,25,8S8.2,6.9,5.3,6z"/>
</g>
</svg>
