<?xml version="1.0" encoding="utf-8"?>
<!-- Generator: Adobe Illustrator 22.0.1, SVG Export Plug-In . SVG Version: 6.00 Build 0)  -->
<svg version="1.1" id="Layer_1"
	xmlns="http://www.w3.org/2000/svg" x="0px" y="0px" viewBox="0 0 50 50"
	style="enable-background:new 0 0 50 50;" xml:space="preserve">
<path d="M41.6,1.2C37.2,0.4,31.3,0,25,0S12.8,0.4,8.4,1.2C2.5,2.2,0,3.7,0,6c0,1.1,0.5,2,1.7,2.7l14.7,17V48c0,0.8,0.4,1.4,1.1,1.8
	c0.3,0.1,0.6,0.2,0.9,0.2c0.4,0,0.8-0.1,1.2-0.4l13.2-9.8c0.5-0.4,0.8-1,0.8-1.6V25.7l14.7-17C49.5,8,50,7.1,50,6
	C50,3.7,47.5,2.2,41.6,1.2z M30.1,23.7c-0.3,0.4-0.5,0.8-0.5,1.3v12.2L20.4,44V25c0-0.5-0.2-0.9-0.5-1.3L8.8,10.9
	C13.2,11.6,18.9,12,25,12c6.1,0,11.8-0.4,16.2-1.1L30.1,23.7z M25,8C14.9,8,8.2,6.9,5.3,6C8.2,5.1,14.9,4,25,4s16.8,1.1,19.7,2
	C41.8,6.9,35.1,8,25,8z"/>
</svg>
