<?xml version="1.0" encoding="utf-8"?>
<!-- Generator: Adobe Illustrator 22.0.1, SVG Export Plug-In . SVG Version: 6.00 Build 0)  -->
<svg version="1.1" id="Layer_1" xmlns="http://www.w3.org/2000/svg" x="0px" y="0px"
	viewBox="0 0 50 50" style="enable-background:new 0 0 50 50;" xml:space="preserve">
<g>
	<path d="M42.7,7.3c-0.8-0.8-2-0.8-2.8,0c-0.8,0.8-0.8,2,0,2.8c4,4,6.1,9.3,6.1,14.9s-2.2,10.9-6.1,14.9c-0.8,0.8-0.8,2.1,0,2.8
		c0.4,0.4,0.9,0.6,1.4,0.6c0.5,0,1-0.2,1.4-0.6C47.4,37.9,50,31.6,50,25C50,18.4,47.4,12.1,42.7,7.3z"/>
	<path d="M4,25c0-5.6,2.2-10.9,6.1-14.9c0.8-0.8,0.8-2.1,0-2.8C9.3,6.5,8,6.5,7.3,7.3C2.6,12.1,0,18.4,0,25c0,6.6,2.6,12.9,7.3,17.7
		c0.4,0.4,0.9,0.6,1.4,0.6c0.5,0,1-0.2,1.4-0.6c0.8-0.8,0.8-2,0-2.8C6.2,35.9,4,30.6,4,25z"/>
	<path d="M38.4,11.6c-0.8-0.8-2-0.8-2.8,0c-0.8,0.8-0.8,2,0,2.8C38.4,17.3,40,21,40,25s-1.6,7.7-4.4,10.6c-0.8,0.8-0.8,2,0,2.8
		C36,38.8,36.5,39,37,39s1-0.2,1.4-0.6C42,34.8,44,30,44,25S42,15.2,38.4,11.6z"/>
	<path d="M10,25c0-4,1.6-7.7,4.4-10.6c0.8-0.8,0.8-2,0-2.8c-0.8-0.8-2-0.8-2.8,0C8,15.2,6,20,6,25c0,5,2,9.8,5.6,13.4
		C12,38.8,12.5,39,13,39s1-0.2,1.4-0.6c0.8-0.8,0.8-2,0-2.8C11.6,32.7,10,29,10,25z"/>
	<path d="M34.2,15.8c-0.8-0.8-2-0.8-2.8,0c-0.8,0.8-0.8,2,0,2.8c1.7,1.7,2.6,3.9,2.6,6.4c0,2.4-1,4.7-2.6,6.4c-0.8,0.8-0.8,2,0,2.8
		c0.4,0.4,0.9,0.6,1.4,0.6s1-0.2,1.4-0.6c2.4-2.4,3.8-5.8,3.8-9.2C38,21.5,36.7,18.2,34.2,15.8z"/>
	<path d="M16,25c0-2.5,0.9-4.7,2.6-6.4c0.8-0.8,0.8-2,0-2.8c-0.8-0.8-2-0.8-2.8,0C13.3,18.2,12,21.5,12,25c0,3.4,1.4,6.8,3.8,9.2
		c0.4,0.4,0.9,0.6,1.4,0.6s1-0.2,1.4-0.6c0.8-0.8,0.8-2,0-2.8C17,29.7,16,27.4,16,25z"/>
	<path d="M32,25c0-3.9-3.1-7-7-7c-3.9,0-7,3.1-7,7c0,3.2,2.1,5.8,5,6.7V40c0,1.1,0.9,2,2,2s2-0.9,2-2v-8.3C29.9,30.8,32,28.2,32,25z
		 M25,28c-1.7,0-3-1.3-3-3s1.3-3,3-3s3,1.3,3,3S26.7,28,25,28z"/>
</g>
</svg>
