<?xml version="1.0" encoding="utf-8"?>
<!-- Generator: Adobe Illustrator 22.0.1, SVG Export Plug-In . SVG Version: 6.00 Build 0)  -->
<svg version="1.1" id="Capa_1" xmlns="http://www.w3.org/2000/svg" x="0px" y="0px"
	viewBox="0 0 50 50" style="enable-background:new 0 0 50 50;" xml:space="preserve">
<style type="text/css">
	.st0{fill:none;stroke:#000000;stroke-width:2;stroke-linecap:round;stroke-linejoin:round;stroke-miterlimit:10;}
</style>
<g>
	<path class="st0" d="M41.9,8.1c6.7,6.7,6.7,17.6,0,24.3l-4.8-4.8"/>
	<path class="st0" d="M41.9,8.1c-6.7-6.7-17.6-6.7-24.3,0l4.9,4.9"/>
	<line class="st0" x1="32.6" y1="23.3" x2="37.1" y2="27.7"/>
	<line class="st0" x1="32.6" y1="23.3" x2="26.9" y2="17.5"/>
	<line class="st0" x1="22.4" y1="13" x2="26.9" y2="17.5"/>
	<line class="st0" x1="41.9" y1="8.1" x2="49" y2="1"/>
	<line class="st0" x1="8.1" y1="41.9" x2="1" y2="49"/>
	<line class="st0" x1="27.7" y1="37.1" x2="23.3" y2="32.6"/>
	<line class="st0" x1="17.5" y1="26.9" x2="23.3" y2="32.6"/>
	<path class="st0" d="M8.1,41.9c6.7,6.7,17.6,6.7,24.3,0l-4.8-4.8"/>
	<line class="st0" x1="17.5" y1="26.9" x2="13" y2="22.4"/>
	<path class="st0" d="M8.1,41.9c-6.7-6.7-6.7-17.6,0-24.3l4.9,4.9"/>
	<line class="st0" x1="22.4" y1="13" x2="13" y2="22.4"/>
	<line class="st0" x1="26.9" y1="17.5" x2="17.5" y2="26.9"/>
	<line class="st0" x1="32.6" y1="23.3" x2="23.3" y2="32.6"/>
	<line class="st0" x1="37.1" y1="27.7" x2="27.7" y2="37.1"/>
</g>
</svg>
