<?xml version="1.0" encoding="utf-8"?>
<!-- Generator: Adobe Illustrator 22.0.1, SVG Export Plug-In . SVG Version: 6.00 Build 0)  -->
<svg version="1.1" id="Capa_1" xmlns="http://www.w3.org/2000/svg" x="0px" y="0px"
	viewBox="0 0 50 50" style="enable-background:new 0 0 50 50;" xml:space="preserve">
<style type="text/css">
	.st0{fill:none;stroke:#000000;stroke-width:4;stroke-linecap:round;stroke-linejoin:round;stroke-miterlimit:10;}
</style>
<g>
	<path class="st0" d="M41.2,8.8c6.4,6.4,6.4,16.9,0,23.3l-4.6-4.6"/>
	<path class="st0" d="M41.2,8.8c-6.4-6.4-16.9-6.4-23.3,0l4.7,4.7"/>
	<line class="st0" x1="32.3" y1="23.3" x2="36.6" y2="27.6"/>
	<line class="st0" x1="32.3" y1="23.3" x2="26.8" y2="17.8"/>
	<line class="st0" x1="22.5" y1="13.5" x2="26.8" y2="17.8"/>
	<line class="st0" x1="41.2" y1="8.8" x2="48" y2="2"/>
	<line class="st0" x1="8.8" y1="41.2" x2="2" y2="48"/>
	<line class="st0" x1="27.6" y1="36.6" x2="23.3" y2="32.3"/>
	<line class="st0" x1="17.8" y1="26.8" x2="23.3" y2="32.3"/>
	<path class="st0" d="M8.8,41.2c6.4,6.4,16.9,6.4,23.3,0l-4.6-4.6"/>
	<line class="st0" x1="17.8" y1="26.8" x2="13.5" y2="22.5"/>
	<path class="st0" d="M8.8,41.2c-6.4-6.4-6.4-16.9,0-23.3l4.7,4.7"/>
	<line class="st0" x1="22.5" y1="13.5" x2="13.5" y2="22.5"/>
	<line class="st0" x1="25.8" y1="16.8" x2="16.8" y2="25.8"/>
	<line class="st0" x1="33.3" y1="24.3" x2="24.3" y2="33.3"/>
	<line class="st0" x1="36.6" y1="27.6" x2="27.6" y2="36.6"/>
</g>
</svg>
