<?xml version="1.0" encoding="utf-8"?>
<!-- Generator: Adobe Illustrator 22.0.1, SVG Export Plug-In . SVG Version: 6.00 Build 0)  -->
<svg version="1.1" id="Capa_1" xmlns="http://www.w3.org/2000/svg" x="0px" y="0px"
	viewBox="0 0 50 50" style="enable-background:new 0 0 50 50;" xml:space="preserve">
<path d="M48.2,13.1c-2.3-2.3-6.1-2.3-8.5,0l-7.1,7.1l-2.8-2.8l7.1-7.1c2.3-2.3,2.3-6.1,0-8.5c-2.3-2.3-6.1-2.3-8.5,0l-7.1,7.1
	l-0.4-0.4c-0.8-0.8-2-0.8-2.8,0l-8,8c-3.1,3.1-4.9,7.3-4.9,11.8c0,3.8,1.2,7.3,3.5,10.2l-8.2,8.2c-0.8,0.8-0.8,2,0,2.8
	C1,49.8,1.5,50,2,50s1-0.2,1.4-0.6l8.2-8.2c3,2.4,6.6,3.5,10.2,3.5c4.3,0,8.5-1.6,11.8-4.9l8-8c0.8-0.8,0.8-2,0-2.8l-0.4-0.4
	l7.1-7.1C50.6,19.2,50.6,15.4,48.2,13.1z M31.3,4.6c0.8-0.8,2-0.8,2.8,0c0.8,0.8,0.8,2,0,2.8L27,14.5l-2.8-2.8L31.3,4.6z M30.7,37.1
	c-4.9,4.9-12.9,4.9-17.9,0c-2.4-2.4-3.7-5.5-3.7-8.9s1.3-6.6,3.7-8.9l6.6-6.6l4.6,4.6l1.5,1.5c0,0,0,0,0,0l6.5,6.5l4.8,4.8
	c0,0,0,0,0,0l0.4,0.4L30.7,37.1z M45.4,18.7l-7.1,7.1L35.5,23l7.1-7.1c0.8-0.8,2-0.8,2.8,0C46.2,16.7,46.2,17.9,45.4,18.7z"/>
</svg>
