<?xml version="1.0" encoding="utf-8"?>
<!-- Generator: Adobe Illustrator 24.0.1, SVG Export Plug-In . SVG Version: 6.00 Build 0)  -->
<svg version="1.1" id="Layer_1" xmlns="http://www.w3.org/2000/svg" xmlns:xlink="http://www.w3.org/1999/xlink" x="0px" y="0px"
	 viewBox="0 0 50 50" style="enable-background:new 0 0 50 50;" xml:space="preserve">
<style type="text/css">
	.st0{fill:none;stroke:#000000;stroke-width:4;stroke-miterlimit:10;}
</style>
<g>
	<path d="M48,18.5h-3.7c-0.3-0.8-0.6-1.6-0.9-2.3l2.7-2.7c0.8-0.8,0.8-2,0-2.8l-6.6-6.6c-0.5-0.4-1-0.6-1.5-0.6s-1,0.2-1.4,0.6
		l-2.7,2.7c-0.7-0.4-1.5-0.7-2.3-1V2c0-1.1-0.9-2-2-2h-9.2c-1.1,0-2,0.9-2,2v3.7c-0.8,0.3-1.6,0.6-2.3,0.9L13.4,4
		c-0.8-0.8-2-0.8-2.8,0l-6.5,6.5c-0.8,0.8-0.8,2,0,2.8L6.8,16c-0.4,0.7-0.7,1.5-1,2.3H2c-1.1,0-2,0.9-2,2v9.2c0,1.1,0.9,2,2,2h3.7
		c0.3,0.8,0.6,1.6,0.9,2.3L4,36.5c-0.8,0.8-0.8,2,0,2.8l6.5,6.5c0.8,0.8,2,0.8,2.8,0l2.7-2.7c0.7,0.4,1.5,0.7,2.3,1V48
		c0,1.1,0.9,2,2,2h9.2c1.1,0,2-0.9,2-2v-3.7c0.8-0.3,1.6-0.6,2.3-0.9l2.7,2.7c0.8,0.8,2,0.8,2.8,0l6.5-6.5c0.4-0.4,0.6-0.9,0.6-1.4
		s-0.2-1-0.6-1.4L43.3,34c0.4-0.7,0.7-1.5,1-2.3H48c1.1,0,2-0.9,2-2v-9.2C50,19.4,49.1,18.5,48,18.5z M46,27.7h-3.3
		c-1,0-1.8,0.7-2,1.7c-0.2,1.4-0.9,2.7-1.7,4.1c-0.4,0.8-0.3,1.7,0.4,2.4l2.3,2.3L38,41.8l-2.3-2.3c-0.6-0.6-1.6-0.8-2.4-0.3
		c-1.1,0.6-2.5,1.2-4.3,1.7c-0.9,0.3-1.4,1-1.4,1.9V46h-5.2v-3.3c0-1-0.7-1.8-1.7-2c-1.4-0.2-2.7-0.9-4.1-1.7
		c-0.8-0.4-1.7-0.3-2.4,0.4L12,41.7L8.3,38l2.2-2.3c0.6-0.6,0.7-1.6,0.3-2.4c-0.6-1.1-1.2-2.5-1.7-4.3c-0.3-0.9-1-1.4-1.9-1.4H4
		v-5.2h3.3c1,0,1.8-0.7,2-1.7c0.2-1.4,0.9-2.7,1.7-4.1c0.4-0.8,0.3-1.7-0.4-2.4L8.3,12L12,8.3l2.3,2.2c0.6,0.6,1.6,0.7,2.4,0.3
		c1.1-0.6,2.5-1.2,4.3-1.7c0.9-0.3,1.4-1,1.4-1.9V4h5.2v3.3c0,1,0.7,1.8,1.7,2c1.4,0.2,2.7,0.9,4.1,1.7c0.8,0.4,1.7,0.3,2.4-0.4
		L38,8.3l3.8,3.8l-2.3,2.3c-0.6,0.6-0.8,1.6-0.3,2.4c0.6,1.1,1.2,2.5,1.7,4.3c0.3,0.9,1,1.4,1.9,1.4H46V27.7z"/>
	<circle class="st0" cx="25" cy="25" r="8"/>
</g>
</svg>
