<?xml version="1.0" encoding="utf-8"?>
<!-- Generator: Adobe Illustrator 22.0.1, SVG Export Plug-In . SVG Version: 6.00 Build 0)  -->
<svg version="1.1" id="Layer_1"
	xmlns="http://www.w3.org/2000/svg" x="0px" y="0px" viewBox="0 0 50 50"
	style="enable-background:new 0 0 50 50;" xml:space="preserve">
<g>
	<path d="M48,23H2c-1.1,0-2,0.9-2,2s0.9,2,2,2h46c1.1,0,2-0.9,2-2S49.1,23,48,23z"/>
	<path d="M15.5,46H4V34.5c0-1.1-0.9-2-2-2s-2,0.9-2,2V48c0,1.1,0.9,2,2,2h13.5c1.1,0,2-0.9,2-2S16.6,46,15.5,46z"/>
	<path d="M2,17.5c1.1,0,2-0.9,2-2V4h11.5c1.1,0,2-0.9,2-2s-0.9-2-2-2H2C0.9,0,0,0.9,0,2v13.5C0,16.6,0.9,17.5,2,17.5z"/>
	<path d="M48,0H34.5c-1.1,0-2,0.9-2,2s0.9,2,2,2H46v11.5c0,1.1,0.9,2,2,2s2-0.9,2-2V2C50,0.9,49.1,0,48,0z"/>
	<path d="M48,32.5c-1.1,0-2,0.9-2,2V46H34.5c-1.1,0-2,0.9-2,2s0.9,2,2,2H48c1.1,0,2-0.9,2-2V34.5C50,33.4,49.1,32.5,48,32.5z"/>
</g>
</svg>
