<?xml version="1.0" encoding="utf-8"?>
<!-- Generator: Adobe Illustrator 22.0.1, SVG Export Plug-In . SVG Version: 6.00 Build 0)  -->
<svg version="1.1" id="Layer_1"
	xmlns="http://www.w3.org/2000/svg" x="0px" y="0px" viewBox="0 0 50 50"
	style="enable-background:new 0 0 50 50;" xml:space="preserve">
<g>
	<path d="M48,23H2c-1.1,0-2,0.9-2,2s0.9,2,2,2h46c1.1,0,2-0.9,2-2S49.1,23,48,23z"/>
	<path d="M15.5,46H6c-1.1,0-2-0.9-2-2v-9.5c0-1.1-0.9-2-2-2s-2,0.9-2,2V44c0,3.3,2.7,6,6,6h9.5c1.1,0,2-0.9,2-2S16.6,46,15.5,46z"/>
	<path d="M2,17.5c1.1,0,2-0.9,2-2V6c0-1.1,0.9-2,2-2h9.5c1.1,0,2-0.9,2-2s-0.9-2-2-2H6C2.7,0,0,2.7,0,6v9.5C0,16.6,0.9,17.5,2,17.5z
		"/>
	<path d="M44,0h-9.5c-1.1,0-2,0.9-2,2s0.9,2,2,2H44c1.1,0,2,0.9,2,2v9.5c0,1.1,0.9,2,2,2s2-0.9,2-2V6C50,2.7,47.3,0,44,0z"/>
	<path d="M48,32.5c-1.1,0-2,0.9-2,2V44c0,1.1-0.9,2-2,2h-9.5c-1.1,0-2,0.9-2,2s0.9,2,2,2H44c3.3,0,6-2.7,6-6v-9.5
		C50,33.4,49.1,32.5,48,32.5z"/>
</g>
</svg>
