<?xml version="1.0" encoding="utf-8"?>
<!-- Generator: Adobe Illustrator 21.1.0, SVG Export Plug-In . SVG Version: 6.00 Build 0)  -->
<svg version="1.1" id="Layer_1"
	xmlns="http://www.w3.org/2000/svg" x="0px" y="0px" viewBox="0 0 50 50"
	style="enable-background:new 0 0 50 50;" xml:space="preserve">
<path d="M12.8,42.7L40.6,15l4.1-4.1c0.8-0.8,0.8-2.1,0-2.8l-7.5-7.5C36.8,0.2,36.2,0,35.7,0c-0.5,0-1,0.2-1.4,0.6l-4.1,4.1L2.5,32.4
	c-0.3,0.3-0.5,0.6-0.5,1L0,42.7c-0.1,0.7,0.1,1.3,0.5,1.8c0.5,0.5,1.2,0.7,1.8,0.5l9.4-1.9C12.2,43.1,12.5,42.9,12.8,42.7z
	 M35.7,4.8l4.6,4.6l-1.2,1.2l-4.6-4.6L35.7,4.8z M6.7,33.8L31.6,8.9l4.6,4.6L11.4,38.4L6.7,33.8z"/>
<path d="M48,46H11.8c-1.1,0-2,0.9-2,2c0,1.1,0.9,2,2,2H48c1.1,0,2-0.9,2-2C50,46.9,49.1,46,48,46z"/>
</svg>
