<?xml version="1.0" encoding="utf-8"?>
<!-- Generator: Adobe Illustrator 21.1.0, SVG Export Plug-In . SVG Version: 6.00 Build 0)  -->
<svg version="1.1" id="Layer_1"
	xmlns="http://www.w3.org/2000/svg" x="0px" y="0px" viewBox="0 0 50 50"
	style="enable-background:new 0 0 50 50;" xml:space="preserve">
<path d="M49.9,19.2c-0.2-0.7-0.9-1.2-1.6-1.4l-14.9-2.2L26.7,1.8c-0.3-0.7-1.1-1.1-1.8-1.1c-0.8,0-1.5,0.4-1.8,1.1l-6.6,13.7
	L1.7,17.8c-0.7,0.1-1.4,0.6-1.6,1.4c-0.2,0.7,0,1.5,0.5,2l10.7,10.6l-2.6,15c-0.1,0.8,0.2,1.5,0.8,2c0.6,0.4,1.4,0.5,2.1,0.1l13.2-7
	l13.3,7.2c0.3,0.2,0.6,0.2,1,0.2c0.4,0,0.8-0.1,1.2-0.4c0.6-0.4,0.9-1.2,0.8-2l-2.6-15l10.9-10.7C49.9,20.7,50.1,19.9,49.9,19.2z"/>
</svg>
