<?xml version="1.0" encoding="utf-8"?>
<!-- Generator: Adobe Illustrator 22.0.1, SVG Export Plug-In . SVG Version: 6.00 Build 0)  -->
<svg version="1.1" id="Layer_1"
	xmlns="http://www.w3.org/2000/svg" x="0px" y="0px" viewBox="0 0 50 50"
	style="enable-background:new 0 0 50 50;" xml:space="preserve">
<g>
	<path d="M49.4,18.2l-4.1-4.1c-0.4-0.4-0.9-0.6-1.4-0.6s-1,0.2-1.4,0.6c-0.9,0.9-2.1,1.4-3.3,1.4s-2.4-0.5-3.3-1.4
		c-0.9-0.9-1.4-2.1-1.4-3.3s0.5-2.4,1.4-3.3c0.4-0.4,0.6-0.9,0.6-1.4s-0.2-1-0.6-1.4l-4.1-4.1c-0.8-0.8-2-0.8-2.8,0L0.6,29
		c-0.8,0.8-0.8,2,0,2.8l4.1,4.1c0.8,0.8,2.1,0.8,2.8,0c0.9-0.9,2.1-1.4,3.3-1.4s2.4,0.5,3.3,1.4c0.9,0.9,1.4,2.1,1.4,3.3
		s-0.5,2.4-1.4,3.3c-0.4,0.4-0.6,0.9-0.6,1.4s0.2,1,0.6,1.4l4.1,4.1c0.4,0.4,0.9,0.6,1.4,0.6s1-0.2,1.4-0.6L49.4,21
		C50.2,20.2,50.2,19,49.4,18.2z M19.6,45.2l-1.4-1.4c2.1-3.4,1.7-7.8-1.3-10.7s-7.4-3.3-10.7-1.3l-1.4-1.4L30.4,4.8l1.4,1.4
		c-2.1,3.4-1.7,7.8,1.3,10.7c2.9,2.9,7.4,3.3,10.7,1.3l1.4,1.4L19.6,45.2z"/>
	<rect x="21.9" y="28.9" transform="matrix(0.7071 -0.7071 0.7071 0.7071 -14.4767 24.9497)" width="2" height="2"/>
	<rect x="24.7" y="28.9" transform="matrix(0.7071 -0.7071 0.7071 0.7071 -13.6482 26.9489)" width="2" height="2"/>
	<rect x="30.4" y="24.7" transform="matrix(0.7071 -0.7071 0.7071 0.7071 -8.9914 29.7071)" width="2" height="2"/>
	<rect x="23.3" y="17.6" transform="matrix(0.7071 -0.7071 0.7071 0.7071 -6.0624 22.6361)" width="2" height="2"/>
	<rect x="16.2" y="24.7" transform="matrix(0.7071 -0.7071 0.7071 0.7071 -13.1337 19.7078)" width="2" height="2"/>
	<polygon points="24.3,35.6 22.9,34.2 21.5,32.8 20.1,34.2 21.5,35.6 22.9,37 24.3,38.4 28.5,34.2 27.1,32.8 	"/>
	<path d="M29.9,18.6L24.3,13l-5.7,5.7l5.7,5.7L29.9,18.6z M24.3,15.8l2.8,2.8l-2.8,2.8l-2.8-2.8L24.3,15.8z"/>
	<path d="M25.7,25.7l5.7,5.7l5.7-5.7l-5.7-5.7L25.7,25.7z M31.4,28.5l-2.8-2.8l2.8-2.8l2.8,2.8L31.4,28.5z"/>
	<path d="M17.2,20.1l-5.7,5.7l5.7,5.7l5.7-5.7L17.2,20.1z M14.4,25.7l2.8-2.8l2.8,2.8l-2.8,2.8L14.4,25.7z"/>
</g>
</svg>
