<?xml version="1.0" encoding="utf-8"?>
<!-- Generator: Adobe Illustrator 21.1.0, SVG Export Plug-In . SVG Version: 6.00 Build 0)  -->
<svg version="1.1" id="Layer_1"
	xmlns="http://www.w3.org/2000/svg" x="0px" y="0px" viewBox="0 0 50 50"
	style="enable-background:new 0 0 50 50;" xml:space="preserve">
<path d="M48.9,1c-0.6-0.6-1.5-1-2.5-1L27.9,0.4c-2.1,0.1-4,0.9-5.6,2.4L2.8,22.4C1,24.1,0,26.6,0,29.1c0,2.2,0.9,4.4,2.5,6.3
	l12.1,12c1.7,1.7,3.9,2.6,6.3,2.6c2.5,0,4.9-1,6.7-2.8l19.5-19.5c1.6-1.6,2.4-3.5,2.4-5.7L50,3.5C50,2.6,49.6,1.7,48.9,1z M45.5,22
	c0,1.1-0.4,2.1-1.2,2.9L24.8,44.4c-1.3,1.3-2.9,1.6-3.9,1.6c-1.4,0-2.5-0.5-3.5-1.4L5.5,32.7c-1-1.1-1.5-2.4-1.5-3.6
	c0-1.4,0.6-2.9,1.6-3.9L25.1,5.7c0.8-0.8,1.9-1.2,3-1.3L46,4L45.5,22z"/>
<path d="M34.3,21.9c1.6,0,3.2-0.7,4.4-1.9s1.8-2.8,1.7-4.4c0-1.7-0.6-3.2-1.8-4.2c-1.1-1.1-2.5-1.7-4-1.8c-1.7-0.1-3.3,0.6-4.6,1.8
	c-1.2,1.2-1.8,2.7-1.8,4.3c0,1.8,0.6,3.3,1.8,4.4C31.2,21.3,32.8,21.9,34.3,21.9z M32.8,14.3c0.4-0.4,1-0.7,1.6-0.7c0,0,0,0,0.1,0
	c0.5,0,1,0.2,1.3,0.6l0.1,0.1c0.1,0.1,0.5,0.5,0.5,1.4v0.2c0,0.4-0.2,0.9-0.5,1.3c-0.4,0.4-1,0.7-1.6,0.7c-0.4,0-1-0.2-1.5-0.7
	l-0.1-0.1c-0.1-0.1-0.5-0.5-0.5-1.4C32.2,15.1,32.4,14.6,32.8,14.3z"/>
</svg>
