<?xml version="1.0" encoding="utf-8"?>
<!-- Generator: Adobe Illustrator 21.1.0, SVG Export Plug-In . SVG Version: 6.00 Build 0)  -->
<svg version="1.1" id="Layer_1"
	xmlns="http://www.w3.org/2000/svg" x="0px" y="0px" viewBox="0 0 50 50"
	style="enable-background:new 0 0 50 50;" xml:space="preserve">
<path d="M25,33.6c-4.5,0-8.2,3.7-8.2,8.2S20.5,50,25,50s8.2-3.7,8.2-8.2S29.5,33.6,25,33.6z M25,46c-2.3,0-4.2-1.9-4.2-4.2
	s1.9-4.2,4.2-4.2s4.2,1.9,4.2,4.2S27.3,46,25,46z"/>
<path d="M35.9,0.8c-0.4-0.5-1-0.8-1.6-0.8H15.8c-0.6,0-1.2,0.3-1.6,0.8c-0.4,0.5-0.5,1.2-0.3,1.8l9.2,28.5c0.3,0.8,1,1.4,1.9,1.4
	l0,0c0.9,0,1.6-0.6,1.9-1.4l9.3-28.5C36.4,2,36.3,1.3,35.9,0.8z M25,24L18.5,4h13L25,24z"/>
</svg>
