<?xml version="1.0" encoding="utf-8"?>
<!-- Generator: Adobe Illustrator 21.1.0, SVG Export Plug-In . SVG Version: 6.00 Build 0)  -->
<svg version="1.1" id="Layer_1"
	xmlns="http://www.w3.org/2000/svg" x="0px" y="0px" viewBox="0 0 50 50"
	style="enable-background:new 0 0 50 50;" xml:space="preserve">
<path d="M50,1.6c0-0.1,0-0.1-0.1-0.2c0-0.1,0-0.1-0.1-0.2c0-0.1-0.1-0.1-0.1-0.2c0-0.1-0.1-0.1-0.1-0.2c-0.1-0.2-0.3-0.4-0.6-0.6
	c0,0-0.1-0.1-0.1-0.1c-0.1,0-0.1-0.1-0.2-0.1c-0.1,0-0.1,0-0.2-0.1c-0.1,0-0.1,0-0.2-0.1c-0.1,0-0.3,0-0.4,0H30.1c-1.1,0-2,0.9-2,2
	s0.9,2,2,2h13.1l-4,4H2c-1.1,0-2,0.9-2,2v38c0,1.1,0.9,2,2,2h38c1.1,0,2-0.9,2-2V10.8l4-4v13.1c0,1.1,0.9,2,2,2s2-0.9,2-2V2
	C50,1.9,50,1.7,50,1.6z M38,46H4V12h31.2L19.6,27.6c-0.8,0.8-0.8,2,0,2.8C20,30.8,20.5,31,21,31s1-0.2,1.4-0.6L38,14.8V46z"/>
</svg>
