<?xml version="1.0" encoding="utf-8"?>
<!-- Generator: Adobe Illustrator 21.1.0, SVG Export Plug-In . SVG Version: 6.00 Build 0)  -->
<svg version="1.1" id="Layer_1"
	xmlns="http://www.w3.org/2000/svg" x="0px" y="0px" viewBox="0 0 50 50"
	style="enable-background:new 0 0 50 50;" xml:space="preserve">
<path d="M2,14h4.2c1,5.7,5.9,10,11.8,10s10.9-4.3,11.8-10H48c1.1,0,2-0.9,2-2s-0.9-2-2-2H29.8C28.9,4.3,23.9,0,18,0S7.1,4.3,6.2,10
	H2c-1.1,0-2,0.9-2,2S0.9,14,2,14z M18,4c4.4,0,8,3.6,8,8s-3.6,8-8,8s-8-3.6-8-8S13.6,4,18,4z"/>
<path d="M48,36h-4.2c-1-5.7-5.9-10-11.8-10s-10.9,4.3-11.8,10H2c-1.1,0-2,0.9-2,2s0.9,2,2,2h18.2c1,5.7,5.9,10,11.8,10
	s10.9-4.3,11.8-10H48c1.1,0,2-0.9,2-2S49.1,36,48,36z M32,46c-4.4,0-8-3.6-8-8s3.6-8,8-8s8,3.6,8,8S36.4,46,32,46z"/>
</svg>
