<?xml version="1.0" encoding="utf-8"?>
<!-- Generator: Adobe Illustrator 22.0.1, SVG Export Plug-In . SVG Version: 6.00 Build 0)  -->
<svg version="1.1" id="Layer_1" xmlns="http://www.w3.org/2000/svg" x="0px" y="0px"
	viewBox="0 0 50 50" style="enable-background:new 0 0 50 50;" xml:space="preserve">
<g>
	<path d="M19,38c-1.3,0-2.6,0-3.9,0c-1.4,0-3.3-0.3-4,1.2c-0.5,1.1,0.2,2.4,1.3,2.7c0.5,0.1,1,0.1,1.5,0.1c1.6,0,3.1,0,4.7,0
		c0.9,0,1.7-0.2,2.1-1.1C21.4,39.6,20.5,38,19,38z"/>
	<path d="M13,19c1.3,0,2.6,0,3.9,0c1.3,0,3.7,0.4,4.7-0.8c0.9-1.1,0.3-2.8-1.1-3.2C20,14.9,19.3,15,18.8,15c-1.6,0-3.2,0-4.8,0
		c-1,0-2-0.1-2.6,0.8C10.4,17.1,11.4,19,13,19z"/>
	<path d="M48.5,20.7L46,18.2c0-4.2,0-8.4,0-12.6c0-0.9-0.1-1.8-1-2.3C44.4,2.9,43.6,3,43,3c-2.4,0-4.9,0-7.3,0c-2,0-4,0-6,0
		c-1.7-3.9-7.5-3.9-9.2,0C16,3,11.6,3,7.2,3C5.6,3,4,3.2,4,5.2c0,1.2,0,2.4,0,3.5C4,19.4,4,30,4,40.6c0,1.9,0,3.7,0,5.6
		c0,0.9-0.2,2.2,0.4,3c0.8,1,2.3,0.8,3.4,0.8c1.9,0,3.9,0,5.8,0c9.9,0,19.8,0,29.7,0c1.4,0,2.7-0.5,2.7-2.2c0-1.8,0-3.5,0-5.3
		c0-5.2,0-10.3,0-15.5c0-0.4,0-0.7,0-1.1C47.2,24.8,50.4,22.5,48.5,20.7z M31.8,34.5L29.2,32l12.5-12.5l2.6,2.6L31.8,34.5z
		 M27.5,35.9l0.3,0.3l-0.4,0.1L27.5,35.9z M25,4c1.3,0,1.3,2,0,2C23.7,6,23.7,4,25,4z M42,46H8V7h12.4c1.7,3.9,7.5,3.9,9.2,0H42v7.7
		c-1.3-0.2-2.2,1-3.1,1.9c-0.5-2-2.9-1.5-4.4-1.5c-1.3,0-3.7-0.4-4.8,0.5c-1,0.9-0.8,2.7,0.4,3.3c0.6,0.3,1.3,0.2,1.9,0.2
		c1.5,0,3,0,4.5,0l-7,7c-4.7,0-9.5,0-14.2,0c-0.7,0-1.5,0-2.2,0c-1.7,0.1-2.9,2-1.5,3.4c0.7,0.7,1.6,0.6,2.5,0.6c1.3,0,2.7,0,4,0
		c2.5,0,5,0,7.4,0c-1.6,1.6-1.7,4-2.1,6.1c-0.2,0.9-0.6,2-0.6,2.9c0,1.9,1.8,2.1,3.2,1.8c1.3-0.3,2.7-0.6,4-0.9
		c0.8-0.2,1.8-0.3,2.6-0.7c0.6-0.3,1-0.8,1.5-1.3c0.9-0.9,1.8-1.8,2.7-2.7c1.8-1.8,3.5-3.5,5.3-5.3V46z"/>
</g>
</svg>
