<?xml version="1.0" encoding="utf-8"?>
<!-- Generator: Adobe Illustrator 22.0.1, SVG Export Plug-In . SVG Version: 6.00 Build 0)  -->
<svg version="1.1" id="Layer_1"
	xmlns="http://www.w3.org/2000/svg" x="0px" y="0px" viewBox="0 0 50 50"
	style="enable-background:new 0 0 50 50;" xml:space="preserve">
<style type="text/css">
	.st0{display:none;}
	.st1{display:inline;}
	.st2{fill:none;stroke:#000000;stroke-width:4;stroke-linecap:round;stroke-linejoin:round;stroke-miterlimit:10;}
</style>
<g class="st0">
	<path class="st1" d="M46.5,41.1c0-3.3-2.6-5.9-5.9-5.9c-3.3,0-5.9,2.6-5.9,5.9s2.6,5.9,5.9,5.9l0,0C43.9,47,46.5,44.4,46.5,41.1z
		 M38.1,41.1c0-1.4,1.1-2.5,2.5-2.5s2.5,1.1,2.5,2.5s-1.1,2.5-2.5,2.5l0,0C39.3,43.7,38.1,42.5,38.1,41.1L38.1,41.1z"/>
	<path class="st1" d="M46,11.1H28.8c-0.9,0-1.7,0.8-1.7,1.7s0.8,1.7,1.7,1.7H46c0.3,0,0.6,0.2,0.6,0.5c0,0.1,0,0.1,0,0.2l-3.1,12.5
		c-0.2,0.8-0.9,1.3-1.6,1.3H19c-0.8,0-1.5-0.5-1.6-1.3l-5-20.8C11.8,4.6,9.7,3,7.4,3H1.7C0.8,3,0,3.7,0,4.6s0.8,1.7,1.7,1.7h5.7
		c0.8,0,1.5,0.5,1.6,1.3l5,20.8c0.5,2.3,2.6,3.9,4.9,3.9h22.9c2.3,0,4.4-1.6,4.9-3.9L49.9,16c0.5-2.1-0.8-4.3-2.9-4.8
		C46.7,11.2,46.4,11.1,46,11.1L46,11.1z"/>
	<path class="st1" d="M24.6,41.1c0-3.3-2.6-5.9-5.9-5.9s-5.9,2.6-5.9,5.9c0,3.3,2.6,5.9,5.9,5.9S24.6,44.4,24.6,41.1z M16.2,41.1
		c0-1.4,1.1-2.5,2.5-2.5s2.5,1.1,2.5,2.5s-1.1,2.5-2.5,2.5l0,0C17.4,43.7,16.2,42.5,16.2,41.1z"/>
</g>
<line class="st2" x1="48" y1="48" x2="2" y2="2"/>
<line class="st2" x1="48" y1="48" x2="48" y2="18"/>
<line class="st2" x1="48" y1="48" x2="18" y2="48"/>
</svg>
