<?xml version="1.0" encoding="utf-8"?>
<!-- Generator: Adobe Illustrator 24.0.1, SVG Export Plug-In . SVG Version: 6.00 Build 0)  -->
<svg version="1.1" id="Layer_1" xmlns="http://www.w3.org/2000/svg" xmlns:xlink="http://www.w3.org/1999/xlink" x="0px" y="0px"
	 viewBox="0 0 50 50" style="enable-background:new 0 0 50 50;" xml:space="preserve">
<g>
	<circle cx="8" cy="25" r="8"/>
	<path d="M42,17c-4.4,0-8,3.6-8,8s3.6,8,8,8s8-3.6,8-8S46.4,17,42,17z M42,29c-2.2,0-4-1.8-4-4c0-2.2,1.8-4,4-4s4,1.8,4,4
		C46,27.2,44.2,29,42,29z"/>
	<path d="M25,0c-1.1,0-2,0.9-2,2v3c0,1.1,0.9,2,2,2s2-0.9,2-2V2C27,0.9,26.1,0,25,0z"/>
	<path d="M25,8.7c-1.1,0-2,0.9-2,2v5.7c0,1.1,0.9,2,2,2s2-0.9,2-2v-5.7C27,9.6,26.1,8.7,25,8.7z"/>
	<path d="M25,31.6c-1.1,0-2,0.9-2,2v5.7c0,1.1,0.9,2,2,2s2-0.9,2-2v-5.7C27,32.5,26.1,31.6,25,31.6z"/>
	<path d="M25,20.1c-1.1,0-2,0.9-2,2v5.7c0,1.1,0.9,2,2,2s2-0.9,2-2v-5.7C27,21,26.1,20.1,25,20.1z"/>
	<path d="M25,43c-1.1,0-2,0.9-2,2v3c0,1.1,0.9,2,2,2s2-0.9,2-2v-3C27,43.9,26.1,43,25,43z"/>
</g>
</svg>
