<?xml version="1.0" encoding="utf-8"?>
<!-- Generator: Adobe Illustrator 24.0.1, SVG Export Plug-In . SVG Version: 6.00 Build 0)  -->
<svg version="1.1" id="Layer_1" xmlns="http://www.w3.org/2000/svg" xmlns:xlink="http://www.w3.org/1999/xlink" x="0px" y="0px"
	 viewBox="0 0 50 50" style="enable-background:new 0 0 50 50;" xml:space="preserve">
<g>
	<circle cx="25" cy="42" r="8"/>
	<path d="M25,16c4.4,0,8-3.6,8-8s-3.6-8-8-8s-8,3.6-8,8S20.6,16,25,16z M25,4c2.2,0,4,1.8,4,4s-1.8,4-4,4c-2.2,0-4-1.8-4-4
		S22.8,4,25,4z"/>
	<path d="M5,23H2c-1.1,0-2,0.9-2,2s0.9,2,2,2h3c1.1,0,2-0.9,2-2S6.1,23,5,23z"/>
	<path d="M22.1,23c-1.1,0-2,0.9-2,2s0.9,2,2,2h5.7c1.1,0,2-0.9,2-2s-0.9-2-2-2H22.1z"/>
	<path d="M39.3,23h-5.7c-1.1,0-2,0.9-2,2s0.9,2,2,2h5.7c1.1,0,2-0.9,2-2S40.4,23,39.3,23z"/>
	<path d="M18.4,25c0-1.1-0.9-2-2-2h-5.7c-1.1,0-2,0.9-2,2s0.9,2,2,2h5.7C17.5,27,18.4,26.1,18.4,25z"/>
	<path d="M48,23h-3c-1.1,0-2,0.9-2,2s0.9,2,2,2h3c1.1,0,2-0.9,2-2S49.1,23,48,23z"/>
</g>
</svg>
