<?xml version="1.0" encoding="utf-8"?>
<!-- Generator: Adobe Illustrator 24.0.1, SVG Export Plug-In . SVG Version: 6.00 Build 0)  -->
<svg version="1.1" id="Layer_1" xmlns="http://www.w3.org/2000/svg" xmlns:xlink="http://www.w3.org/1999/xlink" x="0px" y="0px"
	 viewBox="0 0 46 46" style="enable-background:new 0 0 46 46;" xml:space="preserve">
<g>
	<path d="M44,0H2C0.9,0,0,0.9,0,2v42c0,1.1,0.9,2,2,2h42c1.1,0,2-0.9,2-2V2C46,0.9,45.1,0,44,0z M42,4v18.4c-9.2-5-16-0.9-21.6,2.5
		C14.5,28.4,10.2,31,4,25.1V4H42z M4,42V30.3c2.5,1.7,4.9,2.4,7.2,2.4c4.1,0,7.8-2.2,11.3-4.3c5.8-3.5,11.4-6.9,19.6-1.3v15H4V42z"
		/>
	<path d="M13,20c3.9,0,7-3.1,7-7s-3.1-7-7-7s-7,3.1-7,7S9.1,20,13,20z M13,10c1.7,0,3,1.3,3,3s-1.3,3-3,3s-3-1.3-3-3S11.3,10,13,10z
		"/>
</g>
</svg>
