<?xml version="1.0" encoding="UTF-8" standalone="no"?>
<!DOCTYPE svg PUBLIC "-//W3C//DTD SVG 1.1//EN" "http://www.w3.org/Graphics/SVG/1.1/DTD/svg11.dtd">
<svg width="100%" height="100%" viewBox="0 0 50 50" version="1.1" xmlns="http://www.w3.org/2000/svg" xmlns:xlink="http://www.w3.org/1999/xlink" xml:space="preserve" xmlns:serif="http://www.serif.com/" style="fill-rule:evenodd;clip-rule:evenodd;stroke-linejoin:round;stroke-miterlimit:2;">
    <g transform="matrix(1,0,0,1,-70,0)">
        <g id="gamepad" transform="matrix(0.925926,0,0,0.925926,2.40741,1.85185)">
            <rect x="73" y="-2" width="54" height="54" style="fill:none;"/>
            <g transform="matrix(1.08,0,0,0.658061,74.004,8.89003)">
                <path d="M49.047,8.069C49.047,5.458 48.415,2.953 47.29,1.106C46.164,-0.741 44.638,-1.778 43.047,-1.778C34.348,-1.778 13.793,-1.778 5.094,-1.778C3.502,-1.778 1.976,-0.741 0.851,1.106C-0.274,2.953 -0.906,5.458 -0.906,8.069C-0.906,16.804 -0.906,32.158 -0.906,40.893C-0.906,43.504 -0.274,46.009 0.851,47.856C1.976,49.702 3.502,50.74 5.094,50.74C13.793,50.74 34.348,50.74 43.047,50.74C44.638,50.74 46.164,49.702 47.29,47.856C48.415,46.009 49.047,43.504 49.047,40.893L49.047,8.069ZM45.047,8.069L45.047,40.893C45.047,41.763 44.836,42.598 44.461,43.214C44.086,43.829 43.577,44.175 43.047,44.175C43.047,44.175 5.094,44.175 5.094,44.175C4.563,44.175 4.055,43.829 3.68,43.214C3.304,42.598 3.094,41.763 3.094,40.893L3.094,8.069C3.094,7.199 3.304,6.364 3.68,5.748C4.055,5.133 4.563,4.787 5.094,4.787C5.094,4.787 43.047,4.787 43.047,4.787C43.577,4.787 44.086,5.133 44.461,5.748C44.836,6.364 45.047,7.199 45.047,8.069Z"/>
            </g>
            <g transform="matrix(1.08,0,0,1.08,66.3407,-12.797)">
                <g transform="matrix(0.87646,0,0,1.04921,1.87775,3.45912)">
                    <rect x="15.199" y="28.153" width="13.691" height="3.812"/>
                </g>
                <g transform="matrix(5.36677e-17,0.87646,-1.04921,6.42457e-17,52.7376,15.6755)">
                    <rect x="15.199" y="28.153" width="13.691" height="3.812"/>
                </g>
            </g>
            <g transform="matrix(1.08,0,0,1.08,71.9561,-9.56)">
                <g transform="matrix(1,1.11022e-16,-1.11022e-16,1,2.69246,0.982406)">
                    <ellipse cx="33.258" cy="27.013" rx="1.978" ry="2.013"/>
                </g>
                <g transform="matrix(1,0,0,1,6.69725,4.9872)">
                    <ellipse cx="33.258" cy="27.013" rx="1.978" ry="2.013"/>
                </g>
                <g transform="matrix(1,1.11022e-16,-1.11022e-16,1,2.69246,8.992)">
                    <ellipse cx="33.258" cy="27.013" rx="1.978" ry="2.013"/>
                </g>
                <g transform="matrix(1,0,0,1,-1.31234,4.9872)">
                    <ellipse cx="33.258" cy="27.013" rx="1.978" ry="2.013"/>
                </g>
            </g>
        </g>
    </g>
</svg>
