<?xml version="1.0" encoding="UTF-8" standalone="no"?>
<!DOCTYPE svg PUBLIC "-//W3C//DTD SVG 1.1//EN" "http://www.w3.org/Graphics/SVG/1.1/DTD/svg11.dtd">
<svg width="100%" height="100%" viewBox="0 0 51 50" version="1.1" xmlns="http://www.w3.org/2000/svg" xmlns:xlink="http://www.w3.org/1999/xlink" xml:space="preserve" xmlns:serif="http://www.serif.com/" style="fill-rule:evenodd;clip-rule:evenodd;stroke-linejoin:round;stroke-miterlimit:2;">
    <g transform="matrix(1,0,0,1,-489,-140)">
        <g id="giraRetrato" transform="matrix(0.925926,0,0,0.925926,422.384,141.852)">
            <rect x="73" y="-2" width="54" height="54" style="fill:none;"/>
            <g transform="matrix(1.08,0,0,1.08,-456.175,-153.2)">
                <path d="M536.379,161.409C538.962,156.935 537.427,151.206 532.953,148.623C532.953,148.623 520.206,141.264 520.206,141.264C515.732,138.681 510.003,140.216 507.42,144.689C507.42,144.689 493.621,168.591 493.621,168.591C491.038,173.065 492.573,178.794 497.047,181.377C497.047,181.377 509.794,188.736 509.794,188.736C514.268,191.319 519.997,189.784 522.58,185.311C522.58,185.311 536.379,161.409 536.379,161.409ZM532.915,159.409L519.116,183.311C517.637,185.872 514.356,186.751 511.794,185.272C511.794,185.272 499.047,177.913 499.047,177.913C496.485,176.433 495.606,173.153 497.085,170.591C497.085,170.591 510.884,146.689 510.884,146.689C512.363,144.128 515.644,143.249 518.206,144.728C518.206,144.728 530.953,152.087 530.953,152.087C533.515,153.567 534.394,156.847 532.915,159.409ZM536.577,171C536.266,170.996 535.962,171.064 535.688,171.195L532.198,172.298C531.145,172.63 530.561,173.754 530.893,174.807C531.156,175.639 531.914,176.179 532.74,176.204C531.383,178.348 529.648,180.23 527.629,181.755C526.749,182.421 526.574,183.676 527.24,184.557C527.905,185.437 529.161,185.612 530.041,184.946C532.521,183.072 534.641,180.745 536.278,178.09C536.782,178.698 537.622,178.974 538.421,178.721C539.474,178.389 540.059,177.265 539.726,176.212L538.522,172.398C538.248,171.532 537.44,170.983 536.577,171ZM493.703,151.91C493.199,151.302 492.359,151.026 491.56,151.279C490.507,151.611 489.922,152.735 490.255,153.788L491.459,157.602C491.792,158.656 492.916,159.24 493.969,158.907L497.783,157.702C498.836,157.37 499.42,156.246 499.088,155.193C498.825,154.361 498.067,153.821 497.241,153.796C498.601,151.648 500.34,149.764 502.363,148.236C503.244,147.571 503.419,146.316 502.754,145.435C502.089,144.554 500.834,144.379 499.953,145.044C497.467,146.92 495.343,149.25 493.703,151.91Z"/>
            </g>
        </g>
    </g>
</svg>
