<?xml version="1.0" encoding="UTF-8" standalone="no"?>
<!DOCTYPE svg PUBLIC "-//W3C//DTD SVG 1.1//EN" "http://www.w3.org/Graphics/SVG/1.1/DTD/svg11.dtd">
<svg width="100%" height="100%" viewBox="0 0 51 50" version="1.1" xmlns="http://www.w3.org/2000/svg" xmlns:xlink="http://www.w3.org/1999/xlink" xml:space="preserve" xmlns:serif="http://www.serif.com/" style="fill-rule:evenodd;clip-rule:evenodd;stroke-linejoin:round;stroke-miterlimit:2;">
    <g transform="matrix(1,0,0,1,-559,-140)">
        <g id="giraPaisaje" transform="matrix(0.925926,0,0,0.925926,492.384,141.852)">
            <rect x="73" y="-2" width="54" height="54" style="fill:none;"/>
            <clipPath id="_clip1">
                <rect x="73" y="-2" width="54" height="54"/>
            </clipPath>
            <g clip-path="url(#_clip1)">
                <g transform="matrix(1.08,0,0,1.08,-531.775,-153.2)">
                    <path d="M571.901,186.288C571.293,186.791 571.017,187.632 571.269,188.431C571.602,189.483 572.726,190.068 573.779,189.736L577.593,188.531C578.646,188.198 579.23,187.075 578.898,186.022L577.693,182.207C577.361,181.155 576.236,180.57 575.183,180.902C574.351,181.165 573.812,181.923 573.786,182.749C571.639,181.39 569.754,179.651 568.227,177.628C567.562,176.747 566.307,176.571 565.426,177.236C564.545,177.901 564.369,179.157 565.034,180.038C566.911,182.523 569.241,184.648 571.901,186.288ZM581.4,143.611C576.926,141.028 571.197,142.563 568.614,147.037C568.614,147.037 561.254,159.785 561.254,159.785C558.671,164.258 560.206,169.987 564.68,172.57C564.68,172.57 588.581,186.37 588.581,186.37C593.055,188.953 598.784,187.418 601.367,182.944C601.367,182.944 608.727,170.196 608.727,170.196C611.31,165.723 609.775,159.994 605.301,157.411C605.301,157.411 581.4,143.611 581.4,143.611ZM579.4,147.075L603.301,160.875C605.863,162.354 606.742,165.635 605.263,168.196C605.263,168.196 597.903,180.944 597.903,180.944C596.424,183.506 593.143,184.385 590.581,182.906C590.581,182.906 566.68,169.106 566.68,169.106C564.118,167.627 563.239,164.346 564.718,161.785C564.718,161.785 572.078,149.037 572.078,149.037C573.557,146.475 576.838,145.596 579.4,147.075ZM590.99,143.414C590.986,143.724 591.055,144.028 591.186,144.303L592.288,147.793C592.62,148.845 593.745,149.43 594.798,149.098C595.63,148.835 596.17,148.077 596.195,147.251C598.338,148.608 600.22,150.343 601.746,152.361C602.411,153.242 603.667,153.416 604.547,152.751C605.428,152.085 605.602,150.83 604.937,149.949C603.062,147.469 600.735,145.349 598.08,143.712C598.688,143.209 598.964,142.368 598.712,141.569C598.379,140.517 597.255,139.932 596.202,140.264L592.388,141.469C591.522,141.742 590.974,142.55 590.99,143.414Z"/>
                </g>
            </g>
        </g>
    </g>
</svg>
