<?xml version="1.0" encoding="utf-8"?>
<!-- Generator: Adobe Illustrator 24.0.1, SVG Export Plug-In . SVG Version: 6.00 Build 0)  -->
<svg version="1.1" id="Layer_1" xmlns="http://www.w3.org/2000/svg" xmlns:xlink="http://www.w3.org/1999/xlink" x="0px" y="0px"
	 viewBox="0 0 50 50" style="enable-background:new 0 0 50 50;" xml:space="preserve">
<path d="M4.8,30.8c-0.2-1.1-1.3-1.7-2.4-1.5c-1.1,0.2-1.7,1.3-1.5,2.4c0.3,1.3,0.8,2.6,1.6,4.1C2.9,36.6,3.6,37,4.3,37
	c0.3,0,0.6-0.1,0.9-0.2c1-0.5,1.4-1.7,0.9-2.7C5.5,32.8,5.1,31.8,4.8,30.8z"/>
<path d="M2.1,25.3c1,0,1.9-0.8,2-1.8c0.1-1.2,0.3-2.4,0.6-3.6c0.2-1.1-0.4-2.2-1.5-2.4c-1.1-0.2-2.2,0.4-2.4,1.5
	c-0.3,1.4-0.5,2.8-0.6,4.2c-0.1,1.1,0.7,2.1,1.8,2.1C2,25.3,2.1,25.3,2.1,25.3z"/>
<path d="M13.4,42.4c-0.3-0.2-0.6-0.4-0.9-0.7c-0.2-0.2-0.5-0.4-0.7-0.5c-0.5-0.4-0.9-0.7-1.3-1.2c-0.8-0.8-2-0.8-2.8,0
	c-0.8,0.8-0.8,2,0,2.8c0.6,0.6,1.2,1,1.7,1.4c0.3,0.2,0.6,0.4,0.9,0.7c0.2,0.2,0.5,0.4,0.7,0.5c0.4,0.3,0.8,0.4,1.2,0.4
	c0.6,0,1.2-0.3,1.6-0.8C14.4,44.4,14.2,43.1,13.4,42.4z"/>
<path d="M23.5,45.9c-0.3-0.1-0.7-0.1-1-0.2c-0.3,0-0.7-0.1-1-0.1l-0.2,0c-0.5-0.1-1-0.2-1.4-0.3c-1-0.3-2.2,0.2-2.5,1.3
	s0.2,2.2,1.3,2.5c0.7,0.2,1.4,0.3,2,0.4l0.2,0c0.3,0.1,0.7,0.1,1,0.2c0.3,0,0.7,0.1,1,0.1c0.1,0,0.2,0,0.3,0c1,0,1.8-0.7,2-1.7
	C25.4,47.1,24.6,46.1,23.5,45.9z"/>
<path d="M34.3,43.9c-0.7,0.2-1.3,0.5-1.9,0.8c-0.2,0.1-0.3,0.1-0.5,0.2c-0.4,0.1-0.7,0.3-0.9,0.3c-1.1,0.2-1.9,1.2-1.7,2.3
	c0.1,1,1,1.7,2,1.7c0.1,0,0.2,0,0.3,0c0.7-0.1,1.3-0.3,1.8-0.5c0.2-0.1,0.3-0.1,0.5-0.2c0.1,0,0.2-0.1,0.3-0.1
	c0.5-0.3,1.1-0.5,1.5-0.7c1-0.3,1.6-1.5,1.3-2.5C36.4,44.1,35.3,43.5,34.3,43.9z"/>
<path d="M45.2,36.5c-0.9-0.6-2.1-0.4-2.8,0.4c-0.9,1.2-1.6,2-2.3,2.8c-0.8,0.8-0.8,2,0,2.8c0.4,0.4,0.9,0.6,1.4,0.6
	c0.5,0,1-0.2,1.4-0.6c0.9-0.9,1.7-1.9,2.7-3.2C46.3,38.4,46.1,37.1,45.2,36.5z"/>
<path d="M50,23.1c-0.3-3.9-1.5-7.6-3.4-10.9c-1.6-2.7-3.5-4.9-5.8-6.7C31.1-2.3,17.8-1.9,8.7,6L8.3,2.3C8.2,1.2,7.2,0.4,6.1,0.5
	C5,0.6,4.2,1.6,4.3,2.7l0.8,8c0,0.1,0,0.3,0.1,0.4c0,0,0,0,0,0c0,0.1,0.1,0.2,0.1,0.3c0,0,0,0.1,0.1,0.1c0,0.1,0.1,0.1,0.1,0.2
	c0,0,0.1,0.1,0.1,0.1C5.7,11.9,5.7,12,5.8,12c0,0,0,0,0,0c0,0,0.1,0,0.1,0.1c0.1,0,0.1,0.1,0.2,0.1c0,0,0.1,0.1,0.1,0.1
	c0,0,0.1,0,0.1,0.1c0,0,0.1,0,0.1,0c0.1,0,0.1,0,0.2,0c0.1,0,0.1,0,0.2,0c0.1,0,0.1,0,0.2,0c0,0,0.1,0,0.1,0c0.1,0,0.1,0,0.2,0
	c0,0,0,0,0,0l8-0.8c1.1-0.1,1.9-1.1,1.8-2.2C17,8.4,16,7.6,14.9,7.7l-2.2,0.2c7.6-5.5,17.9-5.5,25.6,0.7c1.9,1.5,3.5,3.4,4.8,5.7
	c1.6,2.7,2.5,5.8,2.8,9.1v3.5c-0.1,1.1-0.4,2.3-0.6,3.5l0,0c-0.2,1.1,0.4,2.1,1.5,2.4c0.1,0,0.3,0.1,0.4,0.1c0.9,0,1.7-0.6,2-1.6
	c0.3-1.3,0.6-2.7,0.7-4.2c0-0.1,0-0.1,0-0.2v-3.7C50,23.2,50,23.2,50,23.1z"/>
</svg>
