<?xml version="1.0" encoding="utf-8"?>
<!-- Generator: Adobe Illustrator 24.0.1, SVG Export Plug-In . SVG Version: 6.00 Build 0)  -->
<svg version="1.1" id="Layer_1" xmlns="http://www.w3.org/2000/svg" xmlns:xlink="http://www.w3.org/1999/xlink" x="0px" y="0px"
	 viewBox="0 0 50 50" style="enable-background:new 0 0 50 50;" xml:space="preserve">
<g>
	<path d="M43.5,12.4c0.1,0,0.1,0,0.2,0c0.1,0,0.1,0,0.2-0.1c0.1,0,0.1,0,0.1-0.1c0.1,0,0.1-0.1,0.2-0.1c0,0,0.1,0,0.1-0.1
		c0,0,0,0,0,0c0.1-0.1,0.1-0.1,0.2-0.2c0,0,0.1-0.1,0.1-0.1c0.1-0.1,0.1-0.2,0.2-0.2c0,0,0-0.1,0.1-0.1c0.1-0.2,0.2-0.5,0.2-0.7
		l0.8-8c0.1-1.1-0.7-2.1-1.8-2.2c-1.1-0.1-2.1,0.7-2.2,1.8l-0.4,3.8C32.4-1.7,18.8-2.2,9.3,5.6C7,7.5,5.1,9.7,3.6,12.3
		c-1.9,3.3-3.1,7.1-3.4,10.9c0,0,0,0.1,0,0.1l0,3.7c0,0.1,0,0.1,0,0.2c0.1,1.4,0.4,2.8,0.7,4.2c0.2,0.9,1,1.5,1.9,1.5
		c0.2,0,0.3,0,0.5-0.1c1.1-0.3,1.7-1.4,1.5-2.4c-0.3-1.2-0.5-2.3-0.6-3.5l0-3.5c0.2-3.2,1.2-6.3,2.9-9.1c1.3-2.2,2.9-4.1,4.9-5.7
		c7.4-6.1,17.9-6.1,25.4-0.7l-2.1-0.2c-1.1-0.1-2.1,0.7-2.2,1.8c-0.1,1.1,0.7,2.1,1.8,2.2l8,0.8c0.1,0,0.1,0,0.2,0c0,0,0.1,0,0.1,0
		c0.1,0,0.1,0,0.2,0C43.3,12.5,43.4,12.5,43.5,12.4z"/>
	<path d="M47.7,29.4c-1.1-0.2-2.2,0.4-2.4,1.5c-0.2,1-0.6,2-1.2,3.3c-0.5,1-0.1,2.2,0.9,2.7c0.3,0.1,0.6,0.2,0.9,0.2
		c0.7,0,1.4-0.4,1.8-1.1c0.8-1.5,1.3-2.8,1.6-4.1C49.4,30.7,48.7,29.6,47.7,29.4z"/>
	<path d="M49.4,18.9c-0.2-1.1-1.3-1.7-2.4-1.5c-1.1,0.2-1.7,1.3-1.5,2.4c0.3,1.2,0.5,2.4,0.6,3.6c0.1,1,1,1.8,2,1.8
		c0.1,0,0.1,0,0.2,0c1.1-0.1,1.9-1,1.8-2.1C49.9,21.7,49.7,20.3,49.4,18.9z"/>
	<path d="M39.7,40.1c-0.4,0.4-0.9,0.8-1.3,1.2c-0.2,0.2-0.5,0.4-0.7,0.5c-0.3,0.2-0.6,0.4-0.9,0.7c-0.9,0.7-1,1.9-0.3,2.8
		c0.4,0.5,1,0.8,1.6,0.8c0.4,0,0.9-0.1,1.2-0.4c0.2-0.2,0.5-0.4,0.7-0.5c0.3-0.2,0.6-0.4,0.9-0.7c0.5-0.4,1.1-0.9,1.7-1.4
		c0.8-0.8,0.8-2,0-2.8S40.5,39.3,39.7,40.1z"/>
	<path d="M30.3,45.4c-0.6,0.2-1.1,0.2-1.7,0.3c-0.3,0-0.6,0.1-0.9,0.1c-0.4,0-0.7,0.1-1.1,0.1c-1.1,0.2-1.8,1.2-1.7,2.3
		c0.2,1,1,1.7,2,1.7c0.1,0,0.2,0,0.3,0c0.3,0,0.6-0.1,0.9-0.1c0.4,0,0.7-0.1,1.1-0.1c0.6-0.1,1.4-0.2,2.2-0.4
		c1.1-0.3,1.7-1.4,1.4-2.5C32.4,45.7,31.3,45.1,30.3,45.4z"/>
	<path d="M19.4,45.3c-0.6-0.2-1.1-0.4-1.7-0.6c-0.3-0.1-0.6-0.2-0.8-0.4c-0.3-0.1-0.7-0.3-1-0.4c-1-0.4-2.2,0.1-2.6,1.2
		c-0.4,1,0.1,2.2,1.2,2.6c0.3,0.1,0.6,0.2,0.8,0.4c0.3,0.1,0.7,0.3,1,0.4c0.6,0.2,1.3,0.5,2.1,0.7c0.2,0,0.3,0.1,0.5,0.1
		c0.9,0,1.7-0.6,1.9-1.5C21.1,46.6,20.5,45.5,19.4,45.3z"/>
	<path d="M7.7,37c-0.6-0.9-1.9-1.2-2.8-0.5C4,37,3.8,38.3,4.4,39.2c1,1.4,1.9,2.5,2.8,3.4c0.4,0.3,0.9,0.5,1.3,0.5
		c0.5,0,1.1-0.2,1.5-0.7c0.7-0.8,0.7-2.1-0.1-2.8C9.2,38.9,8.5,38.1,7.7,37z"/>
</g>
</svg>
