<?xml version="1.0" encoding="utf-8"?>
<!-- Generator: Adobe Illustrator 22.0.1, SVG Export Plug-In . SVG Version: 6.00 Build 0)  -->
<svg version="1.1" id="Layer_1"
	xmlns="http://www.w3.org/2000/svg" x="0px" y="0px" viewBox="0 0 50 50"
	style="enable-background:new 0 0 50 50;" xml:space="preserve">
<g>
	<path d="M20.3,29.4H29l0.8-8.7H21L20.3,29.4z M24.7,24.6h0.7l-0.1,0.7h-0.7L24.7,24.6z"/>
	<path d="M44,25.4h-6.6l0.1-0.7H44c3.3,0,6-2.7,6-6s-2.7-6-6-6h-5.5L39,6.5c0.1-1.6-0.4-3.2-1.4-4.4c-1-1.2-2.5-2-4.1-2.1
		c-0.2,0-0.4,0-0.5,0c0,0,0,0,0,0c-3.1,0-5.7,2.4-6,5.5l-0.6,7.2h-0.7l0.5-6.1c0.3-3.3-2.2-6.2-5.5-6.5c-0.2,0-0.4,0-0.5,0
		c-3.1,0-5.7,2.4-6,5.5l-0.6,7.2H6c-3.3,0-6,2.7-6,6s2.7,6,6,6h6.6l-0.1,0.7H6c-3.3,0-6,2.7-6,6s2.7,6,6,6h5.5L11,43.5
		c-0.1,1.6,0.4,3.2,1.4,4.4c1,1.2,2.5,2,4.1,2.1c0.1,0,0.3,0,0.5,0c3.1,0,5.7-2.4,6-5.5l0.6-7.2h0.7l-0.5,6.1
		c-0.1,1.6,0.4,3.2,1.4,4.4c1,1.2,2.5,2,4,2.1c0.2,0,0.4,0,0.5,0c3.1,0,5.7-2.4,6-5.5l0.6-7.2H44c3.3,0,6-2.7,6-6S47.3,25.4,44,25.4
		z M44,33.4H32.6l-0.9,10.8c-0.1,1-1,1.8-2,1.8c-0.1,0-0.1,0-0.2,0c-1.1-0.1-1.9-1.1-1.8-2.2l0.9-10.5h-8.7L19,44.2
		c-0.1,1-1,1.8-2,1.8c-0.1,0-0.1,0-0.2,0c-1.1-0.1-1.9-1.1-1.8-2.2l0.9-10.5H6c-1.1,0-2-0.9-2-2s0.9-2,2-2h10.3l0.8-8.7H6
		c-1.1,0-2-0.9-2-2s0.9-2,2-2h11.4l0.9-10.8c0.1-1,1-1.8,2-1.8c0.1,0,0.1,0,0.2,0c1.1,0.1,1.9,1.1,1.8,2.2l-0.9,10.5h8.7L31,5.8
		c0.1-1,1-1.8,2-1.8c0.1,0,0.1,0,0.2,0c1.1,0.1,1.9,1.1,1.8,2.2l-0.9,10.5H44c1.1,0,2,0.9,2,2s-0.9,2-2,2H33.7L33,29.4h11
		c1.1,0,2,0.9,2,2S45.1,33.4,44,33.4z"/>
</g>
</svg>
