<?xml version="1.0" encoding="utf-8"?>
<!-- Generator: Adobe Illustrator 22.0.1, SVG Export Plug-In . SVG Version: 6.00 Build 0)  -->
<svg version="1.1" id="Layer_1"
	xmlns="http://www.w3.org/2000/svg" x="0px" y="0px" viewBox="0 0 50 50"
	style="enable-background:new 0 0 50 50;" xml:space="preserve">
<path d="M48.7,3.2c-0.6-0.2-14-5-26.5-2.5C7,3.7,0,15.4,0,25.1c0,6.4,3.1,12.2,8,15.7C7.6,44.2,4.7,46,2,46c-1.1,0-2,0.9-2,2
	s0.9,2,2,2c4.1,0,8.3-2.6,9.6-7.1c2.5,1.1,5.2,1.7,8,1.7c10.4,0,18.6-8.2,19.5-19.4c1.1-12.7,9.6-18.3,10-18.5
	c0.6-0.4,1-1.1,0.9-1.9C49.9,4.1,49.4,3.5,48.7,3.2z M35.1,24.9C35.1,24.9,35.1,24.9,35.1,24.9c-0.8,9.1-7.3,15.8-15.5,15.8
	c-2.7,0-5.3-0.7-7.5-1.9c0.3-3,1.7-5.7,4.3-8.3c0.8-0.8,0.8-2,0-2.8c-0.8-0.8-2-0.8-2.8,0C10.9,30.2,9.3,33,8.5,36
	C5.7,33.2,4,29.3,4,25.1C4,17,9.9,7.2,23,4.6C25.3,4.2,27.6,4,29.9,4c5.5,0,10.7,1.1,14,1.9C40.6,9.1,35.9,15.2,35.1,24.9z"/>
</svg>
