<?xml version="1.0" encoding="utf-8"?>
<!-- Generator: Adobe Illustrator 22.0.1, SVG Export Plug-In . SVG Version: 6.00 Build 0)  -->
<svg version="1.1" id="Layer_1" xmlns="http://www.w3.org/2000/svg" x="0px" y="0px"
	viewBox="0 0 50 50" style="enable-background:new 0 0 50 50;" xml:space="preserve">
<g>
	<path d="M12.2,28.1c-0.2-0.9-0.3-1.8-0.3-2.7c0-0.8,0.1-1.6,0.3-2.5c1.3-7,7.4-11.4,14.5-10.6c1.1,0.1,2.1-0.7,2.2-1.7
		S28.1,8.5,27,8.4C18,7.4,9.9,13.3,8.2,22.1c-0.3,1.2-0.4,2.2-0.3,3.4c0,1.1,0.2,2.2,0.4,3.2c0.1,0.5,0.2,1,0.2,1.5
		c0.4,4.1,0,7.4-1.4,10.4C7,40.7,7,40.8,7,40.9c-0.1,0.2-0.2,0.5-0.2,0.9c0,1.1,0.9,2,2,2c0.9,0,1.6-0.6,1.9-1.4
		c0-0.1,0.1-0.1,0.1-0.2c1.6-3.6,2.2-7.6,1.7-12.3C12.4,29.2,12.3,28.6,12.2,28.1z"/>
	<path d="M34,23.3c-0.8-4.8-5.5-8.1-10.4-7.4c-1.1,0.2-1.8,1.2-1.7,2.2c0.2,1.1,1.2,1.8,2.2,1.7c2.8-0.4,5.5,1.5,5.9,4.2
		c0.4,2.1,0.6,3.9,0.8,6.1c0.3,5.8-0.5,11.6-2.3,17c-0.3,1,0.2,2.2,1.2,2.5c0.2,0.1,0.4,0.1,0.6,0.1c0.8,0,1.6-0.5,1.9-1.3
		c2-5.9,2.8-12.1,2.5-18.5C34.6,27.5,34.4,25.5,34,23.3z"/>
	<path d="M41.4,21.5c-0.8-3.7-2.8-6.9-5.8-9.3c-0.8-0.7-2.1-0.6-2.8,0.3c-0.7,0.8-0.6,2.1,0.3,2.8c2.3,1.9,3.8,4.3,4.4,7.1
		c0.6,2.4,0.8,4.9,1,7.3c0.3,4.7,0.1,8.7-0.6,12.6c-0.2,1.1,0.5,2.1,1.6,2.3c0.1,0,0.2,0,0.4,0c0.9,0,1.8-0.7,1.9-1.6
		c0.8-4.2,1-8.6,0.6-13.6C42.3,26.9,42.1,24.2,41.4,21.5z"/>
	<path d="M50,24.1c-0.1-0.5-0.1-0.9-0.2-1.4c-0.1-1-0.2-2-0.5-3.2c-2-8.7-9.2-16.1-17.9-18.5c-1.1-0.3-2.1,0.3-2.4,1.4
		c-0.3,1.1,0.3,2.1,1.4,2.4c7.4,2,13.4,8.3,15.1,15.5c0.2,0.9,0.3,1.9,0.4,2.8c0.1,0.5,0.1,1,0.2,1.5c0.1,1,1,1.7,2,1.7
		c0.1,0,0.2,0,0.3,0C49.4,26.2,50.1,25.2,50,24.1z"/>
	<path d="M20,23.6c0.3-1-0.2-2.1-1.3-2.5c-1-0.3-2.1,0.2-2.5,1.3c-0.4,1.4-0.6,2.9-0.3,4.7c0,0,0,0.1,0,0.1c1.1,6.8,0.4,12.7-2.3,18
		c-0.1,0.2-0.3,0.5-0.4,1c-0.3,1,0.2,2.2,1.2,2.5c0.2,0.1,0.4,0.1,0.6,0.1c0.8,0,1.6-0.5,1.9-1.3c0.1-0.2,0.1-0.3,0.2-0.4
		c3-6,3.9-12.8,2.7-20.4C19.7,25.4,19.8,24.4,20,23.6z"/>
	<path d="M23.1,4.3c1.1-0.1,1.9-1,1.8-2.1c-0.1-1.1-1-1.9-2.1-1.8C17,0.8,11.7,3.2,7.1,7.5c-1.5,1.5-2.9,3.4-4.3,5.7
		c-0.6,0.9-0.2,2.1,0.7,2.7c0.3,0.2,0.7,0.3,1,0.3c0.7,0,1.3-0.3,1.7-1c1.2-2,2.4-3.6,3.6-4.8C13.8,6.6,18.2,4.6,23.1,4.3z"/>
	<path d="M26.9,26.7c-0.1-0.7-0.2-1.3-0.3-1.9c-0.2-1.1-1.2-1.8-2.3-1.6c-1.1,0.2-1.8,1.2-1.6,2.3c0.1,0.6,0.2,1.2,0.3,1.9
		c0.1,0.7,0.2,1.3,0.3,1.9c0.6,3.9,0.4,7.8-0.7,11.5c0,0.1,0,0.2-0.1,0.3c0,0.2-0.1,0.5-0.1,0.8c0,1.1,0.9,2,2,2c1,0,1.9-0.8,2-1.8
		c0-0.1,0.1-0.2,0.1-0.4c1.1-4.2,1.3-8.6,0.7-13C27.1,28,27,27.4,26.9,26.7z"/>
	<path d="M4.2,22.3c0.2-1.1-0.5-2.1-1.6-2.3c-1.1-0.2-2.1,0.5-2.3,1.6c-0.6,3.5-0.3,7,0.9,10.8c0.3,0.8,1,1.4,1.9,1.4
		c0.2,0,0.4,0,0.6-0.1c1-0.3,1.6-1.4,1.3-2.5C3.9,28.1,3.7,25.1,4.2,22.3z"/>
</g>
</svg>
