<?xml version="1.0" encoding="utf-8"?>
<!-- Generator: Adobe Illustrator 21.1.0, SVG Export Plug-In . SVG Version: 6.00 Build 0)  -->
<svg version="1.1" id="Layer_1"
	xmlns="http://www.w3.org/2000/svg" x="0px" y="0px" viewBox="0 0 46 46"
	style="enable-background:new 0 0 46 46;" xml:space="preserve">
<path d="M44,4.5H2c-1.1,0-2,0.9-2,2V33c0,1.1,0.9,2,2,2h8.8l4.9,9c0.4,0.6,1,1,1.8,1s1.4-0.4,1.8-1l4.9-9H44c1.1,0,2-0.9,2-2V6.5
	C46,5.4,45.1,4.5,44,4.5z M42,31H23c-0.7,0-1.4,0.4-1.8,1l-3.7,6.8L13.8,32c-0.4-0.6-1-1-1.8-1H4V8.5h38V31z"/>
<path d="M13,24c1.7,0,3-1.3,3-3s-1.3-3-3-3s-3,1.3-3,3S11.3,24,13,24z M13,20c0.6,0,1,0.4,1,1s-0.4,1-1,1s-1-0.4-1-1S12.4,20,13,20z
	"/>
<path d="M23,24c1.7,0,3-1.3,3-3s-1.3-3-3-3s-3,1.3-3,3S21.3,24,23,24z M23,20c0.6,0,1,0.4,1,1s-0.4,1-1,1s-1-0.4-1-1S22.4,20,23,20z
	"/>
<path d="M33,24c1.7,0,3-1.3,3-3s-1.3-3-3-3s-3,1.3-3,3S31.3,24,33,24z M33,20c0.6,0,1,0.4,1,1s-0.4,1-1,1s-1-0.4-1-1S32.4,20,33,20z
	"/>
</svg>
