<?xml version="1.0" encoding="utf-8"?>
<!-- Generator: Adobe Illustrator 22.0.1, SVG Export Plug-In . SVG Version: 6.00 Build 0)  -->
<svg version="1.1" id="Layer_1"
	xmlns="http://www.w3.org/2000/svg" x="0px" y="0px" viewBox="0 0 50 50"
	style="enable-background:new 0 0 50 50;" xml:space="preserve">
<g>
	<g>
		<path d="M44,34c1.1,0,2,0.9,2,2s-0.9,2-2,2H6c-1.1,0-2-0.9-2-2s0.9-2,2-2 M6,30c-3.3,0-6,2.7-6,6s2.7,6,6,6h38c3.3,0,6-2.7,6-6
			s-2.7-6-6-6H6z"/>
	</g>
	<g>
		<path d="M44,12c1.1,0,2,0.9,2,2s-0.9,2-2,2H6c-1.1,0-2-0.9-2-2s0.9-2,2-2 M6,8c-3.3,0-6,2.7-6,6s2.7,6,6,6h38c3.3,0,6-2.7,6-6
			s-2.7-6-6-6H6z"/>
	</g>
</g>
</svg>
