<?xml version="1.0" encoding="utf-8"?>
<!-- Generator: Adobe Illustrator 22.0.1, SVG Export Plug-In . SVG Version: 6.00 Build 0)  -->
<svg version="1.1" id="Layer_1"
	xmlns="http://www.w3.org/2000/svg" x="0px" y="0px" viewBox="0 0 50 50"
	style="enable-background:new 0 0 50 50;" xml:space="preserve">
<g>
	<path d="M27.5,11.9c2.6,0.6,4.9,1.9,6.8,3.7c1.9,1.9,3.1,4.2,3.7,6.8c0.2,0.9,1,1.5,1.9,1.5c0.2,0,0.3,0,0.5-0.1
		c1.1-0.3,1.7-1.3,1.5-2.4c-0.8-3.3-2.4-6.3-4.8-8.7c-2.4-2.4-5.4-4-8.7-4.8c-1.1-0.2-2.2,0.4-2.4,1.5
		C25.8,10.6,26.5,11.7,27.5,11.9z"/>
	<path d="M49.9,18c-1.3-4.2-3.6-8.1-6.7-11.2c-3.1-3.1-7-5.4-11.2-6.7c-1.1-0.3-2.2,0.3-2.5,1.3c-0.3,1.1,0.3,2.2,1.3,2.5
		c3.6,1.1,6.9,3,9.5,5.7c2.7,2.7,4.6,6,5.7,9.5c0.3,0.9,1.1,1.4,1.9,1.4c0.2,0,0.4,0,0.6-0.1C49.6,20.2,50.2,19.1,49.9,18z"/>
	<path d="M38.4,26.3c-0.8-0.8-1.8-1.2-2.8-1.2s-2,0.4-2.8,1.2l-8.4,8.4c-1.1,1-2,1.9-2.3,2.1C21,37.6,19.7,38,18.4,38
		c-1.7,0-3.4-0.7-4.5-1.8c-2.2-2.2-2.5-5.7-0.7-8.2c0.2-0.3,1.1-1.2,2.1-2.3l8.5-8.5c1.6-1.6,1.6-4.1,0-5.7l-2.8-2.8
		C20.1,8,19.1,7.6,18,7.6C17,7.6,16,8,15.2,8.8l-8.5,8.5c0,0,0,0-0.1,0.1c-2.5,2.6-3,3.3-3.2,3.5C-1.8,28.1-1,38.3,5.3,44.7
		c3.4,3.4,8.1,5.3,13,5.3c3.9,0,7.7-1.2,10.8-3.5c0.2-0.2,0.9-0.6,3.5-3.2c0,0,0,0,0.1-0.1l8.5-8.5c1.6-1.6,1.6-4.1,0-5.7L38.4,26.3
		z M15.2,14.4l2.8-2.8l2.8,2.8L18,17.2l-1.4,1.4l-2.8-2.8L15.2,14.4z M31.3,39l-1.4,1.4c-0.8,0.7-2.5,2.4-3.1,2.8
		c-2.5,1.8-5.5,2.7-8.4,2.7c-3.7,0-7.4-1.4-10.2-4.2c-4.9-4.9-5.6-13-1.5-18.6c0.4-0.6,2.1-2.4,2.8-3.1l1.4-1.4l1.4-1.4l2.8,2.8
		l-1.4,1.4l-1.4,1.4c-1,1-2.2,2.4-2.4,2.6C7,29.6,7.4,35.4,11,39c2,2,4.7,3,7.4,3c2.1,0,4.3-0.6,6.1-2c0.3-0.2,1.6-1.4,2.7-2.5
		l1.4-1.4l1.4-1.4l2.8,2.8L31.3,39z M35.6,34.8l-1.4,1.4l-2.8-2.8l1.4-1.4l2.8-2.8l2.8,2.8L35.6,34.8z"/>
</g>
</svg>
