<?xml version="1.0" encoding="utf-8"?>
<!-- Generator: Adobe Illustrator 22.0.1, SVG Export Plug-In . SVG Version: 6.00 Build 0)  -->
<svg version="1.1" id="Layer_1"
	xmlns="http://www.w3.org/2000/svg" x="0px" y="0px" viewBox="0 0 50 50"
	style="enable-background:new 0 0 50 50;" xml:space="preserve">
<path d="M44.6,12.3c0,0,0-0.1,0-0.1c0-5.2-4.2-9.4-9.4-9.4c-1.7,0-3.4,0.5-4.8,1.3C27.8,1.5,24.2,0,20.4,0c-7,0-12.8,5.1-13.9,11.9
	C2.7,13.3,0,17.1,0,21.3c0,5.6,4.5,10.1,10.1,10.1h5.9l-0.3,0.3C14.6,32.9,14,34.4,14,36s0.6,3.1,1.8,4.2c0.9,0.9,2,1.5,3.2,1.7V44
	c0,3.3,2.7,6,6,6s6-2.7,6-6v-2.1c1.2-0.2,2.3-0.8,3.2-1.7c1.1-1.1,1.8-2.6,1.8-4.2s-0.6-3.1-1.8-4.2l-0.3-0.3h5.9
	c5.6,0,10.1-4.5,10.1-10.1C50,17.5,47.9,14.1,44.6,12.3z M31.4,34.6c0.8,0.8,0.8,2,0,2.8C31,37.8,30.5,38,30,38s-1-0.2-1.4-0.6
	L27,35.8V44c0,1.1-0.9,2-2,2s-2-0.9-2-2v-8.2l-1.6,1.6C21,37.8,20.5,38,20,38s-1-0.2-1.4-0.6c-0.8-0.8-0.8-2,0-2.8l3.1-3.1l1.9-1.9
	c0.1-0.1,0.2-0.2,0.3-0.3c0,0,0.1-0.1,0.1-0.1c0.1,0,0.1-0.1,0.2-0.1c0.1,0,0.1,0,0.2-0.1c0.1,0,0.1,0,0.2-0.1c0.1,0,0.3,0,0.4,0
	c0.1,0,0.3,0,0.4,0c0.1,0,0.1,0,0.2,0.1c0.1,0,0.1,0,0.2,0.1c0.1,0,0.1,0.1,0.2,0.1c0,0,0.1,0,0.1,0.1c0.1,0.1,0.2,0.2,0.3,0.3
	l1.9,1.9L31.4,34.6z M39.9,27.4h-9.9l-0.7-0.7c-0.3-0.3-0.6-0.5-0.9-0.7c-0.2-0.1-0.3-0.2-0.5-0.3c-0.1-0.1-0.3-0.2-0.6-0.3
	c-0.2-0.1-0.5-0.2-0.6-0.2c-0.1,0-0.3-0.1-0.5-0.1C25.8,25,25.4,25,25,25s-0.8,0-1.2,0.1c-0.2,0-0.4,0.1-0.6,0.1
	c-0.1,0-0.3,0.1-0.6,0.2c-0.3,0.1-0.5,0.2-0.6,0.3c-0.1,0.1-0.3,0.2-0.5,0.3c-0.3,0.2-0.6,0.5-0.9,0.8l-0.7,0.7h-9.9
	c-3.4,0-6.1-2.8-6.1-6.1c0-2.8,2-5.4,4.8-6l1.5-0.3l0.1-1.5c0.3-5.3,4.7-9.5,10-9.5c3.2,0,6.2,1.5,8.1,4.1l1.3,1.8l1.6-1.6
	c1-1,2.3-1.5,3.7-1.5c3,0,5.4,2.4,5.4,5.4c0,0.3,0,0.6-0.1,1l-0.3,1.7l1.7,0.6c2.5,0.8,4.2,3.2,4.2,5.8C46,24.7,43.3,27.4,39.9,27.4
	z"/>
</svg>
