<?xml version="1.0" encoding="utf-8"?>
<!-- Generator: Adobe Illustrator 21.1.0, SVG Export Plug-In . SVG Version: 6.00 Build 0)  -->
<svg version="1.1" id="Layer_1"
	xmlns="http://www.w3.org/2000/svg" x="0px" y="0px" viewBox="0 0 50 50"
	style="enable-background:new 0 0 50 50;" xml:space="preserve">
<path d="M33,33H17c-0.6,0-1,0.5-1,1s0.4,1,1,1h16c0.6,0,1-0.4,1-1l0,0C34,33.4,33.6,33,33,33z"/>
<path d="M33,37H17c-0.6,0-1,0.5-1,1s0.4,1,1,1h16c0.6,0,1-0.4,1-1l0,0C34,37.4,33.6,37,33,37z"/>
<path d="M33,41H17c-0.6,0-1,0.5-1,1s0.4,1,1,1h16c0.6,0,1-0.4,1-1l0,0C34,41.4,33.6,41,33,41z"/>
<path d="M48,13h-6v-3c0-0.5-0.2-1-0.6-1.4l-8-8C33,0.2,32.5,0,32,0H10C8.9,0,8,0.9,8,2v11H2c-1.1,0-2,0.9-2,2v18c0,1.1,0.9,2,2,2h6
	v13c0,1.1,0.9,2,2,2h30c1.1,0,2-0.9,2-2V35h6c1.1,0,2-0.9,2-2V15C50,13.9,49.1,13,48,13z M33,5.8L36.2,9H33V5.8z M12,4h19v6
	c0,0.6,0.4,1,1,1h6v2H12V4z M38,46H12V33v-3h26v3V46z M46,31h-4v-3c0-1.1-0.9-2-2-2H10c-1.1,0-2,0.9-2,2v3H4V17h6h30h6V31z"/>
<path d="M8.5,18C6.6,18,5,19.6,5,21.5S6.6,25,8.5,25s3.5-1.6,3.5-3.5S10.4,18,8.5,18z M8.5,23C7.7,23,7,22.3,7,21.5S7.7,20,8.5,20
	s1.5,0.7,1.5,1.5S9.3,23,8.5,23z"/>
</svg>
