<?xml version="1.0" encoding="utf-8"?>
<!-- Generator: Adobe Illustrator 21.1.0, SVG Export Plug-In . SVG Version: 6.00 Build 0)  -->
<svg version="1.1" id="Layer_1"
	xmlns="http://www.w3.org/2000/svg" x="0px" y="0px" viewBox="0 0 50 50"
	style="enable-background:new 0 0 50 50;" xml:space="preserve">
<path d="M49.9,23.7c-0.1-0.6-0.4-1.2-0.7-1.6c-0.4-0.5-0.8-0.9-1.4-1.1l-9.3-4.4c-0.7-0.3-1.5-0.5-2.3-0.3c-0.9,0.2-1.8,0.7-2.4,1.5
	c-0.3,0.4-0.5,0.9-0.7,1.5c-0.1,0.5-0.1,1.1,0,1.6l0.1,0.6c-1,0.3-1.9,0.8-2.9,1.2v-5.1h0.4c0.7,0,1.4-0.2,2-0.5
	c0.6-0.4,1.1-0.9,1.4-1.5c0.3-0.6,0.5-1.3,0.4-2c-0.1-0.7-0.3-1.4-0.7-1.9l-6-8.3c-0.4-0.5-0.8-0.9-1.4-1.2c-1.1-0.5-2.4-0.5-3.5,0
	c-0.5,0.3-1,0.7-1.4,1.2l-6,8.3c-0.4,0.6-0.6,1.2-0.7,1.9c-0.1,0.7,0.1,1.4,0.4,2c0.3,0.6,0.8,1.1,1.4,1.5c0.6,0.4,1.3,0.6,2,0.6
	h0.5v5.3c-0.9-0.6-1.9-1-2.8-1.4l0.1-0.8c0.2-1,0-2-0.6-2.8c-0.6-0.8-1.4-1.4-2.4-1.6c-0.8-0.1-1.6,0-2.3,0.3l-9.3,4.4
	c-0.5,0.3-1,0.6-1.4,1.1c-0.4,0.5-0.6,1-0.7,1.6C0,24.3,0,24.9,0.2,25.5C0.3,26,0.7,26.6,1.1,27l7.2,7.3C8.6,34.7,9,35,9.5,35.2
	c0.5,0.2,1,0.3,1.5,0.3c0.4,0,0.8-0.1,1.1-0.2c0.7-0.2,1.3-0.6,1.7-1.1c0.4-0.5,0.7-1,0.8-1.6c1.9,1.3,4.2,3.3,5.1,4.7
	c-0.2,1.1-0.3,2.2-0.3,3.3v4c0,0.5,0.1,1,0.3,1.4c0.2,0.5,0.5,0.9,0.8,1.2c0.4,0.4,0.8,0.6,1.2,0.8c0.5,0.2,0.9,0.3,1.4,0.3h3.5
	c0.5,0,1-0.1,1.4-0.3s0.9-0.5,1.2-0.8c0.4-0.3,0.6-0.8,0.8-1.2c0.2-0.5,0.3-0.9,0.3-1.4v-4c0-2,0.7-4.1,1.9-5.7
	c0.8-1,1.8-1.9,2.9-2.5c0.1,0.5,0.3,1,0.6,1.4c0.3,0.5,0.8,0.9,1.4,1.2c0.5,0.3,1.1,0.4,1.7,0.4c0.5,0,1-0.1,1.5-0.3
	c0.5-0.2,0.9-0.5,1.2-0.8l7.2-7.4c0.4-0.4,0.7-1,0.9-1.5C50,24.9,50,24.3,49.9,23.7z M19.4,13.5L25,5.7l5.6,7.8h-4.1v11
	c-0.5,0.4-1,0.7-1.5,1.1c-0.5-0.4-1-0.8-1.6-1.2V13.5H19.4z M13.7,27.7l-2.5-0.7v2.5l-0.3,1.7l-6.7-6.9l8.6-4.1l-0.7,3.9l1.8,0.4
	c2.2,0.5,5.8,2.9,8.4,5.1c-0.6,0.9-1.1,1.8-1.5,2.7C18.7,30.5,15.9,28.4,13.7,27.7z M39.2,31.3l-0.3-1.7V27l-2.5,0.7
	c-2.8,0.8-5.3,2.5-7,4.8s-2.7,5.2-2.7,8.1l0,3.8h-3.1v-3.8c0-3.7,1.3-7.3,3.5-10.2c2.3-2.9,5.5-5,9.1-5.8l1.8-0.4l-0.3-1.8l-0.4-2.1
	l8.7,4.1L39.2,31.3z"/>
</svg>
