<?xml version="1.0" encoding="utf-8"?>
<!-- Generator: Adobe Illustrator 22.0.1, SVG Export Plug-In . SVG Version: 6.00 Build 0)  -->
<svg version="1.1" id="Capa_1" xmlns="http://www.w3.org/2000/svg" x="0px" y="0px"
	viewBox="0 0 50 50" style="enable-background:new 0 0 50 50;" xml:space="preserve">
<g>
	<path d="M25,14c6.3,0,9.4-8.1,4.6-12.3c-4.9-4.2-12.5,0.1-11.5,6.4C18.6,11.5,21.6,14,25,14z M28,7c0,3.9-6,3.9-6,0
		C22,3.1,28,3.1,28,7z"/>
	<path d="M39.6,24c-2.4-2.5-4.9-5.1-7.3-7.6C31.5,15.6,31,15,29.9,15c-1.6,0-3.1,0-4.7,0c-1.7,0-3.4,0-5.1,0c-1.1,0-1.6,0.6-2.3,1.3
		c-2.5,2.5-5.1,5-7.4,7.7c-1,1.2-0.4,3.5,1.4,3.5c1,0,1.7-0.9,2.3-1.5c1.4-1.4,2.7-2.8,4.1-4.3c0.2,3.3,0.4,6.5,0.7,9.8
		c0.2,2.5,0,5.1,0,7.7c0,2.1,0,4.1,0,6.2c0,1-0.2,2.5,0.2,3.4c0.5,1.3,2.3,1.6,3.4,0.7c0.6-0.5,0.7-1.2,0.7-1.9c0-1.6,0-3.3,0-4.9
		c0-2.1,0-4.2,0-6.3c0-0.6-0.1-1.3,0-2c0.1-0.5-0.1-0.3,0.4-0.4c0.9-0.1,2-0.1,2.9,0c0.5,0.1,0.4-0.1,0.4,0.4c0.1,1.6,0,3.3,0,5
		c0,2.1,0,4.2,0,6.3c0,1.2-0.3,3,0.8,3.9c1.1,0.8,2.9,0.4,3.3-0.9c0.1-0.4,0.1-0.8,0.1-1.3c0-1.7,0-3.3,0-5c0-3.4-0.1-6.8,0-10.2
		c0.1-3.1,0.4-6.2,0.6-9.3c0-0.4,0.1-0.8,0.1-1.2c1.3,1.4,2.7,2.8,4,4.1c0.5,0.5,1.1,1.3,1.8,1.6C39.5,28,40.9,25.4,39.6,24z
		 M22.9,30c-0.2-3.7-0.5-7.3-0.7-11c1.9,0,3.7,0,5.6,0c-0.2,2.8-0.4,5.7-0.5,8.5c0,0.5,0.1,2.2-0.3,2.5c-0.1,0.1-0.7,0-0.9,0
		c-0.4,0-0.9,0-1.3,0C24.1,30,23.5,30,22.9,30z"/>
</g>
</svg>
