<?xml version="1.0" encoding="utf-8"?>
<!-- Generator: Adobe Illustrator 22.0.1, SVG Export Plug-In . SVG Version: 6.00 Build 0)  -->
<svg version="1.1" id="Layer_1"
	xmlns="http://www.w3.org/2000/svg" x="0px" y="0px" viewBox="0 0 50 50"
	style="enable-background:new 0 0 50 50;" xml:space="preserve">
<g>
	<circle cx="25" cy="16" r="2"/>
	<path d="M25,20c-1.1,0-2,0.9-2,2v12c0,1.1,0.9,2,2,2s2-0.9,2-2V22C27,20.9,26.1,20,25,20z"/>
	<path d="M25,0C11.2,0,0,11.2,0,25s11.2,25,25,25s25-11.2,25-25S38.8,0,25,0z M25,46C13.4,46,4,36.6,4,25C4,13.4,13.4,4,25,4
		c11.6,0,21,9.4,21,21C46,36.6,36.6,46,25,46z"/>
</g>
</svg>
