<?xml version="1.0" encoding="utf-8"?>
<!-- Generator: Adobe Illustrator 22.0.1, SVG Export Plug-In . SVG Version: 6.00 Build 0)  -->
<svg version="1.1" id="Layer_1"
	xmlns="http://www.w3.org/2000/svg" x="0px" y="0px" viewBox="0 0 50 50"
	style="enable-background:new 0 0 50 50;" xml:space="preserve">
<g>
	<path d="M25,11c-3.3,0-6,2.7-6,6c0,1.5,0,6.5,0,8v8c0,3.3,2.7,6,6,6s6-2.7,6-6v-8c0-1.5,0-6.5,0-8C31,13.7,28.3,11,25,11z M25,15
		c1.1,0,2,0.9,2,2s-0.9,2-2,2s-2-0.9-2-2S23.9,15,25,15z M27,33c0,1.1-0.9,2-2,2s-2-0.9-2-2v-8c0-1.1,0.9-2,2-2s2,0.9,2,2V33z"/>
	<path d="M25,0C11.2,0,0,11.2,0,25s11.2,25,25,25s25-11.2,25-25S38.8,0,25,0z M25,46C13.4,46,4,36.6,4,25C4,13.4,13.4,4,25,4
		c11.6,0,21,9.4,21,21C46,36.6,36.6,46,25,46z"/>
</g>
</svg>
