<?xml version="1.0" encoding="utf-8"?>
<!-- Generator: Adobe Illustrator 21.1.0, SVG Export Plug-In . SVG Version: 6.00 Build 0)  -->
<svg version="1.1" id="Layer_1"
	xmlns="http://www.w3.org/2000/svg" x="0px" y="0px" viewBox="0 0 50 50"
	style="enable-background:new 0 0 50 50;" xml:space="preserve">
<path d="M49.4,23.6l-7-7l0,0l-16-16c-0.8-0.8-2-0.8-2.8,0l-16,16l0,0l-7,7c-0.8,0.8-0.8,2,0,2.8s2,0.8,2.8,0L7,22.8V48
	c0,1.1,0.9,2,2,2h32c1.1,0,2-0.9,2-2V22.8l3.6,3.6c0.8,0.8,2,0.8,2.8,0S50.2,24.4,49.4,23.6z M39,46H11V18.8l14-14l14,14V46z"/>
</svg>
