<svg xmlns="http://www.w3.org/2000/svg" viewBox="0 0 87 87"><defs><style>.cls-1{fill:#a990d3;}</style></defs><title>instagram</title><g id="Capa_2" data-name="Capa 2"><g id="Capa_1-2" data-name="Capa 1"><path class="cls-1" d="M43.5,0A43.5,43.5,0,1,0,87,43.5,43.51,43.51,0,0,0,43.5,0ZM68.33,53.8a18.47,18.47,0,0,1-1.16,6.06,12.77,12.77,0,0,1-7.31,7.31,18.74,18.74,0,0,1-6.06,1.16c-2.67.12-3.52.15-10.3.15s-7.63,0-10.3-.15a18.47,18.47,0,0,1-6.06-1.16,12.81,12.81,0,0,1-7.31-7.31,18.53,18.53,0,0,1-1.16-6.06c-.12-2.67-.15-3.52-.15-10.3s0-7.63.15-10.3a18.22,18.22,0,0,1,1.16-6.06,12.81,12.81,0,0,1,7.31-7.31,18.27,18.27,0,0,1,6.06-1.16c2.67-.12,3.52-.15,10.3-.15s7.63,0,10.3.15a18.22,18.22,0,0,1,6.06,1.16,12.74,12.74,0,0,1,7.31,7.31,18.22,18.22,0,0,1,1.16,6.06c.12,2.66.15,3.51.15,10.3S68.45,51.13,68.33,53.8Z"/><path class="cls-1" d="M63,28.77A7.64,7.64,0,0,0,61.1,25.9,7.72,7.72,0,0,0,58.23,24a13.83,13.83,0,0,0-4.64-.86C51,23.05,50.17,23,43.5,23s-7.46,0-10.09.15a13.83,13.83,0,0,0-4.64.86A8.3,8.3,0,0,0,24,28.77a13.83,13.83,0,0,0-.86,4.64C23.05,36,23,36.83,23,43.5s0,7.46.15,10.09A13.83,13.83,0,0,0,24,58.23,7.64,7.64,0,0,0,25.9,61.1,7.72,7.72,0,0,0,28.77,63a13.83,13.83,0,0,0,4.64.86C36,64,36.83,64,43.5,64s7.46,0,10.1-.15A13.82,13.82,0,0,0,58.23,63,8.26,8.26,0,0,0,63,58.23a13.58,13.58,0,0,0,.86-4.64C64,51,64,50.17,64,43.5s0-7.46-.15-10.09A13.83,13.83,0,0,0,63,28.77ZM43.5,56.33A12.83,12.83,0,1,1,56.33,43.5,12.84,12.84,0,0,1,43.5,56.33ZM56.83,33.16a3,3,0,1,1,3-3A3,3,0,0,1,56.83,33.16Z"/><path class="cls-1" d="M51.83,43.5a8.33,8.33,0,1,1-8.33-8.33A8.33,8.33,0,0,1,51.83,43.5Z"/></g></g></svg>