<?xml version="1.0" encoding="UTF-8" standalone="no"?>
<!DOCTYPE svg PUBLIC "-//W3C//DTD SVG 1.1//EN" "http://www.w3.org/Graphics/SVG/1.1/DTD/svg11.dtd">
<svg width="100%" height="100%" viewBox="0 0 50 50" version="1.1" xmlns="http://www.w3.org/2000/svg" xmlns:xlink="http://www.w3.org/1999/xlink" xml:space="preserve" xmlns:serif="http://www.serif.com/" style="fill-rule:evenodd;clip-rule:evenodd;stroke-linejoin:round;stroke-miterlimit:2;">
    <g transform="matrix(1,0,0,1,-140,0)">
        <g id="joypad" transform="matrix(0.925926,0,0,0.925926,72.4074,1.85185)">
            <rect x="73" y="-2" width="54" height="54" style="fill:none;"/>
            <g transform="matrix(1.08,0,0,1.08,-78.2,-2)">
                <path d="M147.095,9L146.023,9C144.432,9 142.906,9.632 141.781,10.757C140.656,11.883 140.023,13.409 140.023,15C140.023,20.322 140.023,29.678 140.023,35C140.023,36.591 140.656,38.117 141.781,39.243C142.906,40.368 144.432,41 146.023,41C154.723,41 175.277,41 183.977,41C185.568,41 187.094,40.368 188.219,39.243C189.344,38.117 189.977,36.591 189.977,35C189.977,29.678 189.977,20.322 189.977,15C189.977,13.409 189.344,11.883 188.219,10.757C187.094,9.632 185.568,9 183.977,9L162.962,9C162.47,5.056 159.103,2 155.029,2C150.955,2 147.588,5.056 147.095,9ZM150.539,16.618L150.539,24.983C149.602,25.338 149.033,25.805 149.033,26.316C149.033,27.427 151.72,28.329 155.029,28.329C158.338,28.329 161.024,27.427 161.024,26.316C161.024,25.805 160.455,25.338 159.519,24.983L159.519,16.618C160.815,15.733 161.838,14.476 162.431,13L183.977,13C184.507,13 185.016,13.211 185.391,13.586C185.766,13.961 185.977,14.47 185.977,15L185.977,35C185.977,35.53 185.766,36.039 185.391,36.414C185.016,36.789 184.507,37 183.977,37C183.977,37 146.023,37 146.023,37C145.493,37 144.984,36.789 144.609,36.414C144.234,36.039 144.023,35.53 144.023,35L144.023,15C144.023,14.47 144.234,13.961 144.609,13.586C144.984,13.211 145.493,13 146.023,13C146.023,13 147.627,13 147.627,13C148.22,14.476 149.242,15.733 150.539,16.618ZM155.12,24.304L154.93,24.304C154.795,24.285 154.667,24.225 154.54,24.135C154.539,24.135 154.539,18 154.539,18L155.519,18L155.519,24.132C155.389,24.223 155.258,24.284 155.12,24.304ZM158.94,10.733C158.961,10.526 159.023,9.909 159.023,9.904C158.973,7.741 157.203,6 155.029,6C152.856,6 151.086,7.74 151.034,9.91L151.117,10.733C151.445,12.593 153.075,14 155.029,14C156.983,14 158.613,12.593 158.94,10.733Z"/>
            </g>
            <g transform="matrix(0.763675,0.763675,-0.763675,0.763675,97.9966,-127.723)">
                <g transform="matrix(1,1.11022e-16,-1.11022e-16,1,75.6561,60.0522)">
                    <ellipse cx="33.258" cy="27.013" rx="1.978" ry="2.013"/>
                </g>
                <g transform="matrix(1,0,0,1,80.368,63.3499)">
                    <ellipse cx="33.258" cy="27.013" rx="1.978" ry="2.013"/>
                </g>
                <g transform="matrix(1,1.11022e-16,-1.11022e-16,1,71.7259,63.9824)">
                    <ellipse cx="33.258" cy="27.013" rx="1.978" ry="2.013"/>
                </g>
                <g transform="matrix(1,0,0,1,76.4378,67.2801)">
                    <ellipse cx="33.258" cy="27.013" rx="1.978" ry="2.013"/>
                </g>
                <g transform="matrix(1,1.11022e-16,-1.11022e-16,1,72.433,71.2849)">
                    <ellipse cx="33.258" cy="27.013" rx="1.978" ry="2.013"/>
                </g>
                <g transform="matrix(1,0,0,1,67.7211,67.9872)">
                    <ellipse cx="33.258" cy="27.013" rx="1.978" ry="2.013"/>
                </g>
            </g>
        </g>
    </g>
</svg>
