<?xml version="1.0" encoding="utf-8"?>
<!-- Generator: Adobe Illustrator 22.0.1, SVG Export Plug-In . SVG Version: 6.00 Build 0)  -->
<svg version="1.1" id="Layer_1"
	xmlns="http://www.w3.org/2000/svg" x="0px" y="0px" viewBox="0 0 50 50"
	style="enable-background:new 0 0 50 50;" xml:space="preserve">
<style type="text/css">
	.st0{fill:none;stroke:#000000;stroke-width:4;stroke-linecap:round;stroke-miterlimit:10;}
	.st1{fill:none;stroke:#000000;stroke-width:4;stroke-linecap:round;stroke-linejoin:round;stroke-miterlimit:10;}
</style>
<line class="st0" x1="9" y1="25" x2="41" y2="25"/>
<g>
	<polyline class="st1" points="2,34.5 2,48 15.5,48 	"/>
	<polyline class="st1" points="15.5,2 2,2 2,15.5 	"/>
	<polyline class="st1" points="48,15.5 48,2 34.5,2 	"/>
	<polyline class="st1" points="34.5,48 48,48 48,34.5 	"/>
	<path class="st1" d="M2,15.5"/>
	<path class="st1" d="M2,34.5"/>
	<path class="st1" d="M15.5,48"/>
	<path class="st1" d="M34.5,48"/>
	<path class="st1" d="M34.5,2"/>
	<path class="st1" d="M15.5,2"/>
	<path class="st1" d="M48,34.5"/>
	<path class="st1" d="M48,15.5"/>
	<path class="st1" d="M48,34.5"/>
	<path class="st1" d="M34.5,48"/>
	<path class="st1" d="M15.5,48"/>
	<path class="st1" d="M2,34.5"/>
	<path class="st1" d="M2,15.5"/>
	<path class="st1" d="M15.5,2"/>
	<path class="st1" d="M34.5,2"/>
	<path class="st1" d="M48,15.5"/>
</g>
</svg>
