<?xml version="1.0" encoding="utf-8"?>
<!-- Generator: Adobe Illustrator 22.0.1, SVG Export Plug-In . SVG Version: 6.00 Build 0)  -->
<svg version="1.1" id="Layer_1" xmlns="http://www.w3.org/2000/svg" x="0px" y="0px"
	viewBox="0 0 50 50" style="enable-background:new 0 0 50 50;" xml:space="preserve">
<g>
	<path d="M20.6,23.4c1.6,0,3.1,0.6,4.2,1.8c1.1,1.1,1.8,2.6,1.8,4.2c0,1.6-0.6,3.1-1.8,4.2L14.2,44.2C13.1,45.4,11.6,46,10,46
		s-3.1-0.6-4.2-1.8C4.6,43.1,4,41.6,4,40c0-1.6,0.6-3.1,1.8-4.2l10.6-10.6C17.5,24,19,23.4,20.6,23.4 M20.6,19.4
		c-2.6,0-5.1,1-7.1,2.9L2.9,32.9C-1,36.8-1,43.2,2.9,47.1l0,0c2,2,4.5,2.9,7.1,2.9s5.1-1,7.1-2.9l10.6-10.6c3.9-3.9,3.9-10.2,0-14.1
		l0,0C25.7,20.4,23.2,19.4,20.6,19.4L20.6,19.4z"/>
</g>
<g>
	<path d="M40,4c1.6,0,3.1,0.6,4.2,1.8C45.4,6.9,46,8.4,46,10c0,1.6-0.6,3.1-1.8,4.2L33.6,24.8c-1.1,1.1-2.6,1.8-4.2,1.8
		c-1.6,0-3.1-0.6-4.2-1.8c-1.1-1.1-1.8-2.6-1.8-4.2c0-1.6,0.6-3.1,1.8-4.2L35.8,5.8C36.9,4.6,38.4,4,40,4 M40,0
		c-2.6,0-5.1,1-7.1,2.9L22.3,13.5c-3.9,3.9-3.9,10.2,0,14.1l0,0c2,2,4.5,2.9,7.1,2.9s5.1-1,7.1-2.9l10.6-10.6
		c3.9-3.9,3.9-10.2,0-14.1l0,0C45.1,1,42.6,0,40,0L40,0z"/>
</g>
</svg>
