<?xml version="1.0" encoding="utf-8"?>
<!-- Generator: Adobe Illustrator 22.0.1, SVG Export Plug-In . SVG Version: 6.00 Build 0)  -->
<svg version="1.1" id="Layer_1" xmlns="http://www.w3.org/2000/svg" x="0px" y="0px"
	viewBox="0 0 50 50" style="enable-background:new 0 0 50 50;" xml:space="preserve">
<style type="text/css">
	.st0{fill:none;}
	.st1{fill:#FFFFFF;}
	.st2{fill:#FFFFFF;stroke:#000000;stroke-width:12;stroke-miterlimit:10;}
	.st3{fill:none;stroke:#FFFFFF;stroke-width:4;stroke-miterlimit:10;}
</style>
<path class="st0" d="M35.1,17.7l2.3-2.3c0.8-0.8,0.8-2.1,0-2.8C37,12.2,36.5,12,36,12s-1,0.2-1.4,0.6l-2.3,2.3
	c0.5,0.4,1,0.8,1.5,1.3C34.3,16.7,34.7,17.2,35.1,17.7z"/>
<path class="st0" d="M14.9,32.3l-2.3,2.3c-0.8,0.8-0.8,2.1,0,2.8c0.8,0.8,2.1,0.8,2.8,0l2.3-2.3c-0.5-0.4-1-0.8-1.5-1.3
	C15.7,33.3,15.3,32.8,14.9,32.3z"/>
<path class="st0" d="M24.1,24.1c0.1,0.4,0.2,0.8,0.6,1.2c0.4,0.4,0.8,0.5,1.2,0.6c0-0.3-0.2-0.8-0.6-1.2
	C25,24.4,24.6,24.2,24.1,24.1z"/>
<path d="M45.9,4.1C43.3,1.5,39.8,0,36,0s-7.3,1.5-9.9,4.1L16.2,14c-0.4,0.4-0.7,0.8-1,1.2c-0.4,0.3-0.8,0.7-1.2,1l-9.9,9.9
	C1.5,28.7,0,32.3,0,36s1.5,7.3,4.1,9.9C6.8,48.6,10.4,50,14,50s7.2-1.4,9.9-4.1l9.9-9.9c0.4-0.4,0.7-0.8,1-1.2
	c0.4-0.3,0.8-0.7,1.2-1l9.9-9.9l0,0C51.4,18.4,51.4,9.6,45.9,4.1z M31,33.2l-4.7,4.7l-5.2,5.2C19.1,45,16.6,46,14,46
	c-2.6,0-5.1-1-7.1-2.9C3,39.2,3,32.8,6.9,28.9l5.2-5.2c0,1.6,0.3,3.3,0.8,4.8l-3.2,3.2c-2.3,2.3-2.3,6.1,0,8.5
	c2.3,2.3,6.1,2.3,8.5,0l3.2-3.2l3.3-3.3l3.4-3.4c0.4-0.4,0.7-0.8,1-1.3c0.5-0.9,0.8-1.9,0.8-3c0-0.9-0.2-1.8-0.6-2.6
	c-0.3-0.6-0.7-1.2-1.2-1.7c-0.5-0.5-1.1-0.9-1.7-1.2l2.9-2.9c0.6,0.4,1.1,0.8,1.6,1.3c0.5,0.5,0.9,1,1.3,1.6
	c0.8,1.2,1.3,2.6,1.5,4.1c0.1,0.5,0.1,0.9,0.1,1.4c0,2.1-0.7,4.2-1.9,5.9C31.7,32.4,31.3,32.8,31,33.2z M14.9,32.3
	c0.4,0.5,0.8,1,1.3,1.5c0.5,0.5,1,0.9,1.5,1.3l-2.3,2.3c-0.8,0.8-2.1,0.8-2.8,0c-0.8-0.8-0.8-2.1,0-2.8L14.9,32.3z M24.1,24.1
	c0.4,0.1,0.8,0.2,1.2,0.6c0.4,0.4,0.5,0.8,0.6,1.2c-0.3,0-0.8-0.2-1.2-0.6C24.4,25,24.2,24.6,24.1,24.1z M32.3,14.9l2.3-2.3
	C35,12.2,35.5,12,36,12s1,0.2,1.4,0.6c0.8,0.8,0.8,2.1,0,2.8l-2.3,2.3c-0.4-0.5-0.8-1-1.3-1.5C33.3,15.7,32.8,15.3,32.3,14.9z
	 M43.1,21.1l-5.2,5.2c0-0.1,0-0.1,0-0.2c0-1.6-0.3-3.2-0.8-4.7l3.2-3.2c2.3-2.3,2.3-6.1,0-8.5C39.1,8.6,37.5,8,36,8
	c-1.5,0-3.1,0.6-4.2,1.8l-3.2,3.2l-3.3,3.3l-3.4,3.4c-0.4,0.4-0.7,0.8-0.9,1.3c-1,1.7-1,3.8-0.2,5.5c0.3,0.6,0.7,1.2,1.2,1.7
	c0.5,0.5,1.1,0.9,1.7,1.2l-2.9,2.9C20,31.9,19.5,31.4,19,31c-0.5-0.5-0.9-1-1.3-1.6c-0.8-1.3-1.3-2.7-1.5-4.1
	c-0.4-2.5,0.2-5.1,1.8-7.3c0.3-0.4,0.6-0.8,1-1.2l4.7-4.7l5.2-5.2C32.8,3,39.2,3,43.1,6.9S47,17.2,43.1,21.1z"/>
<g>
	<path d="M-47,50c-3.6,0-7.2-1.4-9.9-4.1c-2.6-2.6-4.1-6.2-4.1-9.9s1.5-7.3,4.1-9.9l9.9-9.9c5.5-5.5,14.3-5.5,19.8,0
		c2.6,2.6,4.1,6.2,4.1,9.9s-1.5,7.3-4.1,9.9l-9.9,9.9C-39.8,48.6-43.4,50-47,50z M-37.1,24.1c-0.5,0-1,0.2-1.4,0.6l-9.9,9.9
		c-0.8,0.8-0.8,2.1,0,2.8c0.8,0.8,2.1,0.8,2.8,0l9.9-9.9c0.5-0.5,0.6-1.1,0.6-1.4c0-0.3-0.1-0.9-0.6-1.4
		C-36.1,24.3-36.6,24.1-37.1,24.1z"/>
</g>
<path class="st1" d="M-47,46c-2.6,0-5.1-1-7.1-2.9c-3.9-3.9-3.9-10.2,0-14.1l9.9-9.9c3.9-3.9,10.2-3.9,14.1,0
	c1.9,1.9,2.9,4.4,2.9,7.1s-1,5.2-2.9,7.1l-9.9,9.9C-41.9,45-44.4,46-47,46z M-37.1,20.1c-1.5,0-3.1,0.6-4.2,1.8l-9.9,9.9
	c-2.3,2.3-2.3,6.1,0,8.5c2.3,2.3,6.1,2.3,8.5,0l9.9-9.9c1.1-1.1,1.7-2.6,1.7-4.2c0-1.6-0.6-3.1-1.7-4.2
	C-34,20.7-35.6,20.1-37.1,20.1z"/>
<g>
	<path d="M-34.9,37.9c-3.7,0-7.3-1.5-9.9-4.1c-5.5-5.5-5.5-14.3,0-19.8l9.9-9.9C-32.3,1.5-28.7,0-25,0s7.3,1.5,9.9,4.1
		c5.5,5.5,5.5,14.3,0,19.8l0,0l-9.9,9.9C-27.6,36.4-31.1,37.9-34.9,37.9z M-25,12c-0.5,0-1,0.2-1.4,0.6l-9.9,9.9
		c-0.8,0.8-0.8,2.1,0,2.8c0.5,0.5,1.1,0.6,1.4,0.6c0.3,0,0.9-0.1,1.4-0.6l9.9-9.9c0.8-0.8,0.8-2.1,0-2.8C-24,12.2-24.5,12-25,12z"/>
</g>
<path class="st1" d="M-34.9,33.9c-2.7,0-5.2-1-7.1-2.9c-3.9-3.9-3.9-10.2,0-14.1l9.9-9.9c3.9-3.9,10.2-3.9,14.1,0s3.9,10.2,0,14.1
	l-9.9,9.9C-29.7,32.8-32.2,33.9-34.9,33.9z M-25,8c-1.5,0-3.1,0.6-4.2,1.8l-9.9,9.9c-2.3,2.3-2.3,6.1,0,8.5c1.1,1.1,2.6,1.7,4.2,1.7
	c1.6,0,3.1-0.6,4.2-1.7l9.9-9.9c2.3-2.3,2.3-6.1,0-8.5C-21.9,8.6-23.5,8-25,8z"/>
<path class="st2" d="M81.5,31.8l-9.9,9.9c-3.1,3.1-8.2,3.1-11.3,0l0,0c-3.1-3.1-3.1-8.2,0-11.3l9.9-9.9c3.1-3.1,8.2-3.1,11.3,0l0,0
	C84.7,23.6,84.7,28.7,81.5,31.8z"/>
<path class="st3" d="M81.5,31.8l-9.9,9.9c-3.1,3.1-8.2,3.1-11.3,0l0,0c-3.1-3.1-3.1-8.2,0-11.3l9.9-9.9c3.1-3.1,8.2-3.1,11.3,0l0,0
	C84.7,23.6,84.7,28.7,81.5,31.8z"/>
<path class="st2" d="M93.7,19.6l-9.9,9.9c-3.1,3.1-8.2,3.1-11.3,0l0,0c-3.1-3.1-3.1-8.2,0-11.3l9.9-9.9c3.1-3.1,8.2-3.1,11.3,0l0,0
	C96.8,11.4,96.8,16.5,93.7,19.6z"/>
<path class="st3" d="M93.7,19.6l-9.9,9.9c-3.1,3.1-8.2,3.1-11.3,0l0,0c-3.1-3.1-3.1-8.2,0-11.3l9.9-9.9c3.1-3.1,8.2-3.1,11.3,0l0,0
	C96.8,11.4,96.8,16.5,93.7,19.6z"/>
<path class="st2" d="M123.7,34.6l-7.1,7.1c-3.1,3.1-8.2,3.1-11.3,0l0,0c-3.1-3.1-3.1-8.2,0-11.3l7.1-7.1c3.1-3.1,8.2-3.1,11.3,0l0,0
	C126.8,26.4,126.8,31.5,123.7,34.6z"/>
<path class="st3" d="M123.7,34.6l-7.1,7.1c-3.1,3.1-8.2,3.1-11.3,0l0,0c-3.1-3.1-3.1-8.2,0-11.3l7.1-7.1c3.1-3.1,8.2-3.1,11.3,0l0,0
	C126.8,26.4,126.8,31.5,123.7,34.6z"/>
<path class="st2" d="M138.7,19.6l-7.1,7.1c-3.1,3.1-8.2,3.1-11.3,0l0,0c-3.1-3.1-3.1-8.2,0-11.3l7.1-7.1c3.1-3.1,8.2-3.1,11.3,0l0,0
	C141.8,11.4,141.8,16.5,138.7,19.6z"/>
<path class="st3" d="M138.7,19.6l-7.1,7.1c-3.1,3.1-8.2,3.1-11.3,0l0,0c-3.1-3.1-3.1-8.2,0-11.3l7.1-7.1c3.1-3.1,8.2-3.1,11.3,0l0,0
	C141.8,11.4,141.8,16.5,138.7,19.6z"/>
</svg>
