<?xml version="1.0" encoding="utf-8"?>
<!-- Generator: Adobe Illustrator 22.0.1, SVG Export Plug-In . SVG Version: 6.00 Build 0)  -->
<svg version="1.1" id="Layer_1" xmlns="http://www.w3.org/2000/svg" x="0px" y="0px"
	viewBox="0 0 50 50" style="enable-background:new 0 0 50 50;" xml:space="preserve">
<g>
	<path d="M11.6,50c-3,0-6-1.1-8.2-3.4c-4.5-4.6-4.5-12,0-16.5l9.9-9.9c0.8-0.8,2-0.8,2.8,0c0.8,0.8,0.8,2,0,2.8l-9.9,9.9
		c-2.9,2.9-2.9,7.9,0,10.9c2.9,2.9,7.9,2.9,10.9,0l9.9-9.9c0.8-0.8,2-0.8,2.8,0s0.8,2,0,2.8l-9.9,9.9C17.6,48.9,14.6,50,11.6,50z"/>
	<path d="M35.3,30.4c-0.5,0-1-0.2-1.4-0.6c-0.8-0.8-0.8-2,0-2.8l9.9-9.9c2.9-2.9,2.9-7.9,0-10.9c-2.9-2.9-7.8-2.9-10.9,0L23,16.1
		c-0.8,0.8-2,0.8-2.8,0c-0.8-0.8-0.8-2,0-2.8l9.9-9.9c4.7-4.6,12.1-4.5,16.5,0c4.5,4.6,4.5,12,0,16.5l-9.9,9.9
		C36.3,30.2,35.8,30.4,35.3,30.4z"/>
</g>
<path d="M18.2,33.8c-0.5,0-1-0.2-1.4-0.6c-0.8-0.8-0.8-2,0-2.8l13.6-13.6c0.8-0.8,2-0.8,2.8,0c0.8,0.8,0.8,2,0,2.8L19.6,33.2
	C19.2,33.6,18.7,33.8,18.2,33.8z"/>
</svg>
