<?xml version="1.0" encoding="utf-8"?>
<!-- Generator: Adobe Illustrator 21.1.0, SVG Export Plug-In . SVG Version: 6.00 Build 0)  -->
<svg version="1.1" id="Layer_1" xmlns="http://www.w3.org/2000/svg" x="0px" y="0px"
	viewBox="0 0 50 50" style="enable-background:new 0 0 50 50;" xml:space="preserve">
<path d="M46.1,24c-0.8-3.8-2.7-7.5-6.2-11.6c-1.4-1.6-2.8-3.1-4.2-4.6c-1.4-1.4-2.8-2.9-4.1-4.4l-0.2-0.2c-1.2-1.3-2.8-3.1-5.2-3.2
	h-0.1c-1.6,0-3.2,0.8-4.3,2.1c-1.1,1.2-1.5,2.7-1.7,3.9c-0.7,4.5,1.3,8.7,3.1,12.3c0.3,0.7,0.6,1.3,0.9,2c0.4,0.9,0.8,1.8,0.8,2.6
	c0,1.2-0.9,2.4-1.9,2.9c-1.1,0.4-2.5,0.1-3.4-0.9c-0.8-0.8-1.2-2.2-1.4-3.2c-0.4-2.2-0.5-4-0.4-5.7v-0.5c0-1.1,0-3-1.5-4.2l-0.1-0.1
	c-1.5-1-3.6-0.6-5.5,1C4.8,17.4,2.1,26,4,33.6c2,7.8,8.4,14.1,16,15.8c1.6,0.4,3.2,0.6,4.8,0.6c7.2,0,14.4-3.7,18.1-9.7
	c2.3-3.7,3.6-7.8,3.7-11.8C46.5,26.8,46.4,25.3,46.1,24z M39.4,38.1c-3.6,5.9-11.5,9-18.5,7.4C14.7,44.1,9.5,39,8,32.8
	c-1.5-6.1,0.6-13.1,5.4-17.3c0.1-0.1,0.3-0.2,0.4-0.3c0,0.2,0,0.3,0,0.5v0.2c-0.2,2.1-0.1,4.2,0.4,6.7c0.3,1.5,0.9,3.7,2.4,5.2
	c1.9,2.1,5.1,2.8,7.7,1.8c2.6-1,4.5-3.8,4.5-6.6c0-1.6-0.6-3-1.2-4.3c-0.3-0.7-0.6-1.4-1-2.1c-1.6-3.5-3.2-6.7-2.7-9.9
	c0.2-1,0.4-1.6,0.7-2c0.5-0.4,1-0.6,1.4-0.7c0.8,0.1,1.6,1,2.4,1.9L28.6,6c1.4,1.6,2.8,3.1,4.2,4.6c1.4,1.4,2.8,2.9,4,4.4
	c3,3.6,4.7,6.7,5.3,9.8c0.2,1,0.4,2.2,0.4,3.5C42.4,31.6,41.3,35,39.4,38.1z"/>
</svg>
