<?xml version="1.0" encoding="UTF-8" standalone="no"?>
<!DOCTYPE svg PUBLIC "-//W3C//DTD SVG 1.1//EN" "http://www.w3.org/Graphics/SVG/1.1/DTD/svg11.dtd">
<svg width="100%" height="100%" viewBox="0 0 51 51" version="1.1" xmlns="http://www.w3.org/2000/svg" xmlns:xlink="http://www.w3.org/1999/xlink" xml:space="preserve" xmlns:serif="http://www.serif.com/" style="fill-rule:evenodd;clip-rule:evenodd;stroke-linejoin:round;stroke-miterlimit:2;">
    <g transform="matrix(1,0,0,1,-629,-70)">
        <g id="llave-grande" transform="matrix(0.925926,0,0,0.925926,562.384,71.8769)">
            <rect x="73" y="-2" width="54" height="54" style="fill:none;"/>
            <clipPath id="_clip1">
                <rect x="73" y="-2" width="54" height="54"/>
            </clipPath>
            <g clip-path="url(#_clip1)">
                <g transform="matrix(1.08,0,0,1.08,-607.375,-77.6271)">
                    <path d="M654.989,100.025L662.985,100.025C662.985,100.025 662.985,102.029 662.985,102.029C662.985,103.133 663.88,104.029 664.985,104.029L672.96,104.029C674.064,104.029 674.96,103.133 674.96,102.029L674.96,100.025C674.96,100.025 677.977,100.025 677.977,100.025C679.081,100.025 679.977,99.13 679.977,98.025L679.977,92.025C679.977,90.921 679.081,90.025 677.977,90.025L654.989,90.025C653.028,85.326 648.388,82.02 642.982,82.02C635.804,82.02 629.977,87.847 629.977,95.025C629.977,102.203 635.804,108.03 642.982,108.03C648.388,108.03 653.028,104.724 654.989,100.025ZM653.572,96.025C652.677,96.025 651.891,96.619 651.648,97.48C650.578,101.259 647.101,104.03 642.982,104.03C638.012,104.03 633.977,99.995 633.977,95.025C633.977,90.055 638.012,86.02 642.982,86.02C647.101,86.02 650.578,88.791 651.648,92.57C651.891,93.431 652.677,94.025 653.572,94.025L675.977,94.025C675.977,94.025 675.977,96.025 675.977,96.025C675.977,96.025 672.96,96.025 672.96,96.025C671.855,96.025 670.96,96.921 670.96,98.025L670.96,100.029C670.96,100.029 666.985,100.029 666.985,100.029C666.985,100.029 666.985,98.025 666.985,98.025C666.985,96.921 666.089,96.025 664.985,96.025L653.572,96.025Z"/>
                </g>
                <g transform="matrix(1.43808,0,0,1.43808,-835.927,-110.961)">
                    <path d="M641.809,90.037C639.322,90.037 637.303,92.056 637.303,94.543C637.303,97.03 639.322,99.05 641.809,99.05C644.296,99.05 646.316,97.03 646.316,94.543C646.316,92.056 644.296,90.037 641.809,90.037ZM641.809,93.041C642.638,93.041 643.312,93.714 643.312,94.543C643.312,95.372 642.638,96.046 641.809,96.046C640.98,96.046 640.307,95.372 640.307,94.543C640.307,93.714 640.98,93.041 641.809,93.041Z"/>
                </g>
            </g>
        </g>
    </g>
</svg>
