<?xml version="1.0" encoding="utf-8"?>
<!-- Generator: Adobe Illustrator 21.1.0, SVG Export Plug-In . SVG Version: 6.00 Build 0)  -->
<svg version="1.1" id="Layer_1" xmlns="http://www.w3.org/2000/svg" x="0px" y="0px"
	viewBox="0 0 50 50" style="enable-background:new 0 0 50 50;" xml:space="preserve">
<path d="M49.6,30.5C49.6,30.4,49.6,30.4,49.6,30.5c-0.1-0.2-0.2-0.2-0.2-0.3l-0.1-0.1c0-0.1-0.1-0.1-0.1-0.2l-0.1-0.1
	c-0.1-0.1-0.1-0.1-0.2-0.2l-0.1-0.1c-0.1,0-0.1-0.1-0.2-0.1c-0.1,0-0.1,0-0.2-0.1c0,0-0.1,0-0.1-0.1c-0.1,0-0.1,0-0.2,0
	c-0.1,0-0.1,0-0.2,0c-0.1,0-0.1,0-0.2,0s-0.2,0-0.2,0c-7,0.9-13.7-1.2-18.5-6.1c-5.4-5.4-7.5-13.3-5.4-20.6c0-0.1,0-0.2,0-0.2
	c0-0.1,0-0.1,0-0.2c0-0.1,0-0.1,0-0.2c0-0.1,0-0.1,0-0.2V1.6c0-0.1,0-0.1-0.1-0.2c0-0.1,0-0.1-0.1-0.2c0-0.1-0.1-0.1-0.1-0.2
	s-0.1-0.1-0.1-0.2c0-0.1-0.1-0.1-0.1-0.2L23,0.5c0,0-0.1-0.1-0.2-0.1c-0.1,0-0.1-0.1-0.2-0.1c-0.1,0-0.1-0.1-0.2-0.1
	c-0.1,0-0.2-0.1-0.2-0.1h-0.1c-0.1,0-0.2,0-0.3,0h-0.1c-0.1,0-0.1,0-0.2,0s-0.1,0-0.2,0c-5.1,0.8-10,3.3-13.7,7
	c-9.8,9.8-9.8,25.8,0,35.6c4.8,4.8,11.1,7.4,17.8,7.4c6.7,0,13-2.6,17.8-7.4c3-3,5.1-6.7,6.4-11c0-0.1,0-0.1,0-0.2
	c0.1-0.2,0.1-0.3,0.1-0.3c0-0.1,0-0.1,0-0.2s0-0.2,0-0.2v-0.1C49.7,30.6,49.7,30.5,49.6,30.5z M40.4,39.8c-4,4-9.3,6.2-15,6.2
	c-5.6,0-10.9-2.2-15-6.2c-8.2-8.2-8.2-21.7,0-29.9c2.4-2.4,5.4-4.2,8.5-5.2C17.8,12.4,20.4,20.3,26,26c4.8,4.8,11.1,7.3,17.8,7.3
	c0.3,0,0.5,0,0.8,0C43.7,35.8,42.2,38,40.4,39.8z"/>
</svg>
