<?xml version="1.0" encoding="utf-8"?>
<!-- Generator: Adobe Illustrator 22.0.1, SVG Export Plug-In . SVG Version: 6.00 Build 0)  -->
<svg version="1.1" id="Layer_1"
	xmlns="http://www.w3.org/2000/svg" x="0px" y="0px" viewBox="0 0 50 50"
	style="enable-background:new 0 0 50 50;" xml:space="preserve">
<g>
	<path d="M48.2,39.9L39.5,31c4.2-7.4,3-17.1-2.4-23.5c-4.9-5.8-12.7-8.6-20.2-7.1C9.5,1.9,3.4,7.3,1,14.4c-2.4,7.3-0.5,15.5,4.7,21
		c6.5,6.9,16.9,8.3,25.2,4c2.1,2.1,4.1,4.1,6.2,6.2c0.9,0.9,1.7,1.7,2.6,2.6c2,1.9,5.1,2.5,7.5,0.9C50.3,47.1,51,42.5,48.2,39.9z
		 M31.5,34.3L31.5,34.3c-8.3,6.6-20.9,3.8-25.7-5.6C4.6,26.3,4,23.7,4,21c0-8.4,6.3-15.7,14.6-16.8C26.9,3,35,8.2,37.3,16.3
		c1.5,5.2,0.4,11-3,15.2l0,0C33.5,32.6,32.6,33.5,31.5,34.3z M45.4,45.4c-1.2,1.2-2.5,0.3-3.4-0.6c-0.9-0.9-1.9-1.9-2.8-2.8
		c-1.6-1.6-3.2-3.2-4.8-4.8c1-0.8,2-1.8,2.8-2.8c1.6,1.6,3.2,3.2,4.9,4.9c0.9,0.9,1.9,1.9,2.8,2.8C45.8,43,46.6,44.2,45.4,45.4z"/>
	<path d="M19.5,29.9c-1.5-0.3-3-0.9-4.2-1.9c-1.2-0.9-2.1-2.2-2.6-3.5c-0.3-0.7-0.5-1.4-0.6-2.2c-0.1-0.8,0-1.7-0.4-2.4
		c-0.9-1.4-3.1-1-3.6,0.6c-0.4,1.4,0.1,3.2,0.6,4.5c0.9,2.9,2.9,5.4,5.5,7c1.7,1,8.9,4,8.9,0C23,29.9,20.9,30.1,19.5,29.9z"/>
</g>
</svg>
