<?xml version="1.0" encoding="utf-8"?>
<!-- Generator: Adobe Illustrator 22.0.1, SVG Export Plug-In . SVG Version: 6.00 Build 0)  -->
<svg version="1.1" id="Layer_1"
	xmlns="http://www.w3.org/2000/svg" x="0px" y="0px" viewBox="0 0 50 50"
	style="enable-background:new 0 0 50 50;" xml:space="preserve">
<path d="M49.4,46.6L37.2,34.4c3-3.6,4.8-8.3,4.8-13.4C42,9.4,32.6,0,21,0S0,9.4,0,21s9.4,21,21,21c5.1,0,9.7-1.8,13.4-4.8l12.2,12.2
	C47,49.8,47.5,50,48,50s1-0.2,1.4-0.6C50.2,48.6,50.2,47.4,49.4,46.6z M4,21c0-9.4,7.6-17,17-17s17,7.6,17,17s-7.6,17-17,17
	S4,30.4,4,21z"/>
</svg>
