<?xml version="1.0" encoding="utf-8"?>
<!-- Generator: Adobe Illustrator 21.1.0, SVG Export Plug-In . SVG Version: 6.00 Build 0)  -->
<svg version="1.1" id="Layer_1" xmlns="http://www.w3.org/2000/svg" x="0px" y="0px"
	viewBox="0 0 50 50" style="enable-background:new 0 0 50 50;" xml:space="preserve">
<path d="M48,15H34v-2c0-5-4-9-9-9c-5,0-9,4-9,9v2H2c-1.1,0-2,0.9-2,2v31c0,1.1,0.9,2,2,2h46c1.1,0,2-0.9,2-2V17
	C50,15.9,49.1,15,48,15z M20,13c0-2.8,2.2-5,5-5s5,2.2,5,5v2H20V13z M46,46H4V19h12c0,1.1,0.9,2,2,2s2-0.9,2-2h10c0,1.1,0.9,2,2,2
	s2-0.9,2-2h12V46z"/>
</svg>
