<?xml version="1.0" encoding="utf-8"?>
<!-- Generator: Adobe Illustrator 22.0.1, SVG Export Plug-In . SVG Version: 6.00 Build 0)  -->
<svg version="1.1" id="Layer_1" xmlns="http://www.w3.org/2000/svg" x="0px" y="0px"
	viewBox="0 0 50 50" style="enable-background:new 0 0 50 50;" xml:space="preserve">
<g>
	<path d="M3.4,38.1c-0.8-0.8-2-0.8-2.8,0c-0.8,0.8-0.8,2,0,2.8l8.5,8.5C9.5,49.8,10,50,10.5,50s1-0.2,1.4-0.6c0.8-0.8,0.8-2,0-2.8
		L3.4,38.1z"/>
	<path d="M3.4,29.6c-0.8-0.8-2-0.8-2.8,0c-0.8,0.8-0.8,2,0,2.8l17,17C18,49.8,18.5,50,19,50s1-0.2,1.4-0.6c0.8-0.8,0.8-2,0-2.8
		L3.4,29.6z"/>
	<path d="M46.6,11.9c0.4,0.4,0.9,0.6,1.4,0.6s1-0.2,1.4-0.6c0.8-0.8,0.8-2,0-2.8l-8.5-8.5c-0.8-0.8-2-0.8-2.8,0
		c-0.8,0.8-0.8,2,0,2.8L46.6,11.9z"/>
	<path d="M32.4,0.6c-0.8-0.8-2-0.8-2.8,0c-0.8,0.8-0.8,2,0,2.8l17,17C47,20.8,47.5,21,48,21s1-0.2,1.4-0.6c0.8-0.8,0.8-2,0-2.8
		L32.4,0.6z"/>
	<path d="M36.7,13.3C36.7,13.3,36.7,13.3,36.7,13.3C36.7,13.3,36.7,13.3,36.7,13.3L26.1,2.7c-0.8-0.8-2-0.8-2.8,0
		c-0.8,0.8-0.8,2,0,2.8l9.2,9.2L14.7,32.4l-9.2-9.2c-0.8-0.8-2-0.8-2.8,0c-0.8,0.8-0.8,2,0,2.8l10.6,10.6c0,0,0,0,0,0s0,0,0,0
		l10.6,10.6c0.4,0.4,0.9,0.6,1.4,0.6s1-0.2,1.4-0.6c0.8-0.8,0.8-2,0-2.8l-9.2-9.2l17.7-17.7l9.2,9.2c0.4,0.4,0.9,0.6,1.4,0.6
		s1-0.2,1.4-0.6c0.8-0.8,0.8-2,0-2.8L36.7,13.3z"/>
</g>
</svg>
