<?xml version="1.0" encoding="utf-8"?>
<!-- Generator: Adobe Illustrator 22.0.1, SVG Export Plug-In . SVG Version: 6.00 Build 0)  -->
<svg version="1.1" id="Layer_1" xmlns="http://www.w3.org/2000/svg" x="0px" y="0px"
	viewBox="0 0 50 50" style="enable-background:new 0 0 50 50;" xml:space="preserve">
<style type="text/css">
	.st0{fill:none;stroke:#000000;stroke-width:4;stroke-linecap:round;stroke-linejoin:round;stroke-miterlimit:10;}
</style>
<g>
	<rect x="5.4" y="35.6" transform="matrix(0.7071 -0.7071 0.7071 0.7071 -26.9914 18.1091)" class="st0" width="6" height="12"/>
	<rect x="9.6" y="26.4" transform="matrix(-0.7071 0.7071 -0.7071 -0.7071 47.9619 54.9203)" class="st0" width="6" height="22"/>
	<rect x="13.8" y="19.2" transform="matrix(0.7071 -0.7071 0.7071 0.7071 -18.5061 21.6238)" class="st0" width="6" height="28"/>
</g>
<g>
	<rect x="38.6" y="2.4" transform="matrix(-0.7071 0.7071 -0.7071 -0.7071 76.9914 -15.163)" class="st0" width="6" height="12"/>
	<rect x="34.4" y="1.6" transform="matrix(0.7071 -0.7071 0.7071 0.7071 2.0381 30.1335)" class="st0" width="6" height="22"/>
	<rect x="30.2" y="2.8" transform="matrix(-0.7071 0.7071 -0.7071 -0.7071 68.5061 5.3223)" class="st0" width="6" height="28"/>
</g>
<rect x="16.5" y="22" transform="matrix(0.7071 -0.7071 0.7071 0.7071 -10.3553 25)" class="st0" width="17" height="6"/>
</svg>
