<?xml version="1.0" encoding="utf-8"?>
<!-- Generator: Adobe Illustrator 21.1.0, SVG Export Plug-In . SVG Version: 6.00 Build 0)  -->
<svg version="1.1" id="Layer_1"
	xmlns="http://www.w3.org/2000/svg" x="0px" y="0px" viewBox="0 0 50 50"
	style="enable-background:new 0 0 50 50;" xml:space="preserve">
<path d="M27.3,23.5c0,3.3,6,12,6,12s6-8.7,6-12s-2.7-6-6-6S27.3,20.2,27.3,23.5z"/>
<path d="M49.1,1.5c-0.6-0.4-1.3-0.4-1.9-0.1L33.3,8.3L17.6,0.5c-0.6-0.3-1.2-0.3-1.8,0L1.1,7.8C0.4,8.1,0,8.8,0,9.6v37.2
	c0,0.7,0.4,1.3,0.9,1.7c0.6,0.4,1.3,0.4,1.9,0.1l13.5-6.8c0.1,0,0.2-0.1,0.3-0.1c0.1,0,0.1,0.1,0.2,0.1l15.5,7.8
	c0.3,0.1,0.6,0.2,0.9,0.2s0.6-0.1,0.9-0.2l14.7-7.3c0.7-0.3,1.1-1,1.1-1.8V3.2C50,2.5,49.6,1.9,49.1,1.5z M46,39.2l-12.7,6.3
	l-14.5-7.3c-0.6-0.4-1.4-0.6-2.1-0.6s-1.5,0.2-2.1,0.6L4,43.5V10.8l12.7-6.3l14.9,7.4c1.1,0.6,2.5,0.6,3.6,0L46,6.5V39.2z"/>
</svg>
