<?xml version="1.0" encoding="utf-8"?>
<!-- Generator: Adobe Illustrator 22.0.1, SVG Export Plug-In . SVG Version: 6.00 Build 0)  -->
<svg version="1.1" id="Layer_1"
	xmlns="http://www.w3.org/2000/svg" x="0px" y="0px" viewBox="0 0 50 50"
	style="enable-background:new 0 0 50 50;" xml:space="preserve">
<path d="M40.2,0H9.8c-1.1,0-2,0.9-2,2v46c0,0.7,0.4,1.4,1.1,1.8c0.6,0.3,1.4,0.3,2-0.1L25,40.4l14.1,9.3c0.3,0.2,0.7,0.3,1.1,0.3
	c0.3,0,0.7-0.1,0.9-0.2c0.6-0.3,1.1-1,1.1-1.8V2C42.2,0.9,41.3,0,40.2,0z M38.2,44.3l-12.1-8C25.8,36.1,25.4,36,25,36
	s-0.8,0.1-1.1,0.3l-12.1,8V4h26.4V44.3z"/>
</svg>
