<?xml version="1.0" encoding="utf-8"?>
<!-- Generator: Adobe Illustrator 22.0.1, SVG Export Plug-In . SVG Version: 6.00 Build 0)  -->
<svg version="1.1" id="Layer_1"
	xmlns="http://www.w3.org/2000/svg" x="0px" y="0px" viewBox="0 0 50 50"
	style="enable-background:new 0 0 50 50;" xml:space="preserve">
<path d="M25,4c1.1,0,2,0.9,2,2v17h17c1.1,0,2,0.9,2,2s-0.9,2-2,2H27v17c0,1.1-0.9,2-2,2s-2-0.9-2-2V27H6c-1.1,0-2-0.9-2-2s0.9-2,2-2
	h17V6C23,4.9,23.9,4,25,4 M25,0c-3.3,0-6,2.7-6,6v13H6c-3.3,0-6,2.7-6,6s2.7,6,6,6h13v13c0,3.3,2.7,6,6,6s6-2.7,6-6V31h13
	c3.3,0,6-2.7,6-6s-2.7-6-6-6H31V6C31,2.7,28.3,0,25,0L25,0z"/>
</svg>
