<?xml version="1.0" encoding="utf-8"?>
<!-- Generator: Adobe Illustrator 21.1.0, SVG Export Plug-In . SVG Version: 6.00 Build 0)  -->
<svg version="1.1" id="Layer_1" xmlns="http://www.w3.org/2000/svg" x="0px" y="0px"
	viewBox="0 0 50 50" style="enable-background:new 0 0 50 50;" xml:space="preserve">
<g>
	<path d="M25,0C11.2,0,0,11.2,0,25s11.2,25,25,25s25-11.2,25-25S38.8,0,25,0z M25,46C13.4,46,4,36.6,4,25C4,13.4,13.4,4,25,4
		c11.6,0,21,9.4,21,21C46,36.6,36.6,46,25,46z"/>
	<path d="M25,7.5C15.4,7.5,7.5,15.4,7.5,25c0,1.1,0.9,2,2,2s2-0.9,2-2c0-7.4,6.1-13.5,13.5-13.5c7.4,0,13.5,6.1,13.5,13.5
		c0,1.1,0.9,2,2,2s2-0.9,2-2C42.5,15.4,34.6,7.5,25,7.5z"/>
	<path d="M20.8,17.9c-0.8-0.8-2-0.8-2.8,0c-0.8,0.8-0.8,2,0,2.8l5.7,5.7C24,26.8,24.5,27,25,27s1-0.2,1.4-0.6c0.8-0.8,0.8-2,0-2.8
		L20.8,17.9z"/>
</g>
</svg>
