<?xml version="1.0" encoding="utf-8"?>
<!-- Generator: Adobe Illustrator 22.0.1, SVG Export Plug-In . SVG Version: 6.00 Build 0)  -->
<svg version="1.1" id="Layer_1" xmlns="http://www.w3.org/2000/svg" x="0px" y="0px"
	viewBox="0 0 50 50" style="enable-background:new 0 0 50 50;" xml:space="preserve">
<style type="text/css">
	.st0{opacity:0.4;}
	.st1{opacity:0.6;}
	.st2{opacity:0.8;}
</style>
<path d="M25,50C11.2,50,0,38.8,0,25S11.2,0,25,0s25,11.2,25,25S38.8,50,25,50z M25,4C13.4,4,4,13.4,4,25c0,11.6,9.4,21,21,21
	c11.6,0,21-9.4,21-21C46,13.4,36.6,4,25,4z"/>
<path d="M25,27c-0.8,0-1.5-0.4-1.8-1.2l-4.1-8.9c-0.5-1,0-2.2,1-2.6c1-0.5,2.2,0,2.6,1l4.1,8.9c0.5,1,0,2.2-1,2.6
	C25.6,26.9,25.3,27,25,27z"/>
<path class="st0" d="M13,14.9c-0.9-0.6-2.2-0.3-2.8,0.6C9.8,16.2,9.4,17,9,17.8c-0.9,2-1.4,4.1-1.5,6.2c0,0.8,0.4,1.6,1.2,1.9
	c0.2,0.1,0.5,0.2,0.7,0.2c1.1,0.1,2-0.8,2.1-1.9c0.1-1.7,0.5-3.3,1.2-4.8c0.3-0.6,0.6-1.2,1-1.8C14.2,16.8,14,15.5,13,14.9z"/>
<path class="st1" d="M22.2,7.7c-3,0.5-5.8,1.7-8.2,3.6c-0.9,0.7-1,2-0.3,2.8c0.2,0.3,0.5,0.4,0.7,0.6c0.7,0.3,1.5,0.2,2.1-0.3
	c1.8-1.5,4-2.4,6.3-2.8c1.1-0.2,1.8-1.2,1.7-2.3C24.3,8.3,23.3,7.5,22.2,7.7z"/>
<path class="st2" d="M36,11.3c-2.4-1.9-5.2-3.1-8.2-3.6c-1.1-0.2-2.1,0.6-2.3,1.7c-0.1,0.9,0.3,1.8,1.2,2.1c0.2,0.1,0.3,0.1,0.5,0.2
	c2.3,0.4,4.5,1.3,6.3,2.8c0.9,0.7,2.1,0.6,2.8-0.3C37,13.3,36.8,12,36,11.3z"/>
<path d="M39.7,15.5c-0.6-0.9-1.8-1.2-2.8-0.6c-0.9,0.6-1.2,1.8-0.6,2.8c1.3,2,2,4.2,2.1,6.6c0,0.8,0.5,1.4,1.2,1.7
	c0.3,0.1,0.6,0.2,0.9,0.2c1.1-0.1,1.9-1,1.9-2.1C42.3,21,41.4,18,39.7,15.5z"/>
</svg>
