<?xml version="1.0" encoding="utf-8"?>
<!-- Generator: Adobe Illustrator 22.0.1, SVG Export Plug-In . SVG Version: 6.00 Build 0)  -->
<svg version="1.1" id="Layer_1" xmlns="http://www.w3.org/2000/svg" x="0px" y="0px"
	viewBox="0 0 50 50" style="enable-background:new 0 0 50 50;" xml:space="preserve">
<g>
	<path d="M28.1,5.4c-0.2-0.7-0.7-1.2-1.4-1.4c-0.7-0.2-1.4,0-1.9,0.5L9.7,19.1l-8.2,2.5c-0.5,0.2-0.9,0.5-1.2,1s-0.3,1-0.2,1.5
		l3.4,11.2c0.2,0.5,0.5,0.9,1,1.2s1,0.3,1.5,0.1l2.6-0.8l3,10.2c0.3,0.9,1.1,1.4,1.9,1.4c0.2,0,0.4,0,0.6-0.1l7.4-2.2
		c0.5-0.2,0.9-0.5,1.2-1s0.3-1,0.1-1.5l-2.2-7.1l14.5,3.3c0.1,0,0.3,0,0.4,0c0.5,0,1.1-0.2,1.5-0.6c0.5-0.5,0.7-1.3,0.4-1.9
		L28.1,5.4z M11.3,22.8c0.3-0.1,0.6-0.3,0.8-0.5l7.9-7.6l5.4,17.8l-10.6-2.4l-0.2,0c0,0,0,0,0,0l0,0c-0.1,0-0.3,0-0.4,0c0,0,0,0,0,0
		c-0.2,0-0.4,0-0.5,0.1l-2.4,0.7l-2.3-7.3L11.3,22.8z M4.5,24.8l0.6-0.2L7.4,32l-0.7,0.2L4.5,24.8z M14.8,42.9l-2.5-8.3l1.9-0.6
		l1.9,0.4l2.3,7.4L14.8,42.9z M29.9,33.5l-6.6-21.9l2-1.9l7.4,24.4L29.9,33.5z"/>
	<path d="M35,20.2c0.3,0.9,1.1,1.4,1.9,1.4c0.2,0,0.4,0,0.6-0.1l11.1-3.4c1.1-0.3,1.6-1.4,1.3-2.5s-1.4-1.6-2.5-1.3l-11.1,3.4
		C35.3,18,34.7,19.1,35,20.2z"/>
	<path d="M34.2,11.7c0.4,0,0.8-0.1,1.2-0.4l6.8-5.1c0.9-0.7,1.1-1.9,0.4-2.8c-0.7-0.9-1.9-1.1-2.8-0.4L33,8.1
		c-0.9,0.7-1.1,1.9-0.4,2.8C33,11.4,33.6,11.7,34.2,11.7z"/>
	<path d="M48.1,27.8l-7.8-0.4c-1.1-0.1-2,0.8-2.1,1.9s0.8,2,1.9,2.1l7.8,0.4c0,0,0.1,0,0.1,0c1.1,0,1.9-0.8,2-1.9
		C50.1,28.8,49.2,27.9,48.1,27.8z"/>
</g>
</svg>
