<?xml version="1.0" encoding="utf-8"?>
<!-- Generator: Adobe Illustrator 22.0.1, SVG Export Plug-In . SVG Version: 6.00 Build 0)  -->
<svg version="1.1" id="Layer_1"
	xmlns="http://www.w3.org/2000/svg" x="0px" y="0px" viewBox="0 0 46 46"
	style="enable-background:new 0 0 46 46;" xml:space="preserve">
<g>
	<path d="M44,5H2C0.9,5,0,5.9,0,7v25c0,1.1,0.9,2,2,2h9l4.1,7.9c0.3,0.7,1,1.1,1.8,1.1s1.4-0.4,1.8-1.1l4.1-7.9H44c1.1,0,2-0.9,2-2
		V7C46,5.9,45.1,5,44,5z M42,30H21.6c-0.7,0-1.4,0.4-1.8,1.1l-2.9,5.6L14,31.1c-0.3-0.7-1-1.1-1.8-1.1H4V9h38V30z"/>
	<path d="M20,26h8c1.1,0,2-0.9,2-2s-0.9-2-2-2h-8c-1.1,0-2,0.9-2,2S18.9,26,20,26z"/>
	<circle cx="36" cy="24" r="2"/>
	<path d="M10,26h2c1.1,0,2-0.9,2-2s-0.9-2-2-2h-2c-1.1,0-2,0.9-2,2S8.9,26,10,26z"/>
</g>
</svg>
