<?xml version="1.0" encoding="utf-8"?>
<!-- Generator: Adobe Illustrator 22.0.1, SVG Export Plug-In . SVG Version: 6.00 Build 0)  -->
<svg version="1.1" id="Layer_1"
	xmlns="http://www.w3.org/2000/svg" x="0px" y="0px" viewBox="0 0 50 50"
	style="enable-background:new 0 0 50 50;" xml:space="preserve">
<path d="M25,13.9c3.8,0,6.9-3.1,6.9-6.9S28.8,0,25,0s-6.9,3.1-6.9,6.9S21.2,13.9,25,13.9z"/>
<path d="M25,18.4c-3.8,0-6.9,3.1-6.9,6.9s3.1,6.9,6.9,6.9s6.9-3.1,6.9-6.9S28.8,18.4,25,18.4z"/>
<path d="M25,36.1c-3.8,0-6.9,3.1-6.9,6.9s3.1,7,6.9,7s6.9-3.1,6.9-6.9C31.9,39.3,28.8,36.1,25,36.1z"/>
</svg>
