<?xml version="1.0" encoding="utf-8"?>
<!-- Generator: Adobe Illustrator 22.0.1, SVG Export Plug-In . SVG Version: 6.00 Build 0)  -->
<svg version="1.1" id="Layer_1"
	xmlns="http://www.w3.org/2000/svg" x="0px" y="0px" viewBox="0 0 50 50"
	style="enable-background:new 0 0 50 50;" xml:space="preserve">
<path d="M44,12H6c-3.3,0-6-2.7-6-6s2.7-6,6-6h38c3.3,0,6,2.7,6,6S47.3,12,44,12z M6,4C4.9,4,4,4.9,4,6s0.9,2,2,2h38c1.1,0,2-0.9,2-2
	s-0.9-2-2-2H6z"/>
<path d="M44,50H6c-3.3,0-6-2.7-6-6s2.7-6,6-6h38c3.3,0,6,2.7,6,6S47.3,50,44,50z M6,42c-1.1,0-2,0.9-2,2s0.9,2,2,2h38
	c1.1,0,2-0.9,2-2s-0.9-2-2-2H6z"/>
<path d="M44,31H6c-3.3,0-6-2.7-6-6s2.7-6,6-6h38c3.3,0,6,2.7,6,6S47.3,31,44,31z M6,23c-1.1,0-2,0.9-2,2c0,1.1,0.9,2,2,2h38
	c1.1,0,2-0.9,2-2c0-1.1-0.9-2-2-2H6z"/>
</svg>
