<?xml version="1.0" encoding="UTF-8" standalone="no"?>
<!DOCTYPE svg PUBLIC "-//W3C//DTD SVG 1.1//EN" "http://www.w3.org/Graphics/SVG/1.1/DTD/svg11.dtd">
<svg width="100%" height="100%" viewBox="0 0 50 50" version="1.1" xmlns="http://www.w3.org/2000/svg" xmlns:xlink="http://www.w3.org/1999/xlink" xml:space="preserve" xmlns:serif="http://www.serif.com/" style="fill-rule:evenodd;clip-rule:evenodd;stroke-linejoin:round;stroke-miterlimit:2;">
    <path d="M44,12L6,12C2.7,12 0,9.3 0,6C0,2.7 2.7,0 6,0L44,0C47.3,0 50,2.7 50,6C50,9.3 47.3,12 44,12Z" style="fill-rule:nonzero;"/>
    <path d="M44,50L6,50C2.7,50 0,47.3 0,44C0,40.7 2.7,38 6,38L44,38C47.3,38 50,40.7 50,44C50,47.3 47.3,50 44,50Z" style="fill-rule:nonzero;"/>
    <path d="M44,31L6,31C2.7,31 0,28.3 0,25C0,21.7 2.7,19 6,19L44,19C47.3,19 50,21.7 50,25C50,28.3 47.3,31 44,31Z" style="fill-rule:nonzero;"/>
</svg>
