<?xml version="1.0" encoding="utf-8"?>
<!-- Generator: Adobe Illustrator 21.1.0, SVG Export Plug-In . SVG Version: 6.00 Build 0)  -->
<svg version="1.1" id="Layer_1"
	xmlns="http://www.w3.org/2000/svg" x="0px" y="0px" viewBox="0 0 50 50"
	style="enable-background:new 0 0 50 50;" xml:space="preserve">
<path d="M31.1,15.2c1.7-1.6,2.7-3.9,2.7-6.3C33.8,4,29.8,0,25,0s-8.8,4-8.8,8.8c0,2.5,1,4.7,2.7,6.3c-4.1,2.2-6.9,6.5-6.9,11.6
	c0,6.6,10.3,20.9,11.4,22.5c0.4,0.5,1,0.8,1.6,0.8s1.2-0.3,1.6-0.8C27.8,47.6,38,33.3,38,26.7C38,21.7,35.2,17.4,31.1,15.2z M25,4
	c2.6,0,4.8,2.2,4.8,4.8c0,2.6-2.2,4.8-4.8,4.8s-4.8-2.1-4.8-4.8C20.2,6.2,22.4,4,25,4z M25,44.5c-4-5.9-9-14.3-9-17.8
	c0-5,4.1-9.1,9-9.1c5,0,9,4.1,9,9.1C34,30.2,29,38.7,25,44.5z"/>
</svg>
