<?xml version="1.0" encoding="UTF-8" standalone="no"?>
<!DOCTYPE svg PUBLIC "-//W3C//DTD SVG 1.1//EN" "http://www.w3.org/Graphics/SVG/1.1/DTD/svg11.dtd">
<svg width="100%" height="100%" viewBox="0 0 50 50" version="1.1" xmlns="http://www.w3.org/2000/svg" xmlns:xlink="http://www.w3.org/1999/xlink" xml:space="preserve" xmlns:serif="http://www.serif.com/" style="fill-rule:evenodd;clip-rule:evenodd;stroke-linejoin:round;stroke-miterlimit:2;">
    <g transform="matrix(1,0,0,1,-280,-350)">
        <g id="microfono-mute" transform="matrix(0.925926,0,0,0.925926,212.407,351.852)">
            <rect x="73" y="-2" width="54" height="54" style="fill:none;"/>
            <clipPath id="_clip1">
                <rect x="73" y="-2" width="54" height="54"/>
            </clipPath>
            <g clip-path="url(#_clip1)">
                <g transform="matrix(1.08,0,0,1.08,71.6395,-2)">
                    <path d="M10.273,26.018C10.273,34.842 17.436,42.005 26.26,42.005C35.083,42.005 42.246,34.842 42.246,26.018C42.246,24.915 41.35,24.018 40.246,24.018C39.143,24.018 38.246,24.915 38.246,26.018C38.246,32.634 32.875,38.005 26.26,38.005C19.644,38.005 14.273,32.634 14.273,26.018C14.273,24.915 13.377,24.018 12.273,24.018C11.169,24.018 10.273,24.915 10.273,26.018Z"/>
                </g>
                <g transform="matrix(0.849451,-0.0080449,0,1.08,78.8739,-2.14951)">
                    <path d="M13.428,50.238L36.313,50.409C37.716,50.419 38.856,49.532 38.856,48.428C38.856,47.324 37.716,46.419 36.313,46.409L13.428,46.238C12.024,46.228 10.885,47.116 10.885,48.22C10.885,49.323 12.024,50.228 13.428,50.238Z"/>
                </g>
                <g transform="matrix(0.0080449,0.566062,-1.08,4.40687e-17,151.99,29.2846)">
                    <path d="M21.059,50.295L36.313,50.409C38.419,50.425 40.129,49.541 40.129,48.437C40.129,47.334 38.419,46.425 36.313,46.409L21.059,46.295C18.953,46.28 17.243,47.163 17.243,48.267C17.243,49.371 18.953,50.28 21.059,50.295Z"/>
                </g>
                <g transform="matrix(1.08,0,0,1.08,71.6395,-2)">
                    <path d="M32.246,20.32L32.246,26.018C32.246,29.323 29.564,32.005 26.26,32.005C23.783,32.005 21.656,30.498 20.746,28.351C20.315,27.335 19.14,26.86 18.123,27.291C17.107,27.722 16.632,28.897 17.063,29.913C18.581,33.493 22.13,36.005 26.26,36.005C31.772,36.005 36.246,31.53 36.246,26.018L36.246,20.32C36.246,19.216 35.35,18.32 34.246,18.32C33.143,18.32 32.246,19.216 32.246,20.32Z"/>
                </g>
                <g transform="matrix(1.08,0,0,1.08,71.6395,-2)">
                    <path d="M20.273,15.685L20.273,9.987C20.273,6.683 22.956,4 26.26,4C28.736,4 30.863,5.507 31.774,7.654C32.205,8.67 33.38,9.145 34.396,8.714C35.412,8.283 35.887,7.108 35.456,6.092C33.938,2.512 30.39,0 26.26,0C20.748,0 16.273,4.475 16.273,9.987L16.273,15.685C16.273,16.789 17.169,17.685 18.273,17.685C19.377,17.685 20.273,16.789 20.273,15.685Z"/>
                </g>
                <g transform="matrix(0.736804,0.198145,0.198145,0.965601,-193.739,-141.837)">
                    <path d="M362.141,97.736L389.859,81.733C391.517,80.776 392.416,79.222 391.864,78.266C391.312,77.31 389.517,77.312 387.859,78.269L360.141,94.272C358.483,95.229 357.584,96.783 358.136,97.739C358.688,98.695 360.483,98.694 362.141,97.736Z"/>
                </g>
            </g>
        </g>
    </g>
</svg>
