<?xml version="1.0" encoding="UTF-8" standalone="no"?>
<!DOCTYPE svg PUBLIC "-//W3C//DTD SVG 1.1//EN" "http://www.w3.org/Graphics/SVG/1.1/DTD/svg11.dtd">
<svg width="100%" height="100%" viewBox="0 0 50 50" version="1.1" xmlns="http://www.w3.org/2000/svg" xmlns:xlink="http://www.w3.org/1999/xlink" xml:space="preserve" xmlns:serif="http://www.serif.com/" style="fill-rule:evenodd;clip-rule:evenodd;stroke-linejoin:round;stroke-miterlimit:2;">
    <g transform="matrix(1,0,0,1,-140,-350)">
        <g id="microfono-corto" transform="matrix(0.925926,0,0,0.925926,72.4074,351.852)">
            <rect x="73" y="-2" width="54" height="54" style="fill:none;"/>
            <clipPath id="_clip1">
                <rect x="73" y="-2" width="54" height="54"/>
            </clipPath>
            <g clip-path="url(#_clip1)">
                <g transform="matrix(1.08,0,0,1.08,71.6395,-2)">
                    <path d="M10.273,22.018C10.273,30.842 17.436,38.005 26.26,38.005C35.083,38.005 42.246,30.842 42.246,22.018C42.246,20.915 41.35,20.018 40.246,20.018C39.143,20.018 38.246,20.915 38.246,22.018C38.246,28.634 32.875,34.005 26.26,34.005C19.644,34.005 14.273,28.634 14.273,22.018C14.273,20.915 13.377,20.018 12.273,20.018C11.169,20.018 10.273,20.915 10.273,22.018Z"/>
                </g>
                <g transform="matrix(0.849451,-0.0080449,0,1.08,78.8739,-2.14951)">
                    <path d="M13.428,50.238L36.313,50.409C37.716,50.419 38.856,49.532 38.856,48.428C38.856,47.324 37.716,46.419 36.313,46.409L13.428,46.238C12.024,46.228 10.885,47.116 10.885,48.22C10.885,49.323 12.024,50.228 13.428,50.238Z"/>
                </g>
                <g transform="matrix(0.0080449,0.566062,-1.08,4.40687e-17,151.99,29.2846)">
                    <path d="M13.428,50.238L36.313,50.409C38.419,50.425 40.129,49.541 40.129,48.437C40.129,47.334 38.419,46.425 36.313,46.409L13.428,46.238C11.322,46.223 9.612,47.106 9.612,48.21C9.612,49.314 11.322,50.223 13.428,50.238Z"/>
                </g>
                <g transform="matrix(1.08,0,0,1.08,71.6395,-2)">
                    <path d="M36.246,9.987C36.246,4.475 31.772,0 26.26,0C20.748,0 16.273,4.475 16.273,9.987L16.273,22.018C16.273,27.53 20.748,32.005 26.26,32.005C31.772,32.005 36.246,27.53 36.246,22.018L36.246,9.987ZM32.246,9.987L32.246,22.018C32.246,25.323 29.564,28.005 26.26,28.005C22.956,28.005 20.273,25.323 20.273,22.018L20.273,9.987C20.273,6.683 22.956,4 26.26,4C29.564,4 32.246,6.683 32.246,9.987Z"/>
                </g>
            </g>
        </g>
    </g>
</svg>
