<?xml version="1.0" encoding="utf-8"?>
<!-- Generator: Adobe Illustrator 22.0.1, SVG Export Plug-In . SVG Version: 6.00 Build 0)  -->
<svg version="1.1" id="Layer_1"
	xmlns="http://www.w3.org/2000/svg" x="0px" y="0px" viewBox="0 0 50 50"
	style="enable-background:new 0 0 50 50;" xml:space="preserve">
<style type="text/css">
	.st0{fill:none;stroke:#000000;stroke-width:4;stroke-linecap:round;stroke-linejoin:round;stroke-miterlimit:10;}
	.st1{fill:none;stroke:#000000;stroke-width:2;stroke-linecap:round;stroke-linejoin:round;stroke-miterlimit:10;}
</style>
<g>
	<g>
		<path class="st0" d="M24,15.5c0.8-3.6-0.2-7.4-3-10.2c-4.3-4.3-11.4-4.3-15.7,0S0.9,16.6,5.3,21c2.8,2.8,6.6,3.8,10.2,3"/>
		<path class="st0" d="M15.5,24l-0.1,0.1l22.1,19.4l1.2-1.2l3.8-3.8l1.2-1.2L24.1,15.3L24,15.5c-0.4,2-1.4,3.9-3,5.5
			S17.5,23.5,15.5,24z"/>
		<path class="st0" d="M15.5,24c2-0.4,3.9-1.4,5.5-3s2.6-3.5,3-5.5"/>
		<rect x="40.6" y="39.3" transform="matrix(0.7071 -0.7071 0.7071 0.7071 -17.9294 43.2854)" class="st0" width="5.3" height="8"/>
	</g>
	<path class="st1" d="M19.8,4.2c3.1,3.1,2.2,9.1-2.1,13.4S7.3,22.9,4.2,19.8"/>
</g>
</svg>
