<?xml version="1.0" encoding="UTF-8" standalone="no"?>
<!DOCTYPE svg PUBLIC "-//W3C//DTD SVG 1.1//EN" "http://www.w3.org/Graphics/SVG/1.1/DTD/svg11.dtd">
<svg width="100%" height="100%" viewBox="0 0 50 50" version="1.1" xmlns="http://www.w3.org/2000/svg" xmlns:xlink="http://www.w3.org/1999/xlink" xml:space="preserve" xmlns:serif="http://www.serif.com/" style="fill-rule:evenodd;clip-rule:evenodd;stroke-linejoin:round;stroke-miterlimit:2;">
    <g transform="matrix(1,0,0,1,-70,-350)">
        <g id="microfono-mute2" transform="matrix(0.925926,0,0,0.925926,2.40741,351.852)">
            <rect x="73" y="-2" width="54" height="54" style="fill:none;"/>
            <clipPath id="_clip1">
                <rect x="73" y="-2" width="54" height="54"/>
            </clipPath>
            <g clip-path="url(#_clip1)">
                <g transform="matrix(1.08,0,0,1.08,71.6395,-2)">
                    <path d="M10.273,26.018C10.273,34.842 17.436,42.005 26.26,42.005C35.083,42.005 42.246,34.842 42.246,26.018C42.246,24.915 41.35,24.018 40.246,24.018C39.143,24.018 38.246,24.915 38.246,26.018C38.246,32.634 32.875,38.005 26.26,38.005C19.644,38.005 14.273,32.634 14.273,26.018C14.273,24.915 13.377,24.018 12.273,24.018C11.169,24.018 10.273,24.915 10.273,26.018Z"/>
                </g>
                <g transform="matrix(0.849451,-0.0080449,0,1.08,78.8739,-2.14951)">
                    <path d="M13.428,50.238L36.313,50.409C37.716,50.419 38.856,49.532 38.856,48.428C38.856,47.324 37.716,46.419 36.313,46.409L13.428,46.238C12.024,46.228 10.885,47.116 10.885,48.22C10.885,49.323 12.024,50.228 13.428,50.238Z"/>
                </g>
                <g transform="matrix(0.0080449,0.566062,-1.08,4.40687e-17,151.99,29.2846)">
                    <path d="M21.059,50.295L36.313,50.409C38.419,50.425 40.129,49.541 40.129,48.437C40.129,47.334 38.419,46.425 36.313,46.409L21.059,46.295C18.953,46.28 17.243,47.163 17.243,48.267C17.243,49.371 18.953,50.28 21.059,50.295Z"/>
                </g>
                <g transform="matrix(0.693848,-0.400593,0.148189,0.256672,-28.2562,61.683)">
                    <path d="M183.216,87.705C183.216,83.684 182.01,80.424 180.522,80.424C174.131,80.424 158.104,80.424 151.709,80.424C150.994,80.424 150.309,81.192 149.803,82.559C149.297,83.925 149.013,85.779 149.013,87.712C149.013,87.714 149.013,87.717 149.013,87.719C149.013,91.74 150.219,95 151.707,95C158.099,95 174.13,95 180.522,95C182.01,95 183.216,91.74 183.216,87.719C183.216,87.714 183.216,87.71 183.216,87.705Z"/>
                </g>
                <g transform="matrix(1.08,0,0,1.08,-78.2,-77.6)">
                    <path d="M174.987,89.359L174.987,96.018C174.987,101.53 170.512,106.005 165,106.005C161.03,106.005 157.599,103.684 155.989,100.327L159.471,98.316C160.373,100.482 162.51,102.005 165,102.005C168.304,102.005 170.987,99.323 170.987,96.018L170.987,91.668L174.987,89.359ZM155.013,87.034L155.013,79.987C155.013,74.475 159.488,70 165,70C169.089,70 172.607,72.462 174.151,75.985L170.651,78.006C169.832,75.674 167.61,74 165,74C161.696,74 159.013,76.683 159.013,79.987L159.013,84.724L155.013,87.034Z"/>
                </g>
            </g>
        </g>
    </g>
</svg>
