<?xml version="1.0" encoding="utf-8"?>
<!-- Generator: Adobe Illustrator 22.0.1, SVG Export Plug-In . SVG Version: 6.00 Build 0)  -->
<svg version="1.1" id="Layer_1"
	xmlns="http://www.w3.org/2000/svg" x="0px" y="0px" viewBox="0 0 50 50"
	style="enable-background:new 0 0 50 50;" xml:space="preserve">
<path d="M25,0C11.2,0,0,11.2,0,25s11.2,25,25,25s25-11.2,25-25S38.8,0,25,0z M28.9,11.4c0.5,0.6,1.2,0.9,1.9,0.7
	c0.4-0.1,0.8,0.1,1.5,0.4c0,0,0.1,0,0.1,0.1l0,0.1c0.3,0.7,1,1.1,1.8,1.1c1.1,0,1.6,0.5,1.7,0.6c0,0,0,0.1,0.1,0.1
	c0.3,0.3,0.7,0.5,0.9,0.7c0,0,0,0,0,0c0,0.1,0,0.2,0,0.3c-0.1,0-0.1,0.1-0.1,0.1c-1.6,1.4-2.4,3.1-2.5,5c0,0.5-0.4,1.1-0.9,1.7
	c-0.1,0-0.2,0-0.2,0c-0.8,0-1.8,0.1-2.8,0.8c0,0-0.1,0-0.1,0.1c-0.4,0.3-1.4,1.1-1.5,2.7c-1,0.8-1.8,1.7-2.4,2.7
	c-0.6-0.1-1.1,0.1-1.5,0.5c-0.4,0.4-0.7,0.9-0.7,1.5c0,0,0,0.1,0,0.1c-1.3,0.2-2,0.9-2.4,1.5c-0.1,0-0.2,0.1-0.3,0.1
	c-0.7,0.4-1,1.2-0.9,2c0,0.1,0,0.2,0,0.2c-0.2,0.1-0.4,0.3-0.6,0.5c0-0.2-0.1-0.4-0.1-0.6c-0.2-1.2-0.1-2.1,0.2-3.1
	c0.4-1.5,0.4-2.9,0.1-4.2c0.2-0.7,0.5-1.8,0.1-3c0.5-1.4,0-2.7-0.3-3.7c0-0.1-0.1-0.2-0.1-0.3c-0.2-0.4-0.5-0.8-0.8-1
	c-0.1-0.1-0.2-0.2-0.3-0.2c-0.6-0.4-1.3-0.8-2.2-1.1c-0.1,0-0.1-0.1-0.2-0.3c-0.6-1.4-1.2-2.8-2.3-4.1c0.2-0.3,0.3-0.6,0.3-1
	c0-0.3-0.1-0.6-0.2-0.8c0.2-0.4,0.5-0.7,0.7-0.9c0.6-0.5,1.8-1.7,1.2-3.7l0.1-0.1c0.2-0.2,0.4-0.4,0.5-0.7C17,6.1,17.2,6,17.3,6
	c0.4-0.2,0.6-0.3,0.7-0.3c0.3,0,0.5,0,0.8,0c0.1,0,0.3,0,0.4,0c0,0,0,0,0,0c1.1,0.5,2,0.6,3.1,0.4c0,0,0.1,0,0.1,0
	C22.8,6,22.9,6,23,6.1c0.3,0.4,0.6,0.6,0.9,0.8c1.1,1,2.4,1.4,3.4,1.6c0.4,0.1,0.9,0.4,1.4,0.7c0,0.1,0,0.2,0,0.3
	C28.4,10.1,28.5,10.9,28.9,11.4z M25,46C13.4,46,4,36.6,4,25c0-6.2,2.7-11.8,7-15.6c0,0-0.1,0.1-0.1,0.1l-0.2,0.4
	c-0.6,0.9-0.7,1.7-0.5,2.4C10.1,12.5,10,12.8,10,13c-0.1,0.9,0.2,1.9,1,2.8c0.8,1,1.4,2.1,1.9,3.4c0,0,0,0.1,0,0.1
	c0.4,0.8,0.9,1.6,2.1,2.2c0,0,0.1,0,0.1,0c0.5,0.2,0.9,0.4,1.3,0.7c0.1,0.4,0.2,0.8,0.2,0.9c0,0.1,0,0.1-0.1,0.2
	c-0.2,0.7-0.2,1.4,0.1,2.3c0,0,0,0.1-0.1,0.5c-0.2,0.4-0.5,1.3-0.1,2.2c0.2,0.6,0.2,1.3,0,2.1c-0.4,1.5-0.5,3-0.2,4.9
	c0.1,0.6,0.2,1.1,0.3,1.7c0.1,0.9,0.3,1.9,0.5,2.9c0.2,0.9,0.7,1.7,1.5,2.6c0.8,0.8,2,1.1,2.8,1.1c0.7,0,1.2-0.2,1.5-0.4
	c0.1,0,0.1-0.1,0.1-0.1c0.5-0.1,1-0.5,1.3-1c0.3-0.5,0.3-1.1,0.1-1.6c-0.1-0.3-0.3-0.8-0.6-1.3c0,0,0.1-0.1,0.1-0.1
	c0.3-0.3,1-1.2,0.7-2.3c0-0.1-0.1-0.3-0.1-0.4c0.1-0.3,0.2-0.7,0.3-1.1c0.2-0.2,0.4-0.3,0.5-0.5c1-0.1,2.1-0.6,2.9-2.1
	c0-0.1,0.1-0.2,0.1-0.3c0,0,0-0.1,0-0.1c0.7-0.3,1.2-0.8,1.6-1.5c0,0,0-0.1,0.1-0.1c0.3-0.6,0.8-1.2,1.5-1.6c0,0,0.1,0,0.1-0.1
	c1.1-0.8,1.3-1.9,1.3-2.5c0.2,0,0.5-0.1,0.7-0.1c0.2,0,0.4,0,0.6,0c1.1,0,1.8-0.4,2.3-1.1c0.1-0.1,0.2-0.3,0.3-0.4
	c0.7-1,1.6-2.2,1.7-3.9c0.1-0.9,0.4-1.6,1.2-2.3c0.3-0.3,0.6-0.5,0.8-0.7l0.1-0.1c0.7-0.7,0.7-1.7,0.7-2.4c-0.1-0.9-0.3-2.4-1.3-3.2
	c-0.1-0.1-0.2-0.1-0.3-0.2c-0.2-0.1-0.3-0.2-0.5-0.3c0,0-0.1,0-0.1,0c-0.9-1-2-1.6-3.4-1.8c-0.2-0.3-0.5-0.5-0.8-0.7
	c-0.1,0-0.1-0.1-0.2-0.1C34.3,9,34.1,9,33.9,8.9c-0.4-0.2-0.8-0.3-1.2-0.5c-0.1-0.5-0.2-0.9-0.4-1.3C32,6.6,31.6,6.2,31.1,6
	c-0.8-0.5-1.8-1.1-2.9-1.4c-0.8-0.2-1.2-0.3-1.5-0.6C37.5,5,46,14,46,25C46,36.6,36.6,46,25,46z"/>
</svg>
