<?xml version="1.0" encoding="utf-8"?>
<!-- Generator: Adobe Illustrator 22.0.1, SVG Export Plug-In . SVG Version: 6.00 Build 0)  -->
<svg version="1.1" id="Layer_1" xmlns="http://www.w3.org/2000/svg" x="0px" y="0px"
	viewBox="0 0 50 50" style="enable-background:new 0 0 50 50;" xml:space="preserve">
<style type="text/css">
	.st0{display:none;}
	.st1{display:inline;}
	.st2{display:none;fill:none;stroke:#000000;stroke-width:4;stroke-linecap:round;stroke-linejoin:round;stroke-miterlimit:10;}
</style>
<g>
	<g class="st0">
		<path class="st1" d="M72.1-14.6H3.3c-1.7,0-3.1-1.4-3.1-3.1l0,0c0-1.7,1.4-3.1,3.1-3.1h68.8c1.7,0,3.1,1.4,3.1,3.1l0,0
			C75.2-16,73.8-14.6,72.1-14.6z"/>
		<path class="st1" d="M72.1,13.5H59.6c-1.7,0-3.1-1.4-3.1-3.1l0,0c0-1.7,1.4-3.1,3.1-3.1h12.5c1.7,0,3.1,1.4,3.1,3.1l0,0
			C75.2,12.1,73.8,13.5,72.1,13.5z"/>
		<path class="st1" d="M3.3,41.6h68.8c1.7,0,3.1-1.4,3.1-3.1l0,0c0-1.7-1.4-3.1-3.1-3.1H3.3c-1.7,0-3.1,1.4-3.1,3.1l0,0
			C0.2,40.3,1.6,41.6,3.3,41.6z"/>
		<path class="st1" d="M3.3,13.5h40.6c1.7,0,3.1-1.4,3.1-3.1l0,0c0-1.7-1.4-3.1-3.1-3.1H3.3c-1.7,0-3.1,1.4-3.1,3.1l0,0
			C0.2,12.1,1.6,13.5,3.3,13.5z"/>
	</g>
	<g class="st0">
		<path class="st1" d="M37.2,46.2c-0.7,0-1.4-0.3-1.9-0.8C33.9,44,1.4,11.4,1.4-6.7c0-11.9,7.7-19.9,19.1-19.9
			c6.2,0,11.4,2.3,15,6.1c1.2,1.3,3.2,1.3,4.3,0c3.6-3.8,8.8-6.1,15-6.1c11.7,0,19.9,8.5,19.9,20.7c0,7.5-6.1,18.4-18.1,32.6
			C48,36.9,39.2,45.3,39.1,45.4C38.6,45.9,37.9,46.2,37.2,46.2z M20.5-21.2c-8.4,0-13.7,5.5-13.7,14.5c0,11.5,17.9,33,28.4,44.2
			c1.1,1.2,3.1,1.2,4.2,0.1c11-11.1,29.9-32.5,29.9-43.4c0-9.3-5.7-15.2-14.5-15.2c-8.5,0-14.4,5.5-14.5,13.5c0,1.5-1.1,2.8-2.6,2.9
			c-1.6,0.1-2.9-1.2-2.9-2.7C35-15.6,29-21.2,20.5-21.2z"/>
	</g>
	<g class="st0">
		<g class="st1">
			<path d="M30.7,50.8c-0.5,0-1-0.1-1.4-0.4c-1.1-0.6-1.8-1.9-1.7-3.1l1.6-20c0.1-1.7,1.6-3,3.4-2.9c1.7,0.1,3,1.6,2.9,3.4l-0.4,4.7
				c-0.1,0.8,1,1.2,1.4,0.5L52.4,8.4c0.3-0.5,0-1.2-0.7-1.2H40.9c-0.5,0-1.1-0.1-1.5-0.4c-1.2-0.6-1.8-1.9-1.6-3.2l1.8-14.5
				c0.1-0.8-1-1.2-1.4-0.5L23.3,10.7c-0.3,0.5,0,1.2,0.6,1.2h8.9c1.6,0,3.1,1.2,3.2,2.8c0.2,1.9-1.3,3.4-3.1,3.4H16.7
				c-0.8,0-1.6-0.3-2.2-0.8c-1.2-1.1-1.3-2.8-0.5-4l28.1-41.7c0.7-1,1.9-1.6,3.1-1.4c1.7,0.3,2.9,1.8,2.7,3.5L44.4,1h14.3
				c0.8,0,1.6,0.3,2.2,0.8c1.2,1.1,1.3,2.8,0.5,4L33.3,49.4C32.7,50.3,31.7,50.8,30.7,50.8z"/>
		</g>
	</g>
	<g class="st0">
		<path class="st1" d="M77.5,45.9L55.1,22.2c-1.3,1.6-2.8,3.1-4.4,4.5l22.4,23.4c1.3,1.3,3.4,1.2,4.5-0.2
			C78.6,48.7,78.5,47,77.5,45.9z"/>
		<path class="st1" d="M50.3,19.5c-5.2,6.3-13.3,10.1-22.1,9.6C14.6,28.2,3.7,16.9,3.3,3.3C2.9-12.2,15.8-24.8,31.4-23.9
			c12.8,0.7,23.4,10.8,24.8,23.5c0.4,3.9,0,7.7-1.1,11.1c-0.4,1.1-0.1,2.3,0.7,3.1l0,0c1.6,1.7,4.5,1.1,5.2-1.1
			c1.3-3.9,1.8-8.1,1.5-12.5c-1.1-16.4-14.5-29.6-31-30.4c-18.6-0.9-34,13.7-34.4,32c-0.4,17.8,13.8,32.9,31.6,33.6
			c11,0.4,20.9-4.6,27.1-12.6l-3.2-3.4C52,18.8,50.9,18.8,50.3,19.5z"/>
	</g>
	<g class="st0">
		<g class="st1">
			<path d="M59.6,46.3c-0.7,0-1.5-0.3-2.1-0.8L43.6,33.1c-0.6-0.5-1.3-0.8-2.1-0.8h-32c-5.2,0-9.4-4.2-9.4-9.4v-37.5
				c0-5.2,4.2-9.4,9.4-9.4h56.2c5.2,0,9.4,4.2,9.4,9.4v37.5c0,5.2-4.2,9.4-9.4,9.4h-6.2c-1.7,0-3.1-1.4-3.1-3.1s1.4-3.1,3.1-3.1h6.2
				c1.7,0,3.1-1.4,3.1-3.1v-37.6c0-1.7-1.4-3.1-3.1-3.1H9.6c-1.7,0-3.1,1.4-3.1,3.1v37.5c0,1.7,1.4,3.1,3.1,3.1h32
				c2.3,0,4.5,0.9,6.3,2.4l13.8,12.5c1.3,1.2,1.4,3.1,0.2,4.4C61.3,46,60.4,46.3,59.6,46.3z"/>
		</g>
	</g>
	<path class="st0" d="M64.3-3.7L64.3-3.7c-0.1-14.9-12-26.5-26.6-26.5S11.2-18.6,11.1-3.7l0,0l0,0l0,0l0,0
		c0.1,20.2,23.6,40.6,24.6,41.5c0.6,0.5,1.3,0.8,2,0.8s1.4-0.3,2-0.8C40.7,36.9,64.2,16.6,64.3-3.7L64.3-3.7
		C64.3-3.6,64.3-3.6,64.3-3.7C64.3-3.6,64.3-3.7,64.3-3.7z M39.9,29c-1.2,1.2-3.2,1.2-4.4,0C29,22.4,17.4,8.9,17.4-3.6
		c0-11,9.1-20.3,20.3-20.3S58-14.6,58-3.6C58,8.9,46.4,22.4,39.9,29z M64.3,38.5c0,8.2-13.4,12.5-26.6,12.5s-26.6-4.3-26.6-12.5
		c0-3.8,2.9-6.7,7.3-8.8c1.2-0.6,2.7-0.2,3.6,0.8c0,0,0,0,0,0.1c1.3,1.6,0.8,3.9-1.1,4.8c-2.4,1.2-3.6,2.4-3.6,3.2
		c0,1.9,6.9,6.2,20.3,6.2s20.3-4.4,20.3-6.2c0-0.8-1.2-2-3.6-3.2c-1.8-0.9-2.4-3.2-1.1-4.8c0,0,0,0,0-0.1c0.9-1,2.4-1.4,3.6-0.8
		C61.4,31.8,64.3,34.7,64.3,38.5z M37.7-14.6c-6,0-10.9,4.9-10.9,10.9s4.9,11,10.9,11S48.6,2.4,48.6-3.6S43.7-14.6,37.7-14.6z
		 M37.7,1C35.1,1,33-1.1,33-3.7s2.1-4.7,4.7-4.7s4.7,2.1,4.7,4.7S40.3,1,37.7,1z"/>
	<g class="st0">
		<path class="st1" d="M37.7,26.8c-9,0-16.4-7.4-16.4-16.4S28.7-6,37.7-6s16.4,7.4,16.4,16.4c0,1.3-0.2,2.6-0.5,3.9
			c-0.4,1.7-2.1,2.7-3.8,2.3s-2.7-2.1-2.3-3.8c0.2-0.8,0.3-1.6,0.3-2.4c0-5.6-4.6-10.2-10.2-10.2S27.5,4.8,27.5,10.4
			s4.6,10.2,10.2,10.2c1.2,0,2.4-0.2,3.6-0.6c1.6-0.6,3.4,0.2,4,1.8s-0.2,3.4-1.8,4C41.6,26.5,39.7,26.8,37.7,26.8z M49.7,41.6v-3
			l1.9,2.1c1.8,1.8,4.1,2.7,6.6,2.7s4.8-1,6.6-2.7l3.3-3.3c1.8-1.8,2.7-4.1,2.7-6.6s-1-4.7-2.8-6.5l-2.1-2h3c5.2,0,9.8-4.5,9.8-9.7
			V7.9c0-5.2-4.6-9.7-9.8-9.7h-3L68-3.7c3.7-3.7,3.7-9.5,0-13.2l-3.3-3.3c-1.8-1.8-4.1-2.7-6.6-2.7s-4.7,1-6.5,2.8l-1.9,2.2v-2.9
			c0-5.2-4.5-9.8-9.7-9.8h-4.7c-5.2,0-9.7,4.6-9.7,9.8v3l-1.9-2.1c-1.8-1.8-4.1-2.7-6.6-2.7s-4.8,1-6.6,2.7l-3.3,3.3
			c-3.7,3.7-3.6,9.5,0,13.1l2.1,1.9h-3c-5,0-9.6,4.5-9.6,9.7v4.7c0,5.2,4.6,9.7,9.8,9.7h3l-2.1,1.9c-3.7,3.7-3.7,9.5,0,13.2l3.3,3.3
			c1.8,1.8,4.1,2.7,6.6,2.7s4.7-1,6.5-2.8l1.9-2.1v3c0,5.2,4.5,9.8,9.7,9.8h4.7C45.2,51.4,49.7,46.8,49.7,41.6z M22.6,33.3l-3.1,3.1
			c-0.6,0.6-1.4,0.9-2.2,0.9c-0.8,0-1.6-0.3-2.2-0.9L11.7,33c-1.2-1.2-1.2-3.2,0-4.4l3.1-3.1c1.6-1.6,2.1-4.3,1.2-6.4
			c-0.9-2.1-2.9-3.7-5.2-3.7H6.4c-1.7,0-2.7-0.9-2.7-2.7V8c0-1.7,1-2.7,2.8-2.7h4.4c2.3,0,4.3-1.6,5.2-3.8V1.4
			c0.9-2.1,0.4-4.6-1.2-6.2l-3.2-3c-1.2-1.2-1.2-3.2,0-4.4l3.3-3.3c0.6-0.6,1.4-0.9,2.2-0.9s1.6,0.3,2.2,0.9l2.8,2.8
			c1.2,1.2,2.7,1.8,4.4,1.8c0.8,0,1.6-0.2,2.3-0.4l0,0h0.2c1.9-0.8,3.4-2.6,3.4-4.7v-4.8c0-1.7,0.9-2.8,2.7-2.8h4.7
			c1.7,0,2.7,1,2.7,2.8v4.4c0,2.3,1.6,4.3,3.8,5.2c0.7,0.3,1.5,0.4,2.3,0.4c1.5,0,3-0.6,4-1.6l3.1-3.1c0.6-0.6,1.4-0.9,2.2-0.9
			s1.6,0.3,2.2,0.9l3.3,3.3c1.2,1.2,1.2,3.2,0,4.4l-3.1,3.1c-1.6,1.6-2.1,4.3-1.2,6.4c0.9,2.1,2.9,3.7,5.2,3.7h4.4
			c1.7,0,2.8,0.9,2.8,2.7v4.7c0,1.7-1,2.7-2.8,2.7h-4.4c-2.3,0-4.3,1.6-5.2,3.7v0.1v0.1c-0.9,2.1-0.4,4.5,1.2,6.2l3.1,3.1
			c1.2,1.2,1.2,3.2,0,4.4l-3.2,3.3c-0.6,0.6-1.4,0.9-2.2,0.9s-1.6-0.3-2.2-0.9l-3.1-3.1c-1.1-1.1-2.5-1.6-4-1.6
			c-0.7,0-1.4,0.1-2.1,0.4h-0.3c-2.1,0.9-3.7,2.9-3.7,5.2v4.4c0,1.7-0.9,2.8-2.7,2.8h-4.7c-1.7,0-2.7-1-2.7-2.8v-4.4
			c0-2.3-1.6-4.3-3.8-5.2c-0.7-0.3-1.5-0.4-2.3-0.4C25.2,31.6,23.6,32.2,22.6,33.3z"/>
	</g>
	<g class="st0">
		<path class="st1" d="M65.8,35.4c-0.8,0-1.6-0.3-2.2-0.9L52,22.9H25.2c-5.2,0-9.4-4.2-9.4-9.4v-28.1c0-5.2,4.2-9.4,9.4-9.4H69
			c5.2,0,9.4,4.2,9.4,9.4v28.1c0,5.2-4.2,9.4-9.4,9.4h-0.8c-1.7,0-3.1-1.4-3.1-3.1s1.4-3.1,3.1-3.1H69c1.7,0,3.1-1.4,3.1-3.1v-28.2
			c0-1.7-1.4-3.1-3.1-3.1H25.2c-1.7,0-3.1,1.4-3.1,3.1v28.1c0,1.7,1.4,3.1,3.1,3.1h28.1c0.8,0,1.6,0.3,2.2,0.9L68,30
			c1.2,1.2,1.2,3.2,0,4.4C67.4,35.1,66.6,35.4,65.8,35.4z M12.7,32.3c0-1.7-1.4-3.1-3.1-3.1H6.5c-1.7,0-3.1-1.4-3.1-3.1V-1.3
			c0-1.7,1.4-3.1,3.1-3.1h3.1c1.7,0,3.1-1.4,3.1-3.1s-1.4-3.1-3.1-3.1H6.5c-5.2,0-9.4,4.2-9.4,9.4v27.3c0,5.2,4.2,9.4,9.4,9.4h3.1
			C11.3,35.4,12.7,34,12.7,32.3z M14.9,47l11.6-11.6h23.7c1.7,0,3.1-1.4,3.1-3.1s-1.4-3.1-3.1-3.1h-25c-0.8,0-1.6,0.3-2.2,0.9
			L10.5,42.6c-1.2,1.2-1.2,3.2,0,4.4c0.6,0.6,1.4,0.9,2.2,0.9S14.3,47.6,14.9,47z"/>
	</g>
	<g class="st0">
		<path class="st1" d="M40.8,51c-1,0-2-0.5-2.9-1.7c-0.2-0.3-0.2-0.6-0.2-0.9V25.1c0-0.4,0.2-0.8,0.5-1.1c2.7-2.4,5.8-0.6,5.8,2v3.9
			c0,0.8,1.1,1.1,1.5,0.3C52.3,15.2,62.3-6.6,68-19c0.3-0.7-0.4-1.3-1-1L16.6,2.7c-0.8,0.3-0.5,1.5,0.3,1.5h20.8
			c3.5,0,6.2,2.8,6.2,6.4v3.9c0,0.4-0.2,0.8-0.5,1.1c-2.7,2.4-5.8,0.6-5.8-2V12c0-0.9-0.7-1.6-1.6-1.6H-2.2c-0.3,0-0.6-0.1-0.8-0.2
			c-2.4-1.8-1.7-4.8,0.4-5.8L73.9-30c1.9-0.9,4.3,0.3,4.5,3c0,0.2,0,0.4-0.1,0.6C66.7-1.1,44.2,47.9,43.7,49.1
			C43.2,50.3,42,51,40.8,51z"/>
	</g>
	<g class="st0">
		<path class="st1" d="M71.9,17.2c-5.9,5.9-18.3,15.9-35,15.9c-17.1,0-29.7-10.4-35.7-16.6C0,15.3,0,13.3,1.3,12.1
			c1.2-1.2,3.2-1.2,4.4,0.1c5.3,5.5,16.4,14.7,31.2,14.7c14.5,0,25.4-8.8,30.6-14c1.2-1.2,3.2-1.2,4.4,0C73.2,14,73.2,16,71.9,17.2z
			 M70.3,6.2c-1.2,0.6-2.6,0.4-3.6-0.6C63.5,2.5,59.2-0.9,54-3.5c-0.5-0.3-1.1,0.3-0.9,0.8c0.7,1.9,1.1,3.9,1.1,6
			c0,10.7-9.8,19.1-20.9,16.8c-6.5-1.4-11.7-6.5-13.1-13c-0.7-3.5-0.4-6.8,0.7-9.8c0.2-0.6-0.4-1.1-0.9-0.8
			c-5.3,2.6-9.6,6.1-12.8,9.2C6.6,6.3,5.8,6.6,5,6.6c-1.2,0-2.4-0.7-3-2.1C1.5,3.3,1.9,2,2.8,1.2C9.9-5.7,21.6-13.9,37-13.9
			c15.3,0,27,8.1,34.1,14.9C72.5,2.5,72.3,5.1,70.3,6.2z M47.6,5.4c1-2.7-1.5-5.1-4.1-4.1c-0.8,0.3-1.4,0.9-1.7,1.7
			c-1,2.7,1.5,5.1,4.1,4.1C46.7,6.7,47.3,6.1,47.6,5.4z"/>
	</g>
	<g class="st0">
		<path class="st1" d="M62.7,26c-3.5,0-6.6,1.4-8.9,3.7L24.9,13.1c0.2-0.9,0.3-1.8,0.3-2.7c0-1.3-0.2-2.6-0.6-3.7l29-15.8
			c2.3,2.4,5.5,4,9.1,4c6.9,0,12.5-5.6,12.5-12.5s-5.6-12.6-12.5-12.6s-12.5,5.6-12.5,12.5c0,1.1,0.1,2.1,0.4,3.1l-29.3,16
			c-2.2-2.1-5.3-3.5-8.6-3.5C5.8-2.1,0.2,3.5,0.2,10.4s5.6,12.5,12.5,12.5c3.7,0,7.1-1.7,9.4-4.3l28.6,16.6
			c-0.3,1.1-0.5,2.2-0.5,3.3c0,6.9,5.6,12.5,12.5,12.5s12.5-5.6,12.5-12.5S69.6,26,62.7,26z M62.7-24c3.4,0,6.2,2.8,6.2,6.2
			s-2.8,6.2-6.2,6.2c-2.4,0-4.4-1.3-5.5-3.3l0,0c-0.5-0.9-0.8-1.9-0.8-3C56.5-21.2,59.3-24,62.7-24z M12.7,16.6
			c-3.4,0-6.2-2.8-6.2-6.2s2.8-6.2,6.2-6.2s6.2,2.8,6.2,6.2S16.1,16.6,12.7,16.6z M62.7,44.8c-3.4,0-6.2-2.8-6.2-6.2
			s2.8-6.2,6.2-6.2c3.4,0,6.2,2.8,6.2,6.2S66.1,44.8,62.7,44.8z"/>
	</g>
	<g class="st0">
		<path class="st1" d="M24.6-13.7c-1.3-1.2-1.3-3.4,0-4.6l10.9-10.9c1.2-1.2,3.2-1.2,4.4,0l10.9,10.9c1.3,1.3,1.3,3.4,0,4.6
			c-0.6,0.5-1.3,0.8-2.1,0.8s-1.7-0.3-2.3-0.9l-5.7-5.8v39.3c0,1.7-1.3,3.1-3,3.1s-3-1.4-3-3.1v-39.3l-5.8,5.7
			c-0.6,0.6-1.4,0.9-2.2,0.9C25.9-12.9,25.1-13.2,24.6-13.7z M62.7-9.6h-10c-1.6,0-3.1,1.1-3.2,2.7c-0.2,1.9,1.2,3.3,3,3.3h8.6
			c0.9,0,1.6,0.6,1.6,1.5v45.3c0,0.9-0.7,1.2-1.6,1.2H14.3c-0.9,0-1.6-0.3-1.6-1.2V-2.1c0-0.9,0.7-1.5,1.6-1.5h8.4
			c1.6,0,3.1-1.1,3.2-2.7c0.2-1.9-1.3-3.3-3.1-3.3H12.7c-3.5,0-6,2.5-6,5.9v48.4c0,3.5,2.5,6.6,6,6.6h50c3.5,0,6-3.2,6-6.6V-3.7
			C68.7-7.1,66.2-9.6,62.7-9.6z"/>
	</g>
	<g class="st0">
		<path class="st1" d="M37.7,1c-1.7,0-3-1.4-3-3.1v-25c0-1.7,1.3-3.1,3-3.1s3,1.4,3,3.1v25C40.7-0.4,39.4,1,37.7,1z M73.6,15.1
			c0-14.8-8.7-27.9-22.3-33.4c-1.6-0.6-3.4,0.1-4.1,1.7c-0.6,1.6,0.1,3.4,1.7,4.1C60-8,67.3,2.8,67.3,15.1
			c0,16.4-13.3,29.7-29.7,29.7S8,31.5,8,15.1C8,3,15.2-7.8,26.5-12.4c1.6-0.7,2.4-2.5,1.7-4.1c-0.7-1.6-2.5-2.4-4.1-1.7
			C10.5-12.6,1.8,0.4,1.8,15.1C1.8,34.9,17.9,51,37.7,51S73.6,34.9,73.6,15.1z"/>
	</g>
	<g class="st0">
		<path class="st1" d="M65.6-13.3l9.9-9.9c1.2-1.2,1.3-3,0.3-4.3c-1.2-1.4-3.3-1.5-4.6-0.2l-10,10l-21.4-1.9c-1.8-0.2-3.7,0.5-5,1.8
			L0.5,16.4c-2.4,2.4-2.4,6.4,0,8.8l22.1,22.2c2.4,2.4,6.4,2.4,8.8,0l34.3-34.3c1.3-1.3,2-3.1,1.8-5L65.6-13.3z M46.9,1
			c1.2,1.2,1.2,3.2,0,4.4s-3.2,1.2-4.4,0s-1.2-3.2,0-4.4S45.7-0.2,46.9,1z M25.9,41.9L6,22c-0.6-0.6-0.6-1.6,0-2.2l32.7-32.7
			c0.3-0.3,0.8-0.5,1.2-0.5l12.2,1.1c1.3,0.1,1.9,1.7,1,2.7l-4.4,4.3c-3.6-1.7-8.2-1-11,2.2C34.5,0.4,34.6,6,37.8,9.5
			c3.6,3.9,9.8,4,13.5,0.3c2.9-2.9,3.5-7.2,1.8-10.7l4.4-4.4c0.9-0.9,2.5-0.4,2.7,1l1.1,12.2c0,0.5-0.1,0.9-0.5,1.2L28.1,41.9
			C27.5,42.5,26.5,42.5,25.9,41.9z M27,29.7c-1.2,1.2-3.2,1.2-4.4,0l-4.4-4.4c-1.2-1.2-1.2-3.2,0-4.4s3.2-1.2,4.4,0l4.4,4.4
			C28.2,26.5,28.2,28.5,27,29.7z M40.2,20.9c1.2,1.2,1.2,3.2,0,4.4c-1.2,1.2-3.2,1.2-4.4,0L22.6,12c-1.2-1.2-1.2-3.2,0-4.4
			s3.2-1.2,4.4,0L40.2,20.9z"/>
	</g>
	<g class="st0">
		<path class="st1" d="M37.7,44.5c-18.9,0-34.3-15.4-34.3-34.2s15.4-34.2,34.3-34.2S72-8.5,72,10.3c0,6.8-2,13.3-5.8,19
			c-0.9,1.4-2.8,1.8-4.2,0.8c-1.4-0.9-1.8-2.8-0.8-4.2c3.1-4.6,4.7-10,4.7-15.6c0-15.5-12.7-28.1-28.2-28.1S9.5-5.2,9.5,10.3
			s12.6,28.2,28.2,28.2c5.5,0,10.9-1.6,15.5-4.6c1.4-0.9,3.3-0.5,4.2,0.9s0.5,3.3-0.9,4.2C50.9,42.6,44.4,44.5,37.7,44.5z M53.4,8.6
			L40.2-4.6c-0.7-0.7-1.7-1-2.6-0.9c-0.9-0.1-1.9,0.2-2.6,0.9L21.8,8.6c-1.1,1.1-1.3,2.8-0.5,4c1.1,1.7,3.4,1.8,4.8,0.5L33.3,6
			c0.5-0.5,1.4-0.1,1.4,0.6v17.8c0,1.4,0.7,2.7,2,3.1c2.1,0.7,4-0.9,4-3V6.8c0-0.7,0.9-1,1.4-0.6l6.9,6.9c1.4,1.4,3.7,1.2,4.8-0.5
			C54.7,11.4,54.4,9.7,53.4,8.6z"/>
	</g>
	<g class="st0">
		<g class="st1">
			<path d="M65.8-5.2H9.6C6.1-5.2,3.4-2.4,3.4,1v43.8c0,3.5,2.8,6.2,6.2,6.2h56.2c3.5,0,6.2-2.8,6.2-6.2V1
				C72.1-2.4,69.3-5.2,65.8-5.2z M64.3,44.8H11.1c-0.9,0-1.6-0.7-1.6-1.6V2.6c0-0.9,0.7-1.6,1.6-1.6h3.1c0.9,0,1.6,0.7,1.6,1.6v32.7
				c0,1.6,1.2,3.1,2.8,3.2c1.9,0.2,3.4-1.3,3.4-3.1V2.6C22,1.7,22.7,1,23.6,1h40.6c0.9,0,1.6,0.7,1.6,1.6v40.6
				C65.8,44.1,65.1,44.8,64.3,44.8z"/>
			<path d="M22.1-14.6c0-4.6,3.3-8.4,7.6-9.2c0.7-0.1,1.2,0.6,0.8,1.2c-1.4,2.3-2.2,5.1-2.2,8v3.1c0,1.7,1.4,3.1,3.1,3.1l0,0
				c1.7,0,3.1-1.4,3.1-3.1v-3.1c0-2.1,0.7-4,1.9-5.6c0.6-0.8,1.9-0.8,2.5,0c1.2,1.6,1.9,3.5,1.9,5.6v3.1c0,1.7,1.4,3.1,3.1,3.1l0,0
				c1.7,0,3.1-1.4,3.1-3.1v-3.1c0-2.9-0.8-5.7-2.2-8c0.5-0.8,0.3-0.4,0.8-1.2c4.3,0.8,7.6,4.6,7.6,9.2v3.1c0,1.7,1.4,3.1,3.1,3.1
				l0,0c1.7,0,3.1-1.4,3.1-3.1v-2.7c0-8.2-6.1-15.3-14.2-16c-2.7-0.3-5.4,0.2-7.7,1.2l0,0c-2.3-1-4.9-1.5-7.7-1.2
				c-8.1,0.7-14.2,7.8-14.2,16v2.7c0,1.7,1.4,3.1,3.1,3.1l0,0c1.7,0,3.1-1.4,3.1-3.1v-3.1C21.8-14.6,22.1-14.6,22.1-14.6z"/>
		</g>
	</g>
	<g class="st0">
		<path class="st1" d="M59.6,4.2v40.6c0,3.5-2.8,6.2-6.2,6.2H21.5c-3.1,0-5.7-2.5-5.7-5.7V4.2c0-2.3,2.5-4,5-2.6
			c0.8,0.5,1.3,1.4,1.3,2.3v39.4c0,0.9,0.7,1.6,1.6,1.6h28.1c0.9,0,1.6-0.7,1.6-1.6V3.9c0-0.9,0.5-1.8,1.3-2.3
			C57.1,0.1,59.6,1.8,59.6,4.2z M43.9,32.3H31.5c-1.7,0-3.1,1.4-3.1,3.1s1.4,3.1,3.1,3.1H44c1.7,0,3.1-1.4,3.1-3.1
			S45.7,32.3,43.9,32.3z M43.9,19.8H31.5c-1.7,0-3.1,1.4-3.1,3.1s1.4,3.1,3.1,3.1H44c1.7,0,3.1-1.4,3.1-3.1S45.7,19.8,43.9,19.8z
			 M43.9,7.3H31.5c-1.7,0-3.1,1.4-3.1,3.1s1.4,3.1,3.1,3.1H44c1.7,0,3.1-1.4,3.1-3.1S45.7,7.3,43.9,7.3z M15.8-5.2
			c0-1.7,1.4-3.1,3.1-3.1c0-5.8,4-10.7,9.4-12.1v-3.5c0-5.2,4.2-9.4,9.4-9.4s9.4,4.2,9.4,9.4v3.5c5.4,1.4,9.4,6.3,9.4,12.1
			c1.7,0,3.1,1.4,3.1,3.1s-1.4,3.1-3.1,3.1H18.9C17.2-2.1,15.8-3.5,15.8-5.2z M25.2-8.4h25c0-3.4-2.8-6.2-6.2-6.3l0,0
			c-1.7,0-3.1-1.4-3.1-3.1V-24c0-1.8-1.6-3.3-3.4-3.1c-1.6,0.2-2.8,1.6-2.8,3.2v6.1c0,1.7-1.4,3.1-3.1,3.1l0,0
			C28-14.6,25.2-11.8,25.2-8.4z"/>
	</g>
	<g class="st0">
		<path class="st1" d="M37.7,44.5c-18.9,0-34.3-15.4-34.3-34.2s15.4-34.2,34.3-34.2S72-8.5,72,10.3c0,6.8-2,13.3-5.8,19
			c-0.9,1.4-2.8,1.8-4.2,0.8c-1.4-0.9-1.8-2.8-0.8-4.2c3.1-4.6,4.7-10,4.7-15.6c0-15.5-12.7-28.1-28.2-28.1S9.5-5.2,9.5,10.3
			s12.6,28.2,28.2,28.2c5.5,0,10.9-1.6,15.5-4.6c1.4-0.9,3.3-0.5,4.2,0.9s0.5,3.3-0.9,4.2C50.9,42.6,44.4,44.5,37.7,44.5z M53.8,8.2
			c-1.1-1.7-3.4-1.8-4.8-0.5l-6.9,6.9c-0.5,0.5-1.4,0.1-1.4-0.6V-3.7c0-2-1.8-3.6-4-3c-1.3,0.4-2,1.7-2,3.1v17.8
			c0,0.7-0.9,1-1.4,0.6l-7.1-7.1c-1.4-1.4-3.7-1.2-4.8,0.5c-0.9,1.3-0.6,3,0.5,4L35,25.4c0.7,0.7,1.7,1,2.6,0.9
			c0.9,0.1,1.9-0.2,2.6-0.9l13.2-13.2C54.4,11.1,54.7,9.4,53.8,8.2z"/>
	</g>
	<g class="st0">
		<path class="st1" d="M28.3,38.5c0,3.5-2.8,6.2-6.2,6.2s-6.2-2.8-6.2-6.2s2.8-6.2,6.2-6.2S28.3,35.1,28.3,38.5z M59.6,32.3
			c-3.5,0-6.2,2.8-6.2,6.2s2.8,6.2,6.2,6.2s6.2-2.8,6.2-6.2S63,32.3,59.6,32.3z M25.3-11.6c-1.6,0-3.3,1-3.3,3c0,2.1,1.3,3,3.1,3h44
			c1,0,1.8,1.1,1.5,2.1l-4.1,16.4c-0.1,0.6-0.6,1.1-1.2,1.2l-39.7,8c-0.8,0.2-1.6-0.3-1.8-1.1L12.6-18.5c-0.4-1.3-1.6-2.1-3-2.1H0.4
			c-1.6,0-3.1,1.1-3.2,2.7C-3-16-1.5-14.6,0.3-14.6h5.8c0.7,0,1.3,0.5,1.5,1.1l10.7,37.8c0.9,3.2,4.1,5.1,7.3,4.4l42.1-8.6
			c2.4-0.5,4.3-2.3,4.8-4.6l5.2-21.2c0.7-3-1.5-5.9-4.6-5.9C73.1-11.6,25.3-11.6,25.3-11.6z"/>
	</g>
	<g class="st0">
		<path class="st1" d="M43.9-2.1c0,3.5-2.8,6.2-6.2,6.2s-6.2-2.8-6.2-6.2s2.8-6.2,6.2-6.2S43.9-5.6,43.9-2.1z M39.8,56.5
			c0.6-0.5,2.3-2,3.5-2.8l0.4-0.3c2.2-1.5,6.4-4.2,6.4-11.7l0,0c0-1.7-1.4-3.1-3.1-3.1l0,0c-1.7,0-3.1,1.4-3.1,3.1l0,0
			c0,4.1-1.7,5.2-3.6,6.5l-0.4,0.2c-0.7,0.5-1.5,1.1-2.2,1.6c-0.7-0.6-1.5-1.1-2.2-1.6l-0.4-0.2c-2.2-1.4-3.7-2.3-3.7-6.5l0,0
			c0-1.7-1.4-3.1-3.1-3.1l0,0c-1.7,0-3.1,1.4-3.1,3.1l0,0c0,7.6,4,10.1,6.6,11.8l0.3,0.2c1.6,1,3.4,2.7,3.4,2.8l2.1,2L39.8,56.5z
			 M69.7,32.3c0,3-0.9,5.9-2.5,8.5c-0.5,0.8-1.4,1.3-2.4,1.4c-0.1,0-0.1,0-0.2,0c-0.9,0-1.8-0.4-2.4-1.1c-3.6-4.2-7.1-5.7-12.8-5.7
			c-0.2,0-0.4,0-0.6-0.1v0.1h-8v3.1c0,1.7-1.3,3.1-3,3.1s-3-1.4-3-3.1v-3.1h-6.4c-5.7,0-9.2,1.5-12.8,5.7c-0.6,0.7-1.5,1.1-2.4,1.1
			c-0.1,0-0.1,0-0.2,0c-1-0.1-1.9-0.6-2.4-1.4c-1.6-2.5-2.5-5.5-2.5-8.5c0-7.3,5-13.4,11.8-15.1c-0.5-3-0.8-6.3-0.8-9.9
			c0-15.5,9.7-37.5,18.8-37.5c5.9,0,10.7,8.3,13,13.2c3.6,7.7,5.8,16.8,5.8,24.3c0,3.5-0.3,6.6-0.7,9.5
			C63.6,17.5,69.7,24.2,69.7,32.3z M23.4,29.6c-0.6-1.3-1.2-2.9-1.8-4.7c-0.3-0.9-1.3-1.4-2.2-0.9c-3.1,1.5-5.2,4.7-5.2,8.4
			c0,0.4,0,0.9,0.1,1.3C17,31.5,20,30.2,23.4,29.6z M45.3,29.4c1.6-3,4.9-10.9,4.9-22c0-6.6-1.9-14.8-5.2-21.7
			c-3.4-7.3-6.6-9.7-7.3-9.7C35-24,25.2-7.5,25.2,7.2c0,4.1,0.5,7.8,1.2,11c0.3,0.5,0.4,1,0.4,1.5c0,0.1,0,0.2,0,0.3
			c1.1,4.4,2.5,7.3,3.4,9.3h4.5v-9.6c0-1.7,1.3-3.1,3-3.1s3,1.4,3,3.1v9.7C40.7,29.4,45.3,29.4,45.3,29.4z M63.5,32.3
			c0-4.6-3.3-8.4-7.7-9.2C55,23,54.2,23.4,54,24.2c-0.6,2-1.3,3.7-1.9,5.1c4.4,0.4,8,1.7,11.3,4.3C63.5,33.1,63.5,32.7,63.5,32.3z"
			/>
	</g>
	<g class="st0">
		<path class="st1" d="M37.7-30.2C15.3-30.2-2.9-12-2.9,10.4S15.3,51,37.7,51s40.6-18.2,40.6-40.6S60.1-30.2,37.7-30.2z M66.5-8.4
			c-0.6,0-1.3,0-1.9,0c-0.7,0-1.3,0-1.8,0c-1.6,0-2.6-0.3-3.1-0.5c0.1-3.2,0.6-4.7,1.5-5.9C63.1-12.9,64.9-10.7,66.5-8.4z
			 M28.7-22.8c0,0,1.2,2.1,1.5,2.3c0.2,0.1,0.4,0.4,0.4,0.6c0,0.1,0,0.1,0,0.2c0,0.8,0,3,2.1,4.5c1.1,0.8,2.4,0.9,3.6,0.9
			c0.3,0,0.9,0.1,1.3,0.1c-0.1,1.9-0.6,2.7-1.3,3.7c-0.8,1.1-1.8,2.6-1.8,5.1c-0.9,0.1-2.5,0.1-3.1,0.1C27.6-5.3,22-2,22,4.1
			c0,6.5,4.7,9.4,9.4,9.4c1.4,0,3.7,0.8,4.9,1.7c0.6,0.5,1.4,1,1.4,4.6c0,1.7,0,2.6-5.2,7c-3.5,3-6.7,7.7-9.1,11.7
			c-2.1-3.4-4.5-9.9-4.5-12.5c0-3.1,0.7-4.3,1.6-5.7c0.5-0.8,1-1.6,1.4-2.7c1.4-4.2,0-8.7-3.9-12.6c-0.7-0.7-1.5-1.4-2.2-2
			c-2.2-1.8-3.1-2.6-3.1-5.1c0,0-0.6-5.8-0.8-8.6C11.8-12,12.7-13,12.7-13S21.7-20.9,28.7-22.8z M3.5,10.4c0-5.1,1.2-9.9,3.2-14.3
			v1.8c0,5.5,2.9,8,5.3,10c0.6,0.5,1.2,1,1.7,1.6c2.2,2.2,3,4.3,2.3,6.2c-0.1,0.4-0.4,0.8-0.8,1.4c-1.1,1.7-2.5,4.1-2.5,9
			c0,1.7,1.1,6.2,2.9,10.6C8.2,30.4,3.5,20.9,3.5,10.4z M27.5,43.2c2.2-3.7,5.8-8.9,9.1-11.7c5.4-4.6,7.3-7.1,7.3-11.8
			c0-4.8-1.1-7.5-3.9-9.6c-2.2-1.7-5.9-2.9-8.6-2.9c-3.1,0-3.1-2.2-3.1-3.1c0-2.2,2.4-3.1,3.1-3.1c3.5,0,6-0.1,7.8-2
			c1.1-1.1,1.6-2.5,1.6-4.3c0-0.5,0.1-0.7,0.7-1.6c1-1.4,2.4-3.5,2.4-7.7c0-5.3-5.2-5.7-7.1-5.9v-0.1c-0.2-1.2-0.6-2.3-1.3-3.3
			c0.7,0,1.4-0.1,2.2-0.1c6.8,0,13.1,2,18.4,5.4c-2.4,3.1-2.8,6.8-2.8,10.2c0,3.8,3.7,6.2,9.4,6.2c0.5,0,1.2,0,1.9,0
			c1.5,0,3.1,0,4.2,0h0.1c0.2,0,0.5,0,0.7-0.1c0.4,1,0.8,2.1,1.1,3.2C64,1,50.1,1.7,50.1,13.4c0,7.4,4,9.8,6.4,11.2
			c0.4,0.3,0.8,0.5,1.2,0.7c0.6,0.4,1.5,2.3,1.8,10.2c0,0.5,0,0.9,0,1.3c-5.9,4.9-13.6,7.9-21.9,7.9C33.1,44.8,27.5,43.2,27.5,43.2z
			 M65.5,30.6c-0.4-4.4-1.4-8.3-4.1-10.2c-0.5-0.4-1.1-0.7-1.6-1c-2.1-1.2-3.3-2-3.3-5.8c0-3.2,1.9-6.2,15.5-6.2
			c0.1,1,0.1,2.1,0.1,3.1C72.1,17.9,69.6,24.9,65.5,30.6z"/>
	</g>
	<g class="st0">
		<path class="st1" d="M37.7-30.2C15.3-30.2-2.9-12-2.9,10.4S15.3,51,37.7,51s40.6-18.2,40.6-40.6S60.1-30.2,37.7-30.2z M72.1,10.4
			c0,1.1-0.1,2.1-0.1,3.1c-1.9,0-2.7-1-4.2-3.5s-3.5-5.8-8.2-5.8c-1.8,0-3.2,0.5-4.3,1.6c-1.8,1.8-1.7,4.3-1.7,6.5
			c0,1.3,0,2.5-0.2,3.7c-1.6,7-4.5,15.4-6.4,18.6l0,0c-0.3-0.9-0.5-1.8-0.7-2.7c-1.3-5-2.9-10.6-7.7-12c-2-0.5-4-1.7-4-6.3
			c0-5.1,1.7-6.2,9.4-6.2h1.6c4.3,0,7.8-3.7,7.8-8s-3.5-8-7.8-8H44c-1.6,0-2.6-0.2-3.1-0.4c0-1,0-1.8,0.1-2.3
			c0.2-0.1,0.5-0.2,1.1-0.4l0.2-0.1c0.3-0.1,6.5-3.3,7.8-9.9C62.9-16.8,72.1-4.2,72.1,10.4z M14.5-14.9c0.5,0.3,0.9,0.5,1.2,0.6
			c0,0,0.1,0,0.1,0.1c-0.1,2-0.6,2.8-1.3,3.8c-0.8,1.1-1.8,2.6-1.8,5.1c-0.9,0.1-2.5,0.1-3.1,0.1C8.7-5.2,7.8-5,6.9-4.7
			C8.7-8.6,11.3-12,14.5-14.9z M8.6,28.7c-3.2-5-5.1-11-5.3-17.3c1.7,1.4,4,2.1,6.2,2.1c1.4,0,3.7,0.8,4.9,1.7
			c0.6,0.5,1.4,1,1.4,4.6c0,1.7,0,2.6-5.2,7C10,27.3,9.3,28,8.6,28.7z M37.7,44.8c-9.9,0-18.9-4.2-25.2-11c0.8-0.9,1.5-1.6,2.2-2.2
			C20.1,27,22,24.5,22,19.8c0-4.8-1.1-7.5-3.9-9.6c-2.2-1.7-5.9-2.9-8.6-2.9c-3.1,0-3.1-2.2-3.1-3.1c0-2.2,2.4-3.1,3.1-3.1
			c3.5,0,6-0.1,7.8-2c1.1-1.1,1.6-2.5,1.6-4.3c0-0.5,0.1-0.7,0.7-1.6c1-1.4,2.4-3.5,2.4-7.7c0-2.3-1-3.6-2.1-4.4
			c5.2-3.1,11.2-4.9,17.7-4.9c2.1,0,4.2,0.2,6.2,0.6c-0.3,3.6-3.8,5.6-4.4,6c-4.6,1.8-4.9,4-4.9,9.3c0,3.8,3.7,6.5,9.4,6.5h1.6
			c0.9,0,1.6,0.6,1.6,1.5s-0.7,1.3-1.6,1.3h-1.6c-5.5,0-15.6-0.2-15.6,12.3c0,3.7,1.1,10.2,8.5,12.3c1.4,0.4,2.5,4.7,3.3,7.5
			c0.3,0.9,0.5,1.9,0.8,2.8c1.4,4.8,4.8,5.4,6.1,5.4c3.1,0,5.4-2.9,8.2-10.3c1.8-4.8,3.5-10.5,4.2-14c0.4-1.9,0.4-3.7,0.4-5.1
			c0-0.5,0-1.3,0-1.8c0.8,0.1,1.3,0.7,2.5,2.8c1.4,2.4,3.6,6,8.4,6.5C66.7,34.1,53.4,44.8,37.7,44.8z"/>
	</g>
	<g class="st0">
		<path class="st1" d="M78.3-5.2c0-2.4-1.1-3.8-2-4.6c-2-1.8-5.3-2.3-10.9-1.6c-1.7,0.2-2.9,1.8-2.7,3.5s1.8,2.9,3.5,2.7
			c3.8-0.5,5.6-0.5,5.8,0c-0.4,1.1-3.3,3.6-7.7,6.5c-3.8-11-14.3-19-26.6-19c-14.1,0-25.8,10.4-27.8,24C9.7,6.4,9.6,6.4,9.4,6.5
			C-1.1,12.7-5.5,17.9-3.8,22.4C-2.7,25.5,0.8,27,6.8,27c1.9,0,4-0.1,6.3-0.4c0.5-0.1,1-0.1,1.5-0.2c5.1,7.3,13.5,12.2,23.1,12.2
			c15.5,0,28.1-12.6,28.1-28.1c0-0.9,0-1.8-0.1-2.6C73.2,3.1,78.3-1.6,78.3-5.2z M17.3,3c0.5-1.2,1.6-2,2.9-2h23.6
			c1.6,0,3.1-1.2,3.2-2.8c0.2-1.9-1.3-3.4-3.1-3.4H24.5c-0.7,0-1.1-0.9-0.5-1.4c3.8-3,8.5-4.9,13.7-4.9c10.1,0,18.5,6.8,21.1,16.1
			c-1.6,0.9-3.3,1.8-5.1,2.7H22.2c-1.6,0-3.1,1.2-3.2,2.8c-0.2,1.9,1.3,3.4,3.1,3.4h16.8c-8.2,3-15.3,4.9-21.1,6
			c-1.3-2.8-2-5.8-2-9.1C15.8,7.8,16.4,5.3,17.3,3z M2.2,20.2c0.4-1,2.3-3.2,7.5-6.6c0.3,2.4,0.8,4.7,1.7,6.8
			C6.6,21,3.4,20.8,2.2,20.2z M37.7,32.3c-2.9,0-5.7-0.6-8.2-1.6c-0.8-0.3-0.6-1.5,0.3-1.5h14.1c1.6,0,3.1-1.2,3.2-2.8
			c0.2-1.9-1.3-3.4-3.1-3.4H30.2c3.8-1.1,7.7-2.3,11.6-3.8c4.5-1.6,9-3.5,13.3-5.6h3.3c0.5,0,0.9,0.4,0.8,0.9
			C57.3,24.6,48.4,32.3,37.7,32.3z"/>
	</g>
	<g class="st0">
		<path class="st1" d="M34.6,29.2V15.1c0-0.9-0.7-1.6-1.6-1.6H18.9c-1.8,0-3.3-1.6-3.1-3.4C16,8.5,17.4,7.3,19,7.3h13.9
			c0.9,0,1.6-0.7,1.6-1.6V-8.4c0-1.8,1.6-3.3,3.4-3.1c1.6,0.2,2.8,1.6,2.8,3.2V5.6c0,0.9,0.7,1.6,1.6,1.6h14.1
			c1.8,0,3.3,1.6,3.1,3.4c-0.2,1.6-1.6,2.8-3.2,2.8H42.4c-0.9,0-1.6,0.7-1.6,1.6v13.9c0,1.6-1.2,3.1-2.8,3.2
			C36.1,32.4,34.6,31,34.6,29.2z M37.7-30.2C15.3-30.2-2.9-12-2.9,10.4S15.3,51,37.7,51c10.2,0,20-3.8,27.6-10.8
			c1.3-1.2,1.3-3.1,0.2-4.4c-1.2-1.3-3.1-1.3-4.4-0.2c-6.4,5.9-14.7,9.2-23.3,9.2c-19.1,0-34.5-15.4-34.5-34.4S18.7-24,37.7-24
			S72.1-8.6,72.1,10.4c0,5.7-1.4,11.4-4.2,16.4c-0.8,1.5-0.3,3.4,1.2,4.2c1.5,0.8,3.4,0.3,4.2-1.2c3.2-5.9,4.9-12.6,4.9-19.4
			C78.3-12,60.1-30.2,37.7-30.2z"/>
	</g>
	<g class="st0">
		<path class="st1" d="M68.8,7.3h-51c-1.4,0-2.1-1.7-1.1-2.7L24.3-3c1.2-1.2,1.2-3.2,0-4.4s-3.2-1.2-4.4,0L4.2,8.2
			C3,9.4,3,11.4,4.2,12.6l15.5,15.5c0.6,0.6,1.4,0.9,2.2,0.9s1.6-0.3,2.2-0.9c1.2-1.2,1.2-3.2,0-4.4l-7.4-7.5c-1-1-0.3-2.7,1.1-2.7
			H69c1.8,0,3.3-1.6,3.1-3.4C71.9,8.5,70.4,7.3,68.8,7.3z"/>
	</g>
	<g class="st0">
		<g class="st1">
			<path d="M37.7-27.1C17-27.1,0.2-10.3,0.2,10.4S17,47.9,37.7,47.9s37.5-16.8,37.5-37.5S58.4-27.1,37.7-27.1z M42.2-20.5
				c1,0.1,1.6,1.2,1.2,2.1c-1,2.2-3.2,3.8-5.7,3.8s-4.8-1.6-5.7-3.8c-0.4-0.9,0.2-2,1.2-2.1c1.5-0.2,3-0.3,4.5-0.3
				S40.7-20.7,42.2-20.5z M25.5,39.2c-3.1-1.3-5.9-3.1-8.4-5.3c-0.6-0.5-0.7-1.4-0.2-2c1.5-2.2,4.4-3.3,7.2-2.4
				c1.5,0.5,2.7,1.6,3.5,3c1,2,0.9,4.3-0.1,6C27.1,39.2,26.3,39.5,25.5,39.2z M37.7,41.6c-0.8,0-1.7,0-2.5-0.1
				c-1-0.1-1.7-1.1-1.3-2.1c0.5-1.3,0.7-2.7,0.7-4.1c0-6.9-5.6-12.5-12.5-12.5c-3.4,0-6.5,1.4-8.8,3.7c-0.7,0.7-1.9,0.6-2.5-0.3
				C8,21.5,6.5,16.1,6.5,10.3c0-12.2,7-22.8,17.3-28c0.8-0.4,1.9,0,2.2,0.9c1.7,4.8,6.4,8.3,11.8,8.3s10.1-3.5,11.8-8.3
				c0.3-0.9,1.3-1.3,2.2-0.9C62-12.6,69.1-2,69.1,10.3C68.9,27.6,54.9,41.6,37.7,41.6z"/>
			<path d="M50.2,1c-6.9,0-12.5,5.6-12.5,12.5S43.3,26,50.2,26s12.5-5.6,12.5-12.5S57.1,1,50.2,1z M50.2,19.8
				c-3.4,0-6.2-2.8-6.2-6.2s2.8-6.2,6.2-6.2s6.2,2.8,6.2,6.2S53.6,19.8,50.2,19.8z"/>
			<path d="M23.7-4c-1.5-0.9-3.4-0.4-4.3,1.1S19,0.5,20.5,1.4c1,0.6,1.6,1.6,1.6,2.7c0,1.7-1.4,3.1-3.1,3.1c-0.6,0-1.1-0.1-1.6-0.4
				C15.9,5.9,14,6.5,13.1,8s-0.3,3.4,1.2,4.3c1.4,0.8,3,1.2,4.7,1.2c5.2,0,9.4-4.2,9.4-9.4C28.3,0.8,26.5-2.3,23.7-4z"/>
		</g>
	</g>
	<g class="st0">
		<path class="st1" d="M56.3,13.4H42.4H33H18.9c-1.8,0-3.3-1.4-3.1-3.3C16,8.5,17.4,7.4,19,7.4h13.9h9.4h14.1c1.8,0,3.3,1.4,3.1,3.3
			C59.4,12.3,57.9,13.4,56.3,13.4z M37.7-30.2C15.3-30.2-2.9-12-2.9,10.4S15.3,51,37.7,51c10.2,0,20-3.8,27.6-10.8
			c1.3-1.2,1.3-3.1,0.2-4.4c-1.2-1.3-3.1-1.3-4.4-0.2c-6.4,5.9-14.7,9.2-23.3,9.2c-19.1,0-34.5-15.4-34.5-34.4S18.7-24,37.7-24
			S72.1-8.6,72.1,10.4c0,5.7-1.4,11.4-4.2,16.4c-0.8,1.5-0.3,3.4,1.2,4.2c1.5,0.8,3.4,0.3,4.2-1.2c3.2-5.9,4.9-12.6,4.9-19.4
			C78.3-12,60.1-30.2,37.7-30.2z"/>
	</g>
	<g class="st0">
		<path class="st1" d="M58.7-4.3c1.2,1.2,1.2,3.2,0,4.4l-25,25c-0.6,0.6-1.4,0.9-2.2,0.9s-1.6-0.3-2.2-0.9L16.7,12.6
			c-1.2-1.2-1.2-3.2,0-4.4s3.2-1.2,4.4,0l10.3,10.3L54.2-4.3C55.5-5.5,57.4-5.5,58.7-4.3z M37.7-30.2C15.3-30.2-2.9-12-2.9,10.4
			S15.3,51,37.7,51c10.2,0,20-3.8,27.6-10.8c1.3-1.2,1.3-3.1,0.2-4.4c-1.2-1.3-3.1-1.3-4.4-0.2c-6.4,5.9-14.7,9.2-23.3,9.2
			c-19.1,0-34.5-15.4-34.5-34.4S18.7-24,37.7-24S72.1-8.6,72.1,10.4c0,5.7-1.4,11.4-4.2,16.4c-0.8,1.5-0.3,3.4,1.2,4.2
			c1.5,0.8,3.4,0.3,4.2-1.2c3.2-5.9,4.9-12.6,4.9-19.4C78.3-12,60.1-30.2,37.7-30.2z"/>
	</g>
	<g class="st0">
		<path class="st1" d="M37.7,32.4v19 M40.7,51V32.3c0-1.7-1.3-3.1-3-3.1s-3,1.4-3,3.1v18.8c0,1.7,1.3,3.1,3,3.1S40.7,52.8,40.7,51z
			 M62.7,20c0-0.8-0.6-1.7-1.1-2.3L49.7,3.1v-13.5l12.1-14.8c0.8-0.9,1-2.4,0.5-3.5s-1.5-2-2.7-2H15.8c-1.2,0-2.3,0.9-2.8,2
			s-0.6,2.5,0.1,3.4l11.6,14.9V3L13.1,17.8c-0.8,0.9-0.8,2.5-0.3,3.6s1.7,2,2.9,2h43.8l0,0C61.3,23.4,62.7,21.8,62.7,20z M30.9,6
			c0.4-0.6,0.8-1.1,0.8-1.8v-15.7c0-0.7-0.4-1.2-0.8-1.8l-8.6-10.3H53l-8.6,10.4c-0.4,0.6-0.8,1.1-0.8,1.8V4.2
			c0,0.7,0.4,1.3,0.8,1.8l8.7,10.4H22.3L30.9,6z"/>
	</g>
	<g class="st0">
		<path class="st1" d="M48.7,25.9l-11-11l-11,11c-1.3,1.3-3.4,1.2-4.6-0.2c-1-1.3-0.9-3.1,0.3-4.3l11-11l-11-11
			c-1.3-1.3-1.2-3.4,0.2-4.6c1.3-1,3.1-0.9,4.3,0.3l11,11l11-11c1.3-1.3,3.4-1.2,4.6,0.2c1,1.3,0.9,3.1-0.3,4.3l-11,11l11,11
			c1.2,1.2,1.3,3,0.3,4.3C52.2,27.1,50,27.2,48.7,25.9z M37.7-30.2C15.3-30.2-2.9-12-2.9,10.4S15.3,51,37.7,51
			c10.2,0,20-3.8,27.6-10.8c1.3-1.2,1.3-3.1,0.2-4.4c-1.2-1.3-3.1-1.3-4.4-0.2c-6.4,5.9-14.7,9.2-23.3,9.2
			c-19.1,0-34.5-15.4-34.5-34.4S18.7-24,37.7-24S72.1-8.6,72.1,10.4c0,5.7-1.4,11.4-4.2,16.4c-0.8,1.5-0.3,3.4,1.2,4.2
			c1.5,0.8,3.4,0.3,4.2-1.2c3.2-5.9,4.9-12.6,4.9-19.4C78.3-12,60.1-30.2,37.7-30.2z"/>
	</g>
	<g class="st0">
		<path class="st1" d="M65.8,51H9.6c-1.7,0-3.1-1.4-3.1-3.1v-75c0-1.7,1.4-3.1,3.1-3.1h34.9c2.5,0,4.9,1,6.6,2.7L68-10.6
			c0.9,0.9,1.2,2.2,0.7,3.4s-1.6,1.9-2.9,1.9H47.1c-1.7,0-3.1-1.4-3.1-3.1V-24H12.7v68.8h50V1c0-1.7,1.4-3.1,3.1-3.1
			s3.1,1.4,3.1,3.1v46.9C68.9,49.6,67.6,51,65.8,51z M50.2-11.5h8.1l-8.1-8.1C50.2-19.6,50.2-11.5,50.2-11.5z"/>
	</g>
	<g class="st0">
		<path class="st1" d="M68.9-20.6H53.3c0-5-4.2-10-9.4-10H31.5c-5.2,0-9.4,5-9.4,10H6.5c-1.7,0-3.1,1.3-3.1,3s1.4,3,3.1,3H69
			c1.7,0,3.1-1.3,3.1-3S70.7-20.6,68.9-20.6z M31.3-20.6c-1.9,0-2.2-2.8-0.3-3c0.1,0,0.3,0,0.4,0h12.5c0.1,0,0.3-0.1,0.4,0
			c1.9,0.2,1.6,3-0.3,3H31.3z M68.9-8.2l-3.1,56.4c-0.1,1.7-1.4,3.2-3.1,3.2h-50c-1.7,0-3-1.5-3.1-3.1L6.5-8
			c-0.1-1.7,1.2-3.2,2.9-3.3s3.2,1,3.3,2.7l3,53h44l3-53.1c0.1-1.7,1.6-2.9,3.3-2.9C67.7-11.5,69-9.9,68.9-8.2z M37.7,38.5
			c-1.7,0-3-1.4-3-3.1V-2.1c0-1.7,1.3-3.1,3-3.1s3,1.4,3,3.1v37.5C40.7,37.1,39.4,38.5,37.7,38.5z M25.2,38.5
			c-1.7,0-3.5-1.4-3.5-3.1V1c0-1.7,1.8-3.1,3.5-3.1s3.5,1.4,3.5,3.1v34.4C28.7,37.1,26.9,38.5,25.2,38.5z M50.2,38.5
			c-1.7,0-3.5-1.4-3.5-3.1V1c0-1.7,1.8-3.1,3.5-3.1s3.5,1.4,3.5,3.1v34.4C53.7,37.1,51.9,38.5,50.2,38.5z"/>
	</g>
	<g class="st0">
		<path class="st1" d="M21.7,11.8L21.7,11.8c-0.3,0.3-0.5,0.6-0.6,0.9l-6.7,18.5c-0.2,0.6,0.4,1.2,1,1l18.5-6.7
			c0.4-0.2,0.7-0.4,0.9-0.6l0,0l37.4-37.4l-13-13L21.7,11.8z M59-16.7l4.2,4.2L31.1,19.6L26.5,20l0.4-4.6L59-16.7z M68.9,44.4H6.5
			c-1.7,0-3.1-1.3-3.1-3s1.4-3,3.1-3H69c1.7,0,3.1,1.3,3.1,3S70.7,44.4,68.9,44.4z"/>
	</g>
	<g class="st0">
		<path class="st1" d="M62.7,8.8c-1.7,0-3,1.4-3,3.1v26.5h-44v-56h39.5L30.8,6.7l0,0c-0.3,0.3-0.5,0.6-0.6,0.9L23.5,26
			c-0.2,0.6,0.4,1.2,1,1L43,20.3c0.4-0.2,0.7-0.4,0.9-0.6l0,0l37.4-37.4l-13-13l-7.1,7.3c-0.6-0.2-1.1-0.2-1.6-0.2H12.7
			c-1.7,0-3,1-3,2.8v62.5c0,1.7,1.3,2.8,3,2.8h50c1.7,0,3-1,3-2.8V12C65.7,10.2,64.4,8.8,62.7,8.8z M72.3-17.7L40.2,14.4l-4.5,0.4
			l0.4-4.6l32.1-32.1L72.3-17.7z"/>
	</g>
	<g class="st0">
		<path class="st1" d="M62.7-8.2l-3.1,56.4c-0.1,1.7-1.5,3.1-3.1,3.1H18.9c-1.7,0-3-1.5-3.1-3.1L12.7-8.1c-0.1-1.7,1.2-3.2,2.9-3.3
			s3.2,1,3.3,2.7l3,53.1h31.6l3-53.1c0.1-1.7,1.6-3,3.3-2.9S62.8-9.9,62.7-8.2z M34.7,35.4V-2.1c0-1.7-1.3-3.1-3-3.1s-3,1.4-3,3.1
			v37.5c0,1.7,1.3,3.1,3,3.1S34.7,37.1,34.7,35.4z M46.7,35.4V-2.1c0-1.7-1.3-3.1-3-3.1s-3,1.4-3,3.1v37.5c0,1.7,1.3,3.1,3,3.1
			S46.7,37.1,46.7,35.4z M68.9-17.6c0,1.7-1.4,3-3.1,3H9.6c-1.7,0-3.1-1.3-3.1-3s1.4-3,3.1-3h12.5c0-5,4.2-10,9.4-10H44
			c5.2,0,9.4,5,9.4,10h12.5C67.6-20.6,68.9-19.3,68.9-17.6z M47.7-22.1c0-0.8-0.7-1.5-1.5-1.5h-16c-0.8,0-1.5,0.7-1.5,1.5l0,0
			c0,0.8,0.7,1.5,1.5,1.5h16C47-20.6,47.7-21.3,47.7-22.1L47.7-22.1z"/>
	</g>
	<g class="st0">
		<g class="st1">
			<path d="M72.1-17.7H34.6c-1.7,0-3.1,1.4-3.1,3.1v6.2H3.3C1.6-8.4,0.2-7,0.2-5.3v9.4c0,1.7,1.4,3.1,3.1,3.1h9.4v25H6.5V16.8
				c0-1.6-1.2-3.1-2.8-3.2c-1.9-0.2-3.4,1.3-3.4,3.1v18.7c0,1.7,1.4,3.1,3.1,3.1H72c1.6,0,3.1-1.2,3.2-2.8c0.2-1.9-1.3-3.4-3.1-3.4
				H58.5c-0.7,0-1-0.8-0.5-1.3c2.9-2.8,4.7-6.8,4.7-11.2S60.9,11.5,58,8.6c-0.5-0.5-0.1-1.3,0.5-1.3h8.9C68.3,7.3,69,8,69,8.9v13.9
				c0,1.6,1.2,3.1,2.8,3.2c1.9,0.2,3.4-1.3,3.4-3.1V4.2v-18.8C75.2-16.3,73.8-17.7,72.1-17.7z M6.5,1v-3.1h28.1
				c1.7,0,3.1-1.4,3.1-3.1v-6.2h31.2V1.1H6.5V1z M47.1,29.2c-5.2,0-9.4-4.2-9.4-9.4s4.2-9.4,9.4-9.4s9.4,4.2,9.4,9.4
				S52.2,29.2,47.1,29.2z M31.5,19.8c0,4.4,1.8,8.3,4.7,11.2c0.5,0.5,0.1,1.3-0.5,1.3H20.5c-0.9,0-1.6-0.7-1.6-1.6V8.8
				c0-0.9,0.7-1.6,1.6-1.6h15.1c0.7,0,1,0.8,0.5,1.3C33.3,11.4,31.5,15.4,31.5,19.8z"/>
			<path d="M59.6-8.6H47.1c-1.7,0-3.1,1.8-3.1,3.5s1.4,3.5,3.1,3.5h12.5c1.7,0,3.1-1.8,3.1-3.5S61.3-8.6,59.6-8.6z"/>
			<path d="M9.6-11.6h12.5c1.7,0,3.1-1.3,3.1-3s-1.4-3-3.1-3H9.6c-1.7,0-3.1,1.3-3.1,3S7.8-11.6,9.6-11.6z"/>
		</g>
	</g>
	<g class="st0">
		<path class="st1" d="M56.9-22.2L54.7-20l-2.2,2.2l-42,42c-0.6,0.6-0.6,0.6-0.7,1L3,43.7c-0.2,0.6,0.4,1.2,1,1l18.5-6.8
			c0.4-0.2,0.6,0,1.1-0.6l0.1,0.1L59.1,2c1.2-1.2,1.2-3.2,0-4.4s-3.2-1.2-4.4,0l-2.2,2.2l-1.7,1.7L20,32.4l-5.1,0.7l0.7-5.1
			L46.4-2.8l1.7-1.7l8.8-8.8l6.6,6.6c1.2,1.2,3.2,1.2,4.4,0l2.2-2.2c3.7-3.7,3.7-9.6,0-13.3C66.5-25.8,60.5-25.8,56.9-22.2z
			 M65.7-13.3l-4.4-4.4c1.2-1.2,3.2-1.2,4.4,0S66.9-14.6,65.7-13.3z"/>
	</g>
	<g class="st0">
		<path class="st1" d="M37.7,51C15.3,51-2.9,32.8-2.9,10.4s18.2-40.6,40.6-40.6S78.3-12,78.3,10.4S60.1,51,37.7,51z M37.7-24
			C18.7-24,3.3-8.6,3.3,10.4s15.4,34.4,34.4,34.4s34.4-15.4,34.4-34.4S56.7-24,37.7-24z M55.5,28.2c1.2-1.2,1.2-3.2-0.1-4.4
			L40.7,9.1V-8.4c0-1.7-1.3-3.1-3-3.1s-3,1.4-3,3.1v18.8c0,0.8,0.3,1.6,0.9,2.2l15.6,15.6c0.6,0.6,1.4,0.9,2.2,0.9
			S54.9,28.8,55.5,28.2z"/>
	</g>
	<g class="st0">
		<path class="st1" d="M72.1,44.4H3.3c-1.7,0-3.6-1-3.6-2.8v-50c0-1.7,1.9-3.2,3.6-3.2h12.5c1.7,0,2.9,1.5,2.9,3.2v37.5
			c0,1.7-1.3,3.1-3,3.1s-3-1.4-3-3.1V-5.6h-6v44h62v-44H53.3c-1.7,0-3.6-1-3.6-2.8v-9.2h-12v9.2c0,1.7-1.4,2.8-3.1,2.8h-6.2
			c-1.7,0-3.1-1.3-3.1-3s1.4-3,3.1-3h3.3v-9.2c0-1.7,1.1-2.8,2.9-2.8h18.8c1.7,0,3.4,1,3.4,2.8v9.2h15.4c1.7,0,2.6,1.5,2.6,3.2v50
			C74.7,43.4,73.8,44.4,72.1,44.4z M15.8-17.6c0-1.7-1.4-3-3.1-3H6.5c-1.7,0-3.1,1.3-3.1,3s1.4,3,3.1,3h6.2
			C14.4-14.6,15.8-15.9,15.8-17.6z M75.2-17.6c0-1.7-1.4-3-3.1-3h-6.2c-1.7,0-3.1,1.3-3.1,3s1.4,3,3.1,3h6.2
			C73.8-14.6,75.2-15.9,75.2-17.6z M62.7,16.6c0-10.3-8.4-18.8-18.8-18.8S25.1,6.2,25.1,16.6s8.5,18.8,18.8,18.8S62.7,27,62.7,16.6z
			 M56.5,16.6c0,6.9-5.6,12.5-12.5,12.5s-12.5-5.6-12.5-12.5S37.1,4.1,44,4.1S56.5,9.8,56.5,16.6z"/>
	</g>
	<g class="st0">
		<path class="st1" d="M68.9-20.6h-6.2v6h6v6h-62v-6h6v-6H6.5c-3.4,0-6.8,2.6-6.8,6v56.2c0,3.4,3.3,6.8,6.8,6.8H69
			c3.4,0,5.8-3.3,5.8-6.8v-56.2C74.7-18,72.4-20.6,68.9-20.6z M68.7,41.4h-62v-43h62V41.4z M21.7-11.6h-6v-19h6v10h13v-10h6v10h13
			v-10h6v19h-6v-3h-13v3h-6v-3h-13V-11.6z M24.7,16.4h-12v-12h12V16.4z M43.7,16.4h-12v-12h12V16.4z M62.7,16.4h-13v-12h13V16.4z
			 M24.7,35.4h-12v-12h12V35.4z M43.7,35.4h-12v-12h12V35.4z M62.7,35.4h-13v-12h13V35.4z"/>
	</g>
	<g class="st0">
		<path class="st1" d="M75.8-5.8c3.6-3,5.6-7.4,5.6-11.9c0-8.6-7-15.6-15.6-15.6c-4.6,0-8.9,2.1-11.9,5.6c-1.1,1.3-0.9,3.3,0.4,4.4
			c1.3,1.1,3.3,0.9,4.4-0.4c1.8-2.2,4.4-3.4,7.2-3.4c5.2,0,9.4,4.2,9.4,9.4c0,2.7-1.2,5.3-3.4,7.2c-1.3,1.1-1.5,3.1-0.4,4.4
			C72.1-5.4,73-5,73.9-5C74.5-5.1,75.2-5.3,75.8-5.8z M3.6-6.3c1.1-1.3,1-3.3-0.3-4.4C1.2-12.5,0-15,0-17.7c0-5.2,4.2-9.4,9.4-9.4
			c2.7,0,5.3,1.2,7.2,3.4c1.1,1.3,3.1,1.5,4.4,0.4s1.5-3.1,0.4-4.4c-3-3.6-7.4-5.6-11.9-5.6c-8.6,0-15.6,7-15.6,15.6
			c0,4.5,2,8.8,5.4,11.7c0.6,0.5,1.3,0.8,2,0.8C2.1-5.2,3-5.6,3.6-6.3z M68.9,10.4c0-17.2-14-31.2-31.2-31.2S6.5-6.8,6.5,10.4
			s14,31.2,31.2,31.2S68.9,27.6,68.9,10.4z M62.7,10.4c0,13.8-11.2,25-25,25s-25-11.2-25-25s11.2-25,25-25S62.7-3.4,62.7,10.4z
			 M40.7,10.4V-2.1c0-1.7-1.3-3.1-3-3.1s-3,1.4-3,3.1v9.5h-3.2c-1.7,0-3.1,1.3-3.1,3s1.4,3,3.1,3h6.2C39.4,13.4,40.7,12.1,40.7,10.4
			z M9.1,52.8l6.2-9.4c1-1.4,0.6-3.4-0.9-4.3c-1.4-1-3.4-0.6-4.3,0.9l-6.2,9.4c-1,1.4-0.6,3.4,0.9,4.3c0.5,0.4,1.1,0.5,1.7,0.5
			C7.5,54.2,8.4,53.7,9.1,52.8z M70.7,53.6c1.4-1,1.8-2.9,0.9-4.3l-6.2-9.4c-1-1.4-2.9-1.8-4.3-0.9c-1.4,1-1.8,2.9-0.9,4.3l6.2,9.4
			c0.6,0.9,1.6,1.4,2.6,1.4C69.5,54.2,70.2,54,70.7,53.6z"/>
	</g>
	<g class="st0">
		<path class="st1" d="M68.9,44.8H6.5c-3.4,0-6.2-2.8-6.2-6.2V-5.2c0-3.4,2.8-6.2,6.2-6.2h9.4c1.7,0,3.1-1.4,3.1-3.1
			c0-5.2,4.2-9.4,9.4-9.4h18.8c5.2,0,9.4,4.2,9.4,9.4c0,1.7,1.4,3.1,3.1,3.1h9.4c3.4,0,6.2,2.8,6.2,6.2v43.8
			C75.2,42,72.4,44.8,68.9,44.8z M6.5-5.2v43.8H69V-5.2h-9.4c-5.2,0-9.4-4.2-9.4-9.4c0-1.7-1.4-3.1-3.1-3.1H28.3
			c-1.7,0-3.1,1.4-3.1,3.1c0,5.2-4.2,9.4-9.4,9.4C15.8-5.2,6.5-5.2,6.5-5.2z M44.7,30.9c1.6-0.6,2.4-2.5,1.7-4.1s-2.5-2.4-4.1-1.7
			c-1.5,0.6-3.1,0.9-4.6,0.9c-6.9,0-12.5-5.6-12.5-12.5S30.8,1,37.7,1s12.5,5.6,12.5,12.5c0,1.6-0.3,3.1-0.9,4.6
			c-0.6,1.6,0.1,3.4,1.7,4.1c1.6,0.6,3.4-0.1,4.1-1.7c0.9-2.3,1.4-4.6,1.4-7c0-10.3-8.4-18.8-18.8-18.8S18.9,3.1,18.9,13.5
			s8.5,18.8,18.8,18.8C40.1,32.3,42.4,31.8,44.7,30.9z"/>
	</g>
	<g class="st0">
		<path class="st1" d="M58.7-23.9l-2,2c-11.7-6.9-26.4-6.9-38.1,0l-1.9-2c-1.8-1.8-4.8-1.8-6.6,0l-6.6,6.6c-1.8,1.8-1.8,4.8,0,6.6
			l1.9,1.9c-6.9,11.7-6.9,26.4,0,38.1l-2,2.1c-1.8,1.8-1.8,4.8,0,6.6l6.6,6.6c1.8,1.8,4.8,1.8,6.6,0l1.9-1.9
			c11.7,6.9,26.4,6.9,38.1,0l1.9,1.9c1.8,1.8,4.8,1.8,6.6,0l6.6-6.6c1.8-1.8,1.8-4.8,0-6.6l-1.7-2C76.9,17.7,76.9,3,70-8.7l1.9-1.9
			c1.8-1.8,1.8-4.8,0-6.6l-6.6-6.6C63.5-25.7,60.5-25.7,58.7-23.9z M50.6-15.7l-4.9,4.8c-0.4,0.4-1,0.5-1.6,0.4
			c-4.2-1.3-8.7-1.3-12.9,0c-0.6,0.2-1.2,0-1.6-0.4l-4.9-4.9c-0.8-0.8-0.5-2.1,0.5-2.5c7.9-3.4,16.9-3.4,24.8,0
			C51.1-17.8,51.4-16.5,50.6-15.7z M48.7,21.4c-6,6.1-16,6.1-22,0s-6.1-16,0-22s16-6.1,22.1,0S54.8,15.4,48.7,21.4z M13.4-18.3
			L24.6-7.1c-0.8,0.6-1.6,1.3-2.4,2s-1.4,1.5-2,2.4L9-13.9L13.4-18.3z M11.6-2.5l4.9,4.9c0.4,0.4,0.5,1,0.4,1.6
			c-1.3,4.2-1.3,8.7,0,12.9c0.2,0.6,0,1.2-0.4,1.6l-4.9,4.9c-0.8,0.8-2.1,0.5-2.5-0.5C5.7,15,5.7,6,9.1-1.9C9.5-3,10.8-3.3,11.6-2.5
			z M9,34.7l11.2-11.2c0.6,0.8,1.3,1.6,2,2.4c0.8,0.8,1.5,1.4,2.4,2L13.4,39.1L9,34.7z M24.8,36.5l4.9-4.9c0.4-0.4,1-0.5,1.6-0.4
			c4.2,1.3,8.7,1.3,12.9,0c0.6-0.2,1.2,0,1.6,0.4l4.9,4.9c0.8,0.8,0.5,2.1-0.5,2.5c-7.9,3.4-16.9,3.4-24.8,0
			C24.3,38.6,24,37.3,24.8,36.5z M62,39.1L50.8,27.9c0.8-0.6,1.6-1.3,2.4-2c0.8-0.8,1.4-1.5,2-2.4l11.2,11.2L62,39.1z M63.8,23.3
			L59,18.4c-0.4-0.4-0.5-1-0.4-1.6c1.3-4.2,1.3-8.7,0-12.9c-0.2-0.6,0-1.2,0.4-1.6l4.9-4.9c0.8-0.8,2.1-0.5,2.5,0.5
			c3.4,7.9,3.4,16.9,0,24.8C65.9,23.8,64.6,24.1,63.8,23.3z M66.4-13.9L55.2-2.7c-0.6-0.8-1.3-1.6-2-2.4c-0.8-0.8-1.5-1.4-2.4-2
			L62-18.3L66.4-13.9z"/>
	</g>
	<g class="st0">
		<path class="st1" d="M47.1,13.4c0,1.7-1.4,3-3.1,3h-6.3c-1.7,0-3-1.1-3-2.9V1c0-1.7,1.3-3.1,3-3.1s3,1.4,3,3.1v9.4h3.2
			C45.7,10.4,47.1,11.7,47.1,13.4z M50.2,41.6c-1.7,0-3.5,1.4-3.5,3.1v6.2c0,1.7,1.8,3.1,3.5,3.1s3.5-1.4,3.5-3.1v-6.2
			C53.7,43,51.9,41.6,50.2,41.6z M67.4,4.2c-0.4,0-0.8,0.1-1.2,0.3c-0.5,0.2-0.8,0-0.9-0.5c-1.7-7-6.6-13-11.6-16.8v-17.4
			c0-1.8-1.9-3.3-3.8-3.1c-1.6,0.1-3.2,1.6-3.2,3.2v11.9c0,1-0.8,1.8-1.8,1.5c-2.4-0.6-4.7-1-7.3-1s-4.8,0.3-7.2,1
			c-1,0.3-1.8-0.5-1.8-1.5v-12c0-1.8-1.9-3.3-3.8-3.1c-1.5,0.1-3.1,1.6-3.1,3.2V-13C14.7-7.9,9.2,0.7,9.2,10.4s5.5,18.3,12.5,23.4
			v17.3c0,1.8,1.9,3.3,3.8,3.1c1.6-0.2,3.2-1.6,3.2-3.2V39c0-1,0.8-1.8,1.8-1.5c3.1,0.9,6.4,1.2,9.9,0.9c12.1-1.1,22-10,24.7-21.5
			c0.1-0.5,0.6-0.7,1.1-0.5c0.3,0.2,0.8,0.2,1.2,0.3c1.8,0.1,3.3-1.5,3.3-3.3v-6C70.7,5.7,69.2,4.1,67.4,4.2z M37.7,32.3
			c-12.1,0-21.9-9.8-21.9-21.9s9.8-21.9,21.9-21.9s21.9,9.8,21.9,21.9S49.8,32.3,37.7,32.3z"/>
	</g>
	<g class="st0">
		<g class="st1">
			<path d="M73.6-11.5H54.9c-0.9,0-1.6-0.7-1.6-1.6v-4.7c0-3.5-2.8-6.2-6.2-6.2H28.3c-3.5,0-6.2,2.8-6.2,6.2v4.7
				c0,0.9-0.7,1.6-1.6,1.6h-4.7H9.6H1.8c-2.6,0-4.7,2.1-4.7,4.7v46.9c0,2.6,2.1,4.7,4.7,4.7h71.9c2.6,0,4.7-2.1,4.7-4.7V-6.8
				C78.3-9.4,76.2-11.5,73.6-11.5z M29.1-17.7h17.2c0.4,0,0.8,0.3,0.8,0.8v5.5H28.3v-5.5C28.3-17.4,28.7-17.7,29.1-17.7z M59.7-5.6
				v16.8c-7,3.5-14.4,5.4-22,5.4s-15-1.9-22-5.4V-5.6H59.7z M3.7,38.4v-44h6v44H3.7z M15.7,18.2c7,3.1,14.4,4.7,22,4.7
				s15-1.6,22-4.7v20.2h-44C15.7,38.4,15.7,18.2,15.7,18.2z M71.7,38.4h-6v-44h6V38.4z"/>
			<rect x="34.7" y="1.4" width="6" height="9"/>
		</g>
	</g>
	<g class="st0">
		<g class="st1">
			<path d="M58,7.3H26.8c-0.9,0-1.6-0.7-1.6-1.6V-8c0-6.7,5.2-12.5,11.9-12.8c7.2-0.4,13.1,5.4,13.1,12.5v6.1c0,1.6,1.2,3.1,2.8,3.2
				c1.9,0.2,3.4-1.3,3.4-3.1v-5.8c0-10.5-8.6-19.4-19.1-19.2c-10.1,0.2-18.4,8.5-18.4,18.7V5.7c0,0.9-0.7,1.6-1.6,1.6l0,0
				c-2.6,0-4.7,2.1-4.7,4.7v34.4c0,2.6,2.1,4.7,4.7,4.7h40.6c2.6,0,4.7-2.1,4.7-4.7V12C62.7,9.4,60.6,7.3,58,7.3z M55.7,44.8h-36
				c-0.4,0-0.8-0.3-0.8-0.8V14.3c0-0.4,0.3-0.8,0.8-0.8h36c0.4,0,0.8,0.3,0.8,0.8V44C56.5,44.4,56.1,44.8,55.7,44.8z"/>
			<path d="M37.7,22.9L37.7,22.9c-1.7,0-3.1,1.4-3.1,3.1v9.4h6.2V26C40.8,24.3,39.4,22.9,37.7,22.9z"/>
		</g>
	</g>
	<g class="st0">
		<path class="st1" d="M47.1,13.4c0,1.7-1.4,3-3.1,3h-6.3c-1.7,0-3-1.1-3-2.9V4.1c0-1.7,1.3-3.1,3-3.1s3,1.4,3,3.1v6.3h3.2
			C45.7,10.4,47.1,11.7,47.1,13.4z M68.7-2.1v9.4c0,1.7-1.1,3.1-2.9,3.1h-3.1V26c0,4.8-2.7,9-6.7,11.1l-0.1,0.7
			c-1.5,3-2.1,6.4-2.1,9.8v3.5c0,0.9-0.6,1.7-1.2,2.3c-0.5,0.4-4.8,3.9-14.7,3.9c-9.7,0-14.3-3.5-14.7-3.9c-0.7-0.6-1.3-1.5-1.3-2.4
			v-3.5c0-3.4-0.6-6.8-2.1-9.8L19.6,37c-4-2.1-6.6-6.3-6.6-11.1V-5.2c0-4.8,2.7-9,6.7-11.1l0.1-0.7c1.5-3,2.1-6.4,2.1-9.8v-3.4
			c0-0.8,0.5-1.6,1.1-2.2c0.7-0.7,4.6-4,14.8-4s14.3,3.4,14.9,4c0.4,0.6,1,1.3,1,2.2v3.5c0,3.4,0.6,6.8,2.1,9.8l0.2,0.5
			c4.1,2,6.7,6.8,6.7,10.8h3.1C67.6-5.6,68.7-3.8,68.7-2.1z M28.7-26.8c0,2.4-0.5,4.8-1.1,7.1c-0.3,1,0.3,2,1.3,2h17.6
			c1,0,1.6-1,1.3-2c-0.6-2.3-1.1-4.7-1.1-7.1v-1.8c-1-0.7-3.9-1.7-9-1.7s-8,1-9,1.7C28.7-28.6,28.7-26.8,28.7-26.8z M46.7,47.6
			c0-2.4,0.5-4.8,1.1-7.1c0.3-1-0.3-2-1.3-2H28.9c-1,0-1.6,1-1.3,2c0.6,2.3,1.1,4.7,1.1,7.1v1.7c1,0.7,4.1,1.8,9,1.8s8-1,9-1.7V47.6
			z M56.7-5.4c0-3.5-2.8-6.2-6.2-6.2H24.9c-3.5,0-6.2,2.8-6.2,6.2v31.5c0,3.5,2.8,6.2,6.2,6.2h25.5c3.5,0,6.2-2.8,6.2-6.2L56.7-5.4
			L56.7-5.4z"/>
	</g>
	<g class="st0">
		<g class="st1">
			<rect x="53.7" y="13.4" width="6" height="6"/>
			<path d="M71.3,1H69V-9.9c0-2.6-2.1-4.7-4.7-4.7H9.7c-1.6,0-3.1-1.2-3.2-2.8c-0.2-1.9,1.3-3.4,3.1-3.4h53c1.6,0,3.1-1.2,3.2-2.8
				c0.2-1.9-1.3-3.4-3.1-3.4H9.8c-4.9,0-9.1,3.6-9.6,8.5C-0.3-12.9,4.1-8.2,9.5-8.2h53.2v7.8c0,0.9-0.7,1.6-1.6,1.6h-7.4
				c-8.5,0-15.7,6.6-16,15c-0.3,8.9,6.8,16.2,15.6,16.2h7.8c0.9,0,1.6,0.7,1.6,1.6v7.8H6.5V-2c0-1.6-1.2-3.1-2.8-3.2
				C1.8-5.4,0.3-3.9,0.3-2.1v45.3c0,2.6,2.1,4.7,4.7,4.7h59.4c2.6,0,4.7-2.1,4.7-4.7V32.3h2.3c2.2,0,3.9-1.7,3.9-3.9V4.9
				C75.2,2.8,73.5,1,71.3,1z M68.2,26H53.6c-4.9,0-9.1-3.6-9.6-8.5c-0.5-5.6,3.9-10.3,9.3-10.3h14.8c0.4,0,0.8,0.3,0.8,0.8v17.2
				C68.9,25.7,68.6,26,68.2,26z"/>
		</g>
	</g>
	<g class="st0">
		<path class="st1" d="M9.6,26.4c0-1.7,1.4-3,3.1-3h12.5c1.7,0,3.1,1.3,3.1,3s-1.4,3-3.1,3H12.7C11,29.4,9.6,28.1,9.6,26.4z
			 M37.7,29.4h6.2c1.7,0,3.1-1.3,3.1-3s-1.4-3-3.1-3h-6.2c-1.7,0-3.1,1.3-3.1,3S36,29.4,37.7,29.4z M59.6,29.4h3.1
			c1.7,0,3.1-1.3,3.1-3s-1.4-3-3.1-3h-3.1c-1.7,0-3.1,1.3-3.1,3S57.8,29.4,59.6,29.4z M78.7-11.5v2.3v0.8v3.1V-3v43
			c0,2.6-2.5,4.3-5.1,4.3H1.8c-2.6,0.1-5.1-1.6-5.1-4.2v-43v-2.3v-3.1v-1.6v-1.6c0-5.1,4.6-9.1,9.8-9.1H69
			C74.1-20.6,78.7-16.6,78.7-11.5z M71.7,7.4h-68v31h68V7.4z M71.7-9.1v-2.3c0-1.7-1-3.1-2.8-3.1H6.5c-1.8-0.1-2.8,1.3-2.8,3v1.6
			v1.6v2.7h68v-2.8V-9.1z"/>
	</g>
</g>
<polygon class="st2" points="40,48 2,48 2,2 40,2 "/>
<g>
	<path d="M22.7,15h11.5c1.1,0,2-0.9,2-2s-0.9-2-2-2H22.7c-1.1,0-2,0.9-2,2S21.6,15,22.7,15z"/>
	<path d="M7.8,24h26.4c1.1,0,2-0.9,2-2s-0.9-2-2-2H7.8c-1.1,0-2,0.9-2,2S6.7,24,7.8,24z"/>
	<path d="M7.8,33h26.4c1.1,0,2-0.9,2-2s-0.9-2-2-2H7.8c-1.1,0-2,0.9-2,2S6.7,33,7.8,33z"/>
	<path d="M7.8,42h26.4c1.1,0,2-0.9,2-2s-0.9-2-2-2H7.8c-1.1,0-2,0.9-2,2S6.7,42,7.8,42z"/>
	<path d="M48,14h-6V2c0-1.1-0.9-2-2-2H2C0.9,0,0,0.9,0,2v42c0,3.3,2.7,6,6,6h38c3.3,0,6-2.7,6-6V16C50,14.9,49.1,14,48,14z M4,4h34
		v12v28c0,0.7,0.1,1.4,0.4,2H6c-1.1,0-2-0.9-2-2V4z M46,44c0,1.1-0.9,2-2,2s-2-0.9-2-2V18h4V44z"/>
	<path d="M7.8,17.5h7.5c1.1,0,2-0.9,2-2V8c0-1.1-0.9-2-2-2H7.8c-1.1,0-2,0.9-2,2v7.5C5.8,16.6,6.7,17.5,7.8,17.5z M9.8,10h3.5v3.5
		H9.8V10z"/>
</g>
</svg>
