<?xml version="1.0" encoding="utf-8"?>
<!-- Generator: Adobe Illustrator 22.0.1, SVG Export Plug-In . SVG Version: 6.00 Build 0)  -->
<svg version="1.1" id="Layer_1" xmlns="http://www.w3.org/2000/svg" x="0px" y="0px"
	viewBox="0 0 50 50" style="enable-background:new 0 0 50 50;" xml:space="preserve">
<style type="text/css">
	.st0{fill:none;stroke:#000000;stroke-linecap:round;stroke-linejoin:round;stroke-miterlimit:10;}
	.st1{fill:none;stroke:#000000;stroke-width:4;stroke-linecap:round;stroke-linejoin:round;stroke-miterlimit:10;}
	.st2{display:none;fill:none;stroke:#FF5F28;stroke-width:2;stroke-linecap:round;stroke-linejoin:round;stroke-miterlimit:10;}
</style>
<path class="st0" d="M10.6,20.5c0-5.2,2.8-9.9,7.3-12.3"/>
<path class="st0" d="M31,8.1c4.6,2.4,7.4,7.1,7.4,12.3"/>
<g>
	<g>
		<path class="st1" d="M20.5,44c0,2.2,1.8,4,4,4s4-1.8,4-4"/>
	</g>
	<circle class="st1" cx="24.5" cy="6" r="4"/>
	<path class="st1" d="M14.3,22.6c0-0.2-0.1-0.5-0.1-0.7c-0.1-0.5-0.1-1-0.1-1.5c0-5.7,4.6-10.4,10.4-10.4s10.4,4.7,10.4,10.4
		c0,0.5,0,1-0.1,1.5c0,0.2-0.1,0.5-0.1,0.7c-0.1,0.8-0.2,1.6-0.2,2.4c0,5.1,2.5,9.5,6.4,12.2C35.7,39,30.2,40,24.5,40
		s-11.2-1-16.4-2.8c3.9-2.7,6.4-7.1,6.4-12.2C14.4,24.2,14.3,23.4,14.3,22.6z"/>
</g>
<path class="st2" d="M10.1,36.8c9.4,2.9,19.2,2.9,28.6,0c-3.4-3-5.3-7.2-5.3-11.8c0-0.9,0.1-1.7,0.2-2.5c0-0.1,0-0.3,0.1-0.5
	c0-0.1,0-0.1,0-0.2l0-0.2c0.1-0.4,0.1-0.8,0.1-1.3c0-5.2-4.2-9.4-9.4-9.4c-5.2,0-9.4,4.2-9.4,9.4c0,0.5,0,0.9,0.1,1.3l0,0.2
	c0,0,0,0.1,0,0.2c0,0.2,0.1,0.3,0.1,0.5c0.1,0.8,0.2,1.6,0.2,2.5C15.5,29.6,13.5,33.8,10.1,36.8z"/>
<path class="st2" d="M24.5,41c-5.6,0-11.3-1-16.7-2.9l-1.9-0.6l1.6-1.1c3.8-2.6,6-6.8,6-11.4c0-0.7-0.1-1.5-0.2-2.3l0-0.1
	c0,0,0-0.1,0-0.2c0-0.1-0.1-0.3-0.1-0.4C13,21.5,13,20.9,13,20.4C13,14.1,18.2,9,24.5,9s11.4,5.1,11.4,11.4c0,0.5,0,1.1-0.1,1.6
	c0,0.1,0,0.3-0.1,0.4c0,0.1,0,0.1,0,0.2l0,0.1c-0.1,0.8-0.2,1.5-0.2,2.3c0,4.6,2.2,8.8,6,11.4l1.6,1.1l-1.9,0.6
	C35.7,40,30.1,41,24.5,41z"/>
<g>
	<path class="st0" d="M31.8,6.3c5.3,2.8,8.5,8.2,8.5,14.1"/>
</g>
<path class="st0" d="M8.6,20.5c0-5.9,3.2-11.3,8.3-14.1"/>
</svg>
