<?xml version="1.0" encoding="utf-8"?>
<!-- Generator: Adobe Illustrator 22.0.1, SVG Export Plug-In . SVG Version: 6.00 Build 0)  -->
<svg version="1.1" id="Layer_1" xmlns="http://www.w3.org/2000/svg" x="0px" y="0px"
	viewBox="0 0 50 50" style="enable-background:new 0 0 50 50;" xml:space="preserve">
<style type="text/css">
	.st0{fill:none;stroke:#000000;stroke-width:4;stroke-linecap:round;stroke-linejoin:round;stroke-miterlimit:10;}
</style>
<line class="st0" x1="41.8" y1="8.2" x2="8.2" y2="41.8"/>
<g>
	<path class="st0" d="M29.8,11.7c-1.6-0.4-3.2-0.6-4.8-0.6c-7.9,0-15.6,4.5-22.9,13.6c-0.1,0.1-0.1,0.3,0,0.6c2.3,2.8,4.6,5.2,7,7.2
		"/>
	<path class="st0" d="M40.9,17.6c2.4,1.9,4.7,4.3,7,7.2c0.1,0.2,0.1,0.4,0,0.6c-7.3,9-15,13.6-22.9,13.6c-1.6,0-3.2-0.2-4.8-0.6"/>
	<path class="st0" d="M17.8,23.7c0.6-3,2.9-5.3,5.9-5.9"/>
	<path class="st0" d="M32.2,26.3c-0.5,3-2.9,5.3-5.9,5.9"/>
</g>
</svg>
