<?xml version="1.0" encoding="utf-8"?>
<!-- Generator: Adobe Illustrator 22.0.1, SVG Export Plug-In . SVG Version: 6.00 Build 0)  -->
<svg version="1.1" id="Layer_1"
	xmlns="http://www.w3.org/2000/svg" x="0px" y="0px" viewBox="0 0 50 50"
	style="enable-background:new 0 0 50 50;" xml:space="preserve">
<style type="text/css">
	.st0{fill:none;stroke:#000000;stroke-width:4;stroke-linecap:round;stroke-linejoin:round;stroke-miterlimit:10;}
</style>
<path class="st0" d="M41.1,24.3c-0.3,0-0.6,0-0.8,0.1c0.1-0.6,0.1-1.1,0.1-1.7c0-5.9-4.8-10.7-10.7-10.7c-4,0-7.4,2.2-9.2,5.4
	c-1.3-0.9-2.9-1.4-4.5-1.4c-4.6,0-8.3,3.7-8.3,8.3c0,0.8,0.1,1.6,0.3,2.3c-0.1,0-0.2,0-0.4,0c-3.1,0-5.7,2.6-5.7,5.7S4.5,38,7.6,38
	h33.5c3.8,0,6.8-3.1,6.8-6.8S44.9,24.3,41.1,24.3z"/>
</svg>
