<?xml version="1.0" encoding="utf-8"?>
<!-- Generator: Adobe Illustrator 22.0.1, SVG Export Plug-In . SVG Version: 6.00 Build 0)  -->
<svg version="1.1" id="Layer_1"
	xmlns="http://www.w3.org/2000/svg" x="0px" y="0px" viewBox="0 0 50 50"
	style="enable-background:new 0 0 50 50;" xml:space="preserve">
<style type="text/css">
	.st0{fill:none;stroke:#0027D3;stroke-width:4;stroke-linecap:round;stroke-linejoin:round;stroke-miterlimit:10;}
	.st1{fill:none;stroke:#000000;stroke-width:4;stroke-linecap:round;stroke-linejoin:round;stroke-miterlimit:10;}
	.st2{opacity:0.5;fill:none;stroke:#000000;stroke-width:4;stroke-linecap:round;stroke-linejoin:round;stroke-miterlimit:10;}
</style>
<path class="st0" d="M26,24c0.3,0.3,0.4,0.6,0.4,1c0,0.8-0.6,1.4-1.4,1.4s-1.4-0.6-1.4-1.4c0-0.4,0.1-0.7,0.4-1"/>
<line class="st1" x1="70" y1="48" x2="58" y2="36"/>
<line class="st2" x1="-12" y1="25" x2="-12" y2="2"/>
<g>
	<path d="M83,30c0.5,0,1,0.2,1.4,0.6l12,12c0.8,0.8,0.8,2,0,2.8C96,45.8,95.5,46,95,46s-1-0.2-1.4-0.6l-12-12c-0.8-0.8-0.8-2,0-2.8
		C82,30.2,82.5,30,83,30 M83,26c-1.6,0-3.1,0.6-4.2,1.8C77.6,28.9,77,30.4,77,32c0,1.6,0.6,3.1,1.8,4.2l12,12
		c1.1,1.1,2.6,1.8,4.2,1.8s3.1-0.6,4.2-1.8c1.1-1.1,1.8-2.6,1.8-4.2s-0.6-3.1-1.8-4.2l-12-12C86.1,26.6,84.6,26,83,26L83,26z"/>
</g>
<path class="st1" d="M61,25c0-8.3,6.7-15,15-15s15,6.7,15,15s-6.7,15-15,15S61,33.3,61,25"/>
<g>
	<path class="st1" d="M44.9,36.5C46.9,33.1,48,29.2,48,25C48,12.3,37.7,2,25,2c-5.7,0-11,2.1-15,5.6V6c0-2.2-1.8-4-4-4S2,3.8,2,6v19
		c0,2.3,0.3,4.5,1,6.6C5.8,41.1,14.6,48,25,48c4.2,0,8.1-1.1,11.5-3.1"/>
	<g>
		<g>
			<path d="M25,12c7.2,0,13,5.8,13,13c0,1.9-0.4,3.7-1.2,5.3c-0.7,1.5-0.4,3.3,0.8,4.5l7.8,7.8C45.8,43,46,43.5,46,44
				c0,0.5-0.2,1-0.6,1.4C45,45.8,44.5,46,44,46s-1-0.2-1.4-0.6l-7.8-7.8c-0.8-0.8-1.8-1.2-2.8-1.2c-0.6,0-1.1,0.1-1.7,0.4
				C28.7,37.6,26.9,38,25,38c-7.2,0-13-5.8-13-13S17.8,12,25,12 M25,8C15.6,8,8,15.6,8,25s7.6,17,17,17c2.4,0,4.8-0.5,7-1.5l7.8,7.8
				c1.1,1.1,2.6,1.8,4.2,1.8s3.1-0.6,4.2-1.8c1.1-1.1,1.8-2.6,1.8-4.2s-0.6-3.1-1.8-4.2L40.5,32c1-2.2,1.5-4.6,1.5-7
				C42,15.6,34.4,8,25,8L25,8z"/>
		</g>
	</g>
</g>
<path class="st1" d="M-41,20c1.3,1.3,2.1,3.1,2.1,5c0,3.9-3.2,7.1-7.1,7.1s-7.1-3.2-7.1-7.1c0-1.9,0.7-3.7,2.1-5"/>
<path class="st1" d="M-68,31.6C-65.2,41.1-56.4,48-46,48c12.7,0,23-10.3,23-23S-33.3,2-46,2c-5.7,0-11,2.1-15,5.6V6c0-2.2-1.8-4-4-4
	s-4,1.8-4,4v19C-69,27.3-68.7,29.5-68,31.6z"/>
<g>
	<path d="M-46,12c7.2,0,13,5.8,13,13c0,2.9-0.9,5.5-2.5,7.7l9.9,9.9c0.8,0.8,0.8,2,0,2.8C-26,45.8-26.5,46-27,46s-1-0.2-1.4-0.6
		l-9.9-9.9c-2.1,1.6-4.8,2.5-7.7,2.5c-7.2,0-13-5.8-13-13S-53.2,12-46,12 M-46,8c-9.4,0-17,7.6-17,17s7.6,17,17,17
		c2.4,0,4.8-0.5,7-1.5l7.8,7.8c1.1,1.1,2.6,1.8,4.2,1.8s3.1-0.6,4.2-1.8c1.1-1.1,1.8-2.6,1.8-4.2s-0.6-3.1-1.8-4.2l-7.8-7.8
		c1-2.2,1.5-4.6,1.5-7C-29,15.6-36.6,8-46,8L-46,8z"/>
</g>
<circle class="st1" cx="25" cy="25" r="7"/>
</svg>
