<?xml version="1.0" encoding="utf-8"?>
<!-- Generator: Adobe Illustrator 21.1.0, SVG Export Plug-In . SVG Version: 6.00 Build 0)  -->
<svg version="1.1" id="Layer_1"
	xmlns="http://www.w3.org/2000/svg" x="0px" y="0px" viewBox="0 0 70 70"
	style="enable-background:new 0 0 70 70;" xml:space="preserve">
<path d="M63.5,58.8c-0.9-0.9-0.9-2.3-0.2-3.2c8.9-12.2,8.9-28.9,0-41.1c-0.7-1-0.7-2.4,0.2-3.2l1.6-1.6c0.9-0.9,0.9-2.4,0-3.4
	L63.8,5c-0.9-0.9-2.4-0.9-3.4,0l-1.6,1.6c-0.9,0.9-2.3,0.9-3.2,0.2c-12.2-8.9-28.9-8.9-41.1,0c-1,0.7-2.4,0.7-3.2-0.2L9.6,4.9
	C8.7,4,7.2,4,6.2,4.9L4.9,6.2C4,7.1,4,8.6,4.9,9.6l1.6,1.6c0.9,0.9,0.9,2.3,0.2,3.2c-8.9,12.2-8.9,28.9,0,41.1
	c0.7,1,0.7,2.4-0.2,3.2l-1.6,1.6c-0.9,0.9-0.9,2.4,0,3.4L6.2,65c0.9,0.9,2.4,0.9,3.4,0l1.6-1.6c0.8-0.8,2.1-0.9,3.1-0.3
	C20.1,67.5,27.2,70,35,70c0.9,0,1.8,0,2.7-0.1c0,0,0,0,0.1,0c0.9-0.1,1.7-0.2,2.5-0.3c0.1,0,0.2,0,0.3,0c0.8-0.1,1.6-0.3,2.4-0.5
	c0.1,0,0.3-0.1,0.4-0.1c0.7-0.2,1.5-0.4,2.2-0.6c0.2-0.1,0.4-0.1,0.5-0.2c0.7-0.2,1.3-0.5,2-0.7c0.2-0.1,0.5-0.2,0.7-0.3
	c0.6-0.2,1.1-0.5,1.7-0.8c0.3-0.2,0.7-0.3,1-0.5c0.4-0.2,0.8-0.4,1.2-0.7s0.9-0.5,1.3-0.8c0.3-0.2,0.6-0.4,0.9-0.6
	c0.3-0.2,0.5-0.3,0.8-0.5c1-0.7,2.4-0.7,3.2,0.2l1.6,1.6c0.9,0.9,2.4,0.9,3.4,0l1.3-1.3c0.9-0.9,0.9-2.4,0-3.4L63.5,58.8z
	 M55.8,54.2c-1.9-7-7.2-12.5-14-14.8c3.9-2.3,6.5-6.6,6.5-11.4c0-7.3-6-13.3-13.3-13.3s-13.3,6-13.3,13.3c0,4.9,2.6,9.1,6.5,11.4
	c-6.8,2.3-12.1,7.8-14.1,14.7C3.9,43,4.2,25.7,15,15C26,3.9,44,3.9,55,15C65.8,25.8,66.1,43.1,55.8,54.2z"/>
</svg>
