<?xml version="1.0" encoding="utf-8"?>
<!-- Generator: Adobe Illustrator 22.0.1, SVG Export Plug-In . SVG Version: 6.00 Build 0)  -->
<svg version="1.1" id="Layer_1" xmlns="http://www.w3.org/2000/svg" x="0px" y="0px"
	viewBox="0 0 50 50" style="enable-background:new 0 0 50 50;" xml:space="preserve">
<path d="M48.7,23.1c-1-0.4-2.2,0.1-2.6,1.2c-1.6,4.4-4.5,8.1-8.4,10.7c0,0,0,0,0,0c0,0,0,0,0,0c-2.4,1.7-5.2,2.8-8.1,3.5
	c-2.9,0.6-5.9,0.7-8.8,0.1c0,0,0,0,0,0c0,0,0,0,0,0c0,0,0,0,0,0c-7.7-1.5-14.2-6.9-17-14.3c-0.4-1-1.5-1.6-2.6-1.2
	c-1,0.4-1.6,1.5-1.2,2.6c1.8,4.8,4.9,8.8,8.8,11.8l-0.6,0.9c-0.6,0.9-0.3,2.2,0.6,2.8c0.3,0.2,0.7,0.3,1.1,0.3
	c0.7,0,1.3-0.3,1.7-0.9l0.6-0.9c1.9,1,3.9,1.8,5.9,2.4l-0.2,1c-0.2,1.1,0.5,2.1,1.6,2.3c0.1,0,0.2,0,0.4,0c0.9,0,1.8-0.7,2-1.6
	l0.2-1C23.1,42.9,24,43,25,43c1.2,0,2.4-0.1,3.6-0.3l0.2,1c0.2,0.9,1,1.6,2,1.6c0.1,0,0.3,0,0.4,0c1.1-0.2,1.8-1.3,1.5-2.4l-0.2-1
	c2.1-0.6,4-1.4,5.9-2.5l0.6,0.8c0.4,0.6,1,0.9,1.7,0.9c0.4,0,0.8-0.1,1.1-0.4c0.9-0.6,1.1-1.9,0.5-2.8l-0.6-0.8
	c3.7-3,6.6-6.9,8.2-11.4C50.3,24.7,49.7,23.5,48.7,23.1z"/>
</svg>
