<?xml version="1.0" encoding="utf-8"?>
<!-- Generator: Adobe Illustrator 22.0.1, SVG Export Plug-In . SVG Version: 6.00 Build 0)  -->
<svg version="1.1" id="Layer_1" xmlns="http://www.w3.org/2000/svg" x="0px" y="0px"
	viewBox="0 0 50 50" style="enable-background:new 0 0 50 50;" xml:space="preserve">
<g>
	<path d="M25,14.5c-5.8,0-10.5,4.7-10.5,10.5c0,5.8,4.7,10.5,10.5,10.5c5.8,0,10.5-4.7,10.5-10.5C35.5,19.2,30.8,14.5,25,14.5z
		 M25,31.5c-3.6,0-6.5-2.9-6.5-6.5s2.9-6.5,6.5-6.5s6.5,2.9,6.5,6.5S28.6,31.5,25,31.5z"/>
	<path d="M50,25.2c0-0.1,0-0.1,0-0.2c0-0.1,0-0.1,0-0.2c0-0.1,0-0.1,0-0.2c0-0.1,0-0.1-0.1-0.2c0,0,0-0.1,0-0.1c0,0,0-0.1-0.1-0.1
		c0,0,0,0,0,0c-1.7-4.6-4.7-8.7-8.7-11.7l0.6-0.9c0.6-0.9,0.3-2.2-0.6-2.8c-0.9-0.6-2.2-0.3-2.8,0.6l-0.6,0.9c-2-1.1-3.9-1.9-6-2.4
		l0.2-1c0.2-1.1-0.5-2.1-1.6-2.3c-1.1-0.2-2.1,0.5-2.3,1.6l-0.2,1c-2.1-0.2-4.3-0.2-6.4,0.1l-0.2-0.9C21,5.2,20,4.5,18.9,4.7
		C17.8,5,17.1,6,17.3,7.1L17.5,8c-2.1,0.6-4,1.5-5.9,2.6L11,9.7c-0.6-0.9-1.9-1.1-2.8-0.5c-0.9,0.6-1.1,1.9-0.5,2.8l0.6,0.8
		c-3.6,2.9-6.4,6.8-8.2,11.3c0,0,0,0,0,0c0,0,0,0.1-0.1,0.1c0,0,0,0.1,0,0.1c0,0.1,0,0.1-0.1,0.2c0,0.1,0,0.1,0,0.2
		c0,0.1,0,0.1,0,0.2c0,0.1,0,0.1,0,0.2c0,0.1,0,0.1,0,0.2c0,0.1,0,0.1,0.1,0.2c0,0,0,0.1,0,0.1c3.2,8.6,10.8,15.1,20,16.9
		c0,0,0,0,0,0c0,0,0,0,0,0c1.6,0.3,3.3,0.5,4.9,0.5c1.8,0,3.7-0.2,5.5-0.6c3.4-0.7,6.6-2.1,9.5-4.1c0,0,0,0,0,0
		c4.4-3.1,7.8-7.4,9.8-12.6c0,0,0-0.1,0-0.1c0-0.1,0-0.1,0.1-0.2C50,25.3,50,25.3,50,25.2z M37.8,35.1
		C37.8,35.1,37.8,35.1,37.8,35.1c-2.5,1.7-5.1,2.9-8.1,3.5c-2.9,0.6-5.9,0.7-8.8,0.1c0,0,0,0,0,0C13.3,37.2,7,32,4.2,25
		c1.7-4.1,4.5-7.6,8.1-10.1l0,0c0,0,0,0,0,0c2.5-1.7,5.1-2.9,8.1-3.5c2.9-0.6,5.9-0.7,8.8-0.1c0,0,0,0,0,0c0,0,0,0,0,0
		c2.8,0.5,5.5,1.6,8.2,3.3c3.9,2.5,6.9,6.2,8.5,10.3C44.1,29.1,41.3,32.6,37.8,35.1z"/>
</g>
</svg>
