<?xml version="1.0" encoding="utf-8"?>
<!-- Generator: Adobe Illustrator 21.1.0, SVG Export Plug-In . SVG Version: 6.00 Build 0)  -->
<svg version="1.1" id="Layer_1" xmlns="http://www.w3.org/2000/svg" x="0px" y="0px"
	viewBox="0 0 50 50" style="enable-background:new 0 0 50 50;" xml:space="preserve">
<path d="M25,14.4c-5.7,0-10.4,4.7-10.4,10.5S19.3,35.5,25,35.5s10.4-4.7,10.4-10.5S30.7,14.4,25,14.4z M25,31.3
	c-3.5,0-6.3-2.8-6.3-6.3s2.9-6.3,6.3-6.3s6.3,2.8,6.3,6.3S28.5,31.3,25,31.3z"/>
<path d="M49,22.1C41.6,12.9,33.5,8.2,25,8.2S8.4,12.8,1,22.1c-1.3,1.6-1.3,4,0,5.7c7.4,9.2,15.5,13.9,24,13.9s16.6-4.7,24-13.9
	C50.3,26.3,50.3,23.8,49,22.1z M45.8,25.2C39.2,33.4,32.2,37.5,25,37.5S10.8,33.4,4.2,25.2c-0.1-0.2-0.1-0.4,0-0.5
	c6.6-8.2,13.6-12.3,20.8-12.3s14.2,4.2,20.8,12.3C45.9,24.8,45.9,25.1,45.8,25.2z"/>
</svg>
