<?xml version="1.0" encoding="utf-8"?>
<!-- Generator: Adobe Illustrator 22.0.1, SVG Export Plug-In . SVG Version: 6.00 Build 0)  -->
<svg version="1.1" id="Layer_1"
	xmlns="http://www.w3.org/2000/svg" x="0px" y="0px" viewBox="0 0 50 50"
	style="enable-background:new 0 0 50 50;" xml:space="preserve">
<g>
	<path d="M25,18.5c1.4,0,2.5,1.1,2.5,2.5c0,1.1,0.9,2,2,2s2-0.9,2-2c0-2.9-1.9-5.3-4.5-6.2V14c0-1.1-0.9-2-2-2s-2,0.9-2,2v0.8
		c-2.6,0.8-4.5,3.3-4.5,6.2c0,3.6,2.9,6.5,6.5,6.5c1.4,0,2.5,1.1,2.5,2.5s-1.1,2.5-2.5,2.5c-1.4,0-2.5-1.1-2.5-2.5c0-1.1-0.9-2-2-2
		s-2,0.9-2,2c0,2.9,1.9,5.3,4.5,6.2V37c0,1.1,0.9,2,2,2s2-0.9,2-2v-0.8c2.6-0.8,4.5-3.3,4.5-6.2c0-3.6-2.9-6.5-6.5-6.5
		c-1.4,0-2.5-1.1-2.5-2.5S23.6,18.5,25,18.5z"/>
	<path d="M35,0H15c-3.3,0-6,2.7-6,6v38c0,3.3,2.7,6,6,6h20c3.3,0,6-2.7,6-6V6C41,2.7,38.3,0,35,0z M37,44c0,1.1-0.9,2-2,2H15
		c-1.1,0-2-0.9-2-2V6c0-1.1,0.9-2,2-2h4c0,1.7,1.3,3,3,3h6c1.7,0,3-1.3,3-3h4c1.1,0,2,0.9,2,2V44z"/>
</g>
</svg>
