<?xml version="1.0" encoding="utf-8"?>
<!-- Generator: Adobe Illustrator 21.1.0, SVG Export Plug-In . SVG Version: 6.00 Build 0)  -->
<svg version="1.1" id="Layer_1"
	xmlns="http://www.w3.org/2000/svg" x="0px" y="0px" viewBox="0 0 46 46"
	style="enable-background:new 0 0 46 46;" xml:space="preserve">
<path d="M45.2,13.4c-0.9-0.7-2.1-0.5-2.8,0.4l-0.3,0.4L39.5,3.9C39,1.6,37,0,34.6,0H11.2C9,0,7,1.6,6.5,3.7C5.9,5.8,5.4,8,4.9,10.1
	c-0.3,1.4-0.6,2.7-1,4.1l-0.3-0.5c-0.7-0.9-1.9-1.1-2.8-0.4c-0.9,0.7-1.1,1.9-0.4,2.8l1.7,2.2C2,18.6,2,18.8,2,19v22
	c0,2.8,2.2,5,5,5c2.1,0,3.9-1.3,4.6-3.1l0.5-1.2c0.2-0.4,0.5-0.7,1-0.7h20c0.4,0,0.7,0.2,0.8,0.5l0.5,1.4C35.1,44.8,37,46,39,46
	c2.8,0,5-2.2,5-5V19c0-0.2,0-0.4-0.1-0.6l1.7-2.2C46.3,15.3,46.1,14.1,45.2,13.4z M8.8,11c0.5-2.1,0.9-4.2,1.5-6.4
	C10.4,4.3,10.8,4,11.2,4h23.4c0.4,0,0.8,0.2,1,0.8L38.9,18c-0.8,0.5-1.6,1-1.9,1L9.1,19c-0.3,0-1.1-0.5-2-1
	C7.8,15.6,8.3,13.3,8.8,11z M39,42c-0.4,0-0.8-0.2-0.9-0.6l-0.5-1.3C36.9,38.3,35.1,37,33,37H13c-2,0-3.9,1.2-4.7,3.2l-0.5,1.3
	C7.7,41.8,7.4,42,7,42c-0.5,0-1-0.4-1-1V22c1,0.5,2.1,1,3,1h28c0.9,0,2-0.5,3-1v19C40,41.6,39.6,42,39,42z"/>
<path d="M13,25c-2.8,0-5,2.2-5,5s2.2,5,5,5s5-2.2,5-5S15.8,25,13,25z M13,31c-0.6,0-1-0.4-1-1s0.4-1,1-1s1,0.4,1,1S13.6,31,13,31z"
	/>
<path d="M33,25c-2.8,0-5,2.2-5,5s2.2,5,5,5s5-2.2,5-5S35.8,25,33,25z M33,31c-0.6,0-1-0.4-1-1s0.4-1,1-1s1,0.4,1,1S33.6,31,33,31z"
	/>
</svg>
