<?xml version="1.0" encoding="utf-8"?>
<!-- Generator: Adobe Illustrator 22.0.1, SVG Export Plug-In . SVG Version: 6.00 Build 0)  -->
<svg version="1.1" id="Layer_1"
	xmlns="http://www.w3.org/2000/svg" x="0px" y="0px" viewBox="0 0 50 50"
	style="enable-background:new 0 0 50 50;" xml:space="preserve">
<path d="M10.6,50c-0.7,0-1.3-0.3-1.7-0.9c-0.4-0.6-0.7-1.2-1.1-1.7c-0.6-0.9-0.3-2.2,0.7-2.7c0.9-0.6,2.2-0.3,2.7,0.7
	c0.3,0.5,0.7,1.1,1,1.7c0.6,0.9,0.3,2.2-0.6,2.8C11.3,49.9,10.9,50,10.6,50z"/>
<path d="M7.2,44.1c-0.7,0-1.4-0.4-1.8-1.1c-0.7-1.3-1.2-2.5-1.7-3.7c-0.4-1,0.1-2.2,1.1-2.6c1-0.4,2.2,0.1,2.6,1.1
	c0.4,1,0.9,2.2,1.5,3.4c0.5,1,0.1,2.2-0.9,2.7C7.8,44,7.5,44.1,7.2,44.1z M4.2,35.9c-1,0-1.8-0.7-2-1.7C2.1,33.5,2,32.8,2,32.2
	c0-1,0.1-1.9,0.4-2.7c0.3-1,1.5-1.6,2.5-1.3c1,0.3,1.6,1.5,1.3,2.5C6.1,31.1,6,31.6,6,32.2c0,0.4,0,0.9,0.1,1.4
	c0.2,1.1-0.6,2.1-1.7,2.3C4.4,35.9,4.3,35.9,4.2,35.9z M7.8,29.1c-0.9,0-1.7-0.6-1.9-1.5c-0.3-1.1,0.4-2.2,1.5-2.4
	c1.4-0.3,3-0.4,4.3-0.4c0,0,0,0,0,0c1.1,0,2,0.9,2,2c0,1.1-0.9,2-2,2c-1.6,0-2.6,0.1-3.4,0.3C8.1,29,8,29.1,7.8,29.1z M33.6,26.1
	c-0.8,0-1.6-0.5-1.9-1.4c-0.3-1.1,0.3-2.2,1.3-2.5c1.3-0.4,2.4-0.8,3.5-1.2c1-0.4,2.2,0.1,2.6,1.1c0.4,1-0.1,2.2-1.1,2.6
	c-1.2,0.5-2.4,0.9-3.8,1.3C34,26.1,33.8,26.1,33.6,26.1z M41.7,22.7c-0.7,0-1.3-0.3-1.7-1c-0.6-0.9-0.3-2.2,0.7-2.7
	c1.1-0.7,1.9-1.3,2.4-2c0.7-0.9,1.9-1,2.8-0.4c0.9,0.7,1,1.9,0.4,2.8c-0.8,1-1.9,2-3.5,3C42.4,22.6,42,22.7,41.7,22.7z M44.7,15.8
	c-0.6,0-1.3-0.3-1.6-0.9c-0.5-0.8-1.5-1.5-2.4-2.3c-0.9-0.7-1-2-0.3-2.8c0.7-0.9,2-1,2.8-0.3c1.1,0.9,2.3,1.9,3.1,3.1
	c0.6,0.9,0.4,2.2-0.5,2.8C45.5,15.7,45.1,15.8,44.7,15.8z M38.6,9.7c-0.7,0-1.4-0.4-1.8-1.1c-0.4-0.7-0.5-1.4-0.5-2.1
	c0-0.2,0-0.4,0.1-0.7c0.2-1.2,0.9-2.2,2.1-3.1c0.9-0.7,2.1-0.5,2.8,0.4C41.8,4,41.7,5.3,40.8,6c-0.4,0.3-0.5,0.5-0.5,0.6
	c0,0.1,0,0.1,0.1,0.2c0.5,1,0.1,2.2-0.8,2.7C39.2,9.7,38.9,9.7,38.6,9.7z"/>
<path d="M44,4.5c-0.9,0-1.7-0.6-1.9-1.5c-0.3-1.1,0.3-2.2,1.4-2.5c0.7-0.2,1.4-0.4,2.1-0.5c1.1-0.2,2.1,0.5,2.4,1.5
	c0.2,1.1-0.5,2.1-1.5,2.4c-0.6,0.1-1.2,0.3-1.8,0.4C44.4,4.4,44.2,4.5,44,4.5z"/>
<path d="M22.6,34c-4.4,0-7.9-3.6-7.9-7.9s3.6-7.9,7.9-7.9c4.4,0,7.9,3.6,7.9,7.9S27,34,22.6,34z M22.6,22.1c-2.2,0-3.9,1.8-3.9,3.9
	s1.8,3.9,3.9,3.9c2.2,0,3.9-1.8,3.9-3.9S24.8,22.1,22.6,22.1z"/>
</svg>
