<?xml version="1.0" encoding="utf-8"?>
<!-- Generator: Adobe Illustrator 22.0.1, SVG Export Plug-In . SVG Version: 6.00 Build 0)  -->
<svg version="1.1" id="Layer_1" xmlns="http://www.w3.org/2000/svg" x="0px" y="0px"
	viewBox="0 0 50 50" style="enable-background:new 0 0 50 50;" xml:space="preserve">
<style type="text/css">
	.st0{fill:none;stroke:#000000;stroke-width:4;stroke-linecap:round;stroke-linejoin:round;stroke-miterlimit:10;}
</style>
<polygon class="st0" points="47.9,48 43.4,44 38.9,48 34.3,44 29.8,48 25.3,44 20.7,48 16.2,44 11.7,48 7.2,44 1.9,48 1.9,2 47.9,2
	"/>
<line class="st0" x1="8.9" y1="22" x2="40.9" y2="22"/>
<line class="st0" x1="8.9" y1="32" x2="40.9" y2="32"/>
<g>
	<path d="M27.9,9c0-1.7-1.3-3-3-3s-3,1.3-3,3c0,1.3,0.9,2.4,2.1,2.8V14c0,0.5,0.5,1,1,1s1-0.5,1-1v-2.2C27.1,11.4,27.9,10.3,27.9,9z
		"/>
</g>
</svg>
