<?xml version="1.0" encoding="utf-8"?>
<!-- Generator: Adobe Illustrator 22.0.1, SVG Export Plug-In . SVG Version: 6.00 Build 0)  -->
<svg version="1.1" id="Layer_1"
	xmlns="http://www.w3.org/2000/svg" x="0px" y="0px" viewBox="0 0 50 50"
	style="enable-background:new 0 0 50 50;" xml:space="preserve">
<style type="text/css">
	.st0{display:none;}
	.st1{display:inline;}
	.st2{fill:none;stroke:#000000;stroke-width:4;stroke-linecap:round;stroke-linejoin:round;stroke-miterlimit:10;}
</style>
<g class="st0">
	<path class="st1" d="M46.5,41.1c0-3.3-2.6-5.9-5.9-5.9c-3.3,0-5.9,2.6-5.9,5.9s2.6,5.9,5.9,5.9l0,0C43.9,47,46.5,44.4,46.5,41.1z
		 M38.1,41.1c0-1.4,1.1-2.5,2.5-2.5s2.5,1.1,2.5,2.5s-1.1,2.5-2.5,2.5l0,0C39.3,43.7,38.1,42.5,38.1,41.1L38.1,41.1z"/>
	<path class="st1" d="M46,11.1H28.8c-0.9,0-1.7,0.8-1.7,1.7s0.8,1.7,1.7,1.7H46c0.3,0,0.6,0.2,0.6,0.5c0,0.1,0,0.1,0,0.2l-3.1,12.5
		c-0.2,0.8-0.9,1.3-1.6,1.3H19c-0.8,0-1.5-0.5-1.6-1.3l-5-20.8C11.8,4.6,9.7,3,7.4,3H1.7C0.8,3,0,3.7,0,4.6s0.8,1.7,1.7,1.7h5.7
		c0.8,0,1.5,0.5,1.6,1.3l5,20.8c0.5,2.3,2.6,3.9,4.9,3.9h22.9c2.3,0,4.4-1.6,4.9-3.9L49.9,16c0.5-2.1-0.8-4.3-2.9-4.8
		C46.7,11.2,46.4,11.1,46,11.1L46,11.1z"/>
	<path class="st1" d="M24.6,41.1c0-3.3-2.6-5.9-5.9-5.9s-5.9,2.6-5.9,5.9c0,3.3,2.6,5.9,5.9,5.9S24.6,44.4,24.6,41.1z M16.2,41.1
		c0-1.4,1.1-2.5,2.5-2.5s2.5,1.1,2.5,2.5s-1.1,2.5-2.5,2.5l0,0C17.4,43.7,16.2,42.5,16.2,41.1z"/>
</g>
<path class="st2" d="M11.7,16.6L11.7,16.6c-1.3-2.6-1.3-5.7,0.1-8.2c1.5-2.8,4.5-4.5,7.5-5.5c3.3-1.1,6.9-1.2,10.2-0.4
	c3,0.7,6.3,2.3,8.1,4.8c1.9,2.7,2.2,6.3,0.7,9.3l0,0c-0.1,0.2-0.2,0.4-0.3,0.6c-0.8,2.2-0.5,4.6,0.7,6.7c2,3.3,2.4,7.1,2,10.9
	c-0.9,5.8-5.2,10.6-10.7,12.4c-5.7,1.9-12.1,0.3-16.3-4c-2.3-2.3-3.9-5.3-4.4-8.5C9,33.1,9.1,31.6,9.1,30c0.3-2.3,1.2-4.4,2.3-6.5
	c1.1-2,1.4-4.3,0.5-6.4C11.9,16.9,11.8,16.7,11.7,16.6z"/>
<path class="st2" d="M30.9,17.1c0.3-1.2,0.7-2.5,1.3-3.7c0-0.1,0.1-0.1,0.1-0.1c1.9-3.3-5.2-4.7-7.2-4.7c-2.2,0-8.9,1.3-7.2,4.8v0.1
	c0.6,1.2,1,2.5,1.3,3.7C22.9,15.5,27.1,15.7,30.9,17.1z"/>
</svg>
