<?xml version="1.0" encoding="utf-8"?>
<!-- Generator: Adobe Illustrator 21.1.0, SVG Export Plug-In . SVG Version: 6.00 Build 0)  -->
<svg version="1.1" id="Layer_1"
	xmlns="http://www.w3.org/2000/svg" x="0px" y="0px" viewBox="0 0 50 50"
	style="enable-background:new 0 0 50 50;" xml:space="preserve">
<circle cx="25" cy="20" r="5"/>
<path d="M25,0C14.3,0,5.7,9.1,5.7,20.2c0,2.4,1,5.6,3.1,9.4c1.7,3.2,4.1,6.8,7.2,10.8c2.2,2.8,4.7,5.8,7.3,8.7l0.3,0.3
	c0.4,0.4,0.9,0.7,1.5,0.7c0.6,0,1.1-0.2,1.5-0.7l0.3-0.3c2.7-2.9,5.1-5.8,7.3-8.7c3.1-4,5.5-7.5,7.2-10.8c2-3.8,3.1-7,3.1-9.4
	C44.3,9.1,35.7,0,25,0z M37.7,27.7c-1.6,3.1-3.9,6.4-6.8,10.2c-1.8,2.3-3.8,4.7-5.9,7.1c-2.1-2.4-4.1-4.7-5.9-7.1
	c-3-3.8-5.2-7.2-6.8-10.2c-2.3-4.2-2.6-6.5-2.6-7.5C9.7,11.3,16.5,4,25,4s15.3,7.3,15.3,16.2C40.3,21.2,40,23.5,37.7,27.7z"/>
</svg>
