<?xml version="1.0" encoding="utf-8"?>
<!-- Generator: Adobe Illustrator 22.0.1, SVG Export Plug-In . SVG Version: 6.00 Build 0)  -->
<svg version="1.1" id="Capa_1" xmlns="http://www.w3.org/2000/svg" x="0px" y="0px"
	viewBox="0 0 50 50" style="enable-background:new 0 0 50 50;" xml:space="preserve">
<style type="text/css">
	.st0{fill:none;stroke:#000000;stroke-width:4;stroke-linecap:round;stroke-linejoin:round;stroke-miterlimit:10;}
</style>
<circle class="st0" cx="25" cy="25" r="23"/>
<g>
	<line class="st0" x1="34.1" y1="19.4" x2="34.1" y2="21.5"/>
	<line class="st0" x1="34.1" y1="40" x2="34.1" y2="21.5"/>
	<line class="st0" x1="30" y1="12.6" x2="30" y2="15.3"/>
	<path class="st0" d="M32.1,21.5c1.2,0,2.1-0.9,2.1-2.1"/>
	<line class="st0" x1="38.2" y1="12.6" x2="38.2" y2="15.3"/>
	<path class="st0" d="M36.2,21.5c-1.2,0-2.1-0.9-2.1-2.1"/>
	<line class="st0" x1="34.1" y1="19.4" x2="34.1" y2="12"/>
	<line class="st0" x1="32.1" y1="21.5" x2="34.1" y2="21.5"/>
	<line class="st0" x1="34.1" y1="21.5" x2="36.2" y2="21.5"/>
	<path class="st0" d="M32.1,21.5c-1.2,0-2.1-0.9-2.1-2.1v-4.1"/>
	<path class="st0" d="M38.2,15.3v4.1c0,1.2-0.9,2.1-2.1,2.1"/>
</g>
<g>
	<line class="st0" x1="25" y1="12" x2="25" y2="40"/>
</g>
<g>
	<path class="st0" d="M15.9,12c2.3,0,4.1,2.2,4.1,4.9c0,2.7-1.8,4.9-4.1,4.9"/>
	<path class="st0" d="M15.9,12c-2.3,0-4.1,2.2-4.1,4.9c0,2.7,1.8,4.9,4.1,4.9"/>
	<line class="st0" x1="15.9" y1="21.9" x2="15.9" y2="40"/>
</g>
</svg>
