<?xml version="1.0" encoding="utf-8"?>
<!-- Generator: Adobe Illustrator 22.0.1, SVG Export Plug-In . SVG Version: 6.00 Build 0)  -->
<svg version="1.1" id="Capa_1" xmlns="http://www.w3.org/2000/svg" x="0px" y="0px"
	viewBox="0 0 50 50" style="enable-background:new 0 0 50 50;" xml:space="preserve">
<g>
	<path d="M2,42h46c1.1,0,2-0.9,2-2s-0.9-2-2-2h-1.1C46,27.9,38.2,19.7,28.3,18.2c0.4-0.6,0.7-1.4,0.7-2.2c0-2.2-1.8-4-4-4
		c-2.2,0-4,1.8-4,4c0,0.8,0.3,1.6,0.7,2.2C11.8,19.7,4,27.9,3.1,38H2c-1.1,0-2,0.9-2,2S0.9,42,2,42z M25,16C25,16,25,16,25,16l0,2
		L25,16z M25,22c9.2,0,16.9,7,17.9,16H7.1C8.1,29,15.8,22,25,22z"/>
	<path d="M48,46H2c-1.1,0-2,0.9-2,2s0.9,2,2,2h46c1.1,0,2-0.9,2-2S49.1,46,48,46z"/>
	<path d="M14.8,9.1c-0.5,1-0.1,2.2,0.9,2.7c0.3,0.1,0.6,0.2,0.9,0.2c0.7,0,1.4-0.4,1.8-1.1c0.1-0.3,1.4-3,0-5.8c-0.5-1,0-2.2,0-2.2
		c0.5-1,0.1-2.2-0.9-2.7c-1-0.5-2.2-0.1-2.7,0.9c-0.1,0.3-1.4,3,0,5.8C15.3,7.9,14.8,9.1,14.8,9.1z"/>
	<path d="M4.8,14.1c-0.5,1-0.1,2.2,0.9,2.7C6,16.9,6.3,17,6.6,17c0.7,0,1.4-0.4,1.8-1.1c0.1-0.3,1.4-3,0-5.8c-0.5-1,0-2.2,0-2.2
		c0.5-1,0.1-2.2-0.9-2.7c-1-0.5-2.2-0.1-2.7,0.9c-0.1,0.3-1.4,3,0,5.8C5.3,12.9,4.8,14.1,4.8,14.1z"/>
	<path d="M31.6,9.1c-0.5,1-0.1,2.2,0.9,2.7c0.3,0.1,0.6,0.2,0.9,0.2c0.7,0,1.4-0.4,1.8-1.1c0.1-0.3,1.4-3,0-5.8c-0.5-1,0-2.2,0-2.2
		c0.5-1,0.1-2.2-0.9-2.7c-1-0.5-2.2-0.1-2.7,0.9c-0.1,0.3-1.4,3,0,5.8C32.1,7.9,31.6,9.1,31.6,9.1z"/>
	<path d="M40.6,14.1c-0.5,1-0.1,2.2,0.9,2.7c0.3,0.1,0.6,0.2,0.9,0.2c0.7,0,1.4-0.4,1.8-1.1c0.1-0.3,1.4-3,0-5.8c-0.5-1,0-2.2,0-2.2
		c0.5-1,0.1-2.2-0.9-2.7c-1-0.5-2.2-0.1-2.7,0.9c-0.1,0.3-1.4,3,0,5.8C41.1,12.9,40.6,14.1,40.6,14.1z"/>
</g>
</svg>
