<?xml version="1.0" encoding="utf-8"?>
<!-- Generator: Adobe Illustrator 22.0.1, SVG Export Plug-In . SVG Version: 6.00 Build 0)  -->
<svg version="1.1" id="Layer_1"
	xmlns="http://www.w3.org/2000/svg" x="0px" y="0px" viewBox="0 0 50 50"
	style="enable-background:new 0 0 50 50;" xml:space="preserve">
<path d="M38.5,17.5c0-5.1-3-9.8-7.5-12C30.8,2.4,28.2,0,25,0s-5.8,2.4-6,5.5c-4.5,2.2-7.5,6.9-7.5,12c0,3.6,1.4,6.9,3.8,9.3
	c-2.2,0.9-3.8,3-3.8,5.6c0,5.1,3,9.8,7.5,12c0.2,3.1,2.8,5.5,6,5.5s5.8-2.4,6-5.5c4.5-2.2,7.5-6.9,7.5-12c0-3.6-1.4-6.9-3.8-9.3
	C36.9,22.2,38.5,20.1,38.5,17.5z M25,12.1c-3,0-5.4,2.4-5.4,5.4s2.4,5.4,5.4,5.4c5.2,0,9.4,4.2,9.4,9.4c0,4.5-3.2,8.3-7.4,9.2V44
	c0,1.1-0.9,2-2,2s-2-0.9-2-2v-2.3c-4.2-0.9-7.4-4.7-7.4-9.2c0-1.1,0.9-2,2-2c1.1,0,2,0.9,2,2c0,3,2.4,5.4,5.4,5.4s5.4-2.4,5.4-5.4
	S28,27.1,25,27.1c-5.2,0-9.4-4.2-9.4-9.4c0-4.5,3.2-8.3,7.4-9.2V6c0-1.1,0.9-2,2-2s2,0.9,2,2v2.3c4.2,0.9,7.4,4.7,7.4,9.2
	c0,1.1-0.9,2-2,2c-1.1,0-2-0.9-2-2C30.4,14.5,28,12.1,25,12.1z M26.6,19.1C26.1,19,25.6,19,25,19c-0.8,0-1.4-0.6-1.4-1.4
	c0-0.8,0.6-1.4,1.4-1.4s1.4,0.6,1.4,1.4C26.4,18.1,26.5,18.6,26.6,19.1z M23.4,31c0.5,0,1,0,1.6,0c0.8,0,1.4,0.6,1.4,1.4
	c0,0.9-0.6,1.5-1.4,1.5s-1.4-0.6-1.4-1.4C23.6,32,23.5,31.5,23.4,31z"/>
</svg>
