<?xml version="1.0" encoding="utf-8"?>
<!-- Generator: Adobe Illustrator 22.0.1, SVG Export Plug-In . SVG Version: 6.00 Build 0)  -->
<svg version="1.1" id="Layer_1"
	xmlns="http://www.w3.org/2000/svg" x="0px" y="0px" viewBox="0 0 50 50"
	style="enable-background:new 0 0 50 50;" xml:space="preserve">
<path d="M25,23c-3.9,0-7-3.1-7-7s3.1-7,7-7c3.9,0,7,3.1,7,7c0,1.1,0.9,2,2,2s2-0.9,2-2c0-5.4-3.9-9.9-9-10.8V2c0-1.1-0.9-2-2-2
	s-2,0.9-2,2v3.2c-5.1,0.9-9,5.4-9,10.8c0,6.1,4.9,11,11,11c3.9,0,7,3.1,7,7s-3.1,7-7,7c-3.9,0-7-3.1-7-7c0-1.1-0.9-2-2-2s-2,0.9-2,2
	c0,5.4,3.9,9.9,9,10.8V48c0,1.1,0.9,2,2,2s2-0.9,2-2v-3.2c5.1-0.9,9-5.4,9-10.8C36,27.9,31.1,23,25,23z"/>
</svg>
