<?xml version="1.0" encoding="utf-8"?>
<!-- Generator: Adobe Illustrator 22.0.1, SVG Export Plug-In . SVG Version: 6.00 Build 0)  -->
<svg version="1.1" id="Layer_1"
	xmlns="http://www.w3.org/2000/svg" x="0px" y="0px" viewBox="0 0 50 50"
	style="enable-background:new 0 0 50 50;" xml:space="preserve">
<g>
	<path d="M25,0c-7.2,0-13,5.8-13,13c0,1.1,0.9,2,2,2s2-0.9,2-2c0-5,4-9,9-9c5,0,9,4,9,9c0,2.7-1.2,5.2-3.3,6.9
		c-0.1,0-0.1,0.1-0.2,0.2c-4.8,4-7.5,9.9-7.6,16.2c0,0,0,0,0,0c0,0,0,0,0,0v0.4c0,0,0,0,0,0c0,0.1,0,0.1,0,0.2c0,0.1,0,0.1,0,0.2
		c0,0.1,0,0.1,0.1,0.2c0,0.1,0,0.1,0.1,0.2c0,0.1,0.1,0.1,0.1,0.2c0,0,0,0.1,0.1,0.1c0,0.1,0.1,0.1,0.1,0.2c0,0,0.1,0.1,0.1,0.1
		c0.1,0.1,0.1,0.1,0.2,0.1c0,0,0.1,0.1,0.1,0.1c0.1,0,0.1,0.1,0.2,0.1c0,0,0.1,0.1,0.1,0.1c0.1,0,0.2,0.1,0.3,0.1c0,0,0.1,0,0.1,0
		c0.1,0,0.3,0,0.4,0c0,0,0,0,0,0c0.1,0,0.1,0,0.2,0c0.1,0,0.1,0,0.2,0c0.1,0,0.1,0,0.2-0.1c0.1,0,0.1,0,0.2-0.1
		c0.1,0,0.1-0.1,0.2-0.1c0,0,0.1-0.1,0.1-0.1c0.1,0,0.1-0.1,0.2-0.1c0,0,0.1-0.1,0.1-0.1c0,0,0.1-0.1,0.1-0.2c0,0,0.1-0.1,0.1-0.1
		c0-0.1,0.1-0.1,0.1-0.2c0-0.1,0.1-0.1,0.1-0.2c0-0.1,0-0.1,0.1-0.2c0-0.1,0-0.1,0.1-0.2c0-0.1,0-0.1,0-0.2c0-0.1,0-0.1,0-0.2v0
		v-0.4v0c0-5.2,2.3-10,6.3-13.3c0.1-0.1,0.1-0.1,0.2-0.2c2.9-2.5,4.5-6.1,4.5-9.8C38,5.8,32.2,0,25,0z"/>
	<path d="M22.4,42.9L22.4,42.9c-1.7,1.4-1.9,3.9-0.5,5.6c0.8,1,1.9,1.4,3.1,1.4c0.9,0,1.8-0.3,2.6-0.9c1.7-1.4,1.9-3.9,0.5-5.6
		C26.7,41.7,24.1,41.5,22.4,42.9z"/>
</g>
</svg>
