<?xml version="1.0" encoding="utf-8"?>
<!-- Generator: Adobe Illustrator 22.0.1, SVG Export Plug-In . SVG Version: 6.00 Build 0)  -->
<svg version="1.1" id="Layer_1"
	xmlns="http://www.w3.org/2000/svg" x="0px" y="0px" viewBox="0 0 50 50"
	style="enable-background:new 0 0 50 50;" xml:space="preserve">
<path d="M25,0c-7.9,0-14.3,6.4-14.3,14.3c0,3.3,2.7,6,6,6s6-2.7,6-6c0-1.3,1.1-2.3,2.3-2.3s2.3,1.1,2.3,2.3c0,0.7-0.3,1.3-0.9,1.8
	c-0.1,0.1-0.2,0.2-0.3,0.3c-4.5,3.9-7.1,9.6-7.2,15.5c0,1.6,0.6,3.1,1.7,4.3c1.1,1.1,2.6,1.8,4.2,1.8l0,0h0c-1.4,0-2.8,0.5-3.8,1.4
	c-2.5,2.1-2.9,5.9-0.8,8.4c1.1,1.4,2.8,2.2,4.6,2.2c1.4,0,2.8-0.5,3.8-1.4c2.5-2.1,2.9-5.9,0.8-8.4C28.5,38.8,26.8,38,25,38h0
	c3.3,0,6-2.7,6-5.9c0-2.6,1.2-5,3.2-6.7c0.1-0.1,0.2-0.2,0.3-0.3c3.1-2.7,4.8-6.6,4.8-10.7C39.3,6.4,32.9,0,25,0z M26.5,42.7
	c0.7,0.8,0.6,2.1-0.3,2.8C25.9,45.8,25.5,46,25,46c-0.6,0-1.1-0.2-1.5-0.7c-0.7-0.8-0.6-2.1,0.3-2.8c0.4-0.3,0.8-0.5,1.3-0.5
	C25.6,42,26.1,42.2,26.5,42.7z M31.8,22.2c0,0.1-0.1,0.1-0.2,0.1C28.7,24.7,27,28.2,27,32c0,1.1-0.9,2-2,2c0,0,0,0,0,0
	c-1.1,0-2-0.9-2-2c0-4.9,2.2-9.5,5.9-12.6c0,0,0.1-0.1,0.2-0.1c1.5-1.2,2.3-3,2.3-4.9c0-3.5-2.8-6.3-6.3-6.3s-6.3,2.8-6.3,6.3
	c0,1.1-0.9,2-2,2s-2-0.9-2-2C14.7,8.6,19.3,4,25,4c5.7,0,10.3,4.6,10.3,10.3C35.3,17.3,34,20.2,31.8,22.2z"/>
</svg>
