<?xml version="1.0" encoding="utf-8"?>
<!-- Generator: Adobe Illustrator 22.0.1, SVG Export Plug-In . SVG Version: 6.00 Build 0)  -->
<svg version="1.1" id="Layer_1"
	xmlns="http://www.w3.org/2000/svg" x="0px" y="0px" viewBox="0 0 50 50"
	style="enable-background:new 0 0 50 50;" xml:space="preserve">
<g>
	<path d="M44,19C44,7.2,32.8-2,21.2,0.4C9.5,2.8,2.8,15.7,7.6,26.6c1.2,2.6,2.9,5,5.2,6.9c1.1,0.9,2.3,1.7,3.5,2.4
		c0.6,0.3,1.3,0.6,1.9,0.9c0.3,0.1,0.7,0.2,0.8,0.4c0.2,0.4,0,1.2,0,1.6c0,0.9,0,1.9,0,2.8c0,1.8,0,3.6,0,5.4c0,1.5,0.3,2.9,2.1,2.9
		c1.7,0.1,3.4,0,5.1,0c1.4,0,3.6,0.4,4.5-0.9c0.7-1,0.3-2.8,0.3-3.8c0-2,0-3.9,0-5.9c0-0.6-0.1-1.4,0-2c0-0.1,0-0.3,0-0.3
		c0.2-0.3,1.4-0.5,1.7-0.7c5.4-2.4,9.4-7.2,10.8-12.9C43.8,22,44,20.5,44,19z M27,38c0,1.7,0,3.3,0,5c0,0.8,0.2,1.9,0,2.7
		c0,0.1,0,0.3,0,0.3c-0.1,0.1-0.9,0-1,0c-0.5,0-1.1,0-1.6,0c-0.2,0-1.1,0.1-1.3,0c-0.2-0.1-0.1-1-0.1-1.3c0-2.1,0-4.1,0-6.2
		c0-0.8,0.2-0.6,1-0.6C25,38,26,38,27,38z M25,34c-6.2,0-12-4-14.1-9.9c-2.1-5.9-0.3-12.7,4.6-16.7c4.8-4,11.9-4.5,17.3-1.3
		c5.4,3.2,8.2,9.6,7,15.7C38.4,28.8,32.1,34,25,34z"/>
	<path d="M21.9,14.4c-0.4-1.3-1.9-1.8-3-1.1c-0.7,0.4-1.3,1.2-1.8,1.8c-0.8,0.8-1.4,1.7-0.8,2.9c0.2,0.3,0.5,0.6,0.8,0.8
		c0.2,0.1,0.8,0.1,0.9,0.2c0.1,0.2,0,0.8,0,1c0,1.7-0.5,5.7,2.5,4.9c2-0.5,1.5-3.3,1.5-4.8c0-1.2,0-2.4,0-3.6
		C22,15.8,22.1,15.1,21.9,14.4z"/>
	<path d="M29,13c-2.6,0-4.8,2.1-5,4.7c-0.1,1.9-0.1,4,1.2,5.5c1.7,2,4.8,2.3,6.9,0.7c1.9-1.5,1.9-3.6,1.9-5.8C34,15.4,31.9,13,29,13
		z M30,20c0,1.4-1.8,1.2-2,0c-0.1-0.6-0.1-1.4,0-2c0.2-1.3,1.8-1.3,2,0C30.1,18.7,30,19.4,30,20z"/>
</g>
</svg>
