<svg xmlns="http://www.w3.org/2000/svg" viewBox="0 0 21 21"><path d="M0 0h7v7h-7zM9 0h1v1h1v-1h2v1h-1v1h1v1h-1v1h-1v-2h-1v2h-1v-1h-1v-1h1zM14 0h7v7h-7zM1 1v5h5v-5zM15 1v5h5v-5zM2 2h3v3h-3zM16 2h3v3h-3zM10 4h1v1h-1zM12 4h1v4h-1v1h-7v1h-1v-2h4v-2h1v1h1v1h1v-1h1zM10 6h1v1h-1zM0 8h3v1h-2v1h3v1h-3v1h-1zM13 8h2v2h-1v-1h-1zM18 8h1v1h-1zM17 9h1v1h-1zM20 9h1v2h-2v-1h1zM6 10h1v1h-1zM8 10h1v1h-1zM10 10h1v3h1v2h1v-2h1v1h1v-1h1v2h1v1h-1v2h-2v-1h-1v-1h-1v1h-2v1h-1v-1h-1v-4h2zM12 10h1v1h-1zM16 10h1v1h-1zM4 11h2v1h1v-1h1v2h-3v-1h-1zM14 11h1v2h-1zM2 12h2v1h-2zM12 12h1v1h-1zM16 12h2v2h-1v-1h-1zM19 12h2v1h-1v1h1v1h-2zM0 14h7v7h-7zM9 14v2h1v-2zM1 15v5h5v-5zM14 15v1h1v-1zM2 16h3v3h-3zM19 16h2v1h-1v1h-2v-1h1zM8 18h1v2h2v1h-3zM10 18h1v1h-1zM12 18h1v1h-1zM16 18h2v1h-1v1h1v1h-2v-1h-1v1h-1v-2h2zM20 18h1v1h-1zM19 19h1v1h1v1h-2zM12 20h1v1h-1z"/></svg>