<svg xmlns="http://www.w3.org/2000/svg" viewBox="0 0 21 21"><path d="M0 0h7v7h-7zM9 0h1v1h1v-1h2v1h-1v1h1v1h-1v1h-1v-2h-1v2h-1v-1h-1v-1h1zM14 0h7v7h-7zM1 1v5h5v-5zM15 1v5h5v-5zM2 2h3v3h-3zM16 2h3v3h-3zM10 4h1v1h-1zM12 4h1v4h-1v1h-1v2h-1v-2h-1v1h-1v1h-2v1h2v1h-3v-2h-1v-1h1v-1h-1v-1h4v-2h1v1h1v1h1v-1h1zM10 6h1v1h-1zM0 8h3v1h-2v1h1v1h2v2h-1v-1h-2v-1h-1zM13 8h2v1h-2zM18 8h1v1h-1zM6 9v1h1v-1zM15 9h3v1h1v-1h2v6h-6v-1h-2v-1h-1v-1h2v1h1v-2h-3v-1h3zM9 11h1v2h2v2h2v1h-2v1h-1v-3h-1v3h-2v-4h1zM17 11v1h-1v1h1v1h1v-1h2v-2zM0 14h7v7h-7zM1 15v5h5v-5zM2 16h3v3h-3zM14 16h3v2h1v1h-1v1h-1v1h-2v-2h1v-1h1v-1h-1v1h-1zM10 17h1v4h-1zM18 17h2v1h-2zM8 18h1v3h-1zM12 18h1v1h-1zM20 18h1v1h-1zM19 19h1v1h1v1h-2zM12 20h1v1h-1z"/></svg>