<?xml version="1.0" encoding="utf-8"?>
<!-- Generator: Adobe Illustrator 22.0.1, SVG Export Plug-In . SVG Version: 6.00 Build 0)  -->
<svg version="1.1" id="Layer_1"
	xmlns="http://www.w3.org/2000/svg" x="0px" y="0px" viewBox="0 0 50 50"
	style="enable-background:new 0 0 50 50;" xml:space="preserve">
<g>
	<path d="M48,23c-1.1,0-2,0.9-2,2c0,11.6-9.4,21-21,21C13.4,46,4,36.6,4,25C4,13.4,13.4,4,25,4c4.9,0,9.6,1.7,13.4,4.8L23.6,23.6
		c-0.8,0.8-0.8,2,0,2.8C24,26.8,24.5,27,25,27s1-0.2,1.4-0.6l16.3-16.3c0,0,0,0,0,0c0.8-0.8,0.8-2,0-2.8C38,2.6,31.7,0,25,0
		C11.2,0,0,11.2,0,25s11.2,25,25,25s25-11.2,25-25C50,23.9,49.1,23,48,23z"/>
	<path d="M29.5,13c0.7-0.3,1.1-1,1.1-1.7c0-0.3-0.1-0.6-0.3-0.9c-0.5-1-1.7-1.3-2.7-0.8c-1,0.5-1.3,1.7-0.8,2.7
		C27.3,13.2,28.5,13.5,29.5,13z"/>
	<path d="M24.5,20c0.7-0.3,1.1-1,1.1-1.7c0-0.3-0.1-0.6-0.3-0.9c-0.5-1-1.7-1.3-2.7-0.8c-1,0.5-1.3,1.7-0.8,2.7
		C22.3,20.2,23.5,20.5,24.5,20z"/>
	<path d="M17.6,10.5c-1,0.5-1.3,1.7-0.8,2.7c0.5,1,1.7,1.3,2.7,0.8c0.7-0.3,1.1-1,1.1-1.7c0-0.3-0.1-0.6-0.3-0.9
		C19.8,10.3,18.7,10,17.6,10.5z"/>
	<path d="M16.6,26.3c0-0.3-0.1-0.6-0.3-0.9c-0.5-1-1.7-1.3-2.7-0.8c-1,0.5-1.3,1.7-0.8,2.7c0.5,1,1.7,1.3,2.7,0.8
		C16.2,27.7,16.6,27,16.6,26.3z"/>
	<path d="M27.6,37.5c-1,0.5-1.3,1.7-0.8,2.7c0.5,1,1.7,1.3,2.7,0.8c0.7-0.3,1.1-1,1.1-1.7c0-0.3-0.1-0.6-0.3-0.9
		C29.8,37.3,28.7,37,27.6,37.5z"/>
	<path d="M12.6,31.5c-1,0.5-1.3,1.7-0.8,2.7c0.5,1,1.7,1.3,2.7,0.8c0.7-0.3,1.1-1,1.1-1.7c0-0.3-0.1-0.6-0.3-0.9
		C14.8,31.3,13.7,31,12.6,31.5z"/>
</g>
</svg>
