<?xml version="1.0" encoding="utf-8"?>
<!-- Generator: Adobe Illustrator 22.0.1, SVG Export Plug-In . SVG Version: 6.00 Build 0)  -->
<svg version="1.1" id="Layer_1" xmlns="http://www.w3.org/2000/svg" x="0px" y="0px"
	viewBox="0 0 50 50" style="enable-background:new 0 0 50 50;" xml:space="preserve">
<path d="M18.2,50c-0.3,0-0.6-0.1-0.8-0.2c-0.8-0.4-1.3-1.3-1.1-2.2L20,29h-7.2c-0.8,0-1.5-0.4-1.8-1.1s-0.3-1.5,0.2-2.1l19-25
	c0.6-0.7,1.6-1,2.4-0.6c0.9,0.4,1.3,1.3,1.1,2.2l-3.8,18.7h7.3c0.8,0,1.5,0.4,1.8,1.1s0.3,1.5-0.2,2.1l-19,24.9
	C19.4,49.7,18.8,50,18.2,50z"/>
</svg>
