<?xml version="1.0" encoding="utf-8"?>
<!-- Generator: Adobe Illustrator 22.0.1, SVG Export Plug-In . SVG Version: 6.00 Build 0)  -->
<svg version="1.1" id="Layer_1"
	xmlns="http://www.w3.org/2000/svg" x="0px" y="0px" viewBox="0 0 50 50"
	style="enable-background:new 0 0 50 50;" xml:space="preserve">
<style type="text/css">
	.st0{fill:none;stroke:#000000;stroke-width:4;stroke-miterlimit:10;}
	.st1{opacity:0.49;}
	.st2{fill:#FF4141;}
	.st3{fill:none;stroke:#FF4141;stroke-width:4;stroke-linecap:round;stroke-linejoin:round;stroke-miterlimit:10;}
</style>
<circle class="st0" cx="86.7" cy="28.3" r="16"/>
<g class="st1">
	<g>
		<path class="st2" d="M71.3,47.7c-1.1,0-2.1-0.4-2.8-1.2c-1.6-1.6-1.6-4.1,0-5.7l1.9-1.9c-0.8-0.7-1.3-1.8-1.3-3c0-2.2,1.8-4,4-4
			H79c0.3,0,0.5,0,0.8,0.1c0.1,0,0.2,0.1,0.4,0.1c0.2,0,0.3,0.1,0.4,0.1c0.1,0,0.2,0.1,0.4,0.2c0.1,0.1,0.2,0.1,0.3,0.2
			c0.4,0.3,0.8,0.7,1.1,1.1c0.1,0.1,0.1,0.2,0.2,0.3c0.1,0.1,0.1,0.2,0.2,0.4c0.1,0.1,0.1,0.3,0.1,0.4c0,0.1,0.1,0.2,0.1,0.4
			C83,35.5,83,35.7,83,36v5.9c0,2.2-1.8,4-4,4c-1.2,0-2.2-0.5-3-1.3l-1.9,1.9C73.3,47.3,72.3,47.7,71.3,47.7z"/>
		<path d="M79,34c0.1,0,0.3,0,0.4,0c0.1,0,0.1,0,0.2,0.1c0.1,0,0.1,0,0.2,0.1c0.1,0,0.1,0.1,0.2,0.1c0,0,0.1,0,0.1,0.1
			c0.2,0.1,0.4,0.3,0.6,0.6c0,0,0.1,0.1,0.1,0.1c0,0.1,0.1,0.1,0.1,0.2c0,0.1,0,0.1,0.1,0.2c0,0.1,0,0.1,0.1,0.2c0,0.1,0,0.3,0,0.4
			v5.9c0,1.1-0.9,2-2,2c-1.1,0-2-0.9-2-2v-1.1l-4.3,4.3c-0.4,0.4-0.9,0.6-1.4,0.6s-1-0.2-1.4-0.6c-0.8-0.8-0.8-2,0-2.8l4.3-4.3h-1.1
			c-1.1,0-2-0.9-2-2s0.9-2,2-2H79 M79,30h-5.9c-3.3,0-6,2.7-6,6c0,1,0.2,1.9,0.7,2.8L67,39.5c-2.3,2.3-2.3,6.1,0,8.5
			c1.1,1.1,2.6,1.8,4.2,1.8s3.1-0.6,4.2-1.8l0.7-0.7c0.8,0.4,1.8,0.7,2.8,0.7c3.3,0,6-2.7,6-6V36c0-0.4,0-0.8-0.1-1.2
			c0-0.2-0.1-0.4-0.1-0.6c0-0.1-0.1-0.3-0.2-0.6c-0.1-0.3-0.2-0.5-0.3-0.6c-0.1-0.1-0.2-0.3-0.3-0.5c-0.4-0.7-1-1.2-1.7-1.7
			c-0.2-0.1-0.3-0.2-0.5-0.3c-0.1-0.1-0.3-0.2-0.6-0.3c-0.2-0.1-0.5-0.2-0.6-0.2c-0.1,0-0.3-0.1-0.5-0.1C79.8,30,79.4,30,79,30
			L79,30z"/>
	</g>
	<g>
		<path class="st2" d="M84.3,20.3c-0.4,0-0.8-0.1-1.2-0.2c-0.1,0-0.2-0.1-0.4-0.1c-0.2-0.1-0.3-0.1-0.5-0.2l-5.1-3
			c-1.9-1.1-2.6-3.6-1.5-5.5c0.6-1,1.5-1.7,2.6-1.9l-0.7-2.6c-0.3-1-0.1-2.1,0.4-3s1.4-1.6,2.4-1.9c0.3-0.1,0.7-0.1,1-0.1
			c1.8,0,3.4,1.2,3.9,3L86,7.3c0.4-0.1,0.8-0.2,1.2-0.2c0.7,0,1.4,0.2,2,0.5c1.9,1.1,2.6,3.6,1.5,5.5c0,0-3,5.2-3,5.2
			c-0.1,0.2-0.3,0.5-0.5,0.7c-0.1,0.1-0.1,0.1-0.2,0.2c-0.2,0.2-0.4,0.3-0.6,0.4c-0.1,0-0.1,0.1-0.2,0.1c-0.3,0.2-0.6,0.3-0.9,0.3
			c-0.3,0.1-0.6,0.1-0.9,0.1C84.4,20.3,84.3,20.3,84.3,20.3z"/>
		<path d="M81.5,3.7c0.9,0,1.7,0.6,1.9,1.5l1.6,5.9l0.6-1c0.4-0.6,1-1,1.7-1c0.3,0,0.7,0.1,1,0.3c1,0.6,1.3,1.8,0.7,2.7l-3,5.1
			c0,0,0,0,0,0c-0.1,0.1-0.2,0.3-0.3,0.4c0,0-0.1,0.1-0.1,0.1c-0.1,0.1-0.2,0.1-0.3,0.2c0,0-0.1,0-0.1,0.1c-0.1,0.1-0.3,0.1-0.4,0.2
			c0,0,0,0,0,0c-0.2,0-0.3,0.1-0.5,0.1c0,0,0,0,0,0c0,0,0,0,0,0c0,0,0,0,0,0c-0.2,0-0.4,0-0.6-0.1c-0.1,0-0.1,0-0.2-0.1
			c-0.1,0-0.2-0.1-0.2-0.1l-5.2-3c-1-0.6-1.3-1.8-0.7-2.7c0.4-0.6,1-1,1.7-1c0.3,0,0.7,0.1,1,0.3l1,0.6l-1.6-5.9
			c-0.3-1.1,0.3-2.2,1.4-2.4C81.1,3.8,81.3,3.7,81.5,3.7 M81.5-0.3C81.5-0.3,81.5-0.3,81.5-0.3c-0.5,0-1.1,0.1-1.6,0.2
			c-1.5,0.4-2.8,1.4-3.6,2.8c-0.8,1.4-1,3-0.6,4.6l0.3,1c-0.8,0.5-1.5,1.2-2,2.1c-1.7,2.9-0.7,6.5,2.2,8.2l5.2,3
			c0.3,0.2,0.5,0.3,0.7,0.3c0.1,0.1,0.3,0.1,0.5,0.2c0.6,0.2,1.2,0.3,1.8,0.3c0.1,0,0.2,0,0.3,0c0.4,0,0.8-0.1,1.1-0.2
			c0,0,0.1,0,0.1,0c0.4-0.1,0.8-0.3,1.2-0.5c0.1-0.1,0.3-0.1,0.4-0.2c0.3-0.2,0.6-0.4,0.8-0.6c0.1-0.1,0.2-0.2,0.3-0.3
			c0.3-0.3,0.6-0.7,0.8-1c0-0.1,0.1-0.1,0.1-0.2l2.9-5.1c1.7-2.9,0.7-6.5-2.2-8.2c-0.8-0.5-1.8-0.8-2.7-0.8l-0.3-1
			C86.5,1.6,84.2-0.3,81.5-0.3L81.5-0.3z"/>
	</g>
	<g>
		<path class="st2" d="M101.7,39.9c-1.4,0-2.8-0.8-3.5-2l-3-5.2c0,0,0-0.1,0-0.1c-0.1-0.2-0.2-0.4-0.3-0.6c0-0.1-0.1-0.2-0.1-0.3
			c0-0.1-0.1-0.3-0.1-0.4c0-0.2,0-0.3,0-0.4c0-0.1,0-0.2,0-0.4c0-0.5,0.2-1,0.4-1.5c0.1-0.1,0.1-0.2,0.2-0.4
			c0.1-0.1,0.1-0.2,0.2-0.3c0.1-0.2,0.3-0.3,0.4-0.5c0,0,0.1-0.1,0.1-0.1c0.2-0.2,0.4-0.3,0.7-0.5l5.1-3c0.6-0.4,1.3-0.5,2-0.5
			c1.4,0,2.8,0.8,3.5,2c0.5,0.9,0.7,2,0.4,3c0,0.1,0,0.1-0.1,0.2l2.6,0.7c1,0.3,1.9,0.9,2.4,1.9c0.5,0.9,0.7,2,0.4,3
			c-0.5,1.7-2.1,3-3.9,3c-0.3,0-0.7,0-1-0.1l-2.6-0.7c-0.2,1.1-0.9,2-1.9,2.6C103.1,39.7,102.4,39.9,101.7,39.9z"/>
		<path d="M103.9,25.7c0.7,0,1.4,0.4,1.7,1c0.6,1,0.2,2.2-0.7,2.7l-1,0.6l5.9,1.6c1.1,0.3,1.7,1.4,1.4,2.4c-0.2,0.9-1,1.5-1.9,1.5
			c-0.2,0-0.3,0-0.5-0.1l-5.9-1.6l0.6,1c0.6,1,0.2,2.2-0.7,2.7c-0.3,0.2-0.7,0.3-1,0.3c-0.7,0-1.4-0.4-1.7-1l-3-5.2c0,0,0,0,0,0
			c-0.1-0.1-0.1-0.2-0.2-0.3c0-0.1,0-0.1,0-0.2c0-0.1,0-0.1,0-0.2c0-0.1,0-0.2,0-0.2c0-0.1,0-0.1,0-0.2c0-0.3,0.1-0.5,0.2-0.8
			c0-0.1,0.1-0.1,0.1-0.2c0,0,0.1-0.1,0.1-0.1c0.1-0.1,0.2-0.2,0.2-0.3c0,0,0,0,0,0c0.1-0.1,0.2-0.2,0.3-0.2l5.1-3
			C103.2,25.8,103.5,25.7,103.9,25.7 M103.9,21.7c-1.1,0-2.1,0.3-3,0.8l-5.1,3c-0.3,0.2-0.7,0.4-1,0.7c-0.1,0-0.1,0.1-0.2,0.2
			c-0.2,0.2-0.4,0.5-0.6,0.7c-0.1,0.2-0.2,0.3-0.3,0.4c-0.1,0.1-0.2,0.3-0.3,0.6c-0.3,0.7-0.6,1.5-0.6,2.3c0,0.2,0,0.4,0,0.5
			c0,0.1,0,0.4,0,0.6c0,0.2,0.1,0.4,0.1,0.6c0,0.1,0.1,0.3,0.2,0.6c0.1,0.3,0.2,0.6,0.4,0.9c0,0.1,0.1,0.1,0.1,0.2l3,5.1
			c1.1,1.9,3.1,3,5.2,3c1.1,0,2.1-0.3,3-0.8c0.9-0.5,1.6-1.2,2.1-2l1,0.3c0.5,0.1,1,0.2,1.6,0.2c2.7,0,5.1-1.8,5.8-4.4
			c0.4-1.5,0.2-3.2-0.6-4.6c-0.8-1.4-2.1-2.4-3.6-2.8l-1-0.3c0-0.9-0.3-1.9-0.8-2.7C108,22.9,106,21.7,103.9,21.7L103.9,21.7z"/>
	</g>
</g>
<circle class="st0" cx="143.8" cy="25" r="16"/>
<g>
	<g>
		<polyline class="st3" points="126.9,34.8 134,34.8 134,41.9 		"/>
		<line class="st3" x1="134" y1="34.8" x2="124.8" y2="44"/>
	</g>
	<g>
		<polyline class="st3" points="160.9,15 153.8,15 153.8,7.9 		"/>
		<line class="st3" x1="153.8" y1="15" x2="163" y2="5.8"/>
	</g>
</g>
<g>
	<polyline class="st3" points="144,44.6 147.5,38.4 153.7,42 	"/>
	<line class="st3" x1="147.5" y1="38.4" x2="150.9" y2="51"/>
</g>
<g>
	<polyline class="st3" points="143.8,5.3 140.3,11.4 134.2,7.8 	"/>
	<line class="st3" x1="140.3" y1="11.4" x2="136.9" y2="-1.2"/>
</g>
<g>
	<g>
		<polyline class="st3" points="126.8,15.2 130.4,21.3 124.3,24.8 		"/>
		<line class="st3" x1="130.4" y1="21.3" x2="117.8" y2="17.9"/>
	</g>
	<g>
		<polyline class="st3" points="161,34.7 157.4,28.5 163.6,25 		"/>
		<line class="st3" x1="157.4" y1="28.5" x2="170" y2="31.9"/>
	</g>
</g>
<path d="M49.2,30.8c-0.8-1.4-2.1-2.4-3.6-2.8l-1-0.3c0-0.9-0.3-1.9-0.8-2.7c-1.1-1.9-3.1-3-5.2-3c-0.1,0-0.3,0-0.4,0
	c-1.8-4.7-5.5-8.4-10.2-10.2c0.2-2.2-0.9-4.5-3-5.6c-0.8-0.5-1.8-0.8-2.7-0.8l-0.3-1C21.3,1.8,18.9,0,16.2,0c0,0,0,0,0,0
	c-0.5,0-1.1,0.1-1.6,0.2C13.1,0.6,11.8,1.6,11,3c-0.8,1.4-1,3-0.6,4.6l0.3,1c-0.8,0.5-1.5,1.2-2,2.1c-1,1.8-1,3.8-0.2,5.6
	c-3.1,3.2-5,7.6-5,12.4c0,1.1,0.1,2.2,0.3,3.3c-1.2,1.1-1.9,2.7-1.9,4.4c0,1,0.2,1.9,0.7,2.8l-0.7,0.7c-2.3,2.3-2.3,6.1,0,8.5
	C2.9,49.4,4.4,50,6,50s3.1-0.6,4.2-1.8l0.7-0.7c0.8,0.4,1.8,0.7,2.8,0.7c1.7,0,3.3-0.7,4.4-1.9c1.1,0.2,2.2,0.3,3.3,0.3
	c4.8,0,9.2-1.9,12.5-5c0.8,0.4,1.7,0.6,2.6,0.6c1.1,0,2.1-0.3,3-0.8c0.9-0.5,1.6-1.2,2.1-2l1,0.3c0.5,0.1,1,0.2,1.6,0.2
	c2.7,0,5.1-1.8,5.8-4.4C50.2,33.8,50,32.2,49.2,30.8z M12.1,12.6c0.4-0.6,1-1,1.7-1c0.3,0,0.7,0.1,1,0.3l1,0.6l-1.6-5.9
	c-0.3-1.1,0.3-2.2,1.4-2.4C15.8,4,16,4,16.2,4c0.9,0,1.7,0.6,1.9,1.5l1.6,5.9l0.6-1c0.4-0.6,1-1,1.7-1c0.3,0,0.7,0.1,1,0.3
	c0.4,0.3,0.7,0.7,0.9,1.1l0,0c0,0.1,0.1,0.3,0.1,0.4c0,0,0,0,0,0c0,0.1,0,0.3,0,0.4c0,0,0,0,0,0c0,0.1,0,0.2-0.1,0.3c0,0,0,0,0,0.1
	c0,0.1-0.1,0.3-0.2,0.4l-3,5.1c0,0,0,0,0,0c-0.1,0.1-0.2,0.3-0.3,0.4c0,0-0.1,0.1-0.1,0.1c-0.1,0.1-0.2,0.1-0.3,0.2
	c0,0-0.1,0-0.1,0.1c-0.1,0.1-0.3,0.1-0.4,0.2c0,0,0,0,0,0c-0.2,0-0.3,0.1-0.5,0.1c0,0,0,0,0,0c0,0,0,0,0,0c0,0,0,0,0,0
	c-0.2,0-0.4,0-0.6-0.1c-0.1,0-0.1,0-0.2-0.1c-0.1,0-0.2-0.1-0.2-0.1l-5.2-3c-0.2-0.1-0.3-0.2-0.4-0.3c0,0-0.1-0.1-0.1-0.1
	c-0.1-0.1-0.2-0.3-0.3-0.4c0,0,0,0,0,0c-0.1-0.2-0.1-0.3-0.2-0.5c0,0,0-0.1,0-0.1c0-0.2,0-0.3,0-0.5h0C11.9,13.1,12,12.8,12.1,12.6z
	 M7.4,45.4C7,45.8,6.5,46,6,46s-1-0.2-1.4-0.6c-0.8-0.8-0.8-2,0-2.8l2.8-2.8l1.5-1.5H7.8c-1.1,0-2-0.9-2-2s0.9-2,2-2h0.8h5.1
	c0.1,0,0.3,0,0.4,0c0.1,0,0.1,0,0.2,0.1c0.1,0,0.1,0,0.2,0.1c0.1,0,0.1,0.1,0.2,0.1c0,0,0.1,0,0.1,0.1c0.2,0.1,0.4,0.3,0.6,0.6
	c0,0,0.1,0.1,0.1,0.1c0,0.1,0.1,0.1,0.1,0.2c0,0.1,0,0.1,0.1,0.2c0,0.1,0,0.1,0.1,0.2c0,0.1,0,0.3,0,0.4v5.1v0.8c0,1.1-0.9,2-2,2
	s-2-0.9-2-2v-1.1l-1.5,1.5L7.4,45.4z M19.7,42.5c0-0.1,0-0.2,0-0.3v-5.9c0-0.4,0-0.8-0.1-1.2c0-0.2-0.1-0.4-0.1-0.6
	c0-0.1-0.1-0.3-0.2-0.6c-0.1-0.3-0.2-0.5-0.3-0.6c-0.1-0.1-0.2-0.3-0.3-0.5c-0.4-0.7-1-1.2-1.7-1.7c-0.2-0.1-0.3-0.2-0.5-0.3
	c-0.1-0.1-0.3-0.2-0.6-0.3c-0.2-0.1-0.5-0.2-0.6-0.2c-0.1,0-0.3-0.1-0.5-0.1c-0.4-0.1-0.8-0.1-1.2-0.1H7.8c-0.1,0-0.2,0-0.3,0
	c-0.1-0.6-0.1-1.1-0.1-1.7c0-3.7,1.5-7.1,3.8-9.6l4.8,2.8c0.3,0.2,0.5,0.3,0.7,0.3c0.1,0.1,0.3,0.1,0.5,0.2c0.6,0.2,1.2,0.3,1.8,0.3
	c0.1,0,0.2,0,0.3,0c0.4,0,0.8-0.1,1.1-0.2c0,0,0.1,0,0.1,0c0.4-0.1,0.8-0.3,1.2-0.5c0.1-0.1,0.3-0.1,0.4-0.2
	c0.3-0.2,0.6-0.4,0.8-0.6c0.1-0.1,0.2-0.2,0.3-0.3c0.3-0.3,0.6-0.7,0.8-1c0-0.1,0.1-0.1,0.1-0.2l2.3-3.9c3.6,1.4,6.5,4.3,7.9,7.9
	l-4,2.3c-0.3,0.2-0.7,0.4-1,0.7c-0.1,0-0.1,0.1-0.2,0.2c-0.2,0.2-0.4,0.5-0.6,0.7c-0.1,0.2-0.2,0.3-0.3,0.4
	c-0.1,0.1-0.2,0.3-0.3,0.6c-0.3,0.7-0.6,1.5-0.6,2.3c0,0.2,0,0.4,0,0.5c0,0.1,0,0.4,0,0.6c0,0.2,0.1,0.4,0.1,0.6
	c0,0.1,0.1,0.3,0.2,0.6c0.1,0.3,0.2,0.6,0.4,0.9c0,0.1,0.1,0.1,0.1,0.2l2.8,4.8c-2.5,2.4-5.9,3.8-9.6,3.8
	C20.8,42.6,20.3,42.5,19.7,42.5z M45.9,34.3c-0.2,0.9-1,1.5-1.9,1.5c-0.2,0-0.3,0-0.5-0.1l-5.9-1.6l0.6,1c0.6,1,0.2,2.2-0.7,2.7
	c-0.2,0.1-0.5,0.2-0.8,0.2l0,0c-0.1,0-0.2,0-0.2,0c-0.7,0-1.4-0.4-1.7-1l-1-1.8l0,0L31.7,32c0,0,0,0,0,0c-0.1-0.1-0.1-0.2-0.2-0.3
	c0-0.1,0-0.1,0-0.2c0-0.1,0-0.1,0-0.2c0-0.1,0-0.2,0-0.2c0-0.1,0-0.1,0-0.2c0-0.3,0.1-0.5,0.2-0.8c0-0.1,0.1-0.1,0.1-0.2
	c0,0,0.1-0.1,0.1-0.1c0.1-0.1,0.2-0.2,0.2-0.3c0,0,0,0,0,0c0.1-0.1,0.2-0.2,0.3-0.2l2.9-1.7l0,0l2.2-1.3c0.1-0.1,0.3-0.1,0.4-0.2
	c0.1,0,0.1,0,0.2,0c0.1,0,0.2,0,0.3,0c0.1,0,0.2,0,0.2,0c0.1,0,0.1,0,0.2,0c0.1,0,0.2,0,0.3,0.1c0.5,0.1,0.9,0.4,1.1,0.9
	c0.6,1,0.2,2.2-0.7,2.7l-1,0.6l5.9,1.6C45.6,32.2,46.2,33.3,45.9,34.3z"/>
</svg>
