<?xml version="1.0" encoding="utf-8"?>
<!-- Generator: Adobe Illustrator 22.0.1, SVG Export Plug-In . SVG Version: 6.00 Build 0)  -->
<svg version="1.1" id="Layer_1"
	xmlns="http://www.w3.org/2000/svg" x="0px" y="0px" viewBox="0 0 50 50"
	style="enable-background:new 0 0 50 50;" xml:space="preserve">
<style type="text/css">
	.st0{fill:#FFFFFF;}
</style>
<path class="st0" d="M25,2c2.2,0,4,1.8,4,4v4.1c0.3-0.1,0.7-0.1,1-0.1c1.1,0,2.1,0.4,2.8,1.2c1.6,1.6,1.6,4.1,0,5.7l-5,5
	c-0.2,0.2-0.4,0.4-0.6,0.5c-0.1,0.1-0.2,0.1-0.3,0.2c-0.1,0.1-0.2,0.1-0.4,0.2c-0.2,0.1-0.3,0.1-0.4,0.1S25.9,23,25.8,23
	c-0.3,0-0.5,0-0.8,0s-0.5,0-0.8-0.1c-0.1,0-0.2-0.1-0.4-0.1c-0.1,0-0.3-0.1-0.4-0.1c-0.2-0.1-0.3-0.1-0.4-0.2s-0.2-0.1-0.4-0.2
	c-0.2-0.1-0.4-0.3-0.6-0.5l-5-5c-1.6-1.6-1.6-4.1,0-5.7c0.9-0.7,1.9-1.1,3-1.1c0.3,0,0.7,0,1,0.1V6C21,3.8,22.8,2,25,2z"/>
<path d="M33.7,16.3c0.9-1.1,1.3-2.4,1.3-3.8c0-1.6-0.6-3.1-1.8-4.2c-0.7-0.7-1.4-1.1-2.3-1.4V6c0-3.3-2.7-6-6-6s-6,2.7-6,6v0.8
	c-0.9,0.3-1.6,0.8-2.3,1.4c-1.1,1.1-1.8,2.6-1.8,4.2c0,1.4,0.5,2.7,1.3,3.8C10.7,19.3,7,25.2,7,32c0,9.9,8.1,18,18,18
	c9.9,0,18-8.1,18-18C43,25.2,39.3,19.3,33.7,16.3z M19.5,11.1c0.4-0.4,0.9-0.6,1.4-0.6s1,0.2,1.4,0.6l0.6,0.6V6c0-1.1,0.9-2,2-2
	s2,0.9,2,2v5.7l0.6-0.6c0.4-0.4,0.9-0.6,1.4-0.6s1,0.2,1.4,0.6c0.8,0.8,0.8,2,0,2.8L26.4,18c-0.1,0.1-0.2,0.2-0.3,0.2
	c0,0-0.1,0-0.1,0c-0.1,0.1-0.2,0.1-0.3,0.1c0,0-0.1,0-0.1,0c-0.1,0-0.2,0.1-0.3,0.1c-0.1,0-0.3,0-0.4,0s-0.3,0-0.4,0
	c-0.1,0-0.2,0-0.3-0.1c0,0-0.1,0-0.1,0c-0.1,0-0.2-0.1-0.3-0.1c0,0-0.1,0-0.1,0c-0.1-0.1-0.2-0.2-0.3-0.2l-4.1-4.1
	C18.7,13.1,18.7,11.9,19.5,11.1z M25,46c-7.7,0-14-6.3-14-14c0-5.7,3.4-10.5,8.2-12.7l1.5,1.5c0.3,0.3,0.6,0.5,0.9,0.7
	c0.1,0.1,0.3,0.2,0.4,0.2c0.2,0.1,0.4,0.2,0.7,0.3c0.2,0.1,0.3,0.1,0.4,0.2c0.2,0.1,0.4,0.1,0.7,0.2c0.4,0.1,0.8,0.1,1.2,0.1
	c0.4,0,0.8,0,1.2-0.1c0.3-0.1,0.5-0.1,0.7-0.2c0.1,0,0.3-0.1,0.4-0.2c0.3-0.1,0.5-0.2,0.7-0.3c0.1-0.1,0.2-0.1,0.4-0.2
	c0.3-0.2,0.6-0.5,0.9-0.7l1.5-1.5C35.6,21.5,39,26.3,39,32C39,39.7,32.7,46,25,46z"/>
</svg>
