<?xml version="1.0" encoding="utf-8"?>
<!-- Generator: Adobe Illustrator 22.0.1, SVG Export Plug-In . SVG Version: 6.00 Build 0)  -->
<svg version="1.1" id="Layer_1"
	xmlns="http://www.w3.org/2000/svg" x="0px" y="0px" viewBox="0 0 50 50"
	style="enable-background:new 0 0 50 50;" xml:space="preserve">
<style type="text/css">
	.st0{fill:none;stroke:#000000;stroke-width:4;stroke-miterlimit:10;}
</style>
<path class="st0" d="M34.1,26.8c-0.3,0-0.6,0-0.8-0.1c-0.1,0-0.2-0.1-0.4-0.1s-0.2-0.1-0.4-0.1c-0.2-0.1-0.3-0.1-0.4-0.2
	c-0.1-0.1-0.2-0.1-0.3-0.1c-0.2-0.2-0.4-0.4-0.6-0.6c-0.2-0.2-0.4-0.4-0.5-0.6c-0.1-0.1-0.1-0.2-0.2-0.4c-0.1-0.1-0.1-0.3-0.2-0.4
	c-0.1-0.2-0.1-0.3-0.1-0.4s-0.1-0.2-0.1-0.4c-0.1-0.2-0.1-0.5-0.1-0.8v-3.1l-2.3,2.3c-0.2,0.2-0.4,0.4-0.6,0.5
	c-0.1,0.1-0.2,0.1-0.3,0.2c-0.1,0.1-0.2,0.1-0.4,0.2c-0.2,0.1-0.3,0.1-0.4,0.1c-0.1,0-0.2,0.1-0.3,0.1c-0.3,0-0.5,0-0.8,0
	s-0.5,0-0.8-0.1c-0.1,0-0.2-0.1-0.4-0.1c-0.1,0-0.3-0.1-0.4-0.1c-0.2-0.1-0.3-0.1-0.4-0.2s-0.2-0.1-0.4-0.2
	c-0.2-0.1-0.4-0.3-0.6-0.5l-2.2-2.2v3.2c0,0.3,0,0.6-0.1,0.8c0,0.1-0.1,0.2-0.1,0.4s-0.1,0.2-0.1,0.4c-0.1,0.2-0.1,0.3-0.2,0.4
	c-0.1,0.1-0.1,0.2-0.1,0.3c-0.2,0.2-0.4,0.4-0.6,0.6c-0.2,0.2-0.4,0.4-0.6,0.5c-0.1,0.1-0.2,0.1-0.4,0.2c-0.1,0.1-0.3,0.1-0.4,0.2
	c-0.2,0.1-0.3,0.1-0.4,0.1s-0.2,0.1-0.4,0.1c-0.2,0.1-0.5,0.1-0.8,0.1H9.8c-1.9,5.6-0.6,12,3.8,16.4c6.2,6.2,16.4,6.2,22.6,0
	c4.5-4.5,5.7-10.9,3.8-16.5H34.1z"/>
<path d="M47.6,9.4c-2.3-2.3-6.2-2.3-8.5,0l-1.5,1.5c-1-0.7-2.2-1.1-3.5-1.1c-0.9-0.9-2-1.5-3.2-1.7V6c0-3.3-2.7-6-6-6s-6,2.7-6,6
	v2.1c-1.2,0.2-2.3,0.8-3.2,1.7c-1.3,0-2.5,0.4-3.5,1.1l-1.5-1.5C8.5,7,4.7,7,2.4,9.4c-2.3,2.3-2.3,6.2,0,8.5l1.5,1.5
	c-0.7,1-1.1,2.2-1.1,3.5c0,1.6,0.6,3.1,1.7,4.2c1.1,1.1,2.6,1.8,4.2,1.7h7.1c0.4,0,0.8-0.1,1.1-0.1c0.2-0.1,0.4-0.1,0.6-0.1
	c0.1,0,0.4-0.1,0.6-0.2c0.2-0.1,0.5-0.2,0.6-0.3c0.1-0.1,0.3-0.1,0.4-0.3c0.4-0.1,0.6-0.4,0.9-0.6s0.6-0.6,0.8-0.9
	c0.1-0.1,0.2-0.4,0.4-0.5c0.1-0.1,0.1-0.3,0.3-0.6s0.2-0.5,0.2-0.6c0-0.1,0.1-0.3,0.1-0.5c0.1,0.1,0.2,0.2,0.4,0.2
	c0.1,0.1,0.3,0.2,0.6,0.3c0.2,0.1,0.5,0.2,0.6,0.2c0.1,0,0.3,0.1,0.5,0.1C24.2,25,24.6,25,25,25s0.8,0,1.2-0.1
	c0.2,0,0.4-0.1,0.6-0.1c0.1,0,0.3-0.1,0.6-0.2c0.3-0.1,0.5-0.2,0.6-0.3c0.1-0.1,0.2-0.2,0.4-0.3c0,0.2,0.1,0.3,0.1,0.5
	c0,0.1,0.1,0.4,0.2,0.6c0.1,0.2,0.2,0.5,0.3,0.6c0.1,0.1,0.1,0.3,0.3,0.4c0.1,0.4,0.4,0.6,0.6,0.9s0.6,0.6,0.9,0.8
	c0.1,0.1,0.4,0.2,0.5,0.4c0.1,0.1,0.3,0.1,0.6,0.3s0.5,0.2,0.6,0.2s0.4,0.1,0.6,0.1c0.4,0.1,0.8,0.1,1.2,0.1h7.1
	c1.5-0.1,3-0.7,4.1-1.8c1.1-1.1,1.8-2.6,1.7-4.2c0-1.3-0.4-2.5-1.1-3.5l1.5-1.5C50,15.5,50,11.7,47.6,9.4z M17.8,20.2v2.6
	c0,0.1,0,0.3,0,0.4v0.1c-0.1,0.1,0,0.1-0.1,0.2c-0.1,0.1-0.1,0.1-0.1,0.2c-0.1,0.1-0.1,0.1-0.1,0.2c-0.1,0-0.3,0.1-0.4,0.2
	c-0.1,0.1-0.2,0.2-0.3,0.3c-0.1,0.1-0.1,0.1-0.2,0.1c-0.1,0.1-0.1,0.1-0.2,0.1c-0.1,0.1-0.1,0-0.2,0.1c0,0-0.1,0.1-0.1,0
	c-0.1,0-0.3,0-0.4,0H8.7c-1.1,0-2-0.8-2-2c0.1-0.5,0.3-1,0.6-1.3c0.4-0.4,0.8-0.6,1.4-0.6H11L5.2,15c-0.8-0.8-0.8-2.1,0-2.8
	c0.8-0.8,2.1-0.8,2.8,0l5.8,5.8v-2.3c0-0.2,0-0.3,0.1-0.5c0,0,0,0,0-0.1c0-0.2,0.1-0.3,0.2-0.4c0,0,0,0,0,0v0
	c0.1-0.2,0.2-0.3,0.3-0.4c0.4-0.4,0.8-0.6,1.4-0.6c1.1,0,2,0.8,2,2V20.2z M31.4,15.4l-3.1,3.1l-1.9,1.9c-0.1,0.1-0.2,0.2-0.3,0.3
	L26,20.8c-0.1,0-0.1,0.1-0.2,0.1c-0.1,0-0.1,0-0.2,0.1c-0.1,0-0.1,0-0.2,0.1C25.3,21,25.1,21,25,21s-0.3,0-0.4,0
	c-0.1,0-0.1,0-0.2-0.1c-0.1,0-0.1,0-0.2-0.1c-0.1,0-0.1-0.1-0.2-0.1c0,0-0.1,0-0.1-0.1c-0.1-0.1-0.2-0.2-0.3-0.3l-1.7-1.7l-3.3-3.3
	c-0.8-0.8-0.8-2,0-2.8C19,12.2,19.5,12,20,12c0.3,0,0.7,0.1,1,0.3c0,0,0,0,0,0c0.1,0.1,0.3,0.2,0.4,0.3l1.6,1.6V6c0-1.1,0.9-2,2-2
	s2,0.9,2,2v8.2l1.6-1.6c0.1-0.1,0.2-0.2,0.4-0.3c0,0,0,0,0,0c0.1-0.1,0.3-0.1,0.4-0.2c0,0,0,0,0,0C29.6,12,29.8,12,30,12
	c0.5,0,1,0.2,1.4,0.6C32.2,13.4,32.2,14.6,31.4,15.4z M44.8,15L39,20.8h2.3c0.6,0,1.1,0.2,1.4,0.6c0.4,0.4,0.6,0.8,0.6,1.4
	c0,1.1-0.8,2-2,2h-7.1c-0.1,0-0.3,0-0.4,0h-0.1c-0.1-0.1-0.1,0-0.2-0.1c-0.1-0.1-0.1-0.1-0.2-0.1c-0.1-0.1-0.1-0.1-0.2-0.1
	c0-0.1-0.1-0.3-0.2-0.4c-0.1-0.1-0.2-0.2-0.3-0.3c-0.1-0.1-0.1-0.1-0.1-0.2c-0.1-0.1-0.1-0.1-0.1-0.2c-0.1-0.1,0-0.1-0.1-0.2
	c0,0-0.1-0.1,0-0.1c0-0.1,0-0.3,0-0.4v-2.4v-4.7c0-1.1,0.8-2,2-2c0.5,0.1,1,0.3,1.3,0.6c0.2,0.2,0.4,0.5,0.5,0.9c0,0,0,0,0,0.1
	c0,0.2,0.1,0.3,0.1,0.5V18l5.8-5.8c0.8-0.8,2.1-0.8,2.8,0C45.6,13,45.6,14.3,44.8,15z"/>
</svg>
