<?xml version="1.0" encoding="utf-8"?>
<!-- Generator: Adobe Illustrator 22.0.1, SVG Export Plug-In . SVG Version: 6.00 Build 0)  -->
<svg version="1.1" id="Layer_1"
	xmlns="http://www.w3.org/2000/svg" x="0px" y="0px" viewBox="0 0 50 50"
	style="enable-background:new 0 0 50 50;" xml:space="preserve">
<path d="M47,33.7l-0.7-0.4c0.2-0.9,0.1-1.8-0.1-2.7c-0.5-1.8-1.7-3.1-3.3-3.9c-0.3-4.2-2.2-8.2-5.2-11.2c-0.8-0.8-1.8-1.6-2.7-2.2
	c0.2-1.8-0.4-3.7-1.7-5c-0.7-0.7-1.4-1.1-2.3-1.4V6c0-3.3-2.7-6-6-6c-3.3,0-6,2.7-6,6v0.8c-0.9,0.3-1.6,0.8-2.3,1.4
	c-1.3,1.3-1.9,3.2-1.7,5c-1,0.6-1.9,1.4-2.7,2.2c-3,3-4.9,7-5.2,11.2c-1.6,0.7-2.8,2.1-3.3,3.9c-0.2,0.9-0.3,1.8-0.1,2.7L3,33.7
	c-2.7,1.6-3.8,5.1-2.4,7.8C2.1,44.6,6,45.8,9,44.1l0.7-0.4c0.7,0.6,1.5,1,2.4,1.3c0.5,0.1,1,0.2,1.6,0.2c1.2,0,2.2-0.4,3.2-0.9
	c5.1,2.6,11.2,2.6,16.3,0c1.4,0.9,3.1,1.2,4.7,0.7c0.9-0.2,1.7-0.7,2.4-1.3l0.7,0.4c2.8,1.6,6.6,0.6,8.2-2.2
	C50.9,39,49.9,35.4,47,33.7z M19.5,11.1c0.8-0.8,2.1-0.8,2.8,0l0.6,0.6V6c0-2.6,4-2.6,4,0v5.7l0.6-0.6c0.8-0.8,2.1-0.8,2.8,0
	c0.8,0.8,0.8,2,0,2.8L26.4,18c-0.1,0.1-0.2,0.2-0.3,0.2c0,0-0.1,0-0.1,0c-0.1,0.1-0.2,0.1-0.3,0.1c0,0-0.1,0-0.1,0
	c-0.1,0-0.2,0.1-0.3,0.1c-0.3,0.1-0.5,0.1-0.8,0c-0.1,0-0.2,0-0.3-0.1c0,0-0.1,0-0.1,0c-0.1,0-0.2-0.1-0.3-0.1c0,0-0.1,0-0.1,0
	c-0.1-0.1-0.2-0.2-0.3-0.2l-4.1-4.1C18.7,13.1,18.7,11.9,19.5,11.1z M17.1,34.1l-1.5,5.5c-0.2,0.9-1,1.5-1.9,1.5
	c-0.2,0-0.3,0-0.5-0.1c-1.1-0.3-1.7-1.4-1.4-2.4l0.2-0.9l-5,2.9c-2.2,1.3-4.2-2.2-2-3.5l5-2.9l-0.9-0.2c-2.5-0.7-1.5-4.5,1-3.9
	l5.5,1.5c0,0,0,0,0,0c0.1,0,0.2,0.1,0.3,0.1c0,0,0.1,0.1,0.1,0.1c0.1,0,0.1,0.1,0.2,0.1c0,0,0.1,0.1,0.1,0.1c0.1,0,0.1,0.1,0.2,0.1
	c0.1,0.1,0.2,0.2,0.2,0.3c0.1,0.1,0.1,0.2,0.2,0.4c0,0.1,0,0.2,0.1,0.2c0,0.1,0,0.1,0,0.2c0,0.1,0,0.2,0,0.3c0,0,0,0.1,0,0.1
	C17.1,33.9,17.1,34,17.1,34.1z M32,28.3c-0.3,0.2-0.6,0.3-0.8,0.5c-0.1,0.1-0.2,0.2-0.3,0.2c-0.2,0.1-0.4,0.3-0.6,0.6
	c-0.3,0.3-0.5,0.6-0.7,1c-0.2,0.3-0.4,0.7-0.5,1.1C29.1,32,29,32.3,29,32.4c0,0.1-0.1,0.3-0.1,0.4c0,0.3,0,0.6,0,0.8
	c0,0.1,0,0.2,0,0.4c0,0.4,0.1,0.8,0.2,1.2l1.5,5.5c0,0.1,0.1,0.2,0.1,0.3c-3.6,1.6-7.7,1.6-11.3,0c0-0.1,0.1-0.2,0.1-0.3l1.5-5.5
	c0.1-0.4,0.2-0.8,0.2-1.1c0-0.2,0-0.3,0-0.5c0-0.2,0-0.4,0-0.7c0-0.2-0.1-0.4-0.1-0.5c0-0.1-0.1-0.4-0.2-0.6
	c-0.3-0.8-0.7-1.5-1.2-2.1c-0.2-0.2-0.3-0.3-0.4-0.4c-0.1-0.1-0.2-0.2-0.4-0.4c-0.2-0.2-0.4-0.3-0.5-0.4c-0.1-0.1-0.3-0.2-0.5-0.3
	c-0.2-0.1-0.5-0.2-0.8-0.3c-0.1,0-0.2-0.1-0.3-0.1l-5.5-1.5c0,0,0,0,0,0c0.4-3,1.8-5.8,4-8c0.5-0.5,1.1-1,1.7-1.4l3.9,3.9
	c0.3,0.3,0.6,0.5,0.9,0.7c0.1,0.1,0.3,0.2,0.4,0.2c0.2,0.1,0.4,0.2,0.7,0.3c0.2,0.1,0.3,0.1,0.4,0.2c0.2,0.1,0.4,0.1,0.7,0.2
	c0.8,0.2,1.6,0.2,2.4,0c0.3-0.1,0.5-0.1,0.7-0.2c0.1,0,0.3-0.1,0.4-0.2c0.3-0.1,0.5-0.2,0.7-0.3c0.1-0.1,0.2-0.1,0.4-0.2
	c0.3-0.2,0.6-0.5,0.9-0.7l3.9-3.9c0.6,0.4,1.2,0.9,1.7,1.4c2.2,2.2,3.6,5,4,8c0,0,0,0,0,0l-5.5,1.5c-0.4,0.1-0.8,0.2-1.1,0.4
	C32.1,28.3,32.1,28.3,32,28.3z M45.7,39.9c-0.5,0.9-1.8,1.3-2.7,0.7l-5-2.9l0.2,0.9c0.3,1.1-0.3,2.2-1.4,2.4
	c-1.1,0.3-2.2-0.4-2.4-1.4l-1.5-5.5c0-0.1-0.1-0.3-0.1-0.4c0,0,0-0.1,0-0.1c0-0.1,0-0.2,0-0.3c0,0,0-0.1,0-0.1c0-0.1,0-0.2,0.1-0.3
	c0-0.1,0.1-0.2,0.2-0.4c0.1-0.1,0.1-0.2,0.2-0.3c0.1-0.1,0.1-0.1,0.2-0.2c0,0,0,0,0.1-0.1c0.1-0.1,0.2-0.1,0.3-0.2c0,0,0,0,0,0
	c0.1-0.1,0.2-0.1,0.4-0.1l5.5-1.5c1.1-0.3,2.2,0.4,2.4,1.4c0.3,1.1-0.3,2.2-1.4,2.4L40,34.3l5,2.9C46,37.7,46.3,39,45.7,39.9z"/>
</svg>
