<?xml version="1.0" encoding="utf-8"?>
<!-- Generator: Adobe Illustrator 22.0.1, SVG Export Plug-In . SVG Version: 6.00 Build 0)  -->
<svg version="1.1" id="Layer_1"
	xmlns="http://www.w3.org/2000/svg" x="0px" y="0px" viewBox="0 0 50 50"
	style="enable-background:new 0 0 50 50;" xml:space="preserve">
<style type="text/css">
	.st0{fill:none;stroke:#000000;stroke-width:4;stroke-miterlimit:10;}
	.st1{fill:none;stroke:#FF4141;stroke-width:4;stroke-linecap:round;stroke-linejoin:round;stroke-miterlimit:10;}
	.st2{fill:#FFFFFF;}
</style>
<circle class="st0" cx="24.8" cy="25" r="16"/>
<g>
	<polyline class="st1" points="-31.9,32 -31.9,24.9 -24.8,24.9 	"/>
	<line class="st1" x1="-31.9" y1="24.9" x2="-22.7" y2="34.1"/>
</g>
<g>
	<g>
		<path class="st2" d="M5.8,48c-1.1,0-2.1-0.4-2.8-1.2c-1.6-1.6-1.6-4.1,0-5.7l2.9-2.9c-1.2-0.7-2-2-2-3.4c0-2.2,1.8-4,4-4H15
			c0.3,0,0.5,0,0.8,0.1c0.1,0,0.2,0.1,0.3,0.1c0.2,0,0.3,0.1,0.4,0.1c0.1,0,0.2,0.1,0.3,0.2c0.1,0.1,0.2,0.1,0.4,0.2
			c0.4,0.3,0.8,0.7,1.1,1.1c0.1,0.1,0.1,0.2,0.2,0.3c0.1,0.1,0.1,0.2,0.2,0.4c0.1,0.1,0.1,0.3,0.1,0.4c0,0.1,0.1,0.2,0.1,0.4
			c0.1,0.3,0.1,0.5,0.1,0.8v7.1c0,2.2-1.8,4-4,4c-1.5,0-2.7-0.8-3.4-2l-2.9,2.9C7.9,47.6,6.9,48,5.8,48z"/>
		<path d="M15,32.8c0.1,0,0.3,0,0.4,0c0.1,0,0.1,0,0.2,0c0.1,0,0.1,0,0.2,0.1c0.1,0,0.1,0.1,0.2,0.1c0.1,0,0.1,0.1,0.2,0.1
			c0.2,0.1,0.4,0.3,0.6,0.6c0,0,0.1,0.1,0.1,0.1c0,0.1,0.1,0.1,0.1,0.2c0,0.1,0,0.1,0.1,0.2c0,0.1,0,0.1,0.1,0.2c0,0.1,0,0.3,0,0.4
			v7.1c0,1.1-0.9,2-2,2s-2-0.9-2-2v-2.2l-5.8,5.8C6.8,45.8,6.3,46,5.8,46c-0.5,0-1-0.2-1.4-0.6c-0.8-0.8-0.8-2,0-2.8l5.8-5.8H7.9
			c-1.1,0-2-0.9-2-2c0-1.1,0.9-2,2-2H15 M15,28.8H7.9c-3.3,0-6,2.7-6,6c0,1.3,0.4,2.5,1.1,3.5l-1.5,1.5c-2.3,2.3-2.3,6.1,0,8.5
			C2.7,49.4,4.2,50,5.8,50s3.1-0.6,4.2-1.8l1.5-1.5c1,0.7,2.2,1.1,3.5,1.1c3.3,0,6-2.7,6-6v-7.1c0-0.4,0-0.8-0.1-1.2
			c0-0.2-0.1-0.4-0.1-0.6c0-0.1-0.1-0.3-0.2-0.6c-0.1-0.3-0.2-0.5-0.3-0.6c-0.1-0.1-0.2-0.3-0.3-0.5c-0.4-0.7-1-1.2-1.7-1.7
			c-0.2-0.1-0.4-0.2-0.5-0.3c-0.1-0.1-0.3-0.2-0.5-0.3c-0.3-0.1-0.5-0.2-0.6-0.2c-0.1,0-0.3-0.1-0.5-0.1
			C15.8,28.8,15.4,28.8,15,28.8L15,28.8z"/>
	</g>
	<g>
		<path class="st2" d="M34.8,19c-0.3,0-0.5,0-0.8-0.1c-0.1,0-0.2-0.1-0.4-0.1c-0.1,0-0.3-0.1-0.4-0.1c-0.1-0.1-0.3-0.1-0.4-0.2
			c-0.1-0.1-0.2-0.1-0.3-0.2c-0.4-0.3-0.8-0.7-1.1-1.1c-0.1-0.1-0.1-0.2-0.2-0.3c-0.1-0.1-0.1-0.3-0.2-0.4c0-0.1-0.1-0.2-0.1-0.4
			c0-0.1-0.1-0.2-0.1-0.4c-0.1-0.3-0.1-0.6-0.1-0.8V7.9c0-2.2,1.8-4,4-4c1.5,0,2.7,0.8,3.4,2L41.2,3c0.8-0.8,1.8-1.2,2.8-1.2
			s2.1,0.4,2.8,1.2C47.6,3.7,48,4.7,48,5.8s-0.4,2.1-1.2,2.8l-2.9,2.9c1.2,0.7,2,2,2,3.4c0,2.2-1.8,4-4,4H34.8z"/>
		<path d="M44,3.8c0.5,0,1,0.2,1.4,0.6c0.8,0.8,0.8,2,0,2.8L39.6,13h2.2c1.1,0,2,0.9,2,2c0,1.1-0.9,2-2,2h-7.1c-0.1,0-0.3,0-0.4,0
			c-0.1,0-0.1,0-0.2-0.1c-0.1,0-0.1,0-0.2-0.1c-0.1,0-0.1-0.1-0.2-0.1c0,0-0.1,0-0.1-0.1c-0.2-0.1-0.4-0.3-0.6-0.6
			c0,0-0.1-0.1-0.1-0.2c0-0.1-0.1-0.1-0.1-0.2c0-0.1,0-0.1-0.1-0.2c0-0.1,0-0.1-0.1-0.2c0-0.1,0-0.3,0-0.4V7.9c0-1.1,0.9-2,2-2
			c1.1,0,2,0.9,2,2v2.2l5.8-5.8C43,4,43.5,3.8,44,3.8 M44-0.2c-1.6,0-3.1,0.6-4.2,1.8L38.3,3c-1-0.7-2.2-1.1-3.5-1.1
			c-3.3,0-6,2.7-6,6V15c0,0.4,0,0.8,0.1,1.2c0,0.2,0.1,0.4,0.1,0.5c0,0.1,0.1,0.3,0.2,0.6c0.1,0.3,0.2,0.5,0.3,0.6
			c0.1,0.1,0.2,0.3,0.3,0.5c0.4,0.7,1,1.2,1.7,1.7c0.2,0.1,0.3,0.2,0.5,0.3c0.1,0.1,0.3,0.2,0.6,0.3c0.2,0.1,0.5,0.2,0.6,0.2
			c0.1,0,0.3,0.1,0.5,0.1C34,21,34.4,21,34.8,21h7.1c3.3,0,6-2.7,6-6c0-1.3-0.4-2.5-1.1-3.5l1.5-1.5C49.4,8.9,50,7.4,50,5.8
			c0-1.6-0.6-3.1-1.8-4.2C47.1,0.4,45.6-0.2,44-0.2L44-0.2z"/>
	</g>
	<g>
		<path class="st2" d="M44,48c-1.1,0-2.1-0.4-2.8-1.2l-2.9-2.9c-0.7,1.2-2,2-3.4,2c-2.2,0-4-1.8-4-4v-7.1c0-0.3,0-0.5,0.1-0.8
			c0-0.1,0.1-0.3,0.1-0.4c0-0.1,0.1-0.3,0.1-0.4c0.1-0.1,0.1-0.3,0.2-0.4c0.1-0.1,0.1-0.2,0.2-0.3c0.3-0.4,0.7-0.8,1.1-1.1
			c0.1-0.1,0.2-0.1,0.3-0.2c0.1-0.1,0.2-0.1,0.4-0.2c0.1-0.1,0.3-0.1,0.4-0.1c0.1,0,0.2-0.1,0.3-0.1c0.3-0.1,0.6-0.1,0.8-0.1h7.1
			c2.2,0,4,1.8,4,4c0,1.5-0.8,2.7-2,3.4l2.9,2.9c1.6,1.6,1.6,4.1,0,5.7C46.1,47.6,45.1,48,44,48z"/>
		<path d="M41.9,32.8c1.1,0,2,0.9,2,2c0,1.1-0.9,2-2,2h-2.2l5.8,5.8c0.8,0.8,0.8,2,0,2.8C45,45.8,44.5,46,44,46
			c-0.5,0-1-0.2-1.4-0.6l-5.8-5.8v2.2c0,1.1-0.9,2-2,2c-1.1,0-2-0.9-2-2v-7.1c0-0.1,0-0.3,0-0.4c0-0.1,0-0.1,0.1-0.2
			c0-0.1,0-0.1,0.1-0.2c0-0.1,0.1-0.1,0.1-0.2c0,0,0-0.1,0.1-0.1c0.1-0.2,0.3-0.4,0.6-0.6c0,0,0.1-0.1,0.1-0.1C33.9,33,34,33,34,33
			c0.1,0,0.1,0,0.2-0.1c0.1,0,0.1,0,0.2-0.1c0.1,0,0.3,0,0.4,0H41.9 M41.9,28.8h-7.1c-0.4,0-0.8,0-1.2,0.1c-0.2,0-0.4,0.1-0.6,0.1
			c-0.1,0-0.3,0.1-0.6,0.2c-0.3,0.1-0.5,0.2-0.6,0.3c-0.1,0.1-0.3,0.2-0.5,0.3c-0.7,0.4-1.2,1-1.7,1.7c-0.1,0.2-0.2,0.3-0.3,0.5
			c-0.1,0.1-0.2,0.3-0.3,0.6c-0.1,0.2-0.2,0.5-0.2,0.6c0,0.1-0.1,0.3-0.1,0.5c-0.1,0.4-0.1,0.8-0.1,1.2v7.1c0,3.3,2.7,6,6,6
			c1.3,0,2.5-0.4,3.5-1.1l1.5,1.5c1.1,1.1,2.6,1.8,4.2,1.8c1.6,0,3.1-0.6,4.2-1.8c2.3-2.3,2.3-6.1,0-8.5l-1.5-1.5
			c0.7-1,1.1-2.2,1.1-3.5C47.9,31.5,45.2,28.8,41.9,28.8L41.9,28.8z"/>
	</g>
	<g>
		<path class="st2" d="M7.9,19c-2.2,0-4-1.8-4-4c0-1.5,0.8-2.7,2-3.4L3,8.6C2.2,7.9,1.8,6.9,1.8,5.8S2.2,3.7,3,3
			c0.8-0.8,1.8-1.2,2.8-1.2S7.9,2.2,8.6,3l2.9,2.9c0.7-1.2,2-2,3.4-2c2.2,0,4,1.8,4,4V15c0,0.3,0,0.5-0.1,0.8c0,0.1-0.1,0.2-0.1,0.4
			c0,0.1-0.1,0.3-0.1,0.4c-0.1,0.1-0.1,0.3-0.2,0.4c-0.1,0.1-0.1,0.2-0.2,0.3c-0.3,0.4-0.7,0.8-1.1,1.1c-0.1,0.1-0.2,0.1-0.3,0.2
			c-0.1,0.1-0.2,0.1-0.4,0.2c-0.1,0.1-0.3,0.1-0.4,0.1c-0.1,0-0.3,0.1-0.4,0.1C15.5,19,15.3,19,15,19H7.9z"/>
		<path d="M5.8,3.8c0.5,0,1,0.2,1.4,0.6l5.8,5.8V7.9c0-1.1,0.9-2,2-2s2,0.9,2,2V15c0,0.1,0,0.3,0,0.4c0,0.1,0,0.1-0.1,0.2
			c0,0.1,0,0.1-0.1,0.2c0,0.1-0.1,0.1-0.1,0.2c0,0.1-0.1,0.1-0.1,0.2c-0.1,0.2-0.3,0.4-0.6,0.6c0,0-0.1,0.1-0.2,0.1
			c-0.1,0-0.1,0.1-0.2,0.1c-0.1,0-0.1,0-0.2,0.1c-0.1,0-0.1,0-0.2,0.1c-0.1,0-0.3,0-0.4,0H7.9c-1.1,0-2-0.9-2-2c0-1.1,0.9-2,2-2h2.2
			L4.4,7.2c-0.8-0.8-0.8-2,0-2.8C4.8,4,5.3,3.8,5.8,3.8 M5.8-0.2c-1.6,0-3.1,0.6-4.2,1.8C0.4,2.7-0.2,4.2-0.2,5.8
			c0,1.6,0.6,3.1,1.8,4.2L3,11.5c-0.7,1-1.1,2.2-1.1,3.5c0,3.3,2.7,6,6,6H15c0.4,0,0.8,0,1.2-0.1c0.2,0,0.4-0.1,0.5-0.1
			c0.1,0,0.3-0.1,0.6-0.2c0.3-0.1,0.4-0.2,0.6-0.3c0.1-0.1,0.3-0.1,0.5-0.3c0.7-0.4,1.2-1,1.7-1.7c0.1-0.2,0.2-0.4,0.3-0.5
			c0.1-0.1,0.2-0.3,0.3-0.6c0.1-0.3,0.2-0.5,0.2-0.6c0-0.1,0.1-0.3,0.1-0.5C21,15.8,21,15.4,21,15V7.9c0-3.3-2.7-6-6-6
			c-1.3,0-2.5,0.4-3.5,1.1l-1.5-1.5C8.9,0.4,7.4-0.2,5.8-0.2L5.8-0.2z"/>
	</g>
</g>
<circle class="st0" cx="85.8" cy="25" r="16"/>
<g>
	<polyline class="st1" points="68.9,34.8 76,34.8 76,41.9 	"/>
	<line class="st1" x1="76" y1="34.8" x2="66.8" y2="44"/>
</g>
<g>
	<polyline class="st1" points="102.9,15 95.8,15 95.8,7.9 	"/>
	<line class="st1" x1="95.8" y1="15" x2="105" y2="5.8"/>
</g>
<g>
	<polyline class="st1" points="95.8,41.9 95.8,34.8 102.9,34.8 	"/>
	<line class="st1" x1="95.8" y1="34.8" x2="105" y2="44"/>
</g>
<g>
	<polyline class="st1" points="76,7.9 76,15 68.9,15 	"/>
	<line class="st1" x1="76" y1="15" x2="66.8" y2="5.8"/>
</g>
</svg>
