<?xml version="1.0" encoding="UTF-8" standalone="no"?>
<!DOCTYPE svg PUBLIC "-//W3C//DTD SVG 1.1//EN" "http://www.w3.org/Graphics/SVG/1.1/DTD/svg11.dtd">
<svg width="100%" height="100%" viewBox="0 0 50 50" version="1.1" xmlns="http://www.w3.org/2000/svg" xmlns:xlink="http://www.w3.org/1999/xlink" xml:space="preserve" xmlns:serif="http://www.serif.com/" style="fill-rule:evenodd;clip-rule:evenodd;stroke-linejoin:round;stroke-miterlimit:2;">
    <g transform="matrix(1,0,0,1,-280,-140)">
        <g id="redondeado-atras" transform="matrix(0.925926,0,0,0.925926,212.407,141.852)">
            <rect x="73" y="-2" width="54" height="54" style="fill:none;"/>
            <clipPath id="_clip1">
                <rect x="73" y="-2" width="54" height="54"/>
            </clipPath>
            <g clip-path="url(#_clip1)">
                <g transform="matrix(2.63221,0,0,4.6442,18.067,-34.5365)">
                    <path d="M39.281,8.211C38.699,7.883 37.779,7.608 36.638,7.411C35.086,7.143 33.107,7.006 31.127,7.006C29.147,7.006 27.168,7.143 25.616,7.411C24.476,7.608 23.555,7.883 22.974,8.211C22.4,8.535 21.92,9.054 21.575,9.7C21.108,10.576 20.87,11.698 20.87,12.82C20.87,13.941 21.108,15.063 21.575,15.939C21.92,16.585 22.4,17.104 22.974,17.428C23.555,17.756 24.476,18.031 25.616,18.228C27.168,18.496 29.147,18.633 31.127,18.633C33.107,18.633 35.086,18.496 36.638,18.228C37.779,18.031 38.699,17.756 39.281,17.428C39.855,17.104 40.335,16.585 40.679,15.939C41.146,15.063 41.385,13.941 41.385,12.82C41.385,11.698 41.146,10.576 40.679,9.7C40.335,9.054 39.855,8.535 39.281,8.211ZM38.122,8.87C38.542,9.107 38.856,9.497 39.108,9.969C39.535,10.77 39.743,11.795 39.743,12.82C39.743,13.844 39.535,14.869 39.108,15.67C38.856,16.142 38.542,16.532 38.122,16.769C37.694,17.011 36.998,17.193 36.159,17.338C34.742,17.583 32.934,17.703 31.127,17.703C29.32,17.703 27.512,17.583 26.095,17.338C25.256,17.193 24.56,17.011 24.132,16.769C23.713,16.532 23.398,16.142 23.146,15.67C22.719,14.869 22.511,13.844 22.511,12.82C22.511,11.795 22.719,10.77 23.146,9.969C23.398,9.497 23.713,9.107 24.132,8.87C24.56,8.628 25.256,8.446 26.095,8.301C27.512,8.056 29.32,7.936 31.127,7.936C32.934,7.936 34.742,8.056 36.159,8.301C36.998,8.446 37.694,8.628 38.122,8.87Z"/>
                </g>
                <g transform="matrix(-0.942815,0.544334,0.544334,0.942815,113.35,-13.2318)">
                    <path d="M16.366,18.205C15.657,18.205 15.002,18.584 14.648,19.197C14.293,19.811 14.293,20.568 14.648,21.182L24.098,37.55C24.452,38.164 25.107,38.542 25.816,38.542C26.525,38.542 27.18,38.164 27.535,37.55L36.985,21.182C37.339,20.568 37.339,19.811 36.985,19.197C36.631,18.584 35.976,18.205 35.267,18.205L16.366,18.205ZM19.802,22.174L31.83,22.174C31.83,22.174 25.816,32.59 25.816,32.59C25.816,32.59 19.802,22.174 19.802,22.174Z"/>
                </g>
            </g>
        </g>
    </g>
</svg>
