<?xml version="1.0" encoding="utf-8"?>
<!-- Generator: Adobe Illustrator 22.0.1, SVG Export Plug-In . SVG Version: 6.00 Build 0)  -->
<svg version="1.1" id="Layer_1"
	xmlns="http://www.w3.org/2000/svg" x="0px" y="0px" viewBox="0 0 50 50"
	style="enable-background:new 0 0 50 50;" xml:space="preserve">
<g>
	<path d="M25,34c-2.1,0-3.2-1.6-3.5-3.5c-0.3-1.8-2.4-2.9-3.6-1.1c-1,1.4,0,3.8,0.8,5.1c1,1.6,2.6,2.8,4.4,3.3V39c0,2.6,4,2.6,4,0
		v-1.3c3.6-1,5.9-4.5,5.4-8.2C32,25.9,29,23.3,25.4,23c-1.8-0.1-3.5-0.9-3.8-2.9c-0.3-1.8,0.9-3.6,2.7-4c1.7-0.4,3.5,0.6,4.1,2.3
		c0.3,0.8,0.1,1.7,0.6,2.4c0.6,0.7,1.6,0.9,2.4,0.5c1.9-0.9,1-3.8,0.3-5.3c-1-1.8-2.7-3.2-4.6-3.7V11c0-2.6-4-2.6-4,0v1.3
		c-5.8,1.6-7.4,9.4-2.6,13.1c1.1,0.8,2.3,1.4,3.7,1.5c1.4,0.2,2.7,0.1,3.7,1.4C29.6,30.6,27.9,34,25,34z"/>
	<path d="M4.8,30.8c-0.3-1.1-1.4-1.7-2.5-1.4c-1.1,0.3-1.7,1.4-1.4,2.5c0.4,1.4,0.9,2.8,1.5,4c0.5,1,1.7,1.4,2.7,0.9
		c1-0.5,1.4-1.7,0.9-2.7C5.6,33.1,5.1,31.9,4.8,30.8z"/>
	<path d="M2.1,25.3c1,0,1.9-0.8,2-1.9c0.1-1.2,0.3-2.4,0.6-3.6c0.3-1.1-0.4-2.2-1.5-2.4c-1.1-0.3-2.2,0.4-2.4,1.5
		c-0.3,1.4-0.6,2.8-0.7,4.3c-0.1,1.1,0.8,2.1,1.9,2.1C2,25.3,2,25.3,2.1,25.3z"/>
	<path d="M49.9,22.4c-0.7-6.6-3.9-12.6-9.1-16.8c-5.2-4.2-11.7-6.2-18.3-5.5C17.3,0.7,12.5,2.7,8.7,6L8.3,2.3
		C8.2,1.2,7.2,0.4,6.1,0.5C5,0.7,4.2,1.6,4.3,2.7l0.8,8c0.1,1,1.1,1.9,2.2,1.8l8-0.8c1.1-0.1,1.9-1.1,1.8-2.2
		C17,8.4,16,7.6,14.9,7.7l-2.1,0.2c5.9-4.2,13.8-5,20.4-2.2c7,3,11.9,9.6,12.6,17.1c0.6,5.6-1.1,11-4.6,15.4
		c-6.8,8.4-19.1,10.2-28.1,4.1c0,0,0,0,0,0c-0.5-0.4-1-0.7-1.5-1.1c-1-0.8-2.1-2.3-3.6-1.6C6.9,40.3,6.6,42,7.6,43
		c0.6,0.5,1.1,1,1.6,1.4c0.5,0.4,1.1,0.9,1.7,1.3c0,0,0,0,0,0c10.5,7.2,25.4,4.9,33.4-4.9C48.6,35.6,50.6,29.1,49.9,22.4z"/>
</g>
</svg>
