<?xml version="1.0" encoding="utf-8"?>
<!-- Generator: Adobe Illustrator 22.0.1, SVG Export Plug-In . SVG Version: 6.00 Build 0)  -->
<svg version="1.1" id="Layer_1"
	xmlns="http://www.w3.org/2000/svg" x="0px" y="0px" viewBox="0 0 50 50"
	style="enable-background:new 0 0 50 50;" xml:space="preserve">
<path d="M50,29c-0.1-0.6-0.4-1-0.9-1.3c0-0.3,0-0.7-0.1-1.1c-0.1-0.5-0.4-0.9-0.6-1.2c-0.1-0.1-0.1-0.2-0.1-0.3c0,0,0,0,0,0
	c0.1-0.3,0.2-0.8,0.2-1.3c0-0.3-0.1-0.6-0.2-0.8c0-0.2,0.1-0.5,0-0.8c-0.1-0.4-0.3-0.8-0.4-1c-0.1-0.1-0.1-0.3-0.2-0.4
	c-0.1-0.1-0.2-0.3-0.2-0.4c0-0.3,0-0.7,0.2-1.2c0.1-0.2,0.1-0.5,0.2-0.7c0.2-0.9-0.2-1.7-1-2.1c0.4-0.1,0.8-0.4,1.2-0.7
	c1-1,1-2.2,1-2.8c0-0.1,0-0.2,0-0.2c0-0.1,0-0.2,0-0.3c0.1-0.8,0.2-1.9-0.4-2.7c-0.8-1.3-2.3-1.3-2.9-1.2c-0.4-0.3-1-0.8-1.9-0.8
	c-0.5,0-1,0-1.4,0.2c0,0-0.1-0.1-0.1-0.1c-0.2-0.2-0.4-0.4-0.7-0.5c-0.1,0-0.1-0.1-0.2-0.1l0,0c-0.1-0.2-0.3-0.5-0.6-0.8
	c-0.9-0.9-2.1-0.8-2.7-0.8c-0.1,0-0.2,0-0.3,0c-0.6-0.1-1.1-0.1-1.6,0c-0.4-0.4-0.8-0.7-1.4-0.9c-0.4-0.1-0.7-0.1-1-0.1
	c-0.5-0.4-1.2-0.6-1.8-0.4c0,0-0.1,0-0.1,0c-0.1,0-0.1,0-0.2,0.1l-0.1,0c0,0,0,0-0.1,0c-0.1,0.1-0.2,0.1-0.3,0.2
	c0,0-0.1,0.1-0.1,0.1c0,0-0.1,0-0.1,0.1l-0.2,0.2c0,0,0,0,0,0c-0.1,0-0.1-0.1-0.2-0.1c-0.6-0.4-1.3-0.5-2-0.2
	c-0.8,0.3-1.6,0.8-2.3,1.5c-0.1,0.2-0.3,0.3-0.3,0.5c0,0,0,0,0,0l-0.3-0.1c-0.4-0.1-0.9-0.2-1.4-0.3c-0.1,0-0.2,0-0.4,0
	c0,0-0.1,0-0.1,0c-0.6-0.4-1.4-0.4-2.1-0.1L21.4,6c-0.1,0-0.1,0.1-0.2,0.1c-0.2-0.3-0.6-0.6-1.1-0.8C19.7,5.1,19.3,5.1,19,5
	c-0.1,0-0.2,0-0.2,0c-0.2,0-0.3-0.1-0.5-0.1c0,0,0,0-0.1,0c-0.1-0.1-0.2-0.2-0.3-0.4c-0.3-0.3-0.5-0.6-0.7-0.8c0,0-0.1-0.1-0.1-0.1
	c-0.1-0.3-0.4-0.9-1.1-1.3C15.2,1.8,14,2,13.4,2.8c-0.4,0.6-0.7,1.1-0.8,1.5c-0.1,0.2-0.2,0.4-0.3,0.7c-0.4,0.6-0.6,1.3-0.9,1.9
	c-0.1,0.2-0.1,0.3-0.2,0.5c-0.2,0.6-0.5,1.4-0.6,2.4c-0.1,0.7,0,1.2,0.1,1.6c0,0.2,0.1,0.3,0.1,0.5c0,0.1-0.1,0.3-0.1,0.4
	c0,0.1-0.1,0.3-0.1,0.5c-0.1,0.1-0.3,0.1-0.4,0.2c-0.4,0.3-0.7,0.6-1,0.8C9,13.9,9,14,8.9,14.1l-0.1,0c-0.4,0.1-1,0.4-1.5,1.1
	c-0.4,0.6-0.5,1.1-0.5,1.6c0,0.2,0,0.3-0.1,0.5c0,0.1,0,0.4-0.1,0.5c-0.2,0.2-0.5,0.4-0.8,0.7c-0.2,0.2-0.4,0.4-0.6,0.5
	c-0.8,0.7-0.9,1.8-0.3,2.6l0.1,0.1c-0.1,0.1-0.3,0.3-0.5,0.4c-0.4,0.4-0.9,0.8-1.3,1.4c-1.3,1.7-0.4,3-0.1,3.6l0.1,0.1
	c0.4,0.7,0.5,1.1,0.5,2.2c-0.1,0-0.1,0.1-0.2,0.1c-0.4,0.3-0.8,0.6-1.1,1c-0.4,0.4-0.5,0.9-0.6,1.2c0,0.1,0,0.1-0.1,0.2
	c-0.1,0.1-0.2,0.2-0.4,0.3c-0.1,0.1-0.3,0.2-0.5,0.3c-0.9,0.6-1.1,1.8-0.6,2.7c1,1.5,2.5,1.5,3.1,1.5l0.1,0c0.4,0.5,1,1.1,2.2,1.2
	c0.2,0.5,0.5,1.1,1.3,1.6c0.1,0.1,0.2,0.1,0.3,0.2c0,0.1,0,0.1,0,0.2l0.1,0.4c0.2,0.9,0.9,1.5,1.8,1.6c0.1,0,0.2,0,0.3,0.1
	c0.4,0.1,0.9,0.2,1.4,0.1c0.1,0,0.2,0,0.3,0c0.6-0.1,1.2-0.3,1.7-0.7c0,0,0.1,0,0.1,0c0.9,0.4,1.8,0.1,2.4-0.7c0,0,0.1-0.1,0.1-0.1
	c0.1,0.1,0.2,0.2,0.3,0.3c0.5,0.5,1.6,1.4,2.9,1.3c0.3,0,0.6,0,0.9-0.1c1.5,1.5,3.6,2.4,4.5,2.7c0.1,0,0.2,0.1,0.3,0.1
	c0.3,0.1,0.6,0.2,1,0.3c0.2,0,0.4,0.1,0.6,0.1c0.2,0.5,0.4,0.8,0.6,1.2l0.1,0.2c0.3,0.6,0.9,1,1.6,1c0.3,0,0.4,0.1,0.9,0.2
	c0.2,0.1,0.4,0.1,0.7,0.1c0.7,0,1.4-0.4,1.8-1.1c0.1-0.3,0.2-0.5,0.3-0.7c0.6-0.1,1.2-0.4,1.5-1c0.2,0.4,0.6,0.9,1.2,1.2
	c0.4,0.2,1.4,0.8,2.8,0.4c1-0.3,1.8-0.9,2.2-1.7c0.1,0,0.3,0,0.4,0c0.5,0.5,1.3,0.6,2,0.4c0.7-0.2,1.2-0.8,1.3-1.6
	c0.1-0.6,0-1.2,0-1.6c0-0.1,0-0.2,0-0.3c0.1-0.3,0.3-0.6,0.4-1.1c0-0.1,0-0.1,0-0.2c0.2-0.2,0.4-0.4,0.6-0.6
	c0.1-0.2,0.3-0.4,0.4-0.5c0-0.1,0.1-0.1,0.1-0.1c0.1-0.1,0.2-0.2,0.3-0.2c0.1,0,0.3,0.1,0.4,0.1l0.2,0c0.9,0.2,1.8-0.2,2.2-1
	l0.1-0.1c0.2-0.4,0.5-0.9,0.6-1.7l0-0.2c0-0.1,0-0.1,0-0.2c0,0,0-0.1,0.1-0.1l0.1-0.1c0.3-0.4,0.9-1.4,0.5-2.6
	c0-0.1-0.1-0.2-0.1-0.3c0.1-0.2,0.2-0.4,0.2-0.7c0-0.4,0-0.7-0.2-1c0.2-0.1,0.5-0.3,0.7-0.5C49.9,30.2,50.1,29.6,50,29z M45,27.7
	L44.9,28c-0.1,0.4-0.1,0.8,0,1.2c0,0-0.1,0.1-0.1,0.1c-0.5,0.8-0.7,1.8-0.3,2.8c-0.2,0.5-0.1,1,0.1,1.5c0.1,0.2,0.2,0.4,0.3,0.5
	c-0.1,0.2-0.2,0.3-0.2,0.4c-0.1,0-0.2,0-0.3-0.1c-1-0.2-1.9,0.2-2.4,0.9c-0.4,0.5-0.5,1-0.5,1.6c-0.1,0.1-0.1,0.2-0.2,0.3
	c0,0.1-0.1,0.1-0.1,0.2c-0.1,0.1-0.3,0.2-0.5,0.3c-0.1,0.1-0.3,0.1-0.4,0.2c-0.7,0.4-1.1,1.3-0.9,2.1c0,0.1,0.1,0.2,0.1,0.4
	c-0.1,0.2-0.2,0.4-0.2,0.7c-0.2,0-0.4,0-0.6-0.1c-0.7-0.2-1.5,0-2,0.5c0,0-0.1,0.1-0.1,0.1c-0.1-0.2-0.3-0.5-0.5-0.7
	c-0.9-0.9-2.7-0.9-3.7-0.5c-0.6,0.3-0.9,0.8-1.2,1.1c0,0.1-0.1,0.1-0.1,0.1c-0.1,0.1-0.2,0.2-0.3,0.3c-0.6-0.1-1.2,0.1-1.6,0.5
	c-0.2-0.3-0.5-0.7-1-0.9c-0.5-0.3-1-0.3-1.4-0.3c-0.2,0-0.4,0-0.5,0c0,0-0.1,0-0.1,0c-0.1,0-0.2-0.1-0.2-0.1
	c-0.2-0.1-0.4-0.1-0.5-0.2c-1.4-0.5-2.7-1.3-3.2-2.1c-0.4-0.6-1-0.9-1.7-0.9c-0.5,0-0.9,0.1-1.2,0.1c-0.1,0-0.3,0-0.4,0.1
	c0,0-0.1-0.1-0.1-0.1c-0.1-0.1-0.1-0.1-0.1-0.2c-0.2-0.3-0.4-0.6-0.8-0.9c-0.4-0.4-0.7-0.7-1.1-1.1c-0.4-0.5-1-0.7-1.7-0.7
	c-0.6,0.1-1.2,0.4-1.5,0.9c-0.2,0.4-0.4,0.8-0.6,1.2c-0.1,0-0.2,0-0.2,0c-0.2,0-0.3,0-0.5,0c-0.6-0.6-1.5-0.9-2.4-0.9
	c0-0.1,0-0.1,0-0.2c-0.2-0.8-0.8-2.1-3-2l-0.1-0.1c-0.3-0.3-0.5-0.5-0.7-0.7c0,0,0,0,0-0.1c0,0,0-0.1,0-0.1C5.7,33,5.9,32.9,6,32.8
	c0.2-0.2,0.4-0.3,0.6-0.5c1.1-0.9,1.2-1.6,1.2-2.8c0-1.4-0.1-2.6-0.9-4.1c0.1-0.1,0.2-0.2,0.4-0.4c0.5-0.5,1.4-1.2,1.8-2.3
	c0.2-0.7,0.2-1.3,0.1-1.8c0.3-0.2,0.5-0.5,0.7-0.8c0.7-0.8,0.8-1.8,0.9-2.5c0,0,0-0.1,0-0.1c0.1-0.1,0.2-0.1,0.3-0.2
	c0.4-0.3,0.7-0.5,0.9-0.8c0.1-0.1,0.2-0.2,0.2-0.2l0,0c0.2-0.1,0.5-0.2,0.8-0.4c0.9-0.6,1.1-1.3,1.2-1.9l0-0.2
	c0-0.1,0.1-0.3,0.1-0.4c0.2-0.5,0.4-1.2,0.3-2c0-0.3-0.1-0.5-0.1-0.8c-0.1-0.3-0.1-0.5-0.1-0.7c0-0.4,0.1-0.7,0.3-1.2
	c0.1-0.2,0.1-0.4,0.2-0.6c0.1-0.2,0.2-0.4,0.2-0.6c0.2,0.3,0.5,0.5,1,0.8c0.5,0.3,1,0.4,1.4,0.4c0.1,0,0.2,0,0.2,0
	c0.1,0,0.1,0,0.2,0c0,0,0,0.1,0.1,0.1c0.3,0.6,0.8,0.9,1.1,1.1l0.1,0.1c0.1,0.1,0.2,0.2,0.3,0.3c0.1,0.2,0.3,0.3,0.4,0.5
	c0.7,0.8,2,0.8,2.8,0.1c0,0,0.1-0.1,0.2-0.1c0.3-0.3,0.7-0.6,1-1.1c0.2,0,0.4,0.1,0.6,0.1c0.1,0,0.3,0.1,0.4,0.1
	c0.4,0.1,0.7,0.1,1,0.1c0.1,0,0.2,0,0.3,0l0,0c0.4,0.2,1.2,0.7,2.2,0.4c0.9-0.2,1.6-1,1.6-2c0.5,0.1,1,0.1,1.6,0
	c0.4-0.1,0.7-0.3,1-0.5c0.2,0.1,0.5,0.1,0.8,0.1c0.1,0,0.2,0,0.4,0c0.1,0.1,0.1,0.1,0.1,0.2c0.1,0.1,0.3,0.3,0.4,0.4
	c0.5,0.5,1.3,0.7,2,0.5c0.5-0.2,0.7-0.2,1.2-0.1c0.3,0,0.5,0,0.8,0c0.1,0.1,0.2,0.3,0.4,0.4c0.2,0.2,0.5,0.4,0.7,0.6
	c0.1,0.1,0.2,0.1,0.2,0.2c0.1,0.1,0.3,0.2,0.4,0.4c0.4,0.3,0.8,0.7,1.2,1.1c0.5,0.4,1.1,0.5,1.7,0.3c0.3-0.1,0.6-0.3,0.9-0.5
	c0.3,0.2,0.6,0.3,1,0.4c0,0,0.1,0,0.1,0c0,0.1,0,0.2,0,0.3c-0.1,0-0.3,0-0.5,0.1c-1.1,0.2-2,0.8-2.6,1.6c-0.3,0.4-0.5,0.8-0.6,1
	c0,0.1-0.1,0.1,0,0.1c0,0,0,0,0,0c-0.7,0.6-0.8,1.6-0.4,2.4c0.6,1.2,1.8,1.7,2.6,2c0,0,0.1,0,0.1,0c0,0.4,0,0.9,0,1.3
	c0.1,0.6,0.3,1.1,0.5,1.5c0,0.1,0.1,0.1,0.1,0.2c0,0.2-0.1,0.5,0,0.8c0,0.3,0.1,0.5,0.2,0.7c-0.2,0.9-0.2,1.5,0.2,2.4
	c0.1,0.3,0.3,0.6,0.4,0.8c0,0,0,0.1,0.1,0.1C45,27.6,45,27.6,45,27.7z"/>
</svg>
