<?xml version="1.0" encoding="utf-8"?>
<!-- Generator: Adobe Illustrator 21.1.0, SVG Export Plug-In . SVG Version: 6.00 Build 0)  -->
<svg version="1.1" id="Layer_1"
	xmlns="http://www.w3.org/2000/svg" x="0px" y="0px" viewBox="0 0 50 50"
	style="enable-background:new 0 0 50 50;" xml:space="preserve">
<path d="M25,0C11.2,0,0,11.2,0,25s11.2,25,25,25s25-11.2,25-25S38.8,0,25,0z M25,46C13.4,46,4,36.6,4,25S13.4,4,25,4s21,9.4,21,21
	S36.6,46,25,46z"/>
<path d="M36.3,29.4l-9.5-5.5V11.1c0-1-0.8-1.9-1.9-1.9S23,10,23,11.1V25c0.2,0.9,0.5,1.3,1.1,1.7l10.2,5.9c0.9,0.5,2,0.2,2.5-0.7
	C37.5,31.1,37.2,29.9,36.3,29.4z"/>
</svg>
