<?xml version="1.0" encoding="utf-8"?>
<!-- Generator: Adobe Illustrator 22.0.1, SVG Export Plug-In . SVG Version: 6.00 Build 0)  -->
<svg version="1.1" id="Layer_1"
	xmlns="http://www.w3.org/2000/svg" x="0px" y="0px" viewBox="0 0 50 50"
	style="enable-background:new 0 0 50 50;" xml:space="preserve">
<path d="M45.9,4.4c-1.9-0.6-4-0.2-5.5,0.9c-4-3.1-8.9-5-14.1-5.3c-6.7-0.4-13.1,1.9-18,6.4C3.3,10.9,0.4,17,0,23.7
	c-0.4,6.7,1.9,13.1,6.4,18c4.5,5,10.6,7.9,17.3,8.3c0.4,0,0.9,0,1.3,0c7.6,0,14.9-3.5,19.7-9.6c2-2.6,1.6-6.4-1-8.4
	c-2.6-2-6.4-1.6-8.4,1c-2.6,3.3-6.7,5.2-10.9,5c-7.2-0.4-12.7-6.5-12.3-13.7c0.4-7.2,6.5-12.7,13.7-12.3c1.4,0.1,2.8,0.4,4.1,0.9
	c-0.7,3,1,6.1,4,7.1l6.3,2.1c0.2,0.1,0.4,0.1,0.5,0.1c0,0,0.1,0,0.1,0c0.4,0.1,0.8,0.2,1.3,0.2c0.1,0,0.2,0,0.4,0c0.1,0,0.2,0,0.2,0
	c0.2,0,0.5-0.1,0.7-0.1c0.1,0,0.2-0.1,0.4-0.1c0.1,0,0.3-0.1,0.4-0.1c0.1-0.1,0.3-0.1,0.4-0.2c0.1,0,0.2-0.1,0.3-0.2
	c0.2-0.1,0.4-0.2,0.6-0.4c0.1-0.1,0.1-0.1,0.2-0.2c0.2-0.1,0.4-0.3,0.5-0.4c0,0,0,0,0.1-0.1c0.2-0.2,0.4-0.4,0.5-0.6
	c0,0,0.1-0.1,0.1-0.1c0,0,0,0,0-0.1c0.2-0.2,0.3-0.4,0.4-0.7c0,0,0,0,0-0.1c0,0,0-0.1,0-0.1c0.1-0.2,0.2-0.5,0.3-0.7c0,0,0,0,0-0.1
	c0,0,0,0,0,0c0,0,0,0,0,0l2.1-6.2C50.7,8.9,49,5.5,45.9,4.4z M45.9,10.8L43.8,17c0,0,0,0,0,0l0,0c0,0,0,0,0,0c0,0,0,0,0,0
	c0,0,0,0,0,0c-0.1,0.2-0.1,0.3-0.3,0.5c0,0,0,0,0,0.1c0,0,0,0,0,0c-0.1,0.1-0.2,0.3-0.4,0.4c0,0-0.1,0.1-0.1,0.1
	c0,0-0.1,0.1-0.1,0.1c-0.1,0-0.1,0-0.2,0.1c-0.1,0-0.1,0.1-0.2,0.1c-0.1,0-0.3,0.1-0.4,0.1c0,0-0.1,0-0.1,0c-0.1,0-0.1,0-0.2,0
	c-0.1,0-0.1,0-0.2,0c-0.1,0-0.2,0-0.2,0L35,16.2c-1-0.3-1.6-1.5-1.3-2.5c0.3-1,1.5-1.6,2.5-1.3l0.2,0.1C33.6,9.9,29.9,8.2,25.9,8
	C16.6,7.5,8.5,14.7,8,24.1c-0.2,4.5,1.3,8.9,4.3,12.3c3,3.4,7.2,5.4,11.7,5.6c5.5,0.3,10.9-2.1,14.3-6.5c0.7-0.9,1.9-1,2.8-0.3
	c0.9,0.7,1,1.9,0.3,2.8C37.5,43,31.4,46,25,46c-0.4,0-0.7,0-1.1,0c-5.6-0.3-10.8-2.8-14.5-6.9C5.6,34.9,3.7,29.5,4,23.9
	C4.3,18.3,6.8,13.1,11,9.4c4.2-3.8,9.6-5.6,15.2-5.4c6,0.3,11.5,3.2,15.2,7.8l0.8-2.3c0.3-1,1.5-1.6,2.5-1.3
	C45.7,8.6,46.3,9.7,45.9,10.8z"/>
</svg>
