<?xml version="1.0" encoding="utf-8"?>
<!-- Generator: Adobe Illustrator 22.0.1, SVG Export Plug-In . SVG Version: 6.00 Build 0)  -->
<svg version="1.1" id="Layer_1"
	xmlns="http://www.w3.org/2000/svg" x="0px" y="0px" viewBox="0 0 50 50"
	style="enable-background:new 0 0 50 50;" xml:space="preserve">
<path d="M25,0c-1.1,0-2,0.9-2,2s0.9,2,2,2c11.6,0,21,9.4,21,21c0,11.6-9.4,21-21,21C13.4,46,4,36.6,4,25c0-0.6,0-1.2,0.1-1.8
	c0-0.1,0-0.2,0-0.4c0.3-2.9,1.2-5.6,2.6-8.1c0,1.1,0.9,2,2,2c1.1,0,2-0.9,2-2v-6c0-0.1,0-0.2,0-0.3c0,0,0,0,0-0.1
	c0-0.1-0.1-0.3-0.1-0.4c-0.1-0.1-0.1-0.2-0.2-0.3c0,0,0,0,0-0.1c-0.1-0.1-0.1-0.2-0.2-0.3l-0.1-0.1c-0.2,0-0.2,0-0.3-0.1
	C9.7,7,9.7,7,9.6,6.9c-0.1,0-0.1-0.1-0.2-0.1c-0.1,0-0.1,0-0.2-0.1c-0.1,0-0.1,0-0.2,0s-0.2,0-0.3,0H8.6h-6c-1.1,0-2,0.9-2,2
	c0,1.1,0.9,2,2,2h1.8c-1.1,1.6-2,3.4-2.7,5.3c-0.1,0.2-0.2,0.4-0.2,0.7c-0.1,0.4-0.3,0.8-0.4,1.2c-0.1,0.3-0.2,0.7-0.3,1
	c-0.1,0.3-0.2,0.7-0.2,1c-0.1,0.3-0.1,0.7-0.2,1c-0.1,0.4-0.1,0.8-0.2,1.2c0,0.3-0.1,0.6-0.1,0.9C0,23.6,0,24.3,0,25
	c0,13.8,11.2,25,25,25c13.8,0,25-11.2,25-25S38.8,0,25,0z"/>
</svg>
