<?xml version="1.0" encoding="utf-8"?>
<!-- Generator: Adobe Illustrator 24.0.1, SVG Export Plug-In . SVG Version: 6.00 Build 0)  -->
<svg version="1.1" id="Layer_1" xmlns="http://www.w3.org/2000/svg" xmlns:xlink="http://www.w3.org/1999/xlink" x="0px" y="0px"
	 viewBox="0 0 50 50" style="enable-background:new 0 0 50 50;" xml:space="preserve">
<style type="text/css">
	.st0{display:none;}
	.st1{display:inline;}
</style>
<g class="st0">
	<path class="st1" d="M46.5,41.1c0-3.3-2.6-5.9-5.9-5.9c-3.3,0-5.9,2.6-5.9,5.9s2.6,5.9,5.9,5.9l0,0C43.9,47,46.5,44.4,46.5,41.1z
		 M38.1,41.1c0-1.4,1.1-2.5,2.5-2.5s2.5,1.1,2.5,2.5s-1.1,2.5-2.5,2.5l0,0C39.3,43.7,38.1,42.5,38.1,41.1L38.1,41.1z"/>
	<path class="st1" d="M46,11.1H28.8c-0.9,0-1.7,0.8-1.7,1.7s0.8,1.7,1.7,1.7H46c0.3,0,0.6,0.2,0.6,0.5c0,0.1,0,0.1,0,0.2l-3.1,12.5
		c-0.2,0.8-0.9,1.3-1.6,1.3H19c-0.8,0-1.5-0.5-1.6-1.3l-5-20.8C11.8,4.6,9.7,3,7.4,3H1.7C0.8,3,0,3.7,0,4.6s0.8,1.7,1.7,1.7h5.7
		c0.8,0,1.5,0.5,1.6,1.3l5,20.8c0.5,2.3,2.6,3.9,4.9,3.9h22.9c2.3,0,4.4-1.6,4.9-3.9L49.9,16c0.5-2.1-0.8-4.3-2.9-4.8
		C46.7,11.2,46.4,11.1,46,11.1L46,11.1z"/>
	<path class="st1" d="M24.6,41.1c0-3.3-2.6-5.9-5.9-5.9s-5.9,2.6-5.9,5.9c0,3.3,2.6,5.9,5.9,5.9S24.6,44.4,24.6,41.1z M16.2,41.1
		c0-1.4,1.1-2.5,2.5-2.5s2.5,1.1,2.5,2.5s-1.1,2.5-2.5,2.5l0,0C17.4,43.7,16.2,42.5,16.2,41.1z"/>
</g>
<path d="M36,0H14C6.3,0,0,6.3,0,14v5.5c0,1.1,0.9,2,2,2s2-0.9,2-2V14C4,8.5,8.5,4,14,4h22c5.5,0,10,4.5,10,10v11.5
	c0,5.5-4.5,10-10,10H23h-9H6.9l7.1-7.1c0.8-0.8,0.8-2,0-2.8s-2-0.8-2.8,0L0.6,36.1c-0.1,0.1-0.2,0.2-0.3,0.3c0,0-0.1,0.1-0.1,0.1
	c0,0.1-0.1,0.1-0.1,0.2c0,0.1,0,0.1-0.1,0.2c0,0.1,0,0.1-0.1,0.2c-0.1,0.3-0.1,0.5,0,0.8c0,0.1,0,0.1,0.1,0.2c0,0.1,0,0.1,0.1,0.2
	c0,0.1,0.1,0.1,0.1,0.2c0,0,0,0.1,0.1,0.1c0.1,0.1,0.2,0.2,0.3,0.3l10.5,10.5c0.4,0.4,0.9,0.6,1.4,0.6s1-0.2,1.4-0.6
	c0.8-0.8,0.8-2,0-2.8l-7.1-7.1H14h9h13c7.7,0,14-6.3,14-14V14C50,6.3,43.7,0,36,0z"/>
</svg>
