<?xml version="1.0" encoding="utf-8"?>
<!-- Generator: Adobe Illustrator 22.0.1, SVG Export Plug-In . SVG Version: 6.00 Build 0)  -->
<svg version="1.1" id="Layer_1" xmlns="http://www.w3.org/2000/svg" x="0px" y="0px"
	viewBox="0 0 50 50" style="enable-background:new 0 0 50 50;" xml:space="preserve">
<g>
	<path d="M25,39.2L25,39.2c-2.2,0-4,1.8-4,4c0,2.2,1.8,4,4,4c2.2,0,4-1.8,4-4C29,41,27.2,39.2,25,39.2z"/>
	<path d="M49.4,16.8c-6.6-6.5-15.3-10-24.4-10c-9.1,0-17.8,3.6-24.4,10c-0.8,0.8-0.8,2,0,2.8c0.8,0.8,2,0.8,2.8,0
		c5.9-5.7,13.5-8.9,21.6-8.9c8.1,0,15.7,3.2,21.6,8.9c0.4,0.4,0.9,0.6,1.4,0.6c0.5,0,1-0.2,1.4-0.6C50.2,18.8,50.2,17.6,49.4,16.8z"
		/>
	<path d="M25,15.2c-6.9,0-13.4,2.7-18.3,7.6c-0.8,0.8-0.8,2,0,2.8c0.4,0.4,0.9,0.6,1.4,0.6s1-0.2,1.4-0.6c4.2-4.2,9.7-6.5,15.5-6.5
		s11.3,2.3,15.5,6.5c0.8,0.8,2,0.8,2.8,0c0.8-0.8,0.8-2,0-2.8C38.4,18,31.9,15.2,25,15.2z"/>
	<path d="M25,23.7c-4.7,0-9.1,1.8-12.4,5.1c-0.8,0.8-0.8,2,0,2.8c0.8,0.8,2,0.8,2.8,0c2.6-2.6,5.9-3.9,9.6-3.9
		c3.6,0,7.1,1.4,9.6,3.9c0.4,0.4,0.9,0.6,1.4,0.6s1-0.2,1.4-0.6c0.8-0.8,0.8-2,0-2.8C34.2,25.6,29.7,23.7,25,23.7z"/>
	<path d="M25,32.2c-2.3,0-4.7,1-6.4,2.7c-0.8,0.8-0.8,2,0,2.8c0.8,0.8,2,0.8,2.8,0c0.9-0.9,2.3-1.5,3.5-1.5c1.6,0,2.8,0.8,3.5,1.5
		c0.4,0.4,0.9,0.6,1.4,0.6s1-0.2,1.4-0.6c0.8-0.8,0.8-2,0-2.8C29.6,33.1,27.4,32.2,25,32.2z"/>
</g>
</svg>
