<?xml version="1.0" encoding="utf-8"?>
<!-- Generator: Adobe Illustrator 22.0.1, SVG Export Plug-In . SVG Version: 6.00 Build 0)  -->
<svg version="1.1" id="Layer_1" xmlns="http://www.w3.org/2000/svg" x="0px" y="0px"
	viewBox="0 0 50 50" style="enable-background:new 0 0 50 50;" xml:space="preserve">
<g>
	<circle cx="4" cy="46" r="4"/>
	<path d="M4,24c-0.7,0-1.4,0-2.3,0.1c-1.1,0.2-1.9,1.2-1.7,2.3c0.2,1.1,1.2,1.8,2.3,1.7C2.8,28,3.4,28,4,28c9.9,0,18,8.1,18,18
		c0,0.6,0,1.2-0.1,1.7c-0.2,1.1,0.6,2.1,1.7,2.3c0.1,0,0.2,0,0.3,0c1,0,1.8-0.7,2-1.7C26,47.4,26,46.7,26,46C26,33.9,16.1,24,4,24z"
		/>
	<path d="M4,32c-0.8,0-1.4,0.1-2.1,0.2l-0.2,0c-1.1,0.2-1.9,1.2-1.7,2.3c0.2,1.1,1.2,1.9,2.3,1.7l0.2,0C3.1,36.1,3.5,36,4,36
		c5.5,0,10,4.5,10,10c0,0.5-0.1,0.9-0.1,1.5l0,0.2c-0.2,1.1,0.6,2.1,1.7,2.3c0.1,0,0.2,0,0.3,0c1,0,1.8-0.7,2-1.7l0-0.2
		c0.1-0.6,0.2-1.3,0.2-2.1C18,38.3,11.7,32,4,32z"/>
	<path d="M4,16c-0.7,0-1.4,0-2.3,0.1c-1.1,0.2-1.9,1.2-1.7,2.3s1.2,1.9,2.3,1.7C2.8,20,3.4,20,4,20c14.3,0,26,11.7,26,26
		c0,0.3,0,0.6,0,0.8c0,0.4-0.1,0.7-0.1,1.2c0,1.1,0.9,2,2,2s2-0.9,2-2c0-0.3,0-0.6,0-0.8c0-0.4,0.1-0.7,0.1-1.2
		C34,29.5,20.5,16,4,16z"/>
	<path d="M4,8C3.3,8,2.6,8,1.7,8.1C0.6,8.3-0.1,9.3,0,10.4s1.2,1.9,2.3,1.7C2.8,12,3.4,12,4,12c18.7,0,34,15.3,34,34
		c0,0.3,0,0.6,0,0.8c0,0.4-0.1,0.7-0.1,1.2c0,1.1,0.9,2,2,2s2-0.9,2-2c0-0.3,0-0.6,0-0.8c0-0.4,0.1-0.7,0.1-1.2C42,25,25,8,4,8z"/>
	<path d="M4,0C3.3,0,2.6,0,1.7,0.1C0.6,0.3-0.1,1.3,0,2.4s1.2,1.9,2.3,1.7C2.8,4,3.4,4,4,4c23.2,0,42,18.8,42,42
		c0,0.6,0,1.2-0.1,1.7c-0.2,1.1,0.6,2.1,1.7,2.3c0.1,0,0.2,0,0.3,0c1,0,1.8-0.7,2-1.7C50,47.4,50,46.7,50,46C50,20.6,29.4,0,4,0z"/>
</g>
</svg>
