<?xml version="1.0" encoding="UTF-8" standalone="no"?>
<!DOCTYPE svg PUBLIC "-//W3C//DTD SVG 1.1//EN" "http://www.w3.org/Graphics/SVG/1.1/DTD/svg11.dtd">
<svg width="100%" height="100%" viewBox="0 0 50 51" version="1.1" xmlns="http://www.w3.org/2000/svg" xmlns:xlink="http://www.w3.org/1999/xlink" xml:space="preserve" xmlns:serif="http://www.serif.com/" style="fill-rule:evenodd;clip-rule:evenodd;stroke-linejoin:round;stroke-miterlimit:2;">
    <g transform="matrix(1,0,0,1,-420,-140)">
        <g id="sitio-externo" transform="matrix(0.925926,0,0,0.925926,352.407,141.877)">
            <rect x="73" y="-2" width="54" height="54" style="fill:none;"/>
            <clipPath id="_clip1">
                <rect x="73" y="-2" width="54" height="54"/>
            </clipPath>
            <g clip-path="url(#_clip1)">
                <g transform="matrix(1.08,0,0,1.08,-380.6,-153.227)">
                    <path d="M463.172,144.025L441.113,166.084C440.333,166.864 440.333,168.131 441.113,168.912C441.894,169.692 443.161,169.692 443.942,168.912L466,146.854L466,158.061C466,159.165 466.896,160.061 468,160.061C469.104,160.061 470,159.165 470,158.061L470,142.025C470,141.725 469.934,141.441 469.816,141.186L469.803,141.158L469.793,141.139L469.781,141.115L469.778,141.109C469.7,140.957 469.601,140.813 469.481,140.681L469.48,140.68C469.469,140.668 469.459,140.657 469.448,140.646L469.432,140.629L469.414,140.611C469.403,140.6 469.392,140.589 469.381,140.579L469.379,140.577C469.368,140.566 469.357,140.556 469.346,140.545L469.344,140.544C469.212,140.424 469.068,140.325 468.916,140.247L468.906,140.242L468.886,140.232L468.867,140.222L468.839,140.209C468.584,140.091 468.3,140.025 468,140.025L451.964,140.025C450.86,140.025 449.964,140.921 449.964,142.025C449.964,143.129 450.86,144.025 451.964,144.025L463.172,144.025Z"/>
                </g>
                <g transform="matrix(1.08,0,0,1.08,-380.6,-153.227)">
                    <path d="M461.693,156.817C461.894,157.666 462,158.55 462,159.458C462,159.458 462,178.592 462,178.592C462,184.902 456.877,190.025 450.567,190.025C450.567,190.025 431.433,190.025 431.433,190.025C425.123,190.025 420,184.902 420,178.592C420,178.592 420,159.458 420,159.458C420,153.148 425.123,148.025 431.433,148.025L450.567,148.025C451.475,148.025 452.359,148.131 453.208,148.332L449.781,151.758L431.433,151.758C427.184,151.758 423.733,155.209 423.733,159.458L423.733,178.592C423.733,182.841 427.184,186.292 431.433,186.292L450.567,186.292C454.816,186.292 458.267,182.841 458.267,178.592L458.267,160.244L461.693,156.817Z"/>
                </g>
            </g>
        </g>
    </g>
</svg>
