<?xml version="1.0" encoding="utf-8"?>
<!-- Generator: Adobe Illustrator 21.1.0, SVG Export Plug-In . SVG Version: 6.00 Build 0)  -->
<svg version="1.1" id="Layer_1" xmlns="http://www.w3.org/2000/svg" x="0px" y="0px"
	viewBox="0 0 50 50" style="enable-background:new 0 0 50 50;" xml:space="preserve">
<path d="M25,41.4c-1.1,0-2,0.9-2,2V48c0,1.1,0.9,2,2,2s2-0.9,2-2v-4.6C27,42.3,26.1,41.4,25,41.4z"/>
<path d="M25,8.6c1.1,0,2-0.9,2-2V2c0-1.1-0.9-2-2-2s-2,0.9-2,2v4.6C23,7.7,23.9,8.6,25,8.6z"/>
<path d="M8.6,25c0-1.1-0.9-2-2-2H2c-1.1,0-2,0.9-2,2s0.9,2,2,2h4.6C7.7,27,8.6,26.1,8.6,25z"/>
<path d="M48,23h-4.6c-1.1,0-2,0.9-2,2s0.9,2,2,2H48c1.1,0,2-0.9,2-2S49.1,23,48,23z"/>
<path d="M10.6,36.6l-3.3,3.3c-0.8,0.8-0.8,2,0,2.8c0.4,0.4,0.9,0.6,1.4,0.6s1-0.2,1.4-0.6l3.3-3.3c0.8-0.8,0.8-2,0-2.8
	C12.6,35.8,11.4,35.8,10.6,36.6z"/>
<path d="M38,14c0.5,0,1-0.2,1.4-0.6l3.3-3.3c0.8-0.8,0.8-2,0-2.8c-0.8-0.8-2-0.8-2.8,0l-3.3,3.3c-0.8,0.8-0.8,2,0,2.8
	C37,13.8,37.5,14,38,14z"/>
<path d="M35.3,14.7c-5.7-5.7-14.9-5.7-20.5,0c-5.7,5.7-5.7,14.9,0,20.5c2.7,2.7,6.4,4.2,10.3,4.2c3.9,0,7.5-1.5,10.3-4.2
	C40.9,29.6,40.9,20.4,35.3,14.7z M32.4,32.4c-2,2-4.6,3.1-7.4,3.1s-5.4-1.1-7.4-3.1c-4.1-4.1-4.1-10.8,0-14.8c2-2,4.7-3.1,7.4-3.1
	c2.7,0,5.4,1,7.4,3.1C36.5,21.7,36.5,28.3,32.4,32.4z"/>
<path d="M10.6,13.4C11,13.8,11.5,14,12,14s1-0.2,1.4-0.6c0.8-0.8,0.8-2,0-2.8l-3.3-3.3c-0.8-0.8-2-0.8-2.8,0c-0.8,0.8-0.8,2,0,2.8
	L10.6,13.4z"/>
<path d="M39.4,36.6c-0.8-0.8-2-0.8-2.8,0s-0.8,2,0,2.8l3.3,3.3c0.4,0.4,0.9,0.6,1.4,0.6s1-0.2,1.4-0.6c0.8-0.8,0.8-2,0-2.8
	L39.4,36.6z"/>
</svg>
