<?xml version="1.0" encoding="utf-8"?>
<!-- Generator: Adobe Illustrator 24.0.1, SVG Export Plug-In . SVG Version: 6.00 Build 0)  -->
<svg version="1.1" id="Layer_1" xmlns="http://www.w3.org/2000/svg" xmlns:xlink="http://www.w3.org/1999/xlink" x="0px" y="0px"
	 viewBox="0 0 50 50" style="enable-background:new 0 0 50 50;" xml:space="preserve">
<g>
	<path d="M48,8.5H2c-1.1,0-2,0.9-2,2v29c0,1.1,0.9,2,2,2h46c1.1,0,2-0.9,2-2v-29C50,9.4,49.1,8.5,48,8.5z M46,12.5v2.4H4v-2.4H46z
		 M4,37.5V21.9h42v15.6H4z"/>
	<path d="M28.5,24h-21c-1.1,0-2,0.9-2,2s0.9,2,2,2h21c1.1,0,2-0.9,2-2S29.6,24,28.5,24z"/>
</g>
</svg>
