<?xml version="1.0" encoding="utf-8"?>
<!-- Generator: Adobe Illustrator 21.1.0, SVG Export Plug-In . SVG Version: 6.00 Build 0)  -->
<svg version="1.1" id="Layer_1"
	xmlns="http://www.w3.org/2000/svg" x="0px" y="0px" viewBox="0 0 50 50"
	style="enable-background:new 0 0 50 50;" xml:space="preserve">
<path d="M42.2,30.3l-3.3-1.6c-3-1.4-4.5,0.5-6.5,3.1c-0.5,0.6-1.1,1.4-1.8,2.2c0,0,0,0,0,0.1c0,0,0,0-0.1,0
	c-6.4-2.5-11.2-6.6-14.8-12.6c0,0,0,0,0-0.1c0,0,0.1-0.1,0.1-0.2c2.2-2.5,4.2-4.8,3.2-7.7c-1.2-3.1-2.5-6.1-3.7-8.9
	C14.9,3.9,14,2.2,12.5,2l-0.1,0c-2.1-0.4-5-0.8-7.4,1.4c-5.5,5.1-6.5,12.9-2.5,19.9c9.7,16.8,24.2,24.6,34.3,25c0.2,0,0.5,0,0.7,0
	c2.7,0,6.4-0.9,9.2-3.6c2.3-2.2,3.4-5.2,3.3-8.7C49.9,33.9,49.2,33.6,42.2,30.3z M43.9,41.8c-2,1.9-4.8,2.6-6.9,2.4l-0.1,0
	c-9-0.3-22.1-7.6-31-23C2.8,15.9,3.5,10.2,7.7,6.3c0.5-0.5,1.1-0.6,1.8-0.6c0.5,0,1.2,0.1,1.9,0.2c0.1,0.1,0.1,0.2,0.2,0.3
	c1.2,2.8,2.5,5.7,3.6,8.7c0.2,0.6-1.1,2.1-2.4,3.7c-1.3,1.5-1.5,3.3-0.5,4.9c4,6.7,9.6,11.6,16.8,14.3c1.8,0.7,3.5,0.2,4.7-1.2
	c0.7-0.9,1.3-1.6,1.8-2.3c0.6-0.8,1.3-1.6,1.7-2c0,0,0,0,0,0l3.3,1.6c2.8,1.3,4.7,2.2,5.5,2.7C46,38.7,45.3,40.5,43.9,41.8z"/>
</svg>
