<?xml version="1.0" encoding="utf-8"?>
<!-- Generator: Adobe Illustrator 22.0.1, SVG Export Plug-In . SVG Version: 6.00 Build 0)  -->
<svg version="1.1" id="Layer_1"
	xmlns="http://www.w3.org/2000/svg" x="0px" y="0px" viewBox="0 0 50 50"
	style="enable-background:new 0 0 50 50;" xml:space="preserve">
<path d="M48,4H2C0.9,4,0,4.9,0,6s0.9,2,2,2h46c1.1,0,2-0.9,2-2S49.1,4,48,4z"/>
<path d="M48,23H2c-1.1,0-2,0.9-2,2s0.9,2,2,2h46c1.1,0,2-0.9,2-2S49.1,23,48,23z"/>
<path d="M0,44c0,1.1,0.9,2,2,2h30c1.1,0,2-0.9,2-2s-0.9-2-2-2H2C0.9,42,0,42.9,0,44z"/>
</svg>
