<?xml version="1.0" encoding="utf-8"?>
<!-- Generator: Adobe Illustrator 25.1.0, SVG Export Plug-In . SVG Version: 6.00 Build 0)  -->
<svg version="1.1" id="Layer_1" xmlns="http://www.w3.org/2000/svg" xmlns:xlink="http://www.w3.org/1999/xlink" x="0px" y="0px"
	 viewBox="0 0 50 50" style="enable-background:new 0 0 50 50;" xml:space="preserve">
<style type="text/css">
	.st0{display:none;}
	.st1{display:inline;}
	.st2{fill:#402673;fill-opacity:0.8;}
</style>
<g class="st0">
	<rect x="22.9" y="22.2" transform="matrix(0.7825 -0.6227 0.6227 0.7825 -12.0816 20.8772)" class="st1" width="1.9" height="11"/>
	<rect x="19.8" y="24.7" transform="matrix(0.7825 -0.6226 0.6226 0.7825 -14.298 19.5064)" class="st1" width="1.9" height="11"/>
	<rect x="27.6" y="17.6" transform="matrix(0.7826 -0.6225 0.6225 0.7826 -5.9483 22.0141)" class="st1" width="1.9" height="3.9"/>
	<rect x="31.5" y="22.5" transform="matrix(0.7826 -0.6225 0.6225 0.7826 -8.1982 25.5113)" class="st1" width="1.9" height="3.9"/>
	<path class="st1" d="M48.2,20.8l-1.8-2.1c-0.5-0.6-1.4-0.9-2.3-0.5c-2.2,1-5,0.4-6.6-1.6c-1.6-2.1-1.7-4.8-0.1-7
		c0.5-0.7,0.5-1.7,0-2.3L35.7,5c-1.4-1.7-3.8-2-5.5-0.6L1.5,27.2c-1.7,1.4-2,3.8-0.6,5.5l1.8,2.1c0.5,0.6,1.4,0.9,2.3,0.5
		c2.2-1,5-0.4,6.6,1.6c1.5,2,1.6,4.7,0.1,6.9c-0.5,0.7-0.5,1.7,0,2.3l1.8,2.2c1.4,1.7,3.9,2,5.6,0.6l0,0l28.6-22.8l0,0
		C49.3,24.9,49.5,22.5,48.2,20.8z M45.2,23.3L45.2,23.3L45.2,23.3l-7.6,6.1l-2.1-2.7L34,27.9l2.1,2.7L16.6,46.1c0,0,0,0-0.1,0
		s-0.1,0-0.1,0L15.5,45c1.6-3.3,1.3-7.2-1-10.2l0,0c-2.4-3-6.2-4.2-9.8-3.2l-0.9-1.3l0,0l0,0l0,0l0,0l19.5-15.6l2.2,2.8l1.5-1.2
		l-2.2-2.8l7.7-6.2l0,0l0,0l0,0l0,0l0.9,1.2c-1.6,3.3-1.3,7.2,1,10.2l0,0c2.4,3,6.2,4.2,9.8,3.2l0.9,1.2
		C45.2,23.2,45.2,23.2,45.2,23.3C45.2,23.2,45.2,23.2,45.2,23.3L45.2,23.3z"/>
</g>
<path class="st2" d="M36.8,16.6H13.2c-1.2,0-2.1,0.9-2.1,2.1v12.6c0,1.2,0.9,2.1,2.1,2.1h23.6c1.2,0,2.1-0.9,2.1-2.1V18.7
	C38.9,17.5,38,16.6,36.8,16.6z M36.1,30.6H13.9V19.4h22.2V30.6z M47.2,22.2H50v-9.8c0-2.3-1.9-4.2-4.2-4.2H4.2
	C1.9,8.2,0,10.1,0,12.4v9.8h2.8c1.5,0,2.8,1.3,2.8,2.8c0,1.5-1.2,2.8-2.8,2.8H0v9.8c0,2.3,1.9,4.2,4.2,4.2h41.7
	c2.3,0,4.2-1.9,4.2-4.2v-9.8h-2.8c-1.5,0-2.8-1.3-2.8-2.8C44.4,23.5,45.7,22.2,47.2,22.2z M47.2,30.6v7c0,0.8-0.6,1.4-1.4,1.4H4.2
	c-0.8,0-1.4-0.6-1.4-1.4v-7c3.1,0,5.6-2.5,5.6-5.6s-2.5-5.6-5.6-5.6v-7c0-0.8,0.6-1.4,1.4-1.4h41.7c0.8,0,1.4,0.6,1.4,1.4v7
	c-3.1,0-5.6,2.5-5.6,5.6S44.2,30.6,47.2,30.6z"/>
</svg>
