<?xml version="1.0" encoding="utf-8"?>
<!-- Generator: Adobe Illustrator 22.0.1, SVG Export Plug-In . SVG Version: 6.00 Build 0)  -->
<svg version="1.1" id="Layer_1"
	xmlns="http://www.w3.org/2000/svg" x="0px" y="0px" viewBox="0 0 50 50"
	style="enable-background:new 0 0 50 50;" xml:space="preserve">
<style type="text/css">
	.st0{display:none;}
	.st1{display:inline;}
	.st2{opacity:0.6;}
</style>
<g class="st0">
	<rect x="22.9" y="22.2" transform="matrix(0.7825 -0.6227 0.6227 0.7825 -12.0709 20.907)" class="st1" width="1.9" height="11"/>
	<rect x="19.8" y="24.7" transform="matrix(0.7825 -0.6226 0.6226 0.7825 -14.2655 19.5078)" class="st1" width="1.9" height="11"/>
	<rect x="27.6" y="17.6" transform="matrix(0.7826 -0.6225 0.6225 0.7826 -5.9676 21.9964)" class="st1" width="1.9" height="3.9"/>
	<rect x="31.5" y="22.5" transform="matrix(0.7826 -0.6225 0.6225 0.7826 -8.1876 25.5593)" class="st1" width="1.9" height="3.9"/>
	<path class="st1" d="M48.2,20.8l-1.8-2.1c-0.5-0.6-1.4-0.9-2.3-0.5c-2.2,1-5,0.4-6.6-1.6c-1.6-2.1-1.7-4.8-0.1-7
		c0.5-0.7,0.5-1.7,0-2.3L35.7,5c-1.4-1.7-3.8-2-5.5-0.6L1.5,27.2c-1.7,1.4-2,3.8-0.6,5.5l1.8,2.1c0.5,0.6,1.4,0.9,2.3,0.5
		c2.2-1,5-0.4,6.6,1.6c1.5,2,1.6,4.7,0.1,6.9c-0.5,0.7-0.5,1.7,0,2.3l1.8,2.2c1.4,1.7,3.9,2,5.6,0.6l0,0l28.6-22.8l0,0
		C49.3,24.9,49.5,22.5,48.2,20.8z M45.2,23.3L45.2,23.3L45.2,23.3l-7.6,6.1l-2.1-2.7l-1.5,1.2l2.1,2.7L16.6,46.1c0,0,0,0-0.1,0
		s-0.1,0-0.1,0L15.5,45c1.6-3.3,1.3-7.2-1-10.2l0,0c-2.4-3-6.2-4.2-9.8-3.2l-0.9-1.3l0,0l0,0l0,0l0,0l19.5-15.6l2.2,2.8l1.5-1.2
		l-2.2-2.8l7.7-6.2l0,0l0,0l0,0l0,0l0.9,1.2c-1.6,3.3-1.3,7.2,1,10.2l0,0c2.4,3,6.2,4.2,9.8,3.2l0.9,1.2
		C45.2,23.2,45.2,23.2,45.2,23.3C45.2,23.2,45.2,23.2,45.2,23.3L45.2,23.3z"/>
</g>
<g>
	<rect x="22.5" y="19.5" transform="matrix(0.7071 -0.7072 0.7072 0.7071 -10.8271 23.9503)" width="1.9" height="11"/>
	<rect x="19.7" y="22.3" transform="matrix(0.7071 -0.7071 0.7071 0.7071 -13.612 22.7813)" width="1.9" height="11"/>
	<rect x="26.2" y="14.4" transform="matrix(0.7072 -0.707 0.707 0.7072 -3.6318 23.9998)" width="1.9" height="3.9"/>
	<rect x="30.7" y="18.9" transform="matrix(0.7072 -0.707 0.707 0.7072 -5.4716 28.511)" width="1.9" height="3.9"/>
	<path d="M46.8,15.4l-2-1.9c-0.6-0.6-1.5-0.8-2.3-0.3c-2.1,1.2-4.9,1-6.7-0.9c-1.8-1.9-2.2-4.6-0.9-6.9c0.4-0.8,0.3-1.7-0.3-2.3
		l-2-1.9c-1.5-1.5-4-1.5-5.6,0L1.2,27.1c-1.5,1.5-1.5,4,0,5.6l2,1.9c0.6,0.6,1.5,0.8,2.3,0.3c2.1-1.2,4.9-1,6.7,0.9
		c1.7,1.8,2.1,4.5,0.9,6.8c-0.4,0.8-0.3,1.7,0.3,2.3l2,2c1.5,1.5,4.1,1.5,5.7,0l0,0l25.8-25.9l0,0C48.4,19.4,48.4,16.9,46.8,15.4z
		 M44.2,18.2L44.2,18.2L44.2,18.2l-6.9,6.9l-2.4-2.4l-1.3,1.3l2.4,2.4L18.3,44.2c0,0,0,0-0.1,0s-0.1,0-0.1,0l-1.1-1.1
		c1.2-3.5,0.5-7.3-2.1-10l0,0c-2.7-2.7-6.6-3.5-10.1-2.1l-1.1-1.2l0,0l0,0l0,0l0,0l17.7-17.7l2.5,2.5l1.3-1.3l-2.5-2.5l6.9-7l0,0
		l0,0l0,0l0,0l1.1,1.1c-1.2,3.5-0.5,7.3,2.1,10l0,0c2.7,2.7,6.6,3.5,10.1,2.1l1.1,1.1C44.2,18.1,44.2,18.1,44.2,18.2
		C44.2,18.1,44.2,18.1,44.2,18.2L44.2,18.2z"/>
</g>
<g class="st2">
	<path d="M35.1,4.5c0.2,0.2,0.4,0.3,0.5,0.5l1.8,2.1c0.5,0.6,0.5,1.6,0,2.3c-0.7,1-1.1,2.1-1.1,3.2c-0.2-0.1-0.4-0.3-0.5-0.4
		c-1.8-1.9-2.2-4.6-0.9-6.9C35.1,5.1,35.1,4.8,35.1,4.5z"/>
	<path d="M44.8,23l-1.9,1.9L21,46.8c-0.8,0.8-1.8,1.2-2.8,1.2c-1,0-2.1-0.4-2.8-1.2l-2-2c-0.6-0.6-0.7-1.5-0.3-2.3
		c1.2-2.3,0.9-5-0.9-6.8c-1.1-1.1-2.5-1.6-3.9-1.6c-1,0-1.9,0.3-2.8,0.8c-0.3,0.2-0.6,0.3-1,0.3c-0.5,0-1-0.2-1.4-0.6l-2-1.9
		C0.4,31.9,0,30.9,0,29.9c-0.1,1,0.2,2,0.8,2.9l1.8,2.1c0.4,0.4,0.9,0.7,1.5,0.7c0.3,0,0.5-0.1,0.8-0.2C5.6,35.1,6.4,35,7.1,35
		c1.6,0,3.2,0.7,4.3,2.1c1.5,2,1.6,4.7,0.1,6.9c-0.5,0.7-0.5,1.7,0,2.3l1.8,2.2c0.8,1,2,1.5,3.2,1.5c0.9,0,1.8-0.3,2.5-0.9
		l28.6-22.8c1.7-1.4,2-3.8,0.6-5.5L47.5,20c-0.2,0.3-0.4,0.7-0.7,1L44.8,23z"/>
</g>
</svg>
