<?xml version="1.0" encoding="utf-8"?>
<!-- Generator: Adobe Illustrator 22.0.1, SVG Export Plug-In . SVG Version: 6.00 Build 0)  -->
<svg version="1.1" id="Layer_1"
	xmlns="http://www.w3.org/2000/svg" x="0px" y="0px" viewBox="0 0 50 50"
	style="enable-background:new 0 0 50 50;" xml:space="preserve">
<style type="text/css">
	.st0{display:none;}
	.st1{display:inline;}
</style>
<g>
	<path d="M31,4l1.1,1.1c-1.3,3.6-0.5,7.6,2.2,10.4c1.9,1.9,4.4,2.9,6.9,2.9c1.2,0,2.4-0.2,3.6-0.7l1.1,1.1C46,18.9,46,18.9,46,19
		l-7.2,7.2l-2.5-2.5l-1.4,1.4l2.5,2.5L19.1,46c0,0,0,0-0.1,0s-0.1,0-0.1,0l-1.1-1.1c1.3-3.6,0.5-7.6-2.2-10.4
		c-1.9-1.9-4.4-2.9-6.9-2.9c-1.2,0-2.4,0.2-3.6,0.7L4,31.1l18.4-18.4l2.6,2.6l1.4-1.4l-2.6-2.6L31,4 M46,18.9C46,18.9,46,19,46,18.9
		C46,19,46,18.9,46,18.9 M31,0C31,0,31,0,31,0c-1.1,0-2.1,0.4-2.8,1.2L21,8.5c-0.2,0.2-0.4,0.5-0.6,0.8c-0.3,0.2-0.5,0.4-0.8,0.6
		L1.2,28.3c-1.5,1.5-1.6,4-0.1,5.5L2.2,35c0.8,0.8,1.8,1.3,2.9,1.3c0.5,0,1-0.1,1.4-0.3c0.7-0.3,1.4-0.4,2.1-0.4
		c1.5,0,3,0.6,4.1,1.7c1.6,1.7,2.1,4.1,1.3,6.2c-0.5,1.5-0.2,3.1,0.9,4.2l1.1,1.1c0.8,0.8,1.8,1.2,2.8,1.2H19h0.1
		c1.1,0,2.1-0.4,2.8-1.2l18.3-18.4c0.2-0.2,0.4-0.5,0.6-0.8c0.3-0.2,0.5-0.4,0.8-0.6l7.2-7.2c0,0,0,0,0.1-0.1c0,0,0,0,0,0
		c0,0,0,0,0,0c0,0,0,0,0,0c0,0,0,0,0,0c0,0,0,0,0,0c0,0,0,0,0,0C49.6,21,50,20.1,50,19c0,0,0,0,0,0v-0.1c0-0.8-0.2-1.5-0.6-2.2
		c-0.2-0.3-0.4-0.6-0.6-0.8l-1.1-1.1c-0.8-0.8-1.8-1.2-2.8-1.2c-0.5,0-1,0.1-1.4,0.3c-0.7,0.3-1.4,0.4-2.1,0.4c-1.5,0-3-0.6-4.1-1.7
		c-1.6-1.7-2.1-4.1-1.3-6.2C36.4,5,36,3.4,34.9,2.3l-1.1-1.1C33.1,0.4,32.1,0,31,0L31,0z"/>
</g>
<rect x="23.5" y="20.3" transform="matrix(0.7071 -0.7072 0.7072 0.7071 -11.2782 24.9482)" width="2" height="11.5"/>
<rect x="20.6" y="23.2" transform="matrix(0.7071 -0.7071 0.7071 0.7071 -14.1792 23.7305)" width="2" height="11.5"/>
<g class="st0">
	<rect x="27.3" y="15" transform="matrix(0.7072 -0.707 0.707 0.7072 -3.7831 24.9998)" class="st1" width="2" height="4.1"/>
	<rect x="32" y="19.7" transform="matrix(0.7072 -0.707 0.707 0.7072 -5.6996 29.699)" class="st1" width="2" height="4.1"/>
</g>
<g>
	<rect x="58" y="10" transform="matrix(1 -7.496572e-03 7.496572e-03 1 -7.682583e-02 0.4503)" width="4.1" height="0.9"/>
	<rect x="64.7" y="9.9" transform="matrix(1 -7.496562e-03 7.496562e-03 1 -7.617240e-02 0.5003)" width="4.1" height="0.9"/>
	<path d="M78-0.5c0-1-0.4-1.9-1.2-2.7l-0.1-0.1c-0.6-0.6-1.2-0.9-2-1.1c-0.4-0.1-0.7-0.1-1-0.1l-1.6,0c-1.1,0-2.1,0.4-2.8,1.2
		C69-3,68.7-2.5,68.6-2.1c-0.3,0.7-0.7,1.3-1.2,1.8c-1.1,1.1-2.5,1.7-4.1,1.7C61,1.3,58.9,0,58-2c-0.7-1.3-2.1-2.1-3.7-2.1l-1.6,0
		c-1.1-0.1-2,0.4-2.8,1.2c-0.8,0.8-1.2,1.8-1.1,2.8L48.9,11l7.7-0.1l0-0.9l-3.7,0L52.8-0.1l1.6,0c1.7,3.5,5.1,5.7,9,5.7
		c2.7,0,5.2-1.1,6.9-2.9c0.8-0.9,1.5-1.9,2-3.1l1.6,0c0.1,0,0.1,0,0.2,0.1l0.1,10.2l-3.5,0l0,1l7.5-0.1L78-0.3C78-0.3,78-0.3,78-0.5
		z"/>
</g>
</svg>
