<?xml version="1.0" encoding="utf-8"?>
<!-- Generator: Adobe Illustrator 22.0.1, SVG Export Plug-In . SVG Version: 6.00 Build 0)  -->
<svg version="1.1" id="Layer_1" xmlns="http://www.w3.org/2000/svg" x="0px" y="0px"
	viewBox="0 0 50 50" style="enable-background:new 0 0 50 50;" xml:space="preserve">
<g>
	<path d="M49.3,0.5c-0.4-0.4-1-0.5-1.6-0.5l-7.1,1.1c-0.6,0.1-1.2,0.5-1.5,1.1c-1.2,2.5-3.3,6.4-4.2,7.3c-1.7,1.7-5.9,3.5-9.8,3.6
		c-3.9,0-8.2-1.9-9.8-3.6c-0.9-1-3-4.8-4.2-7.3c-0.3-0.6-0.8-1-1.5-1.1L2.3,0C1.7-0.1,1.1,0.1,0.7,0.5S0,1.4,0,2v32.9
		c0,1,0.7,1.8,1.7,2l6.1,1c1,2,3.1,6,4.5,7.4c0,0,0,0,0,0C15,48,20.4,50,25,50c4.6,0,10-2,12.7-4.7c1.4-1.5,3.5-5.5,4.5-7.4l6.1-1
		c1-0.2,1.7-1,1.7-2V2C50,1.4,49.7,0.9,49.3,0.5z M46,33.2L40.5,34c-0.6,0.1-1.2,0.5-1.5,1.1c-1.2,2.5-3.3,6.4-4.2,7.3
		C33.2,44.1,28.9,46,25,46c-3.9,0-8.2-1.9-9.8-3.6c-0.9-1-3-4.8-4.2-7.3c-0.3-0.6-0.8-1-1.5-1.1L4,33.2V4.3l3.8,0.6
		c1,2,3.1,6,4.5,7.4c2.7,2.7,8,4.7,12.7,4.7c4.6,0,10-2,12.7-4.7c1.4-1.5,3.5-5.5,4.5-7.4L46,4.3V33.2z"/>
	<path d="M33.3,34.7c-1.2-0.8-1.9-2.2-1.9-3.7c0-0.3,0-0.5,0.1-0.8c0,0,0,0,0,0c0-0.1,0-0.2,0-0.2c0.1-0.4,0.1-0.7,0.1-0.9
		c0-2.3-1.1-4.2-2.9-5.4c0.1-0.3,0.1-0.6,0.1-0.8c0-2.1-1.7-3.7-3.7-3.7c-2.1,0-3.7,1.7-3.7,3.7c0,0.3,0,0.6,0.1,0.8
		c-1.7,1.2-2.9,3.2-2.9,5.4c0,0.2,0,0.6,0.1,0.9c0,0.1,0,0.1,0,0.2c0,0,0,0,0,0c0,0.3,0.1,0.5,0.1,0.8c0,1.5-0.7,2.8-1.9,3.7
		c-0.6,0.4-0.9,1.2-0.8,1.9c0.1,0.7,0.6,1.4,1.3,1.6c1.3,0.5,2.7,0.8,4,1c0,0,0,0,0,0c0,2.1,1.7,3.7,3.7,3.7c2.1,0,3.7-1.7,3.7-3.7
		c0,0,0,0,0,0c1.4-0.2,2.7-0.6,4-1c0.7-0.2,1.2-0.9,1.3-1.6C34.2,35.8,33.9,35.1,33.3,34.7z M21.5,35.2c0.7-1.3,1.1-2.7,1.1-4.2
		c0-0.5-0.1-0.9-0.1-1.3c0-0.1,0-0.2,0-0.3c0-0.1,0-0.1,0-0.2c0-0.1,0-0.2,0-0.3c0-1.4,1.1-2.5,2.5-2.5s2.5,1.1,2.5,2.5
		c0,0.1,0,0.2,0,0.3c0,0.1,0,0.1,0,0.2c0,0.1,0,0.2,0,0.3c0,0.4-0.1,0.8-0.1,1.3c0,1.5,0.4,3,1.1,4.2C26.2,35.6,23.8,35.6,21.5,35.2
		z"/>
</g>
</svg>
