<?xml version="1.0" encoding="utf-8"?>
<!-- Generator: Adobe Illustrator 24.0.1, SVG Export Plug-In . SVG Version: 6.00 Build 0)  -->
<svg version="1.1" id="Layer_1" xmlns="http://www.w3.org/2000/svg" xmlns:xlink="http://www.w3.org/1999/xlink" x="0px" y="0px"
	 viewBox="0 0 50 50" style="enable-background:new 0 0 50 50;" xml:space="preserve">
<g>
	<rect x="23.5" y="20.3" transform="matrix(0.7071 -0.7072 0.7072 0.7071 -11.2782 24.9482)" width="2" height="11.5"/>
	<rect x="20.6" y="23.2" transform="matrix(0.7071 -0.7071 0.7071 0.7071 -14.1792 23.7305)" width="2" height="11.5"/>
	<rect x="27.3" y="15" transform="matrix(0.7072 -0.707 0.707 0.7072 -3.7831 24.9998)" width="2" height="4.1"/>
	<rect x="32" y="19.7" transform="matrix(0.7072 -0.707 0.707 0.7072 -5.6996 29.699)" width="2" height="4.1"/>
	<path d="M48.8,16l-2.1-2c-0.6-0.6-1.6-0.8-2.4-0.3c-2.2,1.3-5.1,1-7-0.9c-1.9-2-2.3-4.8-0.9-7.2c0.4-0.8,0.3-1.8-0.3-2.4l-2.1-2
		c-1.6-1.6-4.2-1.6-5.8,0l-27,27c-1.6,1.6-1.6,4.2,0,5.8l2.1,2c0.6,0.6,1.6,0.8,2.4,0.3c2.2-1.3,5.1-1,7,0.9
		c1.8,1.9,2.2,4.7,0.9,7.1c-0.4,0.8-0.3,1.8,0.3,2.4l2.1,2.1c1.6,1.6,4.3,1.6,5.9,0l0,0l26.9-27l0,0C50.4,20.2,50.4,17.6,48.8,16z
		 M46,19L46,19L46,19l-7.2,7.2l-2.5-2.5l-1.4,1.4l2.5,2.5L19.1,46c0,0,0,0-0.1,0s-0.1,0-0.1,0l-1.1-1.1c1.3-3.6,0.5-7.6-2.2-10.4
		l0,0c-2.8-2.8-6.9-3.6-10.5-2.2L4,31.1l0,0l0,0l0,0l0,0l18.4-18.4l2.6,2.6l1.4-1.4l-2.6-2.6L31,4l0,0l0,0l0,0l0,0l1.1,1.1
		c-1.3,3.6-0.5,7.6,2.2,10.4l0,0c2.8,2.8,6.9,3.6,10.5,2.2l1.1,1.1C46,18.9,46,18.9,46,19C46,18.9,46,18.9,46,19L46,19z"/>
</g>
</svg>
