<?xml version="1.0" encoding="utf-8"?>
<!-- Generator: Adobe Illustrator 22.0.1, SVG Export Plug-In . SVG Version: 6.00 Build 0)  -->
<svg version="1.1" id="Layer_1"
	xmlns="http://www.w3.org/2000/svg" x="0px" y="0px" viewBox="0 0 50 50"
	style="enable-background:new 0 0 50 50;" xml:space="preserve">
<g>
	<path d="M25,0C11.2,0,0,11.2,0,25s11.2,25,25,25s25-11.2,25-25S38.8,0,25,0z M25,46C13.4,46,4,36.6,4,25S13.4,4,25,4s21,9.4,21,21
		S36.6,46,25,46z"/>
	<path d="M30.7,19.3c0.8,0.8,2,0.8,2.8,0c0.8-0.8,0.8-2,0-2.8c-1.8-1.8-4.1-2.9-6.5-3.3V10c0-1.1-0.9-2-2-2s-2,0.9-2,2v3.2
		c-2.4,0.4-4.7,1.5-6.5,3.3c-4.7,4.7-4.7,12.3,0,17c1.8,1.8,4.1,2.9,6.5,3.3V40c0,1.1,0.9,2,2,2s2-0.9,2-2v-3.2
		c2.4-0.4,4.7-1.5,6.5-3.3c0.8-0.8,0.8-2,0-2.8s-2-0.8-2.8,0c-3.1,3.1-8.2,3.1-11.3,0C17.8,29.1,17,27.1,17,25
		c0-2.1,0.8-4.1,2.3-5.7C22.5,16.2,27.5,16.2,30.7,19.3z"/>
</g>
</svg>
