<?xml version="1.0" encoding="utf-8"?>
<!-- Generator: Adobe Illustrator 22.0.1, SVG Export Plug-In . SVG Version: 6.00 Build 0)  -->
<svg version="1.1" id="Layer_1"
	xmlns="http://www.w3.org/2000/svg" x="0px" y="0px" viewBox="0 0 50 50"
	style="enable-background:new 0 0 50 50;" xml:space="preserve">
<style type="text/css">
	.st0{display:none;}
	.st1{display:inline;}
	.st2{fill:#040006;}
</style>
<g class="st0">
	<path class="st1" d="M46.5,41.1c0-3.3-2.6-5.9-5.9-5.9c-3.3,0-5.9,2.6-5.9,5.9s2.6,5.9,5.9,5.9l0,0C43.9,47,46.5,44.4,46.5,41.1z
		 M38.1,41.1c0-1.4,1.1-2.5,2.5-2.5s2.5,1.1,2.5,2.5s-1.1,2.5-2.5,2.5l0,0C39.3,43.7,38.1,42.5,38.1,41.1L38.1,41.1z"/>
	<path class="st1" d="M46,11.1H28.8c-0.9,0-1.7,0.8-1.7,1.7s0.8,1.7,1.7,1.7H46c0.3,0,0.6,0.2,0.6,0.5c0,0.1,0,0.1,0,0.2l-3.1,12.5
		c-0.2,0.8-0.9,1.3-1.6,1.3H19c-0.8,0-1.5-0.5-1.6-1.3l-5-20.8C11.8,4.6,9.7,3,7.4,3H1.7C0.8,3,0,3.7,0,4.6s0.8,1.7,1.7,1.7h5.7
		c0.8,0,1.5,0.5,1.6,1.3l5,20.8c0.5,2.3,2.6,3.9,4.9,3.9h22.9c2.3,0,4.4-1.6,4.9-3.9L49.9,16c0.5-2.1-0.8-4.3-2.9-4.8
		C46.7,11.2,46.4,11.1,46,11.1L46,11.1z"/>
	<path class="st1" d="M24.6,41.1c0-3.3-2.6-5.9-5.9-5.9s-5.9,2.6-5.9,5.9c0,3.3,2.6,5.9,5.9,5.9S24.6,44.4,24.6,41.1z M16.2,41.1
		c0-1.4,1.1-2.5,2.5-2.5s2.5,1.1,2.5,2.5s-1.1,2.5-2.5,2.5l0,0C17.4,43.7,16.2,42.5,16.2,41.1z"/>
</g>
<g>
	<path class="st2" d="M44,8H12c-3.3,0-6,2.7-6,6H5c-0.6,0-1,0.4-1,1s0.4,1,1,1h1v2H3c-0.6,0-1,0.4-1,1s0.4,1,1,1h3v2H1
		c-0.6,0-1,0.4-1,1s0.4,1,1,1h5v6c0,3.3,2.7,6,6,6h32c3.3,0,6-2.7,6-6V14C50,10.7,47.3,8,44,8z M46,30c0,1.1-0.9,2-2,2H12
		c-1.1,0-2-0.9-2-2v-6h1c0.6,0,1-0.4,1-1s-0.4-1-1-1h-1v-2h3c0.6,0,1-0.4,1-1s-0.4-1-1-1h-3v-2h5c0.6,0,1-0.4,1-1s-0.4-1-1-1h-5
		c0-1.1,0.9-2,2-2h32c1.1,0,2,0.9,2,2V30z"/>
	<path class="st2" d="M28,21c-1.1,0-2-0.9-2-2s0.9-2,2-2c0.8,0,1.5,0.5,1.8,1.2c0.2,0.4,0.5,0.6,0.9,0.6c0.1,0,0.3,0,0.4-0.1
		c0.5-0.2,0.7-0.8,0.5-1.3c-0.5-1.2-1.5-2-2.7-2.3v-0.2c0-0.6-0.4-1-1-1s-1,0.4-1,1v0.2c-1.7,0.4-3,2-3,3.8c0,2.2,1.8,4,4,4
		c1.1,0,2,0.9,2,2s-0.9,2-2,2c-0.8,0-1.5-0.5-1.8-1.2c-0.2-0.5-0.8-0.7-1.3-0.5c-0.5,0.2-0.7,0.8-0.5,1.3c0.5,1.2,1.5,2,2.7,2.3v0.2
		c0,0.6,0.4,1,1,1s1-0.4,1-1v-0.2c1.7-0.4,3-2,3-3.8C32,22.8,30.2,21,28,21z"/>
	<path class="st2" d="M32.1,42.4c-0.1-0.1-0.1-0.2-0.2-0.3l-4.2-4.2c-0.4-0.4-1-0.4-1.4,0s-0.4,1,0,1.4l2.5,2.5H17.1
		c-0.6,0-1,0.4-1,1s0.4,1,1,1h11.6l-2.5,2.5c-0.4,0.4-0.4,1,0,1.4c0.2,0.2,0.5,0.3,0.7,0.3s0.5-0.1,0.7-0.3l4.2-4.2
		c0.1-0.1,0.2-0.2,0.2-0.3C32.2,42.9,32.2,42.6,32.1,42.4z"/>
</g>
</svg>
