<?xml version="1.0" encoding="utf-8"?>
<!-- Generator: Adobe Illustrator 22.0.1, SVG Export Plug-In . SVG Version: 6.00 Build 0)  -->
<svg version="1.1" id="Layer_1"
	xmlns="http://www.w3.org/2000/svg" x="0px" y="0px" viewBox="0 0 50 50"
	style="enable-background:new 0 0 50 50;" xml:space="preserve">
<path d="M36.1,25c0,3.8,3.1,6.9,6.9,6.9s7-3.1,7-6.9s-3.1-6.9-6.9-6.9C39.3,18.1,36.1,21.2,36.1,25z"/>
<path d="M31.6,25c0-3.8-3.1-6.9-6.9-6.9s-6.9,3.1-6.9,6.9s3.1,6.9,6.9,6.9S31.6,28.8,31.6,25z"/>
<path d="M13.9,25c0-3.8-3.1-6.9-6.9-6.9S0,21.2,0,25s3.1,6.9,6.9,6.9C10.7,31.9,13.9,28.8,13.9,25z"/>
</svg>
