<?xml version="1.0" encoding="utf-8"?>
<!-- Generator: Adobe Illustrator 22.0.1, SVG Export Plug-In . SVG Version: 6.00 Build 0)  -->
<svg version="1.1" id="Capa_1" xmlns="http://www.w3.org/2000/svg" x="0px" y="0px"
	viewBox="0 0 61.4 50" style="enable-background:new 0 0 61.4 50;" xml:space="preserve">
<g>
	<path d="M46.1,14l-10.5,1h-9.9c-0.1,0-0.3,0-0.4,0h-0.1c-0.1,0-0.1,0-0.2,0l-9.8-0.9c-1.1-0.1-2.1,0.7-2.2,1.8
		C13,17,13.8,18,14.9,18.1l8.9,0.8l0.2,2.6l0,0.2l0.7,10.4V48c0,1.1,0.9,2,2,2c0,0,0,0,0,0c0,0,0,0,0,0c1.1,0,2-0.9,2-2V34h4v14
		c0,1.1,0.9,2,2,2c0,0,0,0,0,0c0,0,0,0,0,0c1.1,0,2-0.9,2-2V32.1l0.7-10.4l0-0.2l0.2-2.6l9-0.9c1.1-0.1,1.9-1.1,1.8-2.2
		C48.2,14.7,47.2,13.9,46.1,14z M28.6,30l-0.7-11h5.7l-0.7,11H28.6z"/>
	<path d="M30.7,14C30.7,14,30.7,14,30.7,14C30.7,14,30.7,14,30.7,14c4,0,7.1-3.1,7.1-7s-3.1-7-7-7c0,0,0,0,0,0c0,0,0,0,0,0
		c-3.9,0-7,3.1-7,7S26.9,14,30.7,14z M33.7,7c0,1.7-1.3,3-3,3c-1.7,0-3-1.3-3-3s1.3-3,3-3C32.4,4,33.7,5.3,33.7,7z"/>
</g>
<g>
	<path d="M15.2,14c3.9,0,7-3.1,7-7s-3.1-7-7-7s-7,3.1-7,7S11.3,14,15.2,14z M15.2,4c1.7,0,3,1.3,3,3s-1.3,3-3,3s-3-1.3-3-3
		S13.5,4,15.2,4z"/>
	<path d="M30.6,14l-10.5,1h-9.9c-0.1,0-0.3,0-0.4,0H9.7c-0.1,0-0.2,0-0.3,0.1l-0.1,0.1c-0.1,0-0.1,0.1-0.2,0.1L9,15.4
		c-0.1,0-0.1,0.1-0.2,0.1L0.6,24c-0.8,0.8-0.7,2.1,0.1,2.8C1,27.3,1.5,27.5,2,27.5s1-0.2,1.4-0.6l5-5.2l0.7,10.4V48c0,1.1,0.9,2,2,2
		s2-0.9,2-2V34h4v14c0,1.1,0.9,2,2,2s2-0.9,2-2V32.1L22,18.9l9-0.9c1.1-0.1,1.9-1.1,1.8-2.2S31.7,13.9,30.6,14z M18,19l-0.7,11H13
		l-0.7-11H18z"/>
</g>
<g>
	<path d="M46.2,14c3.9,0,7-3.1,7-7s-3.1-7-7-7s-7,3.1-7,7S42.4,14,46.2,14z M46.2,4c1.7,0,3,1.3,3,3s-1.3,3-3,3s-3-1.3-3-3
		S44.6,4,46.2,4z"/>
	<path d="M60.8,24.1l-8.2-8.5c-0.1-0.1-0.1-0.1-0.2-0.1l-0.1-0.1c-0.1-0.1-0.2-0.1-0.2-0.1s-0.1,0-0.1-0.1c-0.1,0-0.2-0.1-0.3-0.1
		h-0.1c-0.1,0-0.3,0-0.4,0h-9.9l-10.5-1c-1.1-0.1-2.1,0.7-2.2,1.8s0.7,2.1,1.8,2.2l8.9,0.8l0.9,13.2V48c0,1.1,0.9,2,2,2
		c1.1,0,2-0.9,2-2V34h4v14c0,1.1,0.9,2,2,2s2-0.9,2-2V32.1l0.7-10.4l5,5.2c0.4,0.4,0.9,0.6,1.4,0.6s1-0.2,1.4-0.6
		C61.6,26.2,61.6,24.9,60.8,24.1z M49.1,19l-0.7,11h-4.3l-0.7-11H49.1z"/>
</g>
<g>
	<path d="M35.6,15h-9.9c-0.1,0-0.3,0-0.4,0h-0.1c-0.1,0-0.1,0-0.2,0l-1.3,3.9l0.2,2.6l0,0.2l0.7,10.4V48c0,1.1,0.9,2,2,2
		c0,0,0,0,0,0c0,0,0,0,0,0c1.1,0,2-0.9,2-2V34h4v14c0,1.1,0.9,2,2,2c0,0,0,0,0,0c0,0,0,0,0,0c1.1,0,2-0.9,2-2V32.1l0.7-10.4l0-0.2
		l0.2-2.6L35.6,15z M28.6,30l-0.7-11h5.7l-0.7,11H28.6z"/>
	<path d="M30.7,14C30.7,14,30.7,14,30.7,14C30.7,14,30.7,14,30.7,14c4,0,7.1-3.1,7.1-7s-3.1-7-7-7c0,0,0,0,0,0c0,0,0,0,0,0
		c-3.9,0-7,3.1-7,7S26.9,14,30.7,14z M33.7,7c0,1.7-1.3,3-3,3c-1.7,0-3-1.3-3-3s1.3-3,3-3C32.4,4,33.7,5.3,33.7,7z"/>
</g>
</svg>
