<?xml version="1.0" encoding="UTF-8" standalone="no"?>
<!DOCTYPE svg PUBLIC "-//W3C//DTD SVG 1.1//EN" "http://www.w3.org/Graphics/SVG/1.1/DTD/svg11.dtd">
<svg width="100%" height="100%" viewBox="0 0 50 50" version="1.1" xmlns="http://www.w3.org/2000/svg" xmlns:xlink="http://www.w3.org/1999/xlink" xml:space="preserve" xmlns:serif="http://www.serif.com/" style="fill-rule:evenodd;clip-rule:evenodd;stroke-linejoin:round;stroke-miterlimit:2;">
    <g transform="matrix(1,0,0,1,-280,0)">
        <g id="trofeo-2" transform="matrix(0.925926,0,0,0.925926,212.407,1.85185)">
            <rect x="73" y="-2" width="54" height="54" style="fill:none;"/>
            <clipPath id="_clip1">
                <rect x="73" y="-2" width="54" height="54"/>
            </clipPath>
            <g clip-path="url(#_clip1)">
                <g transform="matrix(0.849451,-0.0080449,0,1.08,78.8739,-2.14951)">
                    <path d="M13.428,50.238L36.313,50.409C37.716,50.419 38.856,49.532 38.856,48.428C38.856,47.324 37.716,46.419 36.313,46.409L13.428,46.238C12.024,46.228 10.885,47.116 10.885,48.22C10.885,49.323 12.024,50.228 13.428,50.238Z"/>
                </g>
                <g transform="matrix(1.08,0,0,1.08,-229.4,-2)">
                    <path d="M289.854,3.047C284.572,3.308 281.996,5.341 281.071,7.63C280.111,10.007 280.813,13.066 282.813,15.824C285.313,19.269 289.757,22.208 294.106,22.545C294.256,22.677 294.41,22.805 294.569,22.931C295.769,23.881 297.227,24.665 299.007,25.204L299.007,41L297.989,41C297.17,41 296.433,41.5 296.131,42.261L294.142,47.261C293.897,47.877 293.973,48.574 294.345,49.123C294.717,49.671 295.337,50 296,50L314,50C314.663,50 315.283,49.671 315.655,49.123C316.027,48.574 316.103,47.877 315.858,47.261L313.869,42.261C313.567,41.5 312.83,41 312.011,41L310.993,41L310.993,25.204C312.773,24.665 314.231,23.881 315.431,22.931C315.59,22.805 315.745,22.676 315.896,22.543C320.197,22.198 324.6,19.263 327.086,15.82C329.072,13.068 329.779,10.016 328.843,7.645C327.935,5.347 325.389,3.307 320.145,3.046C319.701,2.564 319.063,2.108 318.188,1.747C315.715,0.725 310.739,-0.024 305,-0.024C299.261,-0.024 294.285,0.725 291.812,1.747C290.937,2.108 290.299,2.564 289.854,3.047ZM301.005,45L299.346,45C299.346,45 298.948,46 298.948,46C298.948,46 311.052,46 311.052,46L310.654,45L308.995,45L308.993,45L301.007,45L301.005,45ZM303.007,25.929L303.007,41C303.007,41 306.993,41 306.993,41L306.993,25.929C306.359,25.979 305.695,26.005 305,26.005C304.305,26.005 303.641,25.979 303.007,25.929ZM316.942,8.636C314.237,9.431 309.896,9.976 305,9.976C300.104,9.976 295.763,9.431 293.058,8.636C293.117,10.211 293.254,11.831 293.572,13.392C294.077,15.864 295.033,18.196 297.052,19.795C298.826,21.2 301.38,22.005 305,22.005C308.62,22.005 311.174,21.2 312.948,19.795C313.156,19.63 313.354,19.457 313.54,19.277C313.606,19.2 313.677,19.128 313.754,19.062C315.232,17.523 315.995,15.509 316.428,13.392C316.746,11.831 316.883,10.211 316.942,8.636ZM289.024,7.116C287.911,7.234 287.001,7.459 286.274,7.787C285.516,8.129 285.007,8.565 284.78,9.128C284.261,10.413 284.97,11.984 286.051,13.474C287.164,15.009 288.778,16.444 290.587,17.4C290.184,16.374 289.879,15.297 289.653,14.193C289.176,11.857 289.055,9.401 289.024,7.116ZM320.976,7.116C320.945,9.402 320.824,11.858 320.347,14.193C320.124,15.282 319.825,16.344 319.43,17.357C321.186,16.403 322.754,14.988 323.843,13.478C324.923,11.982 325.631,10.404 325.122,9.114C324.902,8.555 324.406,8.121 323.665,7.782C322.954,7.458 322.064,7.234 320.976,7.116ZM315.187,4.976C312.748,5.597 309.087,5.976 305,5.976C300.913,5.976 297.252,5.597 294.813,4.976C297.252,4.355 300.913,3.976 305,3.976C309.087,3.976 312.748,4.355 315.187,4.976ZM316.987,4.976L316.987,4.977L316.987,4.975L316.987,4.976Z"/>
                </g>
            </g>
        </g>
    </g>
</svg>
