<?xml version="1.0" encoding="UTF-8" standalone="no"?>
<!DOCTYPE svg PUBLIC "-//W3C//DTD SVG 1.1//EN" "http://www.w3.org/Graphics/SVG/1.1/DTD/svg11.dtd">
<svg width="100%" height="100%" viewBox="0 0 50 50" version="1.1" xmlns="http://www.w3.org/2000/svg" xmlns:xlink="http://www.w3.org/1999/xlink" xml:space="preserve" xmlns:serif="http://www.serif.com/" style="fill-rule:evenodd;clip-rule:evenodd;stroke-linejoin:round;stroke-miterlimit:2;">
    <g transform="matrix(1,0,0,1,-210,0)">
        <g id="trofeo" transform="matrix(0.925926,0,0,0.925926,142.407,1.85185)">
            <rect x="73" y="-2" width="54" height="54" style="fill:none;"/>
            <clipPath id="_clip1">
                <rect x="73" y="-2" width="54" height="54"/>
            </clipPath>
            <g clip-path="url(#_clip1)">
                <g transform="matrix(1.08,0,0,1.08,-153.8,-2)">
                    <path d="M219.854,3.047C214.572,3.308 211.996,5.341 211.071,7.63C210.111,10.007 210.813,13.066 212.813,15.824C215.313,19.269 219.757,22.208 224.106,22.545C224.256,22.677 224.41,22.805 224.569,22.931C225.747,23.863 227.173,24.636 228.909,25.174L228.018,39.471L224.221,47.086C224.085,47.35 224.006,47.648 224,47.964L224,48L224,48.03L224.001,48.045C224.008,48.401 224.109,48.734 224.28,49.021C224.287,49.032 224.293,49.042 224.299,49.052C224.471,49.33 224.705,49.557 224.977,49.718C225.267,49.892 225.605,49.994 225.966,50L225.987,50L226,50L244,50L244.034,50C244.395,49.994 244.733,49.892 245.023,49.718C245.295,49.557 245.529,49.33 245.701,49.052C245.707,49.042 245.713,49.032 245.72,49.021C245.891,48.734 245.992,48.401 245.999,48.045L246,48.012L246,47.974L246,47.964C245.994,47.648 245.915,47.35 245.779,47.086L241.982,39.471L241.091,25.174C242.827,24.636 244.253,23.863 245.431,22.931C245.59,22.805 245.745,22.676 245.896,22.543C250.197,22.198 254.6,19.263 257.086,15.82C259.072,13.068 259.779,10.016 258.843,7.645C257.935,5.347 255.389,3.307 250.145,3.046C249.701,2.564 249.063,2.108 248.188,1.747C245.715,0.725 240.739,-0.024 235,-0.024C229.261,-0.024 224.285,0.725 221.812,1.747C220.937,2.108 220.299,2.564 219.854,3.047ZM235.771,42L238.773,42L240.768,46L229.232,46C229.232,46 231.227,42 231.227,42L235.771,42ZM237.13,25.918C236.454,25.975 235.745,26.005 235,26.005C234.255,26.005 233.546,25.975 232.87,25.918L232.117,38L237.883,38L237.13,25.918ZM223.058,8.636C223.117,10.211 223.254,11.831 223.572,13.392C224.077,15.864 225.033,18.196 227.052,19.795C228.826,21.2 231.38,22.005 235,22.005C238.62,22.005 241.174,21.2 242.948,19.795C243.156,19.63 243.353,19.457 243.54,19.277C243.606,19.2 243.677,19.128 243.754,19.062C245.232,17.523 245.995,15.508 246.428,13.392C246.746,11.831 246.883,10.211 246.942,8.636C244.237,9.431 239.896,9.976 235,9.976C230.104,9.976 225.763,9.431 223.058,8.636ZM219.024,7.116C217.911,7.234 217.001,7.459 216.274,7.787C215.516,8.129 215.007,8.565 214.78,9.128C214.261,10.413 214.97,11.984 216.051,13.474C217.164,15.009 218.778,16.444 220.587,17.4C220.184,16.374 219.879,15.297 219.653,14.193C219.176,11.857 219.055,9.401 219.024,7.116ZM250.976,7.116C250.945,9.402 250.824,11.858 250.347,14.193C250.124,15.282 249.825,16.344 249.43,17.357C251.186,16.403 252.754,14.988 253.843,13.478C254.923,11.982 255.631,10.404 255.122,9.114C254.902,8.555 254.406,8.121 253.665,7.782C252.954,7.458 252.064,7.234 250.976,7.116ZM245.187,4.976C242.748,5.597 239.087,5.976 235,5.976C230.913,5.976 227.252,5.597 224.813,4.976C227.252,4.355 230.913,3.976 235,3.976C239.087,3.976 242.748,4.355 245.187,4.976ZM246.987,4.976L246.987,4.976L246.987,4.976L246.987,4.976Z"/>
                </g>
            </g>
        </g>
    </g>
</svg>
