<?xml version="1.0" encoding="utf-8"?>
<!-- Generator: Adobe Illustrator 22.0.1, SVG Export Plug-In . SVG Version: 6.00 Build 0)  -->
<svg version="1.1" id="Capa_1" xmlns="http://www.w3.org/2000/svg" x="0px" y="0px"
	viewBox="0 0 50 50" style="enable-background:new 0 0 50 50;" xml:space="preserve">
<style type="text/css">
	.st0{display:none;}
	.st1{display:inline;fill:none;stroke:#000000;stroke-width:8;stroke-opacity:0.3;}
	.st2{display:inline;fill:none;stroke:#000000;stroke-width:8;stroke-opacity:0.5;}
	.st3{display:inline;opacity:0.2;fill:none;stroke:#000000;stroke-width:8;enable-background:new    ;}
</style>
<g class="st0">
	<rect x="4" y="4" class="st1" width="192" height="192"/>
	<rect x="12" y="12" class="st2" width="176" height="176"/>
	<rect x="20" y="20" class="st3" width="160" height="160"/>
</g>
<path d="M49.4,12.3C48.2,10,45.6,8.6,43,9.1c-1.3,0.2-2.5,1-3.6,1.5c-2.8,1.4-5.7,2.6-8.3,4.3c0-1.9,0-3.8,0-5.7
	c0-2.2,0.3-4.6-1-6.5c-2.1-3-6.5-3.5-9.1-1C18.9,3.5,19,5.8,19,8.3c0,2.2,0,4.4,0,6.7c-2.4-1.5-5-2.6-7.4-3.8C8.8,9.7,5.9,8,2.8,9.9
	c-4.1,2.5-3.5,8.5,0.7,10.6c2.3,1.2,4.7,2.3,7.1,3.5c3.9,1.9,6.9,4.8,8,9.2c-2.3,0.5-4.1,2.5-4.5,4.8c-0.4,2.2,0.5,4.1,2,5.6
	c1.1,1.1,2.1,2.1,3.2,3.2c0.9,0.9,1.8,1.9,2.9,2.5c0.2,0.1,0.4,0.2,0.5,0.3c0,0,0,0,0,0c0,0,0,0,0,0c0.2,0.1,0.4,0.1,0.6,0.2
	c1.1,0.4,2.3,0.4,3.4,0c0.2-0.1,0.4-0.1,0.6-0.2c0,0,0,0,0,0c0,0,0,0,0,0c0.2-0.1,0.4-0.2,0.6-0.3c1.1-0.6,2-1.6,2.9-2.5
	c1.1-1.1,2.1-2.1,3.2-3.2c1.5-1.5,2.4-3.4,2-5.6c-0.4-2.3-2.2-4.3-4.5-4.8c1.1-4.3,4.1-7.3,8-9.2c2.4-1.2,4.9-2.3,7.2-3.6
	C49.6,18.9,50.9,15.3,49.4,12.3z M23,6c0-2.7,3.9-2.5,4,0.1c0.1,1.2,0,2.4,0,3.5c0,2.8,0,5.5,0,8.3c-0.7,0.7-1.4,1.4-2,2.1
	c-0.6-0.7-1.3-1.4-2-2.1V6z M31.4,40.4c-1.1,1.1-2.1,2.1-3.2,3.2c-0.9,0.9-2.1,2.6-3.5,2.4c-1.3-0.2-2.5-1.9-3.3-2.8
	c-0.7-0.7-1.4-1.4-2-2c-0.4-0.4-0.9-0.8-1.2-1.4c-0.7-1.8,1.4-3.5,3-2.4c0.7,0.5,1.2,1.2,1.8,1.8c0-3.3-0.1-6.4-1.4-9.5
	c-1.5-3.8-4.7-6.9-8.3-8.8c-1.9-0.9-3.7-1.9-5.6-2.8c-0.8-0.4-1.7-0.8-2.5-1.2c-1.3-0.7-1.8-2.7-0.3-3.6c1-0.6,1.9-0.1,2.8,0.4
	c1.1,0.6,2.2,1.1,3.3,1.7c2.7,1.3,5.5,2.6,7.9,4.5l0,0c3.4,2.7,6,6.6,7.2,10.8c0.8,2.8,0.8,5.7,0.8,8.6c0.7-0.7,1.4-1.7,2.2-2
	C31.2,36.3,32.9,38.9,31.4,40.4z M44.9,16.8c-5.7,2.8-12.1,5.1-15.5,10.8c0,0,0,0,0,0c-0.5-1.5-1.2-2.8-2-4.2c2-2.6,4.5-4.7,7.5-6.1
	c1.2-0.6,2.4-1.2,3.6-1.8c1.5-0.7,2.9-1.5,4.4-2.2c0.8-0.4,1.6-0.5,2.3,0C46.4,14.2,46.2,16.1,44.9,16.8z"/>
</svg>
