<?xml version="1.0" encoding="utf-8"?>
<!-- Generator: Adobe Illustrator 22.0.1, SVG Export Plug-In . SVG Version: 6.00 Build 0)  -->
<svg version="1.1" id="Layer_1"
	xmlns="http://www.w3.org/2000/svg" x="0px" y="0px" viewBox="0 0 50 50"
	style="enable-background:new 0 0 50 50;" xml:space="preserve">
<path d="M15.9,36.1c0.3,0.2,0.7,0.3,1,0.3s0.7-0.1,1-0.3l16.2-9.3c0.6-0.4,1-1,1-1.7s-0.4-1.4-1-1.7l-16.2-9.3c-0.6-0.4-1.4-0.4-2,0
	c-0.6,0.4-1,1-1,1.7v18.7C14.9,35,15.3,35.7,15.9,36.1z M18.9,19.1L29.1,25l-10.2,5.9V19.1z"/>
<path d="M48,6H2C0.9,6,0,6.9,0,8v34c0,1.1,0.9,2,2,2h46c1.1,0,2-0.9,2-2V8C50,6.9,49.1,6,48,6z M46,40H4V10h42V40z"/>
<path d="M10.5,48.7c-0.4,0.1-0.9,0.1-1.3-0.1C8.3,48.1,8,47,8.4,46.2l24-44.1C32.9,1.3,34,1,34.9,1.4C35.7,1.9,36,3,35.6,3.8
	l-24,44.1C11.3,48.3,10.9,48.6,10.5,48.7z"/>
</svg>
