<?xml version="1.0" encoding="UTF-8" standalone="no"?>
<!DOCTYPE svg PUBLIC "-//W3C//DTD SVG 1.1//EN" "http://www.w3.org/Graphics/SVG/1.1/DTD/svg11.dtd">
<svg width="100%" height="100%" viewBox="0 0 50 50" version="1.1" xmlns="http://www.w3.org/2000/svg" xmlns:xlink="http://www.w3.org/1999/xlink" xml:space="preserve" xmlns:serif="http://www.serif.com/" style="fill-rule:evenodd;clip-rule:evenodd;stroke-linejoin:round;stroke-miterlimit:2;">
    <g transform="matrix(1,0,0,1,-420,-350)">
        <g id="videocamara-grabando" transform="matrix(0.925926,0,0,0.925926,352.407,351.852)">
            <rect x="73" y="-2" width="54" height="54" style="fill:none;"/>
            <clipPath id="_clip1">
                <rect x="73" y="-2" width="54" height="54"/>
            </clipPath>
            <g clip-path="url(#_clip1)">
                <g transform="matrix(1.08,0,0,1.08,-380.6,-380)">
                    <path d="M458.751,386.199L467.253,389.374C467.867,389.603 468.554,389.517 469.093,389.143C469.631,388.769 469.952,388.156 469.952,387.5L469.952,361.475C469.952,360.82 469.631,360.206 469.093,359.832C468.554,359.459 467.867,359.373 467.253,359.602L458.751,362.776C458.469,361.829 457.954,360.957 457.243,360.245C456.117,359.12 454.591,358.488 453,358.488C446.264,358.488 432.736,358.488 426,358.488C424.409,358.488 422.883,359.12 421.757,360.245C420.632,361.37 420,362.896 420,364.488C420,368.642 420,375.255 420,380.488C420,386.011 424.477,390.488 430,390.488C437.18,390.488 447.42,390.488 453,390.488C454.591,390.488 456.117,389.856 457.243,388.73C457.954,388.019 458.469,387.147 458.751,386.199ZM455,364.488L455,384.488C455,385.018 454.789,385.527 454.414,385.902C454.039,386.277 453.53,386.488 453,386.488C453,386.488 430,386.488 430,386.488C426.686,386.488 424,383.801 424,380.488C424,380.488 424,364.488 424,364.488C424,363.957 424.211,363.449 424.586,363.074C424.961,362.698 425.47,362.488 426,362.488C426,362.488 453,362.488 453,362.488C453.53,362.488 454.039,362.698 454.414,363.074C454.789,363.449 455,363.957 455,364.488ZM459,382.023L459,366.953L465.952,364.357L465.952,384.619L459,382.023Z"/>
                </g>
                <g transform="matrix(1.24987,0,0,1.24987,-349.51,-269.273)">
                    <circle cx="361.373" cy="231.544" r="3.456"/>
                </g>
            </g>
        </g>
    </g>
</svg>
