<?xml version="1.0" encoding="UTF-8" standalone="no"?>
<!DOCTYPE svg PUBLIC "-//W3C//DTD SVG 1.1//EN" "http://www.w3.org/Graphics/SVG/1.1/DTD/svg11.dtd">
<svg width="100%" height="100%" viewBox="0 0 50 50" version="1.1" xmlns="http://www.w3.org/2000/svg" xmlns:xlink="http://www.w3.org/1999/xlink" xml:space="preserve" xmlns:serif="http://www.serif.com/" style="fill-rule:evenodd;clip-rule:evenodd;stroke-linejoin:round;stroke-miterlimit:2;">
    <g transform="matrix(1,0,0,1,-350,-350)">
        <g id="videocamara" transform="matrix(0.925926,0,0,0.925926,282.407,351.852)">
            <rect x="73" y="-2" width="54" height="54" style="fill:none;"/>
            <clipPath id="_clip1">
                <rect x="73" y="-2" width="54" height="54"/>
            </clipPath>
            <g clip-path="url(#_clip1)">
                <g transform="matrix(1.08,0,0,1.08,-305,-380)">
                    <path d="M388.751,386.199L397.253,389.374C397.867,389.603 398.554,389.517 399.093,389.143C399.631,388.769 399.952,388.156 399.952,387.5L399.952,361.475C399.952,360.82 399.631,360.206 399.093,359.832C398.554,359.459 397.867,359.373 397.253,359.602L388.751,362.776C388.469,361.829 387.954,360.957 387.243,360.245C386.117,359.12 384.591,358.488 383,358.488C376.264,358.488 362.736,358.488 356,358.488C354.409,358.488 352.883,359.12 351.757,360.245C350.632,361.37 350,362.896 350,364.488C350,368.642 350,375.255 350,380.488C350,386.011 354.477,390.488 360,390.488C367.18,390.488 377.42,390.488 383,390.488C384.591,390.488 386.117,389.856 387.243,388.73C387.954,388.019 388.469,387.147 388.751,386.199ZM385,364.488L385,384.488C385,385.018 384.789,385.527 384.414,385.902C384.039,386.277 383.53,386.488 383,386.488C383,386.488 360,386.488 360,386.488C356.686,386.488 354,383.801 354,380.488C354,380.488 354,364.488 354,364.488C354,363.957 354.211,363.449 354.586,363.074C354.961,362.698 355.47,362.488 356,362.488C356,362.488 383,362.488 383,362.488C383.53,362.488 384.039,362.698 384.414,363.074C384.789,363.449 385,363.957 385,364.488ZM389,382.023L389,366.953L395.952,364.357L395.952,384.619L389,382.023Z"/>
                </g>
            </g>
        </g>
    </g>
</svg>
