<?xml version="1.0" encoding="utf-8"?>
<!-- Generator: Adobe Illustrator 22.0.1, SVG Export Plug-In . SVG Version: 6.00 Build 0)  -->
<svg version="1.1" id="Layer_1"
	xmlns="http://www.w3.org/2000/svg" x="0px" y="0px" viewBox="0 0 50 50"
	style="enable-background:new 0 0 50 50;" xml:space="preserve">
<path d="M24,25l14.8-14.8c1.1-1.1,1.8-2.6,1.8-4.2c0-1.6-0.6-3.1-1.8-4.2C37.6,0.6,36.1,0,34.5,0c-1.6,0-3.1,0.6-4.2,1.8l-19,19
	c-1.1,1.1-1.8,2.6-1.8,4.2c0,1.6,0.6,3.1,1.8,4.2l19,19c1.1,1.1,2.6,1.8,4.2,1.8s3.1-0.6,4.2-1.8c2.3-2.3,2.3-6.1,0-8.5L24,25z
	 M35.9,45.4C35.5,45.8,35,46,34.5,46s-1-0.2-1.4-0.6l-19-19c-0.8-0.8-0.8-2,0-2.8l19-19C33.5,4.2,34,4,34.5,4s1,0.2,1.4,0.6
	c0.8,0.8,0.8,2,0,2.8L18.3,25l17.6,17.6C36.7,43.4,36.7,44.6,35.9,45.4z"/>
</svg>
