<?xml version="1.0" encoding="utf-8"?>
<!-- Generator: Adobe Illustrator 21.1.0, SVG Export Plug-In . SVG Version: 6.00 Build 0)  -->
<svg version="1.1" id="Layer_1" xmlns="http://www.w3.org/2000/svg" x="0px" y="0px"
	viewBox="0 0 50 50" style="enable-background:new 0 0 50 50;" xml:space="preserve">
<path d="M39.1,22.2c-0.3-0.7-1-1.1-1.8-1.1h-6.5l3.5-18.7c0.2-0.9-0.3-1.8-1.1-2.2c-0.8-0.4-1.8-0.1-2.4,0.6L11.1,25.7
	c-0.5,0.6-0.6,1.4-0.2,2.1c0.3,0.7,1,1.1,1.8,1.1h6.5l-3.5,18.7c-0.2,0.9,0.3,1.8,1.1,2.2c0.3,0.1,0.5,0.2,0.8,0.2
	c0.6,0,1.2-0.3,1.6-0.8l19.6-24.9C39.3,23.7,39.4,22.9,39.1,22.2z M21.1,40.4l2.4-13.1c0.1-0.6,0-1.2-0.4-1.6
	c-0.4-0.5-0.9-0.7-1.5-0.7h-4.8l12-15.3l-2.4,13.1c-0.1,0.6,0,1.2,0.4,1.6s0.9,0.7,1.5,0.7h4.8L21.1,40.4z"/>
</svg>
